<?xml version="1.0" standalone="no"?><!DOCTYPE svg PUBLIC "-//W3C//DTD SVG 1.1//EN" "http://www.w3.org/Graphics/SVG/1.1/DTD/svg11.dtd"><svg t="1673342333242" class="icon" viewBox="0 0 1024 1024" version="1.1" xmlns="http://www.w3.org/2000/svg" p-id="28513" xmlns:xlink="http://www.w3.org/1999/xlink" width="16" height="16"><path d="M256 597.333333c26.453333 20.693333 62.634667 36.309333 108.373333 46.890667 48.64 10.794667 98.048 16.128 147.626667 15.786667l0.042667-0.042667L512 661.333333c0 14.08 4.565333 27.093333 12.245333 37.674667l4.096 5.034667-2.005333 2.218666a64 64 0 0 0 0 80.810667l4.394667 4.864 17.834666 17.792c-11.946667 0.64-24.106667 0.938667-36.565333 0.938667a615.765333 615.765333 0 0 1-128.298667-12.714667c-39.381333-8.405333-70.528-20.010667-93.354666-34.474667-22.997333-14.506667-34.346667-30.293333-34.346667-47.232V597.333333z m0-213.333333c26.453333 20.693333 62.634667 36.309333 108.373333 46.890667 48.64 10.837333 98.048 16.170667 147.626667 15.786666a655.786667 655.786667 0 0 0 147.626667-15.829333c45.738667-10.581333 81.92-26.197333 108.330666-46.805333v118.954666a37.546667 37.546667 0 0 1-1.962666 11.989334A64 64 0 0 0 682.666667 573.312c-12.8 4.266667-26.965333 8.064-42.410667 11.392-39.381333 8.448-82.048 12.629333-128.298667 12.629333a615.765333 615.765333 0 0 1-128.298666-12.714666c-39.381333-8.448-70.528-19.968-93.397334-34.474667-22.954667-14.506667-34.304-30.250667-34.304-47.189333V384z m256-213.333333c46.250667 0 89.002667 3.84 128.298667 11.52 39.381333 7.594667 70.528 18.048 93.354666 31.146666 22.826667 13.141333 34.346667 27.392 34.346667 42.752v42.666667c0 15.36-11.434667 29.568-34.304 42.666667-22.954667 13.141333-53.973333 23.466667-93.354667 31.146666C601.002667 380.16 558.250667 384 512 384a674.133333 674.133333 0 0 1-128.298667-11.52C344.32 364.842667 313.173333 354.389333 290.304 341.333333 267.349333 328.106667 256 313.941333 256 298.581333v-42.666666c0-15.36 11.434667-29.568 34.304-42.666667 22.954667-13.013333 54.016-23.424 93.397333-31.104A674.261333 674.261333 0 0 1 512 170.666667z" fill="#045340" p-id="28514"></path><path d="M832 682.666667h-256a21.333333 21.333333 0 0 1 0-42.666667h204.501333l-48.896-48.896a21.333333 21.333333 0 1 1 30.165334-30.208l85.333333 85.333333A21.333333 21.333333 0 0 1 832 682.666667m-256 42.666666h256a21.333333 21.333333 0 0 1 0 42.666667h-204.501333l48.896 48.896a21.333333 21.333333 0 1 1-30.165334 30.208l-85.333333-85.333333A21.333333 21.333333 0 0 1 576 725.333333" fill="#67B4FA" p-id="28515"></path></svg>