<svg xmlns="http://www.w3.org/2000/svg" width="445.225" height="35.848" viewBox="0 0 445.225 35.848">
  <g id="蓝色标题背景" transform="translate(-1391.812 -420.536)">
    <path id="路径_205" data-name="路径 205" d="M1302.77,413.805l-16.345,23.2a5.156,5.156,0,0,0-.418,5.036,4.4,4.4,0,0,0,3.96,2.659h100.451a4.308,4.308,0,0,0,3.462-1.827l16.823-23.2a5.153,5.153,0,0,0,.482-5.043,4.414,4.414,0,0,0-3.944-2.71H1306.312a4.312,4.312,0,0,0-3.542,1.885Z" transform="translate(106.271 8.616)" fill="#66baff" opacity="0.3"/>
    <path id="路径_206" data-name="路径 206" d="M1305.169,417l-16.354,23.2a5.156,5.156,0,0,0-.418,5.036,4.4,4.4,0,0,0,3.96,2.659h100.45a4.307,4.307,0,0,0,3.462-1.818l16.823-23.2a5.153,5.153,0,0,0,.49-5.05,4.414,4.414,0,0,0-3.952-2.712H1308.693a4.314,4.314,0,0,0-3.524,1.885Z" transform="translate(105.998 8.495)" fill="#66baff" opacity="0.3"/>
    <path id="路径_207" data-name="路径 207" d="M1745.581,445.081H1418.924a.583.583,0,0,1-.529-.364.679.679,0,0,1,.078-.675l16.5-22.123" transform="translate(91.055 8.235)" fill="none" stroke="#9bd2ff" stroke-linecap="round" stroke-linejoin="round" stroke-width="0.8"/>
    <path id="路径_208" data-name="路径 208" d="M1431.146,443.34h-5.135a.3.3,0,0,1-.274-.189.35.35,0,0,1,.043-.349l1.665-2.126a.291.291,0,0,1,.23-.115h5.144a.3.3,0,0,1,.267.194.35.35,0,0,1-.045.345l-1.665,2.126A.275.275,0,0,1,1431.146,443.34Z" transform="translate(90.21 7.523)" fill="#66baff" opacity="0.5"/>
    <path id="路径_209" data-name="路径 209" d="M1435.3,438.6h-5.144a.3.3,0,0,1-.274-.189.349.349,0,0,1,.044-.349l1.673-2.135a.309.309,0,0,1,.23-.115h5.135a.3.3,0,0,1,.274.189.35.35,0,0,1-.044.349l-1.665,2.135A.291.291,0,0,1,1435.3,438.6Z" transform="translate(89.736 7.705)" fill="#66baff" opacity="0.5"/>
    <path id="路径_210" data-name="路径 210" d="M1439.3,434.12h-5.144a.3.3,0,0,1-.274-.189.349.349,0,0,1,.044-.349l1.665-2.126a.292.292,0,0,1,.23-.115h5.144a.3.3,0,0,1,.274.189.349.349,0,0,1-.044.349L1439.525,434a.292.292,0,0,1-.23.116Z" transform="translate(89.278 7.875)" fill="#66baff" opacity="0.5"/>
    <path id="路径_211" data-name="路径 211" d="M1443.466,429.65h-5.135a.3.3,0,0,1-.274-.189.35.35,0,0,1,.043-.349l1.673-2.116a.275.275,0,0,1,.23-.116h5.135a.3.3,0,0,1,.274.189.35.35,0,0,1-.044.349l-1.665,2.135a.3.3,0,0,1-.239.1Z" transform="translate(88.799 8.046)" fill="#66baff" opacity="0.5"/>
  </g>
</svg>
