<?xml version="1.0" standalone="no"?><!DOCTYPE svg PUBLIC "-//W3C//DTD SVG 1.1//EN" "http://www.w3.org/Graphics/SVG/1.1/DTD/svg11.dtd"><svg class="icon" width="200px" height="200.00px" viewBox="0 0 1024 1024" version="1.1" xmlns="http://www.w3.org/2000/svg"><path fill="#333333" d="M551.890046 268.790849s14.866015 1.791086 23.565576 4.963868c3.658933 1.330521-26.661596 6.422323-29.450573 6.550257-2.737803 0.127935 5.884997-11.514125 5.884997-11.514125zM562.815671 310.395221s12.460842-4.349781 24.640228-15.198645c-3.940389 9.54393-10.848864 26.943052-31.088138 26.201031-2.788977-0.102348 6.44791-11.002386 6.44791-11.002386z"  /><path fill="#333333" d="M880.042606 987.297831c-3.863629-2.814564-10.030082-6.166454-13.356385-9.134539 1.407282-3.863629 2.456347-15.096297 2.456347-15.096297s-24.691401-9.467169-25.586944-15.275406c-1.228173-8.111061 4.503302-17.399122 3.454237-23.028249-1.049065-5.629128-10.874451-15.710384-12.153798-22.977076-3.223955-18.652882-4.93828-37.587221-0.844369-57.44269 6.11528-29.783203 24.589053-38.994503-21.77449-87.097959-3.454237-2.737803 0.869956-15.505688-1.049065-20.367207-6.44791-16.24771-12.998168-27.736248-6.678192-41.78348-1.151412-21.697729-7.855192-52.427649-7.855192-52.427649s-10.413886-66.961033-38.508351-92.906195c-3.991563-3.68452-4.170672-5.475606-5.475606-9.313647 0.665261-3.172781 4.528889-7.855192 9.2113-12.204973 7.599322-7.061997 7.471388-11.590886 20.853359-0.434978 30.781094 25.663705 38.252482 110.27973 44.649218 128.574395 6.396736 18.294665 18.729643 37.126656 50.252758 46.440304-28.88766-35.207635-20.571903-60.308428-18.678469-108.1816 1.867847-46.952043-12.486429-61.101623-13.023754-69.366206l-0.307044-0.230283s-26.533661-25.484596-29.245877-28.29916c-1.944608-2.046956 19.420491 17.16884 32.213963 28.836486 3.172781 0.793195 6.78054 1.50963 16.298883 6.703779-5.398845-11.104734-3.300716-8.29017-11.181494-19.957816-12.691124-18.729643-13.868124-31.599876-33.365376-55.498082-11.565299-13.612254-22.644446-25.868401-49.254867-18.499361-7.752844 5.450019-19.522838 14.789254-19.522839 14.789254s-24.768162-11.71882-36.666091-17.475883c-4.93828-2.405173-25.817227-18.576122-25.817227-18.576122s13.919298-8.853083 28.350334-7.266692c-3.633346-6.524671-22.43975-8.494865-19.369316-9.134539 3.070433-0.614087 22.618859-9.057778 29.092355-7.957539 3.812455 0.639674-16.605927-8.0343-16.605927-8.034301s14.098406-9.748626 23.207359-9.825387c-1.279347-7.599322-16.298883-9.697452-16.298884-9.697451s14.763667-11.795581 23.693511-10.490648c-0.383804-9.492756-17.092079-12.435255-17.092079-12.435254s12.89582-4.887106 26.021922-5.040629c-5.245324-16.068601-16.759448-15.531275-16.759448-15.531275s13.177276-8.264583 23.36088-10.874451c-6.11528-9.083365-18.243491-6.217627-18.243491-6.217627s17.859687-14.763667 27.173335-10.106843c-6.601432-9.313648-18.831991-9.083365-18.831991-9.083366s20.776599-12.281733 29.322638-4.119498c-2.328412-12.435255-15.940666-14.866015-15.940667-14.866014s9.492756-8.853083 21.467447-6.627019c-4.631237-5.987345-12.102625-8.187822-12.102625-8.187822s8.981017-9.185713 18.294665-8.443692c-3.300716-7.061997-12.435255-8.725148-12.435255-8.725148s8.673974-8.238996 16.017427-6.627018c0.281456-4.528889-13.305211-9.057778-13.305211-9.057778 2.507521-4.707998 12.409668-5.987345 15.608036-2.737803 1.50963-5.475606-22.260642-20.290447-22.260641-20.290447s9.288061-7.292279 26.149857-5.859411c-0.204696-5.19415-23.02825-11.71882-23.02825-11.71882s15.608036-10.900038 28.682965-7.727257c-7.804018-12.025864-21.262751-11.38619-21.262751-11.38619s11.360603-18.345839 22.644446-15.224232c-4.989454-5.680302-14.661319-4.452128-17.578231-4.298607-3.479824 0.179109 18.729643-20.904533 27.71066-14.431036-8.213409-11.565299-37.536047 0.844369-32.802462-3.121608 10.976799-9.160126 26.661596-22.260642 44.700392-19.701947-19.522838-12.614364-38.68746-11.97469-38.68746-11.97469s13.151689-26.917465 39.275959-20.904533c-15.505688-14.379863-35.437918-15.147471-56.163342-0.562913 3.147194-12.691124 1.535217-7.03641 7.804018-12.767885 6.499084-5.936171 23.719097-13.996059 23.719097-13.996059s-30.755507-1.611977-53.42554 18.627296c-1.074652-1.356108 9.108952-25.53577 29.092356-32.597767-15.019536-0.307043-27.940943 7.880779-37.459286 14.635732 2.021369-18.08997 6.371149-23.386467 19.266969-39.403894-17.962035 5.85941-25.356662 20.188099-33.646832 31.625463-3.428651-6.243214-4.912693-14.507797 3.479824-25.331075-15.99184 6.754953-34.644723 41.527611-34.644722 41.527611s-3.479824-16.887383 9.288061-38.073373c-24.333184 8.853083-21.748903 28.503856-24.077315 33.570071-0.793195 1.714325-5.85941-10.541821-8.187822-22.260642-8.187822 15.224232-3.505411 42.167284-3.505412 42.167284s-12.102625-18.729643-15.608036-29.271464c-1.356108 5.936171 5.85941 46.849695 5.859411 46.849695s-13.458733 2.686629-21.109229-16.529166c0.5885 11.411777 12.384081 42.909306 10.541821 41.809067-1.25376-0.742021-5.142976-5.603541-5.424432-5.450019-1.228173 0.614087 8.443692 12.89582 10.158016 15.710383 11.283842 18.473774 11.590886 33.186267 8.929844 53.451127-5.015041 38.354829-9.467169 76.78642-19.318143 114.29688-1.637564 6.243214 0.255869 14.661319-10.004495 18.16673-10.951212-9.671865 1.407282-37.280178-0.051174-55.574843-2.200477-27.582726-33.186267-36.819613-49.996889-29.987898-27.736248 11.232669-20.751012 28.145639-26.508074 37.408112-0.409391 0.639674-13.689015 3.812455-15.121884 7.804018-0.92113 2.558694 13.586667 2.788977 12.512015 6.140867-1.25376 3.914802-1.484043 7.70167-5.219736 8.392518-2.353999 0.434978-3.275129 0.434978-3.275129 2.123716 0 4.196259 2.916912 10.874451 4.452128 14.635732 1.407282 3.454237 4.835932 16.068601 8.162235 18.038796 1.125826 0.665261 3.198368-4.221846 5.040628-4.093911 2.584281 0.179109 3.403064 2.149303 5.680302 2.865738 4.27302 1.356108 10.874451-4.145085 10.976799-1.893434 0.051174 1.356108 1.714325 7.36904-0.946717 10.772103-2.251651 2.891325-9.006604 6.959649-12.665537 11.360603-7.292279 8.750735-13.049342 18.08997-21.620968 17.424709-2.481934-0.179109-4.426541-6.499084-7.292279-7.906365-14.661319-7.292279-29.399399-17.194427-39.966807-29.501747-30.499638-35.514679-77.45168-42.37198-113.938663-67.600707-12.179385-8.443692-27.250096-13.381972-37.484873-25.79164C291.235845 154.442796 163.91521 0 163.91521 0L153.78278 4.631237s25.331075 25.331075 40.939111 50.636563c25.714879 41.706719 26.175444 72.590161 72.590161 121.154181 9.441582 9.87656 14.73808 24.128488 19.471665 37.254591 13.740189 38.124547 42.320806 62.739187 80.087135 68.624184 10.900038 1.688738 19.34373 1.714325 26.584835 10.976799a5988.931348 5988.931348 0 0 0 92.829434 116.47177c10.848864 13.177276 25.638118 22.388576 9.697452 23.642337-8.469279 0.665261-33.749179-1.25376-33.74918-1.25376s-8.87867 14.047232-12.844646 21.211576c-2.533107 4.580063-9.671865 11.821168-13.535493 12.946994-3.710107 1.074652-7.727257-5.066215-12.998168-10.362712-1.739912-1.739912-9.160126-5.833823-8.571626-9.134539 0.793195-4.554476 4.426541-6.243214 10.13243-8.315757-7.010823-6.243214-15.32658-4.682411-15.32658-4.682411s-1.560804-4.93828 4.426542-15.07071c-15.838318 4.682411-22.874728 27.813008-31.446355 16.119775-1.484043-2.021369 0.255869-5.19415-3.223955-7.573736-1.023478-0.690847-8.392518 0.230282-8.981017-0.230282-1.791086-1.356108 4.60565-4.503302 0.511739-5.705889-4.27302-1.279347-16.170949-0.102348-18.959926-1.816673-2.123716-1.304934 4.477715-3.530998 1.304934-4.682411-1.330521-0.486152-13.996059 1.791086-15.32658 1.304934-0.972304-0.358217 1.791086-2.507521 0.767609-2.865737-1.995782-0.690847-8.0343-0.742021-10.030082-1.356108a103.24332 103.24332 0 0 0-16.170949-3.761281c-7.317866-0.997891-15.582449 5.910584-21.851251 3.556585-8.904257-3.35189-2.865738-14.558971-20.674251-33.416549-4.01715 20.93012-4.375367 26.943052-0.383804 34.184157 2.328412 4.221846 11.949103 7.548149 2.609869 13.254038-1.560804 0.946717-9.185713-1.304934-10.925626-1.049065-9.262474 1.407282-5.322084 3.35189-9.364821 9.083365-0.767608 1.074652-4.733585 0.869956-5.450019 2.072543-1.074652 1.791086 2.17489 8.6228 0.511739 9.87656-21.825663 16.375644-17.936448 33.774766-45.212131 53.272018-1.791086 1.279347-6.268801-1.100239-8.827496 0a26.533661 26.533661 0 0 0-4.93828 4.93828c-0.946717 2.277238 3.428651 5.245324 2.098129 7.548149-2.558694 4.477715-7.138757 8.418105-10.925625 12.998167-10.285952 12.435255-24.154075 24.691401-16.631514 40.273851 3.633346 7.548149 5.961758 5.015041 8.827496 8.059887 2.200477 2.353999-1.560804 2.328412 4.426542 8.827496 3.530998 3.838042 8.904257 1.279347 10.644168 5.705889 1.125826 2.865738-10.644169 9.87656-6.243214 16.887383 2.046956 3.275129 4.042737-1.663151 4.682411 2.072542 0.383804 2.17489-1.228173 8.213409-1.151413 10.362713 0.281456 7.445801 11.616473 6.78054 17.015318 4.375367 24.435532-10.823277 53.451127-11.923516 78.270463-20.904533 16.861796-6.11528 26.763944-14.712493 28.196812-8.750735 0.844369 3.582172-6.396736 11.565299-7.906365 21.902424-5.347671 37.17783 27.0454 73.920682 60.896927 76.78642-10.695343-9.953321-25.279901-23.258532-29.655269-35.975244-1.458456-4.247433 5.450019-7.215518 4.375368-11.565299-1.049065-4.196259-7.445801-6.064106-8.264583-10.311538-2.609868-13.330798 8.750735-10.209191-6.806127-43.267523-5.015041-10.644169 11.027973-12.870233 19.932229-17.987622 8.6228-4.963867 11.795581-2.865738 16.094188 2.43076 12.179385 14.993949 24.333184 30.06466 36.307874 45.237717 8.162235 10.311539 12.742298 23.514402 7.061997 34.593549-10.311539 20.136925-7.061997 35.821722 5.936171 53.195257 4.963867 6.601432 10.772104 19.881056 6.345562 18.652882-4.426541-1.228173-11.207082 2.916912-18.780817 3.044847-4.631237 0.076761-10.46506-3.991563-13.254037 4.221846 10.311539 12.946994 23.156185 20.648664 40.350611 20.188099 6.192041-0.179109 16.401231 3.172781 21.083642 4.119498 6.601432 12.409668 9.415995 27.37803 18.448187 38.124547 17.450296 20.802186 37.791917 38.175721 45.851804 65.47699 6.703779 22.644446 15.121884 44.905087 24.640227 66.526055 5.782649 13.126102 9.7998 20.085751 7.62491 32.290724-0.358217 1.944608 0.281456 11.411777-0.307044 13.305211-0.5885 1.893434-3.914802 2.277238-4.759171 4.145085a54.653713 54.653713 0 0 1-12.204973 16.733861c-13.254037 12.665537-16.477992 19.241382 0.690848 28.094465 12.281733 6.319975 41.092632-3.505411 41.092632-3.505411s7.087584-21.697729 7.03641-27.403618c-0.051174-5.296497-10.362712-6.729366-8.776322-12.63995 1.535217-5.757062 16.861796-11.590886 12.998168-20.00899-5.603541-12.230559-21.697729-31.98368-23.872619-46.005326-1.688738-10.848864 1.176999-20.674251-1.765499-30.550812-1.765499-5.961758-10.592995-7.855192-12.281734-13.689015-1.867847-6.422323 0.639674-11.104734-1.765499-17.552644-4.810346-12.946994-16.017427-27.403617-22.311815-39.813285-5.450019-10.746517-3.68452-22.362989-4.554476-33.672419-0.614087-7.983127 3.377477-13.740189 10.439473-16.682687 8.87867-3.710107 13.22845 3.454237 16.452405 9.313648 5.501193 9.953321 9.006604 21.006881 14.40545 31.036963 8.008714 14.866015 16.887383 34.056223 21.032468 51.58328 3.223955 13.714602 1.125826 26.508074 9.492756 34.772657 11.002386 10.874451 25.024031 13.637841 34.056223 25.996335 6.575845 8.981017 9.313648 23.335293 16.145362 31.958094 4.707998 5.936171 11.488538 9.825387 16.350057 15.659209 4.580063 5.501193 9.236887 10.951212 14.07282 16.24771 5.066215 5.552367 17.015318 17.962035 21.569794 16.91297 4.554476-1.049065 12.281733-21.416272 15.812731-33.007158 3.198368-10.541821-7.087584-8.776322-15.121884-11.949103-3.965976-1.560804 0.793195-7.164344-3.505411-9.825386-4.27302-2.661042-12.63995 3.505411-20.367208-5.629128-3.223955-3.812455-3.863629-9.825387-3.863628-9.825387s-13.458733-6.575845-20.725425-14.047232c-7.138757-7.36904-21.160403-22.69562-24.947271-31.599876-3.633346-8.571626-1.714325-16.401231-5.629128-24.589054-5.450019-11.462951-15.863905-16.503579-13.689015-28.810899 4.631237-26.226618-4.170672-43.497805-3.863628-64.274404 0.307043-21.18599 20.034577-10.516234 30.192594-20.00899 4.93828-4.60565 10.490647-12.051451 14.405449-4.554477 7.061997 13.509907 17.220013 23.872619 35.463505 31.958094 7.752844 3.428651 6.857301 15.249819 12.639951 21.083642 6.192041 6.217627 13.637841 10.030082 19.266969 18.4226 9.595104 14.277515 19.369317 29.22029 32.725701 36.384635 8.264583 4.426541 19.292556 1.867847 25.638118 8.776321 3.710107 4.01715 1.228173 10.158017 4.554477 13.689016 21.928011 23.335293 33.749179 48.717542 38.124547 81.059439 1.304934 9.620691 2.609868 25.024031 2.609868 25.024032s28.862073 27.96653 44.418935 39.966806c4.60565 3.556585 10.13243 7.215518 17.066492 7.445801 6.524671 0.204696 14.507797-2.865738 17.910861-4.554476 2.302825-4.093911 4.60565-24.358771 0.742021-27.147748zM291.44054 192.030017c0.434978-3.249542 1.049065-7.70167 3.249542-9.236887 4.196259-2.942499 8.494865-0.076761 10.951213 3.68452 8.366931 12.742298 22.542098 21.339512 29.373812 39.35272-33.800353-3.454237-46.184434-13.919298-43.574567-33.800353zM176.913378 551.833627l-1.611978 0.946717-1.611977 0.92113c-0.051174 0.025587-0.537326 0.358217-0.690848 0.358217h-7.420213c0.153522 0 0.511739-0.307043 0.66526-0.409391l1.611978-0.946717 1.611977-0.92113c0.051174-0.025587 0.537326-0.358217 0.690848-0.358217h7.420213c-0.153522 0-0.537326 0.33263-0.66526 0.409391z m83.976351-65.425817l5.757062-4.631236c7.95754-2.993672 10.618582-1.279347 11.64206 0.844369 1.023478 2.123716-13.023755 6.934062-14.226341 7.420213-1.176999 0.486152-4.810346 0.025587-4.810345 0.025587l1.637564-3.658933z m3.454237 104.42032c-5.168563 0.486152-7.113171-2.123716-5.808236-5.015041 12.051451-5.19415 40.887937-23.821445 50.841258-19.804295-10.311539 18.371426-27.864182 23.181772-45.033022 24.819336z m44.700392-38.68746c-8.0343 6.166454-38.917742 23.386467-51.992671 31.804572-13.663428 5.501193-27.326856 11.05356-41.067045 16.426818-8.776322 3.428651-17.092079 5.015041-21.672142-6.601431-4.400954-11.258255 4.503302-11.155908 10.669756-16.017428 27.736248-21.902424 60.666645-32.009267 92.599151-44.62363 6.038519-2.379586 12.153799-4.861519 15.812732 2.584281 2.993672 6.11528 1.151412 12.204972-4.349781 16.426818z m20.341621 15.684797c-1.074652 0.358217-3.965976-2.891325-3.965977-2.891325l2.174891-7.215518 5.782649-6.857301c7.215518-1.816673 9.032191 3.607759 9.390409 9.032191 0.33263 5.398845-12.30732 7.548149-13.381972 7.931953z m27.224508-56.214516c-4.01715-2.558694-6.371149-7.727257-9.620691-11.411778-7.573736 6.166454-17.936448 8.673974-27.019813 12.128212 1.611977-0.614087 2.942499-2.021369 4.580063-2.635455 3.198368-1.228173 6.44791-2.17489 9.697452-3.249542 2.814564-0.92113 5.961758-1.739912 8.29017-3.633346 1.304934-1.074652 2.481934-2.277238 3.556585-3.582173a13.356385 13.356385 0 0 0-2.098129-1.714325c0.767608 0.486152 1.484043 1.023478 2.226064 1.50963 2.533107-3.070433 4.452128-6.678192 5.450019-10.541821a26.994226 26.994226 0 0 0-12.946994-29.834377c0.742021 0.434978 3.761281-3.09602 4.580063-2.635455 12.63995 7.215518 17.450296 23.335293 10.413887 36.179939-1.688738 3.070433-3.838042 5.552367-6.319975 7.650496 39.762111 25.996335 74.099791 61.664536 100.172886 101.324299-3.403064-5.19415-9.185713-8.853083-12.614363-14.072819-20.520729-31.241659-46.875282-55.472495-78.347224-75.481485z m120.66803 224.269566c-1.356108 3.530998 0.434978-2.277238 2.123716-9.185713a17.962035 17.962035 0 0 0-1.816673-8.955431c-1.637564-3.326303-3.607759-6.524671-7.804018-6.729366-4.068324-0.230282-11.64206-0.358217-11.360603-3.556585 0.434978-5.19415-1.202586-9.492756-5.680302-12.486429a38.892155 38.892155 0 0 1-9.671865-9.850973 14.584558 14.584558 0 0 1-2.993672-10.746517l4.554476-16.759449c-0.844369-1.381695 4.887106-2.891325 6.78054-3.735693 0.255869-0.511739 0.460565-0.767608 0.614087-0.460565 0.051174 0.102348-0.230282 0.281456-0.614087 0.460565-0.690847 1.432869-1.714325 5.066215-3.070433 5.219736-1.867847 0.204696-0.383804 4.145085-0.434978 5.808237-0.33263 8.469279 0.665261 16.682688 7.420213 22.721206 8.059887 7.215518 17.271187 13.177276 23.923793 21.953598a5.117389 5.117389 0 0 0 1.919021 1.432869c1.637564 0.793195-0.025587 8.776322-1.714325 15.684797-0.179109 3.070433-1.023478 6.140867-2.17489 9.185713z m26.482487-75.430312c-1.714325 17.680578 1.023478 33.82594 5.808236 50.764498-10.848864-12.332907-13.893711-38.380416-5.808236-50.764498z m28.375921-290.207122c-1.50963 5.168563-13.740189 12.512016-17.475883 18.755231-4.324194 7.215518-5.040628 19.215795-7.880779 20.674251-4.707998 2.456347-10.925625-10.081256-17.552643-18.192318-29.117943-35.540266-58.773211-70.645553-88.223784-105.904362 37.126656 3.530998 75.072094 1.023478 90.884826 41.399676 1.791086 4.554476 3.300716 17.859687 7.676083 19.522838 22.337402 8.418105 35.412331 14.098406 32.57218 23.744684z m174.093569-285.064146c-9.288061 0.690847-14.175167 6.985236-19.471665 13.842537 0.051174-10.592995 10.106843-17.552644 19.471665-13.842537z m-32.060441 62.611253c0-2.635455 0-5.270911 0.051174-7.880779-0.025587 0.818782 0-3.044846 0.102347-1.330521l1.177 22.209468c0.281456 5.398845 0.102348 10.848864 0.102348 16.247709 0 2.635455 0 5.270911-0.051174 7.880779 0.025587-0.818782 0 3.044846-0.102348 1.330521l-1.176999-22.209467c-0.307043-5.398845-0.127935-10.848864-0.102348-16.24771z m-70.619966 245.557904a95.106672 95.106672 0 0 1-16.426819 43.318697c0.358217-0.537326-0.076761-3.121607-0.102347-3.863629l-0.051174-9.339234c0-3.121607 0-6.217627 0.051174-9.339235 0-0.102348-0.230282-3.403064 0.102347-3.863629 6.703779-9.620691 11.590886-20.392795 14.354276-31.804571 0.767608-3.121607 1.304934-6.243214 1.714325-9.390409a108.590991 108.590991 0 0 0-1.381695-7.548149c-0.92113-4.068324-0.127935-9.057778-0.127934-13.202863 0-3.121607 0-6.217627 0.051174-9.339234 0-0.793195 0.307043-2.916912 0.102347-3.863629 1.867847 8.187822 2.405173 16.350057 2.481934 24.716988 0.076761 11.130321 0.537326 22.43975-0.767608 33.518897z m1.25376-135.099066c-0.255869 0-0.153522-26.405726 0-26.405726 8.648387 0.051174 11.283842 9.646278 11.923516 16.58034 0.92113 9.850974 0.486152 19.93223 0.383804 29.783203a90.321913 90.321913 0 0 1-1.25376 15.556862c0.204696-1.151412-0.076761-2.661042-0.102348-3.863629l-0.051174-9.339234c0-3.121607 0-6.217627 0.051174-9.339235l-0.025587-1.995781c-1.407282-5.603541-4.400954-10.951212-10.925625-10.9768z m9.902147 397.134962c-3.275129-15.32658 3.249542-34.798244 12.486429-38.252481-7.778431 9.697452-10.030082 23.36088-12.486429 38.252481z m110.100621 67.856577c0.818782-8.699561-0.818782-17.654992 0-26.405727 0.818782-8.776322 1.663151-17.527057 2.456347-26.303379a36.026418 36.026418 0 0 0-2.226064-6.882888c-1.970195-4.426541-4.835932-8.366931-7.36904-12.460842a52.811453 52.811453 0 0 1-8.136648-27.557139c-0.230282-12.102625-1.279347-24.972858 1.407282-36.870786-0.895543 3.965976 0.127935 9.134539 0.127934 13.202863 0 3.223955 0.460565 7.061997 0.204696 10.516234 0.127935 0.562913 0.230282 1.125826 0.409391 1.688738 1.560804 5.117389 4.093911 9.671865 6.959649 14.149581 5.424432 8.494865 9.288061 16.273297 9.697452 26.533661 0.946717 23.69351-1.304934 46.900869-3.530999 70.389684z m-75.507072-200.703991c-5.629128 0.742021-22.183881 4.324194-24.333184-3.223955-2.353999-8.29017 10.413886-10.490647 15.531275-12.30732 17.373535-6.140867 34.030636-7.548149 53.323192-1.7655 8.801909 2.635455 20.213686-2.046956 21.390685-9.671865 0.742021-4.835932-2.712216-6.627019-8.418104-8.981017-5.066215-2.072542-14.993949 0.742021-17.654992 0.486152-6.959649-0.690847-14.431037-1.893434-21.390685-2.635455-16.964144-1.84226-16.145362-12.56319-14.200754-30.294942 0.537326-4.784759 0.127935-9.262474 3.223955-8.87867 3.09602 0.383804 10.848864 5.040628 37.101069 10.618582 26.277792 5.577954 53.886105 5.424432 53.886104 5.424432s-5.782649 12.665537-5.066215 55.702778c-0.281456 7.804018-7.087584 14.866015-8.418104 14.047232-26.661596-26.098683-54.960756-12.486429-84.974242-8.520452z m163.244704 374.87432c-12.972581-16.017427-9.646278-25.842814-12.563189-36.563743-2.584281-9.54393-3.991563-22.311815-8.776322-29.859964-4.682411-7.36904-16.887383-11.104734-26.328966-16.861796-28.145639-17.16884-36.128765-47.489369-30.550811-80.957092 0.690847-4.093911-0.025587-9.288061 5.296497-10.772104 5.475606-1.535217 7.394627 3.326303 9.902148 6.729367 14.431037 19.67636 32.879223 37.638395 42.320805 59.464058 13.637841 31.65105 25.561357 65.272295 20.699838 108.821274z"  /></svg>