<?xml version="1.0" encoding="UTF-8"?>
<svg width="447px" height="37px" viewBox="0 0 447 37" version="1.1" xmlns="http://www.w3.org/2000/svg" xmlns:xlink="http://www.w3.org/1999/xlink">
    <title>中间标题背景</title>
    <g id="页面-1" stroke="none" stroke-width="1" fill="none" fill-rule="evenodd">
        <g id="画板" transform="translate(-1376.000000, -412.000000)">
            <g id="中间标题背景" transform="translate(1376.831057, 412.448000)">
                <path d="M17.2309431,1.885 L0.885943144,25.085 C-0.12284599,26.5756376 -0.281281401,28.4844431 0.467943144,30.121 C1.15134212,31.7079969 2.70035069,32.7481014 4.42794314,32.78 L104.878943,32.78 C106.258979,32.7607274 107.54623,32.0814066 108.340943,30.953 L125.163943,7.753 C126.196869,6.27247724 126.379719,4.35938063 125.645943,2.71 C124.977475,1.11058186 123.434697,0.0505089578 121.701943,5.68434189e-14 L20.7729431,5.68434189e-14 C19.3540484,0.00729454704 18.0295568,0.712169377 17.2309431,1.885 L17.2309431,1.885 Z" id="路径_205" fill="#5294FF" fill-rule="nonzero" opacity="0.3"></path>
                <path d="M19.3569431,4.959 L3.00294314,28.159 C1.99415401,29.6496376 1.8357186,31.5584431 2.58494314,33.195 C3.26834212,34.7819969 4.81735069,35.8221014 6.54494314,35.854 L106.994943,35.854 C108.373388,35.8369661 109.660389,35.1611234 110.456943,34.036 L127.279943,10.836 C128.31809,9.35526482 128.504054,7.43869674 127.769943,5.786 C127.100896,4.18321209 125.554109,3.12175316 123.817943,3.074 L22.8809431,3.074 C21.4685181,3.08752944 20.1521815,3.7916425 19.3569431,4.959 L19.3569431,4.959 Z" id="路径_206" fill="#5294FF" fill-rule="nonzero" opacity="0.3"></path>
                <path d="M444.825943,32.78 L118.168943,32.78 C117.935657,32.7754581 117.727548,32.6322603 117.639943,32.416 C117.543395,32.1932363 117.573135,31.9358737 117.717943,31.741 L134.217943,9.618" id="路径_207" stroke="#A5C9FF" stroke-width="0.8" stroke-linecap="round" stroke-linejoin="round"></path>
                <path d="M129.545943,30.327 L124.410943,30.327 C124.28983,30.3250925 124.181746,30.2505382 124.136943,30.138 C124.087556,30.0223869 124.10397,29.8891675 124.179943,29.789 L125.844943,27.663 C125.899596,27.5910346 125.984579,27.5485426 126.074943,27.548 L131.218943,27.548 C131.338714,27.5535026 131.443706,27.6297893 131.485943,27.742 C131.533212,27.8568395 131.516087,27.9881274 131.440943,28.087 L129.775943,30.213 C129.722803,30.2866467 129.63673,30.329309 129.545943,30.327 L129.545943,30.327 Z" id="路径_208" fill="#5294FF" fill-rule="nonzero" opacity="0.5"></path>
                <path d="M133.225943,25.769 L128.081943,25.769 C127.96083,25.7670925 127.852746,25.6925382 127.807943,25.58 C127.758624,25.4642409 127.775435,25.3308955 127.851943,25.231 L129.524943,23.096 C129.581261,23.0260714 129.66521,22.9840969 129.754943,22.981 L134.889943,22.981 C135.011057,22.9829075 135.119141,23.0574618 135.163943,23.17 C135.213048,23.285789 135.19625,23.4190222 135.119943,23.519 L133.454943,25.654 C133.400505,25.7256885 133.315955,25.7681483 133.225943,25.769 Z" id="路径_209" fill="#5294FF" fill-rule="nonzero" opacity="0.5"></path>
                <path d="M136.767943,21.459 L131.623943,21.459 C131.50283,21.4570925 131.394746,21.3825382 131.349943,21.27 C131.300624,21.1542409 131.317435,21.0208955 131.393943,20.921 L133.058943,18.795 C133.113695,18.723155 133.198616,18.6806947 133.288943,18.68 L138.432943,18.68 C138.554057,18.6819075 138.662141,18.7564618 138.706943,18.869 C138.756263,18.9847591 138.739451,19.1181045 138.662943,19.218 L136.992943,21.339 C136.938397,21.4112215 136.853444,21.4540672 136.762943,21.455 L136.767943,21.459 Z" id="路径_210" fill="#5294FF" fill-rule="nonzero" opacity="0.5"></path>
                <path d="M140.454943,17.16 L135.319943,17.16 C135.19883,17.1580925 135.090746,17.0835382 135.045943,16.971 C134.996556,16.8553869 135.01297,16.7221675 135.088943,16.622 L136.761943,14.506 C136.81464,14.4315965 136.900787,14.3881483 136.991943,14.39 L142.126943,14.39 C142.248057,14.3919075 142.356141,14.4664618 142.400943,14.579 C142.450048,14.694789 142.43325,14.8280222 142.356943,14.928 L140.691943,17.063 C140.631518,17.130788 140.543639,17.1675574 140.452943,17.163 L140.454943,17.16 Z" id="路径_211" fill="#5294FF" fill-rule="nonzero" opacity="0.5"></path>
            </g>
        </g>
    </g>
</svg>