<svg t="1622448679678" class="icon" viewBox="0 0 1024 1024" version="1.1" xmlns="http://www.w3.org/2000/svg" p-id="1087" width="24" height="24"><path d="M512 512m-469.333333 0a469.333333 469.333333 0 1 0 938.666666 0 469.333333 469.333333 0 1 0-938.666666 0Z" fill="#1D6453" p-id="1088"></path><path d="M373.589333 352.597333a33.664 33.664 0 0 0-50.261333 0l-142.208 153.6a40.533333 40.533333 0 0 0 0 54.314667l142.208 153.6c6.912 7.466667 16 11.221333 25.130667 11.221333s18.176-3.754667 25.130666-11.264a40.533333 40.533333 0 0 0 0-54.314666L256.512 533.333333l117.077333-126.464a40.618667 40.618667 0 0 0 0-54.272zM842.922667 506.197333l-142.208-153.6c-13.909333-15.018667-36.394667-15.018667-50.261334 0s-13.909333 39.296 0 54.314667l117.077334 126.464-117.077334 126.464a40.533333 40.533333 0 0 0 0 54.314667 34.218667 34.218667 0 0 0 25.088 11.178666 34.133333 34.133333 0 0 0 25.130667-11.264l142.208-153.6a40.533333 40.533333 0 0 0 0.042667-54.272zM575.146667 343.765333c-17.621333-7.381333-37.290667 2.645333-43.946667 22.485334l-102.4 307.2c-6.613333 19.84 2.346667 41.984 19.968 49.450666A31.872 31.872 0 0 0 460.8 725.333333c13.824 0 26.794667-9.514667 31.957333-24.917333l102.4-307.2c6.613333-19.84-2.346667-41.984-20.010666-49.450667z" fill="#FFFFFF" p-id="1089"></path></svg>