<?xml version="1.0" encoding="UTF-8"?>
<svg width="24px" height="24px" viewBox="0 0 24 24" version="1.1" xmlns="http://www.w3.org/2000/svg" xmlns:xlink="http://www.w3.org/1999/xlink">
    <title>加</title>
    <defs>
        <filter id="filter-1">
            <feColorMatrix in="SourceGraphic" type="matrix" values="0 0 0 0 0.811765 0 0 0 0 0.811765 0 0 0 0 0.811765 0 0 0 1.000000 0"></feColorMatrix>
        </filter>
    </defs>
    <g id="页面-1" stroke="none" stroke-width="1" fill="none" fill-rule="evenodd">
        <g id="3快捷方式配置" transform="translate(-1150.000000, -356.000000)">
            <g id="加" transform="translate(1031.000000, 328.000000)" filter="url(#filter-1)">
                <g transform="translate(119.000000, 28.000000)">
                    <rect id="矩形" fill="#000000" fill-rule="nonzero" opacity="0" x="0" y="0" width="24" height="24"></rect>
                    <path d="M21.1195313,12.6914062 L13.396875,12.6914062 L13.396875,20.9765625 C13.396875,21.7476562 12.7710938,22.3734375 12,22.3734375 C11.2289063,22.3734375 10.6054688,21.7476562 10.603125,20.9765625 L10.603125,12.6914062 L2.88046875,12.6914062 C2.11875,12.6914062 1.5,12.0726562 1.5,11.3109375 C1.5,10.5492187 2.11875,9.93046875 2.88046875,9.93046875 L10.603125,9.93046875 L10.603125,3.0234375 C10.603125,2.25234375 11.2289062,1.6265625 12,1.6265625 C12.7710938,1.6265625 13.3945312,2.25234375 13.396875,3.0234375 L13.396875,9.928125 L21.1195313,9.928125 C21.88125,9.928125 22.5,10.546875 22.5,11.3085937 C22.5,12.0726562 21.88125,12.6914062 21.1195313,12.6914062 Z" id="路径" fill="#000000" fill-rule="nonzero"></path>
                </g>
            </g>
        </g>
    </g>
</svg>