<?xml version="1.0" encoding="UTF-8"?>
<svg width="447px" height="37px" viewBox="0 0 447 37" version="1.1" xmlns="http://www.w3.org/2000/svg" xmlns:xlink="http://www.w3.org/1999/xlink">
    <title>紫色标题背景</title>
    <g id="页面-1" stroke="none" stroke-width="1" fill="none" fill-rule="evenodd">
        <g id="画板" transform="translate(-1376.000000, -179.000000)">
            <g id="紫色标题背景" transform="translate(1376.751816, 179.959000)">
                <path d="M17.1861838,1.866 L0.886183801,24.95 C-0.117144061,26.4324925 -0.279906779,28.3292459 0.456183801,29.961 C1.12854386,31.5423682 2.65770622,32.5896435 4.3751838,32.645 L104.533184,32.645 C105.90844,32.6251034 107.191489,31.9495796 107.986184,30.827 L124.809184,7.743 C125.836038,6.26443964 126.016868,4.35719643 125.286184,2.712 C124.62,1.1166416 123.084115,0.0567638042 121.356184,-2.84217094e-14 L20.6801838,-2.84217094e-14 C19.2797051,0.016671439 17.9745682,0.712495843 17.1801838,1.866 L17.1861838,1.866 Z" id="路径_198" fill="#4C4CC9" fill-rule="nonzero" opacity="0.5"></path>
                <path d="M19.3061838,4.925 L3.0061838,28.009 C2.00266704,29.4914256 1.83989569,31.3882796 2.5761838,33.02 C3.24854386,34.6013682 4.77770622,35.6486435 6.4951838,35.704 L106.644184,35.704 C108.022629,35.6869661 109.30963,35.0111234 110.106184,33.886 L126.929184,10.802 C127.929103,9.32513142 128.094757,7.4363787 127.367184,5.808 C126.702876,4.23011975 125.186768,3.17807866 123.476184,3.108 L22.7911838,3.108 C21.4028945,3.11523376 20.1035093,3.79229945 19.3021838,4.926 L19.3061838,4.925 Z" id="路径_199" fill="#4C4CC9" fill-rule="nonzero" opacity="0.5"></path>
                <path d="M445.462184,32.675 L118.841184,32.675 C118.606473,32.6743614 118.395116,32.5327995 118.305184,32.316 C118.206504,32.0924781 118.235528,31.8331736 118.381184,31.637 L134.832184,9.611" id="路径_200" stroke="#A5A5E4" stroke-width="0.8" stroke-linecap="round" stroke-linejoin="round"></path>
                <path d="M130.229184,30.222 L125.102184,30.222 C124.982497,30.2214251 124.875369,30.1476257 124.832184,30.036 C124.784165,29.9215035 124.802579,29.7899166 124.880184,29.693 L126.536184,27.567 C126.590936,27.495155 126.675856,27.4526947 126.766184,27.452 L131.893184,27.452 C132.010871,27.4567121 132.114914,27.5298545 132.159184,27.639 C132.208166,27.7512704 132.194892,27.8809786 132.124184,27.981 L130.459184,30.107 C130.406265,30.1810249 130.320155,30.22408 130.229184,30.222 L130.229184,30.222 Z" id="路径_201" fill="#4C4CC9" fill-rule="nonzero" opacity="0.5"></path>
                <path d="M133.928184,25.672 L128.801184,25.672 C128.680112,25.6754318 128.56966,25.6032587 128.524184,25.491 C128.473868,25.3752925 128.491976,25.2412144 128.571184,25.143 L130.236184,23.017 C130.285366,22.9434276 130.368708,22.9000594 130.457184,22.902 L135.584184,22.902 C135.705297,22.9039075 135.813381,22.9784618 135.858184,23.091 C135.907571,23.2066131 135.891157,23.3398325 135.815184,23.44 L134.151184,25.556 C134.102132,25.6297171 134.018704,25.67313 133.930184,25.671 L133.928184,25.672 Z" id="路径_202" fill="#4C4CC9" fill-rule="nonzero" opacity="0.5"></path>
                <path d="M137.409184,21.383 L132.283184,21.383 C132.163413,21.3774974 132.058421,21.3012107 132.016184,21.189 C131.968706,21.0741881 131.985844,20.9427923 132.061184,20.844 L133.717184,18.718 C133.774162,18.648896 133.857714,18.60712 133.947184,18.603 L139.073184,18.603 C139.194297,18.6049075 139.302381,18.6794618 139.347184,18.792 C139.396786,18.9075826 139.380358,19.0409142 139.304184,19.141 L137.639184,21.267 C137.586265,21.3410249 137.500155,21.38408 137.409184,21.382 L137.409184,21.383 Z" id="路径_203" fill="#4C4CC9" fill-rule="nonzero" opacity="0.5"></path>
                <path d="M141.101184,17.112 L135.983184,17.112 C135.86207,17.1100925 135.753986,17.0355382 135.709184,16.923 C135.659797,16.8073869 135.67621,16.6741675 135.752184,16.574 L137.408184,14.448 C137.462936,14.376155 137.547856,14.3336947 137.638184,14.333 L142.765184,14.333 C142.886297,14.3349075 142.994381,14.4094618 143.039184,14.522 C143.088786,14.6375826 143.072358,14.7709142 142.996184,14.871 L141.331184,16.997 C141.274866,17.0669286 141.190917,17.1089031 141.101184,17.112 L141.101184,17.112 Z" id="路径_204" fill="#4C4CC9" fill-rule="nonzero" opacity="0.5"></path>
            </g>
        </g>
    </g>
</svg>