<?xml version="1.0" standalone="no"?><!DOCTYPE svg PUBLIC "-//W3C//DTD SVG 1.1//EN" "http://www.w3.org/Graphics/SVG/1.1/DTD/svg11.dtd"><svg t="1623317620590" class="icon" viewBox="0 0 1024 1024" version="1.1" xmlns="http://www.w3.org/2000/svg" p-id="3318" xmlns:xlink="http://www.w3.org/1999/xlink" width="20" height="20"><defs><style type="text/css"></style></defs><path d="M512 512m-469.333333 0a469.333333 469.333333 0 1 0 938.666666 0 469.333333 469.333333 0 1 0-938.666666 0Z" fill="#0a9c96" p-id="3319"></path><path d="M725.333333 341.333333h-85.333333V298.666667a42.666667 42.666667 0 0 0-42.666667-42.666667h-170.666666a42.666667 42.666667 0 0 0-42.666667 42.666667v42.666666H298.666667a42.666667 42.666667 0 0 0-42.666667 42.666667v170.666667h128v-21.333334a21.333333 21.333333 0 0 1 42.666667 0v21.333334h170.666666v-21.333334a21.333333 21.333333 0 0 1 42.666667 0v21.333334h128V384a42.666667 42.666667 0 0 0-42.666667-42.666667z m-298.666666-42.666666h170.666666v42.666666h-170.666666V298.666667zM640 618.666667a21.333333 21.333333 0 0 1-42.666667 0V597.333333h-170.666666v21.333334a21.333333 21.333333 0 0 1-42.666667 0V597.333333H256v85.333334a42.666667 42.666667 0 0 0 42.666667 42.666666h426.666666a42.666667 42.666667 0 0 0 42.666667-42.666666v-85.333334h-128v21.333334z" fill="#FFFFFF" p-id="3320"></path></svg>