<?xml version="1.0" standalone="no"?><!DOCTYPE svg PUBLIC "-//W3C//DTD SVG 1.1//EN" "http://www.w3.org/Graphics/SVG/1.1/DTD/svg11.dtd"><svg t="1622600238583" class="icon" viewBox="0 0 1024 1024" version="1.1" xmlns="http://www.w3.org/2000/svg" p-id="3543" width="56" height="56" xmlns:xlink="http://www.w3.org/1999/xlink"><defs><style type="text/css"></style></defs><path d="M420.571429 896h182.857142a91.428571 91.428571 0 0 1-182.857142 0z m384-182.857143V457.142857h-0.914286c0.365714-6.070857 0.914286-12.105143 0.914286-18.285714 0-136.283429-93.312-250.459429-219.428572-282.989714V128h-2.578286c1.517714-5.869714 2.578286-11.940571 2.578286-18.285714a73.142857 73.142857 0 0 0-146.285714 0c0 6.345143 1.060571 12.416 2.578286 18.285714H438.857143v27.867429C312.740571 188.397714 219.428571 302.573714 219.428571 438.857143c0 6.180571 0.548571 12.214857 0.914286 18.285714H219.428571v256l-91.428571 73.142857v54.857143h768v-54.857143l-91.428571-73.142857z" fill="#4eaffd" p-id="3544"></path></svg>