<?xml version="1.0" encoding="UTF-8"?>
<svg width="16px" height="16px" viewBox="0 0 16 16" version="1.1" xmlns="http://www.w3.org/2000/svg" xmlns:xlink="http://www.w3.org/1999/xlink">
    <title>图标/人员备份 2</title>
    <g id="图标/人员备份-2" stroke="none" stroke-width="1" fill="none" fill-rule="evenodd">
        <rect id="矩形" fill-opacity="0" fill="#FFFFFF" x="0" y="0" width="16" height="16"></rect>
        <path d="M7.1321145,3.18867925 C8.67172872,3.22641509 9.88142561,4.47169811 9.91808309,6.05660377 C9.91808309,7.0754717 9.36822087,7.98113208 8.56175628,8.50943396 C9.80811064,9 10.7978626,10.0943396 11.12778,11.4528302 C11.8609296,9.49056604 12.5940792,7.56603774 13.3272289,5.60377358 C13.4738588,5.18867925 14.097036,5.37735849 13.9870635,5.71698113 L13.9870635,5.71698113 L11.3477249,12.7358491 C11.3110674,12.8113208 11.2744099,12.8490566 11.2377524,12.8867925 L11.2377524,12.8867925 L11.2377524,13 L3.02647659,13 C2.8065317,11.0377358 3.9795711,9.1509434 5.70247273,8.47169811 C4.89600814,7.98113208 4.30948844,7.0754717 4.34614592,6.01886792 C4.3828034,4.50943396 5.59250028,3.1509434 7.1321145,3.18867925 Z M13.6204887,4.20754717 C14.0603785,4.20754717 14.0603785,4.88679245 13.6204887,4.88679245 L13.6204887,4.88679245 L12.5207643,4.88679245 C12.0808745,4.88679245 12.0808745,4.20754717 12.5207643,4.20754717 L12.5207643,4.20754717 Z M13.6571462,3 C14.097036,3 14.097036,3.67924528 13.6571462,3.67924528 L13.6571462,3.67924528 L10.7245477,3.67924528 C10.3213154,3.67924528 10.3213154,3 10.7245477,3 L10.7245477,3 Z" id="形状结合" fill="#1F8AFF" fill-rule="nonzero"></path>
    </g>
</svg>