<?xml version="1.0" encoding="UTF-8"?>
<svg width="96px" height="48px" viewBox="0 0 96 48" version="1.1" xmlns="http://www.w3.org/2000/svg" xmlns:xlink="http://www.w3.org/1999/xlink">
    <title>编组 9</title>
    <g id="页面-1" stroke="none" stroke-width="1" fill="none" fill-rule="evenodd">
        <g id="登录页蓝色" transform="translate(-1238.000000, -466.000000)">
            <g id="组_4156" transform="translate(530.000000, 200.000000)">
                <g id="编组-7" transform="translate(484.000000, 70.000000)">
                    <g id="编组-4" transform="translate(0.000000, 68.000000)">
                        <g id="编组-9" transform="translate(224.000000, 128.000000)">
                            <rect id="矩形" fill="#FFFFFF" x="0" y="0" width="96" height="48"></rect>
                            <path d="M14.496885,13.1245623 L22.784,17.909 L22.7779595,17.871845 C22.7266772,17.5382638 22.7266772,17.5382638 22.7469509,17.2383458 L22.7684173,17.0421409 C22.8272515,16.6572116 22.8272515,16.6572116 23.0556411,16.5507118 C23.2514035,16.4594262 23.2514035,16.4594262 23.9898221,16.2541216 C24.7282407,16.048817 24.7282407,16.048817 25.9342556,15.8240767 C27.1402704,15.5993364 27.1402704,15.5993364 28.7410202,15.3692753 C30.34177,15.1392143 30.34177,15.1392143 32.2295678,15.0136302 C33.3909513,14.9487275 33.3909513,14.9487275 33.8625933,15.960167 C34.0299501,16.3190648 34.0299501,16.3190648 34.0385687,16.5930972 C34.0471873,16.8671295 34.0471873,16.8671295 33.9383132,17.3151144 L33.9383132,17.3151144 L32.7799212,21.9863284 C32.5273474,22.9779808 32.5273474,22.9779808 32.7859898,23.5326411 C33.0598464,24.1199286 33.0598464,24.1199286 34.371174,24.461765 L34.371174,24.461765 L36.9133605,25.1432394 C37.4570281,25.2869391 37.4570281,25.2869391 37.9071237,25.6132978 C38.3572192,25.9396564 38.3572192,25.9396564 38.6158616,26.4943168 C39.1940034,27.7341458 39.1940034,27.7341458 38.9837745,28.9443821 C38.7735457,30.1546184 38.7735457,30.1546184 37.7855876,32.1247318 C37.6136579,32.5226767 37.6136579,32.5226767 37.0436076,33.344598 C36.4735573,34.1665193 36.4735573,34.1665193 35.8056257,35.0340834 C35.1376942,35.9016475 35.1376942,35.9016475 34.4817669,36.6245883 C33.8258396,37.3475291 33.8258396,37.3475291 33.4995688,37.4996716 C32.9449084,37.758314 32.9449084,37.758314 32.466495,37.5841858 L32.466495,37.5841858 L31.0594848,37.2075237 C30.5962857,37.0660225 30.5962857,37.0660225 30.5050002,36.87026 C30.4289289,36.7071246 30.4289289,36.7071246 30.5866557,36.5342714 C30.7443826,36.3614181 30.7443826,36.3614181 31.4643769,35.9462361 C33.0849138,34.9919593 33.0849138,34.9919593 34.1367632,33.9255106 C35.1886126,32.8590619 35.1886126,32.8590619 35.7565522,31.819656 C36.3244918,30.7802501 36.3244918,30.7802501 36.3911088,29.8157284 C36.4577258,28.8512066 36.4577258,28.8512066 36.1230121,28.1334108 C35.8643697,27.5787505 35.8643697,27.5787505 35.2305159,27.1990541 C34.5966621,26.8193577 34.5966621,26.8193577 33.1570249,26.4579098 L33.1570249,26.4579098 L30.8062036,25.8460868 C30.0385437,25.64795 30.0385437,25.64795 29.9016153,25.3543063 C29.8407583,25.223798 29.8407583,25.223798 30.0573193,24.6660154 C30.2738803,24.1082329 30.2738803,24.1082329 30.7702336,22.4468018 C31.1599114,21.1528871 31.1599114,21.1528871 31.3428339,20.3526001 C31.5257564,19.552313 31.5257564,19.552313 31.5878884,19.0466811 C31.6500204,18.5410492 31.6500204,18.5410492 31.6087748,18.2822312 C31.5675292,18.0234131 31.5675292,18.0234131 31.4762436,17.8276506 C31.3849581,17.6318881 31.3849581,17.6318881 30.9586953,17.6121889 C30.5324325,17.5924896 30.5324325,17.5924896 29.9104073,17.6640759 C29.2883821,17.7356622 29.2883821,17.7356622 28.5597692,17.876812 C27.8311563,18.0179617 27.8311563,18.0179617 27.2069325,18.1700165 C26.5827087,18.3220712 26.5827087,18.3220712 26.1118146,18.4622095 C25.6409205,18.6023478 25.6409205,18.6023478 25.5104121,18.6632048 C25.0668211,18.8700548 25.0668211,18.8700548 24.8227116,19.0879827 L25.8228735,19.6636248 L24.2935766,22.3124447 L15.022707,16.9599056 L10.5960509,22.4825677 L10.9039865,22.4478523 C11.8129092,22.3587242 11.8129092,22.3587242 12.5432222,22.4498118 C14.0511095,22.6505744 14.0511095,22.6505744 15.6495353,23.573426 C18.6484865,25.3048713 18.6484865,25.3048713 19.6178407,28.4423069 C20.5871948,31.5797425 20.5871948,31.5797425 18.8733277,34.5482476 C17.089148,37.6385374 17.089148,37.6385374 13.8163439,38.895091 C10.5435398,40.1516446 10.5435398,40.1516446 6.35718652,37.7346524 C3.69314353,36.1965665 3.69314353,36.1965665 2.51135885,33.5149619 C1.32957418,30.8333574 1.32957418,30.8333574 2.87897329,27.5872194 L2.87897329,27.5872194 L5.72569351,29.2307741 L5.62390312,29.4797658 C4.7154104,31.8331749 4.7154104,31.8331749 6.0305269,33.730131 C6.74113361,34.749324 6.74113361,34.749324 8.01987424,35.4876053 C10.4555707,36.8938553 10.4555707,36.8938553 12.524234,36.0178566 C14.5928973,35.141858 14.5928973,35.141858 15.682741,33.2541932 C17.0011004,30.9707278 17.0011004,30.9707278 16.3288896,28.9182341 C15.6566788,26.8657405 15.6566788,26.8657405 13.7081217,25.7407405 C12.2923731,24.9233577 12.2923731,24.9233577 10.9636305,24.8869167 C9.63488794,24.8504758 9.63488794,24.8504758 8.35690211,25.4116684 L8.35690211,25.4116684 L6.06119964,23.9035667 L14.496885,13.1245623 Z M53.5291249,10.5529742 C61.3991335,6.88312895 61.3991335,6.88312895 63.7317882,11.8855231 C65.4329918,15.533766 65.4329918,15.533766 61.9824084,20.3624217 C62.583328,20.8192303 62.583328,20.8192303 62.8678566,21.0550634 C67.6889978,24.7806854 67.6889978,24.7806854 69.4769847,25.8282789 C71.2649717,26.8758724 71.2649717,26.8758724 72.1953362,26.5002223 C73.6662876,25.911283 73.6662876,25.911283 73.4005235,23.2616808 C74.0674007,23.3192218 74.0674007,23.3192218 74.2308351,23.669708 C74.6988519,24.6733731 74.6988519,24.6733731 74.0509768,26.7986418 C73.4031018,28.9239105 73.4031018,28.9239105 72.4950238,29.3473542 C71.1727349,29.9639476 71.1727349,29.9639476 67.7018382,28.052506 C64.2309415,26.1410644 64.2309415,26.1410644 59.9598774,22.4304717 C59.120806,22.9187137 59.120806,22.9187137 58.4994896,23.2084383 C57.8941043,23.4907341 57.8941043,23.4907341 56.932951,23.8419507 L56.932951,23.8419507 L57.2958047,24.95284 L57.9430154,26.8815019 L58.0439782,27.1972869 C58.7187308,29.3741237 58.7187308,29.3741237 58.4978386,30.6085208 C58.2611685,31.9310891 58.2611685,31.9310891 56.6836374,33.8304228 L56.6836374,33.8304228 L60.5548311,32.3161853 L59.5048332,35.0556639 L52.4431928,37.9218639 L53.5612096,34.9955051 L55.3868555,34.3769362 L55.4952057,34.1965372 C56.6880902,32.0843844 56.6880902,32.0843844 55.4364507,28.2442853 L55.4364507,28.2442853 L54.8910967,26.6172426 L50.5982586,13.9173771 L50.3022129,14.1329566 C44.0318376,18.7606329 44.0318376,18.7606329 45.8976574,22.7618964 C46.6628276,24.4028092 46.6628276,24.4028092 47.9421758,25.3578645 L47.9421758,25.3578645 L46.4321487,28.8161364 L46.1796516,28.5063892 C45.4417335,27.5656454 45.4417335,27.5656454 44.9386952,26.4868761 C42.9254804,22.1695232 42.9254804,22.1695232 45.3278258,17.713297 C47.7301711,13.2570708 47.7301711,13.2570708 53.5291249,10.5529742 Z M83.5546234,13.6386453 C83.9797869,13.5787119 83.9797869,13.5787119 84.2081764,13.6852117 C84.6323285,13.882997 84.6323285,13.882997 85.1000126,14.2003857 C85.5676967,14.5177744 85.5676967,14.5177744 86.513882,14.9589879 C87.5579486,15.4458441 87.5579486,15.4458441 88.7879719,15.959831 C90.0179953,16.4738179 90.0179953,16.4738179 91.1338239,16.9345549 C92.2496525,17.3952919 92.2496525,17.3952919 93.1370915,17.7495291 C94.0245305,18.1037663 94.0245305,18.1037663 94.3834284,18.2711231 C94.4813096,18.3167659 94.4813096,18.3167659 94.5813894,18.4428771 C94.6814692,18.5689883 94.6814692,18.5689883 94.5901837,18.7647508 C94.5445409,18.862632 94.5445409,18.862632 94.3716877,19.0203589 C94.1988344,19.1780857 94.1988344,19.1780857 94.0009612,19.3042847 C93.803088,19.4304838 93.803088,19.4304838 93.587802,19.5088415 C93.372516,19.5871992 93.372516,19.5871992 93.1941663,19.543755 C92.3828864,19.3243354 92.3828864,19.3243354 91.2529429,18.9364597 C90.1229993,18.5485839 90.1229993,18.5485839 88.9604287,18.145494 C87.7978581,17.742404 87.7978581,17.742404 86.7897164,17.3914646 C85.7815748,17.0405253 85.7815748,17.0405253 85.1812717,16.8797642 C85.002922,16.83632 85.002922,16.83632 84.8604973,16.9287926 C84.7180725,17.0212653 84.7180725,17.0212653 84.394176,17.5454972 C83.8550813,18.4460397 83.8550813,18.4460397 83.2530188,19.6945752 C82.6509564,20.9431106 82.6509564,20.9431106 82.0576004,22.2155668 C81.859815,22.6397188 81.859815,22.6397188 81.6859503,23.0551645 C81.5120857,23.4706101 81.5120857,23.4706101 81.3143003,23.8947621 L81.3143003,23.8947621 L83.8918397,25.0966885 C85.5884478,25.8878299 85.5884478,25.8878299 86.993523,26.3245583 C88.3985982,26.7612868 88.3985982,26.7612868 89.1816481,27.126429 C89.8015626,27.4154999 89.8015626,27.4154999 89.527706,28.0027873 C89.2842779,28.5248206 89.2842779,28.5248206 88.91896,28.7119645 C88.5536421,28.8991085 88.5536421,28.8991085 88.2273713,28.7469659 C87.6727109,28.4883235 87.6727109,28.4883235 86.5742952,28.0754279 C85.4758794,27.6625322 85.4758794,27.6625322 84.2643682,27.2366208 C83.0528569,26.8107095 83.0528569,26.8107095 81.9316198,26.4467544 C80.8103826,26.0827994 80.8103826,26.0827994 80.2100795,25.9220382 L80.2100795,25.9220382 L77.0302997,32.741098 C76.9085856,33.0021147 76.9085856,33.0021147 76.6173162,33.5415608 C76.3260467,34.0810069 76.3260467,34.0810069 75.9695231,34.5900245 C75.6129995,35.0990421 75.6129995,35.0990421 75.2683923,35.45473 C74.9237851,35.8104179 74.9237851,35.8104179 74.6953955,35.7039181 C74.5322601,35.6278468 74.5322601,35.6278468 74.3419062,35.4397793 C74.1515523,35.2517118 74.1515523,35.2517118 74.0166468,35.0299179 C73.8817414,34.808124 73.8817414,34.808124 73.8033837,34.592838 C73.725026,34.377552 73.725026,34.377552 73.8010973,34.2144166 C73.9532398,33.8881458 73.9532398,33.8881458 74.1760451,33.4955215 C74.3988504,33.1028973 74.3988504,33.1028973 74.8042268,32.3187481 C75.2096032,31.5345989 75.2096032,31.5345989 75.8888362,30.1631622 C76.5680692,28.7917256 76.5680692,28.7917256 77.6330673,26.5078299 C77.8917096,25.9531696 77.8917096,25.9531696 77.9785981,25.5964702 C78.0654865,25.2397709 78.0654865,25.2397709 78.0893193,24.9331115 C78.1131521,24.6264521 78.1131521,24.6264521 78.1620049,24.3513205 C78.2108576,24.0761889 78.2108576,24.0761889 78.3630002,23.7499181 C78.6064283,23.2278848 78.6064283,23.2278848 78.9662498,22.8395698 C79.3260713,22.4512548 79.3260713,22.4512548 79.5847136,21.8965945 C79.6759992,21.700832 79.6759992,21.700832 79.8933081,21.1070367 C80.110617,20.5132414 80.110617,20.5132414 80.3887829,19.7889378 C80.6669488,19.0646342 80.6669488,19.0646342 80.9440154,18.3000964 C81.221082,17.5355585 81.221082,17.5355585 81.4166688,17.0309381 C81.2837862,16.2937066 81.2837862,16.2937066 81.281412,15.6173322 C81.2790377,14.9409578 81.2790377,14.9409578 81.4463945,14.5820599 C81.5224658,14.4189245 81.5224658,14.4189245 81.8790773,14.2078599 C82.2356888,13.9967953 82.2356888,13.9967953 82.6825743,13.847687 C83.1294599,13.6985788 83.1294599,13.6985788 83.5546234,13.6386453 Z M61.4416475,13.9619896 C59.4358616,9.66056789 59.4358616,9.66056789 53.1271098,12.6023872 L53.1271098,12.6023872 L56.4162388,22.3179239 L56.8643841,22.1859928 C57.9625521,21.8490052 57.9625521,21.8490052 58.8387676,21.4404192 C59.8265015,20.9798313 59.8265015,20.9798313 60.8929036,20.2304208 C62.7936958,16.8614665 62.7936958,16.8614665 61.4416475,13.9619896 Z" id="形状结合" fill="#333333"></path>
                        </g>
                    </g>
                </g>
            </g>
        </g>
    </g>
</svg>