<?xml version="1.0" standalone="no"?>
<!DOCTYPE svg PUBLIC "-//W3C//DTD SVG 1.1//EN" "http://www.w3.org/Graphics/SVG/1.1/DTD/svg11.dtd" >
<!--
2013-9-30: Created.
-->
<svg>
<metadata>
Created by iconfont
</metadata>
<defs>

<font id="axeFrame" horiz-adv-x="1024" >
  <font-face
    font-family="axeFrame"
    font-weight="500"
    font-stretch="normal"
    units-per-em="1024"
    ascent="896"
    descent="-128"
  />
    <missing-glyph />
    
    <glyph glyph-name="new-liangduanduiqi1" unicode="&#59038;" d="M102.4 691.2h819.2v-102.4H102.4zM102.4 179.20000000000005h665.6v-102.4H102.4zM102.4 435.2h819.2v-102.4H102.4z"  horiz-adv-x="1024" />

    
    <glyph glyph-name="new-juzhongduiqi1" unicode="&#59039;" d="M102.4 691.2h819.2v-102.4H102.4zM102.4 179.20000000000005h819.2v-102.4H102.4zM256 435.2h512v-102.4H256z"  horiz-adv-x="1024" />

    
    <glyph glyph-name="new-mobile" unicode="&#59037;" d="M768 768v-768H256V768h512m0 64H256a64 64 0 0 1-64-64v-768a64 64 0 0 1 64-64h512a64 64 0 0 1 64 64V768a64 64 0 0 1-64 64zM512 192a64 64 0 1 1 64-64 64 64 0 0 1-64 64zM608 704h-192a32 32 0 0 1 0-64h192a32 32 0 0 1 0 64z"  horiz-adv-x="1024" />

    
    <glyph glyph-name="new-juzhong" unicode="&#59033;" d="M102.4 691.2h819.2v-102.4H102.4zM102.4 179.20000000000005h819.2v-102.4H102.4zM256 435.2h512v-102.4H256z"  horiz-adv-x="1024" />

    
    <glyph glyph-name="new-juyou" unicode="&#59034;" d="M102.4 691.2h819.2v-102.4H102.4zM102.4 179.20000000000005h819.2v-102.4H102.4zM358.4 435.2h563.2v-102.4H358.4z"  horiz-adv-x="1024" />

    
    <glyph glyph-name="new-liangduan" unicode="&#59035;" d="M102.4 691.2h819.2v-102.4H102.4zM102.4 179.20000000000005h665.6v-102.4H102.4zM102.4 435.2h819.2v-102.4H102.4z"  horiz-adv-x="1024" />

    
    <glyph glyph-name="new-juzuo" unicode="&#59036;" d="M102.4 691.2h819.2v-102.4H102.4zM102.4 179.20000000000005h819.2v-102.4H102.4zM102.4 435.2h563.2v-102.4H102.4z"  horiz-adv-x="1024" />

    
    <glyph glyph-name="new-workflow1" unicode="&#59032;" d="M876.37333335 517.75999998l-89.6 89.6-44.8-44.8 89.6-89.6 44.8 44.8zM158.29333335 249.59999998l89.6-88.96 44.8 44.16-89.6 89.6-44.8-44.8zM696.53333335 607.35999998l44.8 44.8-89.6 89.6-44.8-44.8 89.6-89.6zM423.89333335 693.11999998l-44.8 44.8L293.33333335 652.1599999800001l44.8-44.8 85.76 85.76zM338.13333335 159.99999997999998l-44.8-44.8 89.6-88.96 44.8 44.8L338.13333335 159.99999997999998zM610.77333335 74.23999998l44.8-44.16 86.4 85.76-45.44 44.8-85.76-86.4zM741.33333335 204.79999998000005l45.44-44.16 85.76 85.76-44.8 44.8L741.33333335 204.79999998000005zM162.13333335 521.59999998l45.44-44.8L293.33333335 562.5599999799999l-44.8 44.8-86.4-85.76zM480.85333335 680.31999998A94.72 94.72 0 1 1 421.33333335 767.99999998a95.36 95.36 0 0 1 59.52-87.68zM485.33333335 780.15999998a32 32 0 0 0 58.88 0 31.36 31.36 0 0 0-7.04-34.56 30.72 30.72 0 0 0-44.8 0A32.64 32.64 0 0 0 485.33333335 780.15999998zM969.81333335 451.19999998A96 96 0 0 1 869.33333335 471.67999998a94.72 94.72 0 0 1 0-175.36 94.72 94.72 0 0 1 103.68 154.88z m-44.8-89.6a37.12 37.12 0 0 0-22.4-9.6 33.92 33.92 0 0 0-23.04 9.6 30.08 30.08 0 0 0-7.04 34.56 31.36 31.36 0 0 0 29.44 19.2 30.72 30.72 0 0 0 28.8-19.2 31.36 31.36 0 0 0-5.76-34.56zM199.89333335 451.19999998a96 96 0 0 1-103.68 20.48 94.72 94.72 0 0 1 0-175.36 94.72 94.72 0 0 1 103.68 154.88z m-44.8-89.6a37.12 37.12 0 0 0-22.4-9.6 32.64 32.64 0 0 0-22.4 9.6 31.36 31.36 0 0 0-8.96 34.56 32.64 32.64 0 0 0 31.36 19.84 30.72 30.72 0 0 0 28.8-19.2 31.36 31.36 0 0 0-6.4-35.2zM480.85333335 87.67999998000005a94.72 94.72 0 1 1 103.68-20.48 95.36 95.36 0 0 1-103.68 20.48z m58.88-110.08a32.64 32.64 0 0 0-44.8 0 32.64 32.64 0 0 0-9.6 34.56 32 32 0 0 0 58.88 0 31.36 31.36 0 0 0-4.48-34.56zM677.33333335 415.99999998H549.33333335V543.99999998H485.33333335v-128H357.33333335v-64h128v-128h64V351.99999998h128V415.99999998z"  horiz-adv-x="1028" />

    
    <glyph glyph-name="new-updown-arrow" unicode="&#58987;" d="M480 740.48L720 512l48 45.44-240 229.12L480 832l-48-45.44L192 557.44l48-45.44L480 740.48zM480 27.519999999999982L240 256l-48-45.44 240-229.12 48-45.44 48 45.44L768 210.55999999999995l-48 45.44-240-228.48z"  horiz-adv-x="1024" />

    
    <glyph glyph-name="new-filter" unicode="&#58993;" d="M712.32 704l-192-284.8L512 403.2V64H384V403.2l-10.88 16L183.68 704h528.64M832 768H64l256-384v-384h256V384l256 384zM800 512L704 384h64v-384h64V384h64l-96 128z"  horiz-adv-x="1024" />

    
    <glyph glyph-name="new-search" unicode="&#59003;" d="M886.4 56.960000000000036l-140.8 140.8a352.64 352.64 0 1 1-47.36-47.36l140.8-140.8a33.28 33.28 0 1 1 47.36 47.36z m-409.6 82.56a279.68 279.68 0 1 0 279.68 279.68 279.68 279.68 0 0 0-279.68-279.68z"  horiz-adv-x="1024" />

    
    <glyph glyph-name="new-folder" unicode="&#59006;" d="M448 640V704H128v-640h768V640H448z"  horiz-adv-x="1024" />

    
    <glyph glyph-name="new-page" unicode="&#59011;" d="M320 576h384v-64H320zM320 448h384v-64H320zM320 320h384v-64H320zM192 768v-768h640V768z m576-704H256V704h512z"  horiz-adv-x="1024" />

    
    <glyph glyph-name="new-datamodel" unicode="&#59028;" d="M192 832v-832h640V832z m64-320h512v-192H256z m512-448H256v192h512zM256 576V768h512v-192zM576 704h128v-64H576zM576 448h128v-64H576zM576 192h128v-64H576z"  horiz-adv-x="1024" />

    
    <glyph glyph-name="new-workflow" unicode="&#59029;" d="M490.13122767 214.06956233000005h63.93307V341.93570233h127.86614V405.86877233H554.06429767V533.7349133299999H490.13122767v-127.866141H362.26508667v-63.93307h127.866141v-127.86614zM106.53280667 393.72148933a28.130551 28.130551 0 1 0 0-39.638503 28.130551 28.130551 0 0 0 0 39.638503m-39.638503 39.638504a84.391652 84.391652 0 1 1 118.91551 0 84.391652 84.391652 0 0 1-118.91551 0zM502.27851067 789.46719333a28.130551 28.130551 0 1 0 0-39.638504 28.130551 28.130551 0 0 0 0 39.638504m-39.638504 39.638503a84.391652 84.391652 0 1 1 118.915511 0 84.391652 84.391652 0 0 1-118.915511 0zM205.50119967 492.43414933L284.58640667 571.45542433l39.76637-39.76637L245.26756867 452.53991433zM324.41670967 611.34966033l79.085208 79.14914 39.766369-39.830302L364.18307967 571.58329033zM502.27851067-2.024214669999992a28.130551 28.130551 0 1 0 0-39.638503 28.130551 28.130551 0 0 0 0 39.638503m-39.638504 39.638504a84.391652 84.391652 0 1 1 118.915511 0 84.391652 84.391652 0 0 1-118.915511 0zM898.02421467 393.72148933a28.130551 28.130551 0 1 0 0-39.638503 28.130551 28.130551 0 0 0 0 39.638503m-39.638504 39.638504a84.391652 84.391652 0 1 1 118.91551 0 84.391652 84.391652 0 0 1-118.91551 0zM600.99117067 97.07204433000004l79.149141 79.149141 39.766369-39.76637-79.085207-79.149141zM205.62906567 255.24245932999997l39.766369 39.76637 79.085208-79.085208-39.76637-39.766369zM324.54457567 136.32694933000005l39.76637 39.76637 79.085207-79.085208-39.766369-39.76637zM601.37476867 651.24389533l39.76637 39.76637 79.085208-79.085208-39.76637-39.766369zM719.84274767 531.8808543299999l39.76637 39.766369 79.085208-79.085208-39.76637-39.766369zM720.35421267 215.60395632999996l79.149141 79.149141 39.766369-39.830303-79.085207-79.085208z"  horiz-adv-x="1024" />

    
    <glyph glyph-name="new-create" unicode="&#59030;" d="M192 768v-704h576V768z m512-640H256V704h448zM448 256h64V384h128V448H512V576H448v-128H320v-64h128v-128z"  horiz-adv-x="1024" />

    
    <glyph glyph-name="new-microAPP" unicode="&#59031;" d="M384 704v-192H192V704h192m64 64H128v-320h320V768zM832 256v-192h-192v192h192m64 64H576v-320h320V320zM384 256v-96A96 96 0 1 0 288 256H384m64 64H288A160 160 0 1 1 448 160V320zM736 704a96 96 0 0 0 0-192H640V608A96 96 0 0 0 736 704m0 64A160 160 0 0 1 576 608V448h160a160 160 0 0 1 0 320z"  horiz-adv-x="1024" />

    
    <glyph glyph-name="data-setting" unicode="&#59026;" d="M516.388571 64a725.942857 725.942857 0 0 0-77.531428-4.022857c-187.245714 0-287.817143 59.611429-287.817143 83.748571v106.422857c55.954286-38.4 163.84-64.731429 287.817143-64.731428a834.925714 834.925714 0 0 1 87.405714 4.754286 219.428571 219.428571 0 0 0 22.308572 44.617142 744.594286 744.594286 0 0 0-109.714286-7.68c-187.245714 0-287.817143 59.611429-287.817143 83.748572v106.422857c55.954286-38.4 163.84-64.731429 287.817143-64.731429s231.862857 26.331429 288.182857 64.731429V347.42857100000003h22.674286a153.234286 153.234286 0 0 0 18.285714 0V624.2742860000001C768 693.76 621.714286 749.714286 438.857143 749.714286S109.714286 693.76 109.714286 624.2742860000001v-482.742857C113.005714 73.14285700000005 258.925714 18.285713999999984 438.857143 18.285713999999984a877.714286 877.714286 0 0 1 89.6 4.754286 251.977143 251.977143 0 0 0-12.068572 40.96zM438.857143 708.0228569999999c187.245714 0 288.182857-59.611429 288.182857-83.748571S626.102857 540.891429 438.857143 540.891429 151.04 600.1371429999999 151.04 624.2742860000001 251.611429 708.0228569999999 438.857143 708.0228569999999z m-287.817143-146.285714c55.954286-38.4 163.84-64.731429 287.817143-64.731429s231.862857 26.331429 288.182857 64.731429v-85.577143c0-24.137143-100.937143-83.382857-288.182857-83.382857s-287.817143 59.245714-287.817143 83.382857zM877.714286 182.85714299999995h-13.897143l9.874286 9.874286a36.571429 36.571429 0 0 1 0 51.565714l-25.965715 25.965714a36.571429 36.571429 0 0 1-51.565714 0l-9.874286-9.874286V274.285714a36.571429 36.571429 0 0 1-36.571428 36.571429h-36.571429a36.571429 36.571429 0 0 1-36.571428-36.571429v-13.897143l-9.874286 9.874286a36.571429 36.571429 0 0 1-51.565714 0l-25.965715-25.965714a36.571429 36.571429 0 0 1 0-51.565714l9.874286-9.874286H585.142857a36.571429 36.571429 0 0 1-36.571428-36.571429v-36.571428a36.571429 36.571429 0 0 1 36.571428-36.571429h13.897143l-9.874286-9.874286a36.571429 36.571429 0 0 1 0-51.565714l25.965715-25.965714a36.571429 36.571429 0 0 1 51.565714 0l9.874286 9.874286V-18.285713999999984a36.571429 36.571429 0 0 1 36.571428-36.571429h36.571429a36.571429 36.571429 0 0 1 36.571428 36.571429v13.897143l9.874286-9.874286a36.571429 36.571429 0 0 1 51.565714 0l25.965715 25.965714a36.571429 36.571429 0 0 1 0 51.565714l-9.874286 9.874286H877.714286a36.571429 36.571429 0 0 1 36.571428 36.571429v36.571428a36.571429 36.571429 0 0 1-36.571428 36.571429z m0-73.142857h-36.571429a109.714286 109.714286 0 0 0-18.651428-44.982857l17.188571-17.554286 9.874286-9.508572-25.965715-25.965714-9.508571 9.874286-17.554286 17.188571a109.714286 109.714286 0 0 0-46.811428-20.48v-36.571428h-36.571429v36.571428a109.714286 109.714286 0 0 0-44.982857 18.651429l-17.554286-17.188572-9.508571-9.874285-25.965714 25.965714 9.874285 9.508571 17.188572 17.554286a109.714286 109.714286 0 0 0-18.651429 44.982857H585.142857v36.571429h38.4a109.714286 109.714286 0 0 0 18.651429 44.982857l-17.188572 17.554286-9.874285 9.508571 25.965714 25.965714 9.508571-9.874285 17.554286-17.188572a109.714286 109.714286 0 0 0 44.982857 18.651429V274.285714h36.571429v-38.4a109.714286 109.714286 0 0 0 44.982857-18.651428l17.554286 17.188571 9.508571 9.874286 25.965714-25.965714-9.874285-9.508572-17.188572-17.554286A109.714286 109.714286 0 0 0 841.142857 146.28571399999998h36.571429zM731.428571 164.57142899999997a36.571429 36.571429 0 1 0-36.571428-36.571429 36.571429 36.571429 0 0 0 36.571428 36.571429m0 36.571428a73.142857 73.142857 0 1 1 73.142858-73.142857 73.142857 73.142857 0 0 1-73.142858 73.142857z"  horiz-adv-x="1024" />

    
    <glyph glyph-name="project-setting" unicode="&#59027;" d="M841.142857 749.714286H182.857143a36.571429 36.571429 0 0 1-36.571429-36.571429v-658.285714a36.571429 36.571429 0 0 1 36.571429-36.571429h658.285714a36.571429 36.571429 0 0 1 36.571429 36.571429V713.142857a36.571429 36.571429 0 0 1-36.571429 36.571429z m0-694.857143H182.857143V566.857143h658.285714z m0 548.571428H182.857143V713.142857h658.285714zM603.428571 676.571429h-365.714285a18.285714 18.285714 0 0 1 0-36.571429h365.714285a18.285714 18.285714 0 0 1 0 36.571429zM676.571429 658.285714m-18.285715 0a18.285714 18.285714 0 1 1 36.571429 0 18.285714 18.285714 0 1 1-36.571429 0ZM658.285714 365.714286h-13.897143l9.874286 9.874285a36.571429 36.571429 0 0 1 0 51.565715l-25.965714 25.965714a36.571429 36.571429 0 0 1-51.565714 0l-9.874286-9.874286V457.142857a36.571429 36.571429 0 0 1-36.571429 36.571429h-36.571428a36.571429 36.571429 0 0 1-36.571429-36.571429v-13.897143l-9.874286 9.874286a36.571429 36.571429 0 0 1-51.565714 0l-25.965714-25.965714a36.571429 36.571429 0 0 1 0-51.565715l9.874286-9.874285H365.714286a36.571429 36.571429 0 0 1-36.571429-36.571429v-36.571428a36.571429 36.571429 0 0 1 36.571429-36.571429h13.897143l-9.874286-9.874286a36.571429 36.571429 0 0 1 0-51.565714l25.965714-25.965714a36.571429 36.571429 0 0 1 51.565714 0l9.874286 9.874285V164.57142899999997a36.571429 36.571429 0 0 1 36.571429-36.571429h36.571428a36.571429 36.571429 0 0 1 36.571429 36.571429v13.897142l9.874286-9.874285a36.571429 36.571429 0 0 1 51.565714 0l25.965714 25.965714a36.571429 36.571429 0 0 1 0 51.565714l-9.874286 9.874286H658.285714a36.571429 36.571429 0 0 1 36.571429 36.571429v36.571428a36.571429 36.571429 0 0 1-36.571429 36.571429z m0-73.142857h-36.571428a109.714286 109.714286 0 0 0-18.651429-44.982858l17.188572-17.554285 9.874285-9.508572-25.965714-25.965714-9.508571 9.874286-17.554286 17.188571a109.714286 109.714286 0 0 0-46.811429-20.48v-36.571428h-36.571428v36.571428a109.714286 109.714286 0 0 0-44.982857 18.651429l-17.554286-17.188572-9.508572-9.874285-25.965714 25.965714 9.874286 9.508571 17.188571 17.554286a109.714286 109.714286 0 0 0-18.651428 44.982857H365.714286v36.571429h38.4a109.714286 109.714286 0 0 0 18.651428 44.982857l-17.188571 17.554286-9.874286 9.508571 25.965714 25.965714 9.508572-9.874285 17.554286-17.188572a109.714286 109.714286 0 0 0 44.982857 18.651429V457.142857h36.571428v-38.4a109.714286 109.714286 0 0 0 44.982857-18.651428l17.554286 17.188571 9.508572 9.874286 25.965714-25.965715-9.874286-9.508571-17.188571-17.554286A109.714286 109.714286 0 0 0 621.714286 329.14285700000005h36.571428zM512 384a73.142857 73.142857 0 1 1 73.142857-73.142857 73.142857 73.142857 0 0 1-73.142857 73.142857z m0-109.714286a36.571429 36.571429 0 1 0 36.571429 36.571429 36.571429 36.571429 0 0 0-36.571429-36.571429z"  horiz-adv-x="1024" />

    
    <glyph glyph-name="project-setting1" unicode="&#59024;" d="M841.142857 749.714286H182.857143a36.571429 36.571429 0 0 1-36.571429-36.571429v-658.285714a36.571429 36.571429 0 0 1 36.571429-36.571429h658.285714a36.571429 36.571429 0 0 1 36.571429 36.571429V713.142857a36.571429 36.571429 0 0 1-36.571429 36.571429z m0-694.857143H182.857143V530.285714h658.285714zM182.857143 566.857143V713.142857h658.285714v-146.285714zM219.428571 676.571429h365.714286v-73.142858H219.428571zM694.857143 640m-36.571429 0a36.571429 36.571429 0 1 1 73.142857 0 36.571429 36.571429 0 1 1-73.142857 0ZM560.64 310.85714299999995a48.64 48.64 0 1 1-14.262857-34.377143 46.811429 46.811429 0 0 1 14.262857 34.377143z m97.645714 20.845714v-42.422857a6.948571 6.948571 0 0 0 0-4.388571 5.851429 5.851429 0 0 0-4.022857-2.56l-36.571428-5.12a142.262857 142.262857 0 0 0-7.314286-17.554286c4.388571-6.217143 10.971429-14.994286 20.114286-25.965714a8.045714 8.045714 0 0 0 2.194285-4.754286 6.217143 6.217143 0 0 0-1.828571-4.388572 187.611429 187.611429 0 0 0-19.017143-20.845714c-9.142857-8.777143-14.994286-13.531429-17.92-13.531428a9.874286 9.874286 0 0 0-4.754286 1.828571l-26.331428 20.48a142.628571 142.628571 0 0 0-17.188572-7.314286q-3.291429-25.6-5.485714-36.571428a6.582857 6.582857 0 0 0-6.948571-5.485715h-42.422858a7.314286 7.314286 0 0 0-4.754285 0 8.411429 8.411429 0 0 0-2.194286 4.388572l-5.12 34.742857a105.691429 105.691429 0 0 0-17.188571 7.314286l-26.697143-20.48a7.68 7.68 0 0 0-4.754286-1.828572 5.851429 5.851429 0 0 0-4.754286 2.194286 234.422857 234.422857 0 0 0-31.451428 32.182857 5.851429 5.851429 0 0 0 0 4.388572 6.948571 6.948571 0 0 0 0 4.388571l9.874285 12.434286c4.388571 5.851429 8.045714 10.24 10.24 13.531428a82.285714 82.285714 0 0 0-8.045714 18.651429l-34.742857 5.12a6.948571 6.948571 0 0 0-4.022857 2.56 6.948571 6.948571 0 0 0 0 4.388571v45.348572a6.948571 6.948571 0 0 0 0 4.388571 6.217143 6.217143 0 0 0 3.657143 2.56l36.571428 5.12a119.222857 119.222857 0 0 0 7.314286 17.554286c-5.12 7.314286-11.702857 16.091429-20.114286 26.331428a6.217143 6.217143 0 0 0-2.194285 4.388572 7.68 7.68 0 0 0 1.828571 4.388571 152.868571 152.868571 0 0 0 18.651429 20.48c9.142857 9.142857 15.36 13.897143 18.285714 13.897143a6.948571 6.948571 0 0 0 4.754286-2.194286l26.331428-20.114285a142.628571 142.628571 0 0 0 17.188572 7.314285q3.291429 25.6 5.485714 36.571429a6.582857 6.582857 0 0 0 6.948571 5.485714h42.422857a7.314286 7.314286 0 0 0 4.754286 0 8.411429 8.411429 0 0 0 2.194286-4.388571l5.12-34.742857a105.691429 105.691429 0 0 0 17.188571-7.314286l27.062857 20.48a6.217143 6.217143 0 0 0 4.388572 1.828571 6.582857 6.582857 0 0 0 4.754286-2.194285 231.497143 231.497143 0 0 0 31.451428-32.182857 5.851429 5.851429 0 0 0 0-4.388572 5.485714 5.485714 0 0 0 0-4.022857 158.72 158.72 0 0 0-9.874286-12.8c-4.388571-5.851429-8.045714-10.24-10.24-13.531429a136.777143 136.777143 0 0 0 8.045715-18.651428l36.571428-5.12a6.948571 6.948571 0 0 0 4.022857-2.56 6.948571 6.948571 0 0 0 0-4.388572z"  horiz-adv-x="1024" />

    
    <glyph glyph-name="data-setting1" unicode="&#59025;" d="M804.571429 164.57142899999997a36.571429 36.571429 0 1 1-10.605715-25.965715A36.571429 36.571429 0 0 1 804.571429 164.57142899999997z m73.142857 15.725714v-31.817143a5.851429 5.851429 0 0 0 0-3.291429 3.657143 3.657143 0 0 0-2.925715 0l-26.331428-4.022857a119.954286 119.954286 0 0 0-5.485714-13.165714c3.291429-4.754286 8.411429-11.337143 14.994285-19.748571a4.754286 4.754286 0 0 0 0-6.582858 139.337143 139.337143 0 0 0-14.262857-15.725714c-6.948571-6.582857-11.337143-9.874286-13.531428-9.874286h-3.657143L804.571429 91.42857100000003a77.897143 77.897143 0 0 0-12.8-5.12 169.691429 169.691429 0 0 0-4.388572-26.697142 4.754286 4.754286 0 0 0-5.12-4.022858h-31.451428a6.217143 6.217143 0 0 0-3.657143 0 4.022857 4.022857 0 0 0 0 3.291429l-4.022857 26.331429A109.714286 109.714286 0 0 0 731.428571 91.42857100000003l-20.114285-15.36a4.388571 4.388571 0 0 0-3.291429 0 4.754286 4.754286 0 0 0-3.657143 0 224.548571 224.548571 0 0 0-23.771428 24.137143 7.314286 7.314286 0 0 0 0 3.291429 5.851429 5.851429 0 0 0 0 3.291428c0 1.828571 3.657143 5.12 7.314285 9.508572l7.68 9.874286a58.88 58.88 0 0 0-5.851428 14.262857l-26.331429 3.657143-5.12 1.462857a5.851429 5.851429 0 0 0 0 3.291428v31.817143a5.851429 5.851429 0 0 0 0 3.291429 3.657143 3.657143 0 0 0 2.925715 0l26.331428 4.022857A100.571429 100.571429 0 0 0 694.857143 201.14285700000005c-3.657143 5.485714-8.777143 12.068571-14.994286 19.748572a4.388571 4.388571 0 0 0 0 3.291428 5.851429 5.851429 0 0 0 0 3.291429 115.931429 115.931429 0 0 0 14.262857 15.36c6.948571 6.948571 11.337143 10.24 13.531429 10.24a5.851429 5.851429 0 0 0 3.657143 0L731.428571 237.71428600000002a77.897143 77.897143 0 0 0 12.8 5.12 169.691429 169.691429 0 0 0 4.388572 26.697143 4.754286 4.754286 0 0 0 5.12 4.022857h31.451428a6.217143 6.217143 0 0 0 3.657143 0 4.022857 4.022857 0 0 0 0-3.291429l4.022857-26.331428A109.714286 109.714286 0 0 0 804.571429 237.71428600000002l20.114285 15.36a4.388571 4.388571 0 0 0 3.291429 0 4.754286 4.754286 0 0 0 3.657143 0 219.428571 219.428571 0 0 0 23.771428-24.137143 7.314286 7.314286 0 0 0 0-3.291429 5.851429 5.851429 0 0 0 0-3.291428c0-1.828571-3.657143-5.12-7.314285-9.508572l-7.68-9.874285a87.405714 87.405714 0 0 0 5.851428-13.897143l26.331429-4.022857 2.925714-1.828572a5.851429 5.851429 0 0 0 0-3.291428zM627.565714 104.96000000000004a744.228571 744.228571 0 0 0-115.565714-9.142857c-140.068571 0-253.805714 36.571429-253.805714 82.285714v70.217143A475.428571 475.428571 0 0 1 512 188.708571a676.571429 676.571429 0 0 1 119.222857 10.24 163.474286 163.474286 0 0 0 23.04 44.982858 661.211429 661.211429 0 0 0-142.262857-14.262858c-140.068571 0-253.805714 36.571429-253.805714 82.285715v80.457143A475.428571 475.428571 0 0 1 512 332.43428600000004a475.428571 475.428571 0 0 1 253.805714 59.977143v-84.845715a129.828571 129.828571 0 0 0 20.48 3.291429 143.725714 143.725714 0 0 0 21.942857-2.194286V589.531429C808.228571 657.92 675.474286 713.142857 512 713.142857S215.771429 657.92 215.771429 589.531429v-411.428572C215.771429 110.08000000000004 348.525714 54.85714299999995 512 54.85714299999995a658.285714 658.285714 0 0 1 130.56 12.8 150.308571 150.308571 0 0 0-14.994286 37.302857zM512 671.817143c140.068571 0 253.805714-36.571429 253.805714-82.285714s-113.737143-82.285714-253.805714-82.285715-253.805714 36.571429-253.805714 82.285715S371.931429 671.817143 512 671.817143z m-253.805714-146.285714A475.428571 475.428571 0 0 1 512 466.285714a475.428571 475.428571 0 0 1 253.805714 59.977143V457.142857c0-45.348571-113.737143-82.285714-253.805714-82.285714s-253.805714 36.571429-253.805714 82.285714z"  horiz-adv-x="1024" />

    
    <glyph glyph-name="console-warning" unicode="&#59021;" d="M512 832a448 448 0 1 1 448-448 448 448 0 0 1-448 448z m0-768a64 64 0 1 0 64 64 64 64 0 0 0-64-64z m64 192H448V704h128z"  horiz-adv-x="1024" />

    
    <glyph glyph-name="console-error" unicode="&#59022;" d="M512 832a448 448 0 1 1 448-448 448 448 0 0 1-448 448z m256-618.88L682.88 128 512 298.88 341.12 128 256 213.12 426.88 384 256 554.88 341.12 640 512 469.12 682.88 640 768 554.88 597.12 384z"  horiz-adv-x="1024" />

    
    <glyph glyph-name="no-config" unicode="&#59023;" d="M475.429 40.00999999999999h-28.16a45.934 45.934 0 0 0-45.861 43.153v0.44l-6.875 49.883a8.119 8.119 0 0 1-4.682 6.51 306.688 306.688 0 0 0-55.88 31.743 7.9 7.9 0 0 1-4.536 1.463 7.68 7.68 0 0 1-2.998-0.585L279.113 153.60000000000002a47.397 47.397 0 0 0-21.138-4.974 46.519 46.519 0 0 0-40.229 22.82l-64.804 109.715a44.983 44.983 0 0 0 14.628 61.074h0.512l40.448 30.794a8.192 8.192 0 0 1 3 7.314 274.578 274.578 0 0 0 0 63.195 8.192 8.192 0 0 1-3 7.315l-40.301 30.646h-0.44a45.056 45.056 0 0 0-14.628 60.782l64.146 110.373a46.885 46.885 0 0 0 60.636 17.993l47.543-19.164a7.973 7.973 0 0 1 2.852-0.512 8.119 8.119 0 0 1 5.486 1.024 299.886 299.886 0 0 0 55.954 31.744 8.119 8.119 0 0 1 4.755 6.144l6.802 49.884v0.731a45.787 45.787 0 0 0 45.714 43.155h129.756a45.934 45.934 0 0 0 46.226-43.155 1.829 1.829 0 0 1 0-0.585l6.948-49.81a7.973 7.973 0 0 1 4.755-6.217 305.664 305.664 0 0 0 56.027-31.671 7.314 7.314 0 0 1 4.535-1.463 8.485 8.485 0 0 1 3.072 0.585l47.69 18.944h0.365a47.03 47.03 0 0 0 61.074-17.847l64.439-109.714a45.13 45.13 0 0 0-14.629-61.074h-0.512l-40.301-30.647a7.9 7.9 0 0 1-3-7.314 257.534 257.534 0 0 0 1.683-22.821h-55.076a228.06 228.06 0 0 1-3.95 34.377l-2.048 10.898a8.046 8.046 0 0 0 2.926 7.315l58.002 43.885a7.826 7.826 0 0 1 2.048 10.24l-50.688 87.114a7.826 7.826 0 0 1-6.73 3.876 7.314 7.314 0 0 1-3.144-0.658l-67.292-28.453a8.338 8.338 0 0 0-3.145-0.585 8.046 8.046 0 0 0-5.047 1.829l-9.07 7.68a242.98 242.98 0 0 1-75.63 42.788l-11.19 3.95a8.046 8.046 0 0 0-5.12 6.363l-10.02 71.461a7.826 7.826 0 0 1-7.754 6.802H461.897a7.753 7.753 0 0 1-7.753-6.802l-9.947-71.607a7.9 7.9 0 0 0-5.34-6.656l-10.971-4.023a244.882 244.882 0 0 1-75.776-42.935l-9.07-7.314a8.119 8.119 0 0 0-5.047-1.755 7.314 7.314 0 0 0-2.926 0.585l-68.096 27.428a8.046 8.046 0 0 1-2.852 0.512 7.826 7.826 0 0 1-6.802-3.876l-49.957-85.065a8.046 8.046 0 0 1 2.048-10.313l58.002-43.886a7.826 7.826 0 0 0 3-7.68l-2.122-11.85a246.126 246.126 0 0 1-4.17-42.861 253.367 253.367 0 0 1 4.097-43.008l1.975-11.337a7.314 7.314 0 0 0-3-7.314l-57.928-43.886a7.973 7.973 0 0 1-1.975-10.24l50.834-86.382a7.826 7.826 0 0 1 6.802-3.95 7.9 7.9 0 0 1 3.146 0.293l67.218 28.526a7.826 7.826 0 0 0 2.999 0.731 7.314 7.314 0 0 0 4.973-1.828l9.216-7.315a244.81 244.81 0 0 1 75.703-42.788l10.68-4.389a8.119 8.119 0 0 0 5.12-6.363l9.873-71.607a7.753 7.753 0 0 1 7.754-6.802h13.824v-53.907z m0 220.598a155.94 155.94 0 1 0 194.56 159.963h-55.004A103.205 103.205 0 1 1 475.43 316.855v-56.174zM796.16 351.159l41.399-41.399L578.926 51.200000000000045l-41.4 41.326zM837.559 92.52599999999995l-41.399-41.4L537.6 309.76l41.326 41.399z"  horiz-adv-x="1024" />

    
    <glyph glyph-name="create-app" unicode="&#59018;" d="M742.4 832H281.6a25.6 25.6 0 0 1-25.6-25.6v-844.8a25.6 25.6 0 0 1 25.6-25.6h460.8a25.6 25.6 0 0 1 25.6 25.6V806.4a25.6 25.6 0 0 1-25.6 25.6zM441.6 806.4h140.8a6.4 6.4 0 0 0 0-12.8h-140.8a6.4 6.4 0 0 0 0 12.8zM512-25.600000000000023a25.6 25.6 0 1 0 25.6 25.6 25.6 25.6 0 0 0-25.6-25.6z m230.4 76.8H281.6V768h460.8z"  horiz-adv-x="1024" />

    
    <glyph glyph-name="create-custom" unicode="&#59019;" d="M243.2 742.4a12.8 12.8 0 0 1 12.8 12.8V806.4a12.8 12.8 0 0 1-25.6 0v-51.2a12.8 12.8 0 0 1 12.8-12.8zM192 716.8h-51.2a12.8 12.8 0 0 1 0-25.6h51.2a12.8 12.8 0 0 1 0 25.6zM780.8 627.2l-89.6 89.6H256a25.6 25.6 0 0 1-25.6-25.6v-716.8a25.6 25.6 0 0 1 25.6-25.6h588.8a25.6 25.6 0 0 1 25.6 25.6V537.6z m64-652.8H256V691.2h422.4v-166.4h166.4z"  horiz-adv-x="1024" />

    
    <glyph glyph-name="create-web" unicode="&#59020;" d="M934.4 768H89.6a25.6 25.6 0 0 1-25.6-25.6v-716.8a25.6 25.6 0 0 1 25.6-25.6h844.8a25.6 25.6 0 0 1 25.6 25.6V742.4a25.6 25.6 0 0 1-25.6 25.6z m-627.2-38.4a12.8 12.8 0 1 0-12.8-12.8 12.8 12.8 0 0 0 12.8 12.8z m-51.2 0a12.8 12.8 0 1 0-12.8-12.8 12.8 12.8 0 0 0 12.8 12.8zM102.4 729.6h102.4a12.8 12.8 0 0 0 0-25.6H102.4a12.8 12.8 0 0 0 0 25.6z m832-704H89.6V665.6h844.8z"  horiz-adv-x="1024" />

    
    <glyph glyph-name="more" unicode="&#59017;" d="M224 352m32 0l192 0q32 0 32-32l0-192q0-32-32-32l-192 0q-32 0-32 32l0 192q0 32 32 32ZM224 672m32 0l192 0q32 0 32-32l0-192q0-32-32-32l-192 0q-32 0-32 32l0 192q0 32 32 32ZM544 352m32 0l192 0q32 0 32-32l0-192q0-32-32-32l-192 0q-32 0-32 32l0 192q0 32 32 32ZM544 672m34.24 0l187.52 0q34.24 0 34.24-34.24l0-187.52q0-34.24-34.24-34.24l-187.52 0q-34.24 0-34.24 34.24l0 187.52q0 34.24 34.24 34.24Z"  horiz-adv-x="1024" />

    
    <glyph glyph-name="style-preview" unicode="&#59013;" d="M56.888889 873.244444h910.222222v-978.488888H56.888889zM967.111111 873.244444v-978.488888H56.888889V873.244444h910.222222m0 22.755556H56.888889a22.755556 22.755556 0 0 1-22.755556-22.755556v-978.488888a22.755556 22.755556 0 0 1 22.755556-22.755556h910.222222a22.755556 22.755556 0 0 1 22.755556 22.755556V873.244444a22.755556 22.755556 0 0 1-22.755556 22.755556zM603.022222 713.955556v-341.333334H261.688889V713.955556h341.333333m22.755556 22.755555H238.933333v-386.844444h386.844445V736.711111zM261.688889 713.955556h341.333333v-341.333334H261.688889zM238.933333 736.711111h22.755556v-22.755555H238.933333zM261.688889 736.711111v-22.755555H238.933333V736.711111h22.755556m22.755555 22.755556H216.177778v-68.266667h68.266666V759.466667zM603.022222 736.711111h22.755556v-22.755555h-22.755556zM625.777778 736.711111v-22.755555h-22.755556V736.711111h22.755556m22.755555 22.755556h-68.266666v-68.266667h68.266666V759.466667zM603.022222 372.62222199999997h22.755556v-22.755555h-22.755556zM625.777778 372.62222199999997v-22.755555h-22.755556v22.755555h22.755556m22.755555 22.755556h-68.266666v-68.266667h68.266666v68.266667zM238.933333 372.62222199999997h22.755556v-22.755555H238.933333zM261.688889 372.62222199999997v-22.755555H238.933333v22.755555h22.755556m22.755555 22.755556H216.177778v-68.266667h68.266666v68.266667zM238.933333 577.4222219999999h22.755556v-22.755555H238.933333zM261.688889 577.4222219999999v-22.755555H238.933333v22.755555h22.755556m22.755555 22.755556H216.177778v-68.266667h68.266666v68.266667zM603.022222 577.4222219999999h22.755556v-22.755555h-22.755556zM625.777778 577.4222219999999v-22.755555h-22.755556v22.755555h22.755556m22.755555 22.755556h-68.266666v-68.266667h68.266666v68.266667zM420.977778 372.62222199999997h22.755555v-22.755555h-22.755555zM443.733333 372.62222199999997v-22.755555h-22.755555v22.755555h22.755555m22.755556 22.755556h-68.266667v-68.266667h68.266667v68.266667zM398.222222 759.466667h68.266667v-68.266667h-68.266667zM443.733333 736.711111v-22.755555h-22.755555V736.711111h22.755555m22.755556 22.755556h-68.266667v-68.266667h68.266667V759.466667zM398.222222 577.4222219999999h68.266667v-68.266666h-68.266667zM466.488889 577.4222219999999v-68.266666h-68.266667v68.266666h68.266667m22.755555 22.755556h-113.777777v-113.777778h113.777777v113.777778z"  horiz-adv-x="1024" />

    
    <glyph glyph-name="fixed-size" unicode="&#59014;" d="M1388.088889 873.244444v-978.488888H22.755556V873.244444h1365.333333m0 22.755556H22.755556a22.755556 22.755556 0 0 1-22.755556-22.755556v-978.488888a22.755556 22.755556 0 0 1 22.755556-22.755556h1365.333333a22.755556 22.755556 0 0 1 22.755555 22.755556V873.244444a22.755556 22.755556 0 0 1-22.755555 22.755556zM1251.555556 486.4v-91.022222H705.422222V759.466667h-22.755555v-364.088889H159.288889v91.022222H136.533333v-204.8h22.755556v91.022222h523.377778v-364.088889h-91.022223v-22.755555h204.8v22.755555h-91.022222V372.62222199999997h546.133334v-91.022222h22.755555v204.8h-22.755555zM591.644444 782.222222h204.8v-22.755555h-204.8z"  horiz-adv-x="1410" />

    
    <glyph glyph-name="style-position" unicode="&#59015;" d="M1388.088889 873.244444v-978.488888H22.755556V873.244444h1365.333333m0 22.755556H22.755556a22.755556 22.755556 0 0 1-22.755556-22.755556v-978.488888a22.755556 22.755556 0 0 1 22.755556-22.755556h1365.333333a22.755556 22.755556 0 0 1 22.755555 22.755556V873.244444a22.755556 22.755556 0 0 1-22.755555 22.755556zM159.288889 577.4222219999999H136.533333v-386.844444h22.755556v182.044444h159.288889v22.755556H159.288889v182.044444zM1251.555556 600.177778v-182.044445h-159.288889v-22.755555h159.288889v-182.044445h22.755555V600.177778h-22.755555zM523.377778 759.466667h182.044444v-159.288889h22.755556V759.466667h182.044444V782.222222H523.377778v-22.755555zM728.177778 167.822222h-22.755556v-159.288889h-182.044444v-22.755555h386.844444v22.755555h-182.044444v159.288889zM796.444444 281.6a22.755556 22.755556 0 0 1 22.755556 22.755556v159.288888a22.755556 22.755556 0 0 1-22.755556 22.755556h-159.288888a22.755556 22.755556 0 0 1-22.755556-22.755556v-159.288888a22.755556 22.755556 0 0 1 22.755556-22.755556z m-159.288888 182.044444h159.288888v-159.288888h-159.288888z"  horiz-adv-x="1410" />

    
    <glyph glyph-name="icon" unicode="&#59016;" d="M896 576v-384H96V576h800m0 32H96a32 32 0 0 1-32-32v-384a32 32 0 0 1 32-32h800a32 32 0 0 1 32 32V576a32 32 0 0 1-32 32zM154.56 512v-228.48H128V512zM365.12 496.32a80.32 80.32 0 0 0 32-54.4h-25.28a58.56 58.56 0 0 1-24.32 38.4 77.44 77.44 0 0 1-45.44 12.8 73.28 73.28 0 0 1-61.44-27.84 108.16 108.16 0 0 1-20.16-68.48 104.96 104.96 0 0 1 19.84-67.84 73.6 73.6 0 0 1 61.12-26.56 71.04 71.04 0 0 1 73.6 59.52h25.28a96 96 0 0 0-98.88-82.88 98.88 98.88 0 0 0-81.6 35.2A126.08 126.08 0 0 0 192 396.8a128 128 0 0 0 27.2 83.2 98.24 98.24 0 0 0 81.92 36.16 101.44 101.44 0 0 0 64-19.84zM616.32 482.24a126.08 126.08 0 0 0 28.16-84.8 124.8 124.8 0 0 0-28.16-84.16 102.72 102.72 0 0 0-81.28-34.24 101.76 101.76 0 0 0-80.96 34.24 123.84 123.84 0 0 0-28.16 84.16 124.16 124.16 0 0 0 28.16 84.48 101.44 101.44 0 0 0 81.28 34.56 101.44 101.44 0 0 0 80.96-34.24z m-143.04-16.32a104.96 104.96 0 0 1-21.12-68.48 104.64 104.64 0 0 1 21.12-68.16 75.84 75.84 0 0 1 61.76-26.88 77.12 77.12 0 0 1 61.76 26.24 105.28 105.28 0 0 1 21.44 68.8 106.56 106.56 0 0 1-21.44 69.44 75.52 75.52 0 0 1-61.44 26.24 76.16 76.16 0 0 1-62.08-27.2zM708.48 512l128-185.92V512H864v-228.48h-26.88l-129.92 187.84v-187.84h-26.24V512z"  horiz-adv-x="1024" />

    
    <glyph glyph-name="save" unicode="&#59004;" d="M768 704H225.6a32 32 0 0 1-32-32v-576a32 32 0 0 1 32-33.6H768A32 32 0 0 1 800 96V670.4A32 32 0 0 1 768 704zM304 640h384v-224a32 32 0 0 0-32-32h-320a32 32 0 0 0-32 32z m370.24-448H317.76a29.76 29.76 0 0 0-29.76 29.76A34.24 34.24 0 0 0 322.24 256h347.52A34.24 34.24 0 0 0 704 221.76a29.76 29.76 0 0 0-29.76-29.76zM606.08 448h3.84a30.08 30.08 0 0 1 30.08 30.08V544a32 32 0 0 1-32 32 32 32 0 0 1-32-32v-65.92a30.08 30.08 0 0 1 30.08-30.08z"  horiz-adv-x="1024" />

    
    <glyph glyph-name="publish" unicode="&#59007;" d="M233.28 443.2l15.36-15.04 266.56-40.64 40.32-266.56 15.04-15.04a32 32 0 0 1 52.8 11.2l206.08 544a32 32 0 0 1-41.28 41.28l-544-206.08a32 32 0 0 1-10.88-53.12zM515.2 387.2l40.32-266.24 15.04-15.04a32 32 0 0 1 52.8 11.2l206.08 544a32 32 0 0 1-7.04 33.28z"  horiz-adv-x="1024" />

    
    <glyph glyph-name="custom-size" unicode="&#59005;" d="M358.4 691.2V793.6H307.2v-102.4H204.8v-51.2h102.4v-512a51.2 51.2 0 0 1 51.2-51.2h409.6a51.2 51.2 0 0 1 51.2 51.2V486.4l-204.8 204.8z m409.6-563.2H358.4V640h256v-153.6h153.6z"  horiz-adv-x="1024" />

    
    <glyph glyph-name="web" unicode="&#59008;" d="M819.2 691.2H204.8a51.2 51.2 0 0 1-51.2-51.2v-512a51.2 51.2 0 0 1 51.2-51.2h614.4a51.2 51.2 0 0 1 51.2 51.2V640a51.2 51.2 0 0 1-51.2 51.2zM230.4 640h102.4a25.6 25.6 0 0 0 0-51.2h-102.4a25.6 25.6 0 0 0 0 51.2zM819.2 128H204.8V537.6h614.4z"  horiz-adv-x="1024" />

    
    <glyph glyph-name="big-screen" unicode="&#59009;" d="M819.2 691.2H256a51.2 51.2 0 0 1-51.2-51.2v-512a51.2 51.2 0 0 1 51.2-51.2h563.2a51.2 51.2 0 0 1 51.2 51.2V640a51.2 51.2 0 0 1-51.2 51.2z m0-563.2H256V640h563.2zM358.4 435.2h51.2v-256H358.4zM460.8 537.6h51.2v-358.4H460.8zM563.2 384h51.2v-204.8h-51.2zM665.6 486.4h51.2v-307.2h-51.2z"  horiz-adv-x="1024" />

    
    <glyph glyph-name="app" unicode="&#59010;" d="M716.8 793.6H358.4a51.2 51.2 0 0 1-51.2-48.128v-671.744A51.2 51.2 0 0 1 358.4 25.600000000000023h358.4a51.2 51.2 0 0 1 51.2 48.128V745.472A51.2 51.2 0 0 1 716.8 793.6z m-179.2-743.936a24.064 24.064 0 1 0 25.6 24.064 24.576 24.576 0 0 0-25.6-24.064z m179.2 119.808a51.2 51.2 0 0 0-51.2-47.616H409.6a51.2 51.2 0 0 0-51.2 47.616V697.344a51.2 51.2 0 0 0 51.2 48.128h256a51.2 51.2 0 0 0 51.2-48.128z"  horiz-adv-x="1024" />

    
    <glyph glyph-name="common-style" unicode="&#59012;" d="M731.428571 413.257143l-25.6-25.6 206.262858-206.262857-160.548572-159.451429L694.857143 77.531429l61.44 61.074285L731.428571 164.57142899999997l-61.44-61.44-48.274285 47.542857 61.44 61.074285L658.285714 237.71428600000002l-61.44-61.44-51.931428 51.931428-25.6-25.6 212.114285-212.845714a27.794286 27.794286 0 0 1 39.131429 0l171.885714 171.885714a28.16 28.16 0 0 1 0 39.131429L731.428571 413.257143zM345.965714 786.285714a27.428571 27.428571 0 0 1-19.748571-8.045714l-171.885714-171.885714a28.16 28.16 0 0 1 0-39.497143l160.182857-159.451429 25.6 25.6-10.971429 10.24 61.44 61.074286L365.714286 530.285714l-61.44-61.44L256 516.388571l62.537143 61.074286L292.571429 603.4285709999999 231.131429 541.988571 186.514286 586.971429 345.965714 746.057143l153.6-153.6 25.6 25.6L365.714286 778.24A27.062857 27.062857 0 0 1 345.965714 786.285714zM906.24 596.48l-182.857143 182.857143a26.697143 26.697143 0 0 1-18.285714 6.948571 27.428571 27.428571 0 0 1-19.748572-8.045714L154.331429 247.22285699999998a28.525714 28.525714 0 0 1-7.314286-15.36v-205.897143H146.285714a8.045714 8.045714 0 0 1 7.68-7.68h205.897143a28.891429 28.891429 0 0 1 15.36 7.314286L906.24 557.348571a28.16 28.16 0 0 1 0 39.131429zM182.857143 179.56571399999996L307.565714 54.85714299999995H182.857143z m172.617143-121.051428L186.514286 227.474286 604.525714 645.851429l169.325715-169.325715z m443.977143 443.977143l-168.96 168.96 73.142857 73.142857 170.422857-167.497143z"  horiz-adv-x="1024" />

    
    <glyph glyph-name="link" unicode="&#58894;" d="M801.42493773 625.50774518H306.31065221A214.7483648 214.7483648 0 0 1 91.56228741 410.75938038v-34.46578695A214.7483648 214.7483648 0 0 1 306.31065221 161.54522863H754.36588247v66.28035951H306.31065221A149.13080889 149.13080889 0 0 0 157.84264692 376.29359343v34.46578695A149.13080889 149.13080889 0 0 0 306.31065221 559.22738568h495.11428552A85.50166377 85.50166377 0 0 0 886.92660148 473.72572191v-27.83775098A85.50166377 85.50166377 0 0 0 801.42493773 360.38630716H290.40336593v66.2803595h530.24287604V492.94702616H290.40336593a66.2803595 66.2803595 0 0 1-66.28035951-66.2803595v-66.2803595a66.2803595 66.2803595 0 0 1 66.28035951-66.28035952h511.0215718A151.11921968 151.11921968 0 0 1 953.20696098 445.88797093v27.83775098A151.11921968 151.11921968 0 0 1 801.42493773 625.50774518z"  horiz-adv-x="1024" />

    
    <glyph glyph-name="set" unicode="&#58895;" d="M563.2 691.2v-92.16l30.72-15.36c15.36-5.12 30.72-15.36 46.08-30.72l30.72-15.36 30.72 15.36 61.44 35.84L819.2 496.64l-66.56-35.84-30.72-15.36 5.12-35.84V363.52l-5.12-35.84 30.72-15.36 66.56-35.84-56.32-97.28-61.44 35.84-30.72 15.36-30.72-20.48-46.08-30.72-30.72-10.24V76.79999999999995H460.8v92.16l-30.72 15.36c-15.36 5.12-30.72 15.36-46.08 30.72l-30.72 15.36-30.72-15.36-61.44-35.84L204.8 271.36l66.56 35.84 30.72 15.36-5.12 35.84v10.24 40.96l5.12 35.84-30.72 15.36L204.8 496.64 261.12 588.8l61.44-35.84 30.72-15.36 30.72 20.48 46.08 30.72 30.72 10.24V691.2h102.4m0 51.2H460.8c-25.6 0-51.2-20.48-51.2-51.2v-61.44c-20.48-5.12-40.96-20.48-56.32-30.72l-66.56 35.84C281.6 640 271.36 640 261.12 640c-20.48 0-35.84-10.24-46.08-25.6l-51.2-92.16c-15.36-25.6-10.24-56.32 15.36-71.68h5.12l66.56-35.84c0-10.24-5.12-20.48-5.12-30.72 0-10.24 0-20.48 5.12-30.72l-66.56-35.84c-25.6-15.36-35.84-46.08-20.48-71.68v-5.12l51.2-92.16c10.24-10.24 25.6-20.48 46.08-20.48 10.24 0 20.48 0 25.6 5.12l61.44 35.84c20.48-15.36 35.84-25.6 61.44-35.84V76.79999999999995c0-30.72 20.48-51.2 51.2-51.2h102.4c30.72 0 51.2 20.48 51.2 51.2v56.32c20.48 10.24 40.96 20.48 61.44 35.84l61.44-35.84c10.24-5.12 15.36-5.12 25.6-5.12 20.48 0 35.84 10.24 46.08 25.6l51.2 92.16c15.36 25.6 5.12 56.32-15.36 71.68h-5.12l-66.56 35.84c0 10.24 5.12 20.48 5.12 30.72 0 10.24 0 20.48-5.12 30.72l66.56 35.84c25.6 15.36 35.84 46.08 20.48 71.68v5.12l-51.2 92.16c-10.24 10.24-25.6 20.48-46.08 20.48-10.24 0-20.48 0-25.6-5.12l-61.44-35.84c-20.48 15.36-35.84 25.6-61.44 35.84V691.2c0 30.72-20.48 51.2-51.2 51.2zM563.2 435.2v-102.4H460.8V435.2h102.4m51.2 51.2H409.6v-204.8h204.8V486.4z"  horiz-adv-x="1024" />

    
    <glyph glyph-name="location" unicode="&#58901;" d="M874.66666666 426.66666667h-64c-12.8 134.4-121.6 236.8-256 256V746.66666667H490.66666666v-64c-134.4-12.8-236.8-121.6-256-256H170.66666666v-64h64c12.8-134.4 121.6-243.2 256-256v-64h64v64c134.4 12.8 243.2 121.6 256 256h64V426.66666667z m-128 0H554.66666666V612.26666667c96-6.4 179.2-89.6 192-185.6zM490.66666666 612.26666667V426.66666667H305.06666666C317.86666666 522.66666667 394.66666666 599.46666667 490.66666666 612.26666667zM305.06666666 362.66666667000004H490.66666666v-192c-96 12.8-179.2 96-185.6 192zM554.66666666 170.66666667000004V362.66666667000004h192c-12.8-102.4-89.6-179.2-192-192z"  horiz-adv-x="1024" />

    
    <glyph glyph-name="page-view" unicode="&#58902;" d="M102.4 772.26666667v-614.4h204.8v-102.4l-51.2-51.2h614.4a51.2 51.2 0 0 1 51.2 51.2V772.26666667z m256-716.8v102.4h256v-102.4z m512 0h-204.8V465.06666667h204.8z m-256 460.8v-307.2H153.6V721.06666667h716.8v-204.8zM768 157.86666666999997m-51.2 0a51.2 51.2 0 1 1 102.4 0 51.2 51.2 0 1 1-102.4 0Z"  horiz-adv-x="1024" />

    
    <glyph glyph-name="rotate" unicode="&#58903;" d="M512 362.66666667000004v-204.8H153.6v204.8h358.4m51.2 51.2H102.4v-307.2h460.8V413.86666667zM870.4 618.66666667v-460.8h-204.8V618.66666667h204.8m51.2 51.2h-307.2v-563.2h307.2V669.86666667zM361.472 465.06666667A208.384 208.384 0 0 0 563.2 618.66666667V669.86666667a260.096 260.096 0 0 1-256-204.8z"  horiz-adv-x="1024" />

    
    <glyph glyph-name="add-action" unicode="&#58904;" d="M438.61333333 502.44266667L430.93333333 477.35466667 416.59733333 413.86666667H512.85333333l-141.312-140.8 8.192 26.112 14.336 63.488H298.83733333l139.776 139.776M533.33333333 669.86666667l-358.4-358.4h153.6l-51.2-204.8 358.4 358.4H482.13333333l51.2 204.8zM840.53333333 567.46666667h-102.4V669.86666667h-51.2v-102.4h-102.4v-51.2h102.4v-102.4h51.2V516.26666667h102.4V567.46666667z"  horiz-adv-x="1024" />

    
    <glyph glyph-name="more-style-add" unicode="&#58905;" d="M831.99999999 448.00000001H575.99999999V704.00000001H447.99999999v-256H191.99999999v-128h256v-256h128V320.00000001h256z"  horiz-adv-x="1024" />

    
    <glyph glyph-name="fold" unicode="&#58906;" d="M21.33333333 874.66666667h1024v-1024H21.33333333zM226.13333333 669.86666667v-563.2h563.2V669.86666667H226.13333333z m409.6-307.2H379.73333333V413.86666667h256v-51.2z"  horiz-adv-x="1024" />

    
    <glyph glyph-name="interaction-style" unicode="&#58908;" d="M507.73333333 772.26666667A384 384 0 1 1 891.73333333 388.26666667 384 384 0 0 1 507.73333333 772.26666667z m0-716.8A332.8 332.8 0 1 0 840.53333333 388.26666667 333.312 333.312 0 0 0 507.73333333 55.466666669999995zM507.73333333 618.66666667A230.4 230.4 0 1 1 738.13333333 388.26666667 229.888 229.888 0 0 1 507.73333333 618.66666667z m0-409.6A179.2 179.2 0 1 0 686.93333333 388.26666667 179.2 179.2 0 0 0 507.73333333 209.06666667000002zM507.73333333 465.06666667A76.8 76.8 0 1 1 584.53333333 388.26666667 76.8 76.8 0 0 1 507.73333333 465.06666667z m0-102.4a25.6 25.6 0 1 0 25.6 25.6 25.6 25.6 0 0 0-25.6-25.6z"  horiz-adv-x="1024" />

    
    <glyph glyph-name="add-event" unicode="&#58909;" d="M469.84533333 426.15466667l210.944-82.432-12.8-13.312-36.352-35.84 36.352-36.352 102.4-102.4-30.208-30.208-102.4 102.4-36.352 36.352-35.84-36.352-13.312-12.8-82.432 210.944M379.73333333 516.26666667l153.6-392.704 68.096 68.608L738.13333333 55.466666669999995l102.4 102.4-136.704 136.704L772.43733333 362.66666667000004 379.73333333 516.26666667zM686.93333333 465.06666667a256 256 0 0 0-4.096-39.936L635.73333333 444.58666667V465.06666667a204.8 204.8 0 1 1-204.8-204.8h20.48l19.456-51.2A256 256 0 0 0 430.93333333 209.06666667000002a256 256 0 1 0 256 256zM584.53333333 465.06666667l-51.2 20.992A102.4 102.4 0 1 1 411.47733333 362.66666667000004L430.93333333 311.46666667a153.6 153.6 0 1 0 153.6 153.6z"  horiz-adv-x="1024" />

    
    <glyph glyph-name="add" unicode="&#58910;" d="M875.78185746 422.66354305h-331.40179753V754.06534059h-66.28035951v-331.40179754H146.69790289v-66.28035951h331.40179753v-331.40179752h66.28035951v331.40179752h331.40179753V422.66354305z"  horiz-adv-x="1024" />

    
    <glyph glyph-name="switch" unicode="&#58911;" d="M506.88 307.20000000000005h5.12c56.32 0 102.4 46.08 102.4 102.4v5.12l-107.52-107.52zM788.48 624.64c-15.36 10.24-30.72 15.36-46.08 20.48-76.8 30.72-153.6 46.08-230.4 46.08C302.08 691.2 107.52 583.6800000000001 0 409.6c66.56-102.4 158.72-184.32 271.36-230.4 15.36-5.12 35.84-15.36 51.2-20.48 61.44-20.48 122.88-30.72 189.44-30.72 209.92 0 404.48 107.52 512 281.6-56.32 92.16-138.24 168.96-235.52 215.04z m-424.96-424.96z m148.48 5.12c-40.96 0-76.8 10.24-112.64 30.72l281.6 281.6c61.44-97.28 35.84-220.16-61.44-281.6-30.72-20.48-66.56-30.72-107.52-30.72z m143.36-5.12c71.68 46.08 112.64 128 112.64 209.92 0 51.2-15.36 107.52-46.08 148.48l25.6 30.72c87.04-40.96 158.72-102.4 215.04-179.2-71.68-102.4-184.32-179.2-307.2-209.92z"  horiz-adv-x="1024" />

    
    <glyph glyph-name="right-arrow" unicode="&#58912;" d="M256 384h358.4v-51.2H256zM768 358.4L614.4 230.39999999999998V486.4l153.6-128z"  horiz-adv-x="1024" />

    
    <glyph glyph-name="screen-arrow" unicode="&#58913;" d="M819.2 712.53333333H153.6v-665.6h307.2v51.2H204.8V661.33333333h614.4v-204.8h51.2V712.53333333h-51.2zM563.2 354.13333333v-307.2h102.4v140.8L806.4 46.93333332999998 870.4 110.93333332999998 729.6 251.73333333000005H870.4v102.4h-307.2z"  horiz-adv-x="1024" />

    
    <glyph glyph-name="hide-not-use" unicode="&#58914;" d="M204.8 618.66666667h614.4v-153.6H204.8zM204.8 362.66666667000004h614.4v-51.2H204.8zM204.8 209.06666667000002h614.4v-51.2H204.8z"  horiz-adv-x="1024" />

    
    <glyph glyph-name="show-fill" unicode="&#58915;" d="M512 691.2A597.504 597.504 0 0 1 0 409.6 597.504 597.504 0 0 1 512 128a597.504 597.504 0 0 1 512 281.6A597.504 597.504 0 0 1 512 691.2z m0-384a102.4 102.4 0 1 0 102.4 102.4 102.4 102.4 0 0 0-102.4-102.4z m-451.072 102.4a544.768 544.768 0 0 0 307.2 210.944 256 256 0 0 1 0-421.888 544.768 544.768 0 0 0-307.2 210.944z m595.968-210.944a256 256 0 0 1 0 421.888 544.768 544.768 0 0 0 307.2-210.944 544.768 544.768 0 0 0-307.2-210.944z"  horiz-adv-x="1024" />

    
    <glyph glyph-name="unfold" unicode="&#58916;" d="M21.33333333 874.66666667h1024v-1024H21.33333333zM226.13333333 669.86666667v-563.2h563.2V669.86666667H226.13333333z m409.6-307.2h-102.4v-102.4H482.13333333v102.4H379.73333333V413.86666667h102.4V516.26666667h51.2v-102.4h102.4v-51.2z"  horiz-adv-x="1024" />

    
    <glyph glyph-name="show-total" unicode="&#58917;" d="M139.17297778 694.68918518h745.65404444v-124.27567407H139.17297778zM139.17297778 446.13783703h745.65404444v-124.27567406H139.17297778zM139.17297778 197.58648889000006h745.65404444v-124.27567407H139.17297778z"  horiz-adv-x="1024" />

    
    <glyph glyph-name="picture-preview" unicode="&#58918;" d="M0 896h1024v-1024H0zM0 685.176471h30.117647v-90.352942H0zM0 564.705882h30.117647v-90.352941H0zM0 444.235294h30.117647v-90.352941H0zM0 323.76470600000005h30.117647v-90.352941H0zM0 203.29411800000003h30.117647v-90.352942H0zM0 82.82352900000001h30.117647v-90.352941H0zM30.117647-37.64705900000001H0v-90.352941h120.470588v30.117647H30.117647zM150.588235-97.88235299999997h90.352941v-30.117647H150.588235zM271.058824-97.88235299999997h90.352941v-30.117647H271.058824zM391.529412-97.88235299999997h90.352941v-30.117647h-90.352941zM512-97.88235299999997h90.352941v-30.117647h-90.352941zM632.470588-97.88235299999997h90.352941v-30.117647h-90.352941zM752.941176-97.88235299999997h90.352942v-30.117647h-90.352942zM873.411765-97.88235299999997h90.352941v-30.117647h-90.352941zM993.882353 22.588235000000054h30.117647v-90.352941h-30.117647zM993.882353 143.05882399999996h30.117647v-90.352942h-30.117647zM993.882353 263.529412h30.117647v-90.352941h-30.117647zM993.882353 384h30.117647v-90.352941h-30.117647zM993.882353 504.470588h30.117647v-90.352941h-30.117647zM993.882353 624.941176h30.117647v-90.352941h-30.117647zM993.882353 745.4117650000001h30.117647v-90.352941h-30.117647zM993.882353 896h30.117647v-120.470588h-30.117647zM843.294118 896h90.352941v-30.117647h-90.352941zM722.823529 896h90.352942v-30.117647h-90.352942zM120.470588 896h90.352941v-30.117647H120.470588zM240.941176 896h90.352942v-30.117647H240.941176zM361.411765 896h90.352941v-30.117647h-90.352941zM481.882353 896h90.352941v-30.117647h-90.352941zM602.352941 896h90.352941v-30.117647h-90.352941zM0 805.647059h30.117647v-90.352941H0zM90.352941 896H0v-60.235294h30.117647V865.882353h60.235294zM990.870588-97.88235299999997H1024v-30.117647h-33.129412zM722.823529 865.882353v-271.058824h271.058824V865.882353h-271.058824z m207.811765-186.729412c6.023529-6.023529 6.023529-15.058824 0-21.082353s-15.058824-6.023529-21.082353 0l-51.2 51.2-51.2-51.2c-6.023529-6.023529-15.058824-6.023529-21.082353 0s-6.023529 15.058824 0 21.082353l51.2 51.2-51.2 51.2c-6.023529 6.023529-6.023529 15.058824 0 21.082353s15.058824 6.023529 21.082353 0l51.2-51.2 51.2 51.2c6.023529 6.023529 15.058824 6.023529 21.082353 0s6.023529-15.058824 0-21.082353l-51.2-51.2 51.2-51.2z"  horiz-adv-x="1024" />

    
    <glyph glyph-name="interaction-color-fill" unicode="&#58919;" d="M768 588.8a204.8 204.8 0 0 0 0-409.6H256a204.8 204.8 0 0 0 0 409.6h512m0 51.2H256a256 256 0 0 1 0-512h512a256 256 0 0 1 0 512z"  horiz-adv-x="1024" />

    
    <glyph glyph-name="warning" unicode="&#58920;" d="M482.13333333 516.26666667h51.2v-256H482.13333333zM482.13333333 209.06666667000002h51.2v-51.2H482.13333333zM886.61333333 132.26666666999995l-332.8 563.2c-15.36 25.6-46.08 30.72-71.68 20.48-10.24-5.12-15.36-10.24-20.48-20.48l-332.8-563.2c-10.24-25.6-5.12-56.32 20.48-71.68 5.12-5.12 15.36-5.12 25.6-5.12h665.6c30.72 0 51.2 20.48 51.2 51.2 0 10.24 0 20.48-5.12 25.6zM533.33333333 157.86666666999997H482.13333333v51.2h51.2v-51.2z m0 102.4H482.13333333V516.26666667h51.2v-256z"  horiz-adv-x="1024" />

    
    <glyph glyph-name="hide" unicode="&#58921;" d="M153.7024 59.59680000000003L836.5056 742.4l33.9968-33.9968L187.6992 25.600000000000023zM811.52 613.376l-38.4-38.4a537.6 537.6 0 0 0 189.952-165.376 544.768 544.768 0 0 0-307.2-210.944A256 256 0 0 1 768 409.6a252.416 252.416 0 0 1-33.792 128l-37.888-38.4A204.8 204.8 0 0 0 716.8 409.6a204.8 204.8 0 0 0-204.8-204.8 196.096 196.096 0 0 0-88.064 20.992l-75.264-75.776A631.808 631.808 0 0 1 512 128a597.504 597.504 0 0 1 512 281.6 580.096 580.096 0 0 1-212.48 203.776zM285.184 227.84000000000003A536.064 536.064 0 0 0 60.928 409.6a544.768 544.768 0 0 0 307.2 210.944A256 256 0 0 1 256 409.6a252.416 252.416 0 0 1 54.272-156.672l36.864 36.352A200.704 200.704 0 0 0 307.2 409.6a204.8 204.8 0 0 0 204.8 204.8 200.704 200.704 0 0 0 120.32-39.936l36.352 36.864-11.776 9.216 16.384-5.12 40.448 40.96A609.28 609.28 0 0 1 512 691.2 597.504 597.504 0 0 1 0 409.6a586.24 586.24 0 0 1 246.784-220.672zM409.6 409.6a105.472 105.472 0 0 1 11.264-46.08l137.216 137.216a105.472 105.472 0 0 1-46.08 11.264 102.4 102.4 0 0 1-102.4-102.4zM512 307.20000000000005a102.4 102.4 0 0 1 102.4 102.4v5.632l-107.52-107.52z"  horiz-adv-x="1024" />

    
    <glyph glyph-name="interaction-font-color" unicode="&#58922;" d="M314.88 602.4533333300001v-54.61333333h163.84v-382.29333333h54.61333333V547.8399999999999h163.84V602.4533333300001z"  horiz-adv-x="1024" />

    
    <glyph glyph-name="filter" unicode="&#58923;" d="M723.456 640l-153.6-227.84-6.656-12.8V179.20000000000005H460.8V399.36l-8.704 12.8L300.544 640h422.912M819.2 691.2H204.8l204.8-307.2v-256h204.8v256l204.8 307.2z"  horiz-adv-x="1024" />

    
    <glyph glyph-name="zoom-search" unicode="&#58924;" d="M804.864 164.86400000000003L665.6 302.08000000000004a277.504 277.504 0 0 1 51.2 158.72A281.6 281.6 0 1 1 435.2 179.20000000000005a277.504 277.504 0 0 1 158.72 51.2l137.216-137.216a51.2 51.2 0 0 1 68.608 0l5.12 5.12a51.2 51.2 0 0 1 0 66.56zM435.2 281.6A179.2 179.2 0 1 0 614.4 460.8 179.2 179.2 0 0 0 435.2 281.6z"  horiz-adv-x="1024" />

    
    <glyph glyph-name="align-bottom" unicode="&#58925;" d="M146.285714 54.85714299999995h731.428572v-73.142857H146.285714zM438.857143 676.571429v-512H182.857143V676.571429h256m0 36.571428H182.857143a36.571429 36.571429 0 0 1-36.571429-36.571428v-512a36.571429 36.571429 0 0 1 36.571429-36.571429h256a36.571429 36.571429 0 0 1 36.571428 36.571429V676.571429a36.571429 36.571429 0 0 1-36.571428 36.571428zM841.142857 420.571429v-256h-256v256h256m0 36.571428h-256a36.571429 36.571429 0 0 1-36.571428-36.571428v-256a36.571429 36.571429 0 0 1 36.571428-36.571429h256a36.571429 36.571429 0 0 1 36.571429 36.571429v256a36.571429 36.571429 0 0 1-36.571429 36.571428z"  horiz-adv-x="1024" />

    
    <glyph glyph-name="align-top" unicode="&#58927;" d="M146.285714 749.714286h731.428572v-73.142857H146.285714zM438.857143 54.85714299999995V566.857143H182.857143v-512h256m0-36.571429H182.857143a36.571429 36.571429 0 0 0-36.571429 36.571429V566.857143a36.571429 36.571429 0 0 0 36.571429 36.571428h256a36.571429 36.571429 0 0 0 36.571428-36.571428v-512a36.571429 36.571429 0 0 0-36.571428-36.571429zM841.142857 310.85714299999995V566.857143h-256v-256h256m0-36.571429h-256a36.571429 36.571429 0 0 0-36.571428 36.571429V566.857143a36.571429 36.571429 0 0 0 36.571428 36.571428h256a36.571429 36.571429 0 0 0 36.571429-36.571428v-256a36.571429 36.571429 0 0 0-36.571429-36.571429z"  horiz-adv-x="1024" />

    
    <glyph glyph-name="align-center-v" unicode="&#58928;" d="M475.428571 420.571429h109.714286v-73.142858h-109.714286zM146.285714 420.571429h109.714286v-73.142858H146.285714zM804.571429 420.571429h109.714285v-73.142858h-109.714285zM475.428571 603.4285709999999v-475.428571H256V603.4285709999999h219.428571m0 36.571429H256a36.571429 36.571429 0 0 1-36.571429-36.571429v-475.428571a36.571429 36.571429 0 0 1 36.571429-36.571429h219.428571a36.571429 36.571429 0 0 1 36.571429 36.571429V603.4285709999999a36.571429 36.571429 0 0 1-36.571429 36.571429zM804.571429 530.285714v-256h-219.428572v256h219.428572m0 36.571429h-219.428572a36.571429 36.571429 0 0 1-36.571428-36.571429v-256a36.571429 36.571429 0 0 1 36.571428-36.571428h219.428572a36.571429 36.571429 0 0 1 36.571428 36.571428v256a36.571429 36.571429 0 0 1-36.571428 36.571429z"  horiz-adv-x="1024" />

    
    <glyph glyph-name="zindex-bottom" unicode="&#58929;" d="M512 201.14285700000005v36.571429h-36.571429V566.857143h329.142858v-36.571429h36.571428V603.4285709999999H438.857143v-402.285714h73.142857zM438.857143 274.285714v36.571429h-36.571429V640h329.142857v-36.571429h36.571429V676.571429H365.714286v-402.285715h73.142857zM512 530.285714v-402.285714h402.285714V530.285714z m365.714286-365.714285h-329.142857v329.142857h329.142857zM182.857143 713.142857h73.142857v-438.857143H182.857143zM219.428571 91.42857100000003l-109.714285 182.857143h219.428571l-109.714286-182.857143z"  horiz-adv-x="1024" />

    
    <glyph glyph-name="contain" unicode="&#58930;" d="M621.714286 493.714286v-219.428572h-219.428572v219.428572h219.428572m36.571428 36.571428h-292.571428v-292.571428h292.571428v292.571428zM877.714286 18.285713999999984h-146.285715v36.571429h109.714286v109.714286h36.571429v-146.285715z m-182.857143 0h-146.285714v36.571429h146.285714v-36.571429zM475.428571 749.714286H329.142857v-36.571429h146.285714V749.714286zM292.571429 749.714286H146.285714v-146.285715h36.571429V713.142857h109.714286V749.714286zM182.857143 566.857143H146.285714v-146.285714h36.571429V566.857143z m0-219.428572H146.285714v-146.285714h36.571429v146.285714z m0-182.857142H146.285714v-146.285715h146.285715v36.571429H182.857143v109.714286z m292.571428-109.714286H329.142857v-36.571429h146.285714v36.571429z m219.428572 658.285714h-146.285714V749.714286h146.285714v-36.571429z m146.285714 0h-109.714286V749.714286h109.714286v-36.571429z m36.571429-109.714286h-36.571429V749.714286h36.571429v-146.285715z m0-182.857142h-36.571429V566.857143h36.571429v-146.285714z m0-219.428572h-36.571429v146.285714h36.571429v-146.285714z"  horiz-adv-x="1024" />

    
    <glyph glyph-name="position-center-h" unicode="&#58931;" d="M0 896h1024v-1024H0zM109.714286 18.285713999999984V749.714286h73.142857v-731.428572zM621.714286 640v-512h-256V640h256m0 36.571429h-256a36.571429 36.571429 0 0 1-36.571429-36.571429v-512a36.571429 36.571429 0 0 1 36.571429-36.571429h256a36.571429 36.571429 0 0 1 36.571428 36.571429V640a36.571429 36.571429 0 0 1-36.571428 36.571429zM804.571429 18.285713999999984V749.714286h73.142857v-731.428572z"  horiz-adv-x="1024" />

    
    <glyph glyph-name="position-center-v" unicode="&#58932;" d="M877.714286 18.285713999999984H146.285714v73.142857h731.428572zM768 530.285714v-256H256v256h512m0 36.571429H256a36.571429 36.571429 0 0 1-36.571429-36.571429v-256a36.571429 36.571429 0 0 1 36.571429-36.571428h512a36.571429 36.571429 0 0 1 36.571429 36.571428v256a36.571429 36.571429 0 0 1-36.571429 36.571429zM877.714286 713.142857H146.285714V786.285714h731.428572z"  horiz-adv-x="1024" />

    
    <glyph glyph-name="align-left" unicode="&#58933;" d="M146.285714 749.714286h73.142857v-731.428572H146.285714zM841.142857 713.142857v-256H329.142857V713.142857h512m0 36.571429H329.142857a36.571429 36.571429 0 0 1-36.571428-36.571429v-256a36.571429 36.571429 0 0 1 36.571428-36.571428h512a36.571429 36.571429 0 0 1 36.571429 36.571428V713.142857a36.571429 36.571429 0 0 1-36.571429 36.571429zM585.142857 310.85714299999995v-256H329.142857v256h256m0 36.571428H329.142857a36.571429 36.571429 0 0 1-36.571428-36.571428v-256a36.571429 36.571429 0 0 1 36.571428-36.571429h256a36.571429 36.571429 0 0 1 36.571429 36.571429v256a36.571429 36.571429 0 0 1-36.571429 36.571428z"  horiz-adv-x="1024" />

    
    <glyph glyph-name="align-right" unicode="&#58934;" d="M877.714286 18.285713999999984h-73.142857V749.714286h73.142857zM694.857143 713.142857v-256H182.857143V713.142857h512m0 36.571429H182.857143a36.571429 36.571429 0 0 1-36.571429-36.571429v-256a36.571429 36.571429 0 0 1 36.571429-36.571428h512a36.571429 36.571429 0 0 1 36.571428 36.571428V713.142857a36.571429 36.571429 0 0 1-36.571428 36.571429zM694.857143 310.85714299999995v-256h-256v256h256m0 36.571428h-256a36.571429 36.571429 0 0 1-36.571429-36.571428v-256a36.571429 36.571429 0 0 1 36.571429-36.571429h256a36.571429 36.571429 0 0 1 36.571428 36.571429v256a36.571429 36.571429 0 0 1-36.571428 36.571428z"  horiz-adv-x="1024" />

    
    <glyph glyph-name="preview" unicode="&#58935;" d="M800 736H224a32 32 0 0 1-32-32v-576a32 32 0 0 1 32-32h576a32 32 0 0 1 32 32V704a32 32 0 0 1-32 32zM416 288v256l192-128z"  horiz-adv-x="1024" />

    
    <glyph glyph-name="flex" unicode="&#58936;" d="M256 493.714286v-219.428572H36.571429v219.428572h219.428571m36.571429 36.571428H0v-292.571428h292.571429v292.571428zM621.714286 493.714286v-219.428572h-219.428572v219.428572h219.428572m36.571428 36.571428h-292.571428v-292.571428h292.571428v292.571428zM987.428571 493.714286v-219.428572h-219.428571v219.428572h219.428571m36.571429 36.571428h-292.571429v-292.571428h292.571429v292.571428zM877.714286 18.285713999999984h-146.285715v36.571429h109.714286v109.714286h36.571429v-146.285715z m-182.857143 0h-146.285714v36.571429h146.285714v-36.571429zM475.428571 749.714286H329.142857v-36.571429h146.285714V749.714286zM292.571429 749.714286H146.285714v-146.285715h36.571429V713.142857h109.714286V749.714286zM182.857143 566.857143H146.285714v-36.571429h36.571429V566.857143z m0-329.142857H146.285714v-36.571429h36.571429v36.571429z m0-73.142857H146.285714v-146.285715h146.285715v36.571429H182.857143v109.714286z m292.571428-109.714286H329.142857v-36.571429h146.285714v36.571429z m219.428572 658.285714h-146.285714V749.714286h146.285714v-36.571429z m146.285714 0h-109.714286V749.714286h109.714286v-36.571429z m36.571429-109.714286h-36.571429V749.714286h36.571429v-146.285715z m0-73.142857h-36.571429V566.857143h36.571429v-36.571429z m0-329.142857h-36.571429v36.571429h36.571429v-36.571429z"  horiz-adv-x="1024" />

    
    <glyph glyph-name="zindex-top" unicode="&#58937;" d="M731.428571 640v-329.142857h-329.142857V640h329.142857m36.571429 36.571429H365.714286v-402.285715h402.285714V676.571429zM804.571429 566.857143v-329.142857h-329.142858v36.571428h292.571429V566.857143h36.571429m36.571428 36.571428h-73.142857v-329.142857h-329.142857v-73.142857h402.285714V603.4285709999999zM877.714286 493.714286v-329.142857h-329.142857v36.571428h292.571428v292.571429h36.571429m36.571428 36.571428h-73.142857v-329.142857h-329.142857v-73.142857h402.285714V530.285714zM182.857143 530.285714h73.142857v-438.857143H182.857143zM219.428571 713.142857l-109.714285-182.857143h219.428571L219.428571 713.142857z"  horiz-adv-x="1024" />

    
    <glyph glyph-name="shared" unicode="&#58939;" d="M288 541.44S267.2 544 256 544a224 224 0 0 1-88.32-430.08l288 281.28zM454.72 395.2l-288-281.28A407.04 407.04 0 0 1 256 96h520zM864 416h-32a160 160 0 0 1-160 160 265.92 265.92 0 0 1-37.44-4.8l-179.84-176 320-299.2H864a160 160 0 0 1 0 320zM634.56 571.2A176 176 0 0 1 288 541.44c-4.16 0 166.4-145.92 166.4-145.92s192 178.56 180.16 175.68z"  horiz-adv-x="1024" />

    
    <glyph glyph-name="align-center-h" unicode="&#58940;" d="M475.428571 749.714286h73.142858v-73.142857h-73.142858zM475.428571 384h73.142858v-36.571429h-73.142858zM475.428571 54.85714299999995h73.142858v-73.142857h-73.142858zM768 347.42857100000003H256a36.571429 36.571429 0 0 1-36.571429-36.571428v-219.428572a36.571429 36.571429 0 0 1 36.571429-36.571428h512a36.571429 36.571429 0 0 1 36.571429 36.571428v219.428572a36.571429 36.571429 0 0 1-36.571429 36.571428z m0-256H256v219.428572h512zM658.285714 676.571429h-292.571428a36.571429 36.571429 0 0 1-36.571429-36.571429v-219.428571a36.571429 36.571429 0 0 1 36.571429-36.571429h292.571428a36.571429 36.571429 0 0 1 36.571429 36.571429V640a36.571429 36.571429 0 0 1-36.571429 36.571429z m0-256h-292.571428V640h292.571428z"  horiz-adv-x="1024" />

    
    <glyph glyph-name="close" unicode="&#58942;" d="M584.704 384l220.16 220.16a49.152 49.152 0 0 1 0 69.632 49.152 49.152 0 0 1-69.632 0L512 456.704 291.84 676.864a49.152 49.152 0 0 1-69.632 0 49.152 49.152 0 0 1 0-69.632L439.296 384 219.136 163.84000000000003a49.152 49.152 0 0 1 0-69.632 49.152 49.152 0 0 1 69.632 0L512 311.29600000000005l220.16-220.16a49.152 49.152 0 0 1 69.632 0 49.152 49.152 0 0 1 0 69.632z"  horiz-adv-x="1024" />

    
    <glyph glyph-name="arrow-right" unicode="&#58943;" d="M738.13333333 375.46666666L328.53333333 631.46666666v-512l409.6 256z"  horiz-adv-x="1024" />

    
    <glyph glyph-name="search" unicode="&#58944;" d="M760.832 169.98400000000004l-102.4 102.4A252.928 252.928 0 0 1 716.8 435.2a256 256 0 1 1-256-256 252.928 252.928 0 0 1 161.792 59.392l102.4-102.4a24.576 24.576 0 0 1 34.816 34.816zM460.8 230.39999999999998a204.8 204.8 0 1 0 204.8 204.8 204.8 204.8 0 0 0-204.8-204.8z"  horiz-adv-x="1024" />

    
    <glyph glyph-name="checked" unicode="&#58945;" d="M42.66666666 938.66666666h1024v-1024H42.66666666zM426.66666666 324.26666666000006L247.46666666 503.46666666 127.99999966 383.99999965999996l179.2-179.2L426.66666666 85.33333366l110.933333 119.466666L895.99999966 563.19999966 776.53333366 682.66666666z"  horiz-adv-x="1024" />

    
    <glyph glyph-name="lightning" unicode="&#58946;" d="M870.4 691.2v-614.4H153.6V691.2h716.8m51.2 51.2H102.4v-716.8h819.2V742.4zM409.6 128l51.2 204.8H358.4l102.4 256h206.336L563.2 435.2l153.6 0.512L409.6 128zM153.6 691.2v-614.4h716.8V691.2z m256-563.2l51.2 204.8H358.4l102.4 256h204.8l-102.4-153.6h153.6z"  horiz-adv-x="1024" />

    
    <glyph glyph-name="top" unicode="&#58947;" d="M503.46666666 488.10666666L882.34666666 119.46666665999999l81.92 71.68-389.12 368.64-71.68 71.68-71.68-71.68L42.66666666 191.14666666000005l81.92-71.68z"  horiz-adv-x="1024" />

    
    <glyph glyph-name="increase-decrease" unicode="&#58948;" d="M512 742.4L358.4 588.8h307.2zM512 76.79999999999995l153.6 153.6H358.4z"  horiz-adv-x="1024" />

    
    <glyph glyph-name="scroll" unicode="&#58949;" d="M507.73333333 670.72L697.17333333 486.4l40.96 35.84-194.56 184.32-35.84 35.84-35.84-35.84L277.33333333 522.24l40.96-35.84zM507.73333333 97.27999999999997L318.29333333 281.6l-40.96-35.84 194.56-184.32 35.84-35.84 35.84 35.84 194.56 184.32-40.96 35.84z"  horiz-adv-x="1024" />

    
    <glyph glyph-name="func" unicode="&#58950;" d="M532.48 450.56a9.728 9.728 0 0 1 6.144 9.728 41.472 41.472 0 0 1 0 9.728H460.8v51.2c0 16.384 0 31.744 4.096 47.104a256 256 0 0 0 7.68 41.984A122.88 122.88 0 0 0 484.864 640a71.168 71.168 0 0 0 22.016 22.528 56.32 56.32 0 0 0 31.744 8.192 54.784 54.784 0 0 0 12.8 0 35.84 35.84 0 0 0 11.776-5.632 21.504 21.504 0 0 0 8.704-9.216 27.136 27.136 0 0 0 3.072-13.312 39.936 39.936 0 0 0 0-11.264 102.4 102.4 0 0 0-4.608-12.8 39.424 39.424 0 0 1 16.384-3.584 27.648 27.648 0 0 1 11.264 0 23.04 23.04 0 0 1 8.704 5.632 23.552 23.552 0 0 1 7.68 10.24 31.232 31.232 0 0 1 0 12.288 35.328 35.328 0 0 1-4.608 17.408 51.2 51.2 0 0 1-13.312 15.36 85.504 85.504 0 0 1-21.504 11.264 102.4 102.4 0 0 1-29.184 4.096 116.736 116.736 0 0 1-22.528 0 102.4 102.4 0 0 1-23.04-8.192 112.64 112.64 0 0 1-22.016-13.824 126.464 126.464 0 0 1-19.968-20.48 179.2 179.2 0 0 1-16.384-27.648 198.144 198.144 0 0 1-11.776-34.816c0-9.728-4.096-19.456-5.632-28.672s-3.072-18.432-4.096-27.648 0-18.432-2.56-27.648 0-19.456 0-29.696h-22.016a102.4 102.4 0 0 1-16.896-4.096 51.2 51.2 0 0 1-10.752-6.144 9.728 9.728 0 0 1-3.584-7.68 6.656 6.656 0 0 1 0-3.072 82.944 82.944 0 0 0 22.528 4.608h29.184v-94.72c0-30.208 0-58.368-4.096-84.48a649.216 649.216 0 0 0-7.68-70.656 250.88 250.88 0 0 0-14.336-54.272 89.6 89.6 0 0 0-23.04-34.816 46.592 46.592 0 0 0-32.768-12.288 65.024 65.024 0 0 0-14.336 0 69.632 69.632 0 0 0-14.336 5.632 46.592 46.592 0 0 0-12.288 10.24 61.952 61.952 0 0 0-10.752 14.336 19.456 19.456 0 0 1-9.728 0 19.456 19.456 0 0 1-7.68-4.608 15.872 15.872 0 0 1-5.12-6.656 16.384 16.384 0 0 1 0-8.192 22.016 22.016 0 0 1 4.608-13.312 47.104 47.104 0 0 1 12.8-11.264 80.896 80.896 0 0 1 18.944-7.68 115.712 115.712 0 0 1 24.064-2.56 105.472 105.472 0 0 1 30.208 4.608 95.744 95.744 0 0 1 28.672 16.384 122.368 122.368 0 0 1 26.624 30.72 212.992 212.992 0 0 1 22.528 47.104 318.464 318.464 0 0 1 10.752 39.936c3.072 14.336 6.144 29.696 8.192 46.08s4.096 32.768 5.632 51.2 3.072 33.792 4.096 51.2 0 32.768 2.56 48.128 0 29.184 0 42.496l31.232-2.56h26.112a51.2 51.2 0 0 1 15.36-5.632zM764.928 164.35199999999998l-9.728-3.584h-25.6a34.816 34.816 0 0 0-25.088 9.216 70.656 70.656 0 0 0-10.752 12.8 149.504 149.504 0 0 0-10.752 20.48 267.264 267.264 0 0 0-12.288 27.136c-4.096 11.264-9.216 24.064-13.824 38.4 5.12 10.752 10.24 20.992 15.36 30.208a179.2 179.2 0 0 0 16.384 24.064 66.56 66.56 0 0 0 16.896 15.36 32.256 32.256 0 0 0 18.432 5.632h12.8a18.944 18.944 0 0 0 6.144-3.584l6.144-5.632a32.256 32.256 0 0 1 10.24 11.776 34.816 34.816 0 0 1 3.584 14.336 40.448 40.448 0 0 1 0 10.24 23.04 23.04 0 0 1-5.632 8.704 29.184 29.184 0 0 1-9.728 4.096 36.352 36.352 0 0 1-13.312 0 40.96 40.96 0 0 1-22.016-6.656 92.16 92.16 0 0 1-20.992-19.456 182.784 182.784 0 0 1-20.992-30.208c-6.656-11.776-13.824-25.088-20.992-39.424 0 8.704-6.144 17.92-9.216 26.624s-6.656 18.432-9.728 28.16a113.152 113.152 0 0 1-8.192 20.48 46.592 46.592 0 0 1-7.68 11.776 27.136 27.136 0 0 1-8.704 6.144 29.696 29.696 0 0 1-9.728 0h-9.216l-14.848-3.584-17.92-5.632-21.504-7.168v-11.776l15.36 3.072H570.88a21.504 21.504 0 0 0 8.704-5.12 58.88 58.88 0 0 0 7.68-10.24 134.656 134.656 0 0 0 7.68-16.896l7.68-23.04 11.776-19.456 6.656-18.432c0-5.632 4.096-11.264 5.632-16.896s-11.776-21.504-17.92-31.232a196.096 196.096 0 0 0-17.92-24.064 73.728 73.728 0 0 0-18.944-15.36 38.912 38.912 0 0 0-19.968-5.12 54.272 54.272 0 0 0-12.288 0 80.896 80.896 0 0 0-15.872 5.12 51.2 51.2 0 0 1-7.168-11.776 30.208 30.208 0 0 1-2.56-11.776 25.6 25.6 0 0 1 7.168-16.896 27.648 27.648 0 0 1 9.216-5.632 31.232 31.232 0 0 1 12.288 0 43.52 43.52 0 0 1 23.04 7.168 102.4 102.4 0 0 1 23.04 19.968 217.088 217.088 0 0 1 22.528 30.72c7.68 11.776 15.36 24.576 23.04 38.912 6.144-16.896 11.776-31.232 16.896-43.52a197.12 197.12 0 0 1 15.36-29.696 51.2 51.2 0 0 1 15.872-16.896 33.792 33.792 0 0 1 18.944-5.12h15.872a137.216 137.216 0 0 1 17.92 5.12 113.152 113.152 0 0 1 17.92 8.192 92.672 92.672 0 0 1 16.896 10.24z"  horiz-adv-x="1024" />

    
    <glyph glyph-name="font-bold" unicode="&#58951;" d="M652.8 384A189.44 189.44 0 0 1 716.8 523.264 167.936 167.936 0 0 1 548.864 691.2H256v-614.4h301.568A159.232 159.232 0 0 1 716.8 236.03200000000004 199.168 199.168 0 0 1 652.8 384zM358.4 588.8h190.464A65.536 65.536 0 0 0 614.4 523.264 88.064 88.064 0 0 0 526.336 435.2H358.4z m199.168-409.6H358.4v153.6h159.232A96.768 96.768 0 0 0 614.4 236.03200000000004 56.832 56.832 0 0 0 557.568 179.20000000000005z"  horiz-adv-x="1024" />

    
    <glyph glyph-name="underline" unicode="&#58952;" d="M614.4 691.2v-230.4a128 128 0 0 0-256 0V691.2H256v-230.4a230.4 230.4 0 0 1 460.8 0V691.2zM256 179.20000000000005h460.8v-102.4H256z"  horiz-adv-x="1024" />

    
    <glyph glyph-name="strikethrough" unicode="&#58953;" d="M512 435.2c-55.296 0-102.4 35.328-102.4 76.8S456.704 588.8 512 588.8s102.4-35.328 102.4-76.8h102.4A193.536 193.536 0 0 1 512 691.2a193.536 193.536 0 0 1-204.8-179.2A153.6 153.6 0 0 1 327.68 435.2zM607.744 281.6a55.808 55.808 0 0 0 6.656-25.6c0-41.472-47.104-76.8-102.4-76.8s-102.4 35.328-102.4 76.8H307.2a193.536 193.536 0 0 1 204.8-179.2 193.536 193.536 0 0 1 204.8 179.2 139.776 139.776 0 0 1-3.072 25.6zM512 435.2H153.6v-102.4h716.8V435.2h-358.4z"  horiz-adv-x="1024" />

    
    <glyph glyph-name="italic" unicode="&#58954;" d="M716.8 588.8V691.2H358.4v-102.4h102.4l-91.136-409.6H256v-102.4h358.4v102.4H472.064L563.2 588.8h153.6z"  horiz-adv-x="1024" />

    
    <glyph glyph-name="project" unicode="&#58955;" d="M174.93333333 588.8m-51.2 0a51.2 51.2 0 1 1 102.4 0 51.2 51.2 0 1 1-102.4 0ZM174.93333333 384m-51.2 0a51.2 51.2 0 1 1 102.4 0 51.2 51.2 0 1 1-102.4 0ZM174.93333333 179.20000000000005m-51.2 0a51.2 51.2 0 1 1 102.4 0 51.2 51.2 0 1 1-102.4 0ZM328.53333333 640h563.2v-102.4H328.53333333zM328.53333333 435.2h563.2v-102.4H328.53333333zM328.53333333 230.39999999999998h563.2v-102.4H328.53333333z"  horiz-adv-x="1024" />

    
    <glyph glyph-name="dialog-add" unicode="&#58956;" d="M768 435.2h-204.8V640H460.8v-204.8H256v-102.4h204.8v-204.8h102.4v204.8h204.8V435.2z"  horiz-adv-x="1024" />

    
    <glyph glyph-name="pantone" unicode="&#58957;" d="M247.46666666 179.20000000000005m51.2 0l0 0q51.2 0 51.2-51.2l0 0q0-51.2-51.2-51.2l0 0q-51.2 0-51.2 51.2l0 0q0 51.2 51.2 51.2ZM861.86666666 281.6h-239.616l173.056 173.056a51.2 51.2 0 0 1 0 73.728L647.85066666 675.84a51.2 51.2 0 0 1-73.728 0L452.26666666 553.9839999999999V742.4a51.2 51.2 0 0 1-51.2 51.2H196.26666666a51.2 51.2 0 0 1-51.2-51.2v-716.8a51.2 51.2 0 0 1 51.2-51.2h665.6a51.2 51.2 0 0 1 51.2 51.2v204.8a51.2 51.2 0 0 1-51.2 51.2zM452.26666666 481.792L610.47466666 640 759.46666666 491.008l-307.2-307.2zM196.26666666 25.600000000000023V742.4h204.8v-716.8z m665.6 0H452.26666666v86.016L571.05066666 230.39999999999998H861.86666666z"  horiz-adv-x="1024" />

    
    <glyph glyph-name="color-sucker" unicode="&#58958;" d="M907.264 747.52l-31.744 31.744a56.832 56.832 0 0 1-80.384-4.608l-147.968-147.968-51.2 51.2a51.2 51.2 0 0 1-69.12 0l-51.2-51.2a51.2 51.2 0 0 1 0-69.12l15.36-19.968-353.792-351.744a122.88 122.88 0 0 1 0-174.08 124.928 124.928 0 0 1 91.648-37.376 120.32 120.32 0 0 1 84.992 34.816L665.6 363.00800000000004l15.872-15.872a51.2 51.2 0 0 1 69.12 0l51.2 51.2a51.2 51.2 0 0 1 0 69.12l-51.2 51.2 147.968 147.968a56.832 56.832 0 0 1 8.704 80.896zM276.48 46.08000000000004a67.072 67.072 0 0 0-47.616-19.456 75.264 75.264 0 0 0-51.2 22.016 71.168 71.168 0 0 0-2.56 102.4l353.792 353.792 102.4-102.4z"  horiz-adv-x="1024" />

    
    <glyph glyph-name="pallet" unicode="&#58959;" d="M277.33333333 435.2m-51.2 0a51.2 51.2 0 1 1 102.4 0 51.2 51.2 0 1 1-102.4 0ZM430.93333333 588.8m-51.2 0a51.2 51.2 0 1 1 102.4 0 51.2 51.2 0 1 1-102.4 0ZM584.53333333 588.8m-51.2 0a51.2 51.2 0 1 1 102.4 0 51.2 51.2 0 1 1-102.4 0ZM738.13333333 435.2m-51.2 0a51.2 51.2 0 1 1 102.4 0 51.2 51.2 0 1 1-102.4 0ZM891.73333333 432.64c0 16.384-4.608 32.256-8.192 51.2a396.288 396.288 0 0 1-302.592 307.2A379.904 379.904 0 0 1 508.75733333 793.6C283.47733333 793.6 103.25333333 588.8 123.73333333 341.504a402.432 402.432 0 0 1 319.488-364.032h22.528a57.856 57.856 0 0 1 48.64 79.872 137.216 137.216 0 0 0-3.584 80.384A124.416 124.416 0 0 0 635.73333333 230.39999999999998h84.992A180.224 180.224 0 0 1 891.73333333 432.64z m-84.48-112.64a115.712 115.712 0 0 0-87.552-40.448H635.73333333a174.08 174.08 0 0 1-170.496-132.608 191.488 191.488 0 0 1 5.12-110.08 20.992 20.992 0 0 0 0-11.264H456.53333333A352.256 352.256 0 0 0 174.93333333 346.11199999999997 377.344 377.344 0 0 0 270.67733333 634.88a315.904 315.904 0 0 0 299.52 102.4 345.088 345.088 0 0 0 262.144-266.24 418.304 418.304 0 0 0 7.168-43.008 136.704 136.704 0 0 0-33.28-108.032z"  horiz-adv-x="1024" />

    
    <glyph glyph-name="font-top" unicode="&#58960;" d="M102.4 742.4h819.2v-102.4H102.4zM102.4 537.6h819.2v-102.4H102.4z"  horiz-adv-x="1024" />

    
    <glyph glyph-name="text-align-normal" unicode="&#58961;" d="M153.6 640h716.8v-102.4H153.6zM153.6 230.39999999999998h563.2v-102.4H153.6zM153.6 435.2h716.8v-102.4H153.6z"  horiz-adv-x="1024" />

    
    <glyph glyph-name="font-bottom" unicode="&#58962;" d="M102.4 332.79999999999995h819.2v-102.4H102.4zM102.4 128h819.2v-102.4H102.4z"  horiz-adv-x="1024" />

    
    <glyph glyph-name="font-color" unicode="&#58963;" d="M302.42133333 712.53333333L123.73333333 258.90133333000006h65.536l51.2 137.728h194.048l54.272-137.728h70.144L368.46933333 712.53333333z m-44.544-267.264l51.2 133.12a592.896 592.896 0 0 1 25.088 86.528c7.168-24.576 17.92-55.808 32.768-94.208l51.2-125.44zM877.39733333 298.32533333000003a752.128 752.128 0 0 0-3.584 98.304V470.86933333a288.768 288.768 0 0 1-3.072 51.2 79.872 79.872 0 0 1-17.92 36.864 89.088 89.088 0 0 1-39.424 25.088 204.8 204.8 0 0 1-70.144 10.24 231.936 231.936 0 0 1-76.288-11.776 111.104 111.104 0 0 1-51.2-33.28 139.776 139.776 0 0 1-25.088-56.32l55.808-7.68a84.48 84.48 0 0 0 28.672 51.2 102.4 102.4 0 0 0 59.392 13.312 98.304 98.304 0 0 0 65.024-18.432 61.44 61.44 0 0 0 16.384-48.128v-14.336a535.552 535.552 0 0 0-102.4-19.456 476.672 476.672 0 0 1-51.2-8.192 130.048 130.048 0 0 1-40.96-18.432 93.184 93.184 0 0 1-29.696-31.744 91.648 91.648 0 0 1 18.432-111.616 123.904 123.904 0 0 1 85.504-26.624 180.736 180.736 0 0 1 62.976 10.752 204.8 204.8 0 0 1 60.928 37.376 120.32 120.32 0 0 1 11.776-40.96H891.73333333a131.072 131.072 0 0 0-14.336 38.4zM815.95733333 405.33333333a131.072 131.072 0 0 0-9.216-55.808 86.016 86.016 0 0 0-37.888-38.4 114.688 114.688 0 0 0-58.368-14.336 75.776 75.776 0 0 0-51.2 14.848 46.592 46.592 0 0 0-17.408 37.376 43.008 43.008 0 0 0 8.192 26.112 47.616 47.616 0 0 0 22.528 18.432 211.456 211.456 0 0 0 51.2 10.752 450.048 450.048 0 0 1 93.184 20.992zM123.73333333 149.33333332999996h768v-102.4H123.73333333z"  horiz-adv-x="1024" />

    
    <glyph glyph-name="background-disabled" unicode="&#58964;" d="M0 896h1024v-1024H0zM992 672v-576H32V672h960m0 32H32c-19.2 0-32-12.8-32-32v-576c0-19.2 12.8-32 32-32h960c19.2 0 32 12.8 32 32V672c0 19.2-12.8 32-32 32zM915.2 608H96v-448h832V608h-12.8zM128 576h723.2L128 208V576z m768-384H172.8L896 560V192z"  horiz-adv-x="1024" />

    
    <glyph glyph-name="text-align-right" unicode="&#58965;" d="M153.6 640h716.8v-102.4H153.6zM153.6 230.39999999999998h716.8v-102.4H153.6zM409.6 435.2h460.8v-102.4H409.6z"  horiz-adv-x="1024" />

    
    <glyph glyph-name="unlock" unicode="&#58966;" d="M914.94985639 645.46286724a176.74762534 176.74762534 0 0 1-346.42534566 0 193.00840688 193.00840688 0 0 1-3.53495252-35.34952508V433.3657168H207.95935498a70.69905013 70.69905013 0 0 1-70.69905012-70.69905013v-282.79620057a70.69905013 70.69905013 0 0 1 70.69905013-70.69905013h494.89335099a70.69905013 70.69905013 0 0 1 70.69905015 70.69905013v282.79620057a70.69905013 70.69905013 0 0 1-70.69905015 70.69905013h-70.69905013V610.11334216a106.0485752 106.0485752 0 0 0 212.09715041 0 35.34952507 35.34952507 0 0 1 70.69905013 0 193.00840688 193.00840688 0 0 1 0 35.34952508z"  horiz-adv-x="1024" />

    
    <glyph glyph-name="lock" unicode="&#58967;" d="M780.90362711 438.07898681h-75.41232014V626.60978719a205.87563401 205.87563401 0 0 1 0 37.70616009 188.53080036 188.53080036 0 0 1-369.52036875 0 205.87563401 205.87563401 0 0 1 0-37.70616009V438.07898681H253.01738605a75.41232014 75.41232014 0 0 1-75.41232014-75.41232014v-301.64928061a75.41232014 75.41232014 0 0 1 75.41232014-75.41232014h527.88624106a75.41232014 75.41232014 0 0 1 75.41232016 75.41232014v301.64928061a75.41232014 75.41232014 0 0 1-75.41232016 75.41232014zM403.84202635 438.07898681V626.60978719a113.11848021 113.11848021 0 0 0 226.23696045 0V438.07898681z"  horiz-adv-x="1024" />

    
    <glyph glyph-name="show" unicode="&#58968;" d="M507.73333333 516.26666667A128 128 0 1 1 635.73333333 388.26666667 128 128 0 0 1 507.73333333 516.26666667z m0-204.8A76.8 76.8 0 1 0 584.53333333 388.26666667 76.8 76.8 0 0 0 507.73333333 311.46666667zM507.73333333 618.66666667C295.76533333 618.66666667 123.73333333 413.86666667 123.73333333 388.26666667S295.76533333 157.86666666999997 507.73333333 157.86666666999997 891.73333333 362.66666667000004 891.73333333 388.26666667 719.70133333 618.66666667 507.73333333 618.66666667z m0-409.6C323.92533333 209.06666667000002 174.93333333 368.29866667 174.93333333 388.26666667S323.92533333 567.46666667 507.73333333 567.46666667 840.53333333 408.23466667 840.53333333 388.26666667 691.54133333 209.06666667000002 507.73333333 209.06666667000002z"  horiz-adv-x="1024" />

    
    <glyph glyph-name="edit-style" unicode="&#58969;" d="M153.6 742.4h614.4v-51.2H153.6zM153.6 128h614.4v-51.2H153.6zM153.6 588.8h409.6v-51.2H153.6zM153.6 435.2h204.8v-51.2H153.6zM153.6 281.6h204.8v-51.2H153.6zM890.368 608.768A105.984 105.984 0 0 1 814.592 640a110.592 110.592 0 0 1-78.848-32.768L460.8 332.79999999999995v-153.6h153.6l274.944 274.944a109.568 109.568 0 0 1 1.024 154.624zM592.384 230.39999999999998H512v80.384L737.792 537.6 819.2 456.192z m260.096 260.096l-3.072-4.096L768 567.808l3.584 3.072a58.368 58.368 0 0 0 43.008 17.92 54.272 54.272 0 0 0 39.424-16.384 55.296 55.296 0 0 0 16.384-39.936 59.392 59.392 0 0 0-17.92-41.984z"  horiz-adv-x="1024" />

    
    <glyph glyph-name="fill" unicode="&#58970;" d="M0 896h1024v-1024H0zM992 672v-576H32V672h960m0 32H32c-19.2 0-32-12.8-32-32v-576c0-19.2 12.8-32 32-32h960c19.2 0 32 12.8 32 32V672c0 19.2-12.8 32-32 32zM896 576v-384H128V576h768m32 32H96v-448h832V608zM128 576h768v-384H128z"  horiz-adv-x="1024" />

    
    <glyph glyph-name="distance-v" unicode="&#58971;" d="M819.2 742.4H153.6v-102.4h51.2V691.2h614.4v-51.2h51.2V742.4h-51.2zM460.8 537.6h102.4v-307.2H460.8zM819.2 128v-51.2H204.8v51.2H153.6v-102.4h716.8v102.4h-51.2zM512 691.2L358.4 537.6h307.2l-153.6 153.6zM512 76.79999999999995l-153.6 153.6h307.2l-153.6-153.6z"  horiz-adv-x="1024" />

    
    <glyph glyph-name="side-arrow" unicode="&#58972;" d="M328.53333333 466.944L238.42133333 537.6H840.53333333V588.8H238.42133333L328.53333333 658.944 287.57333333 691.2 164.69333333 594.944 123.73333333 563.2l40.96-32.256L287.57333333 435.2l40.96 31.744zM850.77333333 236.54399999999998L727.89333333 332.79999999999995l-40.96-32.256L777.04533333 230.39999999999998H174.93333333v-51.2h602.112L686.93333333 108.54399999999998l40.96-31.744 122.88 95.744 40.96 32.256-40.96 31.744z"  horiz-adv-x="1024" />

    
    <glyph glyph-name="border-radius-settings" unicode="&#58973;" d="M819.2 691.2v-614.4H204.8v307.2a307.2 307.2 0 0 0 307.2 307.2h307.2m51.2 51.2h-358.4a358.4 358.4 0 0 1-358.4-358.4v-358.4h716.8V742.4z"  horiz-adv-x="1024" />

    
    <glyph glyph-name="border-type" unicode="&#58974;" d="M153.6 413.86666667h102.4v-51.2H153.6zM153.6 157.86666666999997h716.8v-51.2H153.6zM307.2 413.86666667h102.4v-51.2H307.2zM460.8 413.86666667h102.4v-51.2H460.8zM614.4 413.86666667h102.4v-51.2h-102.4zM768 413.86666667h102.4v-51.2h-102.4zM153.6 669.86666667h153.6v-51.2H153.6zM460.8 669.86666667h153.6v-51.2H460.8zM768 669.86666667h102.4v-51.2h-102.4z"  horiz-adv-x="1024" />

    
    <glyph glyph-name="hide-notcheck" unicode="&#58975;" d="M486.4 230.39999999999998C302.08 230.39999999999998 153.6 389.12 153.6 409.6c30.72 51.2 76.8 92.16 128 117.76l-30.72 30.72C189.44 522.24 138.24 471.04 102.4 409.6 102.4 384 276.48 179.20000000000005 486.4 179.20000000000005c40.96 0 81.92 5.12 122.88 20.48l-40.96 40.96c-25.6-5.12-56.32-10.24-81.92-10.24zM870.4 409.6C870.4 435.2 696.32 640 486.4 640c-56.32 0-107.52-15.36-158.72-35.84L240.64 691.2l-35.84-35.84L783.36 76.79999999999995l35.84 35.84-128 128c76.8 40.96 138.24 97.28 179.2 168.96zM486.4 588.8C670.72 588.8 819.2 430.08 819.2 409.6c-40.96-61.44-97.28-107.52-163.84-133.12l-66.56 66.56c15.36 15.36 25.6 40.96 25.6 66.56C614.4 481.28 558.08 537.6 486.4 537.6c-25.6 0-51.2-10.24-71.68-20.48l-51.2 51.2c40.96 10.24 81.92 20.48 122.88 20.48z m-30.72-107.52c35.84 20.48 81.92 5.12 102.4-35.84 10.24-20.48 10.24-46.08 0-66.56l-102.4 102.4zM522.24 286.72l-46.08 46.08c-35.84 5.12-61.44 30.72-66.56 66.56l-46.08 46.08c-5.12-10.24-5.12-25.6-5.12-35.84C358.4 337.91999999999996 414.72 281.6 486.4 281.6c10.24 0 25.6 0 35.84 5.12z"  horiz-adv-x="1024" />

    
    <glyph glyph-name="text-shadow" unicode="&#58976;" d="M153.6 733.86666666v-102.4h204.8v-512h102.4V631.46666666h204.8V733.86666666H153.6zM716.8 733.86666666h-51.2v-102.4H460.8v-512l204.8-102.4h256V529.06666666l-204.8 204.8z"  horiz-adv-x="1024" />

    
    <glyph glyph-name="radius-config" unicode="&#58977;" d="M1012.869565 662.2608700000001h-66.782608V806.956522a11.130435 11.130435 0 0 1-11.130435 11.130435H790.26087V884.869565a11.130435 11.130435 0 0 1-11.130435 11.130435H244.869565a11.130435 11.130435 0 0 1-11.130435-11.130435v-66.782608H89.043478a11.130435 11.130435 0 0 1-11.130435-11.130435v-144.695652H11.130435a11.130435 11.130435 0 0 1-11.130435-11.130435v-534.26087a11.130435 11.130435 0 0 1 11.130435-11.130435h66.782608v-144.695652a11.130435 11.130435 0 0 1 11.130435-11.130435h144.695652v-66.782608a11.130435 11.130435 0 0 1 11.130435-11.130435h534.26087a11.130435 11.130435 0 0 1 11.130435 11.130435v66.782608h144.695652a11.130435 11.130435 0 0 1 11.130435 11.130435V105.73913000000005h66.782608a11.130435 11.130435 0 0 1 11.130435 11.130435V651.130435a11.130435 11.130435 0 0 1-11.130435 11.130435zM244.869565 884.869565h534.26087v-66.782608H244.869565z m0-89.043478h534.26087v-66.782609H244.869565zM11.130435 116.86956499999997V651.130435h66.782608v-534.26087z m89.043478 534.26087h66.782609v-534.26087H100.173913z m678.956522-768H244.869565v66.782608h534.26087z m0 89.043478H244.869565v66.782609h534.26087z m144.695652 0H790.26087v66.782609a11.130435 11.130435 0 0 1-11.130435 11.130435H244.869565a11.130435 11.130435 0 0 1-11.130435-11.130435v-66.782609H100.173913V105.73913000000005h66.782609a11.130435 11.130435 0 0 1 11.130435 11.130435V651.130435a11.130435 11.130435 0 0 1-11.130435 11.130435H100.173913V795.826087h133.565217v-66.782609a11.130435 11.130435 0 0 1 11.130435-11.130435h534.26087a11.130435 11.130435 0 0 1 11.130435 11.130435V795.826087h133.565217v-133.565217h-66.782609a11.130435 11.130435 0 0 1-11.130435-11.130435v-534.26087a11.130435 11.130435 0 0 1 11.130435-11.130435h66.782609z m0 678.956522v-534.26087h-66.782609V651.130435z m89.043478-534.26087h-66.782608V651.130435h66.782608z"  horiz-adv-x="1024" />

    
    <glyph glyph-name="line-config" unicode="&#58978;" d="M0 896h1024v-1024H0zM1008.484848 461.575758c9.309091 0 15.515152 6.206061 15.515152 15.515151V880.484848c0 9.309091-6.206061 15.515152-15.515152 15.515152H605.090909c-9.309091 0-15.515152-6.206061-15.515151-15.515152v-155.151515H434.424242V880.484848c0 9.309091-6.206061 15.515152-15.515151 15.515152H15.515152C6.206061 896 0 889.793939 0 880.484848v-403.393939c0-9.309091 6.206061-15.515152 15.515152-15.515151h155.151515v-155.151516H15.515152c-9.309091 0-15.515152-6.206061-15.515152-15.515151v-403.393939c0-9.309091 6.206061-15.515152 15.515152-15.515152h403.393939c9.309091 0 15.515152 6.206061 15.515151 15.515152V42.66666699999996h155.151516v-155.151515c0-9.309091 6.206061-15.515152 15.515151-15.515152h403.393939c9.309091 0 15.515152 6.206061 15.515152 15.515152V290.909091c0 9.309091-6.206061 15.515152-15.515152 15.515151H853.333333V461.575758h155.151515zM605.090909 880.484848h403.393939v-403.393939H853.333333v124.121212c0 68.266667-55.854545 124.121212-124.121212 124.121212h-124.121212V880.484848z m0-186.181818h124.121212c51.2 0 93.090909-41.890909 93.090909-93.090909v-124.121212H605.090909V694.30303zM15.515152 477.090909V880.484848h403.393939v-155.151515h-124.121212c-68.266667 0-124.121212-55.854545-124.121212-124.121212v-124.121212H15.515152z m403.393939 217.212121v-217.212121H201.69697v124.121212c0 51.2 41.890909 93.090909 93.090909 93.090909h124.121212z m0-806.787878H15.515152V290.909091h155.151515v-124.121212c0-68.266667 55.854545-124.121212 124.121212-124.121212h124.121212v-155.151515z m0 186.181818h-124.121212c-51.2 0-93.090909 41.890909-93.090909 93.090909v124.121212h217.212121v-217.212121z m589.575757 217.212121v-403.393939H605.090909V42.66666699999996h124.121212c68.266667 0 124.121212 55.854545 124.121212 124.121212v124.121212h155.151515zM605.090909 73.69696999999996V290.909091h217.212121v-124.121212c0-51.2-41.890909-93.090909-93.090909-93.090909h-124.121212z m217.212121 232.727272H605.090909c-9.309091 0-15.515152-6.206061-15.515151-15.515151v-217.212121H434.424242V290.909091c0 9.309091-6.206061 15.515152-15.515151 15.515151H201.69697V461.575758h217.212121c9.309091 0 15.515152 6.206061 15.515151 15.515151V694.30303h155.151516v-217.212121c0-9.309091 6.206061-15.515152 15.515151-15.515151h217.212121v-155.151516z"  horiz-adv-x="1024" />

    
    <glyph glyph-name="text-align-left" unicode="&#58979;" d="M153.6 640h716.8v-102.4H153.6zM153.6 230.39999999999998h716.8v-102.4H153.6zM153.6 435.2h460.8v-102.4H153.6z"  horiz-adv-x="1024" />

    
    <glyph glyph-name="font-center" unicode="&#58980;" d="M102.4 537.6h819.2v-102.4H102.4zM102.4 332.79999999999995h819.2v-102.4H102.4z"  horiz-adv-x="1024" />

    
    <glyph glyph-name="distance-h" unicode="&#58981;" d="M358.4 435.2h307.2v-102.4H358.4zM153.6 691.2v-665.6h102.4v51.2H204.8V691.2h51.2V742.4H153.6v-51.2zM768 742.4v-51.2h51.2v-614.4h-51.2v-51.2h102.4V742.4h-102.4zM204.8 384l153.6-153.6V537.6l-153.6-153.6zM819.2 384l-153.6 153.6v-307.2l153.6 153.6z"  horiz-adv-x="1024" />

    
    <glyph glyph-name="border-settings" unicode="&#58982;" d="M123.73333333 742.4h102.4v-102.4H123.73333333zM123.73333333 588.8h102.4v-102.4H123.73333333zM123.73333333 281.6h102.4v-102.4H123.73333333zM123.73333333 128h768v-102.4H123.73333333zM123.73333333 435.2h102.4v-102.4H123.73333333zM430.93333333 742.4h102.4v-102.4H430.93333333zM584.53333333 742.4h102.4v-102.4h-102.4zM738.13333333 742.4h153.6v-102.4h-153.6zM789.33333333 588.8h102.4v-102.4h-102.4zM789.33333333 435.2h102.4v-102.4h-102.4zM789.33333333 281.6h102.4v-102.4h-102.4zM277.33333333 742.4h102.4v-102.4H277.33333333z"  horiz-adv-x="1024" />

    
    <glyph glyph-name="text-align-center" unicode="&#58983;" d="M153.6 640h716.8v-102.4H153.6zM153.6 230.39999999999998h716.8v-102.4H153.6zM307.2 435.2h409.6v-102.4H307.2z"  horiz-adv-x="1024" />

    
    <glyph glyph-name="copy" unicode="&#58984;" d="M576 512V704H192v-384h192v-192h384V512H576zM384 384H256V640h256v-128H384v-128z m320-192H448V448h256v-256z"  horiz-adv-x="1024" />

    
    <glyph glyph-name="style-font-size" unicode="&#58988;" d="M0 896h1024v-1024H0zM870.4 742.4v-716.8H153.6V742.4h716.8m0 51.2H153.6c-30.72 0-51.2-20.48-51.2-51.2v-716.8c0-30.72 20.48-51.2 51.2-51.2h716.8c30.72 0 51.2 20.48 51.2 51.2V742.4c0 30.72-20.48 51.2-51.2 51.2zM307.2 281.6l168.96 409.6h61.44l179.2-409.6h-66.56l-51.2 122.88H414.72L368.64 281.6H307.2z m128 168.96h148.48l-46.08 112.64c-15.36 35.84-25.6 61.44-30.72 87.04-5.12-25.6-15.36-51.2-25.6-76.8l-46.08-122.88z"  horiz-adv-x="1024" />

    
    <glyph glyph-name="move-up" unicode="&#58989;" d="M704 492.8L524.8 659.2 480 704l-44.8-44.8L256 492.8l44.8-44.8L448 588.8V64h64V588.8L659.2 448z"  horiz-adv-x="1024" />

    
    <glyph glyph-name="line-color-disabled" unicode="&#58990;" d="M0 896h1024v-1024H0zM870.4 742.4v-716.8H153.6V742.4h716.8m0 51.2H153.6c-30.72 0-51.2-20.48-51.2-51.2v-716.8c0-30.72 20.48-51.2 51.2-51.2h716.8c30.72 0 51.2 20.48 51.2 51.2V742.4c0 30.72-20.48 51.2-51.2 51.2zM204.8 691.2v-614.4h614.4V691.2H204.8z m51.2-51.2h471.04L256 168.96000000000004V640z m512-512H296.96L768 599.04V128z"  horiz-adv-x="1024" />

    
    <glyph glyph-name="style-delete" unicode="&#58991;" d="M556.8 384l204.8 204.8c12.8 12.8 12.8 32 0 44.8-12.8 12.8-32 12.8-44.8 0L512 428.8 307.2 633.6c-6.4 6.4-32 6.4-44.8 0-6.4-12.8-6.4-38.4 0-44.8L467.2 384l-204.8-204.8c-12.8-12.8-12.8-32 0-44.8 12.8-12.8 32-12.8 44.8 0L512 339.20000000000005l204.8-204.8c12.8-12.8 32-12.8 44.8 0s12.8 32 0 44.8L556.8 384z"  horiz-adv-x="1024" />

    
    <glyph glyph-name="pic-filter" unicode="&#58992;" d="M174.93333333 669.86666667h409.6v-51.2H174.93333333zM174.93333333 157.86666666999997h204.8v-51.2H174.93333333zM430.93333333 413.86666667h409.6v-51.2H430.93333333zM738.13333333 669.86666667V721.06666667h-102.4v-153.6h102.4V618.66666667h102.4V669.86666667h-102.4zM277.33333333 413.86666667H174.93333333v-51.2h102.4v-51.2h102.4V465.06666667H277.33333333v-51.2zM533.33333333 209.06666667000002H430.93333333v-153.6h102.4v51.2h307.2v51.2h-307.2v51.2z"  horiz-adv-x="1024" />

    
    <glyph glyph-name="line-color" unicode="&#58994;" d="M0 896h1024v-1024H0zM870.4 742.4v-716.8H153.6V742.4h716.8m0 51.2H153.6c-30.72 0-51.2-20.48-51.2-51.2v-716.8c0-30.72 20.48-51.2 51.2-51.2h716.8c30.72 0 51.2 20.48 51.2 51.2V742.4c0 30.72-20.48 51.2-51.2 51.2zM768 640v-512H256V640h512m51.2 51.2H204.8v-614.4h614.4V691.2zM256 640h512v-512H256z"  horiz-adv-x="1024" />

    
    <glyph glyph-name="in-shadow-border" unicode="&#58995;" d="M972.8 844.8v-921.6H51.2V844.8h921.6m0 51.2H51.2C20.48 896 0 875.52 0 844.8v-921.6c0-30.72 20.48-51.2 51.2-51.2h921.6c30.72 0 51.2 20.48 51.2 51.2V844.8c0 30.72-20.48 51.2-51.2 51.2zM768 640H256v-512h102.4V537.6h409.6zM358.4 537.6h409.6v-409.6H358.4z"  horiz-adv-x="1024" />

    
    <glyph glyph-name="out-shadow" unicode="&#58996;" d="M226.13333333 669.86666667h460.8v-460.8H226.13333333zM686.93333333 567.46666667v-358.4H328.53333333v-102.4h460.8V567.46666667h-102.4z"  horiz-adv-x="1024" />

    
    <glyph glyph-name="file-folder" unicode="&#58997;" d="M512 640V691.2H204.8v-563.2h665.6V640h-358.4z"  horiz-adv-x="1024" />

    
    <glyph glyph-name="add-page" unicode="&#58998;" d="M256 691.2v-563.2h460.8V691.2H256z m409.6-512H307.2V640h358.4v-460.8zM460.8 281.6h51.2v102.4h102.4V435.2h-102.4V537.6H460.8v-102.4H358.4v-51.2h102.4z"  horiz-adv-x="1024" />

    
    <glyph glyph-name="master-module" unicode="&#58999;" d="M768 435.2h-153.6V588.8H256v-409.6h512V435.2zM827.904 537.6l-153.6 153.6H153.6v-614.4h716.8V495.104zM819.2 128H204.8V640h460.8v-153.6h153.6z"  horiz-adv-x="1024" />

    
    <glyph glyph-name="page" unicode="&#59000;" d="M328.53333333 516.26666667h358.4v-51.2H328.53333333zM328.53333333 413.86666667h358.4v-51.2H328.53333333zM328.53333333 311.46666667h358.4v-51.2H328.53333333zM226.13333333 721.06666667v-665.6h563.2V721.06666667z m512-614.4H277.33333333V669.86666667h460.8z"  horiz-adv-x="1024" />

    
    <glyph glyph-name="file-folder-open" unicode="&#59001;" d="M789.33333333 580.26666666H520.53333333L430.93333333 669.86666666 418.13333333 682.66666666H174.93333333v-563.2h665.6V580.26666666h-51.2z m0-409.6H226.13333333V631.46666666h166.4L482.13333333 541.86666666l12.288-12.8H789.33333333z"  horiz-adv-x="1024" />

    
    <glyph glyph-name="sort" unicode="&#59002;" d="M742.4 456.53333333L614.4 328.53333333l0.512-0.512H716.8V98.13333333000003h51.2v229.888h102.4v0.512L742.4 456.53333333zM768 610.13333333V661.33333333H153.6v-91.136l10.752-11.264L358.4 365.39733333000004V98.13333333000003h204.8v267.264l204.8 204.8z m-51.2-11.776L523.264 405.33333333l-11.264-11.264V149.33333332999996H409.6v244.736L398.336 405.33333333 204.8 598.86933333V610.13333333h512z"  horiz-adv-x="1024" />

    
    <glyph glyph-name="font-color-top" unicode="&#59057;" d="M256 230.39999999999998h563.2v-153.6H256zM307.2 281.6l188.928 460.8h70.656L768 281.6h-74.24l-57.344 139.776h-204.8L376.32 281.6z m142.336 189.44H614.4l-51.2 127.488c-15.36 38.912-27.136 70.656-34.816 95.232a505.344 505.344 0 0 0-26.624-87.552z"  horiz-adv-x="1024" />

    
    <glyph glyph-name="out-shadow-border" unicode="&#59063;" d="M972.8 844.8v-921.6H51.2V844.8h921.6m0 51.2H51.2a51.2 51.2 0 0 1-51.2-51.2v-921.6a51.2 51.2 0 0 1 51.2-51.2h921.6a51.2 51.2 0 0 1 51.2 51.2V844.8a51.2 51.2 0 0 1-51.2 51.2zM204.8 691.2h460.8v-460.8H204.8zM665.6 588.8v-358.4H307.2v-102.4h460.8V588.8h-102.4z"  horiz-adv-x="1024" />

    
    <glyph glyph-name="move-down" unicode="&#59044;" d="M750.933333 235.86133299999995l-191.146666-181.589333-47.786667-45.738667-47.786667 45.738667L273.066667 235.86133299999995 320.853333 281.6 477.866667 132.096V691.2h68.266666v-559.104L703.146667 281.6l47.786666-45.738667z"  horiz-adv-x="1024" />

    
    <glyph glyph-name="arrow-bottom" unicode="&#58941;" d="M524.79999999 140.79999998999995L268.79999999 550.39999999h512z"  horiz-adv-x="1024" />

    
    <glyph glyph-name="no-color" unicode="&#58907;" d="M0 896h73.142857v-1024H0zM1828.571429 896h73.142857v-1024h-73.142857zM0 896h1901.714286v-73.142857H0zM0-54.857143h1901.714286v-73.142857H0zM38.765714-106.788571L1878.308571 795.062857l-32.182857 66.56L38.765714-24.137143v-82.651428z"  horiz-adv-x="1901" />

    
    <glyph glyph-name="bottom" unicode="&#58926;" d="M887.9332567 627.7881047000001L516.76324347 273.85098493 145.59323023 627.7881047000001l-92.79250331-88.81568174L516.76324347 97.54522864 980.72576001 538.97242296 887.9332567 627.7881047000001z"  horiz-adv-x="1024" />

    
    <glyph glyph-name="exportin" unicode="&#58938;" d="M258.368 541.056a21.056 21.056 0 0 1 5.312-23.232l226.752-210.24c12.224-10.944 30.72-11.008 43.072-0.128L760.256 517.76a21.184 21.184 0 0 1-14.464 36.864h-130.56l0.448 223.808v0.384a31.744 31.744 0 0 1-31.872 31.488H440.256a32 32 0 0 1-31.808-32.064l0.32-223.616h-130.56a21.12 21.12 0 0 1-19.84-13.568z m47.104-18.496h135.296l-0.32 255.808 143.168-0.064-0.384-255.68h135.232L511.872 331.00800000000004l-206.4 191.552zM983.808 275.39200000000005L841.6 385.152a78.72 78.72 0 0 1-43.008 14.784H677.504l137.088-136.448H708.48l-69.504-98.752H382.208l-66.496 98.752H209.216L345.28 399.872H222.912c-13.76 0-32.256-6.4-42.944-14.72L37.76 275.328a44.544 44.544 0 0 1-14.208-46.656l56.704-173.376a43.072 43.072 0 0 1 39.552-28.736h783.04a43.072 43.072 0 0 1 39.488 28.8l55.872 173.376a44.992 44.992 0 0 1-14.4 46.656z m-71.936-210.24c-1.024-3.2-5.696-6.656-9.024-6.656H119.744c-3.264 0-8.064 3.584-9.088 6.656L53.952 238.65599999999995c-1.088 3.328 0.768 9.344 3.456 11.392l142.144 109.888a48.64 48.64 0 0 0 23.36 8h45.248L132.096 231.55200000000002h166.656l66.496-98.816H655.68l69.504 98.752h166.912L755.072 367.93600000000004h43.52a47.616 47.616 0 0 0 23.488-8.064l142.016-109.696c2.752-2.176 4.608-8.256 3.648-11.712l-55.872-173.312z"  horiz-adv-x="1024" />

    


  </font>
</defs>
</svg>
