<?xml version="1.0" encoding="UTF-8"?>
<svg width="40px" height="40px" viewBox="0 0 40 40" version="1.1" xmlns="http://www.w3.org/2000/svg" xmlns:xlink="http://www.w3.org/1999/xlink">
    <title>logo</title>
    <defs>
        <filter id="filter-1">
            <feColorMatrix in="SourceGraphic" type="matrix" values="0 0 0 0 0.298039 0 0 0 0 0.686275 0 0 0 0 0.972549 0 0 0 1.000000 0"></feColorMatrix>
        </filter>
    </defs>
    <g id="页面-1" stroke="none" stroke-width="1" fill="none" fill-rule="evenodd">
        <g id="logo" transform="translate(-60.000000, -30.000000)" filter="url(#filter-1)">
            <g transform="translate(60.000000, 30.000000)">
                <rect id="矩形" fill="#000000" fill-rule="nonzero" opacity="0" x="0" y="0" width="40" height="40"></rect>
                <path d="M8.92049953,14.8594385 C8.92049953,14.0411411 9.36464668,13.2961739 10.0612827,12.9345231 L19.2433791,7.61309035 L19.3350417,7.56475914 C19.8850175,7.3006041 20.518323,7.30227066 21.1524618,7.61642352 L30.3387247,12.9720214 C31.0636928,13.3253393 31.5261725,14.0853059 31.5261725,14.9186025 L31.5428384,25.5789673 C31.5428384,26.4005978 31.0945248,27.1505648 30.4320539,27.4872167 L20.9724698,32.7719844 C20.4520474,33.0392268 19.8400277,33.062414 19.3008766,32.835315 L19.1767154,32.7753176 L3.87655461,24.3973525 C3.1424202,24.0507011 2.66494117,23.2840681 2.66494117,22.4316056 L2.70243953,10.9221116 C2.70243953,10.0854817 3.1674191,9.3246818 3.81322406,9.01386211 L19.2342128,0.197582969 C19.7850219,-0.0707385547 20.4208273,-0.0707385547 21.0549661,0.241747695 L36.1959672,8.97219727 C36.9209354,9.32468176 37.3850816,10.0854817 37.3850816,10.9221116 L37.3850816,28.5930014 C37.3850816,29.4204651 36.9301016,30.1737653 36.2801302,30.4979177 L20.96747,39.2308671 C20.4419272,39.4961153 19.8255544,39.5135252 19.2858772,39.278365 L19.1742155,39.2233675 L9.89379008,34.1152587 L5.97729559,37.6167714 C5.15399844,38.4334022 3.85238898,38.4000704 3.06909008,37.5417747 C2.70130639,37.1345308 2.49866056,36.6047397 2.50076523,36.0560067 L2.50076523,29.4587967 C2.50076523,28.6721646 3.1099216,28.0355259 3.86155523,28.0355259 C4.61318887,28.0355259 5.22232875,28.6721646 5.22232875,29.4587967 L5.22232875,34.5502396 L8.38885625,31.7186974 C8.9668207,31.1351995 9.84360409,30.9661292 10.5970925,31.2928827 L10.707921,31.347047 L20.0733426,36.5018204 L34.6643679,28.1805196 L34.6643679,11.3345934 L20.1041746,2.94079574 L5.42231996,11.3345934 L5.38732152,22.0116241 L8.92049953,23.9457057 L8.92049953,14.8594385 Z M12.3078506,21.6466401 L14.165269,21.6466401 L17.0368094,25.3023127 C17.3109223,25.6596748 17.7197593,25.8887931 18.1676563,25.9360563 C18.6155533,25.9833194 19.0632075,25.84458 19.405872,25.5523018 C19.6775267,25.3231452 19.8725181,25.0123255 19.9658473,24.6615076 L21.7657682,17.8726393 L24.0265022,21.6474734 L27.753005,21.6474734 C28.4254755,21.6474734 28.9704515,21.0808316 28.9704515,20.3841956 C28.9704515,19.685893 28.4254755,19.1209178 27.7538383,19.1209178 L25.379776,19.1209178 L22.9273838,15.0260978 C22.7081931,14.6560827 22.3562981,14.3834461 21.9432604,14.2636313 C21.0466332,14.0078093 20.1200072,14.5552852 19.8733514,15.4852443 L18.0042669,22.5349344 L15.3210515,19.1209178 L12.3086839,19.1209178 C11.6362135,19.1209178 11.0912375,19.685893 11.0912375,20.3841956 C11.0912375,21.081665 11.6362135,21.6466401 12.3078506,21.6466401 L12.3078506,21.6466401 Z" id="形状" fill="#000000" fill-rule="nonzero"></path>
            </g>
        </g>
    </g>
</svg>