<?xml version="1.0" encoding="UTF-8"?>
<svg width="14px" height="13px" viewBox="0 0 14 13" version="1.1" xmlns="http://www.w3.org/2000/svg" xmlns:xlink="http://www.w3.org/1999/xlink">
    <!-- Generator: Sketch 59.1 (86144) - https://sketch.com -->
    <title>编组 14</title>
    <desc>Created with Sketch.</desc>
    <g id="页面-1" stroke="none" stroke-width="1" fill="none" fill-rule="evenodd">
        <g id="列表页-交互" transform="translate(-54.000000, -187.000000)">
            <g id="编组-7" transform="translate(0.000000, 67.000000)">
                <g id="编组-14" transform="translate(51.000000, 116.000000)">
                    <g id="编组" transform="translate(3.000000, 4.000000)" fill="#C2C2C2" fill-rule="nonzero">
                        <path d="M13.8356347,3.28421053 L7.65211082,0.205263162 C7.2398759,-0.068421054 6.75893514,-0.068421054 6.34670023,0.205263162 L0.163176338,3.28421053 C0.163176338,3.35263159 0.0944705116,3.42105263 0.0257646852,3.42105263 C-0.0429411413,3.69473685 0.0257646852,3.96842105 0.231882148,4.03684211 L2.43046843,5.13157895 L0.575411264,6.08947369 C0.369293801,6.22631579 0.231882164,6.43157894 0.231882148,6.6368421 C0.231882148,6.84210526 0.369293785,7.11578948 0.575411264,7.18421053 L2.15564514,8.00526317 L0.575411264,8.8263158 C0.369293801,8.9631579 0.231882164,9.16842106 0.231882148,9.37368421 C0.231882148,9.57894737 0.369293785,9.85263159 0.575411264,9.92105263 L6.34670023,12.7947368 C6.5528177,12.9315789 6.75893516,13 6.96505262,13 C7.17117009,13 7.44599338,12.9315789 7.65211082,12.7947368 L13.4233998,9.92105263 C13.6295173,9.78421053 13.7669289,9.57894737 13.7669289,9.37368421 C13.7669289,9.16842106 13.6295173,8.89473684 13.4233998,8.8263158 L11.8431659,8.00526317 L13.4233998,7.18421053 C13.6295173,7.04736843 13.7669289,6.84210528 13.7669289,6.6368421 C13.7669289,6.43157894 13.6295173,6.15789473 13.4233998,6.08947369 L11.6370484,5.13157895 L13.8356347,4.03684211 C13.9043405,3.96842105 13.9730464,3.96842105 13.9730464,3.90000001 C14.0417522,3.62631579 13.9730464,3.35263159 13.8356347,3.28421053 Z M12.5302241,9.37368421 L7.2398759,12.0421053 C7.10246426,12.1105263 6.96505261,12.1105263 6.82764097,12.0421053 L1.53729275,9.37368421 L3.25493829,8.48421052 L6.41540604,10.0578947 C6.62152351,10.1947368 6.82764097,10.2631579 7.03375843,10.2631579 C7.2398759,10.2631579 7.51469919,10.1947368 7.72081665,10.0578947 L10.8812844,8.48421052 L12.5302241,9.37368421 Z M12.5302241,6.6368421 L10.8125786,7.52631579 L9.78199128,8.00526317 L7.17117009,9.30526316 C7.03375845,9.37368421 6.8963468,9.37368421 6.75893516,9.30526316 L4.14811395,8.00526317 L3.11752663,7.52631579 L1.39988112,6.6368421 L3.46105575,5.61052631 L6.41540604,7.11578948 C6.82764097,7.38947369 7.30858172,7.38947369 7.72081665,7.11578948 L10.675167,5.61052631 L12.5302241,6.6368421 L12.5302241,6.6368421 Z" id="形状"></path>
                    </g>
                    <rect id="矩形" x="0" y="0" width="20" height="20"></rect>
                </g>
            </g>
        </g>
    </g>
</svg>