<?xml version="1.0" standalone="no"?><!DOCTYPE svg PUBLIC "-//W3C//DTD SVG 1.1//EN" "http://www.w3.org/Graphics/SVG/1.1/DTD/svg11.dtd"><svg t="1673596734978" class="icon" viewBox="0 0 1024 1024" version="1.1" xmlns="http://www.w3.org/2000/svg" p-id="19422" xmlns:xlink="http://www.w3.org/1999/xlink" width="16" height="16"><path d="M928 320c19.2 0 32 12.8 32 32v448c0 12.8-12.8 25.6-25.6 32H652.8c-6.4 0-12.8 0-19.2 6.4l-89.6 57.6-89.6-57.6c-6.4-6.4-12.8-6.4-19.2-6.4H160c-19.2 0-32-12.8-32-32v-448c0-19.2 12.8-32 32-32s32 12.8 32 32V768h243.2c6.4 0 12.8 0 19.2 6.4l89.6 57.6 89.6-57.6c6.4-6.4 12.8-6.4 19.2-6.4H896V352c0-19.2 12.8-32 32-32z" fill="#045340" p-id="19423"></path><path d="M428.8 128c12.8 0 25.6 6.4 38.4 12.8l76.8 51.2 76.8-51.2c12.8-6.4 25.6-12.8 38.4-12.8H768c38.4 0 64 25.6 64 64v448c0 38.4-25.6 64-64 64h-108.8c-12.8 0-25.6 6.4-38.4 12.8l-76.8 51.2-76.8-51.2c-12.8-6.4-25.6-12.8-38.4-12.8H320c-38.4 0-64-25.6-64-64V192c0-38.4 25.6-64 64-64h108.8z m51.2 320h-128c-19.2 0-32 12.8-32 32s12.8 32 32 32h128c19.2 0 32-12.8 32-32S499.2 448 480 448z m0-128h-128c-19.2 0-32 12.8-32 32s12.8 32 32 32h128c19.2 0 32-12.8 32-32S499.2 320 480 320z" fill="#045340" p-id="19424"></path></svg>