<?xml version="1.0" standalone="no"?><!DOCTYPE svg PUBLIC "-//W3C//DTD SVG 1.1//EN" "http://www.w3.org/Graphics/SVG/1.1/DTD/svg11.dtd"><svg t="1595848817514" class="icon" viewBox="0 0 1024 1024" version="1.1" xmlns="http://www.w3.org/2000/svg" p-id="8180" xmlns:xlink="http://www.w3.org/1999/xlink" width="14" height="14"><defs><style type="text/css"></style></defs><path d="M0 0m146.285714 0l731.428572 0q146.285714 0 146.285714 146.285714l0 731.428572q0 146.285714-146.285714 146.285714l-731.428572 0q-146.285714 0-146.285714-146.285714l0-731.428572q0-146.285714 146.285714-146.285714Z" fill="#B5B5B5" p-id="8181"></path><path d="M360.740571 868.132571a541.257143 541.257143 0 0 1-143.36-373.028571 523.410286 523.410286 0 0 1 144.164572-371.785143h104.521143a565.686857 565.686857 0 0 0-139.849143 370.834286 577.828571 577.828571 0 0 0 138.971428 373.979428z m300.909715 0h-104.448a562.688 562.688 0 0 0 139.849143-370.761142 579.730286 579.730286 0 0 0-138.971429-373.979429h104.521143a540.598857 540.598857 0 0 1 143.286857 373.979429 519.826286 519.826286 0 0 1-144.237714 370.761142z" fill="#FFFFFF" p-id="8182"></path></svg>
