<?xml version="1.0" encoding="UTF-8"?>
<svg width="36px" height="43px" viewBox="0 0 36 43" version="1.1" xmlns="http://www.w3.org/2000/svg" xmlns:xlink="http://www.w3.org/1999/xlink">
    <title>摄像头图标+文字</title>
    <g id="页面-1" stroke="none" stroke-width="1" fill="none" fill-rule="evenodd">
        <g id="摄像头" transform="translate(-835.000000, -343.000000)" fill="#FFFFFF">
            <g id="摄像头图标+文字" transform="translate(835.000000, 343.000000)">
                <g id="编组-3" opacity="0.46" transform="translate(10.000000, 0.000000)" fill-rule="nonzero">
                    <path d="M8,0 C3.58218623,0 0,3.58218623 0,8 C0,12.4178138 3.58218623,16 8,16 C12.4178138,16 16,12.4178138 16,8 C16,3.57894737 12.4178138,0 8,0 L8,0 Z M3.71497976,3.46558704 C3.71497976,2.94412955 4.13603239,2.52307692 4.65748988,2.52307692 C5.17894737,2.52307692 5.6,2.94412955 5.6,3.46558704 C5.6,3.98704453 5.17894737,4.40809717 4.65748988,4.40809717 C4.13603239,4.40809717 3.71497976,3.98704453 3.71497976,3.46558704 Z M8,11.345749 C6.15060729,11.345749 4.65425101,9.84615385 4.65425101,8 C4.65425101,6.15060729 6.15384615,4.65425101 8,4.65425101 C9.84939271,4.65425101 11.345749,6.15384615 11.345749,8 C11.345749,9.84615385 9.84615385,11.345749 8,11.345749 L8,11.345749 Z" id="形状"></path>
                    <path d="M14.4221861,15 C12.9584644,16.7794836 10.8244099,17.9099791 8.44100461,17.9099791 C6.09969751,17.9099791 4.00126459,16.8213538 2.54078118,15.094208 L1.07058281,18.7334264 C0.798563727,19.410328 1.33612525,20 2.28171539,20 L14.7168734,20 C15.6657019,20 16.2032634,19.410328 15.928006,18.7334264 L14.4221861,15 L14.4221861,15 Z" id="路径"></path>
                </g>
                <text id="摄像头备份-3" opacity="0.464480378" font-family="PingFangSC-Regular, PingFang SC" font-size="12" font-weight="normal">
                    <tspan x="0" y="39">摄像头</tspan>
                </text>
            </g>
        </g>
    </g>
</svg>