<?xml version="1.0" standalone="no"?><!DOCTYPE svg PUBLIC "-//W3C//DTD SVG 1.1//EN" "http://www.w3.org/Graphics/SVG/1.1/DTD/svg11.dtd"><svg t="1645681117499" class="icon" viewBox="0 0 1024 1024" version="1.1" xmlns="http://www.w3.org/2000/svg" p-id="7427" xmlns:xlink="http://www.w3.org/1999/xlink" width="200" height="200"><defs><style type="text/css"></style></defs><path d="M448 448H320V128h384v320h-64v320H512v64H448z" fill="#F9E700" fill-opacity=".36" p-id="7428"></path><path d="M512 832v64H448v-64zM448 448v384H384V448z m128 320v64H512v-64z m64-64v64H576v-64z m64-64v64h-64v-64z m-64-64v64H576V576z m64-64v64h-64V512z m-64-64v64H576V448zM384 384v64H320V384z m320 0v64h-64V384zM320 128v256H256V128z m448 0v256h-64V128zM576 256v64H448V256z m128-192v64H320V64z" fill="#969696" p-id="7429"></path></svg>