<?xml version="1.0" encoding="utf-8"?>
<!-- Generator: Adobe Illustrator 26.0.2, SVG Export Plug-In . SVG Version: 6.00 Build 0)  -->
<svg version="1.1" id="图层_1" xmlns="http://www.w3.org/2000/svg" xmlns:xlink="http://www.w3.org/1999/xlink" x="0px" y="0px"
	 viewBox="0 0 26 26" style="enable-background:new 0 0 26 26;" xml:space="preserve">
<style type="text/css">
	.st0{fill:#348FE0;}
</style>
<g>
	<path class="st0" d="M9.5,0L0,9.5V26h0.5L26,0.5V0H9.5z M7.3,4c0.8-0.1,1.4-0.1,2-0.1v0.9c-0.5,0-1.2,0-2,0.1V4z M5.5,6.2
		C6.1,6.3,6.6,6.5,7,6.6L6.9,7.3C6.4,7.2,5.9,7,5.3,6.9L5.5,6.2z M4.1,15c0.5-0.4,0.8-0.8,1.2-1.2l-0.4-0.4l-1.1,1.1L3.3,14l1.1-1.1
		L4,12.5l-1.2,1.2l-2.4-2.4l2.9-2.9l2.4,2.4L4.5,12l0.4,0.4L6,11.3l0.5,0.5l-1.1,1.1l0.4,0.4c0.4-0.5,0.8-0.9,1.1-1.3l0.5,0.5
		c-0.5,0.6-1.4,1.6-2.7,3L4.1,15z M5.8,17c-0.2-0.5-0.5-0.9-0.9-1.4l0.6-0.5c0.5,0.5,0.8,1,1.1,1.5L5.8,17z M6.9,16
		c-0.4-0.4-0.9-0.8-1.1-1l0.4-0.6c0.3,0.2,0.7,0.6,1.2,1L6.9,16z M7.7,15.1c-0.4-0.3-0.8-0.6-1.2-0.8l0.3-0.6
		c0.4,0.2,0.8,0.4,1.3,0.7L7.7,15.1z M11.5,11.7c-1.1-0.2-2.3-0.7-3.4-1.4c0.7,1.2,1.2,2.3,1.4,3.4l-0.8-0.1l-0.2,0.5
		c-0.5-0.3-0.9-0.5-1.4-0.7l0.3-0.6c0.4,0.2,0.8,0.3,1.1,0.5C8.1,12,7.3,10.7,6.3,9.5l-0.7,0.7L5,9.6l0.9-0.7
		C5.2,8.1,4.7,7.6,4.3,7.2l0.6-0.6c0.4,0.4,1,1,1.6,1.6l1-1l0.6,0.6l-1,1c1.6,1.1,3,1.8,4.4,1.9V11.7z M13.1,9.5l-0.9-0.3
		c0-0.2-0.1-0.4-0.2-0.5L9.9,6.5L9,7.4L8.3,6.7l1.5-1.5l2.6,2.6c0.1-0.3,0.1-0.7,0.1-1.1l0.9,0.5C13.4,7.9,13.3,8.7,13.1,9.5z
		 M13.7,8.2c0.1-1.3-0.2-2.6-0.9-3.7c-0.6-0.9-1.5-2-2.7-3.2l0.7-0.7c0.6,0.6,1.1,1.1,1.5,1.6c1.9,1.2,3.7,1.9,5.4,2l0.1,1
		C16.4,5,15,4.5,13.5,3.8c0,0.1,0.1,0.1,0.1,0.2c0.9,1.3,1.2,2.7,1.1,4.3L13.7,8.2z"/>
	<path class="st0" d="M3.3,9.4l-0.7,0.7L4,11.5l0.7-0.7L3.3,9.4z M3.8,11c-0.2-0.3-0.4-0.7-0.7-1l0.4-0.2c0.3,0.4,0.5,0.7,0.7,1.1
		L3.8,11z"/>
	<path class="st0" d="M1.4,11.3l1.4,1.4L3.5,12l-1.4-1.4L1.4,11.3z M3,12.2c-0.4-0.3-0.8-0.5-1.1-0.6l0.2-0.4
		c0.3,0.1,0.7,0.3,1.1,0.6L3,12.2z"/>
</g>
</svg>
