<svg id="元件-选中" xmlns="http://www.w3.org/2000/svg" width="20" height="20" viewBox="0 0 20 20">
  <defs>
    <style>
      .cls-1 {
        fill: none;
      }

      .cls-2 {
        fill: #4c5a6c;
      }

      .cls-3 {
        fill: #fff;
      }
    </style>
  </defs>
  <rect id="矩形_453" data-name="矩形 453" class="cls-1" width="20" height="20"/>
  <g id="组_8" data-name="组 8" transform="translate(3 3)">
    <path id="路径_1" data-name="路径 1" class="cls-2" d="M42.545,18.5V12.918a1.888,1.888,0,0,0-.964-1.65L36.448,8.4a1.853,1.853,0,0,0-1.805,0l-5.133,2.863a1.888,1.888,0,0,0-.964,1.65V18.5a1.889,1.889,0,0,0,.964,1.65l5.133,2.862a1.848,1.848,0,0,0,1.805,0l5.133-2.862A1.889,1.889,0,0,0,42.545,18.5Z" transform="translate(-28.545 -8.17)"/>
    <rect id="矩形_92" data-name="矩形 92" class="cls-3" width="1" height="5" rx="0.5" transform="translate(6.5 7.5)"/>
    <rect id="矩形_93" data-name="矩形 93" class="cls-3" width="1" height="5" rx="0.5" transform="matrix(0.5, -0.866, 0.866, 0.5, 3, 5.866)"/>
    <rect id="矩形_94" data-name="矩形 94" class="cls-3" width="1" height="5" rx="0.5" transform="matrix(-0.5, -0.866, 0.866, -0.5, 6.99, 8.366)"/>
  </g>
</svg>
