<?xml version="1.0" standalone="no"?><!DOCTYPE svg PUBLIC "-//W3C//DTD SVG 1.1//EN" "http://www.w3.org/Graphics/SVG/1.1/DTD/svg11.dtd"><svg t="1596102537118" class="icon" viewBox="0 0 1024 1024" version="1.1" xmlns="http://www.w3.org/2000/svg" p-id="8422" xmlns:xlink="http://www.w3.org/1999/xlink" width="20" height="20"><defs><style type="text/css"></style></defs><path d="M227.555556 853.333333a56.888889 56.888889 0 0 1-56.888889-56.888889V227.555556a56.888889 56.888889 0 0 1 56.888889-56.888889h170.666666v-28.444445a28.444444 28.444444 0 0 1 28.444445-28.444444 28.444444 28.444444 0 0 1 28.444444 28.444444V170.666667h170.666667v-28.444445a28.444444 28.444444 0 0 1 28.444444-28.444444 28.444444 28.444444 0 0 1 28.444445 28.444444V170.666667h170.666666a56.888889 56.888889 0 0 1 56.888889 56.888889v568.888888a56.888889 56.888889 0 0 1-56.888889 56.888889z m0-85.333333a28.444444 28.444444 0 0 0 28.444444 28.444444h568.888889a28.444444 28.444444 0 0 0 28.444444-28.444444V398.222222H227.555556zM853.333333 341.333333V256a28.444444 28.444444 0 0 0-28.444444-28.444444H682.666667v28.444444a28.444444 28.444444 0 0 1-28.444445 28.444444 28.444444 28.444444 0 0 1-28.444444-28.444444V227.555556H455.111111v28.444444a28.444444 28.444444 0 0 1-28.444444 28.444444 28.444444 28.444444 0 0 1-28.444445-28.444444V227.555556H256a28.444444 28.444444 0 0 0-28.444444 28.444444V341.333333z m-483.555555 341.333334a28.444444 28.444444 0 0 1-28.444445-28.444445 28.444444 28.444444 0 0 1 28.444445-28.444444h113.777778a28.444444 28.444444 0 0 1 28.444444 28.444444 28.444444 28.444444 0 0 1-28.444444 28.444445z m0-113.777778a28.444444 28.444444 0 0 1-28.444445-28.444445 28.444444 28.444444 0 0 1 28.444445-28.444444h341.333333a28.444444 28.444444 0 0 1 28.444445 28.444444 28.444444 28.444444 0 0 1-28.444445 28.444445z" fill="#758293" p-id="8423"></path></svg>
