<?xml version="1.0" encoding="utf-8"?>
<!-- Generator: Adobe Illustrator 25.3.1, SVG Export Plug-In . SVG Version: 6.00 Build 0)  -->
<svg version="1.1" id="图层_1" xmlns="http://www.w3.org/2000/svg" xmlns:xlink="http://www.w3.org/1999/xlink" x="0px" y="0px"
	 viewBox="0 0 128 128" style="enable-background:new 0 0 128 128;" xml:space="preserve">
<style type="text/css">
	.st0{opacity:0;fill:none;}
	.st1{fill:#348FE0;}
	.st2{fill:#666666;}
	.st3{fill:#EF9A00;}
	.st4{fill:#67C23A;}
	.st5{fill:none;}
	.st6{fill:#969696;}
	.st7{fill:#FFFFFF;}
	.st8{fill:#46B790;}
	.st9{fill:#F14E63;}
	.st10{fill:#FFAB17;}
	.st11{opacity:0;}
	.st12{fill:#62C13B;}
	.st13{fill:#D3E9F8;}
	.st14{fill:#BEBB5F;}
	.st15{fill:#F9E700;}
	.st16{fill:#333333;}
	.st17{fill:#D1D1D1;}
	.st18{fill:#B9B9B9;}
	.st19{fill:#4A4E5B;}
	.st20{opacity:0.4;}
	.st21{clip-path:url(#SVGID_2_);}
	.st22{clip-path:url(#SVGID_4_);}
	.st23{opacity:0;clip-path:url(#SVGID_6_);}
	.st24{clip-path:url(#SVGID_4_);fill:#959595;}
	.st25{fill:#959595;}
	.st26{fill:#EAF3FC;}
	.st27{fill:#85BCEC;}
	.st28{fill:#F0F8FF;}
	.st29{fill:#65B4EF;}
	.st30{fill:#F0F8FF;stroke:#348FE0;stroke-width:2;stroke-linecap:round;stroke-miterlimit:10;}
	.st31{fill:#C5DFF6;}
	.st32{fill:#F4F9F7;}
	.st33{fill:#41C297;}
	.st34{fill:#00CFC9;}
	.st35{fill:url(#SVGID_11_);}
	.st36{fill:#00E1DB;}
	.st37{fill-rule:evenodd;clip-rule:evenodd;fill:#D1D1D1;}
	.st38{fill:#EBF4FC;}
	.st39{fill:#F3F1FA;}
	.st40{fill:#B1A5E3;}
	.st41{fill:#FEF1F1;}
	.st42{fill:#EE6867;}
	.st43{fill:#EEF6FF;}
	.st44{fill:#51A4EE;}
	.st45{fill:#97CEFF;}
	.st46{fill:#C5D0DA;}
	.st47{fill:#C0DDF7;}
	.st48{fill:#AAEBD6;}
	.st49{clip-path:url(#SVGID_13_);fill:#348FE0;}
	.st50{clip-path:url(#SVGID_15_);fill:#F44E63;}
	.st51{fill-rule:evenodd;clip-rule:evenodd;fill:none;}
	.st52{fill:#C9E1F7;}
	.st53{fill-rule:evenodd;clip-rule:evenodd;fill:#6AA7DE;}
	.st54{fill-rule:evenodd;clip-rule:evenodd;fill:#FFFFFF;}
	.st55{fill:#F0F6FE;fill-opacity:0.3617;stroke:#C5D0DA;stroke-width:0.2;}
	.st56{fill:#97CEFF;stroke:#97CEFF;stroke-width:0.2;}
	.st57{filter:url(#Adobe_OpacityMaskFilter);}
	.st58{opacity:0.4309;mask:url(#mask-2_2_);}
	.st59{fill:none;stroke:#348FE0;stroke-width:0.5;stroke-dasharray:2;}
	.st60{fill-rule:evenodd;clip-rule:evenodd;fill:#C9E1F7;}
	.st61{fill-rule:evenodd;clip-rule:evenodd;fill:#41C297;}
	.st62{fill:#6AA7DE;}
	.st63{fill:#EF9A00;fill-opacity:0.773;}
	.st64{fill-rule:evenodd;clip-rule:evenodd;fill:#F0F8FF;}
	.st65{fill-rule:evenodd;clip-rule:evenodd;fill:#D9EAF9;}
	.st66{fill:#D9EAF9;}
	.st67{fill-rule:evenodd;clip-rule:evenodd;fill:#64A9E7;}
	.st68{fill-rule:evenodd;clip-rule:evenodd;fill:#E6F1FB;}
	.st69{opacity:0.7643;fill:#348FE0;enable-background:new    ;}
	.st70{fill-rule:evenodd;clip-rule:evenodd;fill:#D8D8D8;fill-opacity:0;}
	.st71{fill:#F3B13A;}
	.st72{fill:none;stroke:#F3B13A;}
	.st73{fill-rule:evenodd;clip-rule:evenodd;fill:#A8A8A8;fill-opacity:0;}
	.st74{fill:#727272;}
	.st75{fill:url(#形状结合_3_);}
	.st76{fill:url(#形状结合_4_);}
	.st77{fill:url(#形状结合_5_);}
	.st78{fill:#FFB757;}
	.st79{fill:url(#路径_2_);}
	.st80{fill:url(#形状_4_);}
	.st81{fill:url(#SVGID_16_);}
	.st82{fill:url(#形状_6_);}
	.st83{fill:url(#形状_7_);}
	.st84{fill-rule:evenodd;clip-rule:evenodd;fill:#F8FCFF;}
	.st85{fill-rule:evenodd;clip-rule:evenodd;fill:#FAFDFF;}
	.st86{fill:#EBF3FA;}
	.st87{fill:#E1E9F0;}
	.st88{fill:#CED6DD;}
	.st89{fill-rule:evenodd;clip-rule:evenodd;fill:#CED6DD;}
	.st90{fill:#F2F5F9;}
	.st91{fill:#FAFDFF;}
	.st92{fill:#A8A8A8;}
	.st93{fill:#979797;}
	.st94{fill-rule:evenodd;clip-rule:evenodd;fill:#969696;}
	.st95{fill:none;stroke:#969696;stroke-miterlimit:10;}
	.st96{fill:#878787;}
	.st97{fill:#9DD0FE;}
	.st98{fill:#75BDFC;}
</style>
<g>
	<rect x="0" class="st5" width="128" height="128"/>
</g>
<path class="st17" d="M83.5,62h-39v11h9v-6h1v6h9v-6h1v6h9v-6h1v6h9V62z M83.5,74h-9v6h9V74z M73.5,74h-9v6h9V74z M63.5,74h-9v6h9
	V74z M53.5,74h-9v6h9V74z M83.5,81h-9v6h9V81z M73.5,81h-9v6h9V81z M63.5,81h-9v6h9V81z M53.5,81h-9v6h9V81z M84.5,61v27h-41V61
	H84.5z"/>
<rect x="43.5" y="61" class="st97" width="41" height="6"/>
<path class="st17" d="M72.5,43h-17v6h17V43z M73.5,42v8h-19v-8H73.5z"/>
<g>
	<path class="st17" d="M64,99c-3.59,0-6.5,2.91-6.5,6.5s2.91,6.5,6.5,6.5s6.5-2.91,6.5-6.5S67.59,99,64,99z M64,111
		c-3.038,0-5.5-2.462-5.5-5.5s2.462-5.5,5.5-5.5s5.5,2.462,5.5,5.5S67.038,111,64,111z"/>
	<rect x="61.5" y="103" class="st17" width="5" height="5"/>
</g>
<g>
	<path class="st97" d="M64,16c-3.59,0-6.5,2.91-6.5,6.5S60.41,29,64,29s6.5-2.91,6.5-6.5S67.59,16,64,16z M64,28
		c-3.038,0-5.5-2.462-5.5-5.5S60.962,17,64,17s5.5,2.462,5.5,5.5S67.038,28,64,28z"/>
	<polygon class="st97" points="62.5,26 66.5,22.5 62.5,19 	"/>
</g>
<polygon class="st17" points="64.5,38 64.5,29 63.5,29 63.5,38 60.5,38 64,42 67.5,38 "/>
<polygon class="st17" points="64.5,57 64.5,49 63.5,49 63.5,57 60.5,57 64,61 67.5,57 "/>
<polygon class="st17" points="64.5,95 64.5,87 63.5,87 63.5,95 60.5,95 64,99 67.5,95 "/>
</svg>
