<?xml version="1.0" encoding="UTF-8"?>
<svg width="16px" height="16px" viewBox="0 0 16 16" version="1.1" xmlns="http://www.w3.org/2000/svg" xmlns:xlink="http://www.w3.org/1999/xlink">
    <title>全屏备份</title>
    <defs>
        <filter id="filter-1">
            <feColorMatrix in="SourceGraphic" type="matrix" values="0 0 0 0 0.152941 0 0 0 0 0.580392 0 0 0 0 0.972549 0 0 0 1.000000 0"></feColorMatrix>
        </filter>
    </defs>
    <g id="页面-2" stroke="none" stroke-width="1" fill="none" fill-rule="evenodd">
        <g id="全屏备份" transform="translate(-733.000000, -264.000000)" filter="url(#filter-1)">
            <g transform="translate(733.000000, 264.000000)">
                <rect id="矩形" fill="#000000" fill-rule="nonzero" opacity="0" x="0" y="0" width="16" height="16"></rect>
                <path d="M12.4296875,3 L9.078125,3 C8.771875,3 8.521875,3.2453125 8.515625,3.5515625 C8.509375,3.86875 8.771875,4.125 9.0890625,4.125 L11.0953125,4.125 L9.078125,6.1421875 C8.859375,6.3609375 8.859375,6.71875 9.078125,6.9375 C9.296875,7.15625 9.6546875,7.15625 9.8734375,6.9375 L11.875,4.9359375 L11.875,6.9515625 C11.875,7.2578125 12.121875,7.5078125 12.4265625,7.5140625 C12.7421875,7.5203125 13,7.2578125 13,6.940625 L13,3.5703125 C13,3.25625 12.7453125,3 12.4296875,3 Z M6.909375,11.875 L4.903125,11.875 L6.921875,9.8578125 C7.140625,9.6390625 7.140625,9.28125 6.921875,9.0625 C6.703125,8.84375 6.3453125,8.84375 6.1265625,9.0625 L4.125,11.0640625 L4.125,9.046875 C4.125,8.740625 3.878125,8.490625 3.5734375,8.484375 C3.2578125,8.478125 3,8.740625 3,9.0578125 L3,12.4265625 C3,12.74375 3.25625,13 3.5734375,13 L6.921875,13 C7.228125,13 7.478125,12.7546875 7.484375,12.4484375 C7.4890625,12.13125 7.2265625,11.875 6.909375,11.875 L6.909375,11.875 Z M13.09375,2.125 C13.525,2.125 13.875,2.475 13.875,2.90625 L13.875,13.09375 C13.875,13.525 13.525,13.875 13.09375,13.875 L2.90625,13.875 C2.475,13.875 2.125,13.525 2.125,13.09375 L2.125,2.90625 C2.125,2.475 2.475,2.125 2.90625,2.125 L13.09375,2.125 M13.09375,1 L2.90625,1 C2.65,1 2.4,1.05 2.1640625,1.15 C1.9375,1.2453125 1.7328125,1.3828125 1.5578125,1.5578125 C1.3828125,1.7328125 1.2453125,1.9359375 1.15,2.1640625 C1.05,2.4 1,2.65 1,2.90625 L1,13.09375 C1,13.35 1.05,13.6 1.15,13.8359375 C1.2453125,14.0625 1.3828125,14.2671875 1.5578125,14.4421875 C1.7328125,14.6171875 1.9359375,14.7546875 2.1640625,14.85 C2.4,14.95 2.65,15 2.90625,15 L13.09375,15 C13.35,15 13.6,14.95 13.8359375,14.85 C14.0625,14.7546875 14.2671875,14.6171875 14.4421875,14.4421875 C14.6171875,14.2671875 14.7546875,14.0640625 14.85,13.8359375 C14.95,13.6 15,13.35 15,13.09375 L15,2.90625 C15,2.65 14.95,2.4 14.85,2.1640625 C14.7546875,1.9375 14.6171875,1.7328125 14.4421875,1.5578125 C14.2671875,1.3828125 14.0640625,1.2453125 13.8359375,1.15 C13.6,1.05 13.35,1 13.09375,1 Z" id="形状" fill="#000000" fill-rule="nonzero"></path>
            </g>
        </g>
    </g>
</svg>