<?xml version="1.0" encoding="UTF-8"?>
<svg width="48px" height="48px" viewBox="0 0 48 48" version="1.1" xmlns="http://www.w3.org/2000/svg" xmlns:xlink="http://www.w3.org/1999/xlink">
    <title>编组 3</title>
    <g id="页面-1" stroke="none" stroke-width="1" fill="none" fill-rule="evenodd">
        <g id="编组-3">
            <rect id="矩形" fill="#D8D8D8" opacity="0" x="0" y="0" width="48" height="48"></rect>
            <g id="编组" fill="#B3B3B3">
                <rect id="矩形" opacity="0.4" x="22.1679608" y="0" width="4" height="14" rx="2"></rect>
                <rect id="矩形" opacity="0.4" transform="translate(34.160310, 10.246711) rotate(36.000000) translate(-34.160310, -10.246711) " x="32.1603101" y="3.2467111" width="4" height="14" rx="2"></rect>
                <rect id="矩形" opacity="0.4" transform="translate(40.335922, 18.746711) rotate(72.000000) translate(-40.335922, -18.746711) " x="38.3359216" y="11.7467111" width="4" height="14" rx="2"></rect>
                <rect id="矩形" opacity="0.7" transform="translate(40.335922, 29.253289) rotate(108.000000) translate(-40.335922, -29.253289) " x="38.3359216" y="22.2532889" width="4" height="14" rx="2"></rect>
                <rect id="矩形" opacity="0.9" transform="translate(34.160310, 37.753289) rotate(144.000000) translate(-34.160310, -37.753289) " x="32.1603101" y="30.7532889" width="4" height="14" rx="2"></rect>
                <rect id="矩形" transform="translate(24.167961, 41.000000) rotate(180.000000) translate(-24.167961, -41.000000) " x="22.1679608" y="34" width="4" height="14" rx="2"></rect>
                <rect id="矩形" opacity="0.4" transform="translate(14.175611, 37.753289) rotate(216.000000) translate(-14.175611, -37.753289) " x="12.1756115" y="30.7532889" width="4" height="14" rx="2"></rect>
                <rect id="矩形" opacity="0.4" transform="translate(8.000000, 29.253289) rotate(252.000000) translate(-8.000000, -29.253289) " x="6" y="22.2532889" width="4" height="14" rx="2"></rect>
                <rect id="矩形" opacity="0.4" transform="translate(8.000000, 18.746711) rotate(288.000000) translate(-8.000000, -18.746711) " x="6" y="11.7467111" width="4" height="14" rx="2"></rect>
                <rect id="矩形" opacity="0.4" transform="translate(14.175611, 10.246711) rotate(324.000000) translate(-14.175611, -10.246711) " x="12.1756115" y="3.2467111" width="4" height="14" rx="2"></rect>
            </g>
        </g>
    </g>
</svg>