<svg id="图层_1" data-name="图层 1" xmlns="http://www.w3.org/2000/svg" xmlns:xlink="http://www.w3.org/1999/xlink" viewBox="0 0 376.06 449.21"><defs><style>.cls-1{fill:url(#linear-gradient);}.cls-2{fill:url(#linear-gradient-2);}.cls-3{fill:#0274fc;}.cls-4{fill:url(#linear-gradient-3);}.cls-5{fill:url(#linear-gradient-4);}.cls-6{fill:url(#linear-gradient-5);}</style><linearGradient id="linear-gradient" x1="168.88" y1="294.07" x2="227.14" y2="294.07" gradientUnits="userSpaceOnUse"><stop offset="0" stop-color="#01c1fc"/><stop offset="1" stop-color="#019cff"/></linearGradient><linearGradient id="linear-gradient-2" x1="61.79" y1="320.02" x2="198.72" y2="320.02" gradientUnits="userSpaceOnUse"><stop offset="0" stop-color="#1bcffe"/><stop offset="1" stop-color="#85e3fe"/></linearGradient><linearGradient id="linear-gradient-3" x1="0" y1="57.83" x2="198.51" y2="57.83" xlink:href="#linear-gradient-2"/><linearGradient id="linear-gradient-4" x1="45.26" y1="406.82" x2="80.8" y2="-26.06" xlink:href="#linear-gradient"/><linearGradient id="linear-gradient-5" x1="168.88" y1="190.22" x2="376.06" y2="190.22" xlink:href="#linear-gradient-2"/></defs><title>LOGO蓝色</title><polygon class="cls-1" points="227.14 347.23 168.88 306.21 168.88 240.91 227.14 278.65 227.14 347.23"/><polygon class="cls-2" points="61.84 377.55 61.79 305.24 140.43 262.5 198.72 300.14 61.84 377.55"/><polygon class="cls-3" points="122.27 389.76 61.13 449.07 61.13 71.38 122.27 107.14 122.27 389.76"/><polygon class="cls-4" points="139.6 115.65 0 33.98 61.79 0 198.51 81.38 139.6 115.65"/><polygon class="cls-5" points="139.26 115.51 61.13 69.77 61.13 69.74 0 33.98 0 411.67 61.13 449.21 61.13 140.33 139.26 185.95 139.26 115.51"/><polygon class="cls-3" points="198.51 150.18 139.26 185.95 139.26 115.65 198.51 81.38 198.51 150.18"/><polygon class="cls-3" points="170.38 204.2 170.38 134.91 279.66 202.21 278.52 267.63 170.38 204.2"/><polygon class="cls-3" points="61.13 449.21 61.79 377.6 198.72 300.26 198.72 372.49 61.13 449.21"/><polygon class="cls-6" points="228.12 101.78 170.38 134.91 256.33 187.85 168.88 240.96 227.04 278.65 376.06 188.39 228.12 101.78"/><polygon class="cls-3" points="227.14 347.23 227.14 278.65 376.06 188.39 376.06 253.91 227.14 347.23"/></svg>