<?xml version="1.0" standalone="no"?><!DOCTYPE svg PUBLIC "-//W3C//DTD SVG 1.1//EN" "http://www.w3.org/Graphics/SVG/1.1/DTD/svg11.dtd"><svg t="1595841174689" class="icon" viewBox="0 0 1024 1024" version="1.1" xmlns="http://www.w3.org/2000/svg" p-id="8605" xmlns:xlink="http://www.w3.org/1999/xlink" width="20" height="20"><defs><style type="text/css"></style></defs><path d="M512 1024a512.597333 512.597333 0 0 1-512-512 512.597333 512.597333 0 0 1 512-512 512.512 512.512 0 0 1 512 512 512.512 512.512 0 0 1-512 512z m-3.242667-297.472h-1.194666a42.666667 42.666667 0 0 0-34.133334 13.909333 44.373333 44.373333 0 0 0-14.165333 34.133334 49.493333 49.493333 0 0 0 14.165333 35.157333 44.544 44.544 0 0 0 32.170667 13.824h1.536a48.298667 48.298667 0 0 0 34.133333-13.824 48.981333 48.981333 0 0 0 13.397334-35.157333 47.530667 47.530667 0 0 0-13.397334-34.133334 44.885333 44.885333 0 0 0-32.426666-13.909333z m6.656-440.490667a103.082667 103.082667 0 0 1 77.738667 28.501334 105.642667 105.642667 0 0 1 25.6 76.032 109.312 109.312 0 0 1-22.784 64.682666c-8.533333 10.325333-17.578667 19.882667-26.624 29.354667a315.221333 315.221333 0 0 0-79.274667 94.805333 158.549333 158.549333 0 0 0-14.933333 71.082667v18.688h63.573333v-18.688a120.405333 120.405333 0 0 1 14.933334-60.501333 151.808 151.808 0 0 1 36.010666-44.117334 808.618667 808.618667 0 0 0 64.341334-62.890666 163.072 163.072 0 0 0 29.098666-95.744 151.552 151.552 0 0 0-43.861333-115.2 165.802667 165.802667 0 0 0-120.917333-43.349334 169.898667 169.898667 0 0 0-131.925334 53.845334 201.045333 201.045333 0 0 0-46.250666 137.386666h62.805333a159.658667 159.658667 0 0 1 25.173333-93.866666 100.864 100.864 0 0 1 87.381334-40.021334z" fill="#EFBF20" p-id="8606" data-spm-anchor-id="a313x.7781069.0.i1" class="selected"></path></svg>
