<?xml version="1.0" standalone="no"?><!DOCTYPE svg PUBLIC "-//W3C//DTD SVG 1.1//EN" "http://www.w3.org/Graphics/SVG/1.1/DTD/svg11.dtd"><svg t="1648523884110" class="icon" viewBox="0 0 1024 1024" version="1.1" xmlns="http://www.w3.org/2000/svg" p-id="5428" xmlns:xlink="http://www.w3.org/1999/xlink" width="200" height="200"><defs><style type="text/css">@font-face { font-family: feedback-iconfont; src: url("//at.alicdn.com/t/font_1031158_u69w8yhxdu.woff2?t=1630033759944") format("woff2"), url("//at.alicdn.com/t/font_1031158_u69w8yhxdu.woff?t=1630033759944") format("woff"), url("//at.alicdn.com/t/font_1031158_u69w8yhxdu.ttf?t=1630033759944") format("truetype"); }
</style></defs><path d="M0 0h1024v1024H0z" fill="#D8D8D8" fill-opacity="0" p-id="5429"></path><path d="M117.333333 789.333333a389.333333 117.333333 0 1 0 778.666667 0 389.333333 117.333333 0 1 0-778.666667 0Z" fill="#D4EAFE" p-id="5430"></path><path d="M759.466667 608H253.866667c-11.733333 0-22.4-4.266667-29.866667-12.8-8.533333-8.533333-12.8-19.2-12.8-29.866667 0-5.333333 1.066667-10.666667 3.2-14.933333l56.533333-149.333333c3.2-8.533333 8.533333-14.933333 16-20.266667s16-7.466667 24.533334-7.466667H704c8.533333 0 17.066667 2.133333 24.533333 7.466667s12.8 11.733333 16 20.266667l56.533334 149.333333c4.266667 10.666667 3.2 22.4-1.066667 33.066667s-12.8 18.133333-23.466667 22.4c-6.4 1.066667-11.733333 2.133333-17.066666 2.133333z" fill="#88C3FA" p-id="5431"></path><path d="M309.333333 394.666667c-4.266667 0-8.533333 1.066667-11.733333 4.266666-3.2 2.133333-6.4 6.4-7.466667 9.6l-56.533333 149.333334c-1.066667 2.133333-1.066667 5.333333-1.066667 7.466666 0 5.333333 2.133333 10.666667 6.4 14.933334 4.266667 4.266667 9.6 6.4 14.933334 6.4h505.6c2.133333 0 5.333333 0 7.466666-1.066667 5.333333-2.133333 9.6-6.4 11.733334-10.666667 2.133333-5.333333 2.133333-10.666667 0-16l-56.533334-149.333333c-1.066667-4.266667-4.266667-7.466667-7.466666-9.6-2.133333-4.266667-6.4-5.333333-10.666667-5.333333H309.333333z" fill="#FAFDFF" p-id="5432"></path><path d="M362.666667 234.666667h288c23.466667 0 42.666667 19.2 42.666666 42.666666v373.333334c0 23.466667-19.2 42.666667-42.666666 42.666666H362.666667c-23.466667 0-42.666667-19.2-42.666667-42.666666V277.333333c0-23.466667 19.2-42.666667 42.666667-42.666666z" fill="#E9F4FE" p-id="5433"></path><path d="M394.666667 309.333333h224c6.4 0 10.666667 4.266667 10.666666 10.666667v10.666667c0 6.4-4.266667 10.666667-10.666666 10.666666H394.666667c-6.4 0-10.666667-4.266667-10.666667-10.666666v-10.666667c0-6.4 4.266667-10.666667 10.666667-10.666667zM394.666667 373.333333h224c6.4 0 10.666667 4.266667 10.666666 10.666667v10.666667c0 6.4-4.266667 10.666667-10.666666 10.666666H394.666667c-6.4 0-10.666667-4.266667-10.666667-10.666666v-10.666667c0-6.4 4.266667-10.666667 10.666667-10.666667zM394.666667 437.333333h117.333333c6.4 0 10.666667 4.266667 10.666667 10.666667v10.666667c0 6.4-4.266667 10.666667-10.666667 10.666666H394.666667c-6.4 0-10.666667-4.266667-10.666667-10.666666v-10.666667c0-6.4 4.266667-10.666667 10.666667-10.666667zM276.266667 206.933333l-44.8-44.8c-4.266667-4.266667-4.266667-10.666667 0-14.933333 4.266667-4.266667 10.666667-4.266667 14.933333 0l44.8 44.8c4.266667 4.266667 4.266667 10.666667 0 14.933333-3.2 4.266667-10.666667 4.266667-14.933333 0zM341.333333 181.333333v-64c0-6.4 4.266667-10.666667 10.666667-10.666666s10.666667 4.266667 10.666667 10.666666v64c0 6.4-4.266667 10.666667-10.666667 10.666667s-10.666667-4.266667-10.666667-10.666667zM266.666667 277.333333h-64c-6.4 0-10.666667-4.266667-10.666667-10.666666s4.266667-10.666667 10.666667-10.666667h64c6.4 0 10.666667 4.266667 10.666666 10.666667s-4.266667 10.666667-10.666666 10.666666z" fill="#88C3FA" p-id="5434"></path><path d="M405.333333 544v5.333333c0 27.733333 11.733333 53.333333 29.866667 71.466667s43.733333 29.866667 71.466667 29.866667 53.333333-11.733333 71.466666-29.866667 29.866667-43.733333 29.866667-71.466667V544h160c8.533333 0 17.066667 3.2 22.4 9.6 5.333333 5.333333 9.6 13.866667 9.6 22.4v192c0 8.533333-3.2 17.066667-9.6 22.4s-13.866667 9.6-22.4 9.6H245.333333c-8.533333 0-17.066667-3.2-22.4-9.6-6.4-5.333333-9.6-13.866667-9.6-22.4V576c0-8.533333 3.2-17.066667 9.6-22.4 5.333333-5.333333 13.866667-9.6 22.4-9.6h160z" fill="#FAFDFF" p-id="5435"></path><path d="M768 810.666667H245.333333c-11.733333 0-22.4-4.266667-29.866666-12.8S202.666667 779.733333 202.666667 768V576c0-11.733333 4.266667-22.4 12.8-29.866667C224 537.6 234.666667 533.333333 245.333333 533.333333h171.733334l-1.066667 11.733334v4.266666c0 24.533333 9.6 46.933333 26.666667 64 17.066667 17.066667 39.466667 26.666667 64 26.666667s46.933333-9.6 64-26.666667c17.066667-17.066667 26.666667-39.466667 26.666666-64v-4.266666l-1.066666-11.733334H768c11.733333 0 22.4 4.266667 29.866667 12.8S810.666667 564.266667 810.666667 576v192c0 11.733333-4.266667 22.4-12.8 29.866667S779.733333 810.666667 768 810.666667zM394.666667 554.666667H245.333333c-5.333333 0-10.666667 2.133333-14.933333 6.4-4.266667 4.266667-6.4 9.6-6.4 14.933333v192c0 5.333333 2.133333 10.666667 6.4 14.933333s9.6 6.4 14.933333 6.4h522.666667c5.333333 0 10.666667-2.133333 14.933333-6.4s6.4-9.6 6.4-14.933333V576c0-5.333333-2.133333-10.666667-6.4-14.933333s-9.6-6.4-14.933333-6.4H618.666667c-1.066667 27.733333-12.8 54.4-33.066667 73.6-21.333333 21.333333-49.066667 33.066667-78.933333 33.066666-29.866667 0-57.6-11.733333-78.933334-33.066666-20.266667-19.2-32-45.866667-33.066666-73.6z" fill="#88C3FA" p-id="5436"></path><path d="M891.733333 305.066667l-36.266666-36.266667c-1.066667-1.066667-2.133333-1.066667-2.133334-2.133333 7.466667-10.666667 10.666667-23.466667 10.666667-37.333334 0-38.4-30.933333-69.333333-69.333333-69.333333S725.333333 190.933333 725.333333 229.333333s30.933333 69.333333 69.333334 69.333334c13.866667 0 26.666667-4.266667 37.333333-10.666667 0 1.066667 1.066667 2.133333 1.066667 2.133333l36.266666 36.266667c6.4 6.4 14.933333 6.4 21.333334 0 6.4-6.4 6.4-16 1.066666-21.333333zM794.666667 277.333333C768 277.333333 746.666667 256 746.666667 229.333333s21.333333-48 48-48 48 21.333333 48 48-21.333333 48-48 48z" fill="#52A9F9" p-id="5437"></path></svg>