<?xml version="1.0" standalone="no"?><!DOCTYPE svg PUBLIC "-//W3C//DTD SVG 1.1//EN" "http://www.w3.org/Graphics/SVG/1.1/DTD/svg11.dtd"><svg t="1595848851257" class="icon" viewBox="0 0 1024 1024" version="1.1" xmlns="http://www.w3.org/2000/svg" p-id="8321" xmlns:xlink="http://www.w3.org/1999/xlink" width="14" height="14"><defs><style type="text/css"></style></defs><path d="M0 0m146.285714 0l731.428572 0q146.285714 0 146.285714 146.285714l0 731.428572q0 146.285714-146.285714 146.285714l-731.428572 0q-146.285714 0-146.285714-146.285714l0-731.428572q0-146.285714 146.285714-146.285714Z" fill="#B5B5B5" p-id="8322"></path><path d="M438.857143 731.428571v-146.285714h-146.285714a73.142857 73.142857 0 0 1-73.142858-73.142857 73.142857 73.142857 0 0 1 73.142858-73.142857h146.285714v-146.285714a73.142857 73.142857 0 0 1 73.142857-73.142858 73.142857 73.142857 0 0 1 73.142857 73.142858v146.285714h146.285714a73.142857 73.142857 0 0 1 73.142858 73.142857 73.142857 73.142857 0 0 1-73.142858 73.142857h-146.285714v146.285714a73.142857 73.142857 0 0 1-73.142857 73.142858 73.142857 73.142857 0 0 1-73.142857-73.142858z" fill="#FFFFFF" p-id="8323"></path></svg>
