<?xml version="1.0" standalone="no"?><!DOCTYPE svg PUBLIC "-//W3C//DTD SVG 1.1//EN" "http://www.w3.org/Graphics/SVG/1.1/DTD/svg11.dtd"><svg t="1600940581203" class="icon" viewBox="0 0 1024 1024" version="1.1" xmlns="http://www.w3.org/2000/svg" p-id="10372" xmlns:xlink="http://www.w3.org/1999/xlink" width="18" height="18"><defs><style type="text/css"></style></defs><path d="M736 416h-448a64 64 0 0 1-64-64v-192a64 64 0 0 1 64-64h448a64 64 0 0 1 64 64v192a64 64 0 0 1-64 64zM320 160a32 32 0 0 0-32 32v128a32 32 0 0 0 32 32h384a32 32 0 0 0 32-32V192a32 32 0 0 0-32-32z" fill="#4C5A6C" p-id="10373"></path><path d="M288 928h-192v-192h192v192z m-128-128v64h64v-64z" fill="#4C5A6C" p-id="10374"></path><path d="M608 928h-192v-192h192v192z m-128-128v64h64v-64z" fill="#4C5A6C" p-id="10375"></path><path d="M928 928h-192v-192h192v192z m-128-128v64h64v-64z" fill="#4C5A6C" p-id="10376"></path><path d="M832 768V576v192zM512 576V384v192z" fill="#FFFFFF" p-id="10377"></path><path d="M864 800h-64v-192h-256v192h-64v-192h-256v192h-64v-256h320v-192h64v192h320v256z" fill="#4C5A6C" p-id="10378"></path><path d="M352 224h64v64h-64z" fill="#4C5A6C" p-id="10379"></path></svg>