<?xml version="1.0" standalone="no"?><!DOCTYPE svg PUBLIC "-//W3C//DTD SVG 1.1//EN" "http://www.w3.org/Graphics/SVG/1.1/DTD/svg11.dtd"><svg t="1600940574059" class="icon" viewBox="0 0 1024 1024" version="1.1" xmlns="http://www.w3.org/2000/svg" p-id="10122" xmlns:xlink="http://www.w3.org/1999/xlink" width="18" height="18"><defs><style type="text/css"></style></defs><path d="M960 995.52H64v-32a444.096 444.096 0 0 1 235.776-392.832 48.832 48.832 0 0 1 71.36 36.8 340.288 340.288 0 0 0 70.4 178.368l4.416-47.424-48.896-48.896 97.856-97.856a264.064 264.064 0 1 1 34.24 0l97.92 97.92-48.896 48.896 4.48 47.744a335.744 335.744 0 0 0 70.016-178.496 48.832 48.832 0 0 1 34.176-40.512 47.744 47.744 0 0 1 23.744-1.216l3.456-0.768 10.304 5.504a444.032 444.032 0 0 1 235.968 392.896z m-830.464-64h764.672a379.904 379.904 0 0 0-181.632-293.312 307.584 307.584 0 0 1-143.808 236.8l-41.024 18.624-16.192-172.096-16.192 172.032-40.96-18.56a306.752 306.752 0 0 1-143.808-236.8 379.776 379.776 0 0 0-181.056 293.056z m358.08-241.856l24.128 24.128 24.128-24.128-24.128-24.128z m205.952-62.144h0.448z m-182.016-499.2a199.808 199.808 0 1 0 199.744 199.808 200 200 0 0 0-199.744-199.872z" fill="#4C5A6C" p-id="10123"></path></svg>