<?xml version="1.0" encoding="utf-8"?>
<!-- Generator: Adobe Illustrator 25.3.1, SVG Export Plug-In . SVG Version: 6.00 Build 0)  -->
<svg version="1.1" id="图层_1" xmlns="http://www.w3.org/2000/svg" xmlns:xlink="http://www.w3.org/1999/xlink" x="0px" y="0px"
	 viewBox="0 0 128 128" style="enable-background:new 0 0 128 128;" xml:space="preserve">
<style type="text/css">
	.st0{opacity:0;fill:none;}
	.st1{fill:#348FE0;}
	.st2{fill:#666666;}
	.st3{fill:#EF9A00;}
	.st4{fill:#67C23A;}
	.st5{fill:none;}
	.st6{fill:#969696;}
	.st7{fill:#FFFFFF;}
	.st8{fill:#46B790;}
	.st9{fill:#F14E63;}
	.st10{fill:#FFAB17;}
	.st11{opacity:0;}
	.st12{fill:#62C13B;}
	.st13{fill:#D3E9F8;}
	.st14{fill:#BEBB5F;}
	.st15{fill:#F9E700;}
	.st16{fill:#333333;}
	.st17{fill:#D1D1D1;}
	.st18{fill:#B9B9B9;}
	.st19{fill:#4A4E5B;}
	.st20{opacity:0.4;}
	.st21{clip-path:url(#SVGID_2_);}
	.st22{clip-path:url(#SVGID_4_);}
	.st23{opacity:0;clip-path:url(#SVGID_6_);}
	.st24{clip-path:url(#SVGID_4_);fill:#959595;}
	.st25{fill:#959595;}
	.st26{fill:#EAF3FC;}
	.st27{fill:#85BCEC;}
	.st28{fill:#F0F8FF;}
	.st29{fill:#65B4EF;}
	.st30{fill:#F0F8FF;stroke:#348FE0;stroke-width:2;stroke-linecap:round;stroke-miterlimit:10;}
	.st31{fill:#C5DFF6;}
	.st32{fill:#F4F9F7;}
	.st33{fill:#41C297;}
	.st34{fill:#00CFC9;}
	.st35{fill:url(#SVGID_11_);}
	.st36{fill:#00E1DB;}
	.st37{fill-rule:evenodd;clip-rule:evenodd;fill:#D1D1D1;}
	.st38{fill:#EBF4FC;}
	.st39{fill:#F3F1FA;}
	.st40{fill:#B1A5E3;}
	.st41{fill:#FEF1F1;}
	.st42{fill:#EE6867;}
	.st43{fill:#EEF6FF;}
	.st44{fill:#51A4EE;}
	.st45{fill:#97CEFF;}
	.st46{fill:#C5D0DA;}
	.st47{fill:#C0DDF7;}
	.st48{fill:#AAEBD6;}
	.st49{clip-path:url(#SVGID_13_);fill:#348FE0;}
	.st50{clip-path:url(#SVGID_15_);fill:#F44E63;}
	.st51{fill-rule:evenodd;clip-rule:evenodd;fill:none;}
	.st52{fill:#C9E1F7;}
	.st53{fill-rule:evenodd;clip-rule:evenodd;fill:#6AA7DE;}
	.st54{fill-rule:evenodd;clip-rule:evenodd;fill:#FFFFFF;}
	.st55{fill:#F0F6FE;fill-opacity:0.3617;stroke:#C5D0DA;stroke-width:0.2;}
	.st56{fill:#97CEFF;stroke:#97CEFF;stroke-width:0.2;}
	.st57{filter:url(#Adobe_OpacityMaskFilter);}
	.st58{opacity:0.4309;mask:url(#mask-2_2_);}
	.st59{fill:none;stroke:#348FE0;stroke-width:0.5;stroke-dasharray:2;}
	.st60{fill-rule:evenodd;clip-rule:evenodd;fill:#C9E1F7;}
	.st61{fill-rule:evenodd;clip-rule:evenodd;fill:#41C297;}
	.st62{fill:#6AA7DE;}
	.st63{fill:#EF9A00;fill-opacity:0.773;}
	.st64{fill-rule:evenodd;clip-rule:evenodd;fill:#F0F8FF;}
	.st65{fill-rule:evenodd;clip-rule:evenodd;fill:#D9EAF9;}
	.st66{fill:#D9EAF9;}
	.st67{fill-rule:evenodd;clip-rule:evenodd;fill:#64A9E7;}
	.st68{fill-rule:evenodd;clip-rule:evenodd;fill:#E6F1FB;}
	.st69{opacity:0.7643;fill:#348FE0;enable-background:new    ;}
	.st70{fill-rule:evenodd;clip-rule:evenodd;fill:#D8D8D8;fill-opacity:0;}
	.st71{fill:#F3B13A;}
	.st72{fill:none;stroke:#F3B13A;}
	.st73{fill-rule:evenodd;clip-rule:evenodd;fill:#A8A8A8;fill-opacity:0;}
	.st74{fill:#727272;}
	.st75{fill:url(#形状结合_3_);}
	.st76{fill:url(#形状结合_4_);}
	.st77{fill:url(#形状结合_5_);}
	.st78{fill:#FFB757;}
	.st79{fill:url(#路径_2_);}
	.st80{fill:url(#形状_4_);}
	.st81{fill:url(#SVGID_16_);}
	.st82{fill:url(#形状_6_);}
	.st83{fill:url(#形状_7_);}
	.st84{fill-rule:evenodd;clip-rule:evenodd;fill:#F8FCFF;}
	.st85{fill-rule:evenodd;clip-rule:evenodd;fill:#FAFDFF;}
	.st86{fill:#EBF3FA;}
	.st87{fill:#E1E9F0;}
	.st88{fill:#CED6DD;}
	.st89{fill-rule:evenodd;clip-rule:evenodd;fill:#CED6DD;}
	.st90{fill:#F2F5F9;}
	.st91{fill:#FAFDFF;}
	.st92{fill:#A8A8A8;}
	.st93{fill:#979797;}
	.st94{fill-rule:evenodd;clip-rule:evenodd;fill:#969696;}
	.st95{fill:none;stroke:#969696;stroke-miterlimit:10;}
	.st96{fill:#878787;}
	.st97{fill:#9DD0FE;}
	.st98{fill:#75BDFC;}
</style>
<g>
	<rect x="0" class="st5" width="128" height="128"/>
</g>
<g>
	<path class="st17" d="M103,30H25v26h18V42h1v14h18V42h1v14h18V42h1v14h21V30z M43,57H25v13h18V57z M43,71H25v13h18V71z M44,98h59
		V57H44V98z M43,85H25v13h18V85z M104,29v70H24V29H104z"/>
	<rect x="24" y="29" class="st98" width="80" height="14"/>
	<g>
		<path class="st98" d="M59.103,75.421l1.967,0.393c0.421-3.56,2.711-6.547,5.862-7.952l-0.896-1.791
			C62.343,67.752,59.652,71.249,59.103,75.421z"/>
		<path class="st98" d="M90.272,93.492l-6.664-6.664C85.726,84.114,87,80.709,87,77c0-8.837-7.163-16-16-16s-16,7.163-16,16
			c0,8.836,7.163,16,16,16c4.406,0,8.395-1.782,11.288-4.663l6.569,6.569L90.272,93.492z M71,91c-7.732,0-14-6.268-14-14
			c0-7.732,6.268-14,14-14s14,6.268,14,14C85,84.732,78.732,91,71,91z"/>
	</g>
</g>
</svg>
