<?xml version="1.0" standalone="no"?>
<!DOCTYPE svg PUBLIC "-//W3C//DTD SVG 1.1//EN" "http://www.w3.org/Graphics/SVG/1.1/DTD/svg11.dtd" >
<!--
2013-9-30: Created.
-->
<svg>
<metadata>
Created by iconfont
</metadata>
<defs>

<font id="jxdGodAxe" horiz-adv-x="1024" >
  <font-face
    font-family="jxdGodAxe"
    font-weight="500"
    font-stretch="normal"
    units-per-em="1024"
    ascent="896"
    descent="-128"
  />
    <missing-glyph />
    
    <glyph glyph-name="topics-picker-move" unicode="&#59511;" d="M784.018286 10.386286000000041H174.665143A101.668571 101.668571 0 0 0 73.142857 111.98171400000001V721.334857A101.668571 101.668571 0 0 0 174.665143 823.003429h609.353143a101.668571 101.668571 0 0 0 101.522285-101.522286v-609.353143a101.668571 101.668571 0 0 0-101.522285-101.741714zM174.665143 755.126857a33.865143 33.865143 0 0 1-33.865143-33.865143v-609.353143a33.865143 33.865143 0 0 1 33.865143-33.865142h609.353143a33.865143 33.865143 0 0 1 33.865143 33.865142V721.334857a33.865143 33.865143 0 0 1-33.865143 33.865143zM217.819429 180.15085699999997l421.668571 421.668572-211.382857-3.803429a9.654857 9.654857 0 0 0-10.020572 10.020571v43.227429a9.654857 9.654857 0 0 0 10.093715 10.020571l265.947428 4.900572h1.828572l40.96 0.950857a8.777143 8.777143 0 0 0 7.460571-3.584 12.434286 12.434286 0 0 0 3.584-7.314286l-1.024-42.422857v-0.585143l-4.681143-266.020571a9.654857 9.654857 0 0 0-10.020571-10.020572l-43.154286-0.146285a9.654857 9.654857 0 0 0-10.020571 10.020571l3.657143 209.481143-420.571429-420.644571a10.166857 10.166857 0 0 0-14.262857 0l-30.72 30.72a10.386286 10.386286 0 0 0 0.658286 13.531428z"  horiz-adv-x="1024" />

    
    <glyph glyph-name="oscar" unicode="&#58975;" d="M407.893978 447.149455a181.82487 181.82487 0 0 0 46.250273 128.999256 159.034073 159.034073 0 0 0 122.201024 49.760837 150.452697 150.452697 0 0 0 116.350085-48.08914 175.862486 175.862486 0 0 0 44.132792-123.705551 179.874557 179.874557 0 0 0-45.860211-127.884792 156.582251 156.582251 0 0 0-120.027818-49.036434 155.244894 155.244894 0 0 0-117.743166 47.531907 170.345887 170.345887 0 0 0-45.302979 122.423917z m75.504964 3.900625A129.333596 129.333596 0 0 1 507.081311 370.641472a77.288108 77.288108 0 0 1 65.084722-31.260727 78.848358 78.848358 0 0 1 65.753401 29.92337 126.714605 126.714605 0 0 1 23.5152 80.408608 136.131829 136.131829 0 0 1-22.846521 83.250492 75.727857 75.727857 0 0 1-64.638936 30.647772 79.517036 79.517036 0 0 1-66.477803-31.372174 128.832087 128.832087 0 0 1-24.016708-81.13301z m294.998732-83.139046a140.979749 140.979749 0 0 1 92.500547-33.712548 78.625465 78.625465 0 0 1 44.188515 10.141626 30.424879 30.424879 0 0 1 14.822376 26.022744 37.000219 37.000219 0 0 1-11.757599 25.911298 220.719678 220.719678 0 0 1-62.019945 33.099593q-79.015527 33.433933-79.015528 97.515637a85.033635 85.033635 0 0 0 35.830031 73.053143 157.752439 157.752439 0 0 0 94.729476 26.022744 233.20168 233.20168 0 0 0 82.916153-12.816341v-67.480821a137.914972 137.914972 0 0 1-79.461313 23.069414 80.96584 80.96584 0 0 1-42.461095-9.695841 29.366137 29.366137 0 0 1-15.881118-26.022744 33.433933 33.433933 0 0 1 11.144645-24.072431 203.334034 203.334034 0 0 1 53.772908-29.700477 175.918209 175.918209 0 0 0 69.096794-45.470148 89.491493 89.491493 0 0 0 18.834449-57.004855 86.370993 86.370993 0 0 0-34.381228-74.000438 161.93168 161.93168 0 0 0-97.961422-25.576958 210.02082 210.02082 0 0 0-94.729476 18.723002z m524.132617-72.440187a218.602196 218.602196 0 0 0-96.011109-18.054324 161.597341 161.597341 0 0 0-120.91939 45.581595 166.110922 166.110922 0 0 0-44.578577 121.588069 178.592923 178.592923 0 0 0 50.150899 130.726676 172.741985 172.741985 0 0 0 128.943533 50.819578 231.362814 231.362814 0 0 0 82.69326-12.816341v-69.431134a150.452697 150.452697 0 0 1-77.511 20.004637 103.199405 103.199405 0 0 1-79.015527-31.539343 115.681407 115.681407 0 0 1-29.589031-82.470367 112.728076 112.728076 0 0 1 27.861611-79.907099 98.574378 98.574378 0 0 1 75.95075-30.257709 158.866903 158.866903 0 0 1 82.024581 21.341993zM1654.979664 283.044569h-78.625465l-25.242619 77.288107h-122.591086L1403.723661 283.044569h-78.01251l123.426935 337.18121h84.476403z m-120.863666 132.788435l-38.281853 117.018765a129.779382 129.779382 0 0 0-5.237983 29.366137h-1.950312a124.429953 124.429953 0 0 0-5.850939-28.530289l-38.504745-117.743166zM1975.555355 283.044569h-82.69326l-52.881337 87.70835a131.785418 131.785418 0 0 1-26.747146 35.049906 36.387263 36.387263 0 0 1-22.289288 7.856974h-21.732057V283.044569h-71.827232V620.225779h118.188952q120.362157 0 120.362158-91.441806a90.160172 90.160172 0 0 0-20.116083-59.010891 107.044308 107.044308 0 0 0-55.388882-34.60412v-0.891571a119.972095 119.972095 0 0 0 51.599703-51.37681z m-206.175918 282.51673v-97.069851h35.272799a56.22473 56.22473 0 0 1 40.622228 14.710931 48.702095 48.702095 0 0 1 15.323886 36.665879q0 45.693041-54.608757 45.693041z"  horiz-adv-x="2340" />

    
    <glyph glyph-name="SQLServer" unicode="&#58976;" d="M354.61822463 426.64372a125.300347 125.300347 0 0 1 82.212875-29.963127 69.880945 69.880945 0 0 1 39.273983 9.013701 27.041103 27.041103 0 0 1 13.17387 23.128562 32.88515 32.88515 0 0 1-10.44995 23.029511 196.171808 196.171808 0 0 1-55.122247 29.418342Q353.52865563 511.035732 353.52865563 567.891384a75.576415 75.576415 0 0 0 31.845108 64.928361 140.207622 140.207622 0 0 0 84.193909 23.128562 207.265594 207.265594 0 0 0 73.694434-11.39094v-59.975779A122.576426 122.576426 0 0 1 472.39064563 605.035755a71.961029 71.961029 0 0 1-37.738682-8.617494 26.100112 26.100112 0 0 1-14.114861-23.128562 29.715497 29.715497 0 0 1 9.905166-21.395158 180.71975 180.71975 0 0 1 47.792424-26.397267 156.353042 156.353042 0 0 0 61.412028-40.413076A79.538481 79.538481 0 0 0 556.58455463 434.419275a76.765035 76.765035 0 0 0-30.75554-65.770301 143.922059 143.922059 0 0 0-86.868304-22.633304 186.662849 186.662849 0 0 0-84.342486 16.591153z m213.505848 70.425728a161.60278 161.60278 0 0 0 41.106438 114.602768 141.346716 141.346716 0 0 0 108.610143 44.226566 133.719738 133.719738 0 0 0 103.40993-42.740791 156.303516 156.303516 0 0 0 39.174931-109.897814 160.017953 160.017953 0 0 0-40.809283-113.909406q-2.525817-2.723921-4.952583-5.200212l76.121199-73.347753h-94.594333L756.37174763 351.21588199999997a166.208682 166.208682 0 0 0-43.3351-5.398315 137.978959 137.978959 0 0 0-104.697602 42.443635 151.400459 151.400459 0 0 0-40.214973 108.808246z m67.107498 3.466808a114.949449 114.949449 0 0 1 21.098003-71.465771 68.692325 68.692325 0 0 1 57.846168-27.78399 70.079048 70.079048 0 0 1 58.440478 26.59537 112.621735 112.621735 0 0 1 20.8999 71.465771 120.9916 120.9916 0 0 1-20.30559 73.991589 67.305601 67.305601 0 0 1-57.251858 27.18968 70.673358 70.673358 0 0 1-59.084314-27.883042 114.503716 114.503716 0 0 1-21.642787-72.060081zM1067.14632463 351.21588199999997h-175.816693V650.896673h63.838794v-247.629145h112.027424z m7.280296 75.427838a125.300347 125.300347 0 0 1 82.212876-29.963127 69.880945 69.880945 0 0 1 39.273983 9.013701 27.041103 27.041103 0 0 1 13.17387 23.128562 32.88515 32.88515 0 0 1-10.44995 23.029511 196.171808 196.171808 0 0 1-55.122247 29.418342q-70.227625 29.715497-70.227626 86.6702a75.576415 75.576415 0 0 0 31.845108 64.928362 140.207622 140.207622 0 0 0 84.19391 23.128562 207.265594 207.265594 0 0 0 73.694433-11.39094v-59.975779a122.576426 122.576426 0 0 1-70.623832 20.503693 71.961029 71.961029 0 0 1-37.738682-8.617494 26.100112 26.100112 0 0 1-14.114861-23.128562 29.715497 29.715497 0 0 1 9.905166-21.395158 180.71975 180.71975 0 0 1 47.792425-26.397267 156.353042 156.353042 0 0 0 61.412028-40.413077 79.538481 79.538481 0 0 0 16.541626-50.763974 76.765035 76.765035 0 0 0-30.557436-65.770301 143.922059 143.922059 0 0 0-86.868304-22.633304 186.662849 186.662849 0 0 0-84.193909 16.640679z m416.016963 13.916758h-140.801931q3.268705-49.525829 59.975778-49.525829a113.017942 113.017942 0 0 1 62.501596 17.433092v-45.860918a155.560629 155.560629 0 0 0-76.616457-16.442575 106.331955 106.331955 0 0 0-79.241326 28.824032 109.600659 109.600659 0 0 0-28.526878 80.231843 116.48475 116.48475 0 0 0 30.16123 83.302444 99.844071 99.844071 0 0 0 75.675467 31.894634 92.316145 92.316145 0 0 0 71.11909-27.585887 106.876739 106.876739 0 0 0 25.654379-75.724992z m-58.242375 39.075879q0 47.990528-38.877775 47.990528a38.035837 38.035837 0 0 1-28.427826-13.173871 62.105389 62.105389 0 0 1-15.452059-34.66808z m215.437356 28.824032a54.478412 54.478412 0 0 1-27.684938 6.586935 40.314025 40.314025 0 0 1-33.776616-16.244472 71.762926 71.762926 0 0 1-12.480509-44.573246V351.21588199999997h-62.402544V565.167463h62.501596v-40.264499h0.792413a56.954703 56.954703 0 0 0 56.310868 43.92941 43.978936 43.978936 0 0 0 16.838782-2.525817zM1859.11385363 565.167463L1778.98106263 351.21588199999997h-70.623832l-76.418354 213.951581h66.958921l39.273982-134.710254a169.378335 169.378335 0 0 0 7.181245-36.946269h0.990517a203.055898 203.055898 0 0 0 7.527926 35.807174l40.066395 135.799823z m199.143358-124.805089h-140.851457q3.268705-49.525829 59.975779-49.525829a113.017942 113.017942 0 0 1 62.501596 17.433092v-45.860917a155.560629 155.560629 0 0 0-76.765035-16.39305 106.331955 106.331955 0 0 0-79.241326 28.824033 109.600659 109.600659 0 0 0-28.3783 80.38042 116.48475 116.48475 0 0 0 30.16123 83.302444 99.844071 99.844071 0 0 0 75.824044 31.993686 92.316145 92.316145 0 0 0 71.11909-27.585887 106.876739 106.876739 0 0 0 25.654379-75.724992z m-58.242375 39.075879q0 47.990528-38.877775 47.990528a38.035837 38.035837 0 0 1-28.427826-13.17387 62.105389 62.105389 0 0 1-15.501584-34.66808zM2215.69982163 508.509915a54.478412 54.478412 0 0 1-27.684938 6.586935 40.314025 40.314025 0 0 1-33.776615-16.244472 71.762926 71.762926 0 0 1-12.480509-44.573246V351.21588199999997h-62.6997V565.167463H2141.41107863v-40.264499h0.792413a56.954703 56.954703 0 0 0 56.310868 43.92941 43.978936 43.978936 0 0 0 16.838781-2.525817z"  horiz-adv-x="2560" />

    
    <glyph glyph-name="jiantou" unicode="&#59509;" d="M170.666667 401.066667h443.733333v-34.133334H170.666667zM784.520533 384L648.533333 461.7216v-155.4432L784.520533 384M853.333333 384l-238.933333-136.533333v273.066666l238.933333-136.533333z"  horiz-adv-x="1024" />

    
    <glyph glyph-name="zhushi" unicode="&#59510;" d="M398.506667 162.133333l-72.021334 86.596267-5.12 6.144H221.866667a17.066667 17.066667 0 0 0-17.066667 17.066667v307.2a17.066667 17.066667 0 0 0 17.066667 17.066666h580.266666c9.4208 0 17.066667-7.645867 17.066667-17.066666v-307.2a17.066667 17.066667 0 0 0-17.066667-17.066667h-326.485333l-5.12-6.144-72.021333-86.596267zM398.506667 188.791467l58.914133 70.8608 10.24 12.288H802.133333v307.2h-580.266666v-307.2H329.386667l10.24-12.288 58.88-70.8608m0-43.7248a17.032533 17.032533 0 0 0-13.1072 6.144L313.344 237.806933H221.866667a34.133333 34.133333 0 0 0-34.133334 34.133334v307.2a34.133333 34.133333 0 0 0 34.133334 34.133333h580.266666c18.8416 0 34.133333-15.2576 34.133334-34.133333v-307.2a34.133333 34.133333 0 0 0-34.133334-34.133334h-318.464l-72.021333-86.596266c-3.413333-4.096-8.2944-6.144-13.141333-6.144zM324.266667 442.606933m17.066666 0l341.333334 0q17.066667 0 17.066666-17.066666l0 0q0-17.066667-17.066666-17.066667l-341.333334 0q-17.066667 0-17.066666 17.066667l0 0q0 17.066667 17.066666 17.066666Z"  horiz-adv-x="1024" />

    
    <glyph glyph-name="export" unicode="&#58887;" d="M788.672 0H171.328A108.288 108.288 0 0 0 64 108.79999999999995V723.2A108.352 108.352 0 0 0 171.328 832h239.296a34.432 34.432 0 0 0 0-68.928H171.328a39.872 39.872 0 0 1-39.488-40.192v-613.696a39.872 39.872 0 0 1 39.488-40.192h617.408a39.872 39.872 0 0 1 39.488 40.192V356.288a33.92 33.92 0 1 0 67.776 0V108.79999999999995a108.288 108.288 0 0 0-107.328-108.8zM380.864 247.808a34.24 34.24 0 0 0-33.984 34.496 365.376 365.376 0 0 0 28.288 135.488 437.696 437.696 0 0 0 87.616 134.912 493.184 493.184 0 0 0 371.2 145.344 34.56 34.56 0 0 0 0-69.056c-316.736 0-419.264-233.536-419.264-346.56a34.112 34.112 0 0 0-33.856-34.624zM748.672 405.888a32 32 0 0 0-14.144 3.264 34.688 34.688 0 0 0-16.64 45.76l96 212.224L605.44 764.672a34.688 34.688 0 0 0-16.64 45.76 33.728 33.728 0 0 0 45.12 16.96l216.896-101.632a60.48 60.48 0 0 0 28.864-79.488l-99.904-220.48a34.304 34.304 0 0 0-31.104-19.904z m73.6 257.472z"  horiz-adv-x="1024" />

    
    <glyph glyph-name="square-add" unicode="&#58930;" d="M792 0.12800000000004275h-624A104.128 104.128 0 0 0 64 104v624A104.128 104.128 0 0 0 168 832.128h624A104.128 104.128 0 0 0 896 728v-624a104.128 104.128 0 0 0-104-103.872zM168 762.816a34.688 34.688 0 0 1-34.688-34.688v-624a34.688 34.688 0 0 1 34.688-34.688h624a34.688 34.688 0 0 1 34.688 34.688v624a34.688 34.688 0 0 1-34.688 34.688zM320 448h320v-64H320zM512 576v-320H448V576z"  horiz-adv-x="1024" />

    
    <glyph glyph-name="see-no" unicode="&#58931;" d="M891.328 523.37066665a33.728 33.728 0 0 1-5.376 41.28 25.6 25.6 0 0 1-20.352 5.824 26.816 26.816 0 0 1-18.048-11.648c-1.408-1.408-153.6-194.752-335.36-194.752-175.808 0-335.36 194.752-336.704 196.224a26.688 26.688 0 0 1-38.4 2.944 32 32 0 0 1-2.752-41.28 626.048 626.048 0 0 1 88.128-88.704l-70.08-78.208a29.952 29.952 0 0 1-7.488-20.928 29.632 29.632 0 0 1 8.832-20.352 17.344 17.344 0 0 1 16.256-8.704 27.648 27.648 0 0 1 19.2 8.704l75.52 84.032a523.136 523.136 0 0 1 125.12-69.504l-28.928-104.896a29.888 29.888 0 0 1 19.2-36.992h8.192a27.008 27.008 0 0 1 26.176 22.336l28.928 104.896a327.424 327.424 0 0 1 137.344 0l28.992-103.424a28.224 28.224 0 0 1 26.176-22.336c2.752 0 5.44 0 6.784 1.408a28.224 28.224 0 0 1 16.896 14.144 32 32 0 0 1 2.56 22.848l-28.928 103.424A514.496 514.496 0 0 1 758.4 399.14666665l74.112-82.56a26.112 26.112 0 0 1 19.2-8.704 28.032 28.032 0 0 1 25.6 17.856 32 32 0 0 1-4.544 32l-70.016 78.208a576 576 0 0 1 88.128 86.912z"  horiz-adv-x="1024" />

    
    <glyph glyph-name="see-yes" unicode="&#58932;" d="M512.12 672.03333333c-229.74 0-416.04-288-416.04-288s186.3-259.86 416.04-259.86 416.04 259.86 416.04 259.86-186.3 288-416.04 288z m262.26-384a576 576 0 0 0-121.8-81.9 296.64 296.64 0 0 0-281.16 0 579.36 579.36 0 0 0-121.8 81.9 834.42 834.42 0 0 0-96 97.5 884.7 884.7 0 0 0 96 108.78 582 582 0 0 0 122.46 91.92 267.96 267.96 0 0 0 278.76 0.48 577.74 577.74 0 0 0 121.8-90.84 889.74 889.74 0 0 0 97.32-110.1 808.26 808.26 0 0 0-95.52-97.74zM512.12 593.25333333a195.24 195.24 0 1 1 195.24-195.24 195.24 195.24 0 0 1-195.24 195.48z m105.18-300.42a148.62 148.62 0 1 0 43.62 105.18 147.48 147.48 0 0 0-43.62-104.94z"  horiz-adv-x="1024" />

    
    <glyph glyph-name="locked-no" unicode="&#58933;" d="M752.63999998 524.45866667H383.35999998v61.632a128.704 128.704 0 0 0 128.448 128.96 121.6 121.6 0 0 0 128.64-120.128v-3.2a26.432 26.432 0 1 1 52.864 0v3.2a174.464 174.464 0 0 1-181.504 173.12 181.632 181.632 0 0 1-181.312-181.952v-61.888h-59.328A79.424 79.424 0 0 1 191.87199998 444.65066667v-300.8a79.424 79.424 0 0 1 79.296-79.552H752.63999998a79.424 79.424 0 0 1 79.296 79.552V445.09866667a79.424 79.424 0 0 1-79.296 79.36z m26.432-380.864a26.496 26.496 0 0 0-26.432-26.496H271.16799998a26.496 26.496 0 0 0-26.432 26.496V444.84266667a26.496 26.496 0 0 0 26.432 26.496H752.63999998a26.496 26.496 0 0 0 26.432-26.496zM511.93599998 370.53866667a23.616 23.616 0 0 1-23.616-23.616v-114.624a23.616 23.616 0 0 1 47.232 0V346.92266667a23.616 23.616 0 0 1-23.616 23.616z"  horiz-adv-x="1024" />

    
    <glyph glyph-name="locked-yes" unicode="&#58934;" d="M752.64 524.4586666600001H383.36v61.632a128.448 128.448 0 1 0 256.96 0v-3.2a26.432 26.432 0 1 1 52.864 0v3.2a181.312 181.312 0 1 1-362.688 0v-61.888h-59.328a79.424 79.424 0 0 1-79.296-79.552v-300.8a79.424 79.424 0 0 1 79.296-79.552h481.472a79.424 79.424 0 0 1 79.296 79.552V445.09866666a79.424 79.424 0 0 1-79.296 79.36z m26.432-380.864a26.496 26.496 0 0 0-26.432-26.496H271.168a26.496 26.496 0 0 0-26.432 26.496V444.84266666a26.496 26.496 0 0 0 26.432 26.496h481.472a26.496 26.496 0 0 0 26.432-26.496zM511.936 370.53866666a23.616 23.616 0 0 1-23.616-23.616v-114.624a23.616 23.616 0 0 1 47.232 0V346.92266666a23.616 23.616 0 0 1-23.616 23.616zM640 596.58666666v-73.472h53.44V596.58666666z"  horiz-adv-x="1024" />

    
    <glyph glyph-name="arrow-up" unicode="&#58935;" d="M532.37934 396.419672m18.101933-18.101934l144.815469-144.815469q18.101934-18.101934 0-36.203867l0 0q-18.101934-18.101934-36.203867 0l-144.815469 144.815469q-18.101934 18.101934 0 36.203867l0 0q18.101934 18.101934 36.203867 0ZM342.574258 215.41033200000004m18.101933 18.101934l144.815469 144.815468q18.101934 18.101934 36.203867 0l0 0q18.101934-18.101934 0-36.203867l-144.815469-144.815469q-18.101934-18.101934-36.203867 0l0 0q-18.101934 18.101934 0 36.203868ZM532.37934 604.701272m18.101933-18.101934l144.815469-144.815469q18.101934-18.101934 0-36.203867l0 0q-18.101934-18.101934-36.203867 0l-144.815469 144.815469q-18.101934 18.101934 0 36.203867l0 0q18.101934 18.101934 36.203867 0ZM342.574258 423.691932m18.101933 18.101934l144.815469 144.815468q18.101934 18.101934 36.203867 0l0 0q18.101934-18.101934 0-36.203867l-144.815469-144.815469q-18.101934-18.101934-36.203867 0l0 0q-18.101934 18.101934 0 36.203868Z"  horiz-adv-x="1024" />

    
    <glyph glyph-name="arrow-down" unicode="&#58936;" d="M496.16266 407.763928m18.101934 18.101934l144.815468 144.815468q18.101934 18.101934 36.203868 0l0 0q18.101934-18.101934 0-36.203867l-144.815469-144.815469q-18.101934-18.101934-36.203867 0l0 0q-18.101934 18.101934 0 36.203868ZM378.754734 588.788264m18.101933-18.101934l144.815469-144.815469q18.101934-18.101934 0-36.203867l0 0q-18.101934-18.101934-36.203867 0l-144.815469 144.815469q-18.101934 18.101934 0 36.203867l0 0q18.101934 18.101934 36.203867 0ZM496.16266 199.48232800000005m18.101934 18.101934l144.815468 144.815468q18.101934 18.101934 36.203868 0l0 0q18.101934-18.101934 0-36.203867l-144.815469-144.815469q-18.101934-18.101934-36.203867 0l0 0q-18.101934 18.101934 0 36.203868ZM378.754734 380.506664m18.101933-18.101934l144.815469-144.815469q18.101934-18.101934 0-36.203867l0 0q-18.101934-18.101934-36.203867 0l-144.815469 144.815469q-18.101934 18.101934 0 36.203867l0 0q18.101934 18.101934 36.203867 0Z"  horiz-adv-x="1024" />

    
    <glyph glyph-name="3D-show" unicode="&#58937;" d="M504.8497954 384a28.60082124 28.60082124 0 0 0 28.60081955-28.60082124V40.79015184000002h-57.2016408v314.60902692a28.60082124 28.60082124 0 0 0 28.60082125 28.60082124zM517.33553337 344.95822740999995m-14.30040978 24.76903746l0 0q-14.30040978 24.76903746 10.46862601 39.06944725l247.69037291 143.00410448q24.76903746 14.30040978 39.06944892-10.46862765l0 0q14.30040978-24.76903746-10.46862766-39.06944725l-247.69037293-143.00410284q-24.76903746-14.30040978-39.06944725 10.46862601ZM520.88739165 394.43235771m-14.30040978-24.76903746l0 0q-14.30040978-24.76903746-39.0694489-10.46862599l-247.69037292 143.00410282q-24.76903746 14.30040978-10.46862601 39.06944724l0 0q14.30040978 24.76903746 39.06944725 10.46862766l247.69037291-143.00410282q24.76903746-14.30040978 10.46862767-39.06944891ZM504.8497954-7.202025789999993a57.20164081 57.20164081 0 0 0-29.11563601 7.95102927l-257.40738611 152.09916378a57.20164081 57.20164081 0 0 0-28.08600649 49.19341213V508.69957872a57.20164081 57.20164081 0 0 0 28.08600649 49.19341045l257.40738611 152.15636658a57.20164081 57.20164081 0 0 0 58.23127034 0l257.4073861-152.15636658a57.20164081 57.20164081 0 0 0 28.08600647-49.19341045v-306.54359716a57.20164081 57.20164081 0 0 0-28.08600647-49.19341043l-257.4073861-152.09916549a57.20164081 57.20164081 0 0 0-29.11563433-8.06543143z m0 667.3715497a57.20164081 57.20164081 0 0 1-29.8592568-8.40864128l-200.20574532-122.2971081a57.54485066 57.54485066 0 0 1-27.342384-48.79300121v-250.42878529a57.60205341 57.60205341 0 0 1 27.342384-48.79299951l200.20574532-122.35431086a57.20164081 57.20164081 0 0 1 59.66131083 0l200.20574528 122.35431086a57.60205341 57.60205341 0 0 1 27.39958679 48.79299951V480.67077332a57.60205341 57.60205341 0 0 1-27.39958679 48.79300121l-200.20574528 122.2971081a57.20164081 57.20164081 0 0 1-29.80205403 8.40864128zM476.24897415 841.61313143m28.60082125 0l0 0q28.60082124 0 28.60081955-28.60082124l0-171.60492408q0-28.60082124-28.60081955-28.60082125l0 0q-28.60082124 0-28.60082125 28.60082125l0 171.60492408q0 28.60082124 28.60082125 28.60082124ZM1011.01951205 94.18233596000005m-14.30040976-24.76903746l0 0q-14.30040978-24.76903746-39.06944724-10.46862771l-148.61422308 85.80246203q-24.76903746 14.30040978-10.46862769 39.06944728l0 0q14.30040978 24.76903746 39.06944724 10.46862767l148.61422474-85.80246205q24.76903746-14.30040978 10.46862603-39.06944722ZM196.88548374 208.53067883000006m14.3004098-24.76903746l0 0q14.30040978-24.76903746-10.46862767-39.06944891l-148.6142231-85.80246204q-24.76903746-14.30040978-39.06944724 10.46862767l0 0q-14.30040978 24.76903746 10.46862602 39.06944724l148.61422475 85.80246205q24.76903746 14.30040978 39.06944724-10.46862601ZM504.8497954 527.00410283m-28.60082125 0a28.60082124 28.60082124 0 1 1 57.2016408 0 28.60082124 28.60082124 0 1 1-57.2016408 0ZM724.20612401 226.68688367000004m14.30040977 24.76903746a28.60082124 28.60082124 0 1 1-28.6008212-49.53807492 28.60082124 28.60082124 0 1 1 28.6008212 49.53807492ZM271.19114151 251.42939277000005a28.60082124 28.60082124 0 1 1 28.60082125-49.53807494 28.60082124 28.60082124 0 1 1-28.60082125 49.53807494Z"  horiz-adv-x="1024" />

    
    <glyph glyph-name="create-list" unicode="&#58938;" d="M405.401353 426.665378h-191.991801a42.664845 42.664845 0 0 0-42.664844 42.664844v149.326956a42.664845 42.664845 0 0 0 42.664844 42.664845h191.991801a42.664845 42.664845 0 0 0 42.664844-42.664845v-149.326956a42.664845 42.664845 0 0 0-42.664844-42.664844z m-170.659378 213.324222a42.664845 42.664845 0 0 1-42.664845-42.664844v-106.662111a42.664845 42.664845 0 0 1 42.664845-42.664845h149.326955a42.664845 42.664845 0 0 1 42.664845 42.664845v106.662111a42.664845 42.664845 0 0 1-42.664845 42.664844zM533.353221 639.9896m10.666212 0l298.653911 0q10.666211 0 10.666211-10.666211l0 0q0-10.666211-10.666211-10.666211l-298.653911 0q-10.666211 0-10.666212 10.666211l0 0q0 10.666211 10.666212 10.666211ZM533.353221 554.659911m10.666212 0l298.653911 0q10.666211 0 10.666211-10.666211l0 0q0-10.666211-10.666211-10.666211l-298.653911 0q-10.666211 0-10.666212 10.666211l0 0q0 10.666211 10.666212 10.666211ZM533.353221 469.330222m10.666212 0l298.653911 0q10.666211 0 10.666211-10.666211l0 0q0-10.666211-10.666211-10.666211l-298.653911 0q-10.666211 0-10.666212 10.666211l0 0q0 10.666211 10.666212 10.666211ZM405.401353 85.34662200000002h-191.991801a42.664845 42.664845 0 0 0-42.664844 42.664844v149.326956a42.664845 42.664845 0 0 0 42.664844 42.664845h191.991801a42.664845 42.664845 0 0 0 42.664844-42.664845v-149.326956a42.664845 42.664845 0 0 0-42.664844-42.664844z m-170.659378 213.324222a42.664845 42.664845 0 0 1-42.664845-42.664844v-106.662112a42.664845 42.664845 0 0 1 42.664845-42.664844h149.326955a42.664845 42.664845 0 0 1 42.664845 42.664844v106.662112a42.664845 42.664845 0 0 1-42.664845 42.664844zM533.353221 298.670844m10.666212 0l298.653911 0q10.666211 0 10.666211-10.666211l0 0q0-10.666211-10.666211-10.666211l-298.653911 0q-10.666211 0-10.666212 10.666211l0 0q0 10.666211 10.666212 10.666211ZM533.353221 213.34115499999996m10.666212 0l298.653911 0q10.666211 0 10.666211-10.666211l0 0q0-10.666211-10.666211-10.666211l-298.653911 0q-10.666211 0-10.666212 10.666211l0 0q0 10.666211 10.666212 10.666211ZM533.353221 128.01146600000004m10.666212 0l298.653911 0q10.666211 0 10.666211-10.666211l0 0q0-10.666211-10.666211-10.666211l-298.653911 0q-10.666211 0-10.666212 10.666211l0 0q0 10.666211 10.666212 10.666211ZM768.009866-127.99893299999997h-511.978134a254.282473 254.282473 0 0 0-181.005603 75.004796 254.410468 254.410468 0 0 0-74.983464 180.984271v511.978134a254.239809 254.239809 0 0 0 74.983464 180.98427A254.282473 254.282473 0 0 0 256.031732 895.957335h511.978134a254.282473 254.282473 0 0 0 181.005603-75.004797 254.239809 254.239809 0 0 0 74.983464-180.98427v-511.978134a254.410468 254.410468 0 0 0-74.983464-181.026936 254.282473 254.282473 0 0 0-181.005603-74.962131z m-490.645712 1002.623846a254.453133 254.453133 0 0 1-180.98427-74.962132 254.346471 254.346471 0 0 1-75.004797-181.026935v-469.31329a254.346471 254.346471 0 0 1 75.004797-181.026935 254.453133 254.453133 0 0 1 180.98427-74.962132h469.31329a254.453133 254.453133 0 0 1 180.98427 74.962132 254.346471 254.346471 0 0 1 75.004797 181.026935v469.31329a254.346471 254.346471 0 0 1-75.004797 181.026935 254.453133 254.453133 0 0 1-180.98427 74.962132z"  horiz-adv-x="1024" />

    
    <glyph glyph-name="create-blank" unicode="&#58939;" d="M816-32.01599999999996h-648a16 16 0 0 0-16 16v800a16 16 0 0 0 16 16.048h512.2c49.816-44.184 135.2-118.4 151.784-132.84v-683.2a16 16 0 0 0-15.984-16.008zM816-32.01599999999996h-656a16 16 0 0 0-16 16v816a16 16 0 0 0 16 16h518.4c48.2-43.064 129.784-114.544 153.6-135.44v-696.56a16 16 0 0 0-16-16z m-640 832a16 16 0 0 1-16-16v-784a16 16 0 0 1 16-16h624a16 16 0 0 1 16 16v669.456l-147.144 130.528zM800 163.98400000000004a136 136 0 0 0 136-136 136 136 0 0 0-136-136 136 136 0 0 0-136 136 136 136 0 0 0 136 136zM800-108.01599999999996a135 135 0 0 0-96.144 39.84 135.024 135.024 0 0 0-39.832 96.16 135.024 135.024 0 0 0 39.832 96.16A135 135 0 0 0 800 163.98400000000004a135.072 135.072 0 0 0 96.168-39.84A135.024 135.024 0 0 0 936 27.984000000000037a135.024 135.024 0 0 0-39.832-96.16A135.072 135.072 0 0 0 800-108.01599999999996z m0 256a119.2 119.2 0 0 1-84.84-35.144A119.24 119.24 0 0 1 680.032 27.984000000000037a119.24 119.24 0 0 1 35.128-84.856A119.2 119.2 0 0 1 800-92.01599999999996a119.2 119.2 0 0 1 84.856 35.144A119.2 119.2 0 0 1 920 27.984000000000037a119.2 119.2 0 0 1-35.144 84.856A119.2 119.2 0 0 1 800 147.98400000000004zM740 35.98400000000004m12 0l96 0q12 0 12-12l0 0q0-12-12-12l-96 0q-12 0-12 12l0 0q0 12 12 12ZM812 83.98400000000004m0-12l0-96q0-12-12-12l0 0q-12 0-12 12l0 96q0 12 12 12l0 0q12 0 12-12ZM779.712 659.984h-111.736a16 16 0 0 0-16 16v95.672a15.84 15.84 0 0 0 7.736 13.688l133.752-117.504a16.088 16.088 0 0 0-13.752-7.856zM324 555.9839999999999m8 0l384 0q8 0 8-8l0-64q0-8-8-8l-384 0q-8 0-8 8l0 64q0 8 8 8ZM692 179.98400000000004h-400a16 16 0 0 0-16 16v248a16 16 0 0 0 16 16h400a16.048 16.048 0 0 0 16-16v-248a16.064 16.064 0 0 0-16-16z m-384 264a16 16 0 0 1-16-16v-216a16 16 0 0 1 16-16h368a16 16 0 0 1 16 16v216a16 16 0 0 1-16 16zM692 499.984h-400a16 16 0 0 0-16 16v72a16 16 0 0 0 16 16h400a16 16 0 0 0 16-16v-72a16 16 0 0 0-16-16z m-376 80a16 16 0 0 1-16-16v-24a16 16 0 0 1 16-16h352a16 16 0 0 1 16 16v24a16 16 0 0 1-16 16zM312 403.984m8 0l344 0q8 0 8-8l0-16q0-8-8-8l-344 0q-8 0-8 8l0 16q0 8 8 8ZM312 339.98400000000004m8 0l344 0q8 0 8-8l0-16q0-8-8-8l-344 0q-8 0-8 8l0 16q0 8 8 8ZM312 275.98400000000004m8 0l344 0q8 0 8-8l0-16q0-8-8-8l-344 0q-8 0-8 8l0 16q0 8 8 8Z"  horiz-adv-x="1024" />

    
    <glyph glyph-name="create-form" unicode="&#58940;" d="M810.653378 106.65771099999995h-575.975401a42.664845 42.664845 0 0 0-42.664844 42.664845V639.9682680000001a42.664845 42.664845 0 0 0 42.664844 42.664845h575.975401a42.664845 42.664845 0 0 0 42.664845-42.664845v-490.645712a42.664845 42.664845 0 0 0-42.664845-42.664845z m-551.528445 554.642979a46.206027 46.206027 0 0 1-45.843375-46.462015v-440.51452A46.142029 46.142029 0 0 1 259.124933 127.99013400000001h526.91083a46.142029 46.142029 0 0 1 45.843375 46.334021v440.51452A46.206027 46.206027 0 0 1 786.035763 661.30069zM192.013133 511.973734m10.666211 0l618.640245 0q10.666211 0 10.666212-10.666211l0 0q0-10.666211-10.666212-10.666211l-618.640245 0q-10.666211 0-10.666211 10.666211l0 0q0 10.666211 10.666211 10.666211ZM192.013133 319.981934m10.666211 0l639.972668 0q10.666211 0 10.666211-10.666211l0 0q0-10.666211-10.666211-10.666211l-639.972668 0q-10.666211 0-10.666211 10.666211l0 0q0 10.666211 10.666211 10.666211ZM426.669778 511.973734m0-10.666211l0-383.9836q0-10.666211-10.666211-10.666212l0 0q-10.666211 0-10.666212 10.666212l0 383.9836q0 10.666211 10.666212 10.666211l0 0q10.666211 0 10.666211-10.666211ZM639.994 511.973734m0-10.666211l0-383.9836q0-10.666211-10.666211-10.666212l0 0q-10.666211 0-10.666211 10.666212l0 383.9836q0 10.666211 10.666211 10.666211l0 0q10.666211 0 10.666211-10.666211ZM768.009866-127.99893299999997h-511.978134a254.282473 254.282473 0 0 0-181.005603 75.004796 254.410468 254.410468 0 0 0-74.983464 180.984271v511.978134a254.239809 254.239809 0 0 0 74.983464 180.98427A254.282473 254.282473 0 0 0 256.031732 895.957335h511.978134a254.282473 254.282473 0 0 0 181.005603-75.004797 254.239809 254.239809 0 0 0 74.983464-180.98427v-511.978134a254.410468 254.410468 0 0 0-74.983464-181.026936 254.282473 254.282473 0 0 0-181.005603-74.962131z m-490.645712 1002.623846a254.453133 254.453133 0 0 1-180.98427-74.962132 254.346471 254.346471 0 0 1-75.004797-181.026935v-469.31329a254.346471 254.346471 0 0 1 75.004797-181.026935 254.453133 254.453133 0 0 1 180.98427-74.962132h469.31329a254.453133 254.453133 0 0 1 180.98427 74.962132 254.346471 254.346471 0 0 1 75.004797 181.026935v469.31329a254.346471 254.346471 0 0 1-75.004797 181.026935 254.453133 254.453133 0 0 1-180.98427 74.962132z"  horiz-adv-x="1024" />

    
    <glyph glyph-name="welcome-style" unicode="&#58941;" d="M53.745697-104.48156800000004a30.299588 30.299588 0 0 0-29.524062 36.377541l57.984032 278.720137a60.815601 60.815601 0 0 0 16.538525 30.660297L725.386561 867.882704a62.078084 62.078084 0 0 0 85.740619 0l184.827485-184.827486a60.454892 60.454892 0 0 0 0-85.740619L369.312297-29.381876000000034a61.320594 61.320594 0 0 0-30.660297-16.538525L59.931863-103.90443300000004a28.85675 28.85675 0 0 0-6.186166-0.577135zM768.25687 846.943525a21.804882 21.804882 0 0 1-15.474432-6.384557L126.14007 213.80838800000004a22.327911 22.327911 0 0 1-6.023847-11.109849L64.729298-63.27052200000003l266.077273 55.278713a21.444173 21.444173 0 0 1 11.109849 6.023846L968.685036 624.800654a21.949166 21.949166 0 0 1 0 30.948864L783.713267 840.558968a21.642563 21.642563 0 0 1-15.456397 6.366521zM891.060378 500.42806a19.315987 19.315987 0 0 0-13.706956 5.663137L634.19923 749.263425a19.370094 19.370094 0 0 0 27.395877 27.395877L904.767335 533.487074a19.370094 19.370094 0 0 0-13.706957-33.07705z m-103.685911-628.409844a57.947962 57.947962 0 0 0-41.102833 17.007447l-242.216348 242.216348a19.370094 19.370094 0 0 0 27.395877 27.395877l242.216348-242.342596a19.388129 19.388129 0 0 1 27.395877 0l179.164349 179.164348a19.388129 19.388129 0 0 1 0 27.395878L739.183694 363.89955999999995a19.370094 19.370094 0 0 0 27.395878 27.395877L1007.641649 150.23335999999995a58.164387 58.164387 0 0 0 0-82.205668l-179.164348-179.164348a58.308671 58.308671 0 0 0-41.102834-16.863164z m-514.912638 498.861071a19.315987 19.315987 0 0 0-13.706956 5.663137l-241.675284 241.675283a58.164387 58.164387 0 0 0 0 82.205668L196.243937 879.587723a59.517047 59.517047 0 0 0 82.205668 0l242.252419-242.396702a19.370094 19.370094 0 0 0-27.395878-27.395878L250.96355 852.119704a19.839016 19.839016 0 0 1-27.395877 0l-179.164348-179.164348a19.388129 19.388129 0 0 1 0-27.395878l241.675283-241.675283a19.388129 19.388129 0 0 0 0-27.395878 19.694732 19.694732 0 0 0-13.616779-5.627066zM115.968065 527.2287670000001a19.370094 19.370094 0 0 0-13.706956 33.07705l114.43505 114.43505a19.370094 19.370094 0 0 0 27.395878-27.395877l-114.435051-114.435051a19.315987 19.315987 0 0 0-13.688921-5.681172z m112.793823-112.667575a19.370094 19.370094 0 0 0-13.706956 33.07705l114.43505 114.435051a19.370094 19.370094 0 0 0 27.395877-27.395878l-114.43505-114.43505a19.730803 19.730803 0 0 0-13.706957-5.681173z m338.002723-338.002723a19.370094 19.370094 0 0 0-13.706956 33.059015l114.43505 114.43505a19.370094 19.370094 0 0 0 27.395878-27.395877l-114.435051-114.435051a19.315987 19.315987 0 0 0-13.688921-5.663137zM679.432186-36.21731799999998a19.370094 19.370094 0 0 0-13.706957 33.059014l114.326838 114.435051a19.370094 19.370094 0 0 0 27.395877-27.395878l-114.326837-114.43505a19.315987 19.315987 0 0 0-13.688921-5.663137z"  horiz-adv-x="1024" />

    
    <glyph glyph-name="back" unicode="&#58942;" d="M260.398948 599.372271m18.101933-18.101933l144.815469-144.815469q18.101934-18.101934 0-36.203867l0 0q-18.101934-18.101934-36.203867 0l-144.815469 144.815469q-18.101934 18.101934 0 36.203867l0 0q18.101934 18.101934 36.203867 0ZM224.195081 563.168404m18.101933 18.101934l144.815469 144.815469q18.101934 18.101934 36.203867 0l0 0q18.101934-18.101934 0-36.203868l-144.815469-144.815468q-18.101934-18.101934-36.203867 0l0 0q-18.101934 18.101934 0 36.203867ZM736.2048 78.59199999999998h-307.2v51.2h256a102.4 102.4 0 0 1 102.4 102.4v204.8a102.4 102.4 0 0 1-102.4 102.4h-307.2v51.2h358.4a102.4 102.4 0 0 0 102.4-102.4v-307.2a102.4 102.4 0 0 0-102.4-102.4zM345.1392 104.19200000000001m-25.6 0a25.6 25.6 0 1 1 51.2 0 25.6 25.6 0 1 1-51.2 0ZM350.2592 129.79200000000003h82.688v-51.2H350.2592zM286.72 589.312h108.288v-51.2H286.72z"  horiz-adv-x="1024" />

    
    <glyph glyph-name="refresh-right" unicode="&#58943;" d="M480 0a416 416 0 1 0 392.704 553.6l-62.208-16.768a352 352 0 1 1-330.496-473.216 352 352 0 0 1 352 350.016h64A416 416 0 0 0 480 0zM864 416m-32 0a32 32 0 1 1 64 0 32 32 0 1 1-64 0ZM832 704m32 0l0 0q32 0 32-32l0-128q0-32-32-32l0 0q-32 0-32 32l0 128q0 32 32 32ZM896 576m0-32l0 0q0-32-32-32l-128 0q-32 0-32 32l0 0q0 32 32 32l128 0q32 0 32-32Z"  horiz-adv-x="1024" />

    
    <glyph glyph-name="step-one" unicode="&#58944;" d="M512 384m-512 0a512 512 0 1 1 1024 0 512 512 0 1 1-1024 0ZM680.96 128H414.72v51.2h102.4V532.48L409.6 501.76V558.0799999999999l163.84 46.08V179.20000000000005h102.4v-51.2z"  horiz-adv-x="1024" />

    
    <glyph glyph-name="step-two" unicode="&#58945;" d="M512 384m-512 0a512 512 0 1 1 1024 0 512 512 0 1 1-1024 0ZM670.72 128h-281.6v51.2l133.12 133.12c35.84 35.84 61.44 66.56 76.8 87.04s20.48 46.08 20.48 66.56c0 25.6-5.12 46.08-20.48 61.44s-35.84 20.48-66.56 20.48c-40.96 0-81.92-15.36-117.76-51.2v61.44c35.84 30.72 76.8 40.96 128 40.96 40.96 0 76.8-10.24 97.28-35.84s35.84-51.2 35.84-92.16c0-30.72-10.24-56.32-25.6-87.04s-46.08-61.44-87.04-107.52l-107.52-102.4h215.04v-46.08z"  horiz-adv-x="1024" />

    
    <glyph glyph-name="create-module" unicode="&#58946;" d="M816-32.01599999999996H168a16 16 0 0 0-16 16v800a16 16 0 0 0 16 16.048h512.2c49.816-44.184 135.2-118.4 151.784-132.84v-683.2A16 16 0 0 0 816-32.01599999999996zM816-32.01599999999996H160a16 16 0 0 0-16 16v816a16 16 0 0 0 16 16h518.4c48.2-43.064 129.784-114.544 153.6-135.44v-696.56a16 16 0 0 0-16-16z m-640 832a16 16 0 0 1-16-16v-784a16 16 0 0 1 16-16h624a16 16 0 0 1 16 16V669.44L668.856 799.968zM800 163.98400000000004a136 136 0 0 0 136-136 136 136 0 0 0-136-136 136 136 0 0 0-136 136 136 136 0 0 0 136 136zM800-108.01599999999996a135 135 0 0 0-96.144 39.84 135.024 135.024 0 0 0-39.832 96.16 135.024 135.024 0 0 0 39.832 96.16A135 135 0 0 0 800 163.98400000000004a135.072 135.072 0 0 0 96.168-39.84 135.024 135.024 0 0 0 39.832-96.16 135.024 135.024 0 0 0-39.832-96.16A135.072 135.072 0 0 0 800-108.01599999999996z m0 256a119.2 119.2 0 0 1-84.84-35.144 119.24 119.24 0 0 1-35.128-84.856 119.24 119.24 0 0 1 35.128-84.856A119.2 119.2 0 0 1 800-92.01599999999996a119.2 119.2 0 0 1 84.856 35.144A119.2 119.2 0 0 1 920 27.984000000000037a119.2 119.2 0 0 1-35.144 84.856A119.2 119.2 0 0 1 800 147.98400000000004zM740 35.98400000000004m12 0l96 0q12 0 12-12l0 0q0-12-12-12l-96 0q-12 0-12 12l0 0q0 12 12 12ZM812 83.98400000000004m0-12l0-96q0-12-12-12l0 0q-12 0-12 12l0 96q0 12 12 12l0 0q12 0 12-12ZM779.712 659.984H667.976a16 16 0 0 0-16 16V771.656a15.84 15.84 0 0 0 7.736 13.688L793.464 667.84a16.088 16.088 0 0 0-13.752-7.856zM368.648 450.616V557.952a24 24 0 0 0 3.632 12.688c16.648-9.936 100.344-59.544 113.808-59.888s102.496 45.384 120.192 54.552a23.928 23.928 0 0 0 1.152-7.352v-107.336a24 24 0 0 0-12.168-20.88L499.88 375.67999999999995a24.112 24.112 0 0 0-23.664 0l-95.4 54.056a24 24 0 0 0-12.168 20.88zM368.648 450.608V557.944a24.048 24.048 0 0 0 12.168 20.872l95.416 54.064a24.112 24.112 0 0 0 23.664 0l95.368-54.064a24.048 24.048 0 0 0 12.168-20.872v-107.336a24 24 0 0 0-12.168-20.88l-95.384-54.056a24.112 24.112 0 0 0-23.664 0l-95.4 54.056a24 24 0 0 0-12.168 20.88z m222.864 99.496a24.08 24.08 0 0 1-12 20.8l-79.464 45.84a24.064 24.064 0 0 1-24 0l-79.464-45.84a24.08 24.08 0 0 1-12-20.8v-91.664a24.056 24.056 0 0 1 12-20.8l79.464-45.848a24.064 24.064 0 0 1 24 0l79.456 45.864a24.056 24.056 0 0 1 12 20.8zM751.44 178.736a24 24 0 0 0-12-20.8l-79.392-45.6a24 24 0 0 0-23.92 0l-79.392 45.6a24 24 0 0 0-12 20.8V269.832a24 24 0 0 0 12 20.8l79.392 45.6a24 24 0 0 0 23.92 0l79.392-45.592a24 24 0 0 0 12-20.808zM495.44 178.736a24 24 0 0 0-12-20.8l-79.392-45.6a24 24 0 0 0-23.92 0l-79.392 45.6a24 24 0 0 0-12 20.8V269.832a24 24 0 0 0 12 20.8l79.392 45.6a24 24 0 0 0 23.92 0l79.392-45.592a24 24 0 0 0 12-20.808zM496 231.05600000000004V338.39200000000005a24.048 24.048 0 0 0 12.168 20.872l95.416 54.064a24.112 24.112 0 0 0 23.664 0l95.368-54.064a24.048 24.048 0 0 0 12.168-20.872v-107.336a24 24 0 0 0-12.168-20.88l-95.384-54.056a24.112 24.112 0 0 0-23.664 0l-95.4 54.056A24 24 0 0 0 496 231.05600000000004z m214.864 91.064a24 24 0 0 1-12.568 21.144l-71.512 38.664a23.92 23.92 0 0 1-22.856 0l-71.432-38.664a24 24 0 0 1-12.568-21.104v-74.8a24 24 0 0 1 12.568-21.104l71.472-38.696a23.92 23.92 0 0 1 22.856 0l71.472 38.656a24 24 0 0 1 12.568 21.104zM239.992 231.048V338.384a24.048 24.048 0 0 0 12.168 20.872l95.416 54.064a24.112 24.112 0 0 0 23.664 0l95.368-54.064a24.048 24.048 0 0 0 12.168-20.872v-107.336a24 24 0 0 0-12.168-20.88l-95.384-54.056a24.112 24.112 0 0 0-23.664 0L252.16 210.168a24 24 0 0 0-12.168 20.88z m214.864 91.064a24 24 0 0 1-12.568 21.144l-71.512 38.664a23.92 23.92 0 0 1-22.856 0l-71.432-38.664a24 24 0 0 1-12.568-21.104v-74.8a24 24 0 0 1 12.568-21.104l71.472-38.696a23.92 23.92 0 0 1 22.856 0l71.472 38.656a24 24 0 0 1 12.568 21.104z"  horiz-adv-x="1024" />

    
    <glyph glyph-name="create-workflow" unicode="&#58947;" d="M816-32.01599999999996h-648a16 16 0 0 0-16 16v800a16 16 0 0 0 16 16.048h512.2c49.816-44.184 135.2-118.4 151.784-132.84v-683.2a16 16 0 0 0-15.984-16.008zM816-32.01599999999996h-656a16 16 0 0 0-16 16v816a16 16 0 0 0 16 16h518.4c48.2-43.064 129.784-114.544 153.6-135.44v-696.56a16 16 0 0 0-16-16z m-640 832a16 16 0 0 1-16-16v-784a16 16 0 0 1 16-16h624a16 16 0 0 1 16 16v669.456l-147.144 130.528zM800 163.98400000000004a136 136 0 0 0 136-136 136 136 0 0 0-136-136 136 136 0 0 0-136 136 136 136 0 0 0 136 136zM800-108.01599999999996a135 135 0 0 0-96.144 39.84 135.024 135.024 0 0 0-39.832 96.16 135.024 135.024 0 0 0 39.832 96.16A135 135 0 0 0 800 163.98400000000004a135.072 135.072 0 0 0 96.168-39.84A135.024 135.024 0 0 0 936 27.984000000000037a135.024 135.024 0 0 0-39.832-96.16A135.072 135.072 0 0 0 800-108.01599999999996z m0 256a119.2 119.2 0 0 1-84.84-35.144A119.24 119.24 0 0 1 680.032 27.984000000000037a119.24 119.24 0 0 1 35.128-84.856A119.2 119.2 0 0 1 800-92.01599999999996a119.2 119.2 0 0 1 84.856 35.144A119.2 119.2 0 0 1 920 27.984000000000037a119.2 119.2 0 0 1-35.144 84.856A119.2 119.2 0 0 1 800 147.98400000000004zM740 35.98400000000004m12 0l96 0q12 0 12-12l0 0q0-12-12-12l-96 0q-12 0-12 12l0 0q0 12 12 12ZM812 83.98400000000004m0-12l0-96q0-12-12-12l0 0q-12 0-12 12l0 96q0 12 12 12l0 0q12 0 12-12ZM779.712 659.984h-111.736a16 16 0 0 0-16 16v95.672a15.84 15.84 0 0 0 7.736 13.688l133.752-117.504a16.088 16.088 0 0 0-13.752-7.856zM436 563.9839999999999m16 0l224 0q16 0 16-16l0-64q0-16-16-16l-224 0q-16 0-16 16l0 64q0 16 16 16ZM324 259.98400000000004m8 0l224 0q8 0 8-8l0-72q0-8-8-8l-224 0q-8 0-8 8l0 72q0 8 8 8ZM275.344 516.152m6.976 0l153.528 0q6.976 0 6.976-6.976l0-0.008q0-6.976-6.976-6.976l-153.528 0q-6.976 0-6.976 6.976l0 0.008q0 6.976 6.976 6.976ZM526.56 264.93600000000004m6.976 0l167.488 0q6.976 0 6.976-6.976l0-0.008q0-6.976-6.976-6.976l-167.488 0q-6.976 0-6.976 6.976l0 0.008q0 6.976 6.976 6.976ZM289.312 516.152m0-6.976l0-125.616q0-6.976-6.976-6.976l-0.008 0q-6.976 0-6.976 6.976l0 125.616q0 6.976 6.976 6.976l0.008 0q6.976 0 6.976-6.976ZM708 390.536m0-6.976l0-125.616q0-6.976-6.976-6.976l-0.008 0q-6.976 0-6.976 6.976l0 125.616q0 6.976 6.976 6.976l0.008 0q6.976 0 6.976-6.976ZM275.344 390.544m6.976 0l418.704 0q6.976 0 6.976-6.976l0-0.008q0-6.976-6.976-6.976l-418.704 0q-6.976 0-6.976 6.976l0 0.008q0 6.976 6.976 6.976ZM489.527634 424.485033m11.313708-11.313708l18.294267-18.294267q11.313708-11.313708 0-22.627417l-18.294267-18.294266q-11.313708-11.313708-22.627417 0l-18.294266 18.294266q-11.313708 11.313708 0 22.627417l18.294266 18.294267q11.313708 11.313708 22.627417 0ZM284.88 196.32799999999997a8 8 0 0 0-8 8v95.664a8 8 0 0 0 8 8h249.176a8 8 0 0 0 8-8v-95.664a8 8 0 0 0-8-8z m21.952 73.688v-35.736a8 8 0 0 1 8-8h189.272a8 8 0 0 1 8 8v35.744a8 8 0 0 1-8 8h-189.264a8 8 0 0 1-8-8z m130.04 190.312a8 8 0 0 0-8 8v95.664a8 8 0 0 0 8 8h249.176a8 8 0 0 0 8-8v-95.664a8 8 0 0 0-8-8z m21.952 73.696v-35.736a8 8 0 0 1 8-8h189.272a8 8 0 0 1 8 8v35.728a8 8 0 0 1-8 8h-189.264a8 8 0 0 1-8-8z"  horiz-adv-x="1024" />

    
    <glyph glyph-name="list-btn" unicode="&#58948;" d="M1002.66666666 383.87199999999996v-64h-256v64zM234.66666666 383.87199999999996v-64H42.66666666v64zM554.66666666 448l0 64 192 0a64 64 0 0 0 64-64l0-192a64 64 0 0 0-64-64l-192 0 0 64 128 0a64 64 0 0 1 64 64l0 64a64 64 0 0 1-64 64l-128 0zM229.93066666 256.12800000000004l0 192a64 64 0 0 0 64 64l192 0 0-64-128 0a64 64 0 0 1-64-64l0-64a64 64 0 0 1 64-64l128 0 0-64-192 0a64 64 0 0 0-64 64zM618.66666666 383.87199999999996m0-32l0 0q0-32-32-32l-128 0q-32 0-32 32l0 0q0 32 32 32l128 0q32 0 32-32Z"  horiz-adv-x="1024" />

    
    <glyph glyph-name="help" unicode="&#58949;" d="M509.11573333 6.161066669999968c-209.92 0-384 174.08-384 384s174.08 384 384 384 384-174.08 384-384c0-215.04-174.08-384-384-384z m0 701.44c-179.2 0-317.44-143.36-317.44-317.44 0-179.2 143.36-317.44 317.44-317.44s317.44 143.36 317.44 317.44c0 174.08-143.36 317.44-317.44 317.44zM606.39573333 538.64106667c20.48-20.48 35.84-46.08 35.84-81.92 0-25.6-5.12-51.2-20.48-71.68l-46.08-46.08c-10.24-10.24-15.36-15.36-20.48-25.6-5.12-10.24-10.24-25.6-10.24-35.84v-5.12h-66.56v10.24c0 20.48 5.12 40.96 10.24 56.32 5.12 15.36 20.48 30.72 40.96 46.08 20.48 15.36 30.72 25.6 35.84 30.72 10.24 10.24 15.36 25.6 15.36 40.96 0 20.48-5.12 30.72-15.36 46.08-10.24 10.24-25.6 15.36-46.08 15.36-25.6 0-40.96-5.12-51.2-20.48-10.24-15.36-15.36-30.72-15.36-56.32h-66.56c0 40.96 10.24 76.8 35.84 97.28 25.6 25.6 56.32 35.84 97.28 35.84 35.84-5.12 66.56-15.36 87.04-35.84z m-66.56-307.2c10.24-10.24 10.24-20.48 10.24-30.72s-5.12-25.6-10.24-30.72c-10.24-10.24-20.48-10.24-30.72-10.24-10.24 0-20.48 5.12-30.72 10.24-10.24 10.24-15.36 20.48-15.36 30.72s5.12 20.48 15.36 30.72c10.24 10.24 20.48 10.24 30.72 10.24 10.24 0 20.48-5.12 30.72-10.24z"  horiz-adv-x="1024" />

    
    <glyph glyph-name="add-rectangle" unicode="&#58970;" d="M824-31.872000009999965h-624A104.128 104.128 0 0 0 96 71.99999998999999v624a104.128 104.128 0 0 0 104 104.128h624A104.128 104.128 0 0 0 928 695.99999999v-624a104.128 104.128 0 0 0-104-103.872zM200 730.81599999a34.688 34.688 0 0 1-34.688-34.688v-624a34.688 34.688 0 0 1 34.688-34.688h624a34.688 34.688 0 0 1 34.688 34.688v624a34.688 34.688 0 0 1-34.688 34.688zM543.9499128 539.51230534L543.9499128 219.65113866000002l-63.99033527 0L480.0500872 539.51230534zM671.97583818 347.58655436000004l-319.99693119-0.04525483 0 63.99033527 319.99693119 0.04525483z"  horiz-adv-x="1024" />

    
    <glyph glyph-name="permission-set" unicode="&#58971;" d="M511.77421344 864L139.20974656 745.55126906a33.59187844 33.59187844 0 0 1-23.4558375-32.48730937l1.88426344-465.47817281 0.4548225-5.32791844a325.78274156 325.78274156 0 0 1 92.198985-155.93908688 1402.54213219 1402.54213219 0 0 1 263.73197906-165.55533c9.61624406-5.06802 16.82842594-8.83654781 20.9218275-11.11065937l7.01725875-3.76852781a16.43857875 16.43857875 0 0 1 15.33401063 0l10.20101531 5.19796875a1471.15533 1471.15533 0 0 1 285.88832438 175.4314725 324.87309656 324.87309656 0 0 1 92.26395937 155.93908593l2.33908688 470.74111688a33.59187844 33.59187844 0 0 1-23.4558375 32.48730937z m333.31979625-612.71065969a277.44162469 277.44162469 0 0 0-74.91573563-122.60710687 1330.48527937 1330.48527937 0 0 0-251.90659875-155.35431469 16.30862906 16.30862906 0 0 0-15.07411219 0 1397.27918813 1397.27918813 0 0 0-249.43756312 155.15939063A276.40203 276.40203 0 0 0 178.64934031 251.28934030999994L176.96 683.69543156a14.87918812 14.87918812 0 0 0 10.33096406 14.22944156l314.60710688 99.99593907a33.26700469 33.26700469 0 0 0 20.14213219 0l314.60710687-99.99593907a14.87918812 14.87918812 0 0 0 10.46091375-14.22944156l-1.81929-432.40609125z m-327.47208094 388.22335032a137.42131969 137.42131969 0 0 0 97.46192906-39.89441625 134.17258875 134.17258875 0 0 0-0.58477125-191.74010157 137.0314725 137.0314725 0 0 0-63.09035531-34.82639625v-57.04771593h56.85279187a34.04670094 34.04670094 0 0 0 34.30659844-33.91675125 33.65685281 33.65685281 0 0 0-10.13604-23.97563438 34.5015225 34.5015225 0 0 0-24.3654825-9.87614156h-56.85279187v-94.732995a33.65685281 33.65685281 0 0 0-10.13604094-23.97563531 34.5015225 34.5015225 0 0 0-24.36548156-9.94111594 34.04670094 34.04670094 0 0 0-34.30659938 33.91675125l0.84466969 219.54923812a136.83654844 136.83654844 0 0 0-62.83045688 35.02132032 134.30253844 134.30253844 0 0 0 0.51979688 191.87005031 137.81116781 137.81116781 0 0 0 97.46192906 39.50456812z m82.71269062-134.36751282a77.96954344 77.96954344 0 0 1-23.58578718 56.46294375 81.93299531 81.93299531 0 0 1-114.55025344 0 77.96954344 77.96954344 0 0 1-23.84568563-56.20304531 79.00913719 79.00913719 0 0 1 23.58578719-56.52791906 80.63350219 80.63350219 0 0 1 57.11269031-23.39086313 82.12791844 82.12791844 0 0 1 81.28324875 79.52893407z"  horiz-adv-x="1024" />

    
    <glyph glyph-name="page-select" unicode="&#58972;" d="M761.90476234-90.66666667000004H249.90476234a146.285714 146.285714 0 0 0-146.285715 146.285714V713.90476233a146.285714 146.285714 0 0 0 146.285715 146.285714h512a146.285714 146.285714 0 0 0 146.285714-146.285714v-658.285715a146.285714 146.285714 0 0 0-146.285714-146.285714zM323.04761934 787.04761933a146.285714 146.285714 0 0 1-146.285715-146.285715v-512a146.285714 146.285714 0 0 1 146.285715-146.285714h365.714285a146.285714 146.285714 0 0 1 146.285715 146.285714V640.76190433a146.285714 146.285714 0 0 1-146.285715 146.285715zM249.90476234 640.76190433m36.571428 0l438.857143 0q36.571429 0 36.571429-36.571428l0 0q0-36.571429-36.571429-36.571429l-438.857143 0q-36.571429 0-36.571428 36.571429l0 0q0 36.571429 36.571428 36.571428ZM381.97813634 234.07466233000002m25.859905 25.859905l0 0q25.859905 25.859905 51.719811 0l103.43962-103.439621q25.859905-25.859905 0-51.71981l0 0q-25.859905-25.859905-51.71981 0l-103.439621 103.43962q-25.859905 25.859905 0 51.719811ZM744.01680834 389.23409233m25.859905-25.859905l0 0q25.859905-25.859905 0-51.71981l-206.879241-206.879241q-25.859905-25.859905-51.71981 0l0 0q-25.859905 25.859905 0 51.71981l206.879241 206.879241q25.859905 25.859905 51.71981 0ZM249.90476234 421.33333333m36.571428 0l219.428572 0q36.571429 0 36.571428-36.571429l0 0q0-36.571429-36.571428-36.571428l-219.428572 0q-36.571429 0-36.571428 36.571428l0 0q0 36.571429 36.571428 36.571429ZM249.90476234 201.90476233000004m36.571428 0l73.142857 0q36.571429 0 36.571429-36.571429l0 0q0-36.571429-36.571429-36.571429l-73.142857 0q-36.571429 0-36.571428 36.571429l0 0q0 36.571429 36.571428 36.571429Z"  horiz-adv-x="1024" />

    
    <glyph glyph-name="square-cancel" unicode="&#58973;" d="M834.66666666-21.20533334000004h-624A104.128 104.128 0 0 0 106.66666666 82.66666666000003v624a104.128 104.128 0 0 0 104 104.128h624A104.128 104.128 0 0 0 938.66666666 706.66666666v-624a104.128 104.128 0 0 0-104-103.872zM210.66666666 741.48266666a34.688 34.688 0 0 1-34.688-34.688v-624a34.688 34.688 0 0 1 34.688-34.688h624a34.688 34.688 0 0 1 34.688 34.688v624a34.688 34.688 0 0 1-34.688 34.688zM432.17066666 530.34666666L658.34666666 304.17066666000005l-45.248-45.248L386.98666666 485.16266666zM658.41066666 485.16266666l-226.24-226.304-45.248 45.248 226.24 226.304z"  horiz-adv-x="1024" />

    
    <glyph glyph-name="entrust" unicode="&#58897;" d="M620.672-89.66399999999999L403.264-89.66399999999999c-182.4 0-330.752 148.288-330.752 330.752L72.512 517.8240000000001c0 182.336 148.352 330.688 330.752 330.688l217.408 0c182.464 0 330.752-148.352 330.752-330.688l0-242.944c0-5.056-2.048-9.92-5.76-13.504-3.648-3.52-8.576-5.632-13.632-5.248-5.44 0.192-57.792 4.544-240.192 94.912-23.872 4.416-31.424 2.624-52.864-4.416C608.832 336.70399999999995 558.784 320.32000000000005 415.232 308.79999999999995 413.824 304 413.12 297.72799999999995 416.128 292.288c4.16-7.488 22.016-24.96 97.344-24.96 29.76 0 65.536 2.816 106.496 8.256C620.8 275.77599999999995 624.128 275.96799999999996 624.96 275.96799999999996c17.536 0 30.592-12.544 30.848-29.76 0.512-29.12-41.6-85.504-204.352-90.944-0.064 0-0.128 0-0.128 0-12.416 0-68.48 2.048-119.552 39.936-29.504 22.016-90.752 46.592-128.704 46.592-11.84 0-20.288-2.368-23.936-6.592-2.432-2.88-3.072-7.296-3.008-11.84 66.688-46.272 226.688-152.896 272.128-162.56 30.272-6.464 49.664-1.856 98.816 8.96 41.664 9.088 104.768 22.848 210.432 38.144 2.432 0.32 4.928 0.192 7.232-0.384l115.008-28.992c6.016-1.472 10.88-5.888 12.992-11.712s1.28-12.224-2.304-17.344C828.416-37.63199999999995 727.616-89.66399999999999 620.672-89.66399999999999zM403.264 811.136c-161.728 0-293.312-131.584-293.312-293.312l0-276.736c0-161.728 131.584-293.312 293.312-293.312l217.408 0c85.44 0 166.592 37.504 222.016 101.568L759.232 70.39999999999998c-102.272-14.784-163.456-28.224-204.16-37.184-54.144-11.84-77.888-16.576-114.624-8.96-63.04 13.504-269.504 157.056-292.864 173.376-4.16 2.944-6.912 7.296-7.744 12.288-3.392 20.48 0.192 37.184 10.688 49.472 11.136 13.184 28.8 19.84 52.48 19.84 51.392 0 120.704-31.296 151.04-53.952 42.688-31.68 90.688-32.64 96-32.64 105.792 3.584 148.672 29.568 162.688 44.224-131.776-16.384-206.784-4.352-229.632 37.632C370.048 298.688 379.392 325.05600000000004 387.008 336.76800000000003c3.2 4.928 8.448 8 14.272 8.512C548.864 356.48 598.016 372.60799999999995 627.392 382.20799999999997c22.592 7.488 35.968 12.48 74.048 5.184 1.664-0.32 3.328-0.896 4.8-1.6 118.656-58.944 179.904-80.192 207.744-87.936L913.984 517.8240000000001c0 161.728-131.584 293.312-293.312 293.312L403.264 811.136zM618.624 616.512l-352 0c-10.624 0-19.2 8.576-19.2 19.2s8.576 19.2 19.2 19.2l352 0c10.624 0 19.2-8.576 19.2-19.2S629.248 616.512 618.624 616.512zM618.624 473.088l-352 0c-10.624 0-19.2 8.576-19.2 19.2s8.576 19.2 19.2 19.2l352 0c10.624 0 19.2-8.576 19.2-19.2S629.248 473.088 618.624 473.088z"  horiz-adv-x="1024" />

    
    <glyph glyph-name="hnupload" unicode="&#58880;" d="M768.35456 480a256 256 0 1 1-512 0 192 192 0 1 1 0-384v-64a256 256 0 0 0-58.88 505.216 320.128 320.128 0 0 0 629.76 0A256.128 256.128 0 0 0 768.35456 32v64a192 192 0 0 1 0 384z m-512-384h128v-64H256.35456v64z m384 0h128v-64h-128v64zM539.04256 306.81600000000003v-333.056a32.448 32.448 0 0 0-32-32.192 32.448 32.448 0 0 0-32 32.192V306.81600000000003l-36.096-36.096a32.192 32.192 0 0 0-45.056 0.192 31.616 31.616 0 0 0-0.192 45.056l90.88 90.88a31.36 31.36 0 0 0 22.528 9.152 30.08 30.08 0 0 0 22.4-9.088l90.88-90.944a32.192 32.192 0 0 0-0.192-45.056 31.616 31.616 0 0 0-45.056-0.192l-36.096 36.096z"  horiz-adv-x="1024" />

    
    <glyph glyph-name="check-and-understand" unicode="&#58906;" d="M613.86 126.04999999999995c-41.97 0-83.91 16.15-115.59 48.37-62.65 63.73-61.78 166.55 1.95 229.2 30.87 30.35 71.73 46.85 115 46.49 43.29-0.37 83.85-17.57 114.19-48.44 30.35-30.87 46.86-71.71 46.49-115-0.37-43.29-17.57-83.84-48.44-114.19-31.5-30.98-72.57-46.42-113.6-46.43z m-0.05 284.07c-32.21 0-62.55-12.41-85.55-35.02-48-47.19-48.66-124.63-1.47-172.63 23.86-24.27 55.45-36.43 87.06-36.44 30.91 0 61.84 11.63 85.57 34.96 48 47.19 48.66 124.63 1.47 172.63-22.86 23.25-53.41 36.21-86.01 36.49-0.35 0.01-0.71 0.01-1.07 0.01zM888.13-8.92999999999995c-5.18 0-10.35 2-14.26 5.98L714.64 159.01c-7.74 7.88-7.64 20.54 0.24 28.28 7.88 7.75 20.54 7.64 28.28-0.24l159.23-161.96c7.74-7.88 7.64-20.54-0.24-28.28-3.9-3.83-8.96-5.74-14.02-5.74zM813.49 449.21c-11.05 0-20 8.95-20 20V651.12c0 57-46.37 103.37-103.37 103.37h-68.39c-11.05 0-20 8.95-20 20s8.95 20 20 20h68.39c79.05 0 143.37-64.32 143.37-143.37v-181.91c0-11.04-8.96-20-20-20zM550.66 754.49h-144.9c-11.05 0-20 8.95-20 20s8.95 20 20 20h144.9c11.05 0 20-8.95 20-20s-8.95-20-20-20zM690.11-30.600000000000023H263.92c-79.06 0-143.37 64.32-143.37 143.37V651.12c0 79.05 64.32 143.37 143.37 143.37h69.85c11.05 0 20-8.95 20-20s-8.95-20-20-20h-69.85c-57 0-103.37-46.37-103.37-103.37v-538.35c0-57 46.37-103.37 103.37-103.37h426.19c11.05 0 20-8.95 20-20s-8.95-20-20-20zM545.27 578.03H276.09c-11.05 0-20 8.95-20 20s8.95 20 20 20h269.17c11.05 0 20-8.95 20-20s-8.95-20-19.99-20zM367.73 272.20000000000005h-83.04c-11.05 0-20 8.95-20 20s8.95 20 20 20h83.04c11.05 0 20-8.95 20-20s-8.96-20-20-20zM442.47 425.11H279.53c-11.05 0-20 8.95-20 20s8.95 20 20 20h162.94c11.05 0 20-8.95 20-20s-8.96-20-20-20z"  horiz-adv-x="1024" />

    
    <glyph glyph-name="save1" unicode="&#59491;" d="M663.990857 764.4159999999999c54.052571 0 228.425143-174.445714 228.425143-228.425143v-456.850286a97.865143 97.865143 0 0 0-97.865143-97.865142H207.140571a97.865143 97.865143 0 0 0-97.865142 97.865142V666.550857a97.865143 97.865143 0 0 0 97.865142 97.865143z m-424.228571-65.243429h-32.621715a32.621714 32.621714 0 0 1-32.621714-32.621714v-587.337143a32.621714 32.621714 0 0 1 32.621714-32.621714h587.337143a32.621714 32.621714 0 0 1 32.621715 32.621714V535.990857a336.457143 336.457143 0 0 1-65.243429 78.628572v-111.250286a97.865143 97.865143 0 0 0-92.16-97.718857H337.700571a97.865143 97.865143 0 0 0-97.718857 92.16v5.705143z m424.228571-522.093714a32.621714 32.621714 0 1 0 0-65.243428H337.700571a32.621714 32.621714 0 0 0 0 65.243428zM566.125714 307.56571399999996a32.621714 32.621714 0 1 0 0-65.243428H337.700571a32.621714 32.621714 0 0 0 0 65.243428H566.125714z m97.865143 391.606857H305.078857v-195.803428a32.621714 32.621714 0 0 1 28.818286-32.402286h330.093714a32.621714 32.621714 0 0 1 32.402286 28.818286V676.644571a99.84 99.84 0 0 1-32.402286 22.528z"  horiz-adv-x="1024" />

    
    <glyph glyph-name="xiaoyan" unicode="&#58885;" d="M512-77.02a313.352 313.352 0 0 0-190.56 64.339C210.01 72.644 76.93 206.236 76.93 358.049V752.171a25.592 25.592 0 0 0 34.908 23.852 337.41 337.41 0 0 1 123.15-23.34 334.594 334.594 0 0 1 268.669 133.08A25.592 25.592 0 0 0 524.13 896a25.592 25.592 0 0 0 20.474-10.237 334.492 334.492 0 0 1 268.668-133.08 341.504 341.504 0 0 1 100.834 15.355 25.592 25.592 0 0 0 33.116-24.415v-385.215c0-151.814-133.08-285.406-244.509-370.73A313.352 313.352 0 0 0 512-77.02zM128.115 716.342v-358.293c0-130.93 122.024-251.777 224.394-330.038a263.294 263.294 0 0 1 318.931 0c102.37 78.261 224.445 199.108 224.445 330.038V710.097a393.61 393.61 0 0 0-82.766-8.803A385.216 385.216 0 0 0 524.03 829.92a385.164 385.164 0 0 0-289.04-128.627 387.519 387.519 0 0 0-106.874 15.048zM331.054 408.033q18.096 18.097 36.193 0l108.579-108.579q18.097-18.096 0-36.193-18.096-18.096-36.193 0l-108.579 108.58q-18.097 18.096 0 36.192zM692.987 516.652q18.096-18.096 0-36.193L475.828 263.301q-18.096-18.096-36.193 0-18.096 18.097 0 36.193l217.159 217.158q18.096 18.097 36.193 0z"  horiz-adv-x="1024" />

    
    <glyph glyph-name="status-default" unicode="&#59522;" d="M512.064 690.112a25.216 25.216 0 0 0 23.488-14.592L604.8 535.232a69.888 69.888 0 0 1 52.672-38.4l154.88-22.528a26.24 26.24 0 0 0 14.528-44.8l-112.128-109.312a69.952 69.952 0 0 1-20.096-61.888l26.432-154.24a24.768 24.768 0 0 0-5.44-21.056 27.136 27.136 0 0 0-20.352-9.792 25.6 25.6 0 0 0-12.224 3.2l-138.496 72.832a69.888 69.888 0 0 1-65.088 0l-138.496-72.256a26.176 26.176 0 0 0-12.224-3.2 27.136 27.136 0 0 0-20.352 9.792 24.768 24.768 0 0 0-5.44 21.056l26.432 154.24a69.888 69.888 0 0 1-20.096 61.888L197.248 430.016a26.24 26.24 0 0 0 14.528 44.8l154.88 22.528a69.888 69.888 0 0 1 52.672 38.4l69.248 140.288a25.152 25.152 0 0 0 23.488 14.592m0 61.184a86.4 86.4 0 0 1-78.4-48.704L364.416 562.816a8.768 8.768 0 0 0-6.4-4.8l-154.88-22.528a87.424 87.424 0 0 1-48.448-149.056l111.616-109.76a8.704 8.704 0 0 0 2.496-7.744l-26.432-154.24a87.168 87.168 0 0 1 126.848-92.16l138.496 72.832a8.768 8.768 0 0 0 8.128 0l138.496-72.832a87.168 87.168 0 0 1 126.848 92.16l-26.176 154.304a8.768 8.768 0 0 0 2.496 7.744l112.064 109.248a87.424 87.424 0 0 1-48.448 149.056l-154.88 22.528a8.768 8.768 0 0 0-6.4 4.8L590.592 702.656a86.4 86.4 0 0 1-78.528 48.64z"  horiz-adv-x="1024" />

    
    <glyph glyph-name="full-screen" unicode="&#59515;" d="M807.82222222-30.151111109999988H207.07555555a109.22666667 109.22666667 0 0 0-109.22666666 109.22666666V679.82222222a109.22666667 109.22666667 0 0 0 109.22666666 109.22666667h600.74666667a109.22666667 109.22666667 0 0 0 109.22666667-109.22666667v-600.74666667a109.22666667 109.22666667 0 0 0-109.22666667-109.22666666zM261.68888889 734.43555555a109.22666667 109.22666667 0 0 1-109.22666667-109.22666666v-491.52a109.22666667 109.22666667 0 0 1 109.22666667-109.22666667h491.52a109.22666667 109.22666667 0 0 1 109.22666666 109.22666667V625.20888889a109.22666667 109.22666667 0 0 1-109.22666666 109.22666666zM643.98222222 679.82222222m27.30666667 0l109.22666666 0q27.30666667 0 27.30666667-27.30666667l0 0q0-27.30666667-27.30666667-27.30666666l-109.22666666 0q-27.30666667 0-27.30666667 27.30666666l0 0q0 27.30666667 27.30666667 27.30666667ZM807.82222222 679.82222222m0-27.30666667l0-109.22666666q0-27.30666667-27.30666667-27.30666667l0 0q-27.30666667 0-27.30666666 27.30666667l0 109.22666666q0 27.30666667 27.30666666 27.30666667l0 0q27.30666667 0 27.30666667-27.30666667ZM207.07555555 133.68888889000004m27.30666667 0l109.22666667 0q27.30666667 0 27.30666666-27.30666667l0 0q0-27.30666667-27.30666666-27.30666667l-109.22666667 0q-27.30666667 0-27.30666667 27.30666667l0 0q0 27.30666667 27.30666667 27.30666667ZM207.07555555 79.07555554999999m0 27.30666667l0 109.22666667q0 27.30666667 27.30666667 27.30666666l0 0q27.30666667 0 27.30666667-27.30666666l0-109.22666667q0-27.30666667-27.30666667-27.30666667l0 0q-27.30666667 0-27.30666667 27.30666667Z"  horiz-adv-x="1024" />

    
    <glyph glyph-name="full-screen-hover" unicode="&#59516;" d="M512 384m-512 0a512 512 0 1 1 1024 0 512 512 0 1 1-1024 0ZM696.064 604.288a32 32 0 0 0 36.16-36.224l-30.144-211.2a32 32 0 0 0-54.336-18.112L466.752 519.744a32 32 0 0 0 18.112 54.336zM327.936 163.712a32 32 0 0 0-36.16 36.224l30.144 211.2a32 32 0 0 0 54.336 18.112l180.992-180.992a32 32 0 0 0-18.112-54.336z"  horiz-adv-x="1024" />

    
    <glyph glyph-name="add-circle" unicode="&#59478;" d="M512 384m-512 0a512 512 0 1 1 1024 0 512 512 0 1 1-1024 0ZM448 64V320H192V448h256V704h128v-256h256v-128H576v-256z"  horiz-adv-x="1024" />

    
    <glyph glyph-name="sign-bottom" unicode="&#59477;" d="M560.919273 104.72727299999997m-46.545455 0l0 0q-46.545455 0-46.545454 46.545454l0 605.090909q0 46.545455 46.545454 46.545455l0 0q46.545455 0 46.545455-46.545455l0-605.090909q0-46.545455-46.545455-46.545454ZM219.648 368.87272700000005a45.242182 45.242182 0 0 0 64.372364-0.558545l260.049454-262.609455a46.545455 46.545455 0 0 0 0.651637-65.163636 45.242182 45.242182 0 0 0-64.372364 0.558545l-260.002909 262.842182a46.545455 46.545455 0 0 0-0.698182 64.930909zM807.982545 371.013818a46.545455 46.545455 0 0 0-0.651636-65.163636l-261.678545-264.610909a45.381818 45.381818 0 0 0-64.651637-0.791273 46.545455 46.545455 0 0 0 0.651637 65.163636l261.492363 264.750546a45.381818 45.381818 0 0 0 64.837818 0.651636z"  horiz-adv-x="1024" />

    
    <glyph glyph-name="sign-top" unicode="&#59481;" d="M462.149818 663.272727m46.545455 0l0 0q46.545455 0 46.545454-46.545454l0-605.090909q0-46.545455-46.545454-46.545455l0 0q-46.545455 0-46.545455 46.545455l0 605.090909q0 46.545455 46.545455 46.545454ZM803.421091 399.127273a45.242182 45.242182 0 0 0-64.372364 0.558545l-260.049454 262.609455a46.545455 46.545455 0 0 0-0.651637 65.163636 45.242182 45.242182 0 0 0 64.372364-0.558545l260.002909-262.842182a46.545455 46.545455 0 0 0 0.698182-64.930909zM215.086545 396.986182a46.545455 46.545455 0 0 0 0.651637 65.163636l261.678545 264.610909a45.381818 45.381818 0 0 0 64.651637 0.791273 46.545455 46.545455 0 0 0-0.651637-65.163636l-261.492363-264.750546a45.381818 45.381818 0 0 0-64.837819-0.651636z"  horiz-adv-x="1024" />

    
    <glyph glyph-name="next-folder" unicode="&#59479;" d="M553.185055 179.42505500000004m-45.010989 0l0 0q-45.010989 0-45.010989 45.010989l0 315.076923q0 45.010989 45.010989 45.010989l0 0q45.010989 0 45.010989-45.010989l0-315.076923q0-45.010989-45.010989-45.010989ZM286.134857 370.36167a39.924747 39.924747 0 0 0 55.948659 5.806418l200.388924-202.909539a40.914989 40.914989 0 0 0-5.716396-56.668835 39.924747 39.924747 0 0 0-55.948659-5.761406l-200.388923 203.179604a40.914989 40.914989 0 0 0 5.716395 56.353758zM729.718154 370.36167a41.050022 41.050022 0 0 0 5.761406-56.668835l-202.09934-204.935033a40.014769 40.014769 0 0 0-56.533802 5.536352 41.050022 41.050022 0 0 0-5.716396 56.668835l202.279385 205.115077a40.014769 40.014769 0 0 0 56.308747-5.716396zM677.280352 727.208791L827.076923 577.4122199999999V7.032966999999985H196.923077v720.175824h480.357275m37.269099 90.021978H196.923077a90.292044 90.292044 0 0 1-90.021978-90.021978v-720.175824a90.292044 90.292044 0 0 1 90.021978-90.021978h630.153846a90.292044 90.292044 0 0 1 90.021978 90.021978V614.681319l-202.54945 202.54945zM917.098901 817.230769v-157.538461l-157.538461 157.538461z"  horiz-adv-x="1024" />

    
    <glyph glyph-name="before-folder" unicode="&#59480;" d="M462.622945 496.347429m45.010989 0l0 0q45.010989 0 45.010989-45.010989l0-315.076924q0-45.010989-45.010989-45.010989l0 0q-45.010989 0-45.010989 45.010989l0 315.076924q0 45.010989 45.010989 45.010989ZM729.673143 305.41081299999996a39.924747 39.924747 0 0 0-55.948659-5.806417l-200.388924 202.909538a40.914989 40.914989 0 0 0 5.716396 56.668835 39.924747 39.924747 0 0 0 55.948659 5.761407l200.388923-203.179605a40.914989 40.914989 0 0 0-5.716395-56.353758zM286.089846 305.41081299999996a41.050022 41.050022 0 0 0-5.761406 56.668835l202.09934 204.935033a40.014769 40.014769 0 0 0 56.533802-5.536351 41.050022 41.050022 0 0 0 5.716396-56.668835l-202.279385-205.115077a40.014769 40.014769 0 0 0-56.308747 5.716395zM677.280352 727.208791L827.076923 577.4122199999999V7.032966999999985H196.923077v720.175824h480.357275m37.269099 90.021978H196.923077a90.292044 90.292044 0 0 1-90.021978-90.021978v-720.175824a90.292044 90.292044 0 0 1 90.021978-90.021978h630.153846a90.292044 90.292044 0 0 1 90.021978 90.021978V614.681319l-202.54945 202.54945zM917.098901 817.230769v-157.538461l-157.538461 157.538461z"  horiz-adv-x="1024" />

    
    <glyph glyph-name="reduce-circle" unicode="&#59482;" d="M512 384m-512 0a512 512 0 1 1 1024 0 512 512 0 1 1-1024 0ZM192 320V448h640v-128z"  horiz-adv-x="1024" />

    
    <glyph glyph-name="reduce-circle-hover" unicode="&#59517;" d="M512 384m-512 0a512 512 0 1 1 1024 0 512 512 0 1 1-1024 0ZM192 320V448h640v-128z"  horiz-adv-x="1024" />

    
    <glyph glyph-name="default-img" unicode="&#59476;" d="M271.362406 634.877491m-117.758822 0a117.758822 117.758822 0 1 1 235.517645 0 117.758822 117.758822 0 1 1-235.517645 0ZM271.362406 348.160358c103.100409 0 76.317957-102.398976 174.07826-102.398976s118.270817 358.396416 245.757542 358.396416 179.198208-255.99744 179.198208-588.794112H153.603584s14.658413 332.796672 117.758822 332.796672zM983.03529-127.99487999999997H40.96471a41.00567 41.00567 0 0 0-40.95959 40.95959v942.07058a41.00567 41.00567 0 0 0 40.95959 40.95959h942.07058a41.00567 41.00567 0 0 0 40.95959-40.95959v-942.07058a41.00567 41.00567 0 0 0-40.95959-40.95959z m-911.350887 972.790272a20.479795 20.479795 0 0 1-20.479795-20.479795v-880.631194a20.479795 20.479795 0 0 1 20.479795-20.479795h880.631194a20.479795 20.479795 0 0 1 20.479795 20.479795v880.631194a20.479795 20.479795 0 0 1-20.479795 20.479795z"  horiz-adv-x="1024" />

    
    <glyph glyph-name="dialog-close-hover" unicode="&#59483;" d="M612.544 380.544l300.8 300.8a54.912 54.912 0 1 1-77.696 77.696l-300.8-300.8-300.8 300.8a54.912 54.912 0 1 1-77.696-77.696l300.8-300.8-300.8-300.8a54.912 54.912 0 1 1 77.696-77.696l300.8 300.8 300.8-300.8a54.912 54.912 0 1 1 77.696 77.696z"  horiz-adv-x="1024" />

    
    <glyph glyph-name="dialog-close" unicode="&#59475;" d="M612.544 380.544l300.8 300.8a54.912 54.912 0 1 1-77.696 77.696l-300.8-300.8-300.8 300.8a54.912 54.912 0 1 1-77.696-77.696l300.8-300.8-300.8-300.8a54.912 54.912 0 1 1 77.696-77.696l300.8 300.8 300.8-300.8a54.912 54.912 0 1 1 77.696 77.696z"  horiz-adv-x="1024" />

    
    <glyph glyph-name="mysql" unicode="&#59470;" d="M702.079249 300.14537900000005V499.052485q0 27.51765 2.762599 69.173305h-1.733395a361.792092 361.792092 0 0 0-10.129529-42.089004L612.105201 300.14537900000005h-55.631154L474.571121 524.0242109999999a444.182535 444.182535 0 0 0-10.346203 44.201579h-1.895901q2.762599-41.276475 2.762599-82.715455V300.14537900000005H402.039363V627.919589H503.767998l70.419182-198.040408a238.016837 238.016837 0 0 0 12.079598-46.151649h1.462552a484.375638 484.375638 0 0 0 13.542151 46.422492l70.960868 197.769565h98.80353V300.14537900000005z m357.512773 234.00836l-96.420112-254.971609q-33.638702-88.836507-100.699431-88.836507a120.795982 120.795982 0 0 0-41.0598 5.41686v54.872794a60.072979 60.072979 0 0 1 30.280249-7.854447 39.976428 39.976428 0 0 1 39.380573 27.084301l12.892127 30.659428-94.632547 233.62918h75.836042l45.7183-146.634405a158.984847 158.984847 0 0 0 6.121052-29.8469h1.245878a195.819496 195.819496 0 0 0 6.98775 29.413551l46.747503 147.067754z m21.66744-151.672085a137.046563 137.046563 0 0 1 89.919879-32.772004 76.431897 76.431897 0 0 1 43.172376 10.021191 29.576057 29.576057 0 0 1 14.408848 25.296737 35.967952 35.967952 0 0 1-11.429575 25.1884 214.561832 214.561832 0 0 1-60.343822 32.121981q-76.811077 32.501161-76.811078 94.795053a82.661286 82.661286 0 0 0 34.830411 71.015038 153.351312 153.351312 0 0 0 92.086624 25.296737 226.695599 226.695599 0 0 0 80.602879-12.458779v-65.598177a134.06729 134.06729 0 0 1-77.244426 22.425802 78.706979 78.706979 0 0 1-41.276475-9.425337 28.546853 28.546853 0 0 1-15.383883-25.350906 32.501161 32.501161 0 0 1 10.833721-23.400836 197.661228 197.661228 0 0 1 52.2727-28.871865A171.010276 171.010276 0 0 0 1283.795865 446.400604a86.994775 86.994775 0 0 0 18.363156-55.251974 83.961333 83.961333 0 0 0-33.422028-71.935903 157.413957 157.413957 0 0 0-95.011727-24.755051 204.161461 204.161461 0 0 0-92.086623 18.20065z m255.404958 77.190258a176.752148 176.752148 0 0 0 44.95994 125.346145 154.59719 154.59719 0 0 0 118.845912 48.372561 146.255225 146.255225 0 0 0 113.104041-46.747503 170.956108 170.956108 0 0 0 42.793196-120.200128 175.018753 175.018753 0 0 0-44.634928-124.587784q-2.762599-2.979273-5.416861-5.687704l83.257142-80.223699h-103.46203L1542.559276 300.14537900000005a181.789828 181.789828 0 0 0-47.505864-5.687703 150.913725 150.913725 0 0 0-114.404087 46.205817 165.593416 165.593416 0 0 0-43.984905 119.008419z m73.398456 3.791802a125.725325 125.725325 0 0 1 23.075824-78.165293 75.131851 75.131851 0 0 1 63.268927-30.388585 76.648572 76.648572 0 0 1 63.648107 29.142708 123.179401 123.179401 0 0 1 22.85915 78.165292 132.333894 132.333894 0 0 1-22.209126 80.927891 73.61513 73.61513 0 0 1-62.40223 29.738563 77.298595 77.298595 0 0 1-64.623142-30.496923 125.237808 125.237808 0 0 1-23.61751-78.869484zM1904.134694 300.14537900000005H1711.72782V627.919589h69.823328v-270.843009h122.529377z"  horiz-adv-x="2275" />

    
    <glyph glyph-name="dm" unicode="&#59471;" d="M1066.647014 216.24128399999995q114.456551-2.45264 246.647579 2.955746-12.766308-33.83386-24.086186-67.793495-138.354073-0.503106-255.955035 2.515528a165.647558 165.647558 0 0 0-118.921615 51.065231q-18.866464-20.627335-59.932468-65.843961l-29.494573 72.698776q14.715842 15.722054 55.530294 52.071442V387.234341h-49.115696V452.072091h114.959657v-193.569926a172.439485 172.439485 0 0 1 120.368043-42.260881zM964.95677 518.67071h117.412298q2.45264 42.763986 2.45264 100.243815h68.296602q0-56.0334-1.949535-100.243815h146.403764v-60.435574h-150.931715q-1.949535-18.866464-4.905281-34.90296 83.578438-67.541943 152.378145-126.971306l-50.310572-57.479828q-60.687127 58.926257-124.39289 112.003911a431.035825 431.035825 0 0 0-106.909965-118.921615 622.593328 622.593328 0 0 1-51.568336 55.530294 276.708146 276.708146 0 0 1 103.765554 118.921614 217.404559 217.404559 0 0 1 12.577643 52.071442h-112.318352zM891.754888 619.2918540000001q36.852494-47.669267 67.29039-91.879682l-58.926257-39.80824q-22.136652 39.80824-61.441786 98.734497z m564.987724-351.419345l44.02175 39.305134q32.890536-24.086186 70.749242-52.574547a318.214368 318.214368 0 0 1 93.577664 68.799707H1490.450695a636.680288 636.680288 0 0 0-109.865712-90.433253q-24.589292 30.437896-45.656844 53.014765a470.529624 470.529624 0 0 1 135.586992 105.211983h-44.021751v75.465858a403.302123 403.302123 0 0 0-64.083091-72.510111q-21.13044 30.186343-38.802029 51.06523A376.700408 376.700408 0 0 1 1408.696015 518.67071h-69.177036v51.065231h86.785737V623.065147h58.989145v-53.580759h70.183248V518.67071h-70.246136v-3.961957l64.83775-32.450319-31.444108-45.216627q-16.728265 13.269413-33.393642 25.532615v-53.077653q1.446429 2.45264 3.458852 5.408386l61.441786-17.671588q-6.288821-9.810562-13.269414-18.866464H1748.292376v-50.310572a398.019513 398.019513 0 0 0-141.687148-127.5373 708.435742 708.435742 0 0 0-236.333912-67.793496q-13.772519 31.444107-29.93479 60.93868a935.650862 935.650862 0 0 1 166.024887 34.90296q-24.589292 20.627335-49.618801 39.305134zM1704.270626 391.196298h-58.86337v83.012444a409.968273 409.968273 0 0 0-73.704987-80.559803 416.948865 416.948865 0 0 1-38.298923 44.713521A318.591697 318.591697 0 0 1 1624.779922 518.67071h-50.310572v51.065231h70.937906V623.065147h58.86337v-53.580759h92.005458V518.67071h-69.805918a281.236097 281.236097 0 0 1 88.42083-71.000795 518.324668 518.324668 0 0 1-30.437896-52.574547A287.273366 287.273366 0 0 0 1704.270626 479.617129z"  horiz-adv-x="2641" />

    
    <glyph glyph-name="oracle" unicode="&#59472;" d="M450.277224 467.430576a173.609191 173.609191 0 0 0 44.160475 123.117274 151.848186 151.848186 0 0 0 116.679422 47.512414 143.654556 143.654556 0 0 0 111.092856-45.916252 167.916214 167.916214 0 0 0 42.085465-118.062763 171.747002 171.747002 0 0 0-43.734832-122.106372 149.507149 149.507149 0 0 0-114.604412-46.820744 148.230219 148.230219 0 0 0-112.422991 45.437404 162.64888 162.64888 0 0 0-43.255983 116.839039z m72.093305 3.724377a123.489712 123.489712 0 0 1 22.665496-76.775379 73.795877 73.795877 0 0 1 62.143897-29.848225 75.285628 75.285628 0 0 1 62.782361 28.571295 120.989059 120.989059 0 0 1 22.452675 76.77538 129.98077 129.98077 0 0 1-22.027031 79.542059 72.306126 72.306126 0 0 1-61.505432 29.20976 75.924093 75.924093 0 0 1-63.474032-29.954635 123.010864 123.010864 0 0 1-23.037934-77.46705z m436.284206 8.512862a58.52593 58.52593 0 0 1-29.741814 7.076317 43.309188 43.309188 0 0 1-36.286076-17.451368 77.094612 77.094612 0 0 1-13.407759-47.884852V310.74069899999995h-67.091998V540.587988h67.145204v-43.255983h0.851286a61.1862 61.1862 0 0 0 60.494529 47.193182 47.246387 47.246387 0 0 0 18.089833-2.713475z m39.4784 46.980361a147.804576 147.804576 0 0 0 41.659821 14.152634 225.165215 225.165215 0 0 0 44.586118 5.320539 85.128626 85.128626 0 0 0 96.408168-96.567785V310.74069899999995h-63.846469v33.466191h-0.744875a75.49845 75.49845 0 0 0-68.794571-39.052757 72.891386 72.891386 0 0 0-52.460515 18.568681 66.347123 66.347123 0 0 0-19.473174 50.864354q0 66.081096 78.743979 76.88179L1117.313211 459.715794q0 40.116865-41.766232 40.116865a134.662845 134.662845 0 0 1-77.520255-24.953329z m75.870888-111.731321q-36.392487-4.788485-36.392488-32.827727a26.602695 26.602695 0 0 1 8.832095-20.803307 34.370683 34.370683 0 0 1 23.78281-7.980809 43.894448 43.894448 0 0 1 33.891834 14.525072 51.556024 51.556024 0 0 1 13.194937 36.232871v16.440466z m336.683714-95.663293a136.844266 136.844266 0 0 0-68.581749-14.099429 115.774931 115.774931 0 0 0-85.128626 31.923235 111.412089 111.412089 0 0 0-32.402083 82.947204 122.372399 122.372399 0 0 0 34.902737 92.364559 128.224992 128.224992 0 0 0 93.109434 33.785423 121.148675 121.148675 0 0 0 58.206698-10.641078v-57.568233a83.532464 83.532464 0 0 1-50.279095 16.812904 66.506739 66.506739 0 0 1-49.374603-18.728298 69.592651 69.592651 0 0 1-18.621887-51.343202 68.422133 68.422133 0 0 1 17.66419-49.800246 63.846469 63.846469 0 0 1 47.884852-18.196244 93.375461 93.375461 0 0 1 52.354105 17.025725z m46.554717-8.512863V650.989174h66.879176V310.74069899999995z m331.097148 95.769704h-151.316132q3.511556-53.205391 64.431729-53.205391a121.414702 121.414702 0 0 1 67.145203 18.728297v-49.268192a167.118133 167.118133 0 0 0-82.30874-17.664189 114.231974 114.231974 0 0 0-85.128625 30.965537 117.74353 117.74353 0 0 0-30.646306 86.405555 125.13908 125.13908 0 0 0 32.402083 89.491468 107.262068 107.262068 0 0 0 81.457454 34.370682 99.174849 99.174849 0 0 0 76.402942-29.635402 114.817234 114.817234 0 0 0 27.560392-81.351043z m-62.56954 41.979053q0 51.556024-41.766232 51.556024a40.86174 40.86174 0 0 1-30.539894-14.152634 66.71956 66.71956 0 0 1-16.600082-37.243773z"  horiz-adv-x="2234" />

    
    <glyph glyph-name="api" unicode="&#59473;" d="M1278.144 192h-90.048l-28.992 88.768h-140.8L989.888 192h-89.6l141.76 387.264H1139.2z m-138.496 152.512l-43.968 134.4a149.056 149.056 0 0 0-6.016 33.728h-2.304a142.912 142.912 0 0 0-6.72-32.768l-44.224-135.232z m270.016-17.472V192h-82.56V579.264h133.248q144.512 0 144.512-122.496a117.248 117.248 0 0 0-43.648-95.36 160 160 0 0 0-109.12-34.368z m0 188.224V390.4h35.776q72.768 0 72.768 63.232 0 61.76-72 61.76z m336.256 64V192h-82.56V579.264z"  horiz-adv-x="2688" />

    
    <glyph glyph-name="default-text" unicode="&#59474;" d="M0 896m105.70328 0l1268.439365 0q105.70328 0 105.70328-105.70328l0-528.516402q0-105.70328-105.70328-105.703281l-1268.439365 0q-105.70328 0-105.70328 105.703281l0 528.516402q0 105.70328 105.70328 105.70328ZM442.10397 522.391756v13.424316h-66.857325v-44.395378h100.418117v-28.38133h-100.418117v-43.338345q54.701448 3.118247 109.931412 7.240674-0.528516-14.428498 0.528516-30.971061-127.478156-9.301889-252.366582-19.079442l-5.655125 35.093489q57.555436 2.58973 115.639389 5.655126v45.399559h-102.690737v28.38133h102.690737v44.395378h-66.593067v-13.424316h-31.975242v205.381473h229.693228v-205.434325z m45.928075 86.729541h80.017384q1.532698 52.85164 1.532697 143.492203h38.211736q0-87.733723-1.532697-143.492203h115.110872v-34.564973h-115.850795a457.008133 457.008133 0 0 1 128.218079-284.976043 278.792402 278.792402 0 0 1-33.032275-38.211736 465.094434 465.094434 0 0 0-108.768676 224.830877 443.372409 443.372409 0 0 0-113.789581-232.0187 354.105989 354.105989 0 0 1-28.909847 33.032275 418.743545 418.743545 0 0 1 117.912009 297.290476h-79.27746z m-45.928075 90.323453h-66.857325v-135.247347h67.121583z m-165.689892-135.247347h66.593067v135.194496h-66.593067z m10.570328-217.801609a646.851224 646.851224 0 0 0-35.093489-91.856151l-33.032275 12.8958a529.309176 529.309176 0 0 1 36.943296 89.477827z m332.965333 351.463407l23.20187 24.787419a813.016781 813.016781 0 0 0 66.593067-56.762661l-27.852814-29.438364q-25.051677 27.324298-62.206381 61.413606z m-291.371092-340.628821q14.957014-42.598422 24.787419-79.59457l-32.55661-10.570328q-9.249037 42.281312-20.61214 81.391526z m59.880908 12.367284a535.651373 535.651373 0 0 0 33.032275-70.821198l-31.975242-12.8958a576.981356 576.981356 0 0 1-28.909847 73.305225z m44.923894 289.574136a673.329896 673.329896 0 0 0-23.730386-72.776708l-25.7916 8.244856a667.569067 667.569067 0 0 1 21.669172 72.248192z m-149.675845 0.528517l26.425821 8.244856q13.952833-42.281312 20.664991-71.719676l-27.852814-8.244856a683.530262 683.530262 0 0 1-19.290849 71.666824z m162.571646-271.498876a491.520254 491.520254 0 0 0 35.622005-53.16875l-27.852814-18.075261a518.7917 518.7917 0 0 1-33.032275 56.762662z m606.419719 360.23678h41.805648q-0.528516-67.861506-1.796956-132.921875 28.381331-235.612612 169.548061-319.223907-18.603777-20.61214-33.560791-39.797285a398.448515 398.448515 0 0 0-149.940103 247.821341 409.494508 409.494508 0 0 0-158.554921-257.017527q-11.997322 14.481349-30.072583 33.032276a392.423428 392.423428 0 0 1 161.038948 338.250497q1.532698 57.608288 1.532697 129.85648z m-104.276286-298.823174a332.965333 332.965333 0 0 1 8.244856-41.805647q-53.644415-41.329983-102.690737-85.196844a170.340836 170.340836 0 0 1-23.730386-26.848634l-30.442545 31.975243a62.470639 62.470639 0 0 1 16.542563 45.399559v174.040451h-69.182797v36.996148h109.402895v-210.560935q38.211736 30.548248 91.856151 76.000659z m-123.937096 294.700746q49.574838-50.050503 87.205206-91.380486l-35.622005-29.438364q-36.150522 45.399559-82.078598 95.132953z"  horiz-adv-x="2048" />

    
    <glyph glyph-name="position-top-left" unicode="&#59451;" d="M323.368421 87.57894699999997V572.631579h485.052632v-161.684211H485.052632v-323.368421z"  horiz-adv-x="1024" />

    
    <glyph glyph-name="position-top-right" unicode="&#59453;" d="M700.739368 87.57894699999997V572.631579h-485.052631v-161.684211h323.368421v-323.368421z"  horiz-adv-x="1024" />

    
    <glyph glyph-name="MicroApp" unicode="&#59452;" d="M448 384H192a64 64 0 0 0-64 64V704a64 64 0 0 0 64 64h256a64 64 0 0 0 64-64v-256a64 64 0 0 0-64-64zM224 704a32 32 0 0 1-32-32v-192a32 32 0 0 1 32-32h192a32 32 0 0 1 32 32v192a32 32 0 0 1-32 32zM896-64h-256a64 64 0 0 0-64 64v256a64 64 0 0 0 64 64h256a64 64 0 0 0 64-64v-256a64 64 0 0 0-64-64z m-224 320a32 32 0 0 1-32-32v-192a32 32 0 0 1 32-32h192a32 32 0 0 1 32 32v192a32 32 0 0 1-32 32zM768 384a192 192 0 0 0-192 192 192 192 0 0 0 192 192 192 192 0 0 0 192-192 192 192 0 0 0-192-192z m0 320a128 128 0 0 1-128-128 128 128 0 0 1 128-128 128 128 0 0 1 128 128 128 128 0 0 1-128 128zM320-64a192 192 0 0 0-192 192 192 192 0 0 0 192 192 192 192 0 0 0 192-192 192 192 0 0 0-192-192z m0 320a128 128 0 0 1-128-128 128 128 0 0 1 128-128 128 128 0 0 1 128 128 128 128 0 0 1-128 128z"  horiz-adv-x="1024" />

    
    <glyph glyph-name="float-center" unicode="&#59449;" d="M819.3024 102.39999999999998h-23.4496c26.112 1.1264 47.36 22.016 48.9472 48.128v-22.5792a25.6 25.6 0 0 0-25.4976-25.5488z m-181.6064 0h-23.2448a25.6512 25.6512 0 0 0-25.7024 25.5488V332.79999999999995c0 14.0288 11.5712 25.4976 25.7024 25.4976h22.3744a51.2 51.2 0 0 1-47.9744-51.0464v-153.5488c0-27.5456 21.7088-50.1248 48.8448-51.3024z m207.104 208.0256a51.3024 51.3024 0 0 1-48.0256 47.872h22.528c14.0288 0 25.4976-11.4688 25.4976-25.4976v-22.3744zM819.3024 76.79999999999995h-204.8512a51.3024 51.3024 0 0 0-51.3024 51.1488V332.79999999999995a51.2 51.2 0 0 0 51.3024 51.0976h204.8512c28.16 0 51.0976-22.8864 51.0976-51.0976v-204.8512a51.2 51.2 0 0 0-51.0976-51.1488zM640 332.79999999999995a25.6 25.6 0 0 1-25.5488-25.5488v-153.5488c0-14.1824 11.4688-25.7536 25.5488-25.7536h153.5488a25.7536 25.7536 0 0 1 25.7536 25.7536v153.5488a25.6512 25.6512 0 0 1-25.7536 25.5488H640zM460.9024 102.39999999999998h-23.4496c26.112 1.1264 47.36 22.016 48.9472 48.128v-22.5792a25.6 25.6 0 0 0-25.4976-25.5488z m-181.6064 0h-23.2448a25.6512 25.6512 0 0 0-25.7024 25.5488V332.79999999999995c0 14.0288 11.5712 25.4976 25.7024 25.4976h22.3232a51.2 51.2 0 0 1-47.9232-51.0464v-153.5488c0-27.5456 21.7088-50.1248 48.8448-51.3024zM486.4 310.42560000000003a51.3024 51.3024 0 0 1-48.0256 47.872h22.528c14.0288 0 25.4976-11.4688 25.4976-25.4976v-22.3744zM460.9024 76.79999999999995H256.0512a51.3024 51.3024 0 0 0-51.3024 51.1488V332.79999999999995a51.2 51.2 0 0 0 51.3024 51.0976h204.8512c28.16 0 51.0976-22.8864 51.0976-51.0976v-204.8512a51.2 51.2 0 0 0-51.0976-51.1488zM281.6 332.79999999999995a25.6 25.6 0 0 1-25.5488-25.5488v-153.5488c0-14.1824 11.4688-25.7536 25.5488-25.7536h153.5488a25.7536 25.7536 0 0 1 25.7536 25.7536v153.5488A25.6512 25.6512 0 0 1 435.1488 332.79999999999995H281.6zM256 640h512v-51.2H256zM860.9792 622.2848a10.24 10.24 0 0 0 0-15.7184l-127.3856-106.1888A10.24 10.24 0 0 0 716.8 508.2624V720.5376a10.24 10.24 0 0 0 16.7936 7.8848zM214.2208 606.5152a10.24 10.24 0 0 0 0 15.7184l127.3856 106.1888A10.24 10.24 0 0 0 358.4 720.5376v-212.2752a10.24 10.24 0 0 0-16.7936-7.8848z"  horiz-adv-x="1024" />

    
    <glyph glyph-name="float-top" unicode="&#59450;" d="M460.9024 460.8h-23.4496c26.112 1.1264 47.36 22.016 48.9472 48.128v-22.5792a25.6 25.6 0 0 0-25.4976-25.5488z m-181.6064 0h-23.2448a25.6512 25.6512 0 0 0-25.7024 25.5488V691.2c0 14.0288 11.5712 25.4976 25.7024 25.4976h22.3232a51.2 51.2 0 0 1-47.9232-51.0464v-153.5488c0-27.5456 21.7088-50.1248 48.8448-51.3024zM486.4 668.8256a51.3024 51.3024 0 0 1-48.0256 47.872h22.528c14.0288 0 25.4976-11.4688 25.4976-25.4976v-22.3744zM460.9024 435.2H256.0512a51.3024 51.3024 0 0 0-51.3024 51.1488V691.2a51.2 51.2 0 0 0 51.3024 51.0976h204.8512c28.16 0 51.0976-22.8864 51.0976-51.0976v-204.8512A51.2 51.2 0 0 0 460.9024 435.2zM281.6 691.2a25.6 25.6 0 0 1-25.5488-25.5488v-153.5488c0-14.1824 11.4688-25.7536 25.5488-25.7536h153.5488a25.7536 25.7536 0 0 1 25.7536 25.7536V665.6512A25.6512 25.6512 0 0 1 435.1488 691.2H281.6zM460.9024 102.39999999999998h-23.4496c26.112 1.1264 47.36 22.016 48.9472 48.128v-22.5792a25.6 25.6 0 0 0-25.4976-25.5488z m-181.6064 0h-23.2448a25.6512 25.6512 0 0 0-25.7024 25.5488V332.79999999999995c0 14.0288 11.5712 25.4976 25.7024 25.4976h22.3232a51.2 51.2 0 0 1-47.9232-51.0464v-153.5488c0-27.5456 21.7088-50.1248 48.8448-51.3024zM486.4 310.42560000000003a51.3024 51.3024 0 0 1-48.0256 47.872h22.528c14.0288 0 25.4976-11.4688 25.4976-25.4976v-22.3744zM460.9024 76.79999999999995H256.0512a51.3024 51.3024 0 0 0-51.3024 51.1488V332.79999999999995a51.2 51.2 0 0 0 51.3024 51.0976h204.8512c28.16 0 51.0976-22.8864 51.0976-51.0976v-204.8512a51.2 51.2 0 0 0-51.0976-51.1488zM281.6 332.79999999999995a25.6 25.6 0 0 1-25.5488-25.5488v-153.5488c0-14.1824 11.4688-25.7536 25.5488-25.7536h153.5488a25.7536 25.7536 0 0 1 25.7536 25.7536v153.5488A25.6512 25.6512 0 0 1 435.1488 332.79999999999995H281.6zM716.8 76.79999999999995V588.8h51.2v-512zM734.5152 681.7792a10.24 10.24 0 0 0 15.7184 0l106.1888-127.3856a10.24 10.24 0 0 0-7.8848-16.7936h-212.2752a10.24 10.24 0 0 0-7.8848 16.7936z"  horiz-adv-x="1024" />

    
    <glyph glyph-name="float-right" unicode="&#59447;" d="M819.3024 102.39999999999998h-23.4496c26.112 1.1264 47.36 22.016 48.9472 48.128v-22.5792a25.6 25.6 0 0 0-25.4976-25.5488z m-181.6064 0h-23.2448a25.6512 25.6512 0 0 0-25.7024 25.5488V332.79999999999995c0 14.0288 11.5712 25.4976 25.7024 25.4976h22.3744a51.2 51.2 0 0 1-47.9744-51.0464v-153.5488c0-27.5456 21.7088-50.1248 48.8448-51.3024z m207.104 208.0256a51.3024 51.3024 0 0 1-48.0256 47.872h22.528c14.0288 0 25.4976-11.4688 25.4976-25.4976v-22.3744zM819.3024 76.79999999999995h-204.8512a51.3024 51.3024 0 0 0-51.3024 51.1488V332.79999999999995a51.2 51.2 0 0 0 51.3024 51.0976h204.8512c28.16 0 51.0976-22.8864 51.0976-51.0976v-204.8512a51.2 51.2 0 0 0-51.0976-51.1488zM640 332.79999999999995a25.6 25.6 0 0 1-25.5488-25.5488v-153.5488c0-14.1824 11.4688-25.7536 25.5488-25.7536h153.5488a25.7536 25.7536 0 0 1 25.7536 25.7536v153.5488a25.6512 25.6512 0 0 1-25.7536 25.5488H640zM460.9024 102.39999999999998h-23.4496c26.112 1.1264 47.36 22.016 48.9472 48.128v-22.5792a25.6 25.6 0 0 0-25.4976-25.5488z m-181.6064 0h-23.2448a25.6512 25.6512 0 0 0-25.7024 25.5488V332.79999999999995c0 14.0288 11.5712 25.4976 25.7024 25.4976h22.3232a51.2 51.2 0 0 1-47.9232-51.0464v-153.5488c0-27.5456 21.7088-50.1248 48.8448-51.3024zM486.4 310.42560000000003a51.3024 51.3024 0 0 1-48.0256 47.872h22.528c14.0288 0 25.4976-11.4688 25.4976-25.4976v-22.3744zM460.9024 76.79999999999995H256.0512a51.3024 51.3024 0 0 0-51.3024 51.1488V332.79999999999995a51.2 51.2 0 0 0 51.3024 51.0976h204.8512c28.16 0 51.0976-22.8864 51.0976-51.0976v-204.8512a51.2 51.2 0 0 0-51.0976-51.1488zM281.6 332.79999999999995a25.6 25.6 0 0 1-25.5488-25.5488v-153.5488c0-14.1824 11.4688-25.7536 25.5488-25.7536h153.5488a25.7536 25.7536 0 0 1 25.7536 25.7536v153.5488A25.6512 25.6512 0 0 1 435.1488 332.79999999999995H281.6zM256 640h512v-51.2H256zM860.9792 622.2848a10.24 10.24 0 0 0 0-15.7184l-127.3856-106.1888A10.24 10.24 0 0 0 716.8 508.2624V720.5376a10.24 10.24 0 0 0 16.7936 7.8848z"  horiz-adv-x="1024" />

    
    <glyph glyph-name="float-left" unicode="&#59448;" d="M819.3024 102.39999999999998h-23.4496c26.112 1.1264 47.36 22.016 48.9472 48.128v-22.5792a25.6 25.6 0 0 0-25.4976-25.5488z m-181.6064 0h-23.2448a25.6512 25.6512 0 0 0-25.7024 25.5488V332.79999999999995c0 14.0288 11.5712 25.4976 25.7024 25.4976h22.3744a51.2 51.2 0 0 1-47.9744-51.0464v-153.5488c0-27.5456 21.7088-50.1248 48.8448-51.3024z m207.104 208.0256a51.3024 51.3024 0 0 1-48.0256 47.872h22.528c14.0288 0 25.4976-11.4688 25.4976-25.4976v-22.3744zM819.3024 76.79999999999995h-204.8512a51.3024 51.3024 0 0 0-51.3024 51.1488V332.79999999999995a51.2 51.2 0 0 0 51.3024 51.0976h204.8512c28.16 0 51.0976-22.8864 51.0976-51.0976v-204.8512a51.2 51.2 0 0 0-51.0976-51.1488zM640 332.79999999999995a25.6 25.6 0 0 1-25.5488-25.5488v-153.5488c0-14.1824 11.4688-25.7536 25.5488-25.7536h153.5488a25.7536 25.7536 0 0 1 25.7536 25.7536v153.5488a25.6512 25.6512 0 0 1-25.7536 25.5488H640zM460.9024 102.39999999999998h-23.4496c26.112 1.1264 47.36 22.016 48.9472 48.128v-22.5792a25.6 25.6 0 0 0-25.4976-25.5488z m-181.6064 0h-23.2448a25.6512 25.6512 0 0 0-25.7024 25.5488V332.79999999999995c0 14.0288 11.5712 25.4976 25.7024 25.4976h22.3232a51.2 51.2 0 0 1-47.9232-51.0464v-153.5488c0-27.5456 21.7088-50.1248 48.8448-51.3024zM486.4 310.42560000000003a51.3024 51.3024 0 0 1-48.0256 47.872h22.528c14.0288 0 25.4976-11.4688 25.4976-25.4976v-22.3744zM460.9024 76.79999999999995H256.0512a51.3024 51.3024 0 0 0-51.3024 51.1488V332.79999999999995a51.2 51.2 0 0 0 51.3024 51.0976h204.8512c28.16 0 51.0976-22.8864 51.0976-51.0976v-204.8512a51.2 51.2 0 0 0-51.0976-51.1488zM281.6 332.79999999999995a25.6 25.6 0 0 1-25.5488-25.5488v-153.5488c0-14.1824 11.4688-25.7536 25.5488-25.7536h153.5488a25.7536 25.7536 0 0 1 25.7536 25.7536v153.5488A25.6512 25.6512 0 0 1 435.1488 332.79999999999995H281.6zM870.4 588.8H358.4V640h512zM265.4208 606.5152a10.24 10.24 0 0 0 0 15.7184l127.3856 106.1888A10.24 10.24 0 0 0 409.6 720.5376v-212.2752a10.24 10.24 0 0 0-16.7936-7.8848z"  horiz-adv-x="1024" />

    
    <glyph glyph-name="font-no-color" unicode="&#59441;" d="M1828.717714 18.13942899999995h-1316.571428a365.714286 365.714286 0 0 0-365.714286 365.714285 365.714286 365.714286 0 0 0 365.714286 365.714286h1316.571428a365.714286 365.714286 0 0 0 365.714286-365.714286 365.714286 365.714286 0 0 0-365.714286-365.714285z m-1338.514285 585.142857a197.632 197.632 0 0 1-197.193143-197.632v-43.885715a197.485714 197.485714 0 0 1 197.193143-197.193142h1360.457142a197.632 197.632 0 0 1 197.632 197.193142v43.885715a197.778286 197.778286 0 0 1-197.632 197.632zM1355.890227 739.363717m51.71981-51.71981l0 0q51.71981-51.71981 0-103.439621l-517.198103-517.198102q-51.71981-51.71981-103.43962 0l0 0q-51.71981 51.71981 0 103.43962l517.198102 517.198103q51.71981 51.71981 103.439621 0Z"  horiz-adv-x="2340" />

    
    <glyph glyph-name="border-single" unicode="&#59442;" d="M315.076923 896h472.615385v-78.769231H315.076923zM315.076923-49.23076900000001h472.615385v-78.769231H315.076923zM1024 147.69230800000003v472.615384h78.769231v-472.615384zM0 147.69230800000003v472.615384h78.769231v-472.615384z"  horiz-adv-x="1102" />

    
    <glyph glyph-name="border-all" unicode="&#59443;" d="M78.769231 817.230769v-866.461538h945.230769V817.230769H78.769231M0 896h1102.769231v-1024H0V896z"  horiz-adv-x="1102" />

    
    <glyph glyph-name="no-config" unicode="&#59437;" d="M475.428571 40.009142999999995h-28.16a45.933714 45.933714 0 0 0-45.860571 43.154286v0.438857l-6.875429 49.883428a8.118857 8.118857 0 0 1-4.681142 6.509715 306.688 306.688 0 0 0-55.881143 31.744 7.899429 7.899429 0 0 1-4.534857 1.462857 7.68 7.68 0 0 1-2.998858-0.585143l-47.323428-19.017143a47.396571 47.396571 0 0 0-21.138286-4.973714 46.518857 46.518857 0 0 0-40.228571 22.820571l-64.804572 109.714286a44.982857 44.982857 0 0 0 14.628572 61.074286h0.512l40.448 30.793142a8.192 8.192 0 0 1 2.998857 7.314286 274.578286 274.578286 0 0 0 0 63.195429 8.192 8.192 0 0 1-2.998857 7.314285L168.228571 481.499429h-0.438857a45.056 45.056 0 0 0-14.628571 60.781714l64.146286 110.372571a46.884571 46.884571 0 0 0 60.635428 17.993143l47.542857-19.163428a7.972571 7.972571 0 0 1 2.852572-0.512 8.118857 8.118857 0 0 1 5.485714 1.024 299.885714 299.885714 0 0 0 55.954286 31.744 8.118857 8.118857 0 0 1 4.754285 6.144l6.802286 49.883428v0.731429a45.787429 45.787429 0 0 0 45.714286 43.154285h129.755428a45.933714 45.933714 0 0 0 46.226286-43.154285 1.828571 1.828571 0 0 1 0-0.585143l6.948572-49.810286a7.972571 7.972571 0 0 1 4.754285-6.217143 305.664 305.664 0 0 0 56.027429-31.670857 7.314286 7.314286 0 0 1 4.534857-1.462857 8.484571 8.484571 0 0 1 3.072 0.585143l47.689143 18.944h0.365714a47.030857 47.030857 0 0 0 61.074286-17.846857l64.438857-109.714286a45.129143 45.129143 0 0 0-14.628571-61.074286h-0.512l-40.301715-30.646857a7.899429 7.899429 0 0 1-2.998857-7.314286c0.877714-7.314286 1.462857-15.213714 1.682286-22.820571h-55.076572a228.059429 228.059429 0 0 1-3.949714 34.377143l-2.048 10.898286a8.045714 8.045714 0 0 0 2.925714 7.314285l58.002286 43.885715a7.826286 7.826286 0 0 1 2.048 10.24l-50.688 87.113142a7.826286 7.826286 0 0 1-6.729143 3.876572 7.314286 7.314286 0 0 1-3.145143-0.658286l-67.291428-28.452571a8.338286 8.338286 0 0 0-3.145143-0.585143 8.045714 8.045714 0 0 0-5.046857 1.828571l-9.069714 7.68a242.980571 242.980571 0 0 1-75.629715 42.788572L585.142857 645.12a8.045714 8.045714 0 0 0-5.12 6.363429l-10.020571 71.460571a7.826286 7.826286 0 0 1-7.753143 6.802286H461.897143a7.753143 7.753143 0 0 1-7.753143-6.802286l-9.947429-71.606857A7.899429 7.899429 0 0 0 438.857143 644.681143l-10.971429-4.022857a244.882286 244.882286 0 0 1-75.776-42.934857l-9.069714-7.314286a8.118857 8.118857 0 0 0-5.046857-1.755429 7.314286 7.314286 0 0 0-2.925714 0.585143l-68.096 27.428572a8.045714 8.045714 0 0 1-2.852572 0.512 7.826286 7.826286 0 0 1-6.802286-3.876572l-49.956571-85.065143a8.045714 8.045714 0 0 1 2.048-10.313143l58.002286-43.885714a7.826286 7.826286 0 0 0 2.998857-7.68l-2.121143-11.849143a246.125714 246.125714 0 0 1-4.169143-42.861714 253.366857 253.366857 0 0 1 4.096-43.008l1.974857-11.337143a7.314286 7.314286 0 0 0-2.998857-7.314286l-57.929143-43.885714a7.972571 7.972571 0 0 1-1.974857-10.24l50.834286-86.381714a7.826286 7.826286 0 0 1 6.802286-3.949714 7.899429 7.899429 0 0 1 3.145142 0.292571l67.218286 28.525714a7.826286 7.826286 0 0 0 2.998857 0.731429 7.314286 7.314286 0 0 0 4.973715-1.828572l9.216-7.314285a244.809143 244.809143 0 0 1 75.702857-42.788572l10.678857-4.388571a8.118857 8.118857 0 0 0 5.12-6.363429l9.874286-71.606857a7.753143 7.753143 0 0 1 7.753142-6.802286H475.428571v-53.906285z m0 220.598857A155.940571 155.940571 0 1 0 669.988571 420.571429h-55.003428A103.204571 103.204571 0 1 1 475.428571 316.85485700000004v-56.173714zM796.16 351.158857l41.398857-41.398857-258.633143-258.56-41.398857 41.325714zM837.558857 92.525714l-41.398857-41.398857L537.6 309.76l41.325714 41.398857z"  horiz-adv-x="1024" />

    
    <glyph glyph-name="ionic-time" unicode="&#59438;" d="M170.24 173.56799999999998c3.413333-62.037333 27.306667-104.96 71.850667-128.768 22.954667-12.458667 48.810667-18.773333 77.568-18.773333 53.76 0 99.498667 22.442667 137.386666 67.242666 37.973333 44.8 64.853333 135.68 80.725334 272.810667-25.002667-39.594667-55.978667-67.413333-92.842667-83.456a295.253333 295.253333 0 0 0-119.04-24.064c-86.272 0-154.453333 26.88-204.714667 80.64-50.176 53.76-75.264 122.88-75.264 207.530667 0 81.237333 24.746667 152.746667 74.325334 214.357333C169.813333 822.784 242.944 853.589333 339.626667 853.589333c130.56 0 220.501333-58.794667 270.08-176.298666 27.477333-64.512 41.216-145.408 41.216-242.432 0-109.568-16.469333-206.677333-49.322667-291.242667-54.613333-140.8-147.114667-211.285333-277.504-211.285333-87.552 0-153.941333 22.954667-199.424 68.778666C79.189333 46.93333299999995 56.490667 104.36266699999999 56.490667 173.56799999999998h113.749333z m170.666667 183.722667c44.544 0 85.333333 14.762667 122.112 44.117333 36.949333 29.354667 55.381333 80.725333 55.381333 154.026667 0 65.877333-16.554667 114.944-49.749333 147.2-33.109333 32.341333-75.264 48.469333-126.549334 48.469333-54.954667 0-98.645333-18.432-130.901333-55.296-32.341333-36.949333-48.469333-86.186667-48.469333-147.882667 0-58.282667 14.165333-104.618667 42.496-139.093333 28.330667-34.304 73.557333-51.541333 135.68-51.541333z m487.509333 260.693333h130.56v-136.277333h-130.56V617.9839999999999z m0-524.373333h130.56V-42.66666699999996h-130.56V93.61066700000003z m611.242667 180.565333V679.8506669999999L1152.853333 274.17600000000004h286.890667zM1441.536-42.66666699999996V176.04266700000005h-392.533333v110.08L1459.029333 854.869333h94.976v-580.693333h131.925334v-98.133333H1553.92V-42.66666699999996h-112.469333z m383.744 633.770667v86.186667c81.322667 7.936 137.984 21.162667 170.069333 39.765333 32.085333 18.517333 55.978667 62.293333 71.850667 131.498667h88.746667V-42.66666699999996h-119.978667V591.104H1825.28z"  horiz-adv-x="2218" />

    
    <glyph glyph-name="ionic-head-logo" unicode="&#59439;" d="M3884.714667 867.413333l1313.28 0.170667c101.546667 0 138.24-10.581333 175.36-30.464 37.12-19.797333 66.218667-48.896 86.016-86.016 19.882667-37.034667 30.378667-73.813333 30.378666-175.274667v-383.658666c0-101.461333-10.496-138.24-30.378666-175.274667a206.762667 206.762667 0 0 0-86.016-86.016c-34.645333-18.517333-68.949333-29.013333-155.818667-30.293333l-1313.365333-0.170667c-101.461333 0-138.24 10.581333-175.274667 30.464a206.762667 206.762667 0 0 0-86.101333 86.016c-18.432 34.56-28.928 68.949333-30.208 155.818667l-0.170667 403.114666c0 101.461333 10.581333 138.24 30.378667 175.274667A206.762667 206.762667 0 0 0 3728.896 837.12c34.56 18.517333 68.949333 29.013333 155.818667 30.293333z m1313.28-85.162666H3904.256l-33.28-0.426667c-54.784-1.450667-77.994667-7.168-101.802667-19.882667-22.186667-11.946667-39.168-28.842667-51.029333-51.029333-15.018667-28.16-20.309333-55.466667-20.309333-135.082667v-383.658666c0-79.616 5.290667-107.008 20.309333-135.082667 11.946667-22.186667 28.842667-39.082667 51.029333-51.029333 28.16-15.018667 55.466667-20.309333 135.082667-20.309334h1293.909333c79.616 0 106.922667 5.290667 134.997334 20.309334 22.186667 11.946667 39.253333 28.842667 51.029333 51.029333 13.909333 25.941333 19.456 51.2 20.224 117.589333V593.322667l-0.853333 29.866666c-1.962667 44.885333-7.765333 66.133333-19.370667 87.722667a121.429333 121.429333 0 0 1-51.029333 51.029333c-23.722667 12.714667-46.933333 18.432-101.802667 19.882667l-33.28 0.426667zM5575.082667 554.666667v-341.333334a185.173333 185.173333 0 0 1 0 341.333334M3929.002667 696.917333h1244.245333c50.688 0 69.12-5.290667 87.637333-15.189333 18.517333-9.984 33.109333-24.490667 43.008-43.008 9.898667-18.602667 15.189333-36.949333 15.189334-87.722667v-333.994666c0-50.773333-5.290667-69.12-15.189334-87.722667a103.424 103.424 0 0 0-43.008-43.008c-18.517333-9.898667-36.949333-15.189333-87.637333-15.189333H3929.002667c-50.773333 0-69.12 5.290667-87.722667 15.189333a103.424 103.424 0 0 0-43.008 43.008c-9.898667 18.602667-15.189333 36.949333-15.189333 87.722667V550.997333c0 50.773333 5.290667 69.12 15.189333 87.722667 9.984 18.517333 24.490667 33.024 43.008 43.008 18.602667 9.898667 36.949333 15.189333 87.722667 15.189333zM2531.584 672.853333c189.866667 0 372.394667-72.874667 510.037333-203.605333a26.453333 26.453333 0 0 1 37.12 0.256l98.986667 99.84a27.562667 27.562667 0 0 1-0.170667 39.082667c-361.130667 345.770667-930.816 345.770667-1291.946666 0a27.562667 27.562667 0 0 1-0.256-38.997334l98.986666-99.84a26.453333 26.453333 0 0 1 37.205334-0.341333 740.693333 740.693333 0 0 0 510.037333 203.605333z m0-324.949333c104.277333 0 204.885333-38.741333 282.197333-108.629333a26.624 26.624 0 0 1 37.12 0.426666l98.986667 99.84a27.562667 27.562667 0 0 1-0.426667 39.338667 613.717333 613.717333 0 0 1-835.498666 0 27.562667 27.562667 0 0 1-0.426667-39.253333l98.986667-99.84c10.154667-10.24 26.624-10.496 37.034666-0.512a420.608 420.608 0 0 0 282.026667 108.629333z m190.122667-238.336a26.88 26.88 0 0 1-0.853334 39.168 293.376 293.376 0 0 1-378.538666 0 26.88 26.88 0 0 1-0.853334-39.168l171.178667-172.544a26.709333 26.709333 0 0 1 37.973333 0l171.093334 172.544zM85.333333 270.250667h85.333334a85.333333 85.333333 0 0 0 85.333333-85.333334v-170.666666a85.333333 85.333333 0 0 0-85.333333-85.333334H85.333333a85.333333 85.333333 0 0 0-85.333333 85.333334v170.666666a85.333333 85.333333 0 0 0 85.333333 85.333334z m398.250667 170.666666h85.333333a85.333333 85.333333 0 0 0 85.333334-85.333333v-341.333333a85.333333 85.333333 0 0 0-85.333334-85.333334h-85.333333a85.333333 85.333333 0 0 0-85.333333 85.333334v341.333333a85.333333 85.333333 0 0 0 85.333333 85.333333zM881.749333 640h85.333334a85.333333 85.333333 0 0 0 85.333333-85.333333v-540.416a85.333333 85.333333 0 0 0-85.333333-85.333334h-85.333334a85.333333 85.333333 0 0 0-85.333333 85.333334V554.666667a85.333333 85.333333 0 0 0 85.333333 85.333333zM1280 839.082667h85.333333a85.333333 85.333333 0 0 0 85.333334-85.333334v-739.498666a85.333333 85.333333 0 0 0-85.333334-85.333334h-85.333333a85.333333 85.333333 0 0 0-85.333333 85.333334V753.749333a85.333333 85.333333 0 0 0 85.333333 85.333334z"  horiz-adv-x="5717" />

    
    <glyph glyph-name="list" unicode="&#59440;" d="M204.8 691.2h546.133333v-68.266667H204.8zM204.8 418.133333h546.133333v-68.266666H204.8zM204.8 145.06666700000005h546.133333v-68.266667H204.8zM819.2 691.2h68.266667v-68.266667h-68.266667zM819.2 418.133333h68.266667v-68.266666h-68.266667zM819.2 145.06666700000005h68.266667v-68.266667h-68.266667z"  horiz-adv-x="1092" />

    
    <glyph glyph-name="condition-brackets" unicode="&#59431;" d="M0 896m146.285714 0l731.428572 0q146.285714 0 146.285714-146.285714l0-731.428572q0-146.285714-146.285714-146.285714l-731.428572 0q-146.285714 0-146.285714 146.285714l0 731.428572q0 146.285714 146.285714 146.285714ZM360.740571 27.867429000000016a541.257143 541.257143 0 0 0-143.36 373.028571 523.410286 523.410286 0 0 0 144.164572 371.785143h104.521143a565.686857 565.686857 0 0 1-139.849143-370.834286 577.828571 577.828571 0 0 1 138.971428-373.979428z m300.909715 0h-104.448a562.688 562.688 0 0 1 139.849143 370.761142 579.730286 579.730286 0 0 1-138.971429 373.979429h104.521143a540.598857 540.598857 0 0 0 143.286857-373.979429 519.826286 519.826286 0 0 0-144.237714-370.761142z"  horiz-adv-x="1024" />

    
    <glyph glyph-name="condition-add" unicode="&#59432;" d="M0 896m146.285714 0l731.428572 0q146.285714 0 146.285714-146.285714l0-731.428572q0-146.285714-146.285714-146.285714l-731.428572 0q-146.285714 0-146.285714 146.285714l0 731.428572q0 146.285714 146.285714 146.285714ZM438.857143 164.57142899999997v146.285714h-146.285714a73.142857 73.142857 0 0 0-73.142858 73.142857 73.142857 73.142857 0 0 0 73.142858 73.142857h146.285714v146.285714a73.142857 73.142857 0 0 0 73.142857 73.142858 73.142857 73.142857 0 0 0 73.142857-73.142858v-146.285714h146.285714a73.142857 73.142857 0 0 0 73.142858-73.142857 73.142857 73.142857 0 0 0-73.142858-73.142857h-146.285714v-146.285714a73.142857 73.142857 0 0 0-73.142857-73.142858 73.142857 73.142857 0 0 0-73.142857 73.142858z"  horiz-adv-x="1024" />

    
    <glyph glyph-name="condition-del" unicode="&#59433;" d="M0 896m146.285714 0l731.428572 0q146.285714 0 146.285714-146.285714l0-731.428572q0-146.285714-146.285714-146.285714l-731.428572 0q-146.285714 0-146.285714 146.285714l0 731.428572q0 146.285714 146.285714 146.285714ZM219.428571 457.142857m73.142858 0l438.857142 0q73.142857 0 73.142858-73.142857l0 0q0-73.142857-73.142858-73.142857l-438.857142 0q-73.142857 0-73.142858 73.142857l0 0q0 73.142857 73.142858 73.142857Z"  horiz-adv-x="1024" />

    
    </font>
</defs>
</svg>
