<?xml version="1.0" encoding="UTF-8"?>
<svg width="96px" height="34px" viewBox="0 0 96 34" version="1.1" xmlns="http://www.w3.org/2000/svg" xmlns:xlink="http://www.w3.org/1999/xlink">
    <title>轻骑兵_轻骑兵文字-102</title>
    <g id="页面-1" stroke="none" stroke-width="1" fill="none" fill-rule="evenodd">
        <g id="2.3" transform="translate(-64.000000, -24.000000)">
            <g id="轻骑兵_轻骑兵文字-102" transform="translate(64.000000, 24.000000)">
                <rect id="矩形" x="0" y="0" width="96" height="34"></rect>
                <g id="编组" transform="translate(0.000000, 4.000000)" fill="#FFFFFF" fill-rule="nonzero">
                    <path d="M1.822,11.225 L3.819,6.385 L2.172,6.385 L2.627,3.008 L5.22,3.008 L5.815,1.546 L5.114,0.5 L10.789,0.5 L9.772,3.007 L15.552,3.007 L15.097,6.384 L8.407,6.384 L6.411,11.433 L7.987,11.433 L8.548,7.429 L13.241,7.429 L12.646,11.433 L14.047,11.433 L13.556,14.88 L12.156,14.88 L11.875,16.795 L13.838,16.517 L13.347,19.999 L11.385,20.277 L10.65,25.5 L4.974,25.5 L5.605,21.044 L0,21.809 L0.491,18.327 L6.131,17.561 L6.516,14.88 L1.297,14.88 L1.822,11.225 Z M18.321,21.635 L18.952,17.004 L14.818,17.004 L15.273,13.696 L29.67,13.696 L29.215,17.004 L25.011,17.004 L24.381,21.635 L29.249,21.635 L28.794,24.943 L12.996,24.943 L13.451,21.635 L18.321,21.635 Z M31.666,1.232 L31.176,4.783 L27.322,7.812 L31.631,12.617 L25.22,12.617 L23.644,10.841 L21.717,12.617 L14.781,12.617 L24.52,4.47 L16.533,4.47 L16.953,1.232 L31.666,1.232 Z" id="形状"></path>
                    <path d="M39.163,16.134 L38.708,19.511 L32.192,20.208 L32.683,16.831 L39.163,16.134 Z M33.034,14.811 L35.801,5.654 L39.444,5.654 L37.762,11.504 L39.514,11.504 L41.791,4.401 L34.925,4.401 L35.38,1.094 L46.345,1.094 L45.89,4.4 L43.682,11.503 L45.154,11.503 L43.507,23.167 C43.414,23.817 43.105,24.363 42.579,24.804 C42.054,25.244 41.464,25.465 40.81,25.465 L34.365,25.465 L36.607,22.088 L39.095,22.088 L40.146,14.811 L33.034,14.811 Z M54.927,14.149 L53.77,22.331 L44.803,22.331 L45.959,14.149 L54.927,14.149 Z M62.809,9.971 L62.388,13.14 L61.022,13.14 L59.516,23.795 C59.447,24.283 59.202,24.689 58.781,25.014 C58.361,25.339 57.894,25.501 57.381,25.501 L52.51,25.501 L54.787,23.098 L56.223,13.14 L45.819,13.14 L46.239,9.971 L62.809,9.971 L62.809,9.971 Z M49.427,5.34 L46.87,5.34 L47.325,2.137 L51.984,2.137 L53.281,0.5 L58.851,0.5 L57.52,2.137 L63.93,2.137 L63.475,5.34 L60.988,5.34 L62.984,9.1 L57.625,9.1 L55.663,5.34 L54.963,5.34 L51.951,9.1 L46.451,9.1 L49.427,5.34 Z M50.898,16.691 L49.287,16.691 L48.867,19.65 L50.478,19.65 L50.898,16.691 Z" id="形状"></path>
                    <path d="M72.441,25.5 L65.576,25.5 L69.744,19.337 L76.715,19.337 L72.441,25.5 Z M69.323,15.124 L71.074,2.763 L70.058,1.405 L95,0.709 L94.509,4.086 L77.485,4.573 L77.065,7.359 L94.754,7.359 L94.334,10.493 L91.392,10.493 L90.726,15.124 L94.895,15.124 L94.404,18.466 L65.891,18.466 L66.381,15.124 L69.323,15.124 L69.323,15.124 Z M75.979,15.124 L83.895,15.124 L84.561,10.493 L76.644,10.493 L75.979,15.124 Z M82.844,19.337 L89.886,19.337 L92.688,25.5 L85.683,25.5 L82.844,19.337 Z" id="形状"></path>
                </g>
            </g>
        </g>
    </g>
</svg>