<?xml version="1.0" encoding="UTF-8"?>
<svg width="16px" height="16px" viewBox="0 0 16 16" version="1.1" xmlns="http://www.w3.org/2000/svg" xmlns:xlink="http://www.w3.org/1999/xlink">
    <title></title>
    <g id="适配" stroke="none" stroke-width="1" fill="none" fill-rule="evenodd">
        <g id="7.5树结构切图" transform="translate(-276.000000, -45.000000)">
            <g id="轻骑兵_文件夹" transform="translate(276.000000, 45.000000)">
                <rect id="矩形" opacity="0" x="0" y="0" width="16" height="16"></rect>
                <path class="svg-rect" d="M13,13 L3,13 C2.448,13 2,12.552 2,12 L2,4 L13,4 C13.552,4 14,4.448 14,5 L14,12 C14,12.552 13.552,13 13,13 Z" id="路径" fill="#045340" fill-rule="nonzero"></path>
                <path class="svg-rect" d="M7,5 L3,5 C2.448,5 2,4.552 2,4 L2,4 C2,3.448 2.448,3 3,3 L7,3 C7.552,3 8,3.448 8,4 L8,4 C8,4.552 7.552,5 7,5 Z" id="路径" fill="#045340" fill-rule="nonzero"></path>
            </g>
        </g>
    </g>
</svg>
