<?xml version="1.0" standalone="no"?><!DOCTYPE svg PUBLIC "-//W3C//DTD SVG 1.1//EN" "http://www.w3.org/Graphics/SVG/1.1/DTD/svg11.dtd"><svg t="1627542279702" class="icon" viewBox="0 0 1024 1024" version="1.1" xmlns="http://www.w3.org/2000/svg" p-id="34346" xmlns:xlink="http://www.w3.org/1999/xlink" width="200" height="200"><defs><style type="text/css">@font-face { font-family: feedback-iconfont; src: url("//at.alicdn.com/t/font_1031158_1uhr8ri0pk5.eot?#iefix") format("embedded-opentype"), url("//at.alicdn.com/t/font_1031158_1uhr8ri0pk5.woff2") format("woff2"), url("//at.alicdn.com/t/font_1031158_1uhr8ri0pk5.woff") format("woff"), url("//at.alicdn.com/t/font_1031158_1uhr8ri0pk5.ttf") format("truetype"), url("//at.alicdn.com/t/font_1031158_1uhr8ri0pk5.svg#iconfont") format("svg"); }
</style></defs><path d="M288 192a32 32 0 0 0 32-32v-128a32 32 0 0 0-64 0v128a32 32 0 0 0 32 32zM736 192a32 32 0 0 0 32-32v-128a32 32 0 0 0-64 0v128a32 32 0 0 0 32 32z" fill="#FFFFFF" p-id="34347"></path><path d="M896 64h-64v64h64v832H128V128h64V64H128a64 64 0 0 0-64 64v832a64 64 0 0 0 64 64h768a64 64 0 0 0 64-64V128a64 64 0 0 0-64-64z" fill="#FFFFFF" p-id="34348"></path><path d="M416 128h192a32 32 0 0 0 0-64h-192a32 32 0 0 0 0 64zM695.04 459.52l-128-128A30.08 30.08 0 0 0 544.64 320a30.08 30.08 0 0 0-22.4 8.96l-128 128a30.72 30.72 0 0 0 43.52 43.52L512 427.52v372.48a32 32 0 0 0 64 0V427.52l75.52 75.52a30.72 30.72 0 0 0 43.52-43.52z" fill="#FFFFFF" p-id="34349"></path></svg>