<?xml version="1.0" standalone="no"?>
<!DOCTYPE svg PUBLIC "-//W3C//DTD SVG 1.1//EN" "http://www.w3.org/Graphics/SVG/1.1/DTD/svg11.dtd" >
<svg xmlns="http://www.w3.org/2000/svg">
  <metadata>Created by iconfont</metadata>
  <defs>
  <font id="lcdpFont" horiz-adv-x="1024">
    <font-face
      font-family="lcdpFont"
      font-weight="400"
      font-stretch="normal"
      units-per-em="1024"
      ascent="896"
      descent="-128"
    />
      <missing-glyph />
      
      <glyph glyph-name="default-img" unicode="&#59549;" d="M294.4 601.6m-115.2 0a115.2 115.2 0 1 1 230.4 0 115.2 115.2 0 1 1-230.4 0ZM204.8 213.32479999999998C228.2752 292.9664 262.4 332.79999999999995 307.2 332.79999999999995c67.2 0 86.4-76.8 153.6-76.8s92.8 332.8 204.8 332.8c128 0 153.6-190.1824 153.6-282.8288V51.200000000000045H204.8v162.1248zM921.6 793.6H102.4v-819.2h819.2V793.6z m25.6 51.2a25.6 25.6 0 0 0 25.6-25.6v-870.4a25.6 25.6 0 0 0-25.6-25.6H76.8a25.6 25.6 0 0 0-25.6 25.6V819.2a25.6 25.6 0 0 0 25.6 25.6h870.4z"  horiz-adv-x="1024" />
      
      <glyph glyph-name="morenyangshi_xiazai" unicode="&#59540;" d="M192 128h704v-64H192zM512 768h64v-576H512zM542.592 128L256 403.328l46.912 44.544 239.936-230.464L785.344 448l46.656-44.8z"  horiz-adv-x="1024" />
      
      <glyph glyph-name="morenyangshi_shexiangtou" unicode="&#59537;" d="M512 768a320 320 0 1 1 0.064-640.064A320 320 0 0 1 512 768zM352 576a32 32 0 1 0 0 64 32 32 0 0 0 0-64zM512 320a128 128 0 1 0-0.064 255.936A128 128 0 0 0 512 320zM775.552 169.28a382.272 382.272 0 0 0-527.104 0L192 0h640l-56.448 169.28z"  horiz-adv-x="1024" />
      
      <glyph glyph-name="morenyangshi_shangchuanshibaitishi" unicode="&#59538;" d="M512.298667 810.666667c-235.648 0-426.666667-191.018667-426.666667-426.666667s191.018667-426.666667 426.666667-426.666667 426.666667 191.018667 426.666666 426.666667-191.018667 426.666667-426.666666 426.666667z m0-810.666667c-211.754667 0-384 172.245333-384 384s172.245333 384 384 384 384-172.245333 384-384-172.245333-384-384-384zM469.333333 640h85.333334v-384h-85.333334zM469.333333 213.33333300000004h85.333334v-85.333333h-85.333334z"  horiz-adv-x="1024" />
      
      <glyph glyph-name="morenyangshi_wenbenlei" unicode="&#59539;" d="M704 576V672L800 576H704z m128-576H256V704h384v-192h192v-512zM192 768v-832h704V576c-31.68 31.744-158.592 158.72-192 192H192zM320 576h192v-64H320zM320 384h448v-64H320zM320 192h448v-64H320z"  horiz-adv-x="1024" />
      
      <glyph glyph-name="shangchuan" unicode="&#59525;" d="M807.04 507.968a320.128 320.128 0 0 1-590.08 0A192 192 0 0 1 256 128h128v64H256c-70.592 0-128 57.408-128 128 0 60.416 42.88 113.152 101.888 125.312l32.96 6.784 13.12 31.104A255.552 255.552 0 0 0 512 640c103.296 0 195.968-61.568 236.032-156.8l13.056-31.04 32.96-6.784A128.448 128.448 0 0 0 896 320c0-70.592-57.408-128-128-128h-64v-64h64a192 192 0 0 1 39.04 379.968zM670.848 318.72L587.84 402.24l0.128 0.128-44.928 45.248-0.192-0.128-0.128 0.128-44.928-45.248 0.128-0.128L414.848 318.72l44.992-45.248 52.16 52.48V64h64V323.712l49.92-50.24z"  horiz-adv-x="1024" />
      
      <glyph glyph-name="a-gongzuoliu_danyiwangguanbohui" unicode="&#59527;" d="M512 768l384-384-384-384L128 384zM512 768l384-384-384-384L128 384 512 768m0 21.333333L106.666667 384l405.333333-405.333333 405.333333 405.333333L512 789.333333zM618.666667 460.181333L588.181333 490.666667 512 414.485333 435.818667 490.666667 405.333333 460.181333 481.514667 384 405.333333 307.818667 435.818667 277.333333 512 353.514667 588.181333 277.333333 618.666667 307.818667 542.485333 384z"  horiz-adv-x="1024" />
      
      <glyph glyph-name="a-gongzuoliu_binghangwangguanbohui" unicode="&#59528;" d="M512 768l384-384-384-384L128 384zM640 405.333333h-106.666667v106.666667h-42.666666v-106.666667h-106.666667v-42.666666h106.666667v-106.666667h42.666666v106.666667h106.666667zM512 768l384-384-384-384L128 384 512 768m0 21.333333L106.666667 384l405.333333-405.333333 405.333333 405.333333L512 789.333333z"  horiz-adv-x="1024" />
      
      <glyph glyph-name="a-gongzuoliu_duoluwangguanbohui" unicode="&#59529;" d="M512 768l384-384-384-384L128 384zM512 768l384-384-384-384L128 384 512 768m0 21.333333L106.666667 384l405.333333-405.333333 405.333333 405.333333L512 789.333333zM512 469.333333c47.061333 0 85.333333-38.272 85.333333-85.333333s-38.272-85.333333-85.333333-85.333333-85.333333 38.272-85.333333 85.333333 38.272 85.333333 85.333333 85.333333m0 42.666667a128 128 0 1 1 0-256 128 128 0 0 1 0 256z"  horiz-adv-x="1024" />
      
      <glyph glyph-name="gongzuoliu_kaishi-24" unicode="&#59521;" d="M512 384m-341.333333 0a341.333333 341.333333 0 1 1 682.666666 0 341.333333 341.333333 0 1 1-682.666666 0ZM426.666667 234.666667V533.333333l256-149.333333zM512 725.333333c188.202667 0 341.333333-153.130667 341.333333-341.333333s-153.130667-341.333333-341.333333-341.333333S170.666667 195.797333 170.666667 384 323.797333 725.333333 512 725.333333m0 21.333334C311.701333 746.666667 149.333333 584.298667 149.333333 384s162.368-362.666667 362.666667-362.666667 362.666667 162.368 362.666667 362.666667S712.298667 746.666667 512 746.666667z"  horiz-adv-x="1024" />
      
      <glyph glyph-name="gongzuoliu_jieshu-25" unicode="&#59522;" d="M512 384m-341.333333 0a341.333333 341.333333 0 1 1 682.666666 0 341.333333 341.333333 0 1 1-682.666666 0ZM405.333333 490.666667h213.333334v-213.333334H405.333333zM512 725.333333c188.202667 0 341.333333-153.130667 341.333333-341.333333s-153.130667-341.333333-341.333333-341.333333S170.666667 195.797333 170.666667 384 323.797333 725.333333 512 725.333333m0 21.333334C311.701333 746.666667 149.333333 584.298667 149.333333 384s162.368-362.666667 362.666667-362.666667 362.666667 162.368 362.666667 362.666667S712.298667 746.666667 512 746.666667z"  horiz-adv-x="1024" />
      
      <glyph glyph-name="a-gongzuoliu_danyiwangguanweiwancheng" unicode="&#59511;" d="M512 768l384-384-384-384L128 384zM512 768l384-384-384-384L128 384 512 768m0 21.333333L106.666667 384l405.333333-405.333333 405.333333 405.333333L512 789.333333zM618.666667 460.181333L588.181333 490.666667 512 414.485333 435.818667 490.666667 405.333333 460.181333 481.514667 384 405.333333 307.818667 435.818667 277.333333 512 353.514667 588.181333 277.333333 618.666667 307.818667 542.485333 384z"  horiz-adv-x="1024" />
      
      <glyph glyph-name="a-gongzuoliu_fuwuzujianweiwancheng" unicode="&#59512;" d="M874.666667 42.666667H149.333333a42.666667 42.666667 0 0 0-42.666666 42.666666V682.666667a42.666667 42.666667 0 0 0 42.666666 42.666666h725.333334a42.666667 42.666667 0 0 0 42.666666-42.666666v-597.333334a42.666667 42.666667 0 0 0-42.666666-42.666666zM874.666667 704c11.754667 0 21.333333-9.578667 21.333333-21.333333v-597.333334c0-11.754667-9.578667-21.333333-21.333333-21.333333H149.333333c-11.754667 0-21.333333 9.578667-21.333333 21.333333V682.666667c0 11.754667 9.578667 21.333333 21.333333 21.333333h725.333334m0 21.333333H149.333333a42.666667 42.666667 0 0 1-42.666666-42.666666v-597.333334a42.666667 42.666667 0 0 1 42.666666-42.666666h725.333334a42.666667 42.666667 0 0 1 42.666666 42.666666V682.666667a42.666667 42.666667 0 0 1-42.666666 42.666666zM341.333333 298.666667c0-47.125333 42.986667-85.333333 96-85.333334s96 38.208 96 85.333334v170.666666c0 23.530667 23.936 42.666667 53.333334 42.666667s53.333333-19.136 53.333333-42.666667v-170.666666h-42.666667l64-85.333334 64 85.333334h-42.666666v170.666666c0 47.125333-42.986667 85.333333-96 85.333334S490.666667 516.458667 490.666667 469.333333v-170.666666c0-23.530667-23.936-42.666667-53.333334-42.666667s-53.333333 19.136-53.333333 42.666667v170.666666h42.666667l-64 85.333334-64-85.333334h42.666666v-170.666666z"  horiz-adv-x="1024" />
      
      <glyph glyph-name="a-gongzuoliu_duoluwangguanweiwancheng" unicode="&#59513;" d="M512 768l384-384-384-384L128 384zM512 768l384-384-384-384L128 384 512 768m0 21.333333L106.666667 384l405.333333-405.333333 405.333333 405.333333L512 789.333333zM512 469.333333c47.061333 0 85.333333-38.272 85.333333-85.333333s-38.272-85.333333-85.333333-85.333333-85.333333 38.272-85.333333 85.333333 38.272 85.333333 85.333333 85.333333m0 42.666667a128 128 0 1 1 0-256 128 128 0 0 1 0 256z"  horiz-adv-x="1024" />
      
      <glyph glyph-name="a-gongzuoliu_binghangwangguanweiwancheng" unicode="&#59514;" d="M512 768l384-384-384-384L128 384zM640 405.333333h-106.666667v106.666667h-42.666666v-106.666667h-106.666667v-42.666666h106.666667v-106.666667h42.666666v106.666667h106.666667zM512 768l384-384-384-384L128 384 512 768m0 21.333333L106.666667 384l405.333333-405.333333 405.333333 405.333333L512 789.333333z"  horiz-adv-x="1024" />
      
      <glyph glyph-name="a-gongzuoliu_ziliuchenghuiqianweiwancheng" unicode="&#59515;" d="M874.666667 42.666667H149.333333a42.666667 42.666667 0 0 0-42.666666 42.666666V682.666667a42.666667 42.666667 0 0 0 42.666666 42.666666h725.333334a42.666667 42.666667 0 0 0 42.666666-42.666666v-597.333334a42.666667 42.666667 0 0 0-42.666666-42.666666zM874.666667 704c11.754667 0 21.333333-9.578667 21.333333-21.333333v-597.333334c0-11.754667-9.578667-21.333333-21.333333-21.333333H149.333333c-11.754667 0-21.333333 9.578667-21.333333 21.333333V682.666667c0 11.754667 9.578667 21.333333 21.333333 21.333333h725.333334m0 21.333333H149.333333a42.666667 42.666667 0 0 1-42.666666-42.666666v-597.333334a42.666667 42.666667 0 0 1 42.666666-42.666666h725.333334a42.666667 42.666667 0 0 1 42.666666 42.666666V682.666667a42.666667 42.666667 0 0 1-42.666666 42.666666zM192 704h21.333333v-640H192zM810.666667 704h21.333333v-640h-21.333333zM362.666667 704v-412.8a74.453333 74.453333 0 0 1-42.666667-67.2 74.666667 74.666667 0 1 1 149.333333 0 74.453333 74.453333 0 0 1-64 73.6V320h174.592A63.786667 63.786667 0 0 1 640 277.333333a64 64 0 1 1 0 128 63.786667 63.786667 0 0 1-60.074667-42.666666H405.333333v149.333333h174.592A63.786667 63.786667 0 0 1 640 469.333333a64 64 0 1 1 0 128 63.786667 63.786667 0 0 1-60.074667-42.666666H405.333333V704h-42.666666z m74.666666-469.333333a10.666667 10.666667 0 0 0 0-21.333334H405.333333v-32a10.666667 10.666667 0 0 0-21.333333 0V213.333333h-32a10.666667 10.666667 0 0 0 0 21.333334H384v32a10.666667 10.666667 0 0 0 21.333333 0V234.666667h32z"  horiz-adv-x="1024" />
      
      <glyph glyph-name="a-gongzuoliu_waibuziliuchengweiwancheng" unicode="&#59516;" d="M874.666667 42.666667H149.333333a42.666667 42.666667 0 0 0-42.666666 42.666666V682.666667a42.666667 42.666667 0 0 0 42.666666 42.666666h725.333334a42.666667 42.666667 0 0 0 42.666666-42.666666v-597.333334a42.666667 42.666667 0 0 0-42.666666-42.666666zM874.666667 704c11.754667 0 21.333333-9.578667 21.333333-21.333333v-597.333334c0-11.754667-9.578667-21.333333-21.333333-21.333333H149.333333c-11.754667 0-21.333333 9.578667-21.333333 21.333333V682.666667c0 11.754667 9.578667 21.333333 21.333333 21.333333h725.333334m0 21.333333H149.333333a42.666667 42.666667 0 0 1-42.666666-42.666666v-597.333334a42.666667 42.666667 0 0 1 42.666666-42.666666h725.333334a42.666667 42.666667 0 0 1 42.666666 42.666666V682.666667a42.666667 42.666667 0 0 1-42.666666 42.666666zM192 704h21.333333v-640H192zM810.666667 704h21.333333v-640h-21.333333zM618.666667 384a63.786667 63.786667 0 0 1-60.074667-42.666667H384v149.333334h174.592A63.829333 63.829333 0 0 1 682.666667 512a64 64 0 0 1-64 64 63.786667 63.786667 0 0 1-60.074667-42.666667H384V704h-42.666667v-405.333333h217.258667A63.829333 63.829333 0 0 1 682.666667 320a64 64 0 0 1-64 64z"  horiz-adv-x="1024" />
      
      <glyph glyph-name="a-gongzuoliu_rengonghuodongweiwancheng" unicode="&#59517;" d="M874.666667 42.666667H149.333333a42.666667 42.666667 0 0 0-42.666666 42.666666V682.666667a42.666667 42.666667 0 0 0 42.666666 42.666666h725.333334a42.666667 42.666667 0 0 0 42.666666-42.666666v-597.333334a42.666667 42.666667 0 0 0-42.666666-42.666666zM874.666667 704c11.754667 0 21.333333-9.578667 21.333333-21.333333v-597.333334c0-11.754667-9.578667-21.333333-21.333333-21.333333H149.333333c-11.754667 0-21.333333 9.578667-21.333333 21.333333V682.666667c0 11.754667 9.578667 21.333333 21.333333 21.333333h725.333334m0 21.333333H149.333333a42.666667 42.666667 0 0 1-42.666666-42.666666v-597.333334a42.666667 42.666667 0 0 1 42.666666-42.666666h725.333334a42.666667 42.666667 0 0 1 42.666666 42.666666V682.666667a42.666667 42.666667 0 0 1-42.666666 42.666666zM469.333333 298.666667l42.666667 42.666666 42.666667-42.666666-42.666667-42.666667zM512 341.333333c82.346667 0 149.333333-66.986667 149.333333-149.333333h42.666667c0 87.637333-59.562667 161.856-140.16 184.64C596.394667 394.901333 618.666667 429.333333 618.666667 469.333333a106.666667 106.666667 0 0 1-213.333334 0c0-40 22.272-74.432 54.826667-92.693333C379.562667 353.856 320 279.637333 320 192h42.666667c0 82.346667 66.986667 149.333333 149.333333 149.333333z m0 192c35.285333 0 64-28.714667 64-64s-28.714667-64-64-64-64 28.714667-64 64 28.714667 64 64 64z"  horiz-adv-x="1024" />
      
      <glyph glyph-name="a-gongzuoliu_jieshourenwuweiwancheng" unicode="&#59518;" d="M874.666667 42.666667H149.333333a42.666667 42.666667 0 0 0-42.666666 42.666666V682.666667a42.666667 42.666667 0 0 0 42.666666 42.666666h725.333334a42.666667 42.666667 0 0 0 42.666666-42.666666v-597.333334a42.666667 42.666667 0 0 0-42.666666-42.666666zM874.666667 704c11.754667 0 21.333333-9.578667 21.333333-21.333333v-597.333334c0-11.754667-9.578667-21.333333-21.333333-21.333333H149.333333c-11.754667 0-21.333333 9.578667-21.333333 21.333333V682.666667c0 11.754667 9.578667 21.333333 21.333333 21.333333h725.333334m0 21.333333H149.333333a42.666667 42.666667 0 0 1-42.666666-42.666666v-597.333334a42.666667 42.666667 0 0 1 42.666666-42.666666h725.333334a42.666667 42.666667 0 0 1 42.666666 42.666666V682.666667a42.666667 42.666667 0 0 1-42.666666 42.666666zM661.333333 384v192H362.666667v-192h-42.666667v-192h384v192h-42.666667z m-256 149.333333h213.333334v-149.333333h-42.666667a64 64 0 1 0-128 0h-42.666667v149.333333z m256-298.666666H362.666667v106.666666h51.584c16.490667-37.632 54.101333-64 97.749333-64s81.28 26.368 97.770667 64H661.333333v-106.666666zM576 426.666667h-42.666667v85.333333h-42.666666v-85.333333h-42.666667l64-64z"  horiz-adv-x="1024" />
      
      <glyph glyph-name="a-gongzuoliu_duorenhuiqianweiwancheng" unicode="&#59519;" d="M874.666667 42.666667H149.333333a42.666667 42.666667 0 0 0-42.666666 42.666666V682.666667a42.666667 42.666667 0 0 0 42.666666 42.666666h725.333334a42.666667 42.666667 0 0 0 42.666666-42.666666v-597.333334a42.666667 42.666667 0 0 0-42.666666-42.666666zM874.666667 704c11.754667 0 21.333333-9.578667 21.333333-21.333333v-597.333334c0-11.754667-9.578667-21.333333-21.333333-21.333333H149.333333c-11.754667 0-21.333333 9.578667-21.333333 21.333333V682.666667c0 11.754667 9.578667 21.333333 21.333333 21.333333h725.333334m0 21.333333H149.333333a42.666667 42.666667 0 0 1-42.666666-42.666666v-597.333334a42.666667 42.666667 0 0 1 42.666666-42.666666h725.333334a42.666667 42.666667 0 0 1 42.666666 42.666666V682.666667a42.666667 42.666667 0 0 1-42.666666 42.666666zM634.048 391.808A95.530667 95.530667 0 0 1 661.333333 458.666667c0 49.365333-37.397333 89.557333-85.333333 94.933333v-42.666667c24.32-4.949333 42.666667-26.496 42.666667-52.245333s-18.346667-47.296-42.666667-52.245333v-44.266667a138.752 138.752 0 0 0 127.466667-127.488h42.666666a181.44 181.44 0 0 1-112.085333 157.12zM508.522667 376.981333A95.68 95.68 0 0 1 554.666667 458.666667a96 96 0 0 1-192 0c0-34.688 18.581333-64.810667 46.144-81.685334-72.810667-20.693333-126.912-85.504-131.477334-163.648h42.794667c5.248 68.266667 60.202667 122.752 128.789333 127.530667L416 307.946667l42.666667-42.666667 42.666666 42.666667-32.917333 32.917333c68.586667-4.778667 123.541333-59.264 128.789333-127.530667H640c-4.565333 78.144-58.666667 142.954667-131.477333 163.648zM458.666667 405.333333c-29.397333 0-53.333333 23.936-53.333334 53.333334s23.936 53.333333 53.333334 53.333333 53.333333-23.936 53.333333-53.333333-23.936-53.333333-53.333333-53.333334z"  horiz-adv-x="1024" />
      
      <glyph glyph-name="a-gongzuoliu_dongtaijiedianweiwancheng" unicode="&#59520;" d="M874.666667 42.666667H149.333333a42.666667 42.666667 0 0 0-42.666666 42.666666V682.666667a42.666667 42.666667 0 0 0 42.666666 42.666666h725.333334a42.666667 42.666667 0 0 0 42.666666-42.666666v-597.333334a42.666667 42.666667 0 0 0-42.666666-42.666666zM874.666667 704c11.754667 0 21.333333-9.578667 21.333333-21.333333v-597.333334c0-11.754667-9.578667-21.333333-21.333333-21.333333H149.333333c-11.754667 0-21.333333 9.578667-21.333333 21.333333V682.666667c0 11.754667 9.578667 21.333333 21.333333 21.333333h725.333334m0 21.333333H149.333333a42.666667 42.666667 0 0 1-42.666666-42.666666v-597.333334a42.666667 42.666667 0 0 1 42.666666-42.666666h725.333334a42.666667 42.666667 0 0 1 42.666666 42.666666V682.666667a42.666667 42.666667 0 0 1-42.666666 42.666666zM512 469.077333c35.349333 0 64 28.714667 64 64.128A64.064 64.064 0 0 1 512 597.333333c-35.349333 0-64-28.714667-64-64.128a64.064 64.064 0 0 1 64-64.128zM661.333333 362.197333c-35.349333 0-64-28.714667-64-64.128a64.064 64.064 0 0 1 64-64.128c35.349333 0 64 28.714667 64 64.128a64.042667 64.042667 0 0 1-64 64.128zM362.666667 362.197333c-35.349333 0-64-28.714667-64-64.128a64.064 64.064 0 0 1 64-64.128c35.349333 0 64 28.714667 64 64.128a64.042667 64.042667 0 0 1-64 64.128z m0-106.901333c-23.530667 0-42.666667 19.2-42.666667 42.794667 0 23.594667 19.136 42.794667 42.666667 42.794666s42.666667-19.2 42.666666-42.794666a42.773333 42.773333 0 0 0-42.666666-42.794667zM659.648 384.213333c0.576 0.021333 1.109333 0.170667 1.685333 0.170667 7.018667 0 13.738667-1.088 20.266667-2.688a170.858667 170.858667 0 0 1-84.437333 129.344 85.44 85.44 0 0 0-3.776-22.762667 149.696 149.696 0 0 0 66.261333-104.064zM512 213.376a148.181333 148.181333 0 0 0-86.592 27.946667 85.333333 85.333333 0 0 0-16.682667-14.250667 169.557333 169.557333 0 0 1 206.549334 0.021333 85.866667 85.866667 0 0 0-16.682667 14.250667A148.053333 148.053333 0 0 0 512 213.376zM364.352 384.213333a149.653333 149.653333 0 0 0 66.261333 104.064 84.458667 84.458667 0 0 0-3.776 22.762667 170.901333 170.901333 0 0 1-84.437333-129.344 84.693333 84.693333 0 0 0 20.266667 2.688c0.576 0 1.109333-0.170667 1.685333-0.170667z"  horiz-adv-x="1024" />
      
      <glyph glyph-name="a-gongzuoliu_danyiwangguanwancheng" unicode="&#59510;" d="M512 768l384-384-384-384L128 384zM512 768l384-384-384-384L128 384 512 768m0 21.333333L106.666667 384l405.333333-405.333333 405.333333 405.333333L512 789.333333zM618.666667 460.181333L588.181333 490.666667 512 414.485333 435.818667 490.666667 405.333333 460.181333 481.514667 384 405.333333 307.818667 435.818667 277.333333 512 353.514667 588.181333 277.333333 618.666667 307.818667 542.485333 384z"  horiz-adv-x="1024" />
      
      <glyph glyph-name="a-gongzuoliu_rengonghuodongwancheng" unicode="&#59501;" d="M874.666667 42.666667H149.333333a42.666667 42.666667 0 0 0-42.666666 42.666666V682.666667a42.666667 42.666667 0 0 0 42.666666 42.666666h725.333334a42.666667 42.666667 0 0 0 42.666666-42.666666v-597.333334a42.666667 42.666667 0 0 0-42.666666-42.666666zM874.666667 704c11.754667 0 21.333333-9.578667 21.333333-21.333333v-597.333334c0-11.754667-9.578667-21.333333-21.333333-21.333333H149.333333c-11.754667 0-21.333333 9.578667-21.333333 21.333333V682.666667c0 11.754667 9.578667 21.333333 21.333333 21.333333h725.333334m0 21.333333H149.333333a42.666667 42.666667 0 0 1-42.666666-42.666666v-597.333334a42.666667 42.666667 0 0 1 42.666666-42.666666h725.333334a42.666667 42.666667 0 0 1 42.666666 42.666666V682.666667a42.666667 42.666667 0 0 1-42.666666 42.666666zM469.333333 298.666667l42.666667 42.666666 42.666667-42.666666-42.666667-42.666667zM512 341.333333c82.346667 0 149.333333-66.986667 149.333333-149.333333h42.666667c0 87.637333-59.562667 161.856-140.16 184.64C596.394667 394.901333 618.666667 429.333333 618.666667 469.333333a106.666667 106.666667 0 0 1-213.333334 0c0-40 22.272-74.432 54.826667-92.693333C379.562667 353.856 320 279.637333 320 192h42.666667c0 82.346667 66.986667 149.333333 149.333333 149.333333z m0 192c35.285333 0 64-28.714667 64-64s-28.714667-64-64-64-64 28.714667-64 64 28.714667 64 64 64z"  horiz-adv-x="1024" />
      
      <glyph glyph-name="a-gongzuoliu_duoluwangguanwancheng" unicode="&#59502;" d="M512 768l384-384-384-384L128 384zM512 768l384-384-384-384L128 384 512 768m0 21.333333L106.666667 384l405.333333-405.333333 405.333333 405.333333L512 789.333333zM512 469.333333c47.061333 0 85.333333-38.272 85.333333-85.333333s-38.272-85.333333-85.333333-85.333333-85.333333 38.272-85.333333 85.333333 38.272 85.333333 85.333333 85.333333m0 42.666667a128 128 0 1 1 0-256 128 128 0 0 1 0 256z"  horiz-adv-x="1024" />
      
      <glyph glyph-name="a-gongzuoliu_jieshourenwuwancheng" unicode="&#59503;" d="M874.666667 42.666667H149.333333a42.666667 42.666667 0 0 0-42.666666 42.666666V682.666667a42.666667 42.666667 0 0 0 42.666666 42.666666h725.333334a42.666667 42.666667 0 0 0 42.666666-42.666666v-597.333334a42.666667 42.666667 0 0 0-42.666666-42.666666zM874.666667 704c11.754667 0 21.333333-9.578667 21.333333-21.333333v-597.333334c0-11.754667-9.578667-21.333333-21.333333-21.333333H149.333333c-11.754667 0-21.333333 9.578667-21.333333 21.333333V682.666667c0 11.754667 9.578667 21.333333 21.333333 21.333333h725.333334m0 21.333333H149.333333a42.666667 42.666667 0 0 1-42.666666-42.666666v-597.333334a42.666667 42.666667 0 0 1 42.666666-42.666666h725.333334a42.666667 42.666667 0 0 1 42.666666 42.666666V682.666667a42.666667 42.666667 0 0 1-42.666666 42.666666zM661.333333 384v192H362.666667v-192h-42.666667v-192h384v192h-42.666667z m-256 149.333333h213.333334v-149.333333h-42.666667a64 64 0 1 0-128 0h-42.666667v149.333333z m256-298.666666H362.666667v106.666666h51.584c16.490667-37.632 54.101333-64 97.749333-64s81.28 26.368 97.770667 64H661.333333v-106.666666zM576 426.666667h-42.666667v85.333333h-42.666666v-85.333333h-42.666667l64-64z"  horiz-adv-x="1024" />
      
      <glyph glyph-name="a-gongzuoliu_dongtaijiedianwancheng" unicode="&#59504;" d="M874.666667 42.666667H149.333333a42.666667 42.666667 0 0 0-42.666666 42.666666V682.666667a42.666667 42.666667 0 0 0 42.666666 42.666666h725.333334a42.666667 42.666667 0 0 0 42.666666-42.666666v-597.333334a42.666667 42.666667 0 0 0-42.666666-42.666666zM874.666667 704c11.754667 0 21.333333-9.578667 21.333333-21.333333v-597.333334c0-11.754667-9.578667-21.333333-21.333333-21.333333H149.333333c-11.754667 0-21.333333 9.578667-21.333333 21.333333V682.666667c0 11.754667 9.578667 21.333333 21.333333 21.333333h725.333334m0 21.333333H149.333333a42.666667 42.666667 0 0 1-42.666666-42.666666v-597.333334a42.666667 42.666667 0 0 1 42.666666-42.666666h725.333334a42.666667 42.666667 0 0 1 42.666666 42.666666V682.666667a42.666667 42.666667 0 0 1-42.666666 42.666666zM448 533.205333a64.128 64 90 1 1 128 0 64.128 64 90 1 1-128 0ZM597.333333 298.090667a64.128 64 90 1 1 128 0 64.128 64 90 1 1-128 0ZM362.666667 340.864c23.530667 0 42.666667-19.2 42.666666-42.794667s-19.136-42.794667-42.666666-42.794666-42.666667 19.2-42.666667 42.794666 19.136 42.794667 42.666667 42.794667m0 21.333333c-35.349333 0-64-28.714667-64-64.128 0-35.413333 28.650667-64.128 64-64.128s64 28.714667 64 64.128a64.042667 64.042667 0 0 1-64 64.128zM593.386667 488.277333a149.696 149.696 0 0 0 66.261333-104.085333c0.576 0.021333 1.109333 0.170667 1.685333 0.170667 7.018667 0 13.738667-1.088 20.266667-2.688a170.858667 170.858667 0 0 1-84.437333 129.344 83.754667 83.754667 0 0 0-3.776-22.741334zM598.592 241.322667a148.181333 148.181333 0 0 0-173.184 0 85.333333 85.333333 0 0 0-16.682667-14.250667 169.557333 169.557333 0 0 1 206.549334 0.021333 84.522667 84.522667 0 0 0-16.682667 14.229334zM362.666667 384.384c0.576 0 1.109333-0.149333 1.685333-0.170667a149.76 149.76 0 0 0 66.261333 104.085334 84.458667 84.458667 0 0 0-3.776 22.762666 170.901333 170.901333 0 0 1-84.437333-129.344c6.528 1.578667 13.248 2.666667 20.266667 2.666667z"  horiz-adv-x="1024" />
      
      <glyph glyph-name="a-gongzuoliu_ziliuchenghuiqianwancheng" unicode="&#59505;" d="M874.666667 42.666667H149.333333a42.666667 42.666667 0 0 0-42.666666 42.666666V682.666667a42.666667 42.666667 0 0 0 42.666666 42.666666h725.333334a42.666667 42.666667 0 0 0 42.666666-42.666666v-597.333334a42.666667 42.666667 0 0 0-42.666666-42.666666zM874.666667 704c11.754667 0 21.333333-9.578667 21.333333-21.333333v-597.333334c0-11.754667-9.578667-21.333333-21.333333-21.333333H149.333333c-11.754667 0-21.333333 9.578667-21.333333 21.333333V682.666667c0 11.754667 9.578667 21.333333 21.333333 21.333333h725.333334m0 21.333333H149.333333a42.666667 42.666667 0 0 1-42.666666-42.666666v-597.333334a42.666667 42.666667 0 0 1 42.666666-42.666666h725.333334a42.666667 42.666667 0 0 1 42.666666 42.666666V682.666667a42.666667 42.666667 0 0 1-42.666666 42.666666zM192 704h21.333333v-640H192zM810.666667 704h21.333333v-640h-21.333333zM362.666667 704v-412.8a74.453333 74.453333 0 0 1-42.666667-67.2 74.666667 74.666667 0 1 1 149.333333 0 74.453333 74.453333 0 0 1-64 73.6V320h174.592A63.786667 63.786667 0 0 1 640 277.333333a64 64 0 1 1 0 128 63.786667 63.786667 0 0 1-60.074667-42.666666H405.333333v149.333333h174.592A63.786667 63.786667 0 0 1 640 469.333333a64 64 0 1 1 0 128 63.786667 63.786667 0 0 1-60.074667-42.666666H405.333333V704h-42.666666z m74.666666-469.333333a10.666667 10.666667 0 0 0 0-21.333334H405.333333v-32a10.666667 10.666667 0 0 0-21.333333 0V213.333333h-32a10.666667 10.666667 0 0 0 0 21.333334H384v32a10.666667 10.666667 0 0 0 21.333333 0V234.666667h32z"  horiz-adv-x="1024" />
      
      <glyph glyph-name="a-gongzuoliu_fuwuzujianwancheng" unicode="&#59506;" d="M874.666667 42.666667H149.333333a42.666667 42.666667 0 0 0-42.666666 42.666666V682.666667a42.666667 42.666667 0 0 0 42.666666 42.666666h725.333334a42.666667 42.666667 0 0 0 42.666666-42.666666v-597.333334a42.666667 42.666667 0 0 0-42.666666-42.666666zM874.666667 704c11.754667 0 21.333333-9.578667 21.333333-21.333333v-597.333334c0-11.754667-9.578667-21.333333-21.333333-21.333333H149.333333c-11.754667 0-21.333333 9.578667-21.333333 21.333333V682.666667c0 11.754667 9.578667 21.333333 21.333333 21.333333h725.333334m0 21.333333H149.333333a42.666667 42.666667 0 0 1-42.666666-42.666666v-597.333334a42.666667 42.666667 0 0 1 42.666666-42.666666h725.333334a42.666667 42.666667 0 0 1 42.666666 42.666666V682.666667a42.666667 42.666667 0 0 1-42.666666 42.666666zM341.333333 298.666667c0-47.125333 42.986667-85.333333 96-85.333334s96 38.208 96 85.333334v170.666666c0 23.530667 23.936 42.666667 53.333334 42.666667s53.333333-19.136 53.333333-42.666667v-170.666666h-42.666667l64-85.333334 64 85.333334h-42.666666v170.666666c0 47.125333-42.986667 85.333333-96 85.333334S490.666667 516.458667 490.666667 469.333333v-170.666666c0-23.530667-23.936-42.666667-53.333334-42.666667s-53.333333 19.136-53.333333 42.666667v170.666666h42.666667l-64 85.333334-64-85.333334h42.666666v-170.666666z"  horiz-adv-x="1024" />
      
      <glyph glyph-name="a-gongzuoliu_duorenhuiqianwancheng" unicode="&#59507;" d="M874.666667 42.666667H149.333333a42.666667 42.666667 0 0 0-42.666666 42.666666V682.666667a42.666667 42.666667 0 0 0 42.666666 42.666666h725.333334a42.666667 42.666667 0 0 0 42.666666-42.666666v-597.333334a42.666667 42.666667 0 0 0-42.666666-42.666666zM874.666667 704c11.754667 0 21.333333-9.578667 21.333333-21.333333v-597.333334c0-11.754667-9.578667-21.333333-21.333333-21.333333H149.333333c-11.754667 0-21.333333 9.578667-21.333333 21.333333V682.666667c0 11.754667 9.578667 21.333333 21.333333 21.333333h725.333334m0 21.333333H149.333333a42.666667 42.666667 0 0 1-42.666666-42.666666v-597.333334a42.666667 42.666667 0 0 1 42.666666-42.666666h725.333334a42.666667 42.666667 0 0 1 42.666666 42.666666V682.666667a42.666667 42.666667 0 0 1-42.666666 42.666666zM634.048 391.808A95.530667 95.530667 0 0 1 661.333333 458.666667c0 49.365333-37.397333 89.557333-85.333333 94.933333v-42.666667c24.32-4.949333 42.666667-26.496 42.666667-52.245333s-18.346667-47.296-42.666667-52.245333v-44.266667a138.752 138.752 0 0 0 127.466667-127.488h42.666666a181.44 181.44 0 0 1-112.085333 157.12zM508.522667 376.981333A95.68 95.68 0 0 1 554.666667 458.666667a96 96 0 0 1-192 0c0-34.688 18.581333-64.810667 46.144-81.685334-72.810667-20.693333-126.912-85.504-131.477334-163.648h42.794667c5.248 68.266667 60.202667 122.752 128.789333 127.530667L416 307.946667l42.666667-42.666667 42.666666 42.666667-32.917333 32.917333c68.586667-4.778667 123.541333-59.264 128.789333-127.530667H640c-4.565333 78.144-58.666667 142.954667-131.477333 163.648zM458.666667 405.333333c-29.397333 0-53.333333 23.936-53.333334 53.333334s23.936 53.333333 53.333334 53.333333 53.333333-23.936 53.333333-53.333333-23.936-53.333333-53.333333-53.333334z"  horiz-adv-x="1024" />
      
      <glyph glyph-name="a-gongzuoliu_waibuziliuchengwancheng" unicode="&#59508;" d="M874.666667 42.666667H149.333333a42.666667 42.666667 0 0 0-42.666666 42.666666V682.666667a42.666667 42.666667 0 0 0 42.666666 42.666666h725.333334a42.666667 42.666667 0 0 0 42.666666-42.666666v-597.333334a42.666667 42.666667 0 0 0-42.666666-42.666666zM874.666667 704c11.754667 0 21.333333-9.578667 21.333333-21.333333v-597.333334c0-11.754667-9.578667-21.333333-21.333333-21.333333H149.333333c-11.754667 0-21.333333 9.578667-21.333333 21.333333V682.666667c0 11.754667 9.578667 21.333333 21.333333 21.333333h725.333334m0 21.333333H149.333333a42.666667 42.666667 0 0 1-42.666666-42.666666v-597.333334a42.666667 42.666667 0 0 1 42.666666-42.666666h725.333334a42.666667 42.666667 0 0 1 42.666666 42.666666V682.666667a42.666667 42.666667 0 0 1-42.666666 42.666666zM192 704h21.333333v-640H192zM810.666667 704h21.333333v-640h-21.333333zM618.666667 384a63.786667 63.786667 0 0 1-60.074667-42.666667H384v149.333334h174.592A63.829333 63.829333 0 0 1 682.666667 512a64 64 0 0 1-64 64 63.786667 63.786667 0 0 1-60.074667-42.666667H384V704h-42.666667v-405.333333h217.258667A63.829333 63.829333 0 0 1 682.666667 320a64 64 0 0 1-64 64z"  horiz-adv-x="1024" />
      
      <glyph glyph-name="a-gongzuoliu_binghangwangguanwancheng" unicode="&#59509;" d="M512 768l384-384-384-384L128 384zM640 405.333333h-106.666667v106.666667h-42.666666v-106.666667h-106.666667v-42.666666h106.666667v-106.666667h42.666666v106.666667h106.666667zM512 768l384-384-384-384L128 384 512 768m0 21.333333L106.666667 384l405.333333-405.333333 405.333333 405.333333L512 789.333333z"  horiz-adv-x="1024" />
      
      <glyph glyph-name="a-gongzuoliu_jieshourenwujinhangzhong" unicode="&#59499;" d="M874.666667 42.666667H149.333333a42.666667 42.666667 0 0 0-42.666666 42.666666V682.666667a42.666667 42.666667 0 0 0 42.666666 42.666666h725.333334a42.666667 42.666667 0 0 0 42.666666-42.666666v-597.333334a42.666667 42.666667 0 0 0-42.666666-42.666666zM874.666667 704c11.754667 0 21.333333-9.578667 21.333333-21.333333v-597.333334c0-11.754667-9.578667-21.333333-21.333333-21.333333H149.333333c-11.754667 0-21.333333 9.578667-21.333333 21.333333V682.666667c0 11.754667 9.578667 21.333333 21.333333 21.333333h725.333334m0 21.333333H149.333333a42.666667 42.666667 0 0 1-42.666666-42.666666v-597.333334a42.666667 42.666667 0 0 1 42.666666-42.666666h725.333334a42.666667 42.666667 0 0 1 42.666666 42.666666V682.666667a42.666667 42.666667 0 0 1-42.666666 42.666666zM661.333333 384v192H362.666667v-192h-42.666667v-192h384v192h-42.666667z m-256 149.333333h213.333334v-149.333333h-42.666667a64 64 0 1 0-128 0h-42.666667v149.333333z m256-298.666666H362.666667v106.666666h51.584c16.490667-37.632 54.101333-64 97.749333-64s81.28 26.368 97.770667 64H661.333333v-106.666666zM576 426.666667h-42.666667v85.333333h-42.666666v-85.333333h-42.666667l64-64z"  horiz-adv-x="1024" />
      
      <glyph glyph-name="a-gongzuoliu_dongtaijiedianjinhangzhong" unicode="&#59500;" d="M874.666667 42.666667H149.333333a42.666667 42.666667 0 0 0-42.666666 42.666666V682.666667a42.666667 42.666667 0 0 0 42.666666 42.666666h725.333334a42.666667 42.666667 0 0 0 42.666666-42.666666v-597.333334a42.666667 42.666667 0 0 0-42.666666-42.666666zM874.666667 704c11.754667 0 21.333333-9.578667 21.333333-21.333333v-597.333334c0-11.754667-9.578667-21.333333-21.333333-21.333333H149.333333c-11.754667 0-21.333333 9.578667-21.333333 21.333333V682.666667c0 11.754667 9.578667 21.333333 21.333333 21.333333h725.333334m0 21.333333H149.333333a42.666667 42.666667 0 0 1-42.666666-42.666666v-597.333334a42.666667 42.666667 0 0 1 42.666666-42.666666h725.333334a42.666667 42.666667 0 0 1 42.666666 42.666666V682.666667a42.666667 42.666667 0 0 1-42.666666 42.666666zM512 469.077333c35.349333 0 64 28.714667 64 64.128A64.064 64.064 0 0 1 512 597.333333c-35.349333 0-64-28.714667-64-64.128a64.064 64.064 0 0 1 64-64.128zM661.333333 362.197333c-35.349333 0-64-28.714667-64-64.128a64.064 64.064 0 0 1 64-64.128c35.349333 0 64 28.714667 64 64.128a64.042667 64.042667 0 0 1-64 64.128zM362.666667 362.197333c-35.349333 0-64-28.714667-64-64.128a64.064 64.064 0 0 1 64-64.128c35.349333 0 64 28.714667 64 64.128a64.042667 64.042667 0 0 1-64 64.128z m0-106.901333c-23.530667 0-42.666667 19.2-42.666667 42.794667 0 23.594667 19.136 42.794667 42.666667 42.794666s42.666667-19.2 42.666666-42.794666a42.773333 42.773333 0 0 0-42.666666-42.794667zM659.648 384.213333c0.576 0.021333 1.109333 0.170667 1.685333 0.170667 7.018667 0 13.738667-1.088 20.266667-2.688a170.858667 170.858667 0 0 1-84.437333 129.344 85.44 85.44 0 0 0-3.776-22.762667 149.696 149.696 0 0 0 66.261333-104.064zM512 213.376a148.181333 148.181333 0 0 0-86.592 27.946667 85.333333 85.333333 0 0 0-16.682667-14.250667 169.557333 169.557333 0 0 1 206.549334 0.021333 85.866667 85.866667 0 0 0-16.682667 14.250667A148.053333 148.053333 0 0 0 512 213.376zM364.352 384.213333a149.653333 149.653333 0 0 0 66.261333 104.064 84.458667 84.458667 0 0 0-3.776 22.762667 170.901333 170.901333 0 0 1-84.437333-129.344 84.693333 84.693333 0 0 0 20.266667 2.688c0.576 0 1.109333-0.170667 1.685333-0.170667z"  horiz-adv-x="1024" />
      
      <glyph glyph-name="a-gongzuoliu_fuwuzujianjinhangzhong" unicode="&#59495;" d="M874.666667 42.666667H149.333333a42.666667 42.666667 0 0 0-42.666666 42.666666V682.666667a42.666667 42.666667 0 0 0 42.666666 42.666666h725.333334a42.666667 42.666667 0 0 0 42.666666-42.666666v-597.333334a42.666667 42.666667 0 0 0-42.666666-42.666666zM874.666667 704c11.754667 0 21.333333-9.578667 21.333333-21.333333v-597.333334c0-11.754667-9.578667-21.333333-21.333333-21.333333H149.333333c-11.754667 0-21.333333 9.578667-21.333333 21.333333V682.666667c0 11.754667 9.578667 21.333333 21.333333 21.333333h725.333334m0 21.333333H149.333333a42.666667 42.666667 0 0 1-42.666666-42.666666v-597.333334a42.666667 42.666667 0 0 1 42.666666-42.666666h725.333334a42.666667 42.666667 0 0 1 42.666666 42.666666V682.666667a42.666667 42.666667 0 0 1-42.666666 42.666666zM341.333333 298.666667c0-47.125333 42.986667-85.333333 96-85.333334s96 38.208 96 85.333334v170.666666c0 23.530667 23.936 42.666667 53.333334 42.666667s53.333333-19.136 53.333333-42.666667v-170.666666h-42.666667l64-85.333334 64 85.333334h-42.666666v170.666666c0 47.125333-42.986667 85.333333-96 85.333334S490.666667 516.458667 490.666667 469.333333v-170.666666c0-23.530667-23.936-42.666667-53.333334-42.666667s-53.333333 19.136-53.333333 42.666667v170.666666h42.666667l-64 85.333334-64-85.333334h42.666666v-170.666666z"  horiz-adv-x="1024" />
      
      <glyph glyph-name="a-gongzuoliu_rengonghuodongjinhangzhong" unicode="&#59496;" d="M874.666667 42.666667H149.333333a42.666667 42.666667 0 0 0-42.666666 42.666666V682.666667a42.666667 42.666667 0 0 0 42.666666 42.666666h725.333334a42.666667 42.666667 0 0 0 42.666666-42.666666v-597.333334a42.666667 42.666667 0 0 0-42.666666-42.666666zM874.666667 704c11.754667 0 21.333333-9.578667 21.333333-21.333333v-597.333334c0-11.754667-9.578667-21.333333-21.333333-21.333333H149.333333c-11.754667 0-21.333333 9.578667-21.333333 21.333333V682.666667c0 11.754667 9.578667 21.333333 21.333333 21.333333h725.333334m0 21.333333H149.333333a42.666667 42.666667 0 0 1-42.666666-42.666666v-597.333334a42.666667 42.666667 0 0 1 42.666666-42.666666h725.333334a42.666667 42.666667 0 0 1 42.666666 42.666666V682.666667a42.666667 42.666667 0 0 1-42.666666 42.666666zM469.333333 298.666667l42.666667 42.666666 42.666667-42.666666-42.666667-42.666667zM512 341.333333c82.346667 0 149.333333-66.986667 149.333333-149.333333h42.666667c0 87.637333-59.562667 161.856-140.16 184.64C596.394667 394.901333 618.666667 429.333333 618.666667 469.333333a106.666667 106.666667 0 0 1-213.333334 0c0-40 22.272-74.432 54.826667-92.693333C379.562667 353.856 320 279.637333 320 192h42.666667c0 82.346667 66.986667 149.333333 149.333333 149.333333z m0 192c35.285333 0 64-28.714667 64-64s-28.714667-64-64-64-64 28.714667-64 64 28.714667 64 64 64z"  horiz-adv-x="1024" />
      
      <glyph glyph-name="a-gongzuoliu_waibuziliuchengjinhangzhong" unicode="&#59497;" d="M874.666667 42.666667H149.333333a42.666667 42.666667 0 0 0-42.666666 42.666666V682.666667a42.666667 42.666667 0 0 0 42.666666 42.666666h725.333334a42.666667 42.666667 0 0 0 42.666666-42.666666v-597.333334a42.666667 42.666667 0 0 0-42.666666-42.666666zM874.666667 704c11.754667 0 21.333333-9.578667 21.333333-21.333333v-597.333334c0-11.754667-9.578667-21.333333-21.333333-21.333333H149.333333c-11.754667 0-21.333333 9.578667-21.333333 21.333333V682.666667c0 11.754667 9.578667 21.333333 21.333333 21.333333h725.333334m0 21.333333H149.333333a42.666667 42.666667 0 0 1-42.666666-42.666666v-597.333334a42.666667 42.666667 0 0 1 42.666666-42.666666h725.333334a42.666667 42.666667 0 0 1 42.666666 42.666666V682.666667a42.666667 42.666667 0 0 1-42.666666 42.666666zM192 704h21.333333v-640H192zM810.666667 704h21.333333v-640h-21.333333zM618.666667 384a63.786667 63.786667 0 0 1-60.074667-42.666667H384v149.333334h174.592A63.829333 63.829333 0 0 1 682.666667 512a64 64 0 0 1-64 64 63.786667 63.786667 0 0 1-60.074667-42.666667H384V704h-42.666667v-405.333333h217.258667A63.829333 63.829333 0 0 1 682.666667 320a64 64 0 0 1-64 64z"  horiz-adv-x="1024" />
      
      <glyph glyph-name="a-gongzuoliu_duorenhuiqianjinhangzhong" unicode="&#59498;" d="M874.666667 42.666667H149.333333a42.666667 42.666667 0 0 0-42.666666 42.666666V682.666667a42.666667 42.666667 0 0 0 42.666666 42.666666h725.333334a42.666667 42.666667 0 0 0 42.666666-42.666666v-597.333334a42.666667 42.666667 0 0 0-42.666666-42.666666zM874.666667 704c11.754667 0 21.333333-9.578667 21.333333-21.333333v-597.333334c0-11.754667-9.578667-21.333333-21.333333-21.333333H149.333333c-11.754667 0-21.333333 9.578667-21.333333 21.333333V682.666667c0 11.754667 9.578667 21.333333 21.333333 21.333333h725.333334m0 21.333333H149.333333a42.666667 42.666667 0 0 1-42.666666-42.666666v-597.333334a42.666667 42.666667 0 0 1 42.666666-42.666666h725.333334a42.666667 42.666667 0 0 1 42.666666 42.666666V682.666667a42.666667 42.666667 0 0 1-42.666666 42.666666zM634.048 391.808A95.530667 95.530667 0 0 1 661.333333 458.666667c0 49.365333-37.397333 89.557333-85.333333 94.933333v-42.666667c24.32-4.949333 42.666667-26.496 42.666667-52.245333s-18.346667-47.296-42.666667-52.245333v-44.266667a138.752 138.752 0 0 0 127.466667-127.488h42.666666a181.44 181.44 0 0 1-112.085333 157.12zM508.522667 376.981333A95.68 95.68 0 0 1 554.666667 458.666667a96 96 0 0 1-192 0c0-34.688 18.581333-64.810667 46.144-81.685334-72.810667-20.693333-126.912-85.504-131.477334-163.648h42.794667c5.248 68.266667 60.202667 122.752 128.789333 127.530667L416 307.946667l42.666667-42.666667 42.666666 42.666667-32.917333 32.917333c68.586667-4.778667 123.541333-59.264 128.789333-127.530667H640c-4.565333 78.144-58.666667 142.954667-131.477333 163.648zM458.666667 405.333333c-29.397333 0-53.333333 23.936-53.333334 53.333334s23.936 53.333333 53.333334 53.333333 53.333333-23.936 53.333333-53.333333-23.936-53.333333-53.333333-53.333334z"  horiz-adv-x="1024" />
      
      <glyph glyph-name="a-gongzuoliu_dongtaijiedianguaqi" unicode="&#59493;" d="M874.666667 42.666667H149.333333a42.666667 42.666667 0 0 0-42.666666 42.666666V682.666667a42.666667 42.666667 0 0 0 42.666666 42.666666h725.333334a42.666667 42.666667 0 0 0 42.666666-42.666666v-597.333334a42.666667 42.666667 0 0 0-42.666666-42.666666zM874.666667 704c11.754667 0 21.333333-9.578667 21.333333-21.333333v-597.333334c0-11.754667-9.578667-21.333333-21.333333-21.333333H149.333333c-11.754667 0-21.333333 9.578667-21.333333 21.333333V682.666667c0 11.754667 9.578667 21.333333 21.333333 21.333333h725.333334m0 21.333333H149.333333a42.666667 42.666667 0 0 1-42.666666-42.666666v-597.333334a42.666667 42.666667 0 0 1 42.666666-42.666666h725.333334a42.666667 42.666667 0 0 1 42.666666 42.666666V682.666667a42.666667 42.666667 0 0 1-42.666666 42.666666zM512 469.077333c35.349333 0 64 28.714667 64 64.128A64.064 64.064 0 0 1 512 597.333333c-35.349333 0-64-28.714667-64-64.128a64.064 64.064 0 0 1 64-64.128zM661.333333 362.197333c-35.349333 0-64-28.714667-64-64.128a64.064 64.064 0 0 1 64-64.128c35.349333 0 64 28.714667 64 64.128a64.042667 64.042667 0 0 1-64 64.128zM362.666667 362.197333c-35.349333 0-64-28.714667-64-64.128a64.064 64.064 0 0 1 64-64.128c35.349333 0 64 28.714667 64 64.128a64.042667 64.042667 0 0 1-64 64.128z m0-106.901333c-23.530667 0-42.666667 19.2-42.666667 42.794667 0 23.594667 19.136 42.794667 42.666667 42.794666s42.666667-19.2 42.666666-42.794666a42.773333 42.773333 0 0 0-42.666666-42.794667zM659.648 384.213333c0.576 0.021333 1.109333 0.170667 1.685333 0.170667 7.018667 0 13.738667-1.088 20.266667-2.688a170.858667 170.858667 0 0 1-84.437333 129.344 85.44 85.44 0 0 0-3.776-22.762667 149.696 149.696 0 0 0 66.261333-104.064zM512 213.376a148.181333 148.181333 0 0 0-86.592 27.946667 85.333333 85.333333 0 0 0-16.682667-14.250667 169.557333 169.557333 0 0 1 206.549334 0.021333 85.866667 85.866667 0 0 0-16.682667 14.250667A148.053333 148.053333 0 0 0 512 213.376zM364.352 384.213333a149.653333 149.653333 0 0 0 66.261333 104.064 84.458667 84.458667 0 0 0-3.776 22.762667 170.901333 170.901333 0 0 1-84.437333-129.344 84.693333 84.693333 0 0 0 20.266667 2.688c0.576 0 1.109333-0.170667 1.685333-0.170667z"  horiz-adv-x="1024" />
      
      <glyph glyph-name="a-gongzuoliu_ziliuchenghuiqianjinhangzhong" unicode="&#59494;" d="M874.666667 42.666667H149.333333a42.666667 42.666667 0 0 0-42.666666 42.666666V682.666667a42.666667 42.666667 0 0 0 42.666666 42.666666h725.333334a42.666667 42.666667 0 0 0 42.666666-42.666666v-597.333334a42.666667 42.666667 0 0 0-42.666666-42.666666zM874.666667 704c11.754667 0 21.333333-9.578667 21.333333-21.333333v-597.333334c0-11.754667-9.578667-21.333333-21.333333-21.333333H149.333333c-11.754667 0-21.333333 9.578667-21.333333 21.333333V682.666667c0 11.754667 9.578667 21.333333 21.333333 21.333333h725.333334m0 21.333333H149.333333a42.666667 42.666667 0 0 1-42.666666-42.666666v-597.333334a42.666667 42.666667 0 0 1 42.666666-42.666666h725.333334a42.666667 42.666667 0 0 1 42.666666 42.666666V682.666667a42.666667 42.666667 0 0 1-42.666666 42.666666zM192 704h21.333333v-640H192zM810.666667 704h21.333333v-640h-21.333333zM362.666667 704v-412.8a74.453333 74.453333 0 0 1-42.666667-67.2 74.666667 74.666667 0 1 1 149.333333 0 74.453333 74.453333 0 0 1-64 73.6V320h174.592A63.786667 63.786667 0 0 1 640 277.333333a64 64 0 1 1 0 128 63.786667 63.786667 0 0 1-60.074667-42.666666H405.333333v149.333333h174.592A63.786667 63.786667 0 0 1 640 469.333333a64 64 0 1 1 0 128 63.786667 63.786667 0 0 1-60.074667-42.666666H405.333333V704h-42.666666z m74.666666-469.333333a10.666667 10.666667 0 0 0 0-21.333334H405.333333v-32a10.666667 10.666667 0 0 0-21.333333 0V213.333333h-32a10.666667 10.666667 0 0 0 0 21.333334H384v32a10.666667 10.666667 0 0 0 21.333333 0V234.666667h32z"  horiz-adv-x="1024" />
      
      <glyph glyph-name="a-gongzuoliu_jieshourenwuguaqi" unicode="&#59487;" d="M874.666667 42.666667H149.333333a42.666667 42.666667 0 0 0-42.666666 42.666666V682.666667a42.666667 42.666667 0 0 0 42.666666 42.666666h725.333334a42.666667 42.666667 0 0 0 42.666666-42.666666v-597.333334a42.666667 42.666667 0 0 0-42.666666-42.666666zM874.666667 704c11.754667 0 21.333333-9.578667 21.333333-21.333333v-597.333334c0-11.754667-9.578667-21.333333-21.333333-21.333333H149.333333c-11.754667 0-21.333333 9.578667-21.333333 21.333333V682.666667c0 11.754667 9.578667 21.333333 21.333333 21.333333h725.333334m0 21.333333H149.333333a42.666667 42.666667 0 0 1-42.666666-42.666666v-597.333334a42.666667 42.666667 0 0 1 42.666666-42.666666h725.333334a42.666667 42.666667 0 0 1 42.666666 42.666666V682.666667a42.666667 42.666667 0 0 1-42.666666 42.666666zM661.333333 384v192H362.666667v-192h-42.666667v-192h384v192h-42.666667z m-256 149.333333h213.333334v-149.333333h-42.666667a64 64 0 1 0-128 0h-42.666667v149.333333z m256-298.666666H362.666667v106.666666h51.584c16.490667-37.632 54.101333-64 97.749333-64s81.28 26.368 97.770667 64H661.333333v-106.666666zM576 426.666667h-42.666667v85.333333h-42.666666v-85.333333h-42.666667l64-64z"  horiz-adv-x="1024" />
      
      <glyph glyph-name="a-gongzuoliu_waibuziliuchengguaqi" unicode="&#59488;" d="M874.666667 42.666667H149.333333a42.666667 42.666667 0 0 0-42.666666 42.666666V682.666667a42.666667 42.666667 0 0 0 42.666666 42.666666h725.333334a42.666667 42.666667 0 0 0 42.666666-42.666666v-597.333334a42.666667 42.666667 0 0 0-42.666666-42.666666zM874.666667 704c11.754667 0 21.333333-9.578667 21.333333-21.333333v-597.333334c0-11.754667-9.578667-21.333333-21.333333-21.333333H149.333333c-11.754667 0-21.333333 9.578667-21.333333 21.333333V682.666667c0 11.754667 9.578667 21.333333 21.333333 21.333333h725.333334m0 21.333333H149.333333a42.666667 42.666667 0 0 1-42.666666-42.666666v-597.333334a42.666667 42.666667 0 0 1 42.666666-42.666666h725.333334a42.666667 42.666667 0 0 1 42.666666 42.666666V682.666667a42.666667 42.666667 0 0 1-42.666666 42.666666zM192 704h21.333333v-640H192zM810.666667 704h21.333333v-640h-21.333333zM618.666667 384a63.786667 63.786667 0 0 1-60.074667-42.666667H384v149.333334h174.592A63.829333 63.829333 0 0 1 682.666667 512a64 64 0 0 1-64 64 63.786667 63.786667 0 0 1-60.074667-42.666667H384V704h-42.666667v-405.333333h217.258667A63.829333 63.829333 0 0 1 682.666667 320a64 64 0 0 1-64 64z"  horiz-adv-x="1024" />
      
      <glyph glyph-name="a-gongzuoliu_ziliuchenghuiqianguaqi" unicode="&#59489;" d="M874.666667 42.666667H149.333333a42.666667 42.666667 0 0 0-42.666666 42.666666V682.666667a42.666667 42.666667 0 0 0 42.666666 42.666666h725.333334a42.666667 42.666667 0 0 0 42.666666-42.666666v-597.333334a42.666667 42.666667 0 0 0-42.666666-42.666666zM874.666667 704c11.754667 0 21.333333-9.578667 21.333333-21.333333v-597.333334c0-11.754667-9.578667-21.333333-21.333333-21.333333H149.333333c-11.754667 0-21.333333 9.578667-21.333333 21.333333V682.666667c0 11.754667 9.578667 21.333333 21.333333 21.333333h725.333334m0 21.333333H149.333333a42.666667 42.666667 0 0 1-42.666666-42.666666v-597.333334a42.666667 42.666667 0 0 1 42.666666-42.666666h725.333334a42.666667 42.666667 0 0 1 42.666666 42.666666V682.666667a42.666667 42.666667 0 0 1-42.666666 42.666666zM192 704h21.333333v-640H192zM810.666667 704h21.333333v-640h-21.333333zM362.666667 704v-412.8a74.453333 74.453333 0 0 1-42.666667-67.2 74.666667 74.666667 0 1 1 149.333333 0 74.453333 74.453333 0 0 1-64 73.6V320h174.592A63.786667 63.786667 0 0 1 640 277.333333a64 64 0 1 1 0 128 63.786667 63.786667 0 0 1-60.074667-42.666666H405.333333v149.333333h174.592A63.786667 63.786667 0 0 1 640 469.333333a64 64 0 1 1 0 128 63.786667 63.786667 0 0 1-60.074667-42.666666H405.333333V704h-42.666666z m74.666666-469.333333a10.666667 10.666667 0 0 0 0-21.333334H405.333333v-32a10.666667 10.666667 0 0 0-21.333333 0V213.333333h-32a10.666667 10.666667 0 0 0 0 21.333334H384v32a10.666667 10.666667 0 0 0 21.333333 0V234.666667h32z"  horiz-adv-x="1024" />
      
      <glyph glyph-name="a-gongzuoliu_rengonghuodongguaqi" unicode="&#59490;" d="M874.666667 42.666667H149.333333a42.666667 42.666667 0 0 0-42.666666 42.666666V682.666667a42.666667 42.666667 0 0 0 42.666666 42.666666h725.333334a42.666667 42.666667 0 0 0 42.666666-42.666666v-597.333334a42.666667 42.666667 0 0 0-42.666666-42.666666zM874.666667 704c11.754667 0 21.333333-9.578667 21.333333-21.333333v-597.333334c0-11.754667-9.578667-21.333333-21.333333-21.333333H149.333333c-11.754667 0-21.333333 9.578667-21.333333 21.333333V682.666667c0 11.754667 9.578667 21.333333 21.333333 21.333333h725.333334m0 21.333333H149.333333a42.666667 42.666667 0 0 1-42.666666-42.666666v-597.333334a42.666667 42.666667 0 0 1 42.666666-42.666666h725.333334a42.666667 42.666667 0 0 1 42.666666 42.666666V682.666667a42.666667 42.666667 0 0 1-42.666666 42.666666zM469.333333 298.666667l42.666667 42.666666 42.666667-42.666666-42.666667-42.666667zM512 341.333333c82.346667 0 149.333333-66.986667 149.333333-149.333333h42.666667c0 87.637333-59.562667 161.856-140.16 184.64C596.394667 394.901333 618.666667 429.333333 618.666667 469.333333a106.666667 106.666667 0 0 1-213.333334 0c0-40 22.272-74.432 54.826667-92.693333C379.562667 353.856 320 279.637333 320 192h42.666667c0 82.346667 66.986667 149.333333 149.333333 149.333333z m0 192c35.285333 0 64-28.714667 64-64s-28.714667-64-64-64-64 28.714667-64 64 28.714667 64 64 64z"  horiz-adv-x="1024" />
      
      <glyph glyph-name="a-gongzuoliu_fuwuzujianguaqi" unicode="&#59491;" d="M874.666667 42.666667H149.333333a42.666667 42.666667 0 0 0-42.666666 42.666666V682.666667a42.666667 42.666667 0 0 0 42.666666 42.666666h725.333334a42.666667 42.666667 0 0 0 42.666666-42.666666v-597.333334a42.666667 42.666667 0 0 0-42.666666-42.666666zM874.666667 704c11.754667 0 21.333333-9.578667 21.333333-21.333333v-597.333334c0-11.754667-9.578667-21.333333-21.333333-21.333333H149.333333c-11.754667 0-21.333333 9.578667-21.333333 21.333333V682.666667c0 11.754667 9.578667 21.333333 21.333333 21.333333h725.333334m0 21.333333H149.333333a42.666667 42.666667 0 0 1-42.666666-42.666666v-597.333334a42.666667 42.666667 0 0 1 42.666666-42.666666h725.333334a42.666667 42.666667 0 0 1 42.666666 42.666666V682.666667a42.666667 42.666667 0 0 1-42.666666 42.666666zM341.333333 298.666667c0-47.125333 42.986667-85.333333 96-85.333334s96 38.208 96 85.333334v170.666666c0 23.530667 23.936 42.666667 53.333334 42.666667s53.333333-19.136 53.333333-42.666667v-170.666666h-42.666667l64-85.333334 64 85.333334h-42.666666v170.666666c0 47.125333-42.986667 85.333333-96 85.333334S490.666667 516.458667 490.666667 469.333333v-170.666666c0-23.530667-23.936-42.666667-53.333334-42.666667s-53.333333 19.136-53.333333 42.666667v170.666666h42.666667l-64 85.333334-64-85.333334h42.666666v-170.666666z"  horiz-adv-x="1024" />
      
      <glyph glyph-name="a-gongzuoliu_duorenhuiqianguaqi" unicode="&#59492;" d="M874.666667 42.666667H149.333333a42.666667 42.666667 0 0 0-42.666666 42.666666V682.666667a42.666667 42.666667 0 0 0 42.666666 42.666666h725.333334a42.666667 42.666667 0 0 0 42.666666-42.666666v-597.333334a42.666667 42.666667 0 0 0-42.666666-42.666666zM874.666667 704c11.754667 0 21.333333-9.578667 21.333333-21.333333v-597.333334c0-11.754667-9.578667-21.333333-21.333333-21.333333H149.333333c-11.754667 0-21.333333 9.578667-21.333333 21.333333V682.666667c0 11.754667 9.578667 21.333333 21.333333 21.333333h725.333334m0 21.333333H149.333333a42.666667 42.666667 0 0 1-42.666666-42.666666v-597.333334a42.666667 42.666667 0 0 1 42.666666-42.666666h725.333334a42.666667 42.666667 0 0 1 42.666666 42.666666V682.666667a42.666667 42.666667 0 0 1-42.666666 42.666666zM634.048 391.808A95.530667 95.530667 0 0 1 661.333333 458.666667c0 49.365333-37.397333 89.557333-85.333333 94.933333v-42.666667c24.32-4.949333 42.666667-26.496 42.666667-52.245333s-18.346667-47.296-42.666667-52.245333v-44.266667a138.752 138.752 0 0 0 127.466667-127.488h42.666666a181.44 181.44 0 0 1-112.085333 157.12zM508.522667 376.981333A95.68 95.68 0 0 1 554.666667 458.666667a96 96 0 0 1-192 0c0-34.688 18.581333-64.810667 46.144-81.685334-72.810667-20.693333-126.912-85.504-131.477334-163.648h42.794667c5.248 68.266667 60.202667 122.752 128.789333 127.530667L416 307.946667l42.666667-42.666667 42.666666 42.666667-32.917333 32.917333c68.586667-4.778667 123.541333-59.264 128.789333-127.530667H640c-4.565333 78.144-58.666667 142.954667-131.477333 163.648zM458.666667 405.333333c-29.397333 0-53.333333 23.936-53.333334 53.333334s23.936 53.333333 53.333334 53.333333 53.333333-23.936 53.333333-53.333333-23.936-53.333333-53.333333-53.333334z"  horiz-adv-x="1024" />
      
      <glyph glyph-name="a-gongzuoliu_dongtaijiedianyichang" unicode="&#59486;" d="M874.666667 42.666667H149.333333a42.666667 42.666667 0 0 0-42.666666 42.666666V682.666667a42.666667 42.666667 0 0 0 42.666666 42.666666h725.333334a42.666667 42.666667 0 0 0 42.666666-42.666666v-597.333334a42.666667 42.666667 0 0 0-42.666666-42.666666zM874.666667 704c11.754667 0 21.333333-9.578667 21.333333-21.333333v-597.333334c0-11.754667-9.578667-21.333333-21.333333-21.333333H149.333333c-11.754667 0-21.333333 9.578667-21.333333 21.333333V682.666667c0 11.754667 9.578667 21.333333 21.333333 21.333333h725.333334m0 21.333333H149.333333a42.666667 42.666667 0 0 1-42.666666-42.666666v-597.333334a42.666667 42.666667 0 0 1 42.666666-42.666666h725.333334a42.666667 42.666667 0 0 1 42.666666 42.666666V682.666667a42.666667 42.666667 0 0 1-42.666666 42.666666zM512 469.077333c35.349333 0 64 28.714667 64 64.128A64.064 64.064 0 0 1 512 597.333333c-35.349333 0-64-28.714667-64-64.128a64.064 64.064 0 0 1 64-64.128zM661.333333 362.197333c-35.349333 0-64-28.714667-64-64.128a64.064 64.064 0 0 1 64-64.128c35.349333 0 64 28.714667 64 64.128a64.042667 64.042667 0 0 1-64 64.128zM362.666667 362.197333c-35.349333 0-64-28.714667-64-64.128a64.064 64.064 0 0 1 64-64.128c35.349333 0 64 28.714667 64 64.128a64.042667 64.042667 0 0 1-64 64.128z m0-106.901333c-23.530667 0-42.666667 19.2-42.666667 42.794667 0 23.594667 19.136 42.794667 42.666667 42.794666s42.666667-19.2 42.666666-42.794666a42.773333 42.773333 0 0 0-42.666666-42.794667zM659.648 384.213333c0.576 0.021333 1.109333 0.170667 1.685333 0.170667 7.018667 0 13.738667-1.088 20.266667-2.688a170.858667 170.858667 0 0 1-84.437333 129.344 85.44 85.44 0 0 0-3.776-22.762667 149.696 149.696 0 0 0 66.261333-104.064zM512 213.376a148.181333 148.181333 0 0 0-86.592 27.946667 85.333333 85.333333 0 0 0-16.682667-14.250667 169.557333 169.557333 0 0 1 206.549334 0.021333 85.866667 85.866667 0 0 0-16.682667 14.250667A148.053333 148.053333 0 0 0 512 213.376zM364.352 384.213333a149.653333 149.653333 0 0 0 66.261333 104.064 84.458667 84.458667 0 0 0-3.776 22.762667 170.901333 170.901333 0 0 1-84.437333-129.344 84.693333 84.693333 0 0 0 20.266667 2.688c0.576 0 1.109333-0.170667 1.685333-0.170667z"  horiz-adv-x="1024" />
      
      <glyph glyph-name="a-gongzuoliu_waibuziliuchengyichang" unicode="&#59482;" d="M874.666667 42.666667H149.333333a42.666667 42.666667 0 0 0-42.666666 42.666666V682.666667a42.666667 42.666667 0 0 0 42.666666 42.666666h725.333334a42.666667 42.666667 0 0 0 42.666666-42.666666v-597.333334a42.666667 42.666667 0 0 0-42.666666-42.666666zM874.666667 704c11.754667 0 21.333333-9.578667 21.333333-21.333333v-597.333334c0-11.754667-9.578667-21.333333-21.333333-21.333333H149.333333c-11.754667 0-21.333333 9.578667-21.333333 21.333333V682.666667c0 11.754667 9.578667 21.333333 21.333333 21.333333h725.333334m0 21.333333H149.333333a42.666667 42.666667 0 0 1-42.666666-42.666666v-597.333334a42.666667 42.666667 0 0 1 42.666666-42.666666h725.333334a42.666667 42.666667 0 0 1 42.666666 42.666666V682.666667a42.666667 42.666667 0 0 1-42.666666 42.666666zM192 704h21.333333v-640H192zM810.666667 704h21.333333v-640h-21.333333zM618.666667 384a63.786667 63.786667 0 0 1-60.074667-42.666667H384v149.333334h174.592A63.829333 63.829333 0 0 1 682.666667 512a64 64 0 0 1-64 64 63.786667 63.786667 0 0 1-60.074667-42.666667H384V704h-42.666667v-405.333333h217.258667A63.829333 63.829333 0 0 1 682.666667 320a64 64 0 0 1-64 64z"  horiz-adv-x="1024" />
      
      <glyph glyph-name="a-gongzuoliu_jieshourenwuyichang" unicode="&#59483;" d="M874.666667 42.666667H149.333333a42.666667 42.666667 0 0 0-42.666666 42.666666V682.666667a42.666667 42.666667 0 0 0 42.666666 42.666666h725.333334a42.666667 42.666667 0 0 0 42.666666-42.666666v-597.333334a42.666667 42.666667 0 0 0-42.666666-42.666666zM874.666667 704c11.754667 0 21.333333-9.578667 21.333333-21.333333v-597.333334c0-11.754667-9.578667-21.333333-21.333333-21.333333H149.333333c-11.754667 0-21.333333 9.578667-21.333333 21.333333V682.666667c0 11.754667 9.578667 21.333333 21.333333 21.333333h725.333334m0 21.333333H149.333333a42.666667 42.666667 0 0 1-42.666666-42.666666v-597.333334a42.666667 42.666667 0 0 1 42.666666-42.666666h725.333334a42.666667 42.666667 0 0 1 42.666666 42.666666V682.666667a42.666667 42.666667 0 0 1-42.666666 42.666666zM661.333333 384v192H362.666667v-192h-42.666667v-192h384v192h-42.666667z m-256 149.333333h213.333334v-149.333333h-42.666667a64 64 0 1 0-128 0h-42.666667v149.333333z m256-298.666666H362.666667v106.666666h51.584c16.490667-37.632 54.101333-64 97.749333-64s81.28 26.368 97.770667 64H661.333333v-106.666666zM576 426.666667h-42.666667v85.333333h-42.666666v-85.333333h-42.666667l64-64z"  horiz-adv-x="1024" />
      
      <glyph glyph-name="a-gongzuoliu_fuwuzujianyichang" unicode="&#59484;" d="M874.666667 42.666667H149.333333a42.666667 42.666667 0 0 0-42.666666 42.666666V682.666667a42.666667 42.666667 0 0 0 42.666666 42.666666h725.333334a42.666667 42.666667 0 0 0 42.666666-42.666666v-597.333334a42.666667 42.666667 0 0 0-42.666666-42.666666zM874.666667 704c11.754667 0 21.333333-9.578667 21.333333-21.333333v-597.333334c0-11.754667-9.578667-21.333333-21.333333-21.333333H149.333333c-11.754667 0-21.333333 9.578667-21.333333 21.333333V682.666667c0 11.754667 9.578667 21.333333 21.333333 21.333333h725.333334m0 21.333333H149.333333a42.666667 42.666667 0 0 1-42.666666-42.666666v-597.333334a42.666667 42.666667 0 0 1 42.666666-42.666666h725.333334a42.666667 42.666667 0 0 1 42.666666 42.666666V682.666667a42.666667 42.666667 0 0 1-42.666666 42.666666zM341.333333 298.666667c0-47.125333 42.986667-85.333333 96-85.333334s96 38.208 96 85.333334v170.666666c0 23.530667 23.936 42.666667 53.333334 42.666667s53.333333-19.136 53.333333-42.666667v-170.666666h-42.666667l64-85.333334 64 85.333334h-42.666666v170.666666c0 47.125333-42.986667 85.333333-96 85.333334S490.666667 516.458667 490.666667 469.333333v-170.666666c0-23.530667-23.936-42.666667-53.333334-42.666667s-53.333333 19.136-53.333333 42.666667v170.666666h42.666667l-64 85.333334-64-85.333334h42.666666v-170.666666z"  horiz-adv-x="1024" />
      
      <glyph glyph-name="a-gongzuoliu_ziliuchenghuiqianyichang" unicode="&#59485;" d="M874.666667 42.666667H149.333333a42.666667 42.666667 0 0 0-42.666666 42.666666V682.666667a42.666667 42.666667 0 0 0 42.666666 42.666666h725.333334a42.666667 42.666667 0 0 0 42.666666-42.666666v-597.333334a42.666667 42.666667 0 0 0-42.666666-42.666666zM874.666667 704c11.754667 0 21.333333-9.578667 21.333333-21.333333v-597.333334c0-11.754667-9.578667-21.333333-21.333333-21.333333H149.333333c-11.754667 0-21.333333 9.578667-21.333333 21.333333V682.666667c0 11.754667 9.578667 21.333333 21.333333 21.333333h725.333334m0 21.333333H149.333333a42.666667 42.666667 0 0 1-42.666666-42.666666v-597.333334a42.666667 42.666667 0 0 1 42.666666-42.666666h725.333334a42.666667 42.666667 0 0 1 42.666666 42.666666V682.666667a42.666667 42.666667 0 0 1-42.666666 42.666666zM192 704h21.333333v-640H192zM810.666667 704h21.333333v-640h-21.333333zM362.666667 704v-412.8a74.453333 74.453333 0 0 1-42.666667-67.2 74.666667 74.666667 0 1 1 149.333333 0 74.453333 74.453333 0 0 1-64 73.6V320h174.592A63.786667 63.786667 0 0 1 640 277.333333a64 64 0 1 1 0 128 63.786667 63.786667 0 0 1-60.074667-42.666666H405.333333v149.333333h174.592A63.786667 63.786667 0 0 1 640 469.333333a64 64 0 1 1 0 128 63.786667 63.786667 0 0 1-60.074667-42.666666H405.333333V704h-42.666666z m74.666666-469.333333a10.666667 10.666667 0 0 0 0-21.333334H405.333333v-32a10.666667 10.666667 0 0 0-21.333333 0V213.333333h-32a10.666667 10.666667 0 0 0 0 21.333334H384v32a10.666667 10.666667 0 0 0 21.333333 0V234.666667h32z"  horiz-adv-x="1024" />
      
      <glyph glyph-name="a-gongzuoliu_rengonghuodongyichang" unicode="&#59480;" d="M874.666667 42.666667H149.333333a42.666667 42.666667 0 0 0-42.666666 42.666666V682.666667a42.666667 42.666667 0 0 0 42.666666 42.666666h725.333334a42.666667 42.666667 0 0 0 42.666666-42.666666v-597.333334a42.666667 42.666667 0 0 0-42.666666-42.666666zM874.666667 704c11.754667 0 21.333333-9.578667 21.333333-21.333333v-597.333334c0-11.754667-9.578667-21.333333-21.333333-21.333333H149.333333c-11.754667 0-21.333333 9.578667-21.333333 21.333333V682.666667c0 11.754667 9.578667 21.333333 21.333333 21.333333h725.333334m0 21.333333H149.333333a42.666667 42.666667 0 0 1-42.666666-42.666666v-597.333334a42.666667 42.666667 0 0 1 42.666666-42.666666h725.333334a42.666667 42.666667 0 0 1 42.666666 42.666666V682.666667a42.666667 42.666667 0 0 1-42.666666 42.666666zM469.333333 298.666667l42.666667 42.666666 42.666667-42.666666-42.666667-42.666667zM512 341.333333c82.346667 0 149.333333-66.986667 149.333333-149.333333h42.666667c0 87.637333-59.562667 161.856-140.16 184.64C596.394667 394.901333 618.666667 429.333333 618.666667 469.333333a106.666667 106.666667 0 0 1-213.333334 0c0-40 22.272-74.432 54.826667-92.693333C379.562667 353.856 320 279.637333 320 192h42.666667c0 82.346667 66.986667 149.333333 149.333333 149.333333z m0 192c35.285333 0 64-28.714667 64-64s-28.714667-64-64-64-64 28.714667-64 64 28.714667 64 64 64z"  horiz-adv-x="1024" />
      
      <glyph glyph-name="a-gongzuoliu_duorenhuiqianyichang" unicode="&#59481;" d="M874.666667 42.666667H149.333333a42.666667 42.666667 0 0 0-42.666666 42.666666V682.666667a42.666667 42.666667 0 0 0 42.666666 42.666666h725.333334a42.666667 42.666667 0 0 0 42.666666-42.666666v-597.333334a42.666667 42.666667 0 0 0-42.666666-42.666666zM874.666667 704c11.754667 0 21.333333-9.578667 21.333333-21.333333v-597.333334c0-11.754667-9.578667-21.333333-21.333333-21.333333H149.333333c-11.754667 0-21.333333 9.578667-21.333333 21.333333V682.666667c0 11.754667 9.578667 21.333333 21.333333 21.333333h725.333334m0 21.333333H149.333333a42.666667 42.666667 0 0 1-42.666666-42.666666v-597.333334a42.666667 42.666667 0 0 1 42.666666-42.666666h725.333334a42.666667 42.666667 0 0 1 42.666666 42.666666V682.666667a42.666667 42.666667 0 0 1-42.666666 42.666666zM634.048 391.808A95.530667 95.530667 0 0 1 661.333333 458.666667c0 49.365333-37.397333 89.557333-85.333333 94.933333v-42.666667c24.32-4.949333 42.666667-26.496 42.666667-52.245333s-18.346667-47.296-42.666667-52.245333v-44.266667a138.752 138.752 0 0 0 127.466667-127.488h42.666666a181.44 181.44 0 0 1-112.085333 157.12zM508.522667 376.981333A95.68 95.68 0 0 1 554.666667 458.666667a96 96 0 0 1-192 0c0-34.688 18.581333-64.810667 46.144-81.685334-72.810667-20.693333-126.912-85.504-131.477334-163.648h42.794667c5.248 68.266667 60.202667 122.752 128.789333 127.530667L416 307.946667l42.666667-42.666667 42.666666 42.666667-32.917333 32.917333c68.586667-4.778667 123.541333-59.264 128.789333-127.530667H640c-4.565333 78.144-58.666667 142.954667-131.477333 163.648zM458.666667 405.333333c-29.397333 0-53.333333 23.936-53.333334 53.333334s23.936 53.333333 53.333334 53.333333 53.333333-23.936 53.333333-53.333333-23.936-53.333333-53.333333-53.333334z"  horiz-adv-x="1024" />
      
      <glyph glyph-name="a-gongzuoliu_dongtaijiedianbohui" unicode="&#59479;" d="M874.666667 42.666667H149.333333a42.666667 42.666667 0 0 0-42.666666 42.666666V682.666667a42.666667 42.666667 0 0 0 42.666666 42.666666h725.333334a42.666667 42.666667 0 0 0 42.666666-42.666666v-597.333334a42.666667 42.666667 0 0 0-42.666666-42.666666zM874.666667 704c11.754667 0 21.333333-9.578667 21.333333-21.333333v-597.333334c0-11.754667-9.578667-21.333333-21.333333-21.333333H149.333333c-11.754667 0-21.333333 9.578667-21.333333 21.333333V682.666667c0 11.754667 9.578667 21.333333 21.333333 21.333333h725.333334m0 21.333333H149.333333a42.666667 42.666667 0 0 1-42.666666-42.666666v-597.333334a42.666667 42.666667 0 0 1 42.666666-42.666666h725.333334a42.666667 42.666667 0 0 1 42.666666 42.666666V682.666667a42.666667 42.666667 0 0 1-42.666666 42.666666zM512 469.077333c35.349333 0 64 28.714667 64 64.128A64.064 64.064 0 0 1 512 597.333333c-35.349333 0-64-28.714667-64-64.128a64.064 64.064 0 0 1 64-64.128zM661.333333 362.197333c-35.349333 0-64-28.714667-64-64.128a64.064 64.064 0 0 1 64-64.128c35.349333 0 64 28.714667 64 64.128a64.042667 64.042667 0 0 1-64 64.128zM362.666667 362.197333c-35.349333 0-64-28.714667-64-64.128a64.064 64.064 0 0 1 64-64.128c35.349333 0 64 28.714667 64 64.128a64.042667 64.042667 0 0 1-64 64.128z m0-106.901333c-23.530667 0-42.666667 19.2-42.666667 42.794667 0 23.594667 19.136 42.794667 42.666667 42.794666s42.666667-19.2 42.666666-42.794666a42.773333 42.773333 0 0 0-42.666666-42.794667zM659.648 384.213333c0.576 0.021333 1.109333 0.170667 1.685333 0.170667 7.018667 0 13.738667-1.088 20.266667-2.688a170.858667 170.858667 0 0 1-84.437333 129.344 85.44 85.44 0 0 0-3.776-22.762667 149.696 149.696 0 0 0 66.261333-104.064zM512 213.376a148.181333 148.181333 0 0 0-86.592 27.946667 85.333333 85.333333 0 0 0-16.682667-14.250667 169.557333 169.557333 0 0 1 206.549334 0.021333 85.866667 85.866667 0 0 0-16.682667 14.250667A148.053333 148.053333 0 0 0 512 213.376zM364.352 384.213333a149.653333 149.653333 0 0 0 66.261333 104.064 84.458667 84.458667 0 0 0-3.776 22.762667 170.901333 170.901333 0 0 1-84.437333-129.344 84.693333 84.693333 0 0 0 20.266667 2.688c0.576 0 1.109333-0.170667 1.685333-0.170667z"  horiz-adv-x="1024" />
      
      <glyph glyph-name="a-gongzuoliu_fuwuzujianbohui" unicode="&#59473;" d="M874.666667 42.666667H149.333333a42.666667 42.666667 0 0 0-42.666666 42.666666V682.666667a42.666667 42.666667 0 0 0 42.666666 42.666666h725.333334a42.666667 42.666667 0 0 0 42.666666-42.666666v-597.333334a42.666667 42.666667 0 0 0-42.666666-42.666666zM874.666667 704c11.754667 0 21.333333-9.578667 21.333333-21.333333v-597.333334c0-11.754667-9.578667-21.333333-21.333333-21.333333H149.333333c-11.754667 0-21.333333 9.578667-21.333333 21.333333V682.666667c0 11.754667 9.578667 21.333333 21.333333 21.333333h725.333334m0 21.333333H149.333333a42.666667 42.666667 0 0 1-42.666666-42.666666v-597.333334a42.666667 42.666667 0 0 1 42.666666-42.666666h725.333334a42.666667 42.666667 0 0 1 42.666666 42.666666V682.666667a42.666667 42.666667 0 0 1-42.666666 42.666666zM341.333333 298.666667c0-47.125333 42.986667-85.333333 96-85.333334s96 38.208 96 85.333334v170.666666c0 23.530667 23.936 42.666667 53.333334 42.666667s53.333333-19.136 53.333333-42.666667v-170.666666h-42.666667l64-85.333334 64 85.333334h-42.666666v170.666666c0 47.125333-42.986667 85.333333-96 85.333334S490.666667 516.458667 490.666667 469.333333v-170.666666c0-23.530667-23.936-42.666667-53.333334-42.666667s-53.333333 19.136-53.333333 42.666667v170.666666h42.666667l-64 85.333334-64-85.333334h42.666666v-170.666666z"  horiz-adv-x="1024" />
      
      <glyph glyph-name="a-gongzuoliu_waibuziliuchengbohui" unicode="&#59474;" d="M874.666667 42.666667H149.333333a42.666667 42.666667 0 0 0-42.666666 42.666666V682.666667a42.666667 42.666667 0 0 0 42.666666 42.666666h725.333334a42.666667 42.666667 0 0 0 42.666666-42.666666v-597.333334a42.666667 42.666667 0 0 0-42.666666-42.666666zM874.666667 704c11.754667 0 21.333333-9.578667 21.333333-21.333333v-597.333334c0-11.754667-9.578667-21.333333-21.333333-21.333333H149.333333c-11.754667 0-21.333333 9.578667-21.333333 21.333333V682.666667c0 11.754667 9.578667 21.333333 21.333333 21.333333h725.333334m0 21.333333H149.333333a42.666667 42.666667 0 0 1-42.666666-42.666666v-597.333334a42.666667 42.666667 0 0 1 42.666666-42.666666h725.333334a42.666667 42.666667 0 0 1 42.666666 42.666666V682.666667a42.666667 42.666667 0 0 1-42.666666 42.666666zM192 704h21.333333v-640H192zM810.666667 704h21.333333v-640h-21.333333zM618.666667 384a63.786667 63.786667 0 0 1-60.074667-42.666667H384v149.333334h174.592A63.829333 63.829333 0 0 1 682.666667 512a64 64 0 0 1-64 64 63.786667 63.786667 0 0 1-60.074667-42.666667H384V704h-42.666667v-405.333333h217.258667A63.829333 63.829333 0 0 1 682.666667 320a64 64 0 0 1-64 64z"  horiz-adv-x="1024" />
      
      <glyph glyph-name="a-gongzuoliu_rengonghuodongbohui" unicode="&#59475;" d="M874.666667 42.666667H149.333333a42.666667 42.666667 0 0 0-42.666666 42.666666V682.666667a42.666667 42.666667 0 0 0 42.666666 42.666666h725.333334a42.666667 42.666667 0 0 0 42.666666-42.666666v-597.333334a42.666667 42.666667 0 0 0-42.666666-42.666666zM874.666667 704c11.754667 0 21.333333-9.578667 21.333333-21.333333v-597.333334c0-11.754667-9.578667-21.333333-21.333333-21.333333H149.333333c-11.754667 0-21.333333 9.578667-21.333333 21.333333V682.666667c0 11.754667 9.578667 21.333333 21.333333 21.333333h725.333334m0 21.333333H149.333333a42.666667 42.666667 0 0 1-42.666666-42.666666v-597.333334a42.666667 42.666667 0 0 1 42.666666-42.666666h725.333334a42.666667 42.666667 0 0 1 42.666666 42.666666V682.666667a42.666667 42.666667 0 0 1-42.666666 42.666666zM469.333333 298.666667l42.666667 42.666666 42.666667-42.666666-42.666667-42.666667zM512 341.333333c82.346667 0 149.333333-66.986667 149.333333-149.333333h42.666667c0 87.637333-59.562667 161.856-140.16 184.64C596.394667 394.901333 618.666667 429.333333 618.666667 469.333333a106.666667 106.666667 0 0 1-213.333334 0c0-40 22.272-74.432 54.826667-92.693333C379.562667 353.856 320 279.637333 320 192h42.666667c0 82.346667 66.986667 149.333333 149.333333 149.333333z m0 192c35.285333 0 64-28.714667 64-64s-28.714667-64-64-64-64 28.714667-64 64 28.714667 64 64 64z"  horiz-adv-x="1024" />
      
      <glyph glyph-name="a-gongzuoliu_jieshourenwubohui" unicode="&#59476;" d="M874.666667 42.666667H149.333333a42.666667 42.666667 0 0 0-42.666666 42.666666V682.666667a42.666667 42.666667 0 0 0 42.666666 42.666666h725.333334a42.666667 42.666667 0 0 0 42.666666-42.666666v-597.333334a42.666667 42.666667 0 0 0-42.666666-42.666666zM874.666667 704c11.754667 0 21.333333-9.578667 21.333333-21.333333v-597.333334c0-11.754667-9.578667-21.333333-21.333333-21.333333H149.333333c-11.754667 0-21.333333 9.578667-21.333333 21.333333V682.666667c0 11.754667 9.578667 21.333333 21.333333 21.333333h725.333334m0 21.333333H149.333333a42.666667 42.666667 0 0 1-42.666666-42.666666v-597.333334a42.666667 42.666667 0 0 1 42.666666-42.666666h725.333334a42.666667 42.666667 0 0 1 42.666666 42.666666V682.666667a42.666667 42.666667 0 0 1-42.666666 42.666666zM661.333333 384v192H362.666667v-192h-42.666667v-192h384v192h-42.666667z m-256 149.333333h213.333334v-149.333333h-42.666667a64 64 0 1 0-128 0h-42.666667v149.333333z m256-298.666666H362.666667v106.666666h51.584c16.490667-37.632 54.101333-64 97.749333-64s81.28 26.368 97.770667 64H661.333333v-106.666666zM576 426.666667h-42.666667v85.333333h-42.666666v-85.333333h-42.666667l64-64z"  horiz-adv-x="1024" />
      
      <glyph glyph-name="a-gongzuoliu_duorenhuiqianbohui" unicode="&#59477;" d="M874.666667 42.666667H149.333333a42.666667 42.666667 0 0 0-42.666666 42.666666V682.666667a42.666667 42.666667 0 0 0 42.666666 42.666666h725.333334a42.666667 42.666667 0 0 0 42.666666-42.666666v-597.333334a42.666667 42.666667 0 0 0-42.666666-42.666666zM874.666667 704c11.754667 0 21.333333-9.578667 21.333333-21.333333v-597.333334c0-11.754667-9.578667-21.333333-21.333333-21.333333H149.333333c-11.754667 0-21.333333 9.578667-21.333333 21.333333V682.666667c0 11.754667 9.578667 21.333333 21.333333 21.333333h725.333334m0 21.333333H149.333333a42.666667 42.666667 0 0 1-42.666666-42.666666v-597.333334a42.666667 42.666667 0 0 1 42.666666-42.666666h725.333334a42.666667 42.666667 0 0 1 42.666666 42.666666V682.666667a42.666667 42.666667 0 0 1-42.666666 42.666666zM634.048 391.808A95.530667 95.530667 0 0 1 661.333333 458.666667c0 49.365333-37.397333 89.557333-85.333333 94.933333v-42.666667c24.32-4.949333 42.666667-26.496 42.666667-52.245333s-18.346667-47.296-42.666667-52.245333v-44.266667a138.752 138.752 0 0 0 127.466667-127.488h42.666666a181.44 181.44 0 0 1-112.085333 157.12zM508.522667 376.981333A95.68 95.68 0 0 1 554.666667 458.666667a96 96 0 0 1-192 0c0-34.688 18.581333-64.810667 46.144-81.685334-72.810667-20.693333-126.912-85.504-131.477334-163.648h42.794667c5.248 68.266667 60.202667 122.752 128.789333 127.530667L416 307.946667l42.666667-42.666667 42.666666 42.666667-32.917333 32.917333c68.586667-4.778667 123.541333-59.264 128.789333-127.530667H640c-4.565333 78.144-58.666667 142.954667-131.477333 163.648zM458.666667 405.333333c-29.397333 0-53.333333 23.936-53.333334 53.333334s23.936 53.333333 53.333334 53.333333 53.333333-23.936 53.333333-53.333333-23.936-53.333333-53.333333-53.333334z"  horiz-adv-x="1024" />
      
      <glyph glyph-name="a-gongzuoliu_ziliuchenghuiqianbohui" unicode="&#59478;" d="M874.666667 42.666667H149.333333a42.666667 42.666667 0 0 0-42.666666 42.666666V682.666667a42.666667 42.666667 0 0 0 42.666666 42.666666h725.333334a42.666667 42.666667 0 0 0 42.666666-42.666666v-597.333334a42.666667 42.666667 0 0 0-42.666666-42.666666zM874.666667 704c11.754667 0 21.333333-9.578667 21.333333-21.333333v-597.333334c0-11.754667-9.578667-21.333333-21.333333-21.333333H149.333333c-11.754667 0-21.333333 9.578667-21.333333 21.333333V682.666667c0 11.754667 9.578667 21.333333 21.333333 21.333333h725.333334m0 21.333333H149.333333a42.666667 42.666667 0 0 1-42.666666-42.666666v-597.333334a42.666667 42.666667 0 0 1 42.666666-42.666666h725.333334a42.666667 42.666667 0 0 1 42.666666 42.666666V682.666667a42.666667 42.666667 0 0 1-42.666666 42.666666zM192 704h21.333333v-640H192zM810.666667 704h21.333333v-640h-21.333333zM362.666667 704v-412.8a74.453333 74.453333 0 0 1-42.666667-67.2 74.666667 74.666667 0 1 1 149.333333 0 74.453333 74.453333 0 0 1-64 73.6V320h174.592A63.786667 63.786667 0 0 1 640 277.333333a64 64 0 1 1 0 128 63.786667 63.786667 0 0 1-60.074667-42.666666H405.333333v149.333333h174.592A63.786667 63.786667 0 0 1 640 469.333333a64 64 0 1 1 0 128 63.786667 63.786667 0 0 1-60.074667-42.666666H405.333333V704h-42.666666z m74.666666-469.333333a10.666667 10.666667 0 0 0 0-21.333334H405.333333v-32a10.666667 10.666667 0 0 0-21.333333 0V213.333333h-32a10.666667 10.666667 0 0 0 0 21.333334H384v32a10.666667 10.666667 0 0 0 21.333333 0V234.666667h32z"  horiz-adv-x="1024" />
      
      <glyph glyph-name="gongzuoliu_fanhuijiantou" unicode="&#59448;" d="M759.999535-127.99808c-20.415962 0-40.703924 7.679986-54.975897 22.591958l-431.99919 452.863151a58.75189 58.75189 0 0 0 0.575999 83.263843l431.99919 443.13517c25.983951 26.75195 71.551866 29.567945 101.56781 6.463987 30.079944-23.167957 33.279938-63.551881 7.295986-90.30383l-391.679266-401.599247 392.063265-411.00723c25.727952-26.943949 21.951959-67.327874-8.319984-90.23983a77.247855 77.247855 0 0 0-46.527913-15.167972z"  horiz-adv-x="1024" />
      
      <glyph glyph-name="gongzuoliu_liuchengjilu" unicode="&#59440;" d="M384 704h256a64 64 0 0 1 0 128H384a64 64 0 0 1 0-128zM832 768h-64v-96a32 32 0 0 0-32-32h-448a32 32 0 0 0-32 32V768H192a64 64 0 0 1-64-64v-704a64 64 0 0 1 64-64h640a64 64 0 0 1 64 64V704a64 64 0 0 1-64 64z m-352-512h-192a32 32 0 0 0 0 64h192a32 32 0 0 0 0-64z m256 192h-448a32 32 0 0 0 0 64h448a32 32 0 0 0 0-64z"  horiz-adv-x="1024" />
      
      <glyph glyph-name="gongzuoliu_liuchengtu" unicode="&#59441;" d="M960 128V352a32 32 0 0 1-32 32H576V512h128a64 64 0 0 1 64 64V768a64 64 0 0 1-64 64H384a64 64 0 0 1-64-64v-192a64 64 0 0 1 64-64h128v-128H160a32 32 0 0 1-32-32V128a64 64 0 0 1-64-64v-128a64 64 0 0 1 64-64h128a64 64 0 0 1 64 64v128a64 64 0 0 1-64 64H192V320h320v-192H448a64 64 0 0 1-64-64v-128a64 64 0 0 1 64-64h192a64 64 0 0 1 64 64v128a64 64 0 0 1-64 64H576V320h320v-192h-64a64 64 0 0 1-64-64v-128a64 64 0 0 1 64-64h128a64 64 0 0 1 64 64v128a64 64 0 0 1-64 64z"  horiz-adv-x="1024" />
      
      <glyph glyph-name="welConfig-small" unicode="&#58884;" d="M832 768H192a64 64 0 0 1-64-64v-640a64 64 0 0 1 64-64h640a64 64 0 0 1 64 64V704a64 64 0 0 1-64 64z m0-672a32 32 0 0 0-32-32H224a32 32 0 0 0-32 32V672a32 32 0 0 0 32 32h576a32 32 0 0 0 32-32zM320 608h384q32 0 32-32v-384q0-32-32-32H320q-32 0-32 32V576q0 32 32 32z"  horiz-adv-x="1024" />
      
      <glyph glyph-name="welConfig-big" unicode="&#58883;" d="M832 768H192a64 64 0 0 1-64-64v-640a64 64 0 0 1 64-64h640a64 64 0 0 1 64 64V704a64 64 0 0 1-64 64z m0-672a32 32 0 0 0-32-32H224a32 32 0 0 0-32 32V672a32 32 0 0 0 32 32h576a32 32 0 0 0 32-32zM320 608h128q32 0 32-32v-128q0-32-32-32H320q-32 0-32 32V576q0 32 32 32zM576 608h128q32 0 32-32v-128q0-32-32-32H576q-32 0-32 32V576q0 32 32 32zM576 352h128q32 0 32-32v-128q0-32-32-32H576q-32 0-32 32V320q0 32 32 32zM320 352h128q32 0 32-32v-128q0-32-32-32H320q-32 0-32 32V320q0 32 32 32z"  horiz-adv-x="1024" />
      
      <glyph glyph-name="help" unicode="&#58881;" d="M512 640a192 192 0 0 1-192-192 32 32 0 0 1 64 0 128 128 0 0 0 256 0c0-33.28-22.4-48.64-58.24-70.4A123.52 123.52 0 0 1 512 300.79999999999995a41.6 41.6 0 0 1 0-12.8v-64a32 32 0 0 1 64 0v64c0 10.24 14.72 19.84 39.04 34.56A144.64 144.64 0 0 1 704 448a192 192 0 0 1-192 192zM512 96a32 32 0 1 1 64 0 32 32 0 1 1-64 0zM512 832A448 448 0 1 0 64 384 448 448 0 0 0 512 832m0 64a512 512 0 1 1 512-512A512 512 0 0 1 512 896z"  horiz-adv-x="1024" />
      
      <glyph glyph-name="upgrade_log" unicode="&#58882;" d="M288 704a32 32 0 0 1 32 32V864a32 32 0 0 1-64 0v-128a32 32 0 0 1 32-32z m448 0a32 32 0 0 1 32 32V864a32 32 0 0 1-64 0v-128a32 32 0 0 1 32-32zM896 832h-64v-64h64v-832H128V768h64V832h-64a64 64 0 0 1-64-64v-832a64 64 0 0 1 64-64h768a64 64 0 0 1 64 64V768a64 64 0 0 1-64 64zM416 768h192a32 32 0 0 1 0 64H416a32 32 0 0 1 0-64z m279.04-331.52l-128 128a30.08 30.08 0 0 1-22.4 11.52 30.08 30.08 0 0 1-22.4-8.96l-128-128a30.72 30.72 0 0 1 43.52-43.52L512 468.48V96a32 32 0 0 1 64 0V468.48l75.52-75.52a30.72 30.72 0 0 1 43.52 43.52z"  horiz-adv-x="1024" />
      
      <glyph glyph-name="zhuanyi" unicode="&#58880;" d="M672 192H352a32 32 0 0 1 0-64h320a32 32 0 0 1 0 64z m96 512v-64H544a96 96 0 0 1-96-96v-192a32 32 0 0 1 64 0V544a32 32 0 0 0 32 32h224v-64l128 96-128 96zM448 768H192a64 64 0 0 1-64-64v-640a64 64 0 0 1 64-64h640a64 64 0 0 1 64 64V384h-64v-320H192V704h256v64z"  horiz-adv-x="1024" />
      
      <glyph glyph-name="upload" unicode="&#59264;" d="M960-96H64a32 32 0 0 0-32 32V832a32 32 0 0 0 32 32h896a32 32 0 0 0 32-32v-896a32 32 0 0 0-32-32zM512 544c-88.368 0-160-71.632-160-160s71.632-160 160-160 160 71.632 160 160-71.632 160-160 160z m80-176h-64v-64h-32v64h-64v32h64v64h32v-64h64v-32z"  horiz-adv-x="1024" />
      
      <glyph glyph-name="add" unicode="&#59265;" d="M896 426.666667h-341.333333V768a42.666667 42.666667 0 0 1-85.333334 0v-341.333333H128a42.666667 42.666667 0 0 1 0-85.333334h341.333333v-341.333333a42.666667 42.666667 0 0 1 85.333334 0v341.333333h341.333333a42.666667 42.666667 0 0 1 0 85.333334z"  horiz-adv-x="1024" />
      
      <glyph glyph-name="duihao" unicode="&#59266;" d="M512 384m-426.666667 0a426.666667 426.666667 0 1 1 853.333334 0 426.666667 426.666667 0 1 1-853.333334 0ZM469.333333 170.66666699999996a42.538667 42.538667 0 0 0-30.165333 12.501333l-170.666667 170.666667a42.624 42.624 0 1 0 60.330667 60.330666L469.333333 273.664l268.501334 268.501333a42.624 42.624 0 1 0 60.330666-60.330666l-298.666666-298.666667A42.538667 42.538667 0 0 0 469.333333 170.66666699999996z"  horiz-adv-x="1024" />
      
      <glyph glyph-name="delete" unicode="&#59267;" d="M0 768h1024v-64H0zM256 896h512v-64H256zM448 0H384V512h64zM640 0H576V512h64zM832 640v-64l0.128-640L192-64.19200000000001V640H128v-704.192c0-35.2 28.608-63.808 63.808-63.808h640.32a63.808 63.808 0 0 1 63.872 63.808V640h-64z"  horiz-adv-x="1024" />
      
      <glyph glyph-name="default_red" unicode="&#59263;" d="M512 384m-512 0a512 512 0 1 1 1024 0 512 512 0 1 1-1024 0ZM469.333333 405.333333h-170.666666a21.333333 21.333333 0 0 0-21.333334 21.333334v170.666666a21.333333 21.333333 0 0 0 21.333334 21.333334h170.666666a21.333333 21.333333 0 0 0 21.333334-21.333334v-170.666666a21.333333 21.333333 0 0 0-21.333334-21.333334zM469.333333 149.33333300000004h-170.666666a21.333333 21.333333 0 0 0-21.333334 21.333334v170.666666a21.333333 21.333333 0 0 0 21.333334 21.333334h170.666666a21.333333 21.333333 0 0 0 21.333334-21.333334v-170.666666a21.333333 21.333333 0 0 0-21.333334-21.333334zM725.333333 149.33333300000004h-170.666666a21.333333 21.333333 0 0 0-21.333334 21.333334v170.666666a21.333333 21.333333 0 0 0 21.333334 21.333334h170.666666a21.333333 21.333333 0 0 0 21.333334-21.333334v-170.666666a21.333333 21.333333 0 0 0-21.333334-21.333334zM640 617.7919999999999L745.792 512 640 406.208 534.208 512 640 617.7919999999999M640 640a19.136 19.136 0 0 1-13.589333-5.632l-108.778667-108.778667a19.242667 19.242667 0 0 1 0-27.2l108.778667-108.778666a19.2 19.2 0 0 1 27.178666 0.021333l108.778667 108.778667a19.242667 19.242667 0 0 1 0 27.2l-108.778667 108.778666A19.2 19.2 0 0 1 640 640z"  horiz-adv-x="1024" />
      
      <glyph glyph-name="default_green" unicode="&#59259;" d="M512 384m-512 0a512 512 0 1 1 1024 0 512 512 0 1 1-1024 0ZM469.333333 405.333333h-170.666666a21.333333 21.333333 0 0 0-21.333334 21.333334v170.666666a21.333333 21.333333 0 0 0 21.333334 21.333334h170.666666a21.333333 21.333333 0 0 0 21.333334-21.333334v-170.666666a21.333333 21.333333 0 0 0-21.333334-21.333334zM469.333333 149.33333300000004h-170.666666a21.333333 21.333333 0 0 0-21.333334 21.333334v170.666666a21.333333 21.333333 0 0 0 21.333334 21.333334h170.666666a21.333333 21.333333 0 0 0 21.333334-21.333334v-170.666666a21.333333 21.333333 0 0 0-21.333334-21.333334zM725.333333 149.33333300000004h-170.666666a21.333333 21.333333 0 0 0-21.333334 21.333334v170.666666a21.333333 21.333333 0 0 0 21.333334 21.333334h170.666666a21.333333 21.333333 0 0 0 21.333334-21.333334v-170.666666a21.333333 21.333333 0 0 0-21.333334-21.333334zM640 617.7919999999999L745.792 512 640 406.208 534.208 512 640 617.7919999999999M640 640a19.136 19.136 0 0 1-13.589333-5.632l-108.778667-108.778667a19.242667 19.242667 0 0 1 0-27.2l108.778667-108.778666a19.2 19.2 0 0 1 27.178666 0.021333l108.778667 108.778667a19.242667 19.242667 0 0 1 0 27.2l-108.778667 108.778666A19.2 19.2 0 0 1 640 640z"  horiz-adv-x="1024" />
      
      <glyph glyph-name="default_purple" unicode="&#59260;" d="M512 384m-512 0a512 512 0 1 1 1024 0 512 512 0 1 1-1024 0ZM469.333333 405.333333h-170.666666a21.333333 21.333333 0 0 0-21.333334 21.333334v170.666666a21.333333 21.333333 0 0 0 21.333334 21.333334h170.666666a21.333333 21.333333 0 0 0 21.333334-21.333334v-170.666666a21.333333 21.333333 0 0 0-21.333334-21.333334zM469.333333 149.33333300000004h-170.666666a21.333333 21.333333 0 0 0-21.333334 21.333334v170.666666a21.333333 21.333333 0 0 0 21.333334 21.333334h170.666666a21.333333 21.333333 0 0 0 21.333334-21.333334v-170.666666a21.333333 21.333333 0 0 0-21.333334-21.333334zM725.333333 149.33333300000004h-170.666666a21.333333 21.333333 0 0 0-21.333334 21.333334v170.666666a21.333333 21.333333 0 0 0 21.333334 21.333334h170.666666a21.333333 21.333333 0 0 0 21.333334-21.333334v-170.666666a21.333333 21.333333 0 0 0-21.333334-21.333334zM640 617.7919999999999L745.792 512 640 406.208 534.208 512 640 617.7919999999999M640 640a19.136 19.136 0 0 1-13.589333-5.632l-108.778667-108.778667a19.242667 19.242667 0 0 1 0-27.2l108.778667-108.778666a19.2 19.2 0 0 1 27.178666 0.021333l108.778667 108.778667a19.242667 19.242667 0 0 1 0 27.2l-108.778667 108.778666A19.2 19.2 0 0 1 640 640z"  horiz-adv-x="1024" />
      
      <glyph glyph-name="default_blue" unicode="&#59261;" d="M512 384m-512 0a512 512 0 1 1 1024 0 512 512 0 1 1-1024 0ZM469.333333 405.333333h-170.666666a21.333333 21.333333 0 0 0-21.333334 21.333334v170.666666a21.333333 21.333333 0 0 0 21.333334 21.333334h170.666666a21.333333 21.333333 0 0 0 21.333334-21.333334v-170.666666a21.333333 21.333333 0 0 0-21.333334-21.333334zM469.333333 149.33333300000004h-170.666666a21.333333 21.333333 0 0 0-21.333334 21.333334v170.666666a21.333333 21.333333 0 0 0 21.333334 21.333334h170.666666a21.333333 21.333333 0 0 0 21.333334-21.333334v-170.666666a21.333333 21.333333 0 0 0-21.333334-21.333334zM725.333333 149.33333300000004h-170.666666a21.333333 21.333333 0 0 0-21.333334 21.333334v170.666666a21.333333 21.333333 0 0 0 21.333334 21.333334h170.666666a21.333333 21.333333 0 0 0 21.333334-21.333334v-170.666666a21.333333 21.333333 0 0 0-21.333334-21.333334zM640 617.7919999999999L745.792 512 640 406.208 534.208 512 640 617.7919999999999M640 640a19.136 19.136 0 0 1-13.589333-5.632l-108.778667-108.778667a19.242667 19.242667 0 0 1 0-27.2l108.778667-108.778666a19.2 19.2 0 0 1 27.178666 0.021333l108.778667 108.778667a19.242667 19.242667 0 0 1 0 27.2l-108.778667 108.778666A19.2 19.2 0 0 1 640 640z"  horiz-adv-x="1024" />
      
      <glyph glyph-name="default_yellow" unicode="&#59262;" d="M512 384m-512 0a512 512 0 1 1 1024 0 512 512 0 1 1-1024 0ZM469.333333 405.333333h-170.666666a21.333333 21.333333 0 0 0-21.333334 21.333334v170.666666a21.333333 21.333333 0 0 0 21.333334 21.333334h170.666666a21.333333 21.333333 0 0 0 21.333334-21.333334v-170.666666a21.333333 21.333333 0 0 0-21.333334-21.333334zM469.333333 149.33333300000004h-170.666666a21.333333 21.333333 0 0 0-21.333334 21.333334v170.666666a21.333333 21.333333 0 0 0 21.333334 21.333334h170.666666a21.333333 21.333333 0 0 0 21.333334-21.333334v-170.666666a21.333333 21.333333 0 0 0-21.333334-21.333334zM725.333333 149.33333300000004h-170.666666a21.333333 21.333333 0 0 0-21.333334 21.333334v170.666666a21.333333 21.333333 0 0 0 21.333334 21.333334h170.666666a21.333333 21.333333 0 0 0 21.333334-21.333334v-170.666666a21.333333 21.333333 0 0 0-21.333334-21.333334zM640 617.7919999999999L745.792 512 640 406.208 534.208 512 640 617.7919999999999M640 640a19.136 19.136 0 0 1-13.589333-5.632l-108.778667-108.778667a19.242667 19.242667 0 0 1 0-27.2l108.778667-108.778666a19.2 19.2 0 0 1 27.178666 0.021333l108.778667 108.778667a19.242667 19.242667 0 0 1 0 27.2l-108.778667 108.778666A19.2 19.2 0 0 1 640 640z"  horiz-adv-x="1024" />
      
      <glyph glyph-name="check_password" unicode="&#59256;" d="M511.936 832c0-68.928-230.4-172.288-384-172.288v-379.072c-3.968-206.784 384-344.64 384-344.64s387.904 137.856 384 344.64V659.712c-153.6 0-384 103.36-384 172.288z m0-827.584C409.024 45.24800000000005 189.632 157.69600000000003 192 280.64v320c105.088 14.592 241.216 60.864 320 124.8 78.72-63.936 214.912-110.208 320-124.8v-321.216c2.24-121.408-217.216-234.048-320.064-275.008zM508.544 304.70399999999995L406.656 406.656l-45.312-45.312 154.112-154.048L729.6 492.8l-51.2 38.4z"  horiz-adv-x="1024" />
      
      <glyph glyph-name="username" unicode="&#59257;" d="M651.84 362.048c3.648 2.432 7.04 5.248 10.56 7.808 8.32 6.08 16.256 12.608 23.744 19.584 3.328 3.072 6.72 6.08 9.92 9.344 9.28 9.6 17.792 19.904 25.472 30.848 2.176 3.072 4.032 6.336 6.08 9.472 6.592 10.368 12.544 21.12 17.6 32.384 1.024 2.304 2.24 4.416 3.2 6.72 5.504 13.312 9.728 27.264 12.928 41.6 0.768 3.328 1.344 6.656 1.984 10.048C766.08 544.96 768 560.256 768 576a256 256 0 0 1-512 0 255.36 255.36 0 0 1 116.672-214.336A448.064 448.064 0 0 1 64-64h64c0 211.712 172.288 384 384 384 51.648 0 99.584 15.616 139.84 42.048zM320 576c0 105.856 86.144 192 192 192s192-86.144 192-192-86.144-192-192-192-192 86.144-192 192zM718.336 333.24800000000005c-19.008-16.192-39.808-30.08-62.272-41.536A384.448 384.448 0 0 0 896-64h64a447.424 447.424 0 0 1-241.664 397.248z"  horiz-adv-x="1024" />
      
      <glyph glyph-name="password" unicode="&#59258;" d="M880.384 512H384V608C384 696.192 455.808 768 544 768c77.248 0 141.888-55.04 156.736-128h64A223.36 223.36 0 0 1 320 608V512H207.616C163.648 512 128 476.352 128 432.384v-416.768C128-28.351999999999975 163.648-64 207.616-64h672.768c43.968 0 79.616 35.648 79.616 79.616V432.384C960 476.352 924.352 512 880.384 512zM896 15.615999999999985a15.616 15.616 0 0 0-15.616-15.616H207.616A15.616 15.616 0 0 0 192 15.615999999999985V432.384C192 441.024 198.976 448 207.616 448h672.768c8.64 0 15.616-6.976 15.616-15.616v-416.768zM512 320h64v-192H512z"  horiz-adv-x="1024" />
      
      <glyph glyph-name="city" unicode="&#59220;" d="M512 384m-512 0a512 512 0 1 1 1024 0 512 512 0 1 1-1024 0ZM725.333333 192V418.133333a21.333333 21.333333 0 0 1-21.333333 21.333334h-85.333333a21.333333 21.333333 0 0 1-21.333334-21.333334V192h-42.666666V597.333333a21.333333 21.333333 0 0 1-21.333334 21.333334H320a21.333333 21.333333 0 0 1-21.333333-21.333334v-405.333333h-42.666667v-42.666667h512v42.666667h-42.666667z m-85.333333 192h42.666667v-42.666667h-42.666667v42.666667z m0-85.333333h42.666667v-42.666667h-42.666667v42.666667z m-192 256h42.666667v-42.666667h-42.666667v42.666667z m0-85.333334h42.666667v-42.666666h-42.666667v42.666666z m0-85.333333h42.666667v-42.666667h-42.666667v42.666667z m0-85.333333h42.666667v-42.666667h-42.666667v42.666667z m-85.333333 256h42.666666v-42.666667h-42.666666v42.666667z m0-85.333334h42.666666v-42.666666h-42.666666v42.666666z m0-85.333333h42.666666v-42.666667h-42.666666v42.666667z m0-85.333333h42.666666v-42.666667h-42.666666v42.666667z"  horiz-adv-x="1024" />
      
      <glyph glyph-name="module" unicode="&#59221;" d="M512 384m-512 0a512 512 0 1 1 1024 0 512 512 0 1 1-1024 0ZM768 405.333333h-42.666667v91.157334A58.176 58.176 0 0 1 667.157333 554.666667H576v42.666666a64 64 0 1 1-128 0v-42.666666h-91.157333A58.176 58.176 0 0 1 298.666667 496.490667V405.333333h42.666666a64 64 0 1 0 0-128h-42.666666v-91.157333A58.176 58.176 0 0 1 356.842667 128H448v42.666667a64 64 0 1 0 128 0v-42.666667h91.157333A58.176 58.176 0 0 1 725.333333 186.17600000000004V277.33333300000004h42.666667a64 64 0 1 1 0 128z"  horiz-adv-x="1024" />
      
      <glyph glyph-name="navigation" unicode="&#59222;" d="M512 384m-512 0a512 512 0 1 1 1024 0 512 512 0 1 1-1024 0ZM512 640c-141.376 0-256-114.624-256-256s114.624-256 256-256 256 114.624 256 256-114.624 256-256 256z m-1.28-384l-42.154667 105.685333L362.666667 405.802667 618.666667 512l-107.946667-256z"  horiz-adv-x="1024" />
      
      <glyph glyph-name="kuaijierukou_guanli1" unicode="&#59223;" d="M512 384m-512 0a512 512 0 1 1 1024 0 512 512 0 1 1-1024 0ZM661.333333 661.333333v-234.666666H320v-320h-42.666667V661.333333h384z m21.333334-128v-128H362.666667v-64h384v192h-64z"  horiz-adv-x="1024" />
      
      <glyph glyph-name="kuaijierukou_renyuan3" unicode="&#59224;" d="M512 384m-512 0a512 512 0 1 1 1024 0 512 512 0 1 1-1024 0ZM384 533.333333a128 128 0 1 0 256 0 128 128 0 0 0-256 0z m247.274667-179.392L554.666667 277.333333l-21.333334 21.333334 21.333334 21.333333-42.666667 42.666667-42.666667-42.666667 21.333334-21.333333-21.333334-21.333334-76.608 76.608C313.578667 329.045333 256 253.568 256 164.266667v-12.778667C256 106.752 342.677333 106.666667 449.536 106.666667h124.928C681.322667 106.666667 768 108.309333 768 151.488V164.266667c0 89.301333-57.578667 164.778667-136.725333 189.674666z"  horiz-adv-x="1024" />
      
      <glyph glyph-name="kuaijierukou_hulianwang2" unicode="&#59225;" d="M512 384m-512 0a512 512 0 1 1 1024 0 512 512 0 1 1-1024 0ZM713.152 405.333333L746.666667 384l-234.666667-149.333333-234.666667 149.333333 33.514667 21.333333L512 277.333333l201.152 128zM512 170.666667l-201.152 128L277.333333 277.333333l234.666667-149.333333 234.666667 149.333333-33.514667 21.333334L512 170.666667z m0 469.333333l-234.666667-149.333333 234.666667-149.333334 234.666667 149.333334-234.666667 149.333333z"  horiz-adv-x="1024" />
      
      <glyph glyph-name="kuaijierukou_sanwei" unicode="&#59226;" d="M506.721649 378.721649m-506.721649 0a506.721649 506.721649 0 1 1 1013.443299 0 506.721649 506.721649 0 1 1-1013.443299 0ZM717.85567 505.402062l-211.134021-105.56701-211.13402 105.56701 211.13402 105.56701 211.134021-105.56701z m-443.381443-42.226804v-211.134021l211.13402-105.56701v211.13402l-211.13402 105.567011z m253.360825-105.567011v-211.13402l211.13402 105.56701v211.134021l-211.13402-105.567011z"  horiz-adv-x="1024" />
      
      <glyph glyph-name="kuaijierukou_quanxian" unicode="&#59227;" d="M512 384m-512 0a512 512 0 1 1 1024 0 512 512 0 1 1-1024 0ZM512 661.333333c0-42.666667-128-106.666667-213.333333-106.666666v-234.666667c-2.197333-128 213.333333-213.333333 213.333333-213.333333s215.530667 85.333333 213.333333 213.333333V554.666667c-85.333333 0-213.333333 64-213.333333 106.666666z m64-341.333333v-21.333333h-64v-42.666667h-21.333333v131.925333A63.786667 63.786667 0 0 0 448 448a64 64 0 1 0 64-64v-64h64z"  horiz-adv-x="1024" />
      
      <glyph glyph-name="kuaijierukou_hulianwang" unicode="&#59228;" d="M512 384m-512 0a512 512 0 1 1 1024 0 512 512 0 1 1-1024 0ZM330.666667 256a32 32 0 1 0-64.021334 0.021333A32 32 0 0 0 330.666667 256zM725.333333 288a32 32 0 1 1 0.021334-64.021333A32 32 0 0 1 725.333333 288z m-1.066666 21.226667c0.362667 0 0.704 0.106667 1.066666 0.106666a53.333333 53.333333 0 0 0 20.266667-4.032V501.333333l-183.381333 100.032a52.778667 52.778667 0 0 0-10.837334-18.389333l172.885334-94.293333v-179.456zM512 586.666667a32 32 0 1 1-0.021333 64.021333A32 32 0 0 1 512 586.666667z m-214.4-98.005334l174.357333 95.104a53.12 53.12 0 0 0-10.474666 18.581334L276.266667 501.333333v-197.077333a52.906667 52.906667 0 0 0 21.333333 4.970667v179.434666z m213.333333-347.029333l-165.056 90.026667a53.12 53.12 0 0 0-13.674666-16.832l178.752-97.493334 180.032 98.197334a53.034667 53.034667 0 0 0-13.312 17.045333l-166.741334-90.944zM501.333333 394.666667l106.666667 64-106.666667 64-106.666666-64 106.666666-64z m21.333334-21.333334v-128l106.666666 64v128l-106.666666-64z m-42.666667 0l-106.666667 64v-128l106.666667-64v128z"  horiz-adv-x="1024" />
      
      <glyph glyph-name="kuaijierukou_hulianwang3" unicode="&#59229;" d="M512 384m-512 0a512 512 0 1 1 1024 0 512 512 0 1 1-1024 0ZM725.333333 507.306667c0-110.741333-213.333333-225.578667-213.333333-225.578667S298.666667 396.565333 298.666667 507.306667s106.666667 175.445333 213.333333 100.266666c106.666667 75.178667 213.333333 10.474667 213.333333-100.266666zM512 149.077333V233.386667a21.184 21.184 0 0 1-21.333333 21.077333c-76.693333 0-135.424 82.858667-151.573334 114.794667a21.525333 21.525333 0 0 1-28.629333 9.429333 20.970667 20.970667 0 0 1-9.536-28.288c22.336-44.096 84.394667-124.522667 168.426667-136.576v-64.746667c-0.021333-11.648 9.514667-21.077333 21.312-21.077333s21.333333 9.429333 21.333333 21.077333z m42.666667 0v64.746667c84.010667 12.053333 146.090667 92.48 168.426666 136.576a20.970667 20.970667 0 0 1-9.536 28.288 21.504 21.504 0 0 1-28.629333-9.429333c-16.170667-31.936-74.901333-114.794667-151.573333-114.794667-11.797333 0-21.333333-9.429333-21.333334-21.077333v-84.309334c-0.021333-11.648 9.514667-21.077333 21.312-21.077333s21.333333 9.429333 21.333334 21.077333z"  horiz-adv-x="1024" />
      
      <glyph glyph-name="kuaijierukou_hulianwang1" unicode="&#59230;" d="M512 384m-512 0a512 512 0 1 1 1024 0 512 512 0 1 1-1024 0ZM768 298.666667l-256-170.666667-256 170.666667 256 170.666666zM768 469.333333l-256-170.666666-256 170.666666 256 170.666667z"  horiz-adv-x="1024" />
      
      <glyph glyph-name="kuaijierukou_bianji" unicode="&#59231;" d="M512 384m-512 0a512 512 0 1 1 1024 0 512 512 0 1 1-1024 0ZM596.949333 106.666667H704a21.333333 21.333333 0 0 1 21.333333 21.333333v107.050667L596.949333 106.666667zM782.997333 368.490667l-30.72 30.72a20.928 20.928 0 0 1-29.632 0l-201.813333-201.813334 60.330667-60.330666 201.813333 201.813333a20.928 20.928 0 0 1 0.021333 29.610667zM490.666667 106.88l75.434666 15.082667-60.352 60.330666zM704 661.333333H320a21.333333 21.333333 0 0 1-21.333333-21.333333v-512a21.333333 21.333333 0 0 1 21.333333-21.333333h69.098667L725.333333 442.901333V640a21.333333 21.333333 0 0 1-21.333333 21.333333z m-170.666667-298.666666h-170.666666v42.666666h170.666666v-42.666666z m128 85.333333H362.666667v42.666667h298.666666v-42.666667z m0 85.333333H362.666667v42.666667h298.666666v-42.666667z"  horiz-adv-x="1024" />
      
      <glyph glyph-name="kuaijierukou_shuju" unicode="&#59232;" d="M512 384m-512 0a512 512 0 1 1 1024 0 512 512 0 1 1-1024 0ZM320 533.333333c0 47.125333 74.176 85.333333 192 85.333334s192-38.208 192-85.333334-74.176-85.333333-192-85.333333-192 38.208-192 85.333333z m192-128c-117.824 0-192 38.208-192 85.333334v-106.666667c0-47.125333 74.176-85.333333 192-85.333333s192 38.208 192 85.333333v106.666667c0-47.125333-74.176-85.333333-192-85.333334z m0-149.333333c-117.824 0-192 38.208-192 85.333333v-106.666666c0-47.125333 74.176-85.333333 192-85.333334s192 38.208 192 85.333334v106.666666c0-47.125333-74.176-85.333333-192-85.333333z"  horiz-adv-x="1024" />
      
      <glyph glyph-name="kuaijierukou_renyuan2" unicode="&#59233;" d="M512 384m-512 0a512 512 0 1 1 1024 0 512 512 0 1 1-1024 0ZM608.682667 149.333333H299.648a236.864 236.864 0 0 0-0.981333 19.562667c0 111.061333 77.141333 203.882667 180.629333 228.224a117.248 117.248 0 0 0-63.466667 104.213333c0 64.810667 52.458667 117.333333 117.162667 117.333334a117.248 117.248 0 0 0 117.162667-117.333334 117.290667 117.290667 0 0 0-63.466667-104.213333c50.666667-11.925333 94.933333-40.32 127.018667-79.168a105.877333 105.877333 0 0 1-20.288 2.048 106.602667 106.602667 0 0 1-106.517334-106.666667c0-24.128 8.298667-46.122667 21.781334-64z m64.170666 10.688a10.773333 10.773333 0 0 1 7.786667 4.245334l63.914667 85.333333a10.666667 10.666667 0 0 1-17.045334 12.778667l-56.533333-75.498667-33.941333 33.984a10.666667 10.666667 0 1 1-15.061334-15.082667l42.602667-42.666666a10.645333 10.645333 0 0 1 7.530667-3.114667l0.746666 0.021333z"  horiz-adv-x="1024" />
      
      <glyph glyph-name="kuaijierukou_wenjian1" unicode="&#59234;" d="M512 384m-512 0a512 512 0 1 1 1024 0 512 512 0 1 1-1024 0ZM746.666667 554.666667H533.333333l-36.416 36.416a21.333333 21.333333 0 0 1-15.082666 6.250666H277.333333a21.333333 21.333333 0 0 1-21.333333-21.333333v-384a21.333333 21.333333 0 0 1 21.333333-21.333333h469.333334a21.333333 21.333333 0 0 1 21.333333 21.333333V533.333333a21.333333 21.333333 0 0 1-21.333333 21.333334zM437.333333 320h-106.666666a10.666667 10.666667 0 0 0 0 21.333333h106.666666a10.666667 10.666667 0 0 0 0-21.333333z m0 64h-106.666666a10.666667 10.666667 0 0 0 0 21.333333h106.666666a10.666667 10.666667 0 0 0 0-21.333333zM725.333333 469.333333H298.666667v35.562667c0 3.925333 3.178667 7.104 7.104 7.104h412.437333c3.946667 0 7.125333-3.178667 7.125333-7.104V469.333333z"  horiz-adv-x="1024" />
      
      <glyph glyph-name="kuaijierukou_wendang3" unicode="&#59235;" d="M512 384m-512 0a512 512 0 1 1 1024 0 512 512 0 1 1-1024 0ZM746.176 576H363.157333a0.490667 0.490667 0 0 0-0.490666 0.490667v63.018666c0 0.277333 0.213333 0.490667 0.490666 0.490667h362.154667c11.797333 0 21.354667-9.557333 21.354667-21.376v-42.154667c0-0.256-0.213333-0.469333-0.490667-0.469333zM661.333333 128H298.666667a21.333333 21.333333 0 0 0-21.333334 21.333333v42.666667h384v-64zM341.333333 640a21.333333 21.333333 0 0 1-21.333333-21.333333v-490.666667h362.666667a21.333333 21.333333 0 0 1 21.333333 21.333333V640H341.333333z m298.666667-362.666667H384v42.666667h256v-42.666667z m0 106.666667H384v42.666667h256v-42.666667z m0 106.666667H384v42.666666h256v-42.666666z"  horiz-adv-x="1024" />
      
      <glyph glyph-name="kuaijierukou_wenjian2" unicode="&#59236;" d="M512 384m-512 0a512 512 0 1 1 1024 0 512 512 0 1 1-1024 0ZM733.333333 560.576H484.096l-6.912 23.210667a21.333333 21.333333 0 0 1-20.458667 15.189333h-166.08a21.269333 21.269333 0 0 1-21.269333-21.269333v-387.413334c0-11.605333 9.386667-21.269333 21.269333-21.269333h442.688c11.605333 0 21.269333 9.386667 21.269334 21.269333V539.306667a21.269333 21.269333 0 0 1-21.269334 21.269333z"  horiz-adv-x="1024" />
      
      <glyph glyph-name="kuaijierukou_renyuan" unicode="&#59237;" d="M512 384m-512 0a512 512 0 1 1 1024 0 512 512 0 1 1-1024 0ZM766.933333 128c0.576 7.061333 1.066667 14.122667 1.066667 21.333333 0 121.173333-84.266667 222.421333-197.333333 248.981334A127.914667 127.914667 0 0 1 640 512a128 128 0 1 1-256 0 127.914667 127.914667 0 0 1 69.333333-113.685333C340.266667 371.754667 256 270.506667 256 149.333333c0-7.210667 0.490667-14.272 1.066667-21.333333h509.866666z"  horiz-adv-x="1024" />
      
      </font>
</defs>
</svg>
