<?xml version="1.0" standalone="no"?><!DOCTYPE svg PUBLIC "-//W3C//DTD SVG 1.1//EN" "http://www.w3.org/Graphics/SVG/1.1/DTD/svg11.dtd"><svg t="1627542289539" class="icon" viewBox="0 0 1024 1024" version="1.1" xmlns="http://www.w3.org/2000/svg" p-id="34734" xmlns:xlink="http://www.w3.org/1999/xlink" width="200" height="200"><defs><style type="text/css">@font-face { font-family: feedback-iconfont; src: url("//at.alicdn.com/t/font_1031158_1uhr8ri0pk5.eot?#iefix") format("embedded-opentype"), url("//at.alicdn.com/t/font_1031158_1uhr8ri0pk5.woff2") format("woff2"), url("//at.alicdn.com/t/font_1031158_1uhr8ri0pk5.woff") format("woff"), url("//at.alicdn.com/t/font_1031158_1uhr8ri0pk5.ttf") format("truetype"), url("//at.alicdn.com/t/font_1031158_1uhr8ri0pk5.svg#iconfont") format("svg"); }
</style></defs><path d="M512 256a192 192 0 0 0-192 192 32 32 0 0 0 64 0 128 128 0 0 1 256 0c0 33.28-22.4 48.64-58.24 70.4A123.52 123.52 0 0 0 512 595.2a41.6 41.6 0 0 0 0 12.8v64a32 32 0 0 0 64 0v-64c0-10.24 14.72-19.84 39.04-34.56A144.64 144.64 0 0 0 704 448a192 192 0 0 0-192-192z" fill="#FFFFFF" p-id="34735"></path><path d="M544 800m-32 0a32 32 0 1 0 64 0 32 32 0 1 0-64 0Z" fill="#FFFFFF" p-id="34736"></path><path d="M512 64a448 448 0 1 1-448 448 448 448 0 0 1 448-448m0-64a512 512 0 1 0 512 512 512 512 0 0 0-512-512z" fill="#FFFFFF" p-id="34737"></path></svg>