<?xml version="1.0" standalone="no"?><!DOCTYPE svg PUBLIC "-//W3C//DTD SVG 1.1//EN" "http://www.w3.org/Graphics/SVG/1.1/DTD/svg11.dtd"><svg t="1616137901109" class="icon" viewBox="0 0 1024 1024" version="1.1" xmlns="http://www.w3.org/2000/svg" p-id="5332" xmlns:xlink="http://www.w3.org/1999/xlink" width="16" height="16"><defs><style type="text/css"></style></defs><path d="M855.265 811.793L727.407 683.936c47.435-57.088 73.262-129.072 72.879-203.293C800.286 304.136 657.15 161 480.643 161S161 304.136 161 480.643s143.136 319.643 319.643 319.643c73.965-0.32 145.438-26.53 202.014-74.157l127.857 127.857c12.019 12.019 31.453 12.019 43.471 0 12.019-12.019 12.019-31.453 0-43.471l1.28 1.278z m-374.622-75.436c-141.218 0-255.714-114.496-255.714-255.714s114.496-255.714 255.714-255.714 255.714 114.496 255.714 255.714-114.496 255.714-255.714 255.714z" fill="#969696" p-id="5333"></path></svg>