<?xml version="1.0" standalone="no"?><!DOCTYPE svg PUBLIC "-//W3C//DTD SVG 1.1//EN" "http://www.w3.org/Graphics/SVG/1.1/DTD/svg11.dtd"><svg t="1607927804775" class="icon" viewBox="0 0 1024 1024" version="1.1" xmlns="http://www.w3.org/2000/svg" p-id="3689" xmlns:xlink="http://www.w3.org/1999/xlink" width="200" height="200"><defs><style type="text/css"></style></defs><path d="M828.32 811.25333333H184.16c-40.32 0-72.96-32.64-72.96-72.96V273.65333333c0-40.32 32.64-72.96 72.96-72.96H828.8c40.32 0 72.96 32.64 72.96 72.96v464.64c-0.48 40.32-33.12 72.96-73.44 72.96zM184.16 248.69333333c-13.92 0-24.96 11.04-24.96 24.96v464.64c0 13.92 11.04 24.96 24.96 24.96H828.8c13.92 0 24.96-11.04 24.96-24.96V273.65333333c0-13.92-11.04-24.96-24.96-24.96H184.16z" fill="#000000" p-id="3690"></path><path d="M261.44 557.33333333l46.08-10.56c3.36 31.68 20.16 47.52 49.92 48.48 36.96 0.96 54.72-15.84 54.24-49.92-2.88-26.88-20.64-40.8-54.24-41.76h-33.6v-39.36h23.04c34.08 0 52.32-14.4 54.24-43.2-0.96-23.52-14.4-35.52-40.32-36.48-25.92 1.92-41.76 16.8-47.04 44.64L266.72 418.13333333c12.48-48.48 43.2-73.44 91.68-74.4 57.6 0.96 87.36 26.88 89.28 78.24 0 26.88-14.88 46.56-44.64 58.08 36 14.4 54.24 36.96 55.2 67.68-3.84 53.76-36.48 82.56-98.4 84.96-55.68-0.48-88.8-25.92-98.4-75.36zM604.16 627.41333333H502.88V348.05333333h104.16c90.72 0.96 136.8 47.52 137.76 140.64 2.4 95.04-44.16 141.6-140.64 138.72z m1.44-237.6h-56.64v199.68h55.2c62.88 0.96 94.08-32.64 93.12-99.84-0.96-65.76-31.68-98.88-91.68-99.84z" fill="#000000" p-id="3691"></path></svg>