<?xml version="1.0" encoding="utf-8"?>
<!-- Generator: Adobe Illustrator 23.0.0, SVG Export Plug-In . SVG Version: 6.00 Build 0)  -->
<svg version="1.1" id="图层_1" xmlns="http://www.w3.org/2000/svg" xmlns:xlink="http://www.w3.org/1999/xlink" x="0px" y="0px"
	 viewBox="0 0 256 256" style="enable-background:new 0 0 256 256;" xml:space="preserve">
<style type="text/css">
	.st0{fill:#F3F3F3;}
	.st1{fill:none;}
	.st2{opacity:0.8;}
	.st3{opacity:0.55;fill:#FFFFFF;enable-background:new    ;}
	.st4{fill:#FFFFFF;}
	.st5{fill:#D1D1D1;}
</style>
<rect x="33" y="16" class="st0" width="190" height="224"/>
<rect class="st1" width="256" height="256"/>
<g class="st2">
	<path class="st3" d="M100.7,187.8c6.5,3.4,11.3,7.5,33,7.9c15.5,0.4,29.6-1.8,42-5.2c-12.9-2.5-25.7-6.3-39.1-7.2
		C126.1,182.7,113.5,184.6,100.7,187.8z"/>
	<path class="st3" d="M33,240h190c0,0,0-0.1,0-0.2H33V240z"/>
	<path class="st3" d="M175.7,190.7c15.4,3,30.8,4,47.3-4.3c0-6,0-11.1,0-14.4C215.6,174.9,198.9,184.5,175.7,190.7z"/>
	<path class="st3" d="M33,202.6v10.4c2.1-0.7,35.4-17.1,67.7-25.3c-4.7-2.4-10.1-4.3-23.1-4.3C53,185.4,33,202.6,33,202.6z"/>
</g>
<path class="st4" d="M175.7,190.7c-12.4,3.3-26.5,5.6-42,5.2c-21.7-0.5-26.4-4.7-33-8C68.4,196,35.1,212.5,33,213.2V240h190v-53.6
	C206.5,194.7,191.1,193.6,175.7,190.7z"/>
<g>
	<rect x="72" y="30" class="st4" width="52" height="100"/>
	<path class="st5" d="M124,30h-2v1h2V30L124,30z M120,30h-2v1h2V30L120,30z M116,30h-2v1h2V30L116,30z M112,30h-2v1h2V30L112,30z
		 M108,30h-2v1h2V30L108,30z M104,30h-2v1h2V30L104,30z M100,30h-2v1h2V30L100,30z M96,30h-2v1h2V30L96,30z M92,30h-2v1h2V30L92,30z
		 M88,30h-2v1h2V30L88,30z M84,30h-2v1h2V30L84,30z M80,30h-2v1h2V30L80,30z M76,30h-2v1h2V30L76,30z M73,30h-1v2h1V30L73,30z
		 M73,34h-1v2h1V34L73,34z M73,38h-1v2h1V38L73,38z M73,42h-1v2h1V42L73,42z M73,46h-1v2h1V46L73,46z M73,50h-1v2h1V50L73,50z
		 M73,54h-1v2h1V54L73,54z M73,58h-1v2h1V58L73,58z M73,62h-1v2h1V62L73,62z M73,66h-1v2h1V66L73,66z M73,70h-1v2h1V70L73,70z
		 M73,74h-1v2h1V74L73,74z M73,78h-1v2h1V78L73,78z M73,82h-1v2h1V82L73,82z M73,86h-1v2h1V86L73,86z M73,90h-1v2h1V90L73,90z
		 M73,94h-1v2h1V94L73,94z M73,98h-1v2h1V98L73,98z M73,102h-1v2h1V102L73,102z M73,106h-1v2h1V106L73,106z M73,110h-1v2h1V110
		L73,110z M73,114h-1v2h1V114L73,114z M73,118h-1v2h1V118L73,118z M73,122h-1v2h1V122L73,122z M73,126h-1v2h1V126L73,126z M74,129
		h-2v1h2V129L74,129z M78,129h-2v1h2V129L78,129z M82,129h-2v1h2V129L82,129z M86,129h-2v1h2V129L86,129z M90,129h-2v1h2V129L90,129
		z M94,129h-2v1h2V129L94,129z M98,129h-2v1h2V129L98,129z M102,129h-2v1h2V129L102,129z M106,129h-2v1h2V129L106,129z M110,129h-2
		v1h2V129L110,129z M114,129h-2v1h2V129L114,129z M118,129h-2v1h2V129L118,129z M122,129h-2v1h2V129L122,129z M124,128h-1v2h1V128
		L124,128z M124,124h-1v2h1V124L124,124z M124,120h-1v2h1V120L124,120z M124,116h-1v2h1V116L124,116z M124,112h-1v2h1V112L124,112z
		 M124,108h-1v2h1V108L124,108z M124,104h-1v2h1V104L124,104z M124,100h-1v2h1V100L124,100z M124,96h-1v2h1V96L124,96z M124,92h-1v2
		h1V92L124,92z M124,88h-1v2h1V88L124,88z M124,84h-1v2h1V84L124,84z M124,80h-1v2h1V80L124,80z M124,76h-1v2h1V76L124,76z M124,72
		h-1v2h1V72L124,72z M124,68h-1v2h1V68L124,68z M124,64h-1v2h1V64L124,64z M124,60h-1v2h1V60L124,60z M124,56h-1v2h1V56L124,56z
		 M124,52h-1v2h1V52L124,52z M124,48h-1v2h1V48L124,48z M124,44h-1v2h1V44L124,44z M124,40h-1v2h1V40L124,40z M124,36h-1v2h1V36
		L124,36z M124,32h-1v2h1V32L124,32z"/>
</g>
<g>
	<rect x="132" y="65" class="st4" width="52" height="100"/>
	<path class="st5" d="M184,65h-2v1h2V65L184,65z M180,65h-2v1h2V65L180,65z M176,65h-2v1h2V65L176,65z M172,65h-2v1h2V65L172,65z
		 M168,65h-2v1h2V65L168,65z M164,65h-2v1h2V65L164,65z M160,65h-2v1h2V65L160,65z M156,65h-2v1h2V65L156,65z M152,65h-2v1h2V65
		L152,65z M148,65h-2v1h2V65L148,65z M144,65h-2v1h2V65L144,65z M140,65h-2v1h2V65L140,65z M136,65h-2v1h2V65L136,65z M133,65h-1v2
		h1V65L133,65z M133,69h-1v2h1V69L133,69z M133,73h-1v2h1V73L133,73z M133,77h-1v2h1V77L133,77z M133,81h-1v2h1V81L133,81z M133,85
		h-1v2h1V85L133,85z M133,89h-1v2h1V89L133,89z M133,93h-1v2h1V93L133,93z M133,97h-1v2h1V97L133,97z M133,101h-1v2h1V101L133,101z
		 M133,105h-1v2h1V105L133,105z M133,109h-1v2h1V109L133,109z M133,113h-1v2h1V113L133,113z M133,117h-1v2h1V117L133,117z M133,121
		h-1v2h1V121L133,121z M133,125h-1v2h1V125L133,125z M133,129h-1v2h1V129L133,129z M133,133h-1v2h1V133L133,133z M133,137h-1v2h1
		V137L133,137z M133,141h-1v2h1V141L133,141z M133,145h-1v2h1V145L133,145z M133,149h-1v2h1V149L133,149z M133,153h-1v2h1V153
		L133,153z M133,157h-1v2h1V157L133,157z M133,161h-1v2h1V161L133,161z M134,164h-2v1h2V164L134,164z M138,164h-2v1h2V164L138,164z
		 M142,164h-2v1h2V164L142,164z M146,164h-2v1h2V164L146,164z M150,164h-2v1h2V164L150,164z M154,164h-2v1h2V164L154,164z M158,164
		h-2v1h2V164L158,164z M162,164h-2v1h2V164L162,164z M166,164h-2v1h2V164L166,164z M170,164h-2v1h2V164L170,164z M174,164h-2v1h2
		V164L174,164z M178,164h-2v1h2V164L178,164z M182,164h-2v1h2V164L182,164z M184,163h-1v2h1V163L184,163z M184,159h-1v2h1V159
		L184,159z M184,155h-1v2h1V155L184,155z M184,151h-1v2h1V151L184,151z M184,147h-1v2h1V147L184,147z M184,143h-1v2h1V143L184,143z
		 M184,139h-1v2h1V139L184,139z M184,135h-1v2h1V135L184,135z M184,131h-1v2h1V131L184,131z M184,127h-1v2h1V127L184,127z M184,123
		h-1v2h1V123L184,123z M184,119h-1v2h1V119L184,119z M184,115h-1v2h1V115L184,115z M184,111h-1v2h1V111L184,111z M184,107h-1v2h1
		V107L184,107z M184,103h-1v2h1V103L184,103z M184,99h-1v2h1V99L184,99z M184,95h-1v2h1V95L184,95z M184,91h-1v2h1V91L184,91z
		 M184,87h-1v2h1V87L184,87z M184,83h-1v2h1V83L184,83z M184,79h-1v2h1V79L184,79z M184,75h-1v2h1V75L184,75z M184,71h-1v2h1V71
		L184,71z M184,67h-1v2h1V67L184,67z"/>
</g>
<g>
	<rect x="132" y="30" class="st4" width="52" height="27"/>
	<path class="st5" d="M180,30h-2v1h2V30L180,30z M176,30h-2v1h2V30L176,30z M172,30h-2v1h2V30L172,30z M168,30h-2v1h2V30L168,30z
		 M164,30h-2v1h2V30L164,30z M160,30h-2v1h2V30L160,30z M156,30h-2v1h2V30L156,30z M152,30h-2v1h2V30L152,30z M148,30h-2v1h2V30
		L148,30z M144,30h-2v1h2V30L144,30z M140,30h-2v1h2V30L140,30z M136,30h-2v1h2V30L136,30z M133,30h-1v2h1V30L133,30z M133,34h-1v2
		h1V34L133,34z M133,38h-1v2h1V38L133,38z M133,42h-1v2h1V42L133,42z M133,46h-1v2h1V46L133,46z M133,50h-1v2h1V50L133,50z M133,54
		h-1v2h1V54L133,54z M135,56h-2v1h2V56L135,56z M139,56h-2v1h2V56L139,56z M143,56h-2v1h2V56L143,56z M147,56h-2v1h2V56L147,56z
		 M151,56h-2v1h2V56L151,56z M155,56h-2v1h2V56L155,56z M159,56h-2v1h2V56L159,56z M163,56h-2v1h2V56L163,56z M167,56h-2v1h2V56
		L167,56z M171,56h-2v1h2V56L171,56z M175,56h-2v1h2V56L175,56z M179,56h-2v1h2V56L179,56z M183,56h-2v1h2V56L183,56z M184,54h-1v2
		h1V54L184,54z M184,50h-1v2h1V50L184,50z M184,46h-1v2h1V46L184,46z M184,42h-1v2h1V42L184,42z M184,38h-1v2h1V38L184,38z M184,34
		h-1v2h1V34L184,34z M184,30h-2v1h1v1h1V30L184,30z"/>
</g>
<g>
	<rect x="72" y="138" class="st4" width="52" height="27"/>
	<path class="st5" d="M120,138h-2v1h2V138L120,138z M116,138h-2v1h2V138L116,138z M112,138h-2v1h2V138L112,138z M108,138h-2v1h2V138
		L108,138z M104,138h-2v1h2V138L104,138z M100,138h-2v1h2V138L100,138z M96,138h-2v1h2V138L96,138z M92,138h-2v1h2V138L92,138z
		 M88,138h-2v1h2V138L88,138z M84,138h-2v1h2V138L84,138z M80,138h-2v1h2V138L80,138z M76,138h-2v1h2V138L76,138z M73,138h-1v2h1
		V138L73,138z M73,142h-1v2h1V142L73,142z M73,146h-1v2h1V146L73,146z M73,150h-1v2h1V150L73,150z M73,154h-1v2h1V154L73,154z
		 M73,158h-1v2h1V158L73,158z M73,162h-1v2h1V162L73,162z M75,164h-2v1h2V164L75,164z M79,164h-2v1h2V164L79,164z M83,164h-2v1h2
		V164L83,164z M87,164h-2v1h2V164L87,164z M91,164h-2v1h2V164L91,164z M95,164h-2v1h2V164L95,164z M99,164h-2v1h2V164L99,164z
		 M103,164h-2v1h2V164L103,164z M107,164h-2v1h2V164L107,164z M111,164h-2v1h2V164L111,164z M115,164h-2v1h2V164L115,164z M119,164
		h-2v1h2V164L119,164z M123,164h-2v1h2V164L123,164z M124,162h-1v2h1V162L124,162z M124,158h-1v2h1V158L124,158z M124,154h-1v2h1
		V154L124,154z M124,150h-1v2h1V150L124,150z M124,146h-1v2h1V146L124,146z M124,142h-1v2h1V142L124,142z M124,138h-2v1h1v1h1V138
		L124,138z"/>
</g>
</svg>
