<?xml version="1.0" encoding="utf-8"?>
<!-- Generator: Adobe Illustrator 22.1.0, SVG Export Plug-In . SVG Version: 6.00 Build 0)  -->
<svg version="1.1" id="图层_1" xmlns="http://www.w3.org/2000/svg" xmlns:xlink="http://www.w3.org/1999/xlink" x="0px" y="0px"
	 viewBox="0 0 699 175" style="enable-background:new 0 0 699 175;" xml:space="preserve">
<style type="text/css">
	.st0{fill:none;}
	.st1{fill:#F4FAE6;}
	.st2{fill:#94C833;}
	.st3{fill:#EBF4FC;}
	.st4{fill:#348FE0;}
	.st5{fill:#FDF5EA;}
	.st6{fill:#F6A53F;}
	.st7{fill:#F3F1FA;}
	.st8{fill:#CFC9F8;}
	.st9{fill:#9A8EF4;}
	.st10{fill:#FEF1F1;}
	.st11{fill:#EE6867;}
	.st12{fill:#9AACC9;}
	.st13{fill:#333333;}
	.st14{font-family:'PingFangSC-Regular-GBpc-EUC-H';}
	.st15{font-size:12px;}
</style>
<title>流程图拖拽</title>
<g>
	<path id="矩形备份-3" class="st0" d="M820.1-129H-111c-1.1,0-2,0.9-2,2v319.9c0,1.1,0.9,2,2,2h931.1c1.1,0,2-0.9,2-2V-127
		C822.1-128.1,821.3-129,820.1-129z"/>
	<g id="工作流_开始" transform="translate(0.000000, 0.395816)">
		<rect id="矩形" x="-11.8" y="-8.2" class="st0" width="68.2" height="67.3"/>
		<ellipse id="椭圆形" class="st1" cx="22.3" cy="25.5" rx="20.5" ry="20.2"/>
		<polygon id="路径" class="st2" points="17.1,33.9 17.1,17.1 32.5,25.5 		"/>
		<path id="形状" class="st2" d="M22.3,5.3c11.3,0,20.5,9.1,20.5,20.2s-9.2,20.2-20.5,20.2S1.8,36.6,1.8,25.5S11,5.3,22.3,5.3
			 M22.3,3.6C10,3.6,0.1,13.4,0.1,25.5S10,47.3,22.3,47.3s22.2-9.8,22.2-21.9S34.5,3.6,22.3,3.6L22.3,3.6z"/>
	</g>
	<g id="工作流_人工活动" transform="translate(132.332528, 0.395816)">
		<rect id="矩形_1_" x="-11.8" y="-8.2" class="st0" width="68.2" height="67.3"/>
		<rect id="矩形_2_" x="-3.3" y="7" class="st3" width="51.1" height="37"/>
		<g id="编组" transform="translate(6.817130, 13.457752)">
			<path id="形状_1_" class="st4" d="M41-8.2h-51.1c-0.9,0-1.7,0.8-1.7,1.7v37c0,0.9,0.8,1.7,1.7,1.7H41c0.9,0,1.7-0.8,1.7-1.7
				v-37C42.7-7.4,41.9-8.2,41-8.2z M41,30.5h-51.1v-37H41V30.5z"/>
			<polygon id="矩形_3_" class="st4" points="12,18.8 15.4,15.4 18.8,18.8 15.4,22.1 			"/>
			<path id="形状_2_" class="st4" d="M15.4,15.4c6.6,0,11.9,5.3,11.9,11.8h3.4c0-6.9-4.8-12.8-11.2-14.6c2.6-1.4,4.4-4.2,4.4-7.3
				c0-4.6-3.8-8.4-8.5-8.4S6.9,0.6,6.9,5.3c0,3.2,1.8,5.9,4.4,7.3C4.9,14.4,0.1,20.3,0.1,27.2h3.4C3.5,20.7,8.9,15.4,15.4,15.4z
				 M15.4,0.2c2.8,0,5.1,2.3,5.1,5s-2.3,5-5.1,5s-5.1-2.3-5.1-5S12.6,0.2,15.4,0.2z"/>
		</g>
	</g>
	<g id="工作流_人工活动_1_" transform="translate(264.665056, 0.395816)">
		<rect id="矩形_4_" x="-11.8" y="-8.2" class="st0" width="68.2" height="67.3"/>
		<rect id="矩形_5_" x="-3.3" y="7" class="st3" width="51.1" height="37"/>
		<g id="编组_1_" transform="translate(6.817130, 13.457752)">
			<path id="形状_3_" class="st4" d="M41-8.2h-51.1c-0.9,0-1.7,0.8-1.7,1.7v37c0,0.9,0.8,1.7,1.7,1.7H41c0.9,0,1.7-0.8,1.7-1.7
				v-37C42.7-7.4,41.9-8.2,41-8.2z M41,30.5h-51.1v-37H41V30.5z"/>
			<polygon id="矩形_6_" class="st4" points="12,18.8 15.4,15.4 18.8,18.8 15.4,22.1 			"/>
			<path id="形状_4_" class="st4" d="M15.4,15.4c6.6,0,11.9,5.3,11.9,11.8h3.4c0-6.9-4.8-12.8-11.2-14.6c2.6-1.4,4.4-4.2,4.4-7.3
				c0-4.6-3.8-8.4-8.5-8.4S6.9,0.6,6.9,5.3c0,3.2,1.8,5.9,4.4,7.3C4.9,14.4,0.1,20.3,0.1,27.2h3.4C3.5,20.7,8.9,15.4,15.4,15.4z
				 M15.4,0.2c2.8,0,5.1,2.3,5.1,5s-2.3,5-5.1,5s-5.1-2.3-5.1-5S12.6,0.2,15.4,0.2z"/>
		</g>
	</g>
	<g id="工作流_人工活动_2_" transform="translate(523.683924, 0.000000)">
		<rect id="矩形_7_" x="-11.8" y="-8.2" class="st0" width="68.2" height="67.3"/>
		<rect id="矩形_8_" x="-3.3" y="7" class="st3" width="51.1" height="37"/>
		<g id="编组_2_" transform="translate(6.817130, 13.457752)">
			<path id="形状_5_" class="st4" d="M41-8.2h-51.1c-0.9,0-1.7,0.8-1.7,1.7v37c0,0.9,0.8,1.7,1.7,1.7H41c0.9,0,1.7-0.8,1.7-1.7
				v-37C42.7-7.4,41.9-8.2,41-8.2z M41,30.5h-51.1v-37H41V30.5z"/>
			<polygon id="矩形_9_" class="st4" points="12,18.8 15.4,15.4 18.8,18.8 15.4,22.1 			"/>
			<path id="形状_6_" class="st4" d="M15.4,15.4c6.6,0,11.9,5.3,11.9,11.8h3.4c0-6.9-4.8-12.8-11.2-14.6c2.6-1.4,4.4-4.2,4.4-7.3
				c0-4.6-3.8-8.4-8.5-8.4S6.9,0.6,6.9,5.3c0,3.2,1.8,5.9,4.4,7.3C4.9,14.4,0.1,20.3,0.1,27.2h3.4C3.5,20.7,8.9,15.4,15.4,15.4z
				 M15.4,0.2c2.8,0,5.1,2.3,5.1,5s-2.3,5-5.1,5s-5.1-2.3-5.1-5S12.6,0.2,15.4,0.2z"/>
		</g>
	</g>
	<g id="工作流_单一网关" transform="translate(392.987507, 0.395816)">
		<rect id="矩形_10_" x="-11.8" y="-8.2" class="st0" width="68.2" height="67.3"/>
		<polygon id="矩形_11_" class="st5" points="22.3,0.2 47.8,25.5 22.3,50.7 -3.3,25.5 		"/>
		<polygon id="路径_1_" class="st6" points="26.8,18.8 22.3,23.2 17.7,18.8 15.4,21 20,25.5 15.4,30 17.7,32.2 22.3,27.7 
			26.8,32.2 29.1,30 24.5,25.5 29.1,21 		"/>
		<path id="形状_7_" class="st6" d="M22.3,2.6l23.2,22.9L22.3,48.3L-0.9,25.5L22.3,2.6 M22.3,0.2L-3.3,25.5l25.6,25.2l25.6-25.2
			L22.3,0.2L22.3,0.2z"/>
	</g>
	<g id="工作流_外部子流程" transform="translate(523.683924, 102.373913)">
		<rect id="矩形_12_" x="-11.8" y="-8.2" class="st0" width="68.2" height="67.3"/>
		<rect id="矩形_13_" x="-3.3" y="7" class="st7" width="51.1" height="37"/>
		<g id="编组_3_" transform="translate(11.929978, 15.139971)">
			<rect id="矩形_14_" x="-11.8" y="-8.2" class="st8" width="1.7" height="37"/>
			<rect id="矩形_15_" x="30.8" y="-8.2" class="st8" width="1.7" height="37"/>
		</g>
		<path id="形状_8_" class="st9" d="M47.8,5.3H8.6H6.9H-3.3C-4.3,5.3-5,6-5,7v37c0,0.9,0.8,1.7,1.7,1.7h51.1
			c0.9,0,1.7-0.8,1.7-1.7V7C49.5,6,48.8,5.3,47.8,5.3z M47.8,44H-3.3V7h51.1V44z"/>
		<path id="路径_2_" class="st9" d="M30.8,28.8c-2.2,0-4.1,1.4-4.8,3.4H12V20.4H26c0.7,2,2.6,3.4,4.8,3.4c2.8,0,5.1-2.3,5.1-5
			s-2.3-5-5.1-5c-2.2,0-4.1,1.4-4.8,3.4H12V5.3H8.6v30.3h1.7H12H26c0.7,2,2.6,3.4,4.8,3.4c2.8,0,5.1-2.3,5.1-5S33.6,28.8,30.8,28.8z
			"/>
	</g>
	<g id="工作流_结束" transform="translate(654.444502, 0.395816)">
		<rect id="矩形_16_" x="-11.8" y="-8.2" class="st0" width="68.2" height="67.3"/>
		<ellipse id="椭圆形_1_" class="st10" cx="22.3" cy="25.5" rx="20.5" ry="20.2"/>
		<rect id="矩形_17_" x="15.4" y="18.8" class="st11" width="13.6" height="13.5"/>
		<path id="形状_9_" class="st11" d="M22.3,5.3c11.3,0,20.5,9.1,20.5,20.2s-9.2,20.2-20.5,20.2S1.8,36.6,1.8,25.5S11,5.3,22.3,5.3
			 M22.3,3.6C10,3.6,0.1,13.4,0.1,25.5S10,47.3,22.3,47.3s22.2-9.8,22.2-21.9S34.5,3.6,22.3,3.6L22.3,3.6z"/>
	</g>
	<path id="直线" class="st12" d="M108,21.4l9,4.5l-9,4.5l0-4l-52.2,0v-1l52.2,0L108,21.4z"/>
	<path id="直线备份" class="st12" d="M241.1,21.4l9,4.5l-9,4.5l0-4l-52.2,0v-1l52.2,0L241.1,21.4z"/>
	<path id="直线备份-2" class="st12" d="M372.7,21.4l9,4.5l-9,4.5l0-4l-52.2,0v-1l52.2,0L372.7,21.4z"/>
	<path id="直线备份-3" class="st12" d="M501,21.4l9,4.5l-9,4.5l0-4l-52.2,0v-1l52.2,0L501,21.4z"/>
	<path id="直线备份-7" class="st12" d="M677.2,80.8l4.5,9l-4,0l0,36.1c0,2.4-1.9,4.4-4.3,4.5l-0.2,0h-91.9v-1h91.9
		c1.9,0,3.4-1.5,3.5-3.3l0-0.2l0-36.1l-4,0L677.2,80.8z"/>
	<path id="直线备份-8" class="st12" d="M510,128.6l-9,4.5l0-4l-82.1,0c-2.4,0-4.4-1.9-4.5-4.3l0-0.2V56h1v68.5
		c0,1.9,1.5,3.4,3.3,3.5l0.2,0l82.1,0l0-4L510,128.6z"/>
	<path id="直线备份-4" class="st12" d="M633.3,21.4l9,4.5l-9,4.5l0-4l-52.2,0v-1l52.2,0L633.3,21.4z"/>
	<text transform="matrix(1 0 0 1 10.6227 69.165)" class="st13 st14 st15">开始</text>
	<text transform="matrix(1 0 0 1 142.9552 69.165)" class="st13 st14 st15">申报</text>
	<text transform="matrix(1 0 0 1 275.2877 69.165)" class="st13 st14 st15">审批</text>
	<text transform="matrix(1 0 0 1 533.9537 68.9196)" class="st13 st14 st15">确认</text>
	<text transform="matrix(1 0 0 1 527.1526 172.9717)" class="st13 st14 st15">子流程</text>
	<text transform="matrix(1 0 0 1 665.0671 69.165)" class="st13 st14 st15">结束</text>
</g>
</svg>
