<svg xmlns="http://www.w3.org/2000/svg" width="103.339" height="89.481" viewBox="0 0 103.339 89.481">
  <defs>
    <style>
      .cls-1 {
        fill: rgba(45,126,250,0.1);
      }

      .cls-2 {
        fill: #fff;
      }

      .cls-2, .cls-3 {
        stroke: #a1b9de;
      }

      .cls-10, .cls-3 {
        fill: none;
      }

      .cls-3 {
        stroke-dasharray: 4 3;
      }

      .cls-4 {
        fill: rgba(45,126,255,0.25);
      }

      .cls-5, .cls-6, .cls-7 {
        fill: #2d7eff;
      }

      .cls-6 {
        opacity: 0.688;
      }

      .cls-7 {
        opacity: 0;
      }

      .cls-8 {
        fill: #2a81ff;
        opacity: 0.522;
      }

      .cls-9 {
        stroke: none;
      }
    </style>
  </defs>
  <g id="组_3401" data-name="组 3401" transform="translate(-108.661 -195)">
    <path id="路径_2579" data-name="路径 2579" class="cls-1" d="M-957.921,12664.757c11.242-8.719,18.594,10.115,34.569,4.131s14.849-12.156,28.751-10.562,25.962,22.922,22.223,34.461-5.412,16.543-26.3,19.557-54.867,2.2-63.18-11.5S-969.163,12673.476-957.921,12664.757Z" transform="translate(1076 -12429.296)"/>
    <g id="组_4242" data-name="组 4242" transform="translate(-751 -283)">
      <g id="矩形_2208" data-name="矩形 2208" class="cls-2" transform="translate(906 518)">
        <rect class="cls-9" width="18" height="15"/>
        <rect class="cls-10" x="0.5" y="0.5" width="17" height="14"/>
      </g>
      <g id="矩形_2241" data-name="矩形 2241" class="cls-2" transform="translate(886 518)">
        <rect class="cls-9" width="18" height="15"/>
        <rect class="cls-10" x="0.5" y="0.5" width="17" height="14"/>
      </g>
      <g id="矩形_2239" data-name="矩形 2239" class="cls-2" transform="translate(906 535)">
        <rect class="cls-9" width="18" height="15"/>
        <rect class="cls-10" x="0.5" y="0.5" width="17" height="14"/>
      </g>
      <g id="矩形_2242" data-name="矩形 2242" class="cls-2" transform="translate(886 535)">
        <rect class="cls-9" width="18" height="15"/>
        <rect class="cls-10" x="0.5" y="0.5" width="17" height="14"/>
      </g>
      <g id="矩形_2210" data-name="矩形 2210" class="cls-2" transform="translate(906 501)">
        <rect class="cls-9" width="18" height="15"/>
        <rect class="cls-10" x="0.5" y="0.5" width="17" height="14"/>
      </g>
      <g id="矩形_2240" data-name="矩形 2240" class="cls-2" transform="translate(886 501)">
        <rect class="cls-9" width="18" height="15"/>
        <rect class="cls-10" x="0.5" y="0.5" width="17" height="14"/>
      </g>
    </g>
    <g id="组_3400" data-name="组 3400" transform="translate(10 -13)">
      <g id="组_3368" data-name="组 3368" transform="translate(-65.714 -62.5)">
        <path id="路径_2570" data-name="路径 2570" class="cls-3" d="M-851.725,13972.716s19.132-16.4,20.211-20.907-1.258-11.185-4.673-9.561-5.213,9.561,0,9.561,10.729-4.668,12.4-6.313,5.392-6.494,5.392-6.494" transform="translate(1072.217 -13653.407)"/>
      </g>
      <circle id="椭圆_242" data-name="椭圆 242" class="cls-4" cx="2.5" cy="2.5" r="2.5" transform="translate(125 223)"/>
      <circle id="椭圆_243" data-name="椭圆 243" class="cls-5" cx="2.5" cy="2.5" r="2.5" transform="translate(177 260)"/>
      <circle id="椭圆_244" data-name="椭圆 244" class="cls-6" cx="1.5" cy="1.5" r="1.5" transform="translate(116 244)"/>
      <g id="组_3369" data-name="组 3369" transform="translate(-1613 189)">
        <rect id="矩形_2033" data-name="矩形 2033" class="cls-7" width="16" height="16" transform="translate(1799 19)"/>
        <path id="发布" class="cls-5" d="M15.065.1a.617.617,0,0,0-.69,0L.561,6.963c-.277,0-.415.275-.415.549s.138.549.277.549l3.315,2.058a.655.655,0,0,0,.829-.138L11.888,3.4l.277.137-6.632,7a.5.5,0,0,0-.138.412v3.017a.754.754,0,0,0,.415.686A.611.611,0,0,0,6.5,14.51l1.657-1.647,3.315,2.2a.512.512,0,0,0,.415.137h.277c.276-.137.415-.275.415-.549L15.342.927c0-.412,0-.687-.277-.825Z" transform="translate(1799.072 19.125)"/>
      </g>
      <circle id="椭圆_245" data-name="椭圆 245" class="cls-4" cx="2.5" cy="2.5" r="2.5" transform="translate(101 267)"/>
      <circle id="椭圆_246" data-name="椭圆 246" class="cls-8" cx="1.5" cy="1.5" r="1.5" transform="translate(164 251)"/>
    </g>
  </g>
</svg>
