<svg xmlns="http://www.w3.org/2000/svg" viewBox="0 0 24 24" class="design-iconfont">
  <path d="M15.001,17.9991024 L15.0011017,15.1902265 C15.0011017,14.9140841 15.2249593,14.6902265 15.5011017,14.6902265 C15.6334303,14.6902265 15.7603625,14.7426836 15.8540839,14.8361028 L19.4562148,18.4266233 C19.6517919,18.62157 19.6523029,18.9381521 19.4573562,19.1337292 L15.8540839,22.7253911 C15.6585068,22.9203378 15.3419247,22.9198268 15.146978,22.7242497 C15.0535587,22.6305283 15.0011017,22.5035961 15.0011017,22.3712675 L15.0010074,19.4999999 L9,19.5 C4.85786438,19.5 1.5,16.1421356 1.5,12 C1.5,11.2983445 1.59635236,10.6191933 1.77654763,9.9750559 C1.83670317,9.61972291 2.1454568,9.34871238 2.51731357,9.34871238 C2.93221258,9.34871238 3.26855468,9.68609258 3.26855468,10.1022722 C3.26855468,10.1677426 3.2602311,10.2312629 3.24458753,10.2918265 C3.08593088,10.8347318 3,11.4073308 3,12 C3,15.3137085 5.6862915,18 9,18 L15.001,17.9991024 Z M8.50987588,1.20010843 C8.78601826,1.20010843 9.00987588,1.42396605 9.00987588,1.70010843 L9.009,4.49910243 L15,4.5 C19.1421356,4.5 22.5,7.85786438 22.5,12 C22.5,12.6863675 22.4078006,13.3512008 22.2351113,13.9827902 C22.1270105,14.2705903 21.8475952,14.4828857 21.5187482,14.4828857 C21.1045346,14.4828857 20.7687482,14.1460629 20.7687482,13.7305709 C20.7687482,13.7115615 20.7694511,13.6927167 20.7708322,13.6740613 L20.7763029,13.6233821 C20.7840073,13.5692053 20.7974659,13.5168888 20.8160378,13.4670756 L20.7647799,13.6691217 C20.9179283,13.1392466 21,12.5792077 21,12 C21,8.6862915 18.3137085,6 15,6 L9.009,5.99910243 L9.00987588,8.89628415 C9.00987588,9.00227984 8.97621929,9.10480861 8.91481995,9.18957991 L8.86366109,9.24960558 C8.66852705,9.44499575 8.35194463,9.44520339 8.15655446,9.25006936 L4.55374361,5.6519815 L4.49546981,5.58223189 C4.3606016,5.38727525 4.38006346,5.11786356 4.55374361,4.94441109 L8.15655446,1.34632322 C8.25030372,1.25269685 8.37738127,1.20010843 8.50987588,1.20010843 Z" fill="#C2C7CC" fill-rule="nonzero"/>
</svg>
