<svg xmlns="http://www.w3.org/2000/svg" viewBox="0 0 25 24" class="design-iconfont">
  <g fill="#FFF" fill-rule="evenodd">
    <path d="M13.1587232,3.54748848 C13.379374,3.81589639 13.5,4.15258154 13.5,4.50004317 L13.5,19.4771521 C13.5,20.3055792 12.8284271,20.9771521 12,20.9771521 C11.6527929,20.9771521 11.3163382,20.8567025 11.048018,20.6363459 L6,16.4906866 L3,16.4906866 C2.17157288,16.4906866 1.5,15.8191138 1.5,14.9906866 L1.5,8.99068664 C1.5,8.16225951 2.17157288,7.49068664 3,7.49068664 L6,7.49068664 L11.0474453,3.34131992 C11.6873905,2.81523849 12.6326418,2.9075433 13.1587232,3.54748848 Z M12,19.4771521 L12,4.50004317 L6.53741285,8.99068664 L3,8.99068664 L3,14.9906866 L6.53699473,14.9906866 L12,19.4771521 Z" fill-rule="nonzero"/>
    <path d="M17.6296712,8.29792373 L20.2711178,10.9390305 L22.9125034,8.29792373 C23.1077656,8.10266158 23.424348,8.10266158 23.6196102,8.29792373 L23.9731636,8.65147712 C24.1684257,8.84673926 24.1684257,9.16332175 23.9731636,9.3585839 L21.3321178,12.0000305 L23.9731636,14.6414161 C24.1684257,14.8366782 24.1684257,15.1532607 23.9731636,15.3485229 L23.6196102,15.7020763 C23.424348,15.8973384 23.1077656,15.8973384 22.9125034,15.7020763 L20.2711178,13.0610305 L17.6296712,15.7020763 C17.4344091,15.8973384 17.1178266,15.8973384 16.9225644,15.7020763 L16.569011,15.3485229 C16.3737489,15.1532607 16.3737489,14.8366782 16.569011,14.6414161 L19.2101178,12.0000305 L16.569011,9.3585839 C16.3737489,9.16332175 16.3737489,8.84673926 16.569011,8.65147712 L16.9225644,8.29792373 C17.1178266,8.10266158 17.4344091,8.10266158 17.6296712,8.29792373 Z"/>
  </g>
</svg>
