<svg xmlns="http://www.w3.org/2000/svg" viewBox="0 0 32 32" class="design-iconfont">
  <path d="M16,1.33333333 C24.1001763,1.33333333 30.6666667,7.89982367 30.6666667,16 C30.6666667,24.1001763 24.1001763,30.6666667 16,30.6666667 C7.89982367,30.6666667 1.33333333,24.1001763 1.33333333,16 C1.33333333,7.89982367 7.89982367,1.33333333 16,1.33333333 Z M16,2.66666667 C8.63620334,2.66666667 2.66666667,8.63620334 2.66666667,16 C2.66666667,23.3637967 8.63620334,29.3333333 16,29.3333333 C23.3637967,29.3333333 29.3333333,23.3637967 29.3333333,16 C29.3333333,8.63620334 23.3637967,2.66666667 16,2.66666667 Z M13,8.89946859 C13.2267507,8.89946859 13.4467695,8.97653148 13.6239645,9.11801587 L21.1570583,15.1329451 C21.5886427,15.4775511 21.6591526,16.1067778 21.3145466,16.5383623 C21.2680785,16.5965588 21.2152549,16.6493825 21.1570583,16.6958505 L13.6239645,22.7107797 C13.19238,23.0553858 12.5631533,22.9848759 12.2185473,22.5532915 C12.0770629,22.3760965 12,22.1560777 12,21.929327 L12,9.89946859 C12,9.34718384 12.4477153,8.89946859 13,8.89946859 Z" fill="#C2C7CC" fill-rule="nonzero"/>
</svg>
