<svg xmlns="http://www.w3.org/2000/svg" viewBox="0 0 24 24" class="design-iconfont">
  <g fill="#C2C7CC" fill-rule="nonzero">
    <path d="M20.3676563,20.6458064 C20.0310541,20.9758992 19.5003059,20.9667293 19.1745938,20.6251935 C19.0190887,20.4621257 18.9336272,20.2413667 18.9374357,20.0125813 C18.9412443,19.7837959 19.034003,19.5661981 19.1948438,19.4087417 C23.3517187,15.3134508 23.3517187,8.6859659 19.1948438,4.59067497 C19.03409,4.43322832 18.9413872,4.2156926 18.9375789,3.98697906 C18.9337707,3.75826552 19.0191766,3.53756974 19.1745938,3.37451349 C19.5003059,3.03297762 20.0310541,3.02380772 20.3676563,3.35390059 C25.2107812,8.12535292 25.2107812,15.8743541 20.3676563,20.6458064 L20.3676563,20.6458064 Z"/>
    <path d="M16.3559062,17.178193 C16.2022299,17.0134233 16.1191242,16.7918305 16.125259,16.5631964 C16.1313939,16.3345623 16.2262549,16.1180579 16.3885313,15.9623218 C18.6621562,13.7683538 18.6621562,10.2313532 16.3885313,8.03709484 C16.2262549,7.8813588 16.1313939,7.66485438 16.125259,7.43622026 C16.1191242,7.20758613 16.2022299,6.98599334 16.3559062,6.82122369 C16.6782767,6.4761198 17.2091074,6.46139401 17.5489687,6.78812691 C20.5254375,9.66086928 20.5254375,14.3388377 17.5489687,17.2115801 C17.2091074,17.5380227 16.6782767,17.5232969 16.3559062,17.178193 Z"/>
    <path d="M13.1587232,3.55680184 C13.379374,3.82520975 13.5,4.1618949 13.5,4.50935653 L13.5,19.4864655 C13.5,20.3148926 12.8284271,20.9864655 12,20.9864655 C11.6527929,20.9864655 11.3163382,20.8660159 11.048018,20.6456592 L6,16.5 L3,16.5 C2.17157288,16.5 1.5,15.8284271 1.5,15 L1.5,9 C1.5,8.17157288 2.17157288,7.5 3,7.5 L6,7.5 L11.0474453,3.35063328 C11.6873905,2.82455185 12.6326418,2.91685666 13.1587232,3.55680184 Z M12,19.4864655 L12,4.50935653 L6.53741285,9 L3,9 L3,15 L6.53699473,15 L12,19.4864655 Z"/>
  </g>
</svg>
