<?xml version="1.0" encoding="UTF-8"?>
<svg width="16px" height="16px" viewBox="0 0 16 16" version="1.1" xmlns="http://www.w3.org/2000/svg" xmlns:xlink="http://www.w3.org/1999/xlink">
    <title>删除</title>
    <defs>
        <filter id="filter-1">
            <feColorMatrix in="SourceGraphic" type="matrix" values="0 0 0 0 0.588235 0 0 0 0 0.588235 0 0 0 0 0.588235 0 0 0 1.000000 0"></feColorMatrix>
        </filter>
    </defs>
    <g id="页面-1" stroke="none" stroke-width="1" fill="none" fill-rule="evenodd">
        <g id="应用管理-维护团队成员" transform="translate(-1287.000000, -431.000000)">
            <g id="删除" transform="translate(560.000000, 251.000000)" filter="url(#filter-1)">
                <g transform="translate(727.000000, 180.000000)">
                    <rect id="矩形" fill="#000000" fill-rule="nonzero" opacity="0" x="0" y="0" width="16" height="16"></rect>
                    <path d="M12.375,3.625 L12.375,14.125 L3.625,14.125 L3.625,3.625 L12.375,3.625 M13.25,2.75 L2.75,2.75 L2.75,14.125 C2.75,14.6078125 3.1421875,15 3.625,15 L12.375,15 C12.8578125,15 13.25,14.6078125 13.25,14.125 L13.25,2.75 Z M14.5625,2.75 L1.4375,2.75 C1.1953125,2.75 1,2.9453125 1,3.1875 C1,3.4296875 1.1953125,3.625 1.4375,3.625 L14.5625,3.625 C14.8046875,3.625 15,3.4296875 15,3.1875 C15,2.9453125 14.8046875,2.75 14.5625,2.75 Z M10.625,1.875 L10.625,2.75 L5.4296875,2.75 L5.4296875,1.875 L10.625,1.875 M10.625,1 L5.4296875,1 C4.946875,1 4.5546875,1.3921875 4.5546875,1.875 L4.5546875,3.625 L11.5,3.625 L11.5,1.875 C11.5,1.3921875 11.1078125,1 10.625,1 Z M5.8125,5.375 C5.5703125,5.375 5.375,5.5703125 5.375,5.8125 L5.375,11.9375 C5.375,12.1796875 5.5703125,12.375 5.8125,12.375 C6.0546875,12.375 6.25,12.1796875 6.25,11.9375 L6.25,5.8125 C6.25,5.5703125 6.0546875,5.375 5.8125,5.375 Z M8,5.375 C7.7578125,5.375 7.5625,5.5703125 7.5625,5.8125 L7.5625,11.9375 C7.5625,12.1796875 7.7578125,12.375 8,12.375 C8.2421875,12.375 8.4375,12.1796875 8.4375,11.9375 L8.4375,5.8125 C8.4375,5.5703125 8.2421875,5.375 8,5.375 Z M10.1875,5.375 C9.9453125,5.375 9.75,5.5703125 9.75,5.8125 L9.75,11.9375 C9.75,12.1796875 9.9453125,12.375 10.1875,12.375 C10.4296875,12.375 10.625,12.1796875 10.625,11.9375 L10.625,5.8125 C10.625,5.5703125 10.4296875,5.375 10.1875,5.375 Z" id="形状" fill="#000000" fill-rule="nonzero"></path>
                </g>
            </g>
        </g>
    </g>
</svg>