<?xml version="1.0" standalone="no"?><!DOCTYPE svg PUBLIC "-//W3C//DTD SVG 1.1//EN" "http://www.w3.org/Graphics/SVG/1.1/DTD/svg11.dtd"><svg t="1642469981444" class="icon" viewBox="0 0 1024 1024" version="1.1" xmlns="http://www.w3.org/2000/svg" p-id="878" xmlns:xlink="http://www.w3.org/1999/xlink" width="200" height="200"><defs><style type="text/css"></style></defs><path d="M728.847059 0c32.828235 0 70.716235 13.071059 95.412706 36.623059L831.247059 43.971765l120.470588 120.651294c27.407059 25.6 44.815059 59.452235 47.766588 95.292235l0.421647 10.782118v579.282823c0 79.510588-61.078588 144.564706-140.528941 149.684706l-10.059294 0.301177H150.588235a149.504 149.504 0 0 1-150.287059-140.107294L0 849.92V270.697412c0-36.141176 9.938824-71.017412 34.394353-98.18353L42.164706 164.623059 162.635294 43.971765c27.105882-25.298824 59.090824-40.658824 95.954824-43.489883L271.058824 0h457.788235z m120.470588 299.971765H150.588235c-30.117647 0-54.211765 22.407529-54.211764 49.995294v500.013176c0 27.587765 24.094118 49.995294 54.211764 49.995294h698.729412c24.094118 0 48.188235-22.407529 48.188235-49.995294V349.967059c0-27.587765-24.094118-49.995294-48.188235-49.995294z m-120.470588-199.981177H271.058824c-12.047059 0-30.117647 5.300706-36.141177 14.637177L150.588235 199.981176h698.729412l-84.329412-85.353411c-12.047059-9.336471-24.094118-14.637176-36.141176-14.637177z" p-id="879" fill="#1296db"></path><path d="M198.776471 749.989647c0-27.648 24.094118-49.995294 48.188235-49.995294h102.4c24.094118 0 48.188235 22.347294 48.188235 49.995294 0 27.587765-24.094118 49.995294-48.188235 49.995294H246.964706c-24.094118 0-48.188235-22.407529-48.188235-49.995294zM246.964706 550.008471c-24.094118 0-48.188235 22.347294-48.188235 49.995294 0 27.587765 24.094118 49.995294 48.188235 49.995294h198.77647c30.117647 0 54.211765-22.407529 54.211765-49.995294 0-27.648-24.094118-49.995294-54.211765-49.995294H246.964706z" p-id="880" fill="#1296db"></path></svg>