<?xml version="1.0" encoding="UTF-8"?>
<svg width="20px" height="20px" viewBox="0 0 20 20" version="1.1" xmlns="http://www.w3.org/2000/svg" xmlns:xlink="http://www.w3.org/1999/xlink">
    <title>用户单个-蓝</title>
    <g id="页面-1" stroke="none" stroke-width="1" fill="none" fill-rule="evenodd">
        <g id="应用管理-维护团队成员" transform="translate(-683.000000, -589.000000)" fill-rule="nonzero">
            <g id="编组-19" transform="translate(560.000000, 251.000000)">
                <g id="用户单个-蓝" transform="translate(123.000000, 338.000000)">
                    <rect id="矩形" fill="#000000" opacity="0" x="0" y="0" width="20" height="20"></rect>
                    <path d="M12.6350475,10.9 C14.0549492,10 15.0691647,8.5 15.0691647,6.79999999 C15.0691647,4.09999999 12.8378906,2 10.0995086,2 C7.36112672,2 5.02843102,4.10000001 5.02843105,6.79999999 C5.02843105,8.59999998 6.04264658,10.1 7.4625483,10.9 C4.82558794,11.9 3,14.3 3,17.2 C3,17.7 3.40568621,18 3.81137241,18 C4.2170586,18 4.62274483,17.6 4.62274483,17.2 C4.62274483,14.3 7.05686209,12 9.99808711,12 C12.9393121,12 15.3734294,14.3 15.3734294,17.2 C15.3734294,17.7 15.7791156,18 16.1848018,18 C16.590488,18 16.9961742,17.6 16.9961742,17.2 C17.0975958,14.4 15.1705863,11.9 12.6350475,10.9 Z M10,10 C8.31250001,10 7,8.68750001 7,7 C7,5.31249997 8.40625,4 10,4 C11.6875,4 13,5.31249999 13,7 C13,8.68749999 11.6875,10 10,10 L10,10 Z" id="形状" fill="#045340"></path>
                </g>
            </g>
        </g>
    </g>
</svg>