<?xml version="1.0" encoding="UTF-8"?>
<svg width="20px" height="20px" viewBox="0 0 20 20" version="1.1" xmlns="http://www.w3.org/2000/svg" xmlns:xlink="http://www.w3.org/1999/xlink">
    <title>用户-蓝</title>
    <g id="页面-1" stroke="none" stroke-width="1" fill="none" fill-rule="evenodd">
        <g id="应用管理-维护团队成员" transform="translate(-667.000000, -673.000000)" fill-rule="nonzero">
            <g id="编组-19" transform="translate(560.000000, 251.000000)">
                <g id="用户-蓝" transform="translate(107.000000, 422.000000)">
                    <rect id="矩形" fill="#D1D1D1" opacity="0" x="0" y="0" width="20" height="20"></rect>
                    <path d="M9.63504747,10.9 C11.0549492,10 12.0691647,8.5 12.0691647,6.79999999 C12.0691647,4.09999999 9.83789058,2 7.09950865,2 C4.36112672,2 2.02843102,4.10000001 2.02843105,6.79999999 C2.02843105,8.59999998 3.04264658,10.1 4.4625483,10.9 C1.82558794,11.9 0,14.3 0,17.2 C0,17.7 0.405686213,18 0.811372405,18 C1.2170586,18 1.62274483,17.6 1.62274483,17.2 C1.62274483,14.3 4.05686209,12 6.99808711,12 C9.93931212,12 12.3734294,14.3 12.3734294,17.2 C12.3734294,17.7 12.7791156,18 13.1848018,18 C13.590488,18 13.9961742,17.6 13.9961742,17.2 C14.0975958,14.4 12.1705863,11.9 9.63504747,10.9 Z M7,10 C5.31250001,10 4,8.68750001 4,7 C4,5.31249997 5.40625,4 7,4 C8.68750001,4 10,5.31249999 10,7 C10,8.68749999 8.68750001,10 7,10 L7,10 Z M17.0909091,12.1450382 C18,11.351145 18.5454546,10.1603053 18.5454546,8.96946564 C18.5454546,6.78625954 16.9090909,5 14.9090909,5 C14.5454546,5 14.1818182,5.09923663 13.7272727,5.29770994 L13.6363637,5.29770994 C13.6363637,5.29770994 13.5454546,5.39694657 13.4545455,5.39694657 C13.1818182,5.59541985 13,5.89312977 13,6.19083971 C13,6.68702291 13.3636364,7.08396947 13.8181818,7.08396947 C13.9090909,7.08396947 14,6.98473284 14.0909091,6.98473282 C14.2727273,6.88549619 14.5454546,6.88549619 14.7272727,6.88549619 C15.9090909,6.88549619 16.8181818,7.87786261 16.8181818,9.06870229 C16.8181818,10.3587786 15.9090909,11.351145 14.8181818,11.351145 C14.2727273,11.351145 13.9090909,11.7480916 13.9090909,12.3435115 C13.9090909,12.8396947 14.3636364,13.3358779 14.8181818,13.3358779 L14.9090909,13.3358779 C16.8181818,13.3358779 18.3636364,15.0229008 18.3636364,17.1068702 C18.3636364,17.6030534 18.7272727,18 19.1818182,18 C19.6363636,18 20,17.6030534 20,17.1068702 C20,14.9236641 18.9090909,12.9389313 17.0909091,12.1450382 L17.0909091,12.1450382 Z" id="形状" fill="#045340"></path>
                </g>
            </g>
        </g>
    </g>
</svg>