<?xml version="1.0" encoding="UTF-8"?>
<svg xmlns:xlink="http://www.w3.org/1999/xlink" width="15px" height="16px" viewBox="0 0 15 16" version="1.1" xmlns="http://www.w3.org/2000/svg">
    <!-- Generator: Sketch 53.2 (72643) - https://sketchapp.com -->
    <desc>Created with Sketch.</desc>
    <g id="Page-1" stroke="none" stroke-width="1" fill="none" fill-rule="evenodd">
        <g id="切图" transform="translate(-336.000000, -350.000000)" stroke="#6B798E">
            <g id="分组-5" transform="translate(336.337402, 351.343871)">
                <g id="分组-4-copy" transform="translate(3.727562, 2.906351)">
                    <circle id="椭圆形" cx="4.79780699" cy="3.0316442" r="3.0316442"></circle>
                    <path d="M9.59561399,10.8610954 C9.59561399,8.21133975 7.44756263,6.0632884 4.79780699,6.0632884 C2.14805136,6.0632884 1.21680443e-13,8.21133975 1.21680443e-13,10.8610954" id="路径"></path>
                </g>
                <g id="分组-4-copy-2">
                    <path d="M7.82945119,3.0316442 C7.82945119,2.51037368 7.69789118,2.01983064 7.46616343,1.59140735 C6.9535772,0.643726846 5.95086733,5.32907052e-14 4.79780699,5.32907052e-14 C3.12347614,5.32907052e-14 1.76616279,1.35731334 1.76616279,3.0316442 C1.76616279,4.29338913 2.536961,5.3751045 3.63336504,5.83159792" id="路径"></path>
                    <path d="M3.91949676,5.83159792 C1.81209817,6.33757863 0.245896374,8.23437036 0.245896374,10.4969681" id="路径"></path>
                </g>
            </g>
        </g>
    </g>
</svg>
