<?xml version="1.0" encoding="UTF-8"?>
<svg width="30px" height="30px" viewBox="0 0 30 30" version="1.1" xmlns="http://www.w3.org/2000/svg" xmlns:xlink="http://www.w3.org/1999/xlink">
    <defs>
        <filter id="filter-1">
            <feColorMatrix in="SourceGraphic" type="matrix" values="0 0 0 0 1.000000 0 0 0 0 1.000000 0 0 0 0 1.000000 0 0 0 1.000000 0"></feColorMatrix>
        </filter>
    </defs>
    <g id="页面-1" stroke="none" stroke-width="1" fill="none" fill-rule="evenodd">
        <g id="编组-10" transform="translate(-392.000000, -170.000000)" filter="url(#filter-1)">
            <g transform="translate(392.000000, 170.000000)">
                <rect id="矩形" x="0" y="0" width="128" height="128"></rect>
                <g id="编组" transform="translate(4.000000, 2.000000)" fill="#fff" fill-rule="nonzero">
                    <path d="M9.1186875,23.595 L3.1386875,23.595 C2.5796875,23.595 2.1246875,23.14 2.1246875,22.581 L2.1246875,5.746 C2.1246875,5.187 2.5796875,4.732 3.1386875,4.732 L17.0356875,4.732 C17.5946875,4.732 18.0496875,5.187 18.0496875,5.746 L18.0496875,12.792 C18.8166875,13.026 19.5316875,13.364 20.1686875,13.806 L20.1686875,4.446 C20.1686875,3.328 19.2456875,2.405 18.1276875,2.405 L2.0466875,2.405 C0.9286875,2.405 0.0056875,3.328 0.0056875,4.446 L0.0056875,23.881 C0.0056875,24.999 0.9286875,25.922 2.0466875,25.922 L10.9906875,25.922 C10.2106875,25.272 9.5736875,24.492 9.1186875,23.595 Z" id="路径"></path>
                    <path d="M6.3236875,6.825 C5.5566875,6.825 4.9196875,6.201 4.9196875,5.434 L4.9196875,1.404 C4.9196875,0.624 5.5566875,0 6.3236875,0 C7.0906875,0 7.7146875,0.624 7.7146875,1.391 L7.7146875,5.421 C7.7146875,6.201 7.0906875,6.825 6.3236875,6.825 Z M13.8636875,6.825 C13.0966875,6.825 12.4596875,6.201 12.4596875,5.434 L12.4596875,1.404 C12.4596875,0.637 13.0836875,0.013 13.8506875,0.013 C14.6176875,0.013 15.2416875,0.637 15.2416875,1.404 L15.2416875,5.434 C15.2546875,6.201 14.6306875,6.825 13.8636875,6.825 L13.8636875,6.825 Z M14.6566875,11.336 L5.4526875,11.336 C4.7896875,11.336 4.2436875,10.79 4.2436875,10.127 C4.2436875,9.464 4.7896875,8.918 5.4526875,8.918 L14.6696875,8.918 C15.3326875,8.918 15.8786875,9.464 15.8786875,10.127 C15.8786875,10.803 15.3326875,11.336 14.6566875,11.336 L14.6566875,11.336 Z M10.0286875,15.496 L5.3486875,15.496 C4.7376875,15.496 4.2436875,15.002 4.2436875,14.391 C4.2436875,13.78 4.7376875,13.286 5.3486875,13.286 L10.0286875,13.286 C10.6396875,13.286 11.1336875,13.78 11.1336875,14.391 C11.1336875,15.002 10.6266875,15.496 10.0286875,15.496 Z M11.6926875,23.595 C11.6536875,23.543 11.6666875,23.478 11.7056875,23.439 L12.8886875,22.36 L12.9016875,22.36 C12.9536875,22.321 13.0186875,22.334 13.0576875,22.373 L13.0706875,22.386 C14.0066875,23.79 15.8136875,24.362 17.3866875,23.751 C17.8026875,23.595 18.1796875,23.361 18.5046875,23.049 C18.9856875,22.607 19.3366875,22.048 19.5316875,21.437 C19.1286875,21.32 18.3226875,21.099 18.3226875,21.099 C18.2836875,21.086 18.2576875,21.06 18.2446875,21.021 C18.2316875,20.982 18.2446875,20.943 18.2706875,20.917 L20.9616875,18.148 C20.9876875,18.122 21.0266875,18.109 21.0656875,18.122 C21.1046875,18.135 21.1306875,18.161 21.1436875,18.2 L22.5346875,22.126 C22.5476875,22.165 22.5346875,22.204 22.5086875,22.243 C22.4826875,22.269 22.4436875,22.282 22.4046875,22.269 L21.2606875,21.944 C20.9876875,22.906 20.4676875,23.764 19.7526875,24.414 C19.2716875,24.856 18.6996875,25.207 18.0496875,25.467 C15.7616875,26.325 13.1486875,25.571 11.6926875,23.595 L11.6926875,23.595 Z M18.8426875,17.979 C18.8426875,17.992 18.8426875,17.992 18.8426875,17.979 C18.7906875,18.018 18.7256875,18.018 18.6866875,17.966 L18.6736875,17.953 C17.7376875,16.549 15.9306875,15.977 14.3576875,16.588 C13.9416875,16.744 13.5646875,16.978 13.2396875,17.29 C12.7586875,17.732 12.4076875,18.291 12.2126875,18.902 C12.6156875,19.019 13.4216875,19.24 13.4216875,19.24 C13.4606875,19.253 13.4866875,19.279 13.4996875,19.318 C13.5126875,19.357 13.4996875,19.396 13.4736875,19.422 L10.7826875,22.204 C10.7566875,22.23 10.7176875,22.243 10.6786875,22.23 C10.6396875,22.217 10.6136875,22.191 10.6006875,22.152 L9.2096875,18.226 C9.1966875,18.187 9.2096875,18.148 9.2356875,18.109 C9.2616875,18.083 9.3006875,18.07 9.3396875,18.083 L10.4836875,18.408 C10.7566875,17.446 11.2766875,16.588 11.9916875,15.938 C12.4726875,15.496 13.0446875,15.145 13.6946875,14.885 C15.9826875,14.001 18.5826875,14.755 20.0386875,16.731 C20.0776875,16.783 20.0646875,16.848 20.0256875,16.887 L18.8426875,17.979 C18.8556875,17.979 18.8556875,17.979 18.8426875,17.979 L18.8426875,17.979 Z" id="形状"></path>
                </g>
            </g>
        </g>
    </g>
</svg>