<?xml version="1.0" encoding="UTF-8"?>
<svg width="16px" height="16px" viewBox="0 0 16 16" version="1.1" xmlns="http://www.w3.org/2000/svg" xmlns:xlink="http://www.w3.org/1999/xlink">
    <title>1Icon/0通用/01树/资源4</title>
    <g id="1Icon/0通用/01树/资源4" stroke="none" stroke-width="1" fill="none" fill-rule="evenodd">
        <rect id="矩形" opacity="0" x="0" y="0" width="16" height="16"></rect>
        <path d="M13,9 L13,12.125 C13,13.1605339 10.7614237,14 8,14 C5.32225575,14 3.13615141,13.2106398 3.00611914,12.2185814 L3,12.125 L3,9 C3,9.82842712 5.23857625,10.5 8,10.5 C10.6777443,10.5 12.8638486,9.86851182 12.9938809,9.07486513 L13,9 Z M4.5,11 C4.22385763,11 4,11.2238576 4,11.5 C4,11.7761424 4.22385763,12 4.5,12 C4.77614237,12 5,11.7761424 5,11.5 C5,11.2238576 4.77614237,11 4.5,11 Z M13,5 L13,8.125 C13,9.16053391 10.7614237,10 8,10 C5.32225575,10 3.13615141,9.21063978 3.00611914,8.21858141 L3,8.125 L3,5 C3,5.82842712 5.23857625,6.5 8,6.5 C10.6777443,6.5 12.8638486,5.86851182 12.9938809,5.07486513 L13,5 Z M4.5,7 C4.22385763,7 4,7.22385763 4,7.5 C4,7.77614237 4.22385763,8 4.5,8 C4.77614237,8 5,7.77614237 5,7.5 C5,7.22385763 4.77614237,7 4.5,7 Z M8,2 C10.7614237,2 13,2.67157288 13,3.5 C13,4.32842712 10.7614237,5 8,5 C5.23857625,5 3,4.32842712 3,3.5 C3,2.67157288 5.23857625,2 8,2 Z" id="形状" fill="#045340"></path>
    </g>
</svg>