<?xml version="1.0" standalone="no"?><!DOCTYPE svg PUBLIC "-//W3C//DTD SVG 1.1//EN" "http://www.w3.org/Graphics/SVG/1.1/DTD/svg11.dtd"><svg t="1670493455480" class="icon" viewBox="0 0 1024 1024" version="1.1" xmlns="http://www.w3.org/2000/svg" p-id="10230" xmlns:xlink="http://www.w3.org/1999/xlink" width="200" height="200"><path d="M768 128a64 64 0 0 1 64 64v640a64 64 0 0 1-64 64H256a64 64 0 0 1-64-64V192a64 64 0 0 1 64-64h512z m-288 512h-128a32 32 0 1 0 0 64h128a32 32 0 1 0 0-64z m192-192h-320a32 32 0 0 0 0 64h320a32 32 0 1 0 0-64z m0-192h-320a32 32 0 0 0 0 64h320a32 32 0 1 0 0-64z" fill="#045340" p-id="10231"></path></svg>