<?xml version="1.0" standalone="no"?><!DOCTYPE svg PUBLIC "-//W3C//DTD SVG 1.1//EN" "http://www.w3.org/Graphics/SVG/1.1/DTD/svg11.dtd"><svg t="1670493431930" class="icon" viewBox="0 0 1024 1024" version="1.1" xmlns="http://www.w3.org/2000/svg" p-id="9946" xmlns:xlink="http://www.w3.org/1999/xlink" width="200" height="200"><path d="M533.568 131.712a16.832 16.832 0 0 1 21.12 0c33.92 27.456 148.416 119.68 325.312 124.288a16 16 0 0 1 16 15.68v246.464C896 662.144 669.376 896 544 896 415.168 896 192 662.272 192 518.144v-246.4c0-8.704 7.296-15.552 16.192-15.744 177.024-4.672 291.392-96.832 325.376-124.288zM544 320A96 96 0 0 0 512 506.56V672a32 32 0 1 0 64 0V506.496A96 96 0 0 0 544 320z" fill="#045340" p-id="9947"></path></svg>