<?xml version="1.0" standalone="no"?><!DOCTYPE svg PUBLIC "-//W3C//DTD SVG 1.1//EN" "http://www.w3.org/Graphics/SVG/1.1/DTD/svg11.dtd"><svg t="1670493461055" class="icon" viewBox="0 0 1024 1024" version="1.1" xmlns="http://www.w3.org/2000/svg" p-id="10372" xmlns:xlink="http://www.w3.org/1999/xlink" width="200" height="200"><path d="M547.84 566.656a32 32 0 0 1 0 45.248L480 679.68l45.248 45.248-90.496 90.56a128 128 0 0 1-174.08 6.464l-6.976-6.464-67.84 67.84a32 32 0 1 1-45.248-45.248l67.84-67.84a128 128 0 0 1-6.464-174.08l6.464-6.976 90.56-90.496 45.248 45.248 67.84-67.84a32 32 0 0 1 45.248 45.184l-67.84 67.904 45.248 45.248 67.84-67.84a32 32 0 0 1 45.312 0z m271.552-362.048a32 32 0 0 1 0 45.248l-67.84 67.84a128 128 0 0 1 0 181.056l-90.56 90.496-226.24-226.24 90.496-90.56a128 128 0 0 1 181.056 0l67.84-67.84a32 32 0 0 1 45.248 0z" fill="#045340" p-id="10373"></path></svg>