<?xml version="1.0" encoding="UTF-8"?>
<svg width="30px" height="30px" viewBox="0 0 30 30" version="1.1" xmlns="http://www.w3.org/2000/svg" xmlns:xlink="http://www.w3.org/1999/xlink">
    <defs>
        <filter id="filter-1">
            <feColorMatrix in="SourceGraphic" type="matrix" values="0 0 0 0 1.000000 0 0 0 0 1.000000 0 0 0 0 1.000000 0 0 0 1.000000 0"></feColorMatrix>
        </filter>
    </defs>
    <g id="页面-1" stroke="none" stroke-width="1" fill="none" fill-rule="evenodd">
        <g id="画板" transform="translate(-348.000000, -171.000000)">
            <g id="编组-11" transform="translate(348.000000, 171.000000)">
                <rect id="矩形" x="0" y="0" width="30" height="30"></rect>
                <g filter="url(#filter-1)" id="搜索">
                    <g transform="translate(2.000000, 2.000000)">
                        <rect id="矩形" fill="#000000" fill-rule="nonzero" opacity="0" x="0" y="0" width="26" height="26"></rect>
                        <path d="M10.2631579,0 C4.58421052,0 0,4.58421052 0,10.2631579 C0,15.9421053 4.58421052,20.5263158 10.2631579,20.5263158 C12.7263158,20.5263158 14.9842105,19.6368421 16.7631579,18.2 C17.3105263,17.7894737 17.7210526,17.3105263 18.2,16.7631579 C19.6368421,14.9842105 20.5263158,12.7263158 20.5263158,10.2631579 C20.5263158,4.58421052 15.9421053,0 10.2631579,0 Z M10.2631579,18.4736842 C5.74736843,18.4736842 2.05263157,14.7789474 2.05263157,10.2631579 C2.05263157,5.7473684 5.74736843,2.05263157 10.2631579,2.05263157 C14.7789473,2.05263157 18.4736842,5.7473684 18.4736842,10.2631579 C18.4736842,14.7789474 14.7789474,18.4736842 10.2631579,18.4736842 Z" id="形状" fill="#999999" fill-rule="nonzero"></path>
                        <path d="M25.6578947,25.7263158 C25.4526316,25.931579 25.1789474,26 24.9736842,26 C24.7,26 24.4263158,25.9315789 24.2894737,25.7263158 L16.8315789,18.2 C17.3789474,17.7894737 17.7894737,17.3105263 18.2684211,16.7631579 L25.7263158,24.2894737 C26.0684211,24.7 26.0684211,25.3157895 25.6578947,25.7263158 L25.6578947,25.7263158 Z" id="路径" fill="#999999" fill-rule="nonzero"></path>
                        <path d="M18.2,16.7631579 C17.7894737,17.3105263 17.3105263,17.7210526 16.7631579,18.2 L16.6947368,18.1315789 C16.2842105,17.7210526 16.2842105,17.1052631 16.6947368,16.6947368 C16.9,16.4894737 17.1736842,16.4210526 17.3789474,16.4210526 C17.6526316,16.4210526 17.9263158,16.4894737 18.2,16.7631579 Z" id="路径" fill="#999999" fill-rule="nonzero"></path>
                    </g>
                </g>
            </g>
        </g>
    </g>
</svg>