<svg width="200" height="200" class="caidan-wuziguanli1_svg__icon" viewBox="0 0 1024 1024" xmlns="http://www.w3.org/2000/svg">
  <path d="M160.896 385.728 433.6 504.96a22.4 22.4 0 0 1 14.4 20.672v313.792a21.632 21.632 0 0 1-11.264 19.584 25.152 25.152 0 0 1-23.872.512L140.16 738.432A22.4 22.4 0 0 1 128 719.296V406.4a21.568 21.568 0 0 1 10.432-18.624 25.152 25.152 0 0 1 22.4-2.048zm660.736 2.048a21.952 21.952 0 0 1 9.984 14.208l.384 4.48v312.832a21.952 21.952 0 0 1-8.064 16.384l-4.032 2.752L547.136 859.52a25.152 25.152 0 0 1-23.872-.512 22.016 22.016 0 0 1-10.88-14.912l-.384-4.672V525.632c0-7.488 3.84-14.336 10.24-18.56l4.16-2.112 272.704-119.232a25.152 25.152 0 0 1 22.528 2.048zM244.48 477.76a32 32 0 1 0-26.048 58.496l116.928 52.032a32 32 0 0 0 26.048-58.432zM512 193.408 785.92 300.8c8.512 3.008 14.08 10.24 14.08 18.368 0 8.064-5.568 15.36-14.08 18.368L489.344 446.592a24.512 24.512 0 0 1-16.448 0l-299.84-107.776A19.776 19.776 0 0 1 160 320.448a20.032 20.032 0 0 1 13.824-17.92l321.792-109.12a24.064 24.064 0 0 1 16.384 0z"/>
</svg>
