<svg width="200" height="200" class="caidan_wodecuiban_svg__icon" viewBox="0 0 1024 1024" xmlns="http://www.w3.org/2000/svg">
  <path d="M512 128a64 64 0 0 1 64 64v8.32A256 256 0 0 1 768 448v192h32a32 32 0 1 1 0 64H640a128 128 0 0 1-118.4 128H512a128 128 0 0 1-128-128H224a32 32 0 1 1 0-64h32V448a256 256 0 0 1 192-247.68V192a64 64 0 0 1 64-64zm53.76 224H462.72A12.8 12.8 0 0 0 448 362.88L416 496a14.72 14.72 0 0 0 13.44 16h35.84l-23.68 78.08c-3.84 13.44 13.44 24.32 22.4 13.44L604.16 454.4a12.8 12.8 0 0 0-9.6-22.4h-49.28l32-64a12.8 12.8 0 0 0-11.52-18.56V352z"/>
</svg>
