<svg width="200" height="200" class="caidan-jixiao1_svg__icon" viewBox="0 0 1024 1024" xmlns="http://www.w3.org/2000/svg">
  <path d="M768 128a64 64 0 0 1 64 64v320l-.064 1.088v356.224a28.672 28.672 0 0 1-8.128 19.008l-3.84 3.52a32.064 32.064 0 0 1-13.76 3.456c-3.456 0-6.08 0-8.512-.512l-3.52-1.216-283.072-138.56-283.072 138.56a24 24 0 0 1-24-1.728 31.04 31.04 0 0 1-11.456-17.28l-.576-5.312V192a64 64 0 0 1 64-64h512zm-96 448H352a32 32 0 0 0-5.76 63.488L352 640h320a32 32 0 1 0 0-64zM512 256a128 128 0 1 0 0 256 128 128 0 0 0 0-256zm0 64a64 64 0 1 1 0 128 64 64 0 0 1 0-128z"/>
</svg>
