<svg width="200" height="200" class="caidan-liucheng4_svg__icon" viewBox="0 0 1024 1024" xmlns="http://www.w3.org/2000/svg">
  <path d="M704 128a64 64 0 0 1 64 64v195.2a160 160 0 0 0-19.584-2.752L738.368 384l-14.656.512-10.88 1.408c-75.712 12.032-131.584 73.088-136.448 147.392L576 544l.448 11.968 1.344 12.16c4.288 27.904 15.808 53.76 32.96 75.2a128 128 0 0 0-81.6 188.8L256 832a64 64 0 0 1-64-64V192a64 64 0 0 1 64-64h448zm128 576a64 64 0 0 1 0 128H640a64 64 0 0 1 0-128h192zm-94.592-256a96 96 0 0 1 37.632 183.68l1.536-3.008a29.44 29.44 0 0 0-4.928 16.64c0 15.68 14.592 58.688 29.504 58.688h-124.8c14.848 0 24.32-42.944 24.32-58.688a29.248 29.248 0 0 0-3.072-13.44 96 96 0 0 1 29.184-183.424L736 448h1.408zM416 384H288a32 32 0 0 0-5.76 63.488L288 448h128a32 32 0 0 0 0-64zm128-128H288a32 32 0 0 0-5.76 63.488L288 320h256a32 32 0 0 0 0-64z"/>
</svg>
