<svg width="200" height="200" class="caidan_wodedaiban_svg__icon" viewBox="0 0 1024 1024" xmlns="http://www.w3.org/2000/svg">
  <path d="M768 192c34.56 1.92 62.08 29.44 64 64v512a67.84 67.84 0 0 1-71.04 64H263.04A67.84 67.84 0 0 1 192 768V256a67.84 67.84 0 0 1 71.04-64H768zM416 512a96 96 0 1 0 0 192 96 96 0 0 0 0-192zm256 64h-64a32 32 0 0 0 0 64h64a32 32 0 1 0 0-64zm-256 0a32 32 0 1 1 0 64 32 32 0 0 1 0-64zm96-246.4a32 32 0 0 0-44.8 0l-69.76 67.84-23.04-23.04a32 32 0 0 0-54.4 22.4 32.64 32.64 0 0 0 9.6 23.04l44.8 45.44a32.64 32.64 0 0 0 45.44 0L512 374.4a32 32 0 0 0 0-44.8zM672 384h-64a32 32 0 0 0 0 64h64a32 32 0 1 0 0-64z"/>
</svg>
