<svg width="200" height="200" class="caidan-shuju2_svg__icon" viewBox="0 0 1024 1024" xmlns="http://www.w3.org/2000/svg">
  <path d="M864 832a32 32 0 1 1 0 64H160a32 32 0 1 1 0-64h704zm-32-704a64 64 0 0 1 64 64v512a64 64 0 0 1-64 64H192a64 64 0 0 1-64-64V192a64 64 0 0 1 64-64h640zM517.504 339.392l-2.432 5.248-67.776 188.16a32 32 0 0 0 13.888 38.4l5.184 2.496 1.408.512a32 32 0 0 0 38.72-13.952l2.432-5.248 67.776-188.16a32 32 0 0 0-13.888-38.4l-5.184-2.496-1.408-.512a32 32 0 0 0-38.72 13.952zm-153.792-13.44-4.48 3.712-94.848 94.912a32 32 0 0 0-3.712 40.832l3.712 4.48 93.44 93.44a32 32 0 0 0 40.832 3.712l4.48-3.712 1.408-1.472a32 32 0 0 0 3.712-40.832l-3.712-4.48-69.824-69.824L405.504 376a32 32 0 0 0 3.712-40.832l-3.712-4.48-.96-.96a32 32 0 0 0-40.832-3.712zm260.16 0-4.416 3.712-.96.96-3.712 4.48a32 32 0 0 0 0 36.352l3.712 4.48 70.784 70.72-69.76 69.952-3.712 4.416a32 32 0 0 0 0 36.416l3.712 4.416 1.408 1.472 4.48 3.712a32 32 0 0 0 36.352 0l4.48-3.712 93.44-93.44 3.712-4.48a32 32 0 0 0 0-36.416l-3.712-4.48-94.912-94.848-4.416-3.712a32 32 0 0 0-36.416 0z"/>
</svg>
