<svg width="200" height="200" class="caidan_daibanrenwu_svg__icon" viewBox="0 0 1024 1024" xmlns="http://www.w3.org/2000/svg">
  <path d="M768 192a64 64 0 0 1 64 56.32v221.44A224 224 0 0 0 579.2 832H320a64 64 0 0 1-64-56.32V256a64 64 0 0 1 56.32-64H320a128 128 0 0 0 128 128h192a128 128 0 0 0 128-118.4V192zm-32 320a160 160 0 1 1 0 320 160 160 0 0 1 0-320zm0 64a32 32 0 0 0-32 32v64a32 32 0 0 0 32 32h64a32 32 0 1 0 0-64h-32v-32a32 32 0 0 0-32-32zm-96-448a64 64 0 0 1 0 128H448a64 64 0 1 1 0-128h192z"/>
</svg>
