<svg width="200" height="200" class="caidan-shezhi2_svg__icon" viewBox="0 0 1024 1024" xmlns="http://www.w3.org/2000/svg">
  <path d="M704 128a64 64 0 0 1 64 64v258.048l-6.656-.832a245.888 245.888 0 0 0-65.92 2.304l-7.936 1.664a82.88 82.88 0 0 0-56.512 51.84l-.96 2.816-7.808-.896a83.328 83.328 0 0 0-72.832 30.784c-13.44 17.28-24.128 36.032-31.872 55.936l-2.752 8.384c-6.912 25.344-.768 51.904 15.104 71.872l1.984 2.304-1.792 2.368c-16.384 22.784-20.672 53.12-8.96 80.448 7.296 16.576 16.448 31.744 27.52 46.272l5.824 6.656c8.704 8.96 19.072 15.744 30.208 20.096L256 832a64 64 0 0 1-64-64V192a64 64 0 0 1 64-64h448zm32.384 384c9.024 0 18.112.576 26.88 1.984 8.96 1.408 16.256 8.576 16.576 17.408 0 1.408 0 2.56.256 3.968 2.752 21.632 22.016 38.464 44.928 39.872a55.808 55.808 0 0 0 19.136-2.56l4.416-1.664a19.968 19.968 0 0 1 23.552 5.696c9.344 11.968 17.152 25.024 22.592 39.04a17.92 17.92 0 0 1-7.552 21.888 44.992 44.992 0 0 0-21.504 33.92l-.192 4.288v3.2a44.8 44.8 0 0 0 19.584 33.856c7.552 5.44 10.56 14.528 7.232 21.632-5.44 12.288-12.352 23.68-20.8 33.92a20.032 20.032 0 0 1-23.232 6.016 49.728 49.728 0 0 0-22.592-3.712 48.128 48.128 0 0 0-28.928 11.648 44.16 44.16 0 0 0-15.104 24.512l-.896 6.272a18.56 18.56 0 0 1-16 16.512 174.336 174.336 0 0 1-58.496-.256 18.56 18.56 0 0 1-16-17.088c0-1.408 0-2.88-.32-4.288a47.36 47.36 0 0 0-44.288-39.296 50.944 50.944 0 0 0-18.688 2.112l-4.224 1.536a20.032 20.032 0 0 1-23.232-5.952 159.36 159.36 0 0 1-19.584-32.768 18.432 18.432 0 0 1 6.336-21.952 44.8 44.8 0 0 0 18.688-36.16 45.056 45.056 0 0 0-20.48-37.376 17.92 17.92 0 0 1-7.296-21.376c5.44-13.952 12.992-27.328 22.336-39.296a20.096 20.096 0 0 1 20.48-6.912l2.752.96a51.165 51.165 0 0 0 22.912 3.648 48 48 0 0 0 44.096-38.016l.512-3.84v-1.728a18.56 18.56 0 0 1 16-17.088c9.92-1.728 19.84-2.56 30.144-2.56zM736 640a32 32 0 1 0 0 64 32 32 0 0 0 0-64zM416 384H288a32 32 0 0 0-5.76 63.488L288 448h128a32 32 0 0 0 0-64zm192-128H288a32 32 0 0 0-5.76 63.488L288 320h320a32 32 0 0 0 0-64z"/>
</svg>
