<svg width="200" height="200" class="caidan-caiwu2_svg__icon" viewBox="0 0 1024 1024" xmlns="http://www.w3.org/2000/svg">
  <path d="M545.92 128c33.28 0 64.896 16.32 85.824 44.544 34.432-24.96 92.48-17.472 118.656 17.472 15.808 20.992 22.272 48.576 17.6 75.264-4.032 29.76-32.768 46.464-56 75.264 63.168 44.352 177.472 152.32 183.68 313.6 3.136 82.88-13.952 135.296-54.784 179.456-32 38.272-76.864 60.8-124.352 62.4H379.712c-48.64-1.472-94.848-23.872-128.448-62.4-40.256-44.16-61.504-96-59.072-179.328C198.144 490.304 317.056 384 379.904 340.544c-15.36-19.2-53.568-36.672-59.904-75.264a97.6 97.6 0 0 1 17.6-75.648c24.448-33.408 82.368-41.856 123.904-17.28 20.544-27.904 51.584-44.16 84.48-44.352zm-88.576 284.16a32 32 0 1 0-45.248 45.184L466.752 512H416a32 32 0 0 0 0 64h96v64h-96a32 32 0 0 0 0 64h96v32a32 32 0 1 0 64 0v-32h96a32 32 0 1 0 0-64h-96v-64h96a32 32 0 1 0 0-64h-50.816l54.72-54.656 3.712-4.416a32 32 0 0 0-3.712-40.832l-4.48-3.712a32 32 0 0 0-40.768 3.712L544 498.752z"/>
</svg>
