<svg width="200" height="200" class="caidan-renyuanguanli4_svg__icon" viewBox="0 0 1024 1024" xmlns="http://www.w3.org/2000/svg">
  <path d="M640 128a64 64 0 0 1 64 64l.064 256H704a179.2 179.2 0 0 0-179.2 179.2l.448 12.8c1.216 16.832 4.736 33.28 10.432 48.768l4.288 10.624-9.216 8.128A256.128 256.128 0 0 0 456.128 832H192a64 64 0 0 1-64-64V192a64 64 0 0 1 64-64h448zm32 576a160 160 0 0 1 156.8 128H515.2A160 160 0 0 1 672 704zm12.8-192a96 96 0 1 1 0 192 96 96 0 0 1 0-192zM352 384H224a32 32 0 0 0-5.76 63.488L224 448h128a32 32 0 0 0 0-64zm192-128H224a32 32 0 0 0-5.76 63.488L224 320h320a32 32 0 0 0 0-64z"/>
</svg>
