<svg width="200" height="200" class="caidan_wodeyiban_svg__icon" viewBox="0 0 1024 1024" xmlns="http://www.w3.org/2000/svg">
  <path d="M760.96 192H263.04A67.84 67.84 0 0 0 192 256v512a67.84 67.84 0 0 0 71.04 64h497.92A67.84 67.84 0 0 0 832 768V256a67.84 67.84 0 0 0-71.04-64zm-364.8 195.84a40.32 40.32 0 0 1 57.6 0L483.2 416l87.04-84.48a41.6 41.6 0 0 1 57.6 0A38.4 38.4 0 0 1 640 359.68a39.04 39.04 0 0 1-12.16 28.16L512 500.48a42.88 42.88 0 0 1-58.24 0l-57.6-56.32A38.4 38.4 0 0 1 384 416a40.32 40.32 0 0 1 12.16-28.16zM352 640h320a32 32 0 1 1 0 64H352a32 32 0 1 1 0-64z"/>
</svg>
