<svg width="200" height="200" class="caidan_tongyidaiban_svg__icon" viewBox="0 0 1024 1024" xmlns="http://www.w3.org/2000/svg">
  <path d="M810.667 469.333v304.64A40.107 40.107 0 0 1 768 810.667H256a40.107 40.107 0 0 1-42.667-36.694v-304.64h597.334zm-163.84 66.987a21.76 21.76 0 0 0-30.294 0L482.987 674.133l-76.8-74.24a21.333 21.333 0 0 0-36.267 14.934 21.76 21.76 0 0 0 6.4 15.36l93.013 88.746a21.76 21.76 0 0 0 14.934 6.4 21.76 21.76 0 0 0 15.36-6.4l148.48-153.173a21.76 21.76 0 0 0-1.28-29.44zM396.373 213.333a30.293 30.293 0 0 1 30.294 30.294v55.04h170.666v-55.04a30.293 30.293 0 0 1 30.294-30.294h24.746a30.293 30.293 0 0 1 30.294 30.294v55.04H768a40.107 40.107 0 0 1 42.667 32v96H213.333V335.36A40.107 40.107 0 0 1 256 298.667h85.333v-55.04a30.293 30.293 0 0 1 30.294-30.294h24.746z"/>
</svg>
