<svg width="200" height="200" class="caidan-jixiao4_svg__icon" viewBox="0 0 1024 1024" xmlns="http://www.w3.org/2000/svg">
  <path d="M768 128a64 64 0 0 1 64 64v576a64 64 0 0 1-64 64H448V128h320zM656.768 580.224l-4.928 3.52-65.024 56.384-22.656-19.648a32.96 32.96 0 0 0-45.696 2.496 24.832 24.832 0 0 0-.96 31.36l3.456 3.648 43.2 37.504a31.744 31.744 0 0 0 5.696 3.968c10.368 6.4 23.36 6.464 33.856.384l4.992-3.584 86.4-75.008a24.832 24.832 0 0 0 0-37.504 32.96 32.96 0 0 0-38.336-3.52zM736 384H544a32 32 0 0 0-5.76 63.488L544 448h192a32 32 0 1 0 0-64zm0-128H544a32 32 0 0 0-5.76 63.488L544 320h192a32 32 0 1 0 0-64zM384 832h-64a64 64 0 0 1-64-64V192a64 64 0 0 1 64-64h64v704z"/>
</svg>
