<svg width="200" height="200" class="caidan-daiban1_svg__icon" viewBox="0 0 1024 1024" xmlns="http://www.w3.org/2000/svg">
  <path d="M832 448v342.656c-1.92 24.512-22.272 42.88-45.696 41.216H237.696a43.328 43.328 0 0 1-44.736-34.688l-.96-6.528V448h640zM657.152 561.152a32 32 0 0 0-45.248 0L498.752 674.304l-67.84-67.904a32 32 0 0 0-45.312 45.248l90.496 90.496a32 32 0 0 0 45.248 0L657.152 606.4a32 32 0 0 0 0-45.248zM640 192a64 64 0 0 1 64 64h85.312A40.128 40.128 0 0 1 832 288v96H192v-91.328A40.128 40.128 0 0 1 234.688 256l85.312-.064.448-7.424A64 64 0 0 1 448 256h128l.448-7.424A64 64 0 0 1 640 192z"/>
</svg>
