<svg width="200" height="200" class="caidan-renyuanguanli1_svg__icon" viewBox="0 0 1024 1024" xmlns="http://www.w3.org/2000/svg">
  <path d="M492.8 192a160 160 0 0 1 77.76 299.84c23.36 6.144 45.824 14.72 67.008 25.344a211.52 211.52 0 0 0-90.688 173.952c0 54.08 20.224 103.424 53.376 140.8H128A352.064 352.064 0 0 1 407.68 487.36 160 160 0 0 1 492.8 192zm263.552 358.336A140.16 140.16 0 0 1 896 691.136a140.16 140.16 0 0 1-139.648 140.8 140.16 140.16 0 0 1-139.648-140.8c0-77.76 62.528-140.8 139.648-140.8zm43.52 84.48-3.84 3.392-59.2 59.648-20.096-19.712a26.688 26.688 0 0 0-39.104 0 27.776 27.776 0 0 0-3.392 36.032l3.392 3.392 39.04 40a27.776 27.776 0 0 0 35.84 3.392l3.84-3.392 78.72-79.36a28.288 28.288 0 0 0 0-40 27.776 27.776 0 0 0-35.2-3.392z"/>
</svg>
