<svg width="200" height="200" class="caidan-tubiao1_svg__icon" viewBox="0 0 1024 1024" xmlns="http://www.w3.org/2000/svg">
  <path d="M864 832a32 32 0 1 1 0 64H160a32 32 0 1 1 0-64h704zm-32-704a64 64 0 0 1 64 64v512a64 64 0 0 1-64 64H192a64 64 0 0 1-64-64V192a64 64 0 0 1 64-64h640zM480 320c-11.328 0-13.76 1.536-23.168 8.96l-8.384 7.296L438.4 345.6l-41.408 40.832-59.648 60.672-72.448 74.752a32 32 0 0 0 46.208 44.288l50.56-52.288 42.368-43.456 61.952-62.4 22.4 77.888 10.368 33.92L504 535.552c1.984 5.504 3.84 10.176 5.568 14.016 1.792 4.032 3.584 7.424 5.76 10.56C521.792 569.6 529.216 576 544 576l4.16-.384 4.48-1.216a38.592 38.592 0 0 0 2.496-.96l5.376-2.688 6.08-3.84 6.912-5.12 7.936-6.4 14.08-12.608 11.008-10.432 19.392-19.072 40.832-41.856 92.544-97.472a32 32 0 0 0-46.592-43.904l-28.864 30.528-72.64 75.712-36.48 37.12-18.048 17.664-10.048-33.856-20.288-70.656-8.448-27.392-3.584-10.24a84.096 84.096 0 0 0-5.248-11.52l-3.84-5.504-3.2-3.712c-1.984-1.92-4.352-3.072-10.24-4.864z"/>
</svg>
