<svg width="200" height="200" class="caidan-shezhi1_svg__icon" viewBox="0 0 1024 1024" xmlns="http://www.w3.org/2000/svg">
  <path d="M544.832 128c19.904 0 39.808 1.28 59.072 4.416 19.904 3.136 35.84 18.752 36.48 38.208 0 3.136 0 5.632.64 8.768 6.016 47.68 48.448 84.672 98.88 87.808 14.336.448 28.672-1.408 41.984-5.76l9.792-3.648a43.968 43.968 0 0 1 51.712 12.544c20.608 26.24 37.824 55.104 49.792 85.824 7.296 18.24 0 37.632-16.64 48.32a99.008 99.008 0 0 0-47.296 74.496l-.448 9.472v6.912c1.984 30.72 18.56 57.664 43.136 74.624 16.64 11.904 23.232 32 15.936 47.616a322.688 322.688 0 0 1-45.76 74.624 44.16 44.16 0 0 1-51.136 13.12 109.376 109.376 0 0 0-49.728-8.128c-23.872 1.28-46.464 10.688-63.68 25.728a97.28 97.28 0 0 0-33.216 53.888l-1.92 13.824a40.96 40.96 0 0 1-35.2 36.352 411.2 411.2 0 0 1-62.4 4.992c-22.528 0-45.056-1.92-66.304-5.632-19.2-3.2-34.56-18.816-35.2-37.632 0-3.136 0-6.272-.64-9.408-6.656-46.4-47.744-83.392-97.536-86.528a112.064 112.064 0 0 0-41.024 4.8l-9.408 3.392a44.16 44.16 0 0 1-51.072-13.184 350.592 350.592 0 0 1-43.136-72.064 40.576 40.576 0 0 1 13.952-48.32 98.56 98.56 0 0 0 41.152-79.616c0-33.856-17.92-63.936-45.12-82.112-16-10.624-22.592-30.08-16-46.976 12.032-30.72 28.608-60.16 49.152-86.528a44.224 44.224 0 0 1 44.992-15.168l6.08 1.984a112.81 112.81 0 0 0 50.432 8.192c48.704-3.584 88.576-38.784 97.024-83.648l1.152-8.512v-3.84c.64-18.752 16-34.432 35.2-37.568A389.184 389.184 0 0 1 544.832 128zM544 362.688a117.312 117.312 0 1 0 0 234.624 117.312 117.312 0 0 0 0-234.624z"/>
</svg>
