<svg width="200" height="200" class="caidan_qita_svg__icon" viewBox="0 0 1024 1024" xmlns="http://www.w3.org/2000/svg">
  <path d="M432.64 554.667a36.693 36.693 0 0 1 36.693 36.693v182.613a36.693 36.693 0 0 1-36.693 36.694H250.027a36.693 36.693 0 0 1-36.694-36.694V591.36a36.693 36.693 0 0 1 36.694-36.693H432.64zm341.333 0a36.693 36.693 0 0 1 36.694 36.693v182.613a36.693 36.693 0 0 1-36.694 36.694H591.36a36.693 36.693 0 0 1-36.693-36.694V591.36a36.693 36.693 0 0 1 36.693-36.693h182.613zM432.64 213.333a36.693 36.693 0 0 1 36.693 36.694V432.64a36.693 36.693 0 0 1-36.693 36.693H250.027a36.693 36.693 0 0 1-36.694-36.693V250.027a36.693 36.693 0 0 1 36.694-36.694H432.64zm250.027 0a128 128 0 1 1 0 256 128 128 0 0 1 0-256z"/>
</svg>
