<svg width="200" height="200" class="caidan-caiwu3_svg__icon" viewBox="0 0 1024 1024" xmlns="http://www.w3.org/2000/svg">
  <path d="M896 320v448a64 64 0 0 1-64 64H256a64 64 0 0 1-64-64V320h704zm-438.656 73.344a32 32 0 1 0-45.248 45.312l54.656 54.592H416a32 32 0 0 0 0 64h96v64h-96a32 32 0 0 0 0 64h96v32a32 32 0 1 0 64 0v-32h96a32 32 0 1 0 0-64h-96v-64h96a32 32 0 1 0 0-64h-50.816l54.72-54.592 3.712-4.48a32 32 0 0 0-3.712-40.832l-4.48-3.648a32 32 0 0 0-40.768 3.648L544 480zM832 128a64 64 0 0 1 64 64v64H192v-64a64 64 0 0 1 64-64h576z"/>
</svg>
