<svg width="200" height="200" class="caidan-wuziguanli2_svg__icon" viewBox="0 0 1024 1024" xmlns="http://www.w3.org/2000/svg">
  <path d="M832.128 383.872v337.344L832 768a64 64 0 0 1-64 64H192a64 64 0 0 1-64-64v-64l.064-1.28V383.872h704zM495.68 494.784a32.192 32.192 0 0 0-3.712 40.832l3.712 4.416 35.52 35.84H351.744a31.872 31.872 0 0 0-31.744 32c0 15.744 11.2 28.8 26.048 31.488l5.696.512H531.2l-35.52 35.904a32.192 32.192 0 0 0 0 45.248c11.008 11.136 28.096 12.352 40.448 3.712l4.416-3.712 90.432-91.2 2.688-3.072a31.104 31.104 0 0 0 1.216-35.968l-3.84-4.8-90.496-91.2a31.552 31.552 0 0 0-44.864 0zM448 192v128H128l93.376-104.64c12.8-14.336 36.224-23.36 60.928-23.36H448zm229.76 0c24.64 0 48 8.96 60.864 23.36L832 320H512V192h165.76z"/>
</svg>
