<svg width="200" height="200" class="caidan-liucheng2_svg__icon" viewBox="0 0 1024 1024" xmlns="http://www.w3.org/2000/svg">
  <path d="M512 128a128 128 0 0 1 125.44 153.536 320 320 0 0 1 194.112 311.36 128 128 0 1 1-114.368 228.608A318.464 318.464 0 0 1 512 896a318.72 318.72 0 0 1-205.248-74.496 128 128 0 0 1-114.304-228.672 320.064 320.064 0 0 1 194.176-311.36A128 128 0 0 1 512 128zm97.28 211.2-.64.768A127.68 127.68 0 0 1 512 384a127.744 127.744 0 0 1-97.28-44.8 256 256 0 0 0-158.4 224L256 576a128 128 0 0 1 102.4 204.8c42.752 32.128 96 51.2 153.6 51.2 57.6 0 110.848-19.072 153.6-51.2A128 128 0 0 1 768 576a256.064 256.064 0 0 0-158.72-236.8z"/>
</svg>
