<svg width="200" height="200" class="caidan-2Jmoren_svg__icon" viewBox="0 0 1024 1024" xmlns="http://www.w3.org/2000/svg">
  <path d="M192 704a64 64 0 0 1 63.552 56.512L256 768a64 64 0 0 1-56.512 63.552L192 832a64 64 0 0 1-63.552-56.512L128 768a64 64 0 0 1 56.512-63.552L192 704zm640 0a64 64 0 0 1 63.552 56.512L896 768a64 64 0 0 1-64 64H384a64 64 0 0 1-63.552-56.512L320 768a64 64 0 0 1 64-64h448zM192 448a64 64 0 0 1 63.552 56.512L256 512a64 64 0 0 1-56.512 63.552L192 576a64 64 0 0 1-63.552-56.512L128 512a64 64 0 0 1 56.512-63.552L192 448zm640 0a64 64 0 0 1 63.552 56.512L896 512a64 64 0 0 1-64 64H384a64 64 0 0 1-63.552-56.512L320 512a64 64 0 0 1 64-64h448zM192 192a64 64 0 0 1 63.552 56.512L256 256a64 64 0 0 1-56.512 63.552L192 320a64 64 0 0 1-63.552-56.512L128 256a64 64 0 0 1 56.512-63.552L192 192zm640 0a64 64 0 0 1 63.552 56.512L896 256a64 64 0 0 1-64 64H384a64 64 0 0 1-63.552-56.512L320 256a64 64 0 0 1 64-64h448z"/>
</svg>
