<svg width="200" height="200" class="caidan-jixiao2_svg__icon" viewBox="0 0 1024 1024" xmlns="http://www.w3.org/2000/svg">
  <path d="M704 128a64 64 0 0 1 64 64v576a64 64 0 0 1-64 64H256a64 64 0 0 1-64-64V192a64 64 0 0 1 64-64h448zm-8.96 455.744a32.96 32.96 0 0 0-43.2 0l-65.088 56.448-22.592-19.712a32.96 32.96 0 0 0-45.696 2.496 24.832 24.832 0 0 0 2.496 35.008l43.2 37.504a31.744 31.744 0 0 0 5.696 3.968c12.032 7.424 27.84 6.336 38.848-3.2l86.4-75.008a24.832 24.832 0 0 0 0-37.504zM416 448H288a32 32 0 0 0-5.76 63.488L288 512h128a32 32 0 0 0 0-64zm128-128H288a32 32 0 0 0-5.76 63.488L288 384h256a32 32 0 0 0 0-64z"/>
</svg>
