<svg width="200" height="200" class="caidan-renyuanguanli3_svg__icon" viewBox="0 0 1024 1024" xmlns="http://www.w3.org/2000/svg">
  <path d="M277.248 512.256a351.488 351.488 0 0 0-144.768 231.68l-2.368 17.024-.768 7.04H1.728a288.064 288.064 0 0 1 272.448-255.68h3.072zm405.312-.064 3.2.128A288.064 288.064 0 0 1 958.336 768h-127.68l-.704-7.04-2.24-16.32a351.168 351.168 0 0 0-145.088-232.448zM480 512a288 288 0 0 1 286.272 256H193.728A288 288 0 0 1 480 512zM288 192c11.008 0 21.76 1.088 32.064 3.2A222.976 222.976 0 0 0 256 352c0 53.76 18.944 103.168 50.56 141.696-9.792 5.504-19.264 11.52-28.416 17.92L288 512a160 160 0 0 1 0-320zm192 0a160 160 0 1 1 0 320 160 160 0 0 1 0-320zm192 0a160 160 0 0 1 10.496 319.68h-.704a352 352 0 0 0-28.352-17.92C685.056 455.168 704 405.76 704 352c0-61.056-24.448-116.416-64-156.8 10.24-2.112 20.992-3.2 32-3.2z"/>
</svg>
