<svg width="200" height="200" class="caidan-liucheng3_svg__icon" viewBox="0 0 1024 1024" xmlns="http://www.w3.org/2000/svg">
  <path d="M704 704c0 25.6 7.488 49.408 20.416 69.376L512 896 299.584 773.376c11.712-18.112 19.008-39.424 20.224-62.336L512 822.016l192.256-111.04L704 704zm128-64a64 64 0 1 1 0 128 64 64 0 0 1 0-128zm-640 0a64 64 0 1 1 0 128 64 64 0 0 1 0-128zm320-320 166.272 96v192L512 704l-166.272-96V416L512 320zM384.384 201.664a126.588 126.588 0 0 0 21.312 61.632l-162.304 93.632v229.824a127.552 127.552 0 0 0-64-10.112V320l204.992-118.336zm255.232 0L844.544 320v256.64a129.536 129.536 0 0 0-64 10.112V356.928l-162.176-93.696c11.968-17.856 19.584-38.848 21.248-61.568zM512 128a64 64 0 1 1 0 128 64 64 0 0 1 0-128z"/>
</svg>
