<svg width="200" height="200" class="caidan_gerenshixiangbeifen_svg__icon" viewBox="0 0 1024 1024" xmlns="http://www.w3.org/2000/svg">
  <path d="M512 170.667a170.667 170.667 0 0 1 93.44 313.6 302.933 302.933 0 0 1 66.133 31.146A149.333 149.333 0 0 0 599.467 768H213.333A298.667 298.667 0 0 1 418.56 484.267a170.667 170.667 0 0 1 93.44-313.6zm192 384A106.667 106.667 0 1 1 704 768a106.667 106.667 0 0 1 0-213.333zm33.28 64-2.987 2.56-45.226 45.226-15.36-14.933a20.48 20.48 0 0 0-29.867 0 20.907 20.907 0 0 0-2.56 27.307l2.56 2.56 29.867 30.293a21.333 21.333 0 0 0 27.306 2.56l2.987-2.56 60.16-60.16a21.333 21.333 0 0 0-26.88-32.853z"/>
</svg>
