<svg width="200" height="200" class="caidan-tubiao2_svg__icon" viewBox="0 0 1024 1024" xmlns="http://www.w3.org/2000/svg">
  <path d="M256 640a64 64 0 0 1 64 64v128a64 64 0 0 1-128 0V704a64 64 0 0 1 64-64zm256-128a64 64 0 0 1 64 64v256a64 64 0 0 1-128 0V576a64 64 0 0 1 64-64zm256-64a64 64 0 0 1 64 64v320a64 64 0 0 1-128 0V512a64 64 0 0 1 64-64zm33.024-320a30.848 30.848 0 0 1 30.72 26.88l.256 4.096V288a32 32 0 1 1-64 0v-52.224l-169.92 170.24a30.912 30.912 0 0 1-12.288 7.616l-4.672 1.152-4.864.384a30.912 30.912 0 0 1-17.152-5.248l-4.736-3.84-74.496-74.624L244.8 566.976a30.912 30.912 0 0 1-34.752 6.208l-4.736-2.688-4.224-3.584A31.04 31.04 0 0 1 197.12 528l3.968-4.864 256.896-257.408a30.912 30.912 0 0 1 39.04-3.84l4.736 3.84 74.496 74.624L724.224 192H672a32 32 0 1 1 0-64h129.024z"/>
</svg>
