<svg width="200" height="200" class="caidan-shuju1_svg__icon" viewBox="0 0 1024 1024" xmlns="http://www.w3.org/2000/svg">
  <path d="M351.616 141.76A876.928 876.928 0 0 1 512 128c57.792 0 111.232 4.608 160.384 13.76 49.216 9.152 88.128 21.696 116.672 37.44C817.6 194.944 832 212.032 832 230.464v51.2c0 18.432-14.272 35.52-42.88 51.2-28.672 15.808-67.456 28.224-116.672 37.44C623.232 379.392 569.792 384 512 384a876.8 876.8 0 0 1-160.384-13.824c-49.216-9.152-88.128-21.696-116.736-37.44-28.672-15.744-42.88-32.832-42.88-51.264v-51.2c0-18.432 14.272-35.456 42.88-51.2 28.672-15.616 67.52-28.096 116.736-37.312zM512 715.2a852.48 852.48 0 0 0 184.512-19.008c57.216-12.672 102.4-31.424 135.424-56.128v142.72c0 20.352-14.272 39.232-42.88 56.64-28.672 17.408-67.456 31.232-116.672 41.408C623.168 891.008 569.792 896 512 896a800.64 800.64 0 0 1-160.384-15.232c-49.216-10.112-88.128-24-116.672-41.408C206.208 821.952 192 803.072 192 782.72V640c33.088 24.832 78.272 43.584 135.488 56.256C388.224 709.248 450.048 715.648 512 715.2zm0-256a852.48 852.48 0 0 0 184.512-19.008c57.216-12.672 102.4-31.424 135.424-56.128v142.72c0 20.352-14.272 39.232-42.88 56.64-28.672 17.408-67.456 31.232-116.672 41.408C623.168 635.008 569.792 640 512 640a800.64 800.64 0 0 1-160.384-15.232c-49.216-10.176-88.128-24-116.736-41.408-28.672-17.408-42.88-36.288-42.88-56.64V384c33.088 24.832 78.272 43.584 135.488 56.256C388.224 453.248 450.048 459.648 512 459.2z"/>
</svg>
