<svg width="200" height="200" class="caidan_yibanrenwu_svg__icon" viewBox="0 0 1024 1024" xmlns="http://www.w3.org/2000/svg">
  <path d="M768 192a64 64 0 0 1 64 56.32V768a64 64 0 0 1-56.32 64H320a64 64 0 0 1-64-56.32V256a64 64 0 0 1 56.32-64H320a128 128 0 0 0 128 128h192a128 128 0 0 0 128-118.4V192zM640 391.68v3.84L504.32 537.6 448 481.28a36.48 36.48 0 0 0-26.88-12.16 37.12 37.12 0 0 0-27.52 12.8A47.36 47.36 0 0 0 384 512a43.52 43.52 0 0 0 7.68 25.6l4.48 5.12 79.36 85.12A40.32 40.32 0 0 0 503.68 640a35.2 35.2 0 0 0 23.04-8.32l4.48-3.84 161.28-171.52A44.8 44.8 0 0 0 704 426.24a46.08 46.08 0 0 0-7.68-25.6l-3.84-4.48-5.76-5.12a36.48 36.48 0 0 0-46.72.64zM640 128a64 64 0 0 1 0 128H448a64 64 0 1 1 0-128h192z"/>
</svg>
