<svg width="200" height="200" class="caidan-moren2_svg__icon" viewBox="0 0 1024 1024" xmlns="http://www.w3.org/2000/svg">
  <path d="M853.248 643.392c14.784-7.936 32.384-1.472 39.616 14.336a33.344 33.344 0 0 1-13.248 43.008L525.184 892.608a27.712 27.712 0 0 1-26.368.064L144.384 700.8a33.408 33.408 0 0 1-13.248-43.008c7.296-15.808 24.96-22.336 39.616-14.4L512 828.16zm0-192c14.784-7.936 32.384-1.472 39.616 14.336a33.344 33.344 0 0 1-13.248 43.008L525.184 700.608a27.712 27.712 0 0 1-26.368 0L144.384 508.736a33.344 33.344 0 0 1-13.248-43.008c7.296-15.808 24.96-22.272 39.616-14.336L512 636.16zM487.68 133.312a58.048 58.048 0 0 1 48.576 0l341.12 156.352c24.896 11.456 24.896 49.216 0 60.608L536.32 506.624a58.048 58.048 0 0 1-48.576 0L146.688 350.272c-24.896-11.392-24.896-49.152 0-60.544z"/>
</svg>
