<svg width="200" height="200" class="caidan-liucheng1_svg__icon" viewBox="0 0 1024 1024" xmlns="http://www.w3.org/2000/svg">
  <path d="M576 192a64 64 0 0 1 64 64v128a64 64 0 0 1-64 64h-64v64h163.84A28.16 28.16 0 0 1 704 540.16V640h64a64 64 0 0 1 64 64v128a64 64 0 0 1-64 64H576a64 64 0 0 1-64-64V704a64 64 0 0 1 64-64h64v-64H320v64h64a64 64 0 0 1 64 64v128a64 64 0 0 1-64 64H192a64 64 0 0 1-64-64V704a64 64 0 0 1 64-64h64v-99.84A28.16 28.16 0 0 1 284.16 512H448v-64h-64a64 64 0 0 1-64-64V256a64 64 0 0 1 64-64h192z"/>
</svg>
