<svg width="200" height="200" class="caidan-shuju4_svg__icon" viewBox="0 0 1024 1024" xmlns="http://www.w3.org/2000/svg">
  <path d="M768 640a64 64 0 0 1 64 64v64a64 64 0 0 1-64 64H256a64 64 0 0 1-64-64v-64a64 64 0 0 1 64-64h512zm-480 64a32 32 0 1 0 0 64 32 32 0 0 0 0-64zm448 0H480a32 32 0 1 0 0 64h256a32 32 0 1 0 0-64zm32-320a64 64 0 0 1 64 64v64a64 64 0 0 1-64 64H256a64 64 0 0 1-64-64v-64a64 64 0 0 1 64-64h512zm-480 64a32 32 0 1 0 0 64 32 32 0 0 0 0-64zm448 0H480a32 32 0 0 0 0 64h256a32 32 0 1 0 0-64zm32-320a64 64 0 0 1 64 64v64a64 64 0 0 1-64 64H256a64 64 0 0 1-64-64v-64a64 64 0 0 1 64-64h512zm-32 64H480a32 32 0 0 0 0 64h256a32 32 0 1 0 0-64zm-448 0a32 32 0 1 0 0 64 32 32 0 0 0 0-64z"/>
</svg>
