<svg width="200" height="200" class="caidan-jixiao3_svg__icon" viewBox="0 0 1024 1024" xmlns="http://www.w3.org/2000/svg">
  <path d="M704 128a64 64 0 0 1 64 64v341.44l-16.576-35.328A88 88 0 0 0 672.384 448l-9.088.448a87.552 87.552 0 0 0-69.44 48.448l-24.32 49.024-50.816 9.92c-32.064 4.544-58.496 29.824-67.84 62.72l-1.536 7.04-1.152 9.344a90.88 90.88 0 0 0 25.408 71.424l35.648 34.368-9.472 50.048c-2.048 14.464-1.024 28.48 2.688 41.28L256 832a64 64 0 0 1-64-64V192a64 64 0 0 1 64-64h448zm-31.616 384c9.216 0 17.152 5.312 21.12 13.312l36.992 78.72 81.92 14.656c8 1.28 15.936 8 18.56 17.28a28.416 28.416 0 0 1-5.312 25.344l-62.08 57.344 14.528 84.032a26.624 26.624 0 0 1-9.28 24c-2.624 3.968-7.936 5.312-11.904 5.312a24.704 24.704 0 0 1-10.56-2.688l-11.904-6.336-63.36-33.664-75.392 38.72-4.864 1.92-5.056.832a19.584 19.584 0 0 1-13.888-4.096 26.56 26.56 0 0 1-9.216-24l15.872-84.032-59.52-57.344c-6.592-6.656-7.872-17.28-6.592-25.28 2.624-9.344 9.28-16 18.56-17.344l81.92-16 38.272-77.376A23.552 23.552 0 0 1 672.32 512zM416 384H288a32 32 0 0 0-5.76 63.488L288 448h128a32 32 0 0 0 0-64zm128-128H288a32 32 0 0 0-5.76 63.488L288 320h256a32 32 0 0 0 0-64z"/>
</svg>
