<?xml version="1.0" standalone="no"?><!DOCTYPE svg PUBLIC "-//W3C//DTD SVG 1.1//EN" "http://www.w3.org/Graphics/SVG/1.1/DTD/svg11.dtd"><svg class="icon" width="200px" height="200.00px" viewBox="0 0 1024 1024" version="1.1" xmlns="http://www.w3.org/2000/svg"><path fill="#333333" d="M928 736h-64v-224a32 32 0 0 0-32-32h-288v-128h128a64 64 0 0 0 64-64V128a64 64 0 0 0-64-64H352a64 64 0 0 0-64 64v160a64 64 0 0 0 64 64h128v128H192a32 32 0 0 0-32 32v224H96a32 32 0 0 0-32 32v160a32 32 0 0 0 32 32h192a32 32 0 0 0 32-32v-160a32 32 0 0 0-32-32H224v-192h256v192h-64a32 32 0 0 0-32 32v160a32 32 0 0 0 32 32h192a32 32 0 0 0 32-32v-160a32 32 0 0 0-32-32h-64v-192h256v192h-64a32 32 0 0 0-32 32v160a32 32 0 0 0 32 32h192a32 32 0 0 0 32-32v-160a32 32 0 0 0-32-32z"  /></svg>