<?xml version="1.0" standalone="no"?><!DOCTYPE svg PUBLIC "-//W3C//DTD SVG 1.1//EN" "http://www.w3.org/Graphics/SVG/1.1/DTD/svg11.dtd"><svg class="icon" width="200px" height="200.00px" viewBox="0 0 1024 1024" version="1.1" xmlns="http://www.w3.org/2000/svg"><path fill="#333333" d="M832 736V128a64 64 0 0 0-64-64H256a64 64 0 0 0-64 64v608h640zM432 96h160a16 16 0 0 1 0 32h-160a16 16 0 0 1 0-32zM192 768v128a64 64 0 0 0 64 64h512a64 64 0 0 0 64-64v-128H192z m320 160a64 64 0 1 1-0.032-127.968A64 64 0 0 1 512 928z"  /></svg>