<?xml version="1.0" standalone="no"?><!DOCTYPE svg PUBLIC "-//W3C//DTD SVG 1.1//EN" "http://www.w3.org/Graphics/SVG/1.1/DTD/svg11.dtd"><svg class="icon" width="200px" height="200.00px" viewBox="0 0 1024 1024" version="1.1" xmlns="http://www.w3.org/2000/svg"><path fill="#333333" d="M928 160a64 64 0 0 0-64-64H160a64 64 0 0 0-64 64v32h832V160zM848 544c27.84 0 54.688 4.224 80 12V224H96v608a64 64 0 0 0 64 64h428A272 272 0 0 1 848 544zM252.8 384h518.4c15.904 0 28.8 14.336 28.8 32s-12.896 32-28.8 32H252.8c-15.904 0-28.8-14.336-28.8-32s12.896-32 28.8-32z m233.024 224H250.176C235.712 608 224 593.664 224 576s11.712-32 26.176-32h235.648c14.464 0 26.176 14.336 26.176 32s-11.712 32-26.176 32z"  /><path fill="#333333" d="M959.968 754.496c0-5.44-3.84-10.144-9.152-11.2l-34.848-6.976a11.52 11.52 0 0 1-8.544-7.424 108.288 108.288 0 0 0-3.872-9.344 11.52 11.52 0 0 1 0.832-11.232l19.712-29.568a11.488 11.488 0 0 0-1.408-14.432l-19.072-19.072a11.488 11.488 0 0 0-14.432-1.44l-29.568 19.712a11.456 11.456 0 0 1-11.232 0.832 114.56 114.56 0 0 0-9.344-3.872 11.424 11.424 0 0 1-7.36-8.512l-6.976-34.848a11.488 11.488 0 0 0-11.232-9.12h-26.976c-5.44 0-10.144 3.84-11.2 9.152l-6.944 34.88a11.424 11.424 0 0 1-7.36 8.512 108.288 108.288 0 0 0-9.344 3.872 11.52 11.52 0 0 1-11.232-0.832l-29.6-19.712a11.488 11.488 0 0 0-14.432 1.408l-19.072 19.072a11.488 11.488 0 0 0-1.44 14.432l19.712 29.568c2.24 3.328 2.528 7.616 0.832 11.232a114.56 114.56 0 0 0-3.872 9.344 11.424 11.424 0 0 1-8.512 7.36l-34.848 6.976a11.52 11.52 0 0 0-9.184 11.232v26.976c0 5.44 3.84 10.144 9.152 11.2l34.848 6.976a11.52 11.52 0 0 1 8.544 7.424c1.152 3.168 2.432 6.304 3.872 9.344a11.52 11.52 0 0 1-0.832 11.232l-19.712 29.568a11.424 11.424 0 0 0 1.44 14.432l19.072 19.072c3.84 3.84 9.888 4.448 14.432 1.408l29.568-19.712a11.456 11.456 0 0 1 11.232-0.832c3.04 1.408 6.144 2.72 9.344 3.872a11.424 11.424 0 0 1 7.36 8.512l6.976 34.848c1.056 5.344 5.76 9.184 11.2 9.184h26.976c5.44 0 10.144-3.84 11.2-9.152l6.944-34.88a11.424 11.424 0 0 1 7.36-8.512c3.168-1.152 6.304-2.432 9.344-3.872a11.52 11.52 0 0 1 11.232 0.832l29.6 19.712c4.544 3.008 10.56 2.432 14.432-1.44l19.072-19.072a11.424 11.424 0 0 0 1.408-14.432l-19.712-29.568a11.456 11.456 0 0 1-0.832-11.232 114.56 114.56 0 0 0 3.872-9.344 11.424 11.424 0 0 1 8.512-7.36l34.88-6.976a11.424 11.424 0 0 0 9.216-11.2l-0.032-27.008zM800 832a64 64 0 1 1 0-128 64 64 0 0 1 0 128z"  /></svg>