<?xml version="1.0" standalone="no"?>
<!DOCTYPE svg PUBLIC "-//W3C//DTD SVG 1.1//EN" "http://www.w3.org/Graphics/SVG/1.1/DTD/svg11.dtd">
<svg class="icon" width="200px" height="200.00px" viewBox="0 0 1024 1024" version="1.1" xmlns="http://www.w3.org/2000/svg">
  <path fill="#333333" d="M949.728 456.512l-415.072-384a31.552 31.552 0 0 0-23.2-8.256L511.2 64l-0.384 0.384a31.584 31.584 0 0 0-19.616 8.096l-416.864 384a32 32 0 1 0 43.392 47.04L160 464.576V896c0 35.36 26.272 64 58.656 64h586.656C837.728 960 864 931.36 864 896V464.416l42.208 39.072a32 32 0 1 0 43.52-46.976z m-256.736 213.12l-41.856 8.352a13.792 13.792 0 0 0-10.24 8.832 137.344 137.344 0 0 1-4.64 11.2 13.856 13.856 0 0 0 0.992 13.504l23.648 35.456a13.76 13.76 0 0 1-1.696 17.312l-22.88 22.912a13.696 13.696 0 0 1-17.312 1.696l-35.52-23.648a13.824 13.824 0 0 0-13.504-0.992 137.344 137.344 0 0 1-11.2 4.64 13.76 13.76 0 0 0-8.832 10.24l-8.352 41.856a13.696 13.696 0 0 1-13.44 11.008h-32.384a13.696 13.696 0 0 1-13.44-11.008l-8.352-41.824a13.792 13.792 0 0 0-8.832-10.24 137.344 137.344 0 0 1-11.2-4.64 13.856 13.856 0 0 0-13.504 0.992l-35.488 23.648a13.76 13.76 0 0 1-17.312-1.696l-22.88-22.88a13.696 13.696 0 0 1-1.696-17.312l23.648-35.488a13.824 13.824 0 0 0 0.992-13.504 137.344 137.344 0 0 1-4.64-11.2 13.824 13.824 0 0 0-10.24-8.896l-41.824-8.352a13.696 13.696 0 0 1-11.008-13.44v-32.384c0-6.528 4.608-12.16 11.008-13.44l41.824-8.352a13.792 13.792 0 0 0 10.24-8.832c1.376-3.808 2.944-7.552 4.64-11.2a13.856 13.856 0 0 0-0.992-13.504l-23.648-35.456a13.76 13.76 0 0 1 1.696-17.312l22.88-22.88a13.696 13.696 0 0 1 17.312-1.696l35.52 23.648a13.824 13.824 0 0 0 13.504 0.992c3.648-1.696 7.392-3.264 11.2-4.64a13.76 13.76 0 0 0 8.832-10.24l8.352-41.856c1.28-6.4 6.912-11.008 13.44-11.008h32.384c6.528 0 12.16 4.608 13.44 11.008l8.352 41.824c0.96 4.736 4.32 8.608 8.832 10.24 3.808 1.376 7.552 2.944 11.2 4.64a13.856 13.856 0 0 0 13.504-0.992l35.488-23.648a13.76 13.76 0 0 1 17.312 1.696l22.88 22.88a13.696 13.696 0 0 1 1.696 17.312l-23.648 35.488a13.824 13.824 0 0 0-0.992 13.504c1.696 3.648 3.264 7.392 4.64 11.2a13.824 13.824 0 0 0 10.24 8.896l41.824 8.352c6.4 1.28 11.008 6.912 11.008 13.44L704 656.192c0 6.528-4.608 12.16-11.008 13.44z"  />
  <path fill="#333333" d="M512 576a64 64 0 1 0-0.032 127.968A64 64 0 0 0 512 576z"  />
</svg>