<?xml version="1.0" standalone="no"?>
<!DOCTYPE svg PUBLIC "-//W3C//DTD SVG 1.1//EN" "http://www.w3.org/Graphics/SVG/1.1/DTD/svg11.dtd">
<svg class="icon" width="200px" height="200.00px" viewBox="0 0 1024 1024" version="1.1" xmlns="http://www.w3.org/2000/svg">
  <path  d="M512 256m-192 0a192 192 0 1 0 384 0 192 192 0 1 0-384 0Z"  />
  <path  d="M928 704v-48a80 80 0 1 0-160 0V704a32 32 0 0 0-32 32v128a32 32 0 0 0 32 32h160a32 32 0 0 0 32-32v-128a32 32 0 0 0-32-32z m-128-48c0-26.464 21.536-48 48-48s48 21.536 48 48V704h-96v-48z"  />
  <path  d="M818.592 507.296a254.656 254.656 0 0 0-114.56-27.296H352.096A288.096 288.096 0 0 0 64 768.096V864a96 96 0 0 0 96 96h536.416A302.304 302.304 0 0 1 640 784c0-123.136 73.344-228.896 178.592-276.704z"  />
</svg>