<?xml version="1.0" encoding="UTF-8"?>
<svg width="16px" height="16px" viewBox="0 0 16 16" version="1.1" xmlns="http://www.w3.org/2000/svg" xmlns:xlink="http://www.w3.org/1999/xlink">
    <g id="显示图表" stroke="none" stroke-width="1" fill="none" fill-rule="evenodd">
        <rect id="矩形" opacity="0" x="0" y="0" width="16" height="16"></rect>
        <path d="M13.5,12 C13.7761424,12 14,12.2238576 14,12.5 C14,12.7761424 13.7761424,13 13.5,13 L3,13 L3,12 L13.5,12 Z M2.5,3 C2.77614237,3 3,3.22385763 3,3.5 L3,13 C2.44771525,13 2,12.5522847 2,12 L2,3.5 C2,3.22385763 2.22385763,3 2.5,3 Z M4.5,9 C4.77614237,9 5,9.22385763 5,9.5 L5,10.5 C5,10.7761424 4.77614237,11 4.5,11 C4.22385763,11 4,10.7761424 4,10.5 L4,9.5 C4,9.22385763 4.22385763,9 4.5,9 Z M8.5,9 C8.77614237,9 9,9.22385763 9,9.5 L9,10.5 C9,10.7761424 8.77614237,11 8.5,11 C8.22385763,11 8,10.7761424 8,10.5 L8,9.5 C8,9.22385763 8.22385763,9 8.5,9 Z M12.5,9 C12.7761424,9 13,9.22385763 13,9.5 L13,10.5 C13,10.7761424 12.7761424,11 12.5,11 C12.2238576,11 12,10.7761424 12,10.5 L12,9.5 C12,9.22385763 12.2238576,9 12.5,9 Z M6.5,8 C6.77614237,8 7,8.22385763 7,8.5 L7,10.5 C7,10.7761424 6.77614237,11 6.5,11 C6.22385763,11 6,10.7761424 6,10.5 L6,8.5 C6,8.22385763 6.22385763,8 6.5,8 Z M10.5,7 C10.7761424,7 11,7.22385763 11,7.5 L11,10.5 C11,10.7761424 10.7761424,11 10.5,11 C10.2238576,11 10,10.7761424 10,10.5 L10,7.5 C10,7.22385763 10.2238576,7 10.5,7 Z M11.8796283,3.17460431 C12.0393715,3.36097135 12.0379359,3.63108127 11.8883918,3.81502169 L11.8253957,3.8796283 L8.32539569,6.8796283 C8.20761907,6.98057969 8.05123432,7.02004447 7.90235945,6.99038792 L7.81430466,6.96423835 L5.62,6.086 L4.35355339,7.35355339 C4.17998704,7.52711974 3.91056264,7.54640489 3.7156945,7.41140884 L3.64644661,7.35355339 C3.47288026,7.17998704 3.45359511,6.91056264 3.58859116,6.7156945 L3.64644661,6.64644661 L5.14644661,5.14644661 C5.26767343,5.02521979 5.44082677,4.97591529 5.60477269,5.01108133 L5.68569534,5.03576165 L7.904,5.923 L11.1746043,3.1203717 C11.3842672,2.94066062 11.6999172,2.96494139 11.8796283,3.17460431 Z" id="形状结合" fill="#045340"></path>
    </g>
</svg>