<?xml version="1.0" standalone="no"?><!DOCTYPE svg PUBLIC "-//W3C//DTD SVG 1.1//EN" "http://www.w3.org/Graphics/SVG/1.1/DTD/svg11.dtd"><svg class="icon" width="200px" height="200.00px" viewBox="0 0 1024 1024" version="1.1" xmlns="http://www.w3.org/2000/svg"><path fill="#333333" d="M881.152 512A122.944 122.944 0 0 1 960 397.312a466.08 466.08 0 0 0-50.176-121.408c-45.248 20.16-99.904 12.096-136.64-25.088a122.144 122.144 0 0 1-25.088-136.64A451.2 451.2 0 0 0 626.688 64c-17.92 46.144-62.272 78.848-114.688 78.848S415.232 110.144 397.312 64c-43.008 11.2-83.776 27.776-121.408 50.176 20.16 45.248 12.096 99.904-25.088 136.64s-91.84 45.248-136.64 25.088A466.08 466.08 0 0 0 64 397.312c46.144 17.92 78.848 62.272 78.848 114.688S110.144 608.768 64 626.688c11.2 43.008 27.776 83.776 50.176 121.408 45.248-20.16 99.904-12.096 136.64 25.088a122.144 122.144 0 0 1 25.088 136.64A451.2 451.2 0 0 0 397.312 960c17.92-46.144 62.272-78.848 114.688-78.848s96.768 32.704 114.688 78.848a466.08 466.08 0 0 0 121.408-50.176c-20.16-45.248-12.096-99.904 25.088-136.64a122.944 122.944 0 0 1 136.64-25.088A439.552 439.552 0 0 0 960 626.688 122.944 122.944 0 0 1 881.152 512zM512 672c-88.448 0-160-71.552-160-160s71.552-160 160-160 160 71.552 160 160-71.552 160-160 160z"  /></svg>