<?xml version="1.0" encoding="UTF-8"?>
<svg class="svg-con" width="21px" height="20px" viewBox="0 0 21 20" version="1.1" xmlns="http://www.w3.org/2000/svg" xmlns:xlink="http://www.w3.org/1999/xlink">
    <!-- Generator: Sketch 59.1 (86144) - https://sketch.com -->
    <title></title>
    <desc>Created with Sketch.</desc>
    <g id="页面-1" stroke="none" stroke-width="1" fill="none" fill-rule="evenodd">
        <g id="列表页" transform="translate(-26.000000, -812.000000)">
            <g id="工作流" transform="translate(26.000000, 812.000000)">
                <rect id="矩形" class="svg-rect" x="0" y="0" width="21" height="20" rx="4"></rect>
                <path d="M15.0627558,13.4990161 C15.148429,13.832587 15.317986,14.1325153 15.5476078,14.374982 L11,17 L6.45239219,14.374982 C6.682014,14.1325153 6.85157098,13.832587 6.93724423,13.4990161 L11,15.8452995 L15.0627558,13.4990161 Z M11,6 L14.4641016,8 L14.4641016,12 L11,14 L7.53589838,12 L7.53589838,8 L11,6 Z M17,12 C17.5522847,12 18,12.4477153 18,13 C18,13.5522847 17.5522847,14 17,14 C16.4477153,14 16,13.5522847 16,13 C16,12.4477153 16.4477153,12 17,12 Z M5,12 C5.55228475,12 6,12.4477153 6,13 C6,13.5522847 5.55228475,14 5,14 C4.44771525,14 4,13.5522847 4,13 C4,12.4477153 4.44771525,12 5,12 Z M12.9943638,4.15128723 L17.0621778,6.5 L17.0624463,11.0009563 L17,11 L17,11 C16.6608988,11 16.3415085,11.0843926 16.0616863,11.2333207 L16.0621778,7.07735027 L12.6609843,5.11443094 C12.8486635,4.8352594 12.9678212,4.50618021 12.9943638,4.15128723 Z M9.00563615,4.15128723 C9.03217875,4.50618021 9.15133655,4.8352594 9.3390157,5.11443094 L5.93782217,7.07735027 L5.93806903,11.2331905 C5.65830537,11.0843435 5.33900242,11 5,11 L4.937,11.0022872 L4.93782217,6.5 L9.00563615,4.15128723 Z M11,3 C11.5522847,3 12,3.44771525 12,4 C12,4.55228475 11.5522847,5 11,5 C10.4477153,5 10,4.55228475 10,4 C10,3.44771525 10.4477153,3 11,3 Z" id="形状" fill="#FFFFFF"></path>
            </g>
        </g>
    </g>
</svg>
