<?xml version="1.0" encoding="UTF-8"?>
<svg class="svg-con" width="21px" height="20px" viewBox="0 0 21 20" version="1.1" xmlns="http://www.w3.org/2000/svg" xmlns:xlink="http://www.w3.org/1999/xlink">
    <!-- Generator: Sketch 59.1 (86144) - https://sketch.com -->
    <title></title>
    <desc>Created with Sketch.</desc>
    <g id="页面-1" stroke="none" stroke-width="1" fill="none" fill-rule="evenodd">
        <g id="列表页" transform="translate(-26.000000, -683.000000)">
            <g id="开发组件" transform="translate(26.000000, 683.000000)">
                <rect id="矩形" class="svg-rect"  x="0" y="0" width="21" height="20" rx="4"></rect>
                <g id="开发组件-icon" transform="translate(5.000000, 3.000000)" fill="#FFFFFF" fill-rule="nonzero">
                    <path d="M12.9936995,8.53101584 C12.9150764,9.56155533 12.084002,10.3738033 11.05183,10.428896 C10.4891875,10.4632508 9.93724826,10.2642765 9.52597761,9.87882546 C9.48834167,9.84392719 9.43389151,9.83399606 9.38635665,9.8533601 C9.33882179,9.87272413 9.30681474,9.91787489 9.30428426,9.96913555 L9.30428426,11.8540165 C9.30428426,12.1577868 9.183174,12.4492421 8.96695456,12.6647548 C8.74970641,12.8801718 8.45593168,13.00072 8.14997352,13 L1.15431672,13 C0.848358554,13.00072 0.554583823,12.8801718 0.337335671,12.6647548 C0.120846202,12.4500223 -0.000638170483,12.1575539 0,11.8526482 L0,10.1819116 C-0.000574330938,10.1079801 0.0411497957,10.0402187 0.107431457,10.0074489 C0.173944834,9.97435623 0.253463096,9.98177716 0.312703077,10.0266056 C0.715744286,10.3258356 1.21469062,10.4665681 1.71470824,10.4220543 C2.57743069,10.3527921 3.30526892,9.75260682 3.53752022,8.91893871 C3.76678532,8.08600648 3.44803416,7.1988536 2.74106634,6.7022366 C2.03197158,6.20310378 1.08749303,6.19655885 0.371547608,6.68581659 C0.299660505,6.73513782 0.206312611,6.74041117 0.129327096,6.69949993 C0.0520829994,6.65885751 0.00441073258,6.57808793 0.00616412456,6.4908289 L0.00616412456,4.89808739 C0.00616412456,4.59705377 0.12727438,4.30696682 0.342809581,4.09419079 C0.558915859,3.88115959 0.850856287,3.76277115 1.15431672,3.76510631 L3.14271447,3.76510631 C3.18592154,3.80197176 3.24819535,3.80613899 3.29593004,3.77535917 C3.34366473,3.74457935 3.36556009,3.68613898 3.34980035,3.63157521 C3.33404061,3.57701144 3.28435658,3.53924114 3.22756008,3.53864693 C2.79134302,3.12996983 2.55773247,2.54963464 2.58916534,1.95274708 C2.64705991,0.836052284 3.58558799,-0.0304011633 4.70346302,0.000817725002 C5.8210545,0.0253501878 6.7145914,0.937628756 6.71580913,2.05537218 C6.71782307,2.64413046 6.46297067,3.20449739 6.01788563,3.58995947 C5.98614929,3.61719988 5.97490651,3.66141534 5.98977714,3.70050416 C6.00464777,3.73959297 6.04243756,3.76515877 6.08425678,3.76442214 L8.15065776,3.76442214 C8.45719671,3.76442214 8.75141936,3.88415142 8.9676388,4.09966413 C9.18385824,4.31449266 9.30565274,4.60594794 9.3049685,4.9104024 L9.3049685,6.82812339 C9.30436668,6.87457954 9.33195833,6.91677414 9.37476085,6.93485349 C9.41747074,6.95314497 9.46697011,6.94426829 9.50066077,6.91227597 C10.1176606,6.32159985 11.0336005,6.1692759 11.808598,6.5284581 C12.581666,6.88479158 13.0539271,7.6818873 12.995068,8.53101584 L12.9943837,8.53033168 L12.9936995,8.53101584 Z" id="路径"></path>
                </g>
            </g>
        </g>
    </g>
</svg>
