<?xml version="1.0" encoding="UTF-8"?>
<svg class="svg-con" width="18px" height="19px" viewBox="0 0 18 19" version="1.1" xmlns="http://www.w3.org/2000/svg" xmlns:xlink="http://www.w3.org/1999/xlink">
    <!-- Generator: Sketch 53.2 (72643) - https://sketchapp.com -->
    <desc>Created with Sketch.</desc>
    <defs>
        <linearGradient x1="50%" y1="0%" x2="50%" y2="100%" id="linearGradient-1">
            <stop stop-color="#EBEDF4" offset="0%"></stop>
            <stop stop-color="#D2D5E5" offset="100%"></stop>
        </linearGradient>
        <linearGradient x1="50%" y1="9.91079981%" x2="50%" y2="100%" id="linearGradient-2">
            <stop stop-color="#3D72FF" offset="0%"></stop>
            <stop stop-color="#2A64FF" offset="100%"></stop>
        </linearGradient>
        <rect id="path-3" x="0" y="0" width="56.001489" height="1186"></rect>
        <filter x="-6.2%" y="-0.5%" width="119.6%" height="100.9%" filterUnits="objectBoundingBox" id="filter-5">
            <feMorphology radius="0.5" operator="dilate" in="SourceAlpha" result="shadowSpreadOuter1"></feMorphology>
            <feOffset dx="2" dy="0" in="shadowSpreadOuter1" result="shadowOffsetOuter1"></feOffset>
            <feGaussianBlur stdDeviation="1" in="shadowOffsetOuter1" result="shadowBlurOuter1"></feGaussianBlur>
            <feColorMatrix values="0 0 0 0 0.756862745   0 0 0 0 0.796078431   0 0 0 0 0.878431373  0 0 0 0.299961757 0" type="matrix" in="shadowBlurOuter1"></feColorMatrix>
        </filter>
    </defs>
    <g id="Page-1" stroke="none" stroke-width="1" fill="none" fill-rule="evenodd">
        <g id="导航栏收起" transform="translate(-20.000000, -78.000000)">
            <rect id="矩形" fill="url(#linearGradient-1)" x="-15" y="-90" width="2022" height="1214"></rect>
            <rect id="矩形" stroke="#DFE0F1" fill="#FFFFFF" x="34.6168964" y="-45.3650871" width="1897" height="183.297729"></rect>
            <rect id="矩形" fill="red" x="34.1168964" y="43.7383088" width="1905" height="93.6943335"></rect>
            <g id="矩形">
                <mask id="mask-4" fill="white">
                    <use xlink:href="#path-3"></use>
                </mask>
                <g id="Mask">
                    <use fill="black" fill-opacity="1" filter="url(#filter-5)" xlink:href="#path-3"></use>
                    <use class="svg-rect"  fill="url(#linearGradient-2)" fill-rule="evenodd" xlink:href="#path-3"></use>
                </g>
            </g>
            <g id="compass" transform="translate(20.616896, 78.935956)" fill="#ADC3FF" fill-rule="nonzero">
                <path d="M17.1633755,8.58168776 C17.1633755,7.42081945 16.9324501,6.31144127 16.5135077,5.29958227 C16.0781821,4.24871559 15.4407967,3.30394979 14.6505013,2.51365436 C13.8602059,1.72335893 12.9154401,1.08519342 11.8645734,0.650647963 C10.8519342,0.230925416 9.74255607,0 8.58168776,0 C7.42081945,0 6.31144127,0.230925416 5.29958227,0.649867809 C4.24871559,1.08519342 3.30394979,1.72257878 2.51365436,2.51365436 C1.72335893,3.30472994 1.08519342,4.24871559 0.649867809,5.29958227 C0.230925416,6.31144127 1.77635684e-15,7.42081945 1.77635684e-15,8.58168776 C1.77635684e-15,9.74255607 0.230925416,10.8519342 0.649867809,11.8637933 C1.08519342,12.9146599 1.72257878,13.8594257 2.51287421,14.6497212 C3.30316963,15.4400166 4.24793544,16.0781821 5.29880211,16.5127276 C6.31144127,16.9324501 7.42081945,17.1633755 8.58168776,17.1633755 C9.74255607,17.1633755 10.8519342,16.9324501 11.8637933,16.5135077 C12.9146599,16.0781821 13.8594257,15.4407967 14.6497212,14.6505013 C15.4400166,13.8602059 16.0781821,12.9154401 16.5127276,11.8645734 C16.9324501,10.8519342 17.1633755,9.74255607 17.1633755,8.58168776 Z M15.6030687,8.58168776 C15.6030687,9.5342551 15.4134914,10.4407934 15.0717842,11.2669759 C14.7160342,12.1259248 14.1948917,12.8990569 13.5465842,13.5465842 C12.8982767,14.1941116 12.1251447,14.7160342 11.2669759,15.0717842 C10.4407934,15.4134914 9.5342551,15.6030687 8.58168776,15.6030687 C7.62912042,15.6030687 6.72258213,15.4134914 5.89639964,15.0717842 C5.03745071,14.7160342 4.26431866,14.1948917 3.61679131,13.5465842 C2.96848381,12.8982767 2.44734132,12.1251447 2.09159135,11.2669759 C1.74988415,10.4407934 1.56030687,9.5342551 1.56030687,8.58168776 C1.56030687,7.62912042 1.74988415,6.72258213 2.09159135,5.89639964 C2.44734132,5.03745071 2.96848381,4.26431866 3.61679131,3.61679131 C4.26509882,2.96926396 5.03823087,2.44734132 5.89639964,2.09159135 C6.72258213,1.74988415 7.62912042,1.56030687 8.58168776,1.56030687 C9.5342551,1.56030687 10.4407934,1.74988415 11.2669759,2.09159135 C12.1259248,2.44734132 12.8990569,2.96848381 13.5465842,3.61679131 C14.1948917,4.26509882 14.7160342,5.03823087 15.0717842,5.89639964 C15.4134914,6.72258213 15.6030687,7.62912042 15.6030687,8.58168776 L15.6030687,8.58168776 Z M12.6299039,5.52036569 C12.681394,5.36745562 12.686075,5.19426155 12.6299039,5.02730872 C12.4933771,4.61850832 12.0518102,4.3977249 11.6430098,4.53425175 L6.681234,6.18817703 C6.4549895,6.26463206 6.26853283,6.44016659 6.18817703,6.681234 L4.53425175,11.6430098 C4.48276162,11.7959199 4.4780807,11.969114 4.53425175,12.1360668 C4.6707786,12.5448672 5.11234544,12.7656506 5.52114584,12.6291238 L10.4829217,10.9751985 C10.7091662,10.8987435 10.8956228,10.7232089 10.9759786,10.4821415 L12.6299039,5.52036569 Z M10.6561157,6.50725978 L9.61851167,9.61851167 L6.50725978,10.6561157 L7.54408369,7.54486385 L10.6561157,6.50725978 Z" id="形状"></path>
            </g>
        </g>
    </g>
</svg>
