<?xml version="1.0" encoding="UTF-8"?>
<svg width="16px" height="16px" viewBox="0 0 16 16" version="1.1" xmlns="http://www.w3.org/2000/svg" xmlns:xlink="http://www.w3.org/1999/xlink">
    <title>轻骑兵_内容监控</title>
    <g id="适配" stroke="none" stroke-width="1" fill="none" fill-rule="evenodd">
        <g id="7.5树结构切图" transform="translate(-340.000000, -45.000000)">
            <g id="轻骑兵_内容监控" transform="translate(340.000000, 45.000000)">
                <rect id="矩形" opacity="0" x="0" y="0" width="16" height="16"></rect>
                <path class="svg-rect" d="M2.99999967,4 C2.999,5.104 5.237,6 7.999,6 C10.761,6 12.999,5.105 12.9999997,4.001 C12.9999997,4.001 12.9999997,4 12.9999997,4 C12.9999997,2.896 10.762,2 8.001,2 C5.239,2 2.99999967,2.895 2.99999967,4 C2.99999967,3.999 2.99999967,4 2.99999967,4 Z" id="路径"  fill-rule="nonzero"></path>
                <path class="svg-rect" d="M13,5 C13,6.104 10.762,6.999 8.001,6.999 C5.239,6.999 3,6.104 3,5 L3,7 L3,7.999 C3,8 3,8 3,8 C3,9.104 5.239,9.999 8.001,9.999 C10.762,9.999 12.999,9.104 13,8 L13,8 L13,7.999 C13,7.999 13,7.999 13,7.999 L13,7 L13,5 L13,5 Z" id="路径"  fill-rule="nonzero"></path>
                <path class="svg-rect" d="M13,9 C13,10.104 10.762,10.999 8.001,10.999 C5.239,10.999 3,10.104 3,9 L3,11 L3,11.999 C3,12 3,12 3,12 C3,13.104 5.239,13.999 8.001,13.999 C10.762,13.999 13,13.104 13,12 L13,12 L13,11.999 C13,11.999 13,11.999 13,11.999 L13,11 L13,9 L13,9 Z" id="路径"  fill-rule="nonzero"></path>
            </g>
        </g>
    </g>
</svg>