<?xml version="1.0" standalone="no"?><!DOCTYPE svg PUBLIC "-//W3C//DTD SVG 1.1//EN" "http://www.w3.org/Graphics/SVG/1.1/DTD/svg11.dtd"><svg t="1636513577379" class="icon" viewBox="0 0 1024 1024" version="1.1" xmlns="http://www.w3.org/2000/svg" p-id="4368" xmlns:xlink="http://www.w3.org/1999/xlink" width="16" height="16"><defs><style type="text/css"></style></defs><path d="M960 288V171.648C960 129.856 931.36 96 896 96H128C92.64 96 64 129.856 64 171.648V288h896zM352 160a32 32 0 1 1 0 64 32 32 0 0 1 0-64zM256 160a32 32 0 1 1 0 64 32 32 0 0 1 0-64zM160 160a32 32 0 1 1 0 64 32 32 0 0 1 0-64zM64 320v532.352C64 894.144 92.64 928 128 928h768c35.36 0 64-33.856 64-75.648V320H64z m323.104 412.416a22.496 22.496 0 0 1-32.928-2.432l-92.192-108.16a25.6 25.6 0 0 1 0-32.896l92.192-108.16a22.464 22.464 0 0 1 32.928-1.856 25.6 25.6 0 0 1 1.76 34.752L310.72 605.216l78.144 91.744c0.16 0.256 0.384 0.416 0.544 0.672a25.632 25.632 0 0 1-2.304 34.784z m194.08-251.36l-93.28 270.752c-4.384 12.8-17.792 19.36-29.888 14.72-12.128-4.64-18.336-18.784-13.952-31.552l93.28-270.752c4.384-12.8 17.792-19.36 29.888-14.72s18.336 18.752 13.952 31.552z m180.832 140.8l-92.192 108.224a22.464 22.464 0 0 1-32.928 1.856 25.6 25.6 0 0 1-1.76-34.752l78.144-91.744-78.144-91.744a25.6 25.6 0 0 1 1.76-34.752 22.464 22.464 0 0 1 32.928 1.856l92.192 108.16a25.6 25.6 0 0 1 0 32.896z" fill="#333333" p-id="4369"></path></svg>