<?xml version="1.0" encoding="UTF-8"?>
<svg width="16px" height="16px" viewBox="0 0 16 16" version="1.1" xmlns="http://www.w3.org/2000/svg" xmlns:xlink="http://www.w3.org/1999/xlink">
    <title>轻骑兵_日志目录</title>
    <g id="适配" stroke="none" stroke-width="1" fill="none" fill-rule="evenodd">
        <g id="7.5树结构切图" transform="translate(-308.000000, -45.000000)">
            <g id="轻骑兵_日志目录" transform="translate(308.000000, 45.000000)">
                <rect id="矩形" opacity="0" x="0" y="0" width="16" height="16"></rect>
                <g id="编组" transform="translate(3.000000, 2.000000)"  fill-rule="nonzero">
                    <path class="svg-rect" d="M2.5,2 C2.776,2 3,1.776 3,1.5 L3,0.5 C3,0.224 2.776,0 2.5,0 C2.224,0 2,0.224 2,0.5 L2,1.5 C2,1.776 2.224,2 2.5,2 Z" id="路径"></path>
                    <path class="svg-rect" d="M7.5,2 C7.776,2 8,1.776 8,1.5 L8,0.5 C8,0.224 7.776,0 7.5,0 C7.224,0 7,0.224 7,0.5 L7,1.5 C7,1.776 7.224,2 7.5,2 Z" id="路径"></path>
                    <path class="svg-rect" d="M9,1 L9,1.458 C9,2.217 8.328,2.833 7.5,2.833 C6.672,2.833 6,2.218 6,1.458 L6,1 L4,1 L4,1.458 C4,2.217 3.328,2.833 2.5,2.833 C1.672,2.833 1,2.218 1,1.458 L1,1 C0.448,1 0,1.41 0,1.917 L0,11.084 C0,11.59 0.448,12 1,12 L9,12 C9.552,12 10,11.59 10,11.083 L10,1.917 C10,1.41 9.552,1 9,1 Z M8.5,9 L1.5,9 C1.224,9 1,8.776 1,8.5 C1,8.224 1.224,8 1.5,8 L8.5,8 C8.776,8 9,8.224 9,8.5 C9,8.776 8.776,9 8.5,9 Z M8.5,6 L1.5,6 C1.224,6 1,5.776 1,5.5 C1,5.224 1.224,5 1.5,5 L8.5,5 C8.776,5 9,5.224 9,5.5 C9,5.776 8.776,6 8.5,6 Z" id="形状"></path>
                </g>
            </g>
        </g>
    </g>
</svg>