<?xml version="1.0" encoding="UTF-8"?>
<svg width="16px" height="16px" viewBox="0 0 16 16" version="1.1" xmlns="http://www.w3.org/2000/svg" xmlns:xlink="http://www.w3.org/1999/xlink">
    <title>轻骑兵_数据字典</title>
    <g id="适配" stroke="none" stroke-width="1" fill="none" fill-rule="evenodd">
        <g id="7.5树结构切图" transform="translate(-372.000000, -45.000000)">
            <g id="轻骑兵_数据字典" transform="translate(372.000000, 45.000000)">
                <rect id="矩形" opacity="0" x="0" y="0" width="16" height="16"></rect>
                <path class="svg-rect" d="M5,13 C4.448,13 4,12.552 4,12 C4,11.448 4.448,11 5,11 L13,11 L13,2 L5,2 L5,9 L4,9 L4,2 C3.448,2 3,2.448 3,3 L3,13 C3,13.552 3.448,14 4,14 L13,14 L13,13 L5,13 Z M7.5,3 L10.5,3 C10.776,3 11,3.224 11,3.5 C11,3.776 10.776,4 10.5,4 L7.5,4 C7.224,4 7,3.776 7,3.5 C7,3.224 7.224,3 7.5,3 Z" id="形状"  fill-rule="nonzero"></path>
            </g>
        </g>
    </g>
</svg>