<svg xmlns="http://www.w3.org/2000/svg" viewBox="0 0 24 24" class="design-iconfont">
  <path d="M21.6818182,19.5 C22.1334545,19.5 22.5,19.836 22.5,20.25 C22.5,20.664 22.1334545,21 21.6818182,21 L2.31818182,21 C1.86654545,21 1.5,20.664 1.5,20.25 C1.5,19.836 1.86654545,19.5 2.31818182,19.5 L21.6818182,19.5 Z M12,3 C12.4600457,3 12.8334161,3.33626902 12.8334161,3.75060048 L12.8334161,16.9944956 L18.000596,12.306245 C18.2772902,11.9729784 18.8006755,11.9084267 19.1673786,12.1576261 C19.5357485,12.4053243 19.6090891,12.8767014 19.332395,13.2069656 L13.2384563,19.0046037 C12.8567518,19.3393715 12.4017066,19.5 11.9616629,19.5 C11.5549558,19.5 11.1632502,19.3633907 10.8532194,19.0991793 L4.66760501,13.2069656 C4.39091086,12.8767014 4.46425148,12.4053243 4.8326214,12.1576261 C5.20099133,11.9084267 5.72270982,11.9744796 5.99773713,12.306245 L11.1665839,16.9944956 L11.1665839,3.75060048 C11.1665839,3.33626902 11.5399543,3 12,3 Z" fill="#FFF" fill-rule="nonzero"/>
</svg>
