<?xml version="1.0" encoding="utf-8"?>
<!-- Generator: Adobe Illustrator 22.1.0, SVG Export Plug-In . SVG Version: 6.00 Build 0)  -->
<svg xmlns:xlink="http://www.w3.org/1999/xlink" version="1.1" id="图层_1" xmlns="http://www.w3.org/2000/svg" x="0px" y="0px"
	 viewBox="0 0 14 14" style="enable-background:new 0 0 14 14;" xml:space="preserve">
<style type="text/css">
	.st0{opacity:0.4;}
	.st1{opacity:0.8;}
</style>
<path class="st0" d="M6.7,13.8l-5.7-2.9c-0.6-0.3-0.6-1.2,0-1.5l5.7-3.1c0.3-0.1,0.6-0.1,0.8,0l5.5,3.1c0.6,0.3,0.6,1.2,0,1.5
	l-5.5,2.9C7.3,13.9,7,13.9,6.7,13.8z"/>
<path class="st1" d="M6.7,8.4L1.1,5.5C0.5,5.1,0.5,4.3,1.1,4l5.7-3.1c0.3-0.1,0.6-0.1,0.8,0L13.1,4c0.6,0.3,0.6,1.2,0,1.5L7.5,8.4
	C7.3,8.5,7,8.5,6.7,8.4z"/>
</svg>
