<svg xmlns="http://www.w3.org/2000/svg" viewBox="0 0 24 24" class="design-iconfont">
  <g fill="#FFF" fill-rule="evenodd">
    <path d="M8.25,3 C8.66421356,3 9,3.33578644 9,3.75 C9,4.16421356 8.66421356,4.5 8.25,4.5 L4.5,4.5 L4.5,8.25 C4.5,8.66421356 4.16421356,9 3.75,9 C3.33578644,9 3,8.66421356 3,8.25 L3,3.75 C3,3.33578644 3.33578644,3 3.75,3 L8.25,3 Z"/>
    <path d="M8.25,15 C8.66421356,15 9,15.3357864 9,15.75 C9,16.1642136 8.66421356,16.5 8.25,16.5 L4.5,16.5 L4.5,20.25 C4.5,20.6642136 4.16421356,21 3.75,21 C3.33578644,21 3,20.6642136 3,20.25 L3,15.75 C3,15.3357864 3.33578644,15 3.75,15 L8.25,15 Z" transform="matrix(1 0 0 -1 0 36)"/>
    <path d="M20.25,3 C20.6642136,3 21,3.33578644 21,3.75 C21,4.16421356 20.6642136,4.5 20.25,4.5 L16.5,4.5 L16.5,8.25 C16.5,8.66421356 16.1642136,9 15.75,9 C15.3357864,9 15,8.66421356 15,8.25 L15,3.75 C15,3.33578644 15.3357864,3 15.75,3 L20.25,3 Z" transform="matrix(-1 0 0 1 36 0)"/>
    <path d="M20.25,15 C20.6642136,15 21,15.3357864 21,15.75 C21,16.1642136 20.6642136,16.5 20.25,16.5 L16.5,16.5 L16.5,20.25 C16.5,20.6642136 16.1642136,21 15.75,21 C15.3357864,21 15,20.6642136 15,20.25 L15,15.75 C15,15.3357864 15.3357864,15 15.75,15 L20.25,15 Z" transform="rotate(180 18 18)"/>
  </g>
</svg>
