<?xml version="1.0" standalone="no"?><!DOCTYPE svg PUBLIC "-//W3C//DTD SVG 1.1//EN" "http://www.w3.org/Graphics/SVG/1.1/DTD/svg11.dtd"><svg t="1637218482442" class="icon" viewBox="0 0 1024 1024" version="1.1" xmlns="http://www.w3.org/2000/svg" p-id="6281" xmlns:xlink="http://www.w3.org/1999/xlink" width="16" height="16"><defs><style type="text/css"></style></defs><path d="M464.042667 801.792A272.938667 272.938667 0 0 0 533.333333 810.666667c153.173333 0 277.333333-126.165333 277.333334-281.813334A284.16 284.16 0 0 0 771.285333 384l-176.042666 264.789333 1.834666-2.986666c-3.328 6.101333-7.210667 11.946667-11.605333 17.493333a115.498667 115.498667 0 0 1-97.194667 44.074667c0.426667 4.053333 0.682667 8.192 0.682667 12.458666v0.042667c0 30.378667-9.173333 58.581333-24.917333 81.92z"  p-id="6282"></path><path d="M562.432 612.778667a80.938667 80.938667 0 0 1-7.765333 11.605333c-26.325333 32.853333-72.832 38.912-103.850667 13.525333-31.018667-25.429333-34.816-72.661333-8.533333-105.557333 3.029333-3.669333 6.229333-7.04 9.685333-10.069333l280.576-294.357334c13.141333-16.426667 36.394667-19.498667 51.882667-6.784 15.488 12.714667 17.450667 36.352 4.266666 52.778667l-226.261333 338.858667zM449.322667 705.92C449.322667 763.733333 402.944 810.666667 345.770667 810.666667c-38.4 0-71.850667-21.12-89.770667-52.522667a52.096 52.096 0 0 0 55.296-52.266667c0-38.570667 30.890667-69.802667 69.034667-69.802666s68.992 31.274667 68.992 69.845333z" p-id="6283"></path><path d="M528.256 256C377.898667 256 256 375.296 256 522.453333c0 45.141333 11.477333 87.68 31.701333 124.928a107.178667 107.178667 0 0 1 96.042667-48.64c-3.712-29.013333 4.48-59.733333 24.96-84.522666 4.309333-5.205333 9.002667-9.984 11.648-12.032L640 279.424A275.797333 275.797333 0 0 0 528.256 256zM341.333333 512a42.666667 42.666667 0 1 1 0-85.333333 42.666667 42.666667 0 0 1 0 85.333333z m85.333334-85.333333a42.666667 42.666667 0 1 1 0-85.333334 42.666667 42.666667 0 0 1 0 85.333334z"  p-id="6284"></path></svg>