<?xml version="1.0" standalone="no"?><!DOCTYPE svg PUBLIC "-//W3C//DTD SVG 1.1//EN" "http://www.w3.org/Graphics/SVG/1.1/DTD/svg11.dtd"><svg t="1637218190255" class="icon" viewBox="0 0 1024 1024" version="1.1" xmlns="http://www.w3.org/2000/svg" p-id="5278" xmlns:xlink="http://www.w3.org/1999/xlink" width="16" height="16"><defs><style type="text/css"></style></defs><path d="M344.106667 214.144c5.674667-2.432 12.288 0.981333 15.018666 6.570667 9.898667 17.28 28.117333 27.989333 47.872 28.074666 19.754667-0.128 37.973333-10.794667 47.872-28.074666a11.093333 11.093333 0 0 1 13.354667-5.077334c24.021333 8.96 46.122667 22.528 65.109333 39.893334 3.242667 4.522667 9.6 8.746667 6.357334 13.269333-8.746667 17.706667-15.104 40.405333-6.357334 58.069333 9.258667 17.578667 27.050667 28.928 46.762667 29.781334 5.248 0.426667 12.373333 4.309333 13.354667 9.557333h-2.773334l2.773334-0.554667a202.965333 202.965333 0 0 1 0 79.232c-0.938667 5.333333-9.130667 9.472-14.464 10.112-19.712 0.853333-37.504 12.202667-46.762667 29.781334-9.002667 17.621333-1.536 39.68 7.466667 57.301333 3.242667 4.522667-4.224 9.514667-7.466667 14.037333a193.066667 193.066667 0 0 1-65.109333 40.618667c-4.949333 1.877333-10.538667-0.725333-13.354667-5.248a55.509333 55.509333 0 0 0-47.872-28.074667c-19.754667 0.128-37.973333 10.794667-47.872 28.074667-3.157333 4.437333-8.789333 6.997333-13.909333 5.248a192.213333 192.213333 0 0 1-65.109334-40.618667c-3.072-4.565333-11.093333-9.472-8.021333-14.037333 8.746667-17.706667 16.768-39.637333 8.021333-57.301333a55.637333 55.637333 0 0 0-47.317333-29.781334c-5.333333-0.64-13.525333-4.778667-14.464-10.112a202.965333 202.965333 0 0 1 0-79.232c0.981333-5.248 9.216-9.173333 14.464-9.557333 19.925333-0.682667 37.973333-12.032 47.317333-29.781333 8.490667-17.749333 0.469333-39.765333-8.021333-57.514667-3.072-4.608 4.949333-9.258667 8.021333-13.824a202.112 202.112 0 0 1 65.109334-40.832z m84.48 131.882667a63.146667 63.146667 0 0 0-69.589334 14.933333 64.170667 64.170667 0 0 0-11.989333 70.570667c10.752 23.765333 34.773333 38.570667 60.714667 37.333333V469.333333c16.426667-0.341333 32.085333-7.253333 43.434666-19.242666s17.450667-28.032 17.024-44.586667a63.872 63.872 0 0 0-39.594666-59.477333z"  p-id="5279"></path><path d="M641.834667 555.178667c3.797333-1.621333 8.192 0.64 10.026666 4.352 6.570667 11.52 18.730667 18.645333 31.914667 18.730666a37.12 37.12 0 0 0 31.914667-18.730666 7.381333 7.381333 0 0 1 8.917333-3.370667c16.042667 5.973333 30.762667 15.018667 43.392 26.581333 2.176 3.029333 6.4 5.845333 4.224 8.832-5.845333 11.776-10.069333 26.922667-4.224 38.741334a37.034667 37.034667 0 0 0 31.146667 19.84c3.498667 0.256 8.234667 2.901333 8.917333 6.357333h-1.834667l1.834667-0.384c3.456 17.450667 3.456 35.370667 0 52.821333-0.64 3.584-6.101333 6.314667-9.642667 6.741334a36.949333 36.949333 0 0 0-31.146666 19.84c-6.016 11.733333-1.024 26.453333 4.992 38.229333 2.176 3.029333-2.816 6.357333-4.992 9.344-12.544 11.690667-27.306667 21.248-43.392 27.093333-3.285333 1.28-7.04-0.469333-8.917334-3.498666a37.034667 37.034667 0 0 0-31.914666-18.730667 37.12 37.12 0 0 0-31.914667 18.730667c-2.090667 2.944-5.888 4.650667-9.258667 3.498666a128.256 128.256 0 0 1-43.392-27.093333c-2.048-3.072-7.424-6.314667-5.333333-9.344 5.845333-11.776 11.178667-26.410667 5.333333-38.229333a37.034667 37.034667 0 0 0-31.530666-19.84c-3.541333-0.426667-9.002667-3.157333-9.642667-6.741334a135.850667 135.850667 0 0 1 0-52.821333c0.64-3.498667 6.144-6.101333 9.642667-6.357333a37.034667 37.034667 0 0 0 31.530666-19.84c5.674667-11.818667 0.298667-26.496-5.333333-38.357334-2.048-3.072 3.285333-6.186667 5.333333-9.216 12.629333-11.52 27.349333-21.162667 43.349334-27.178666z m56.618666 87.936a41.514667 41.514667 0 0 0-46.08 9.984 43.008 43.008 0 0 0-7.936 47.104c7.125333 15.872 23.04 25.770667 40.234667 24.917333v0.298667a40.661333 40.661333 0 0 0 28.757333-12.842667 41.813333 41.813333 0 0 0 11.264-29.738667 42.709333 42.709333 0 0 0-26.24-39.722666z" p-id="5280"></path><path d="M256 682.666667h256v42.666666H256zM256 768h256v42.666667H256z"  p-id="5281"></path></svg>