<?xml version="1.0" standalone="no"?><!DOCTYPE svg PUBLIC "-//W3C//DTD SVG 1.1//EN" "http://www.w3.org/Graphics/SVG/1.1/DTD/svg11.dtd"><svg t="1637218241823" class="icon" viewBox="0 0 1024 1024" version="1.1" xmlns="http://www.w3.org/2000/svg" p-id="5422" xmlns:xlink="http://www.w3.org/1999/xlink" width="16" height="16"><defs><style type="text/css"></style></defs><path d="M554.666667 682.666667h-42.666667v-128h42.666667v-42.666667h-42.666667v-85.333333h85.333333a42.666667 42.666667 0 0 0 42.666667-42.666667V256a42.666667 42.666667 0 0 0-42.666667-42.666667H384a42.666667 42.666667 0 0 0-42.666667 42.666667v128a42.666667 42.666667 0 0 0 42.666667 42.666667h85.333333v85.333333H234.666667a21.333333 21.333333 0 0 0-21.333334 21.333333V682.666667H149.333333a21.333333 21.333333 0 0 0-21.333333 21.333333v85.333333a21.333333 21.333333 0 0 0 21.333333 21.333334h170.666667a21.333333 21.333333 0 0 0 21.333333-21.333334v-85.333333a21.333333 21.333333 0 0 0-21.333333-21.333333H256v-128h213.333333v128H405.333333a21.333333 21.333333 0 0 0-21.333333 21.333333v85.333333a21.333333 21.333333 0 0 0 21.333333 21.333334H554.666667v-128z"  p-id="5423"></path><path d="M832 554.666667h-213.333333a21.333333 21.333333 0 0 0-21.333334 21.333333v256a21.333333 21.333333 0 0 0 21.333334 21.333333h213.333333a21.333333 21.333333 0 0 0 21.333333-21.333333v-256a21.333333 21.333333 0 0 0-21.333333-21.333333zM768 725.333333h-128v-42.666666h128v42.666666z m42.666667-85.333333h-170.666667v-42.666667h170.666667v42.666667z" p-id="5424"></path></svg>