<?xml version="1.0" standalone="no"?><!DOCTYPE svg PUBLIC "-//W3C//DTD SVG 1.1//EN" "http://www.w3.org/Graphics/SVG/1.1/DTD/svg11.dtd"><svg t="1635755001185" class="icon" viewBox="0 0 1024 1024" version="1.1" xmlns="http://www.w3.org/2000/svg" p-id="4768" xmlns:xlink="http://www.w3.org/1999/xlink" width="16" height="16"><defs><style type="text/css"></style></defs><path d="M606.890667 680.490667h167.168c21.418667 0 38.997333-18.602667 38.997333-41.088V254.890667c0-22.826667-17.194667-41.429333-38.997333-41.429334H254.677333c-21.418667 0-38.997333 18.602667-38.997333 41.088v384.896c0 22.826667 17.578667 41.088 38.997333 41.088h167.509334m93.568-364.202666h40.362666v279.125333h-40.362666V316.330667z m-86.741334 133.461333h40.362667v145.664h-40.362667v-145.664z m-40.917333 145.664H347.733333v-78.976h40.362667v78.976z m250.538667 0h-40.362667V383.061333h40.362667v212.394667z"  p-id="4769"></path><path d="M604.373333 680.490667h-184.746666v89.130666H299.861333v41.088h424.32v-41.088h-119.808v-89.130666z" p-id="4770"></path></svg>