<?xml version="1.0" standalone="no"?><!DOCTYPE svg PUBLIC "-//W3C//DTD SVG 1.1//EN" "http://www.w3.org/Graphics/SVG/1.1/DTD/svg11.dtd"><svg t="1637218346207" class="icon" viewBox="0 0 1024 1024" version="1.1" xmlns="http://www.w3.org/2000/svg" p-id="5851" xmlns:xlink="http://www.w3.org/1999/xlink" width="16" height="16"><defs><style type="text/css"></style></defs><path d="M554.666667 682.666667h-42.666667v-128h42.666667v-42.666667h-42.666667v-85.333333h85.333333a42.666667 42.666667 0 0 0 42.666667-42.666667V256a42.666667 42.666667 0 0 0-42.666667-42.666667H384a42.666667 42.666667 0 0 0-42.666667 42.666667v128a42.666667 42.666667 0 0 0 42.666667 42.666667h85.333333v85.333333H234.666667a21.333333 21.333333 0 0 0-21.333334 21.333333V682.666667H149.333333a21.333333 21.333333 0 0 0-21.333333 21.333333v85.333333a21.333333 21.333333 0 0 0 21.333333 21.333334h170.666667a21.333333 21.333333 0 0 0 21.333333-21.333334v-85.333333a21.333333 21.333333 0 0 0-21.333333-21.333333H256v-128h213.333333v128H405.333333a21.333333 21.333333 0 0 0-21.333333 21.333333v85.333333a21.333333 21.333333 0 0 0 21.333333 21.333334H554.666667v-128z"  p-id="5852"></path><path d="M889.856 816.725333l-60.202667-60.245333c14.762667-20.906667 23.68-46.250667 23.68-73.813333a128 128 0 1 0-128 128c27.690667 0 53.205333-9.002667 74.154667-23.978667l60.202667 60.202667c8.277333 8.277333 21.888 8.277333 30.165333 0s8.277333-21.888 0-30.165334zM725.333333 725.333333a42.666667 42.666667 0 1 1 0-85.333333 42.666667 42.666667 0 0 1 0 85.333333z" p-id="5853"></path></svg>