<?xml version="1.0" standalone="no"?><!\DOCTYPE svg PUBLIC "-//W3C//DTD SVG 1.1//EN" "http://www.w3.org/Graphics/SVG/1.1/DTD/svg11.dtd"><svg t="1637218395328" class="icon" viewBox="0 0 1024 1024" version="1.1" xmlns="http://www.w3.org/2000/svg" p-id="5994" xmlns:xlink="http://www.w3.org/1999/xlink" width="16" height="16"><defs><style type="text/css"></style></defs><path d="M512 512c96.341333-2.346667 172.629333-78.592 170.624-170.666667 1.066667-44.245333-16.298667-87.082667-48.298667-119.082666S558.336 171.690667 512 170.666667c-46.336 1.024-90.325333 19.541333-122.325333 51.584S340.309333 297.088 341.376 341.333333c-2.005333 92.074667 74.282667 168.32 170.624 170.666667z"  p-id="5995"></path><path d="M487.04 554.666667c19.84 0 41.770667 4.650667 41.770667 4.650666s13.44 8.192 16.341333 12.629334c7.978667 17.322667 7.978667 37.504 0 54.826666a52.394667 52.394667 0 0 1-41.941333 28.885334c-6.016 0.512-12.288 4.266667-12.757334 10.624-1.493333 19.029333-1.493333 61.056 0.128 75.733333 0.682667 6.272 6.698667 9.941333 12.629334 10.453333 17.706667 1.536 33.536 12.373333 41.941333 28.885334 8.234667 17.28 16.341333 37.717333 0 54.826666l-16.298667 17.152h-354.986666c-1.877333 0-3.413333-1.834667-3.2-3.797333C189.952 683.349333 324.224 554.666667 487.04 554.666667z"  p-id="5996"></path><path d="M655.402667 554.666667c4.522667-1.92 9.728 0.768 11.946666 5.12 7.850667 13.482667 22.314667 21.845333 38.016 21.930666 15.701333-0.085333 30.165333-8.448 38.016-21.930666a8.96 8.96 0 0 1 10.624-3.968c19.072 6.997333 36.608 17.578667 51.712 31.146666 2.474667 3.541333 7.509333 6.826667 4.949334 10.368-6.954667 13.824-11.989333 31.530667-5.034667 45.354667 7.338667 13.738667 21.461333 22.570667 37.12 23.253333 4.181333 0.341333 9.813333 3.370667 10.581333 7.466667h-2.218666l2.218666-0.469333c4.138667 20.394667 4.138667 41.429333 0 61.824-0.725333 4.181333-7.253333 7.381333-11.477333 7.893333a44.202667 44.202667 0 0 0-37.12 23.253333c-7.168 13.781333-1.237333 31.018667 5.930667 44.757334 2.56 3.541333-3.370667 7.424-5.930667 10.965333a154.026667 154.026667 0 0 1-51.712 31.701333c-3.925333 1.493333-8.362667-0.554667-10.624-4.096a44.245333 44.245333 0 0 0-38.016-21.930666 44.245333 44.245333 0 0 0-38.016 21.930666c-2.517333 3.456-6.997333 5.461333-11.050667 4.096a154.026667 154.026667 0 0 1-51.712-31.701333c-2.346667-3.584-8.704-7.381333-6.272-10.965333 6.954667-13.824 13.312-30.933333 6.357334-44.757334a44.202667 44.202667 0 0 0-37.546667-23.253333c-4.224-0.512-10.752-3.712-11.477333-7.893333a155.477333 155.477333 0 0 1 0-61.824c0.768-4.096 7.296-7.125333 11.477333-7.466667 15.786667-0.512 30.122667-9.386667 37.546667-23.253333 6.741333-13.824 0.384-31.018667-6.357334-44.885334-2.432-3.584 3.925333-7.210667 6.357334-10.794666A161.237333 161.237333 0 0 1 655.402667 554.666667z m72.618666 90.026666a64.128 64.128 0 0 0-70.229333 14.976 63.658667 63.658667 0 0 0-12.074667 70.570667 64 64 0 0 0 61.269334 37.333333V768a62.293333 62.293333 0 0 0 60.970666-63.829333 63.744 63.744 0 0 0-39.936-59.477334z" p-id="5997"></path></svg>
