<?xml version="1.0" standalone="no"?><!DOCTYPE svg PUBLIC "-//W3C//DTD SVG 1.1//EN" "http://www.w3.org/Graphics/SVG/1.1/DTD/svg11.dtd"><svg t="1646030426145" class="icon" viewBox="0 0 1024 1024" version="1.1" xmlns="http://www.w3.org/2000/svg" p-id="6100" xmlns:xlink="http://www.w3.org/1999/xlink" width="200" height="200"><defs><style type="text/css"></style></defs><path d="M740.693333 256H240.64a27.306667 27.306667 0 0 0-27.306667 27.306667v73.386666c0 15.061333 12.245333 27.306667 27.306667 27.306667h500.053333a27.306667 27.306667 0 0 0 27.306667-27.306667V283.306667a27.306667 27.306667 0 0 0-27.306667-27.306667zM298.666667 331.818667C298.666667 337.066667 294.4 341.333333 289.152 341.333333h-23.637333A9.514667 9.514667 0 0 1 256 331.818667v-23.637334C256 302.933333 260.266667 298.666667 265.514667 298.666667h23.68C294.4 298.666667 298.666667 302.933333 298.666667 308.181333v23.637334zM740.693333 426.666667H240.64a27.306667 27.306667 0 0 0-27.306667 27.306666v73.344a27.306667 27.306667 0 0 0 27.306667 27.349334h296.789333a124.032 124.032 0 0 0-10.453333-29.866667c-3.072-4.565333 4.949333-9.258667 8.021333-13.824a202.837333 202.837333 0 0 1 65.109334-40.832c5.674667-2.432 12.288 0.981333 15.018666 6.570667 9.898667 17.28 28.117333 27.989333 47.872 28.074666 19.754667-0.128 37.973333-10.794667 47.872-28.074666a11.008 11.008 0 0 1 13.354667-5.034667 199.68 199.68 0 0 1 43.776 23.808v-41.514667a27.306667 27.306667 0 0 0-27.306667-27.306666zM298.666667 502.485333c0 5.248-4.266667 9.514667-9.514667 9.514667h-23.637333A9.514667 9.514667 0 0 1 256 502.485333v-23.68c0-5.205333 4.266667-9.472 9.514667-9.472h23.68c5.205333 0 9.472 4.266667 9.472 9.514667v23.637333zM473.216 700.842667a202.965333 202.965333 0 0 1 0-79.232c0.981333-5.205333 9.216-9.130667 14.464-9.557334 13.312-0.426667 25.557333-6.016 35.157333-14.762666H240.64a27.392 27.392 0 0 0-27.306667 27.349333v73.344a27.306667 27.306667 0 0 0 27.306667 27.349333h281.770667a55.04 55.04 0 0 0-34.730667-14.378666c-5.333333-0.64-13.525333-4.736-14.464-10.112zM298.666667 673.152c0 5.248-4.266667 9.514667-9.514667 9.514667h-23.637333A9.514667 9.514667 0 0 1 256 673.152v-23.68c0-5.205333 4.266667-9.472 9.514667-9.472h23.68c5.205333 0 9.472 4.266667 9.472 9.514667v23.637333z" p-id="6101"></path><path d="M613.717333 510.848c4.437333-1.877333 9.557333 0.768 11.690667 5.077333 7.68 13.44 21.845333 21.76 37.248 21.845334 15.36-0.085333 29.525333-8.405333 37.248-21.845334a8.576 8.576 0 0 1 10.368-3.925333c18.688 6.997333 35.882667 17.493333 50.645333 31.018667 2.517333 3.498667 7.466667 6.784 4.949334 10.325333-6.784 13.738667-11.733333 31.402667-4.949334 45.184 7.210667 13.696 21.034667 22.485333 36.352 23.168 4.096 0.341333 9.6 3.370667 10.368 7.424h-2.176l2.176-0.426667c4.053333 20.352 4.053333 41.258667 0 61.610667-0.725333 4.181333-7.082667 7.338667-11.264 7.850667a43.221333 43.221333 0 0 0-36.352 23.168c-6.997333 13.696-1.194667 30.890667 5.802667 44.586666 2.517333 3.498667-3.285333 7.381333-5.802667 10.922667-14.634667 13.653333-31.872 24.789333-50.645333 31.616-3.84 1.493333-8.192-0.554667-10.368-4.053333a43.178667 43.178667 0 0 0-37.248-21.845334c-15.36 0.085333-29.525333 8.405333-37.248 21.845334-2.432 3.456-6.826667 5.418667-10.837333 4.053333-18.773333-6.826667-36.010667-17.92-50.645334-31.616-2.389333-3.541333-8.661333-7.338667-6.229333-10.922667 6.784-13.738667 13.056-30.805333 6.229333-44.586666a43.178667 43.178667 0 0 0-36.778666-23.168c-4.138667-0.512-10.538667-3.712-11.264-7.850667a157.610667 157.610667 0 0 1 0-61.610667c0.768-4.053333 7.168-7.125333 11.264-7.424 15.488-0.512 29.525333-9.344 36.778666-23.168 6.613333-13.824 0.341333-30.933333-6.229333-44.757333-2.389333-3.541333 3.84-7.210667 6.229333-10.752 14.805333-13.482667 32-24.746667 50.688-31.744z m71.168 89.685333a62.037333 62.037333 0 0 0-68.778666 14.890667 64.256 64.256 0 0 0-11.818667 70.314667c10.624 23.68 34.389333 38.442667 60.032 37.205333v0.426667c16.256-0.341333 31.701333-7.253333 42.922667-19.157334s17.28-27.904 16.810666-44.416a63.744 63.744 0 0 0-39.168-59.264z" p-id="6102"></path></svg>