<?xml version="1.0" standalone="no"?><!DOCTYPE svg PUBLIC "-//W3C//DTD SVG 1.1//EN"
  "http://www.w3.org/Graphics/SVG/1.1/DTD/svg11.dtd">
<svg t="1637218442590" class="icon" viewBox="0 0 1024 1024" version="1.1" xmlns="http://www.w3.org/2000/svg" p-id="6138"
     xmlns:xlink="http://www.w3.org/1999/xlink" width="16" height="16">
  <defs>
    <style type="text/css"></style>
  </defs>
  <path
    d="M469.333333 469.333333H256a42.666667 42.666667 0 0 1-42.666667-42.666666V256a42.666667 42.666667 0 0 1 42.666667-42.666667h170.666667a42.666667 42.666667 0 0 1 42.666666 42.666667v213.333333zM426.666667 810.666667H256a42.666667 42.666667 0 0 1-42.666667-42.666667v-170.666667a42.666667 42.666667 0 0 1 42.666667-42.666666h213.333333v213.333333a42.666667 42.666667 0 0 1-42.666666 42.666667zM768 810.666667h-170.666667a42.666667 42.666667 0 0 1-42.666666-42.666667v-213.333333h213.333333a42.666667 42.666667 0 0 1 42.666667 42.666666v170.666667a42.666667 42.666667 0 0 1-42.666667 42.666667z"
    p-id="6139"></path>
  <path d="M682.666667 469.333333a128 128 0 1 1 0-256 128 128 0 1 1 0 256z" p-id="6140"></path>
</svg>
