<?xml version="1.0" standalone="no"?><!DOCTYPE svg PUBLIC "-//W3C//DTD SVG 1.1//EN" "http://www.w3.org/Graphics/SVG/1.1/DTD/svg11.dtd"><svg t="1646030432577" class="icon" viewBox="0 0 1024 1024" version="1.1" xmlns="http://www.w3.org/2000/svg" p-id="6363" xmlns:xlink="http://www.w3.org/1999/xlink" width="200" height="200"><defs><style type="text/css"></style></defs><path d="M658.517333 553.6c4.437333-1.877333 9.557333 0.768 11.690667 5.077333 7.68 13.44 21.845333 21.76 37.248 21.845334 15.36-0.085333 29.525333-8.405333 37.248-21.845334a8.576 8.576 0 0 1 10.368-3.925333c18.688 6.997333 35.882667 17.493333 50.645333 31.018667 2.517333 3.498667 7.466667 6.784 4.949334 10.325333-6.784 13.738667-11.733333 31.402667-4.949334 45.184 7.210667 13.696 21.034667 22.485333 36.352 23.168 4.096 0.341333 9.6 3.370667 10.368 7.424h-2.176l2.176-0.426667c4.053333 20.352 4.053333 41.258667 0 61.610667-0.725333 4.181333-7.082667 7.338667-11.264 7.850667a43.221333 43.221333 0 0 0-36.352 23.168c-6.997333 13.696-1.194667 30.890667 5.802667 44.586666 2.517333 3.498667-3.285333 7.381333-5.802667 10.922667-14.634667 13.653333-31.872 24.789333-50.645333 31.616-3.84 1.493333-8.192-0.554667-10.368-4.053333a43.178667 43.178667 0 0 0-37.248-21.845334c-15.36 0.085333-29.525333 8.405333-37.248 21.845334-2.432 3.456-6.826667 5.418667-10.837333 4.053333-18.773333-6.826667-36.010667-17.92-50.645334-31.616-2.389333-3.541333-8.661333-7.338667-6.229333-10.922667 6.784-13.738667 13.056-30.805333 6.229333-44.586666a43.178667 43.178667 0 0 0-36.778666-23.168c-4.138667-0.512-10.538667-3.712-11.264-7.850667a157.610667 157.610667 0 0 1 0-61.610667c0.768-4.053333 7.168-7.125333 11.264-7.424 15.488-0.512 29.525333-9.344 36.778666-23.168 6.613333-13.824 0.341333-30.933333-6.229333-44.757333-2.389333-3.541333 3.84-7.210667 6.229333-10.752 14.805333-13.525333 32-24.789333 50.688-31.744z m71.168 89.685333a62.037333 62.037333 0 0 0-68.778666 14.890667 64.256 64.256 0 0 0-11.818667 70.314667c10.624 23.68 34.389333 38.442667 60.032 37.205333v0.426667c16.256-0.341333 31.701333-7.253333 42.922667-19.157334a62.293333 62.293333 0 0 0 16.810666-44.416 63.701333 63.701333 0 0 0-39.168-59.264z" p-id="6364"></path><path d="M767.914667 170.666667H298.752C275.157333 170.666667 256 189.824 256 213.418667v554.453333C256 791.509333 275.157333 810.666667 298.752 810.666667h283.477333c2.090667-10.026667 1.962667-20.010667-2.474666-28.970667a55.637333 55.637333 0 0 0-47.317334-29.781333c-5.333333-0.64-13.525333-4.778667-14.464-10.112a202.965333 202.965333 0 0 1 0-79.232c0.981333-5.205333 9.216-9.130667 14.464-9.557334 19.925333-0.682667 37.973333-12.032 47.317334-29.781333 8.490667-17.749333 0.469333-39.765333-8.021334-57.514667-3.072-4.565333 4.949333-9.258667 8.021334-13.824a202.837333 202.837333 0 0 1 65.109333-40.832c5.674667-2.432 12.288 0.981333 15.018667 6.570667 9.898667 17.28 28.117333 27.989333 47.872 28.074667 19.754667-0.128 37.973333-10.794667 47.872-28.074667a11.008 11.008 0 0 1 13.354666-5.034667c14.848 5.546667 28.544 13.354667 41.642667 22.229334V213.418667A42.709333 42.709333 0 0 0 767.914667 170.666667zM523.093333 420.010667l40.192 84.352h-38.912l-18.090666-39.893334a326.314667 326.314667 0 0 0-9.685334-23.296c-3.626667 4.693333-7.253333 9.557333-10.88 14.464l-36.522666 48.725334h-39.296l71.338666-88.149334-36.096-78.72-5.077333 28.8H406.186667l-24.32 138.026667h-35.413334l24.32-138.026667h-21.802666l5.034666-28.544 22.058667-1.493333 3.968-22.272c6.4-36.266667 27.690667-56.192 59.946667-56.192 9.770667 0 19.626667 2.005333 27.605333 5.717333l3.882667 1.792-13.141334 28.117334-3.925333-1.962667a34.858667 34.858667 0 0 0-15.274667-3.669333c-12.842667 0-20.693333 9.173333-24.021333 27.946666l-3.584 20.309334h71.210667l16.426666 37.845333c2.432 6.229333 5.077333 12.330667 7.722667 18.432l0.981333 2.304c5.205333-7.125333 10.282667-14.336 15.317334-21.461333l27.264-37.077334h38.912L523.093333 420.010667z" p-id="6365"></path></svg>