<?xml version="1.0" standalone="no"?><!DOCTYPE svg PUBLIC "-//W3C//DTD SVG 1.1//EN" "http://www.w3.org/Graphics/SVG/1.1/DTD/svg11.dtd"><svg t="1646030429547" class="icon" viewBox="0 0 1024 1024" version="1.1" xmlns="http://www.w3.org/2000/svg" p-id="6231" xmlns:xlink="http://www.w3.org/1999/xlink" width="200" height="200"><defs><style type="text/css"></style></defs><path d="M384 170.666667h213.333333v85.333333H384z" p-id="6232"></path><path d="M613.717333 556.074667c4.437333-1.877333 9.557333 0.768 11.690667 5.077333 7.68 13.44 21.845333 21.76 37.248 21.845333 15.36-0.085333 29.525333-8.405333 37.248-21.845333a8.576 8.576 0 0 1 10.368-3.925333c18.688 6.997333 35.882667 17.493333 50.645333 31.018666 2.517333 3.498667 7.466667 6.784 4.949334 10.325334-6.784 13.738667-11.733333 31.402667-4.949334 45.184 7.210667 13.696 21.034667 22.485333 36.352 23.168 4.096 0.341333 9.6 3.370667 10.368 7.424h-2.176l2.176-0.426667c4.053333 20.352 4.053333 41.258667 0 61.610667-0.725333 4.181333-7.082667 7.338667-11.264 7.850666a43.221333 43.221333 0 0 0-36.352 23.168c-6.997333 13.696-1.194667 30.890667 5.802667 44.586667 2.517333 3.498667-3.285333 7.381333-5.802667 10.922667-14.634667 13.653333-31.872 24.789333-50.645333 31.573333-3.84 1.493333-8.192-0.554667-10.368-4.053333a43.178667 43.178667 0 0 0-37.248-21.845334c-15.36 0.085333-29.525333 8.405333-37.248 21.845334-2.432 3.456-6.826667 5.418667-10.837333 4.053333-18.773333-6.826667-36.010667-17.92-50.645334-31.573333-2.389333-3.541333-8.661333-7.338667-6.229333-10.922667 6.784-13.738667 13.056-30.805333 6.229333-44.586667a43.178667 43.178667 0 0 0-36.778666-23.168c-4.138667-0.512-10.538667-3.712-11.264-7.850666a157.610667 157.610667 0 0 1 0-61.610667c0.768-4.053333 7.168-7.125333 11.264-7.424 15.488-0.512 29.525333-9.344 36.778666-23.168 6.613333-13.824 0.341333-30.933333-6.229333-44.757333-2.389333-3.541333 3.84-7.210667 6.229333-10.752 14.805333-13.525333 32-24.789333 50.688-31.744z m71.168 89.685333a62.037333 62.037333 0 0 0-68.778666 14.890667 64.256 64.256 0 0 0-11.818667 70.314666c10.624 23.68 34.389333 38.442667 60.032 37.205334v0.426666c16.256-0.341333 31.701333-7.253333 42.922667-19.157333a62.293333 62.293333 0 0 0 16.810666-44.416 63.701333 63.701333 0 0 0-39.168-59.264z" p-id="6233"></path><path d="M719.914667 213.333333h-80.64v80.298667H341.333333V213.333333H261.418667C234.88 213.333333 213.333333 233.386667 213.333333 258.176v508.458667c0 24.746667 21.546667 44.842667 48.085334 44.842666H537.6c1.877333-9.685333 1.706667-19.370667-2.602667-28.032a55.637333 55.637333 0 0 0-47.317333-29.781333c-5.333333-0.64-13.525333-4.778667-14.464-10.112a202.965333 202.965333 0 0 1 0-79.232c0.981333-5.205333 9.216-9.130667 14.464-9.557333 19.925333-0.682667 37.973333-12.032 47.317333-29.781334 8.490667-17.749333 0.469333-39.765333-8.021333-57.514666-3.072-4.565333 4.949333-9.258667 8.021333-13.824a202.837333 202.837333 0 0 1 65.109334-40.832c5.674667-2.432 12.288 0.981333 15.018666 6.570666 9.898667 17.28 28.117333 27.989333 47.872 28.074667 19.754667-0.128 37.973333-10.794667 47.872-28.074667a11.008 11.008 0 0 1 13.354667-5.034666 199.68 199.68 0 0 1 43.776 23.808V258.176C768 233.386667 746.453333 213.333333 719.914667 213.333333z m-270.506667 298.666667H318.592C307.584 512 298.666667 502.442667 298.666667 490.666667s8.917333-21.333333 19.925333-21.333334h130.858667c10.965333 0 19.882667 9.557333 19.882666 21.333334s-8.917333 21.333333-19.925333 21.333333z m83.925333-85.333333h-213.333333a21.333333 21.333333 0 0 1 0-42.666667h213.333333a21.333333 21.333333 0 0 1 0 42.666667z" p-id="6234"></path></svg>