<?xml version="1.0" standalone="no"?><!DOCTYPE svg PUBLIC "-//W3C//DTD SVG 1.1//EN" "http://www.w3.org/Graphics/SVG/1.1/DTD/svg11.dtd"><svg t="1636707018624" class="icon" viewBox="0 0 1024 1024" version="1.1" xmlns="http://www.w3.org/2000/svg" p-id="5994" xmlns:xlink="http://www.w3.org/1999/xlink" width="16" height="16"><defs><style type="text/css"></style></defs><path d="M426.666667 469.333333H256a42.666667 42.666667 0 0 1-42.666667-42.666666V256a42.666667 42.666667 0 0 1 42.666667-42.666667h170.666667a42.666667 42.666667 0 0 1 42.666666 42.666667v170.666667a42.666667 42.666667 0 0 1-42.666666 42.666666M426.666667 810.666667H256a42.666667 42.666667 0 0 1-42.666667-42.666667v-170.666667a42.666667 42.666667 0 0 1 42.666667-42.666666h170.666667a42.666667 42.666667 0 0 1 42.666666 42.666666v170.666667a42.666667 42.666667 0 0 1-42.666666 42.666667M768 810.666667h-170.666667a42.666667 42.666667 0 0 1-42.666666-42.666667v-170.666667a42.666667 42.666667 0 0 1 42.666666-42.666666h170.666667a42.666667 42.666667 0 0 1 42.666667 42.666666v170.666667a42.666667 42.666667 0 0 1-42.666667 42.666667"  p-id="5995"></path><path d="M656.213333 213.333333a9.813333 9.813333 0 0 1 11.946667 5.12 42.666667 42.666667 0 0 0 74.24 0 9.386667 9.386667 0 0 1 10.666667-5.12 157.866667 157.866667 0 0 1 50.346666 31.146667c2.56 3.413333 7.68 6.826667 5.12 10.24a53.333333 53.333333 0 0 0-5.12 45.226667 42.666667 42.666667 0 0 0 36.693334 23.04 11.946667 11.946667 0 0 1 10.24 7.68 165.12 165.12 0 0 1 0 61.44c0 4.266667-7.253333 7.253333-11.093334 7.68a42.666667 42.666667 0 0 0-36.693333 23.466666A52.053333 52.053333 0 0 0 810.666667 469.333333c2.56 3.413333-3.413333 7.68-5.973334 11.093334a147.626667 147.626667 0 0 1-50.346666 31.573333 8.96 8.96 0 0 1-10.666667-4.266667 42.666667 42.666667 0 0 0-74.24 0 10.24 10.24 0 0 1-11.093333 4.266667 147.626667 147.626667 0 0 1-50.346667-31.573333c-2.56-3.84-8.96-7.253333-6.4-11.093334a52.053333 52.053333 0 0 0 6.4-42.666666 42.666667 42.666667 0 0 0-37.12-23.466667c-3.84 0-10.24-3.413333-11.093333-7.68a165.12 165.12 0 0 1 0-61.44c0-4.266667 7.253333-7.253333 11.093333-7.68a42.666667 42.666667 0 0 0 37.12-23.04 54.613333 54.613333 0 0 0-6.4-42.666667c-2.56-3.413333 3.84-7.253333 6.4-10.666666A160.426667 160.426667 0 0 1 656.213333 213.333333z m71.253334 90.026667a61.866667 61.866667 0 0 0-68.693334 14.933333A63.573333 63.573333 0 0 0 706.986667 426.666667a60.16 60.16 0 0 0 42.666666-19.2 61.866667 61.866667 0 0 0 17.066667-42.666667 64 64 0 0 0-39.253333-61.013333z" p-id="5996"></path></svg>