<?xml version="1.0" standalone="no"?><!DOCTYPE svg PUBLIC "-//W3C//DTD SVG 1.1//EN" "http://www.w3.org/Graphics/SVG/1.1/DTD/svg11.dtd"><svg t="1636707121015" class="icon" viewBox="0 0 1024 1024" version="1.1" xmlns="http://www.w3.org/2000/svg" p-id="6732" xmlns:xlink="http://www.w3.org/1999/xlink" width="16" height="16"><defs><style type="text/css"></style></defs><path d="M573.44 248.746667A183.893333 183.893333 0 0 1 640 384a130.56 130.56 0 0 1-65.28 117.333333c-5.546667 4.266667-14.506667 7.253333-20.053333 10.666667a46.933333 46.933333 0 0 0-18.773334 42.666667 47.36 47.36 0 0 0 18.773334 42.666666 42.666667 42.666667 0 0 1-30.293334 12.8 12.373333 12.373333 0 0 0-10.666666 9.386667A337.92 337.92 0 0 0 512 682.666667H170.666667c0-42.666667-2.56-85.333333 42.666666-85.333334h139.946667a44.8 44.8 0 0 0 49.92-42.666666A46.08 46.08 0 0 0 384 512c-46.506667-29.013333-85.333333-42.666667-85.333333-128a177.92 177.92 0 0 1 134.4-166.826667 170.666667 170.666667 0 0 1 140.373333 31.573334zM512 725.333333a42.666667 42.666667 0 0 1 0 85.333334H213.333333a42.666667 42.666667 0 0 1 0-85.333334z"  p-id="6733"></path><path d="M656.213333 512a9.813333 9.813333 0 0 1 11.946667 5.12 42.666667 42.666667 0 0 0 74.24 0 9.386667 9.386667 0 0 1 10.666667-3.84 157.866667 157.866667 0 0 1 50.346666 31.146667c2.56 3.413333 7.68 6.826667 5.12 10.24a53.333333 53.333333 0 0 0-5.12 45.226666 42.666667 42.666667 0 0 0 36.693334 23.04 11.946667 11.946667 0 0 1 10.24 7.68 165.12 165.12 0 0 1 0 61.44c0 4.266667-7.253333 7.253333-11.093334 7.68a42.666667 42.666667 0 0 0-36.693333 23.466667A52.053333 52.053333 0 0 0 810.666667 768c2.56 3.413333-3.413333 7.68-5.973334 11.093333a147.626667 147.626667 0 0 1-50.346666 31.573334 8.96 8.96 0 0 1-10.666667-4.266667 42.666667 42.666667 0 0 0-74.24 0 10.24 10.24 0 0 1-11.093333 4.266667 147.626667 147.626667 0 0 1-50.346667-31.573334c-2.56-3.84-8.96-7.253333-6.4-11.093333a52.053333 52.053333 0 0 0 6.4-42.666667 42.666667 42.666667 0 0 0-37.12-23.466666c-3.84 0-10.24-3.413333-11.093333-7.68a165.12 165.12 0 0 1 0-61.44c0-4.266667 7.253333-7.253333 11.093333-7.68a42.666667 42.666667 0 0 0 37.12-23.04 54.613333 54.613333 0 0 0-8.533333-47.36c-2.56-3.413333 3.84-7.253333 6.4-10.666667a160.426667 160.426667 0 0 1 50.346666-32z m71.253334 90.026667a61.866667 61.866667 0 0 0-68.693334 14.933333A63.573333 63.573333 0 0 0 706.986667 725.333333a60.16 60.16 0 0 0 42.666666-19.2 61.866667 61.866667 0 0 0 17.066667-42.666666 64 64 0 0 0-39.253333-61.013334z" p-id="6734"></path></svg>