<?xml version="1.0" standalone="no"?><!DOCTYPE svg PUBLIC "-//W3C//DTD SVG 1.1//EN" "http://www.w3.org/Graphics/SVG/1.1/DTD/svg11.dtd"><svg t="1637286100300" class="icon" viewBox="0 0 1024 1024" version="1.1" xmlns="http://www.w3.org/2000/svg" p-id="5000" xmlns:xlink="http://www.w3.org/1999/xlink" width="16" height="16"><defs><style type="text/css"></style></defs><path d="M699.392 811.392L459.776 960H439.04l-239.616-148.608a14.464 14.464 0 0 1-6.848-16.512l143.936-468.736a13.632 13.632 0 0 0-0.448-9.152L267.392 148.544C263.36 138.496 271.808 128 283.968 128h331.328c12.032 0 20.48 10.368 16.64 20.288L564.352 322.24a13.312 13.312 0 0 0-0.384 8.896l142.208 463.68c1.984 6.272-0.768 12.864-6.784 16.576z"  p-id="5001"></path><path d="M821.696 560.32L638.912 360.192l128.704 320 54.08-65.6a40.832 40.832 0 0 0 0-54.272z"  p-id="5002"></path></svg>