<?xml version="1.0" standalone="no"?><!DOCTYPE svg PUBLIC "-//W3C//DTD SVG 1.1//EN" "http://www.w3.org/Graphics/SVG/1.1/DTD/svg11.dtd"><svg t="1637285764372" class="icon" viewBox="0 0 1024 1024" version="1.1" xmlns="http://www.w3.org/2000/svg" p-id="5000" xmlns:xlink="http://www.w3.org/1999/xlink" width="16" height="16"><defs><style type="text/css"></style></defs><path d="M564.565333 330.026667l56.021334-142.72c3.2-8.149333-3.84-16.64-13.781334-16.64H332.202667c-10.069333 0-17.066667 8.618667-13.696 16.853333L375.466667 325.717333a11.093333 11.093333 0 0 1 0.341333 7.509334l-119.296 384.597333c-1.578667 5.077333 0.682667 10.496 5.632 13.568L460.714667 853.333333h17.194666l39.04-23.978666A190.464 190.464 0 0 1 469.333333 704a191.829333 191.829333 0 0 1 150.528-187.221333l-55.594666-179.413334a11.093333 11.093333 0 0 1 0.298666-7.338666z"  p-id="5001"></path><path d="M758.912 501.418667L597.333333 341.333333l76.416 171.904a189.952 189.952 0 0 1 87.808 27.690667 30.08 30.08 0 0 0-2.645333-39.509333z"  p-id="5002"></path><path d="M613.717333 555.306667c4.437333-1.877333 9.557333 0.768 11.690667 5.077333 7.68 13.44 21.845333 21.76 37.248 21.845333 15.36-0.085333 29.525333-8.405333 37.248-21.845333a8.576 8.576 0 0 1 10.368-3.925333c18.688 6.997333 35.882667 17.493333 50.645333 31.018666 2.517333 3.498667 7.466667 6.784 4.949334 10.325334-6.784 13.738667-11.733333 31.402667-4.949334 45.184 7.210667 13.696 21.034667 22.485333 36.352 23.168 4.096 0.341333 9.6 3.370667 10.368 7.424h-2.176l2.176-0.426667c4.053333 20.352 4.053333 41.258667 0 61.610667-0.725333 4.181333-7.082667 7.338667-11.264 7.850666a43.221333 43.221333 0 0 0-36.352 23.168c-6.997333 13.696-1.194667 30.890667 5.802667 44.586667 2.517333 3.498667-3.285333 7.381333-5.802667 10.922667-14.634667 13.653333-31.872 24.789333-50.645333 31.573333-3.84 1.493333-8.192-0.554667-10.368-4.053333a43.178667 43.178667 0 0 0-37.248-21.845334c-15.36 0.085333-29.525333 8.405333-37.248 21.845334-2.432 3.456-6.826667 5.418667-10.837333 4.053333-18.773333-6.826667-36.010667-17.92-50.645334-31.573333-2.389333-3.541333-8.661333-7.338667-6.229333-10.922667 6.784-13.738667 13.056-30.805333 6.229333-44.586667a43.178667 43.178667 0 0 0-36.778666-23.168c-4.138667-0.512-10.538667-3.712-11.264-7.850666a157.610667 157.610667 0 0 1 0-61.610667c0.768-4.053333 7.168-7.125333 11.264-7.424 15.488-0.512 29.525333-9.344 36.778666-23.168 6.613333-13.824 0.341333-30.933333-6.229333-44.757333-2.389333-3.541333 3.84-7.210667 6.229333-10.752 14.805333-13.525333 32-24.789333 50.688-31.744z m71.168 89.642666a62.037333 62.037333 0 0 0-68.778666 14.890667 64.256 64.256 0 0 0-11.818667 70.314667c10.624 23.68 34.389333 38.442667 60.032 37.205333v0.426667c16.256-0.341333 31.701333-7.253333 42.922667-19.157334a62.293333 62.293333 0 0 0 16.810666-44.416 63.786667 63.786667 0 0 0-39.168-59.264z" p-id="5003"></path></svg>