<?xml version="1.0" standalone="no"?><!DOCTYPE svg PUBLIC "-//W3C//DTD SVG 1.1//EN" "http://www.w3.org/Graphics/SVG/1.1/DTD/svg11.dtd"><svg t="1636707207218" class="icon" viewBox="0 0 1024 1024" version="1.1" xmlns="http://www.w3.org/2000/svg" p-id="7317" xmlns:xlink="http://www.w3.org/1999/xlink" width="16" height="16"><defs><style type="text/css"></style></defs><path d="M803.413333 256A49.493333 49.493333 0 0 1 853.333333 308.906667v448.853333A52.053333 52.053333 0 0 1 803.413333 810.666667H263.253333A52.48 52.48 0 0 1 213.333333 757.76V308.906667A52.053333 52.053333 0 0 1 263.253333 256h540.16zM533.333333 384a106.666667 106.666667 0 0 0-106.666666 106.666667v21.333333a42.666667 42.666667 0 0 0-42.666667 42.666667v128a42.666667 42.666667 0 0 0 42.666667 42.666666h213.333333a42.666667 42.666667 0 0 0 42.666667-42.666666v-128a42.666667 42.666667 0 0 0-42.666667-42.666667v-21.333333A106.666667 106.666667 0 0 0 533.333333 384z m0 42.666667a64 64 0 0 1 64 64v21.333333h-128v-27.306667A63.573333 63.573333 0 0 1 533.333333 426.666667z m-256-128a21.333333 21.333333 0 1 0 21.333334 21.333333 21.333333 21.333333 0 0 0-21.333334-21.333333z m85.333334 0a21.333333 21.333333 0 1 0 21.333333 21.333333 21.333333 21.333333 0 0 0-21.333333-21.333333z m85.333333 0a21.333333 21.333333 0 1 0 21.333333 21.333333 21.333333 21.333333 0 0 0-21.333333-21.333333z"  p-id="7318"></path></svg>