<?xml version="1.0" standalone="no"?><!DOCTYPE svg PUBLIC "-//W3C//DTD SVG 1.1//EN" "http://www.w3.org/Graphics/SVG/1.1/DTD/svg11.dtd"><svg t="1636707167192" class="icon" viewBox="0 0 1024 1024" version="1.1" xmlns="http://www.w3.org/2000/svg" p-id="7025" xmlns:xlink="http://www.w3.org/1999/xlink" width="16" height="16"><defs><style type="text/css"></style></defs><path d="M810.666667 301.653333a445.013333 445.013333 0 0 1-31.573334 148.906667 393.386667 393.386667 0 0 1-101.12 149.76c-3.413333 2.986667-8.96 10.24-8.106666 14.506667 0 15.36 6.4 28.16 8.106666 42.666666a87.466667 87.466667 0 0 1-38.4 85.333334c-31.573333 22.613333-116.906667 77.226667-130.56 64a266.24 266.24 0 0 1-20.906666-105.813334c0-6.826667 0-9.813333-3.413334-11.52s-4.266667-2.986667-10.666666-3.84a92.16 92.16 0 0 1-73.386667-33.28 78.933333 78.933333 0 0 1-26.88-70.826666 7.253333 7.253333 0 0 0-2.56-5.12 9.386667 9.386667 0 0 0-5.546667-2.133334 298.666667 298.666667 0 0 1-106.24-15.786666c-12.8-11.946667 14.08-66.986667 23.466667-81.493334l30.293333-46.933333a92.16 92.16 0 0 1 79.786667-42.666667 409.173333 409.173333 0 0 1 48.64 9.813334 42.666667 42.666667 0 0 0 19.2-7.253334 397.226667 397.226667 0 0 1 165.546667-107.093333A477.44 477.44 0 0 1 737.706667 256a200.533333 200.533333 0 0 1 57.6 0c10.666667 0 11.093333 2.133333 12.8 12.373333a186.453333 186.453333 0 0 1 2.56 33.28z m-128 146.346667a64 64 0 1 0-128 0 64 64 0 0 0 128 0z"  p-id="7026"></path><path d="M291.413333 640a32.853333 32.853333 0 0 1 13.226667 5.12c3.84 2.133333 3.413333 3.84 5.546667 9.386667a170.666667 170.666667 0 0 0 76.373333 90.453333 219.733333 219.733333 0 0 0 25.173333 11.52 23.466667 23.466667 0 0 1 14.933334 11.52 18.773333 18.773333 0 0 1-4.266667 22.613333l-52.906667 48.64c-5.546667 5.546667-20.053333 16.64-28.16 13.653334s-3.413333-17.92-4.266666-26.453334 0-10.666667 0-15.786666 0-9.813333-9.386667-7.253334l-57.173333 17.92a20.053333 20.053333 0 0 1-17.066667 0 18.346667 18.346667 0 0 1-8.106667-23.04c5.973333-19.626667 11.946667-39.253333 18.346667-58.88 2.56-8.106667 0-8.533333-6.826667-8.96h-17.066666c-7.253333 0-23.04 3.84-25.6-3.413333s7.253333-22.613333 12.373333-28.16l52.48-52.48a16.213333 16.213333 0 0 1 12.8-4.693333z" p-id="7027"></path></svg>