<?xml version="1.0" standalone="no"?><!DOCTYPE svg PUBLIC "-//W3C//DTD SVG 1.1//EN" "http://www.w3.org/Graphics/SVG/1.1/DTD/svg11.dtd"><svg t="1636706887807" class="icon" viewBox="0 0 1024 1024" version="1.1" xmlns="http://www.w3.org/2000/svg" p-id="5558" xmlns:xlink="http://www.w3.org/1999/xlink" width="16" height="16"><defs><style type="text/css"></style></defs><path d="M533.333333 405.333333m-64 0a64 64 0 1 0 128 0 64 64 0 1 0-128 0Z" p-id="5559"></path><path d="M791.210667 296.021333L537.130667 213.333333h-7.594667L275.328 296.064A22.058667 22.058667 0 0 0 256 317.312v191.317333c0 85.930667 45.994667 166.229333 122.666667 214.186667l128.896 80.554667c15.573333 9.728 35.968 9.728 51.541333 0l128.896-80.554667C764.672 674.858667 810.666667 594.56 810.666667 508.629333V317.44a22.272 22.272 0 0 0-19.456-21.418667zM618.666667 554.666667a21.333333 21.333333 0 0 1 0 42.666666H554.666667v64a21.333333 21.333333 0 0 1-42.666667 0v-151.466666a106.666667 106.666667 0 1 1 42.666667 0V554.666667h64z"  p-id="5560"></path></svg>