<?xml version="1.0" standalone="no"?><!DOCTYPE svg PUBLIC "-//W3C//DTD SVG 1.1//EN" "http://www.w3.org/Graphics/SVG/1.1/DTD/svg11.dtd"><svg class="icon" width="200px" height="200.00px" viewBox="0 0 1024 1024" version="1.1" xmlns="http://www.w3.org/2000/svg"><path d="M426.666667 469.333333H256a42.666667 42.666667 0 0 1-42.666667-42.666666V256a42.666667 42.666667 0 0 1 42.666667-42.666667h170.666667a42.666667 42.666667 0 0 1 42.666666 42.666667v170.666667a42.666667 42.666667 0 0 1-42.666666 42.666666zM426.666667 810.666667H256a42.666667 42.666667 0 0 1-42.666667-42.666667v-170.666667a42.666667 42.666667 0 0 1 42.666667-42.666666h170.666667a42.666667 42.666667 0 0 1 42.666666 42.666666v170.666667a42.666667 42.666667 0 0 1-42.666666 42.666667zM768 810.666667h-170.666667a42.666667 42.666667 0 0 1-42.666666-42.666667v-170.666667a42.666667 42.666667 0 0 1 42.666666-42.666666h170.666667a42.666667 42.666667 0 0 1 42.666667 42.666666v170.666667a42.666667 42.666667 0 0 1-42.666667 42.666667z"  /><path d="M840.832 371.498667l-128 128a42.666667 42.666667 0 0 1-60.330667 0l-128-128a42.624 42.624 0 0 1 0-60.330667l128-128a42.666667 42.666667 0 0 1 60.330667 0l128 128a42.624 42.624 0 0 1 0 60.330667z"  /></svg>
