<?xml version="1.0" standalone="no"?><!DOCTYPE svg PUBLIC "-//W3C//DTD SVG 1.1//EN" "http://www.w3.org/Graphics/SVG/1.1/DTD/svg11.dtd"><svg t="1636707253134" class="icon" viewBox="0 0 1024 1024" version="1.1" xmlns="http://www.w3.org/2000/svg" p-id="7610" xmlns:xlink="http://www.w3.org/1999/xlink" width="16" height="16"><defs><style type="text/css"></style></defs><path d="M469.333333 512a170.666667 170.666667 0 0 0 170.666667-170.666667 163.413333 163.413333 0 0 0-48.213333-119.04A177.92 177.92 0 0 0 469.333333 170.666667a177.92 177.92 0 0 0-122.453333 51.626666A163.413333 163.413333 0 0 0 298.666667 341.333333a170.666667 170.666667 0 0 0 170.666666 170.666667z"  p-id="7611"></path><path d="M447.146667 554.666667H469.333333v298.666666H170.666667c17.92-168.106667 110.933333-298.666667 276.48-298.666666z"  p-id="7612"></path><path d="M725.333333 512a42.666667 42.666667 0 0 1 42.666667 42.666667v256a42.666667 42.666667 0 0 1-85.333333 0v-85.333334h-85.333334v85.333334a42.666667 42.666667 0 0 1-85.333333 0v-256a42.666667 42.666667 0 0 1 85.333333 0v85.333333h85.333334v-85.333333a42.666667 42.666667 0 0 1 42.666666-42.666667z m128 128a42.666667 42.666667 0 0 1 42.666667 42.666667v128a42.666667 42.666667 0 0 1-85.333333 0v-128a42.666667 42.666667 0 0 1 42.666666-42.666667z m0-128a42.666667 42.666667 0 1 1-42.666666 42.666667 42.666667 42.666667 0 0 1 42.666666-42.666667z" p-id="7613"></path></svg>