<?xml version="1.0" encoding="utf-8"?>
<!-- Generator: Adobe Illustrator 22.1.0, SVG Export Plug-In . SVG Version: 6.00 Build 0)  -->
<svg xmlns:xlink="http://www.w3.org/1999/xlink" version="1.1" id="图层_1" xmlns="http://www.w3.org/2000/svg" x="0px" y="0px"
	 viewBox="0 0 16 16" style="enable-background:new 0 0 16 16;" xml:space="preserve">

<path class="st0" d="M15,10.3c0-0.4-0.2-0.7-0.5-0.8l0,0l-6-3.3h0C8.3,6.1,8.1,6,7.9,6C7.7,6,7.5,6.1,7.3,6.2L1.4,9.4l0,0
	c-0.3,0.1-0.6,0.5-0.6,0.9c0,0.3,0.2,0.6,0.4,0.8l0,0l0.1,0c0,0,0,0,0,0l6.1,3.3l0,0c0.2,0.1,0.3,0.1,0.5,0.1c0.2,0,0.4-0.1,0.5-0.2
	l6.1-3.3l0,0C14.8,11,15,10.7,15,10.3z"/>
<path class="st1" d="M15,6.1c0-0.4-0.2-0.7-0.5-0.8l0,0l-6-3.3h0C8.3,1.9,8.1,1.8,7.9,1.8C7.7,1.8,7.5,1.9,7.3,2L1.4,5.2l0,0
	C1.1,5.3,0.8,5.7,0.8,6.1c0,0.3,0.2,0.6,0.4,0.8l0,0l0.1,0c0,0,0,0,0,0l6.1,3.3l0,0c0.2,0.1,0.3,0.1,0.5,0.1c0.2,0,0.4-0.1,0.5-0.2
	l6.1-3.3l0,0C14.8,6.7,15,6.4,15,6.1z"/>
</svg>
