<?xml version="1.0" encoding="UTF-8"?>
<svg class="svg-con" width="21px" height="20px" viewBox="0 0 21 20" version="1.1" xmlns="http://www.w3.org/2000/svg" xmlns:xlink="http://www.w3.org/1999/xlink">
    <!-- Generator: Sketch 59.1 (86144) - https://sketch.com -->
    <title></title>
    <desc>Created with Sketch.</desc>
    <g id="页面-1" stroke="none" stroke-width="1" fill="none" fill-rule="evenodd">
        <g id="列表页" transform="translate(-26.000000, -505.000000)">
            <g id="菜单管理" transform="translate(26.000000, 505.000000)">
                <rect id="矩形" class="svg-rect"  x="0" y="0" width="21" height="20" rx="4"></rect>
                <path d="M8,6 C9.10266666,6 10,6.89733333 10,8 L10,10 L8,10 C6.89733333,10 6,9.10266667 6,8 C6,6.89733332 6.89733333,6 8,6 M7.5,5 C6.11928812,5 5,6.11928813 5,7.5 C5,8.88071187 6.11928812,10 7.5,10 L10,10 L10,7.5 C10,6.83695877 9.7366079,6.20107399 9.26776695,5.73223304 C8.798926,5.2633921 8.16304122,5 7.5,5 M11.732233,5.73223304 C11.2633921,6.20107399 11,6.83695877 11,7.5 L11,10 L13.5,10 C14.8807119,10 16,8.88071187 16,7.5 C16,6.11928813 14.8807119,5 13.5,5 C12.8369588,5 12.201074,5.2633921 11.732233,5.73223304 Z M10,11 L7.5,11 C6.11928812,11 5,12.1192881 5,13.5 C5,14.8807119 6.11928812,16 7.5,16 C8.88071187,16 10,14.8807119 10,13.5 L10,11 Z M13.5,11 L11,11 L11,13.5 C11,14.8807119 12.1192881,16 13.5,16 C14.8807119,16 16,14.8807119 16,13.5 C16,12.1192881 14.8807119,11 13.5,11" id="菜单管理-icon" fill="#FFFFFF" fill-rule="nonzero" transform="translate(10.500000, 10.500000) scale(-1, -1) translate(-10.500000, -10.500000) "></path>
            </g>
        </g>
    </g>
</svg>
