<?xml version="1.0" standalone="no"?><!DOCTYPE svg PUBLIC "-//W3C//DTD SVG 1.1//EN" "http://www.w3.org/Graphics/SVG/1.1/DTD/svg11.dtd"><svg t="1672130895259" class="icon" viewBox="0 0 1024 1024" version="1.1" xmlns="http://www.w3.org/2000/svg" p-id="7904" xmlns:xlink="http://www.w3.org/1999/xlink" width="200" height="200"><path d="M170.666667 256m42.666666 0l597.333334 0q42.666667 0 42.666666 42.666667l0 42.666666q0 42.666667-42.666666 42.666667l-597.333334 0q-42.666667 0-42.666666-42.666667l0-42.666666q0-42.666667 42.666666-42.666667Z" fill="#67B4FA" p-id="7905"></path><path d="M810.666667 426.666667v341.333333a42.666667 42.666667 0 0 1-42.666667 42.666667H256a42.666667 42.666667 0 0 1-42.666667-42.666667v-341.333333h597.333334z m-213.333334 85.333333h-170.666666a42.666667 42.666667 0 0 0 0 85.333333h170.666666a42.666667 42.666667 0 0 0 0-85.333333z" fill="#045340" p-id="7906"></path></svg>