<?xml version="1.0" standalone="no"?><!DOCTYPE svg PUBLIC "-//W3C//DTD SVG 1.1//EN" "http://www.w3.org/Graphics/SVG/1.1/DTD/svg11.dtd"><svg t="1672130904032" class="icon" viewBox="0 0 1024 1024" version="1.1" xmlns="http://www.w3.org/2000/svg" p-id="8041" xmlns:xlink="http://www.w3.org/1999/xlink" width="200" height="200"><path d="M768 426.666667a42.666667 42.666667 0 0 1 42.666667 42.666666v298.666667a42.666667 42.666667 0 0 1-42.666667 42.666667H256a42.666667 42.666667 0 0 1-42.666667-42.666667v-298.666667a42.666667 42.666667 0 0 1 42.666667-42.666666h85.333333l32.938667 98.816a42.666667 42.666667 0 0 0 35.541333 28.885333L414.72 554.666667h194.474667a42.666667 42.666667 0 0 0 40.490666-29.184L682.624 426.666667H768z m-106.666667 256h-298.666666a21.333333 21.333333 0 0 0-3.84 42.325333L362.666667 725.333333h298.666666a21.333333 21.333333 0 1 0 0-42.666666z" fill="#045340" p-id="8042"></path><path d="M554.666667 468.522667a42.666667 42.666667 0 0 1-85.333334 0V358.144v0.042667a42.666667 42.666667 0 0 1-60.330666-60.330667l71.936-72.021333a42.666667 42.666667 0 0 1 56.32-3.584l4.010666 3.584 73.472 72.277333a42.325333 42.325333 0 0 1 0.512 59.861333l-0.512 0.469334A42.666667 42.666667 0 0 1 554.666667 358.698667v109.824z" fill="#67B4FA" p-id="8043"></path></svg>