<?xml version="1.0" standalone="no"?><!DOCTYPE svg PUBLIC "-//W3C//DTD SVG 1.1//EN" "http://www.w3.org/Graphics/SVG/1.1/DTD/svg11.dtd"><svg t="1672130909603" class="icon" viewBox="0 0 1024 1024" version="1.1" xmlns="http://www.w3.org/2000/svg" p-id="8178" xmlns:xlink="http://www.w3.org/1999/xlink" width="200" height="200"><path d="M581.333333 175.573333c9.557333 6.528 16 13.056 16 26.368V810.666667a42.666667 42.666667 0 0 1-42.666666 42.666666H256a42.666667 42.666667 0 0 1-42.666667-42.666666v-365.397334c0-36.266667 3.2-46.122667 6.314667-62.378666 3.242667-13.098667 9.685333-26.453333 19.2-36.266667 9.386667-9.898667 19.072-19.626667 47.701333-39.338667l265.941334-131.712a23.68 23.68 0 0 1 28.842666 0zM448 682.666667h-85.333333a21.333333 21.333333 0 1 0 0 42.666666h85.333333a21.333333 21.333333 0 1 0 0-42.666666z m0-128h-85.333333a21.333333 21.333333 0 1 0 0 42.666666h85.333333a21.333333 21.333333 0 1 0 0-42.666666z m0-128h-85.333333a21.333333 21.333333 0 1 0 0 42.666666h85.333333a21.333333 21.333333 0 1 0 0-42.666666z" fill="#045340" p-id="8179"></path><path d="M768 810.666667a42.666667 42.666667 0 0 1-42.666667 42.666666h-42.666666a42.666667 42.666667 0 0 1-42.666667-42.666666V409.429333c0-12.117333 6.442667-21.162667 16-24.234666a31.872 31.872 0 0 1 28.842667 5.973333l38.314666 39.338667c19.328 21.205333 22.528 27.178667 28.842667 36.266666 6.442667 9.301333 9.557333 18.346667 12.8 27.306667 3.2 9.045333 3.2 18.005333 3.2 45.312V810.666667z" fill="#67B4FA" p-id="8180"></path></svg>