<?xml version="1.0" standalone="no"?><!DOCTYPE svg PUBLIC "-//W3C//DTD SVG 1.1//EN" "http://www.w3.org/Graphics/SVG/1.1/DTD/svg11.dtd"><svg t="1672130733079" class="icon" viewBox="0 0 1024 1024" version="1.1" xmlns="http://www.w3.org/2000/svg" p-id="7766" xmlns:xlink="http://www.w3.org/1999/xlink" width="200" height="200"><path d="M341.333333 213.333333h85.333334a85.333333 85.333333 0 0 1 85.333333 85.333334v170.666666H341.333333a85.333333 85.333333 0 0 1-85.333333-85.333333V298.666667a85.333333 85.333333 0 0 1 85.333333-85.333334z" fill="#045340" p-id="7767"></path><path d="M640 213.333333h85.333333a85.333333 85.333333 0 0 1 85.333334 85.333334v85.333333a85.333333 85.333333 0 0 1-85.333334 85.333333h-170.666666V298.666667a85.333333 85.333333 0 0 1 85.333333-85.333334z" fill="#67B4FA" p-id="7768"></path><path d="M341.333333 512h170.666667v170.666667a85.333333 85.333333 0 0 1-85.333333 85.333333H341.333333a85.333333 85.333333 0 0 1-85.333333-85.333333v-85.333334a85.333333 85.333333 0 0 1 85.333333-85.333333zM554.666667 512h170.666666a85.333333 85.333333 0 0 1 85.333334 85.333333v85.333334a85.333333 85.333333 0 0 1-85.333334 85.333333h-85.333333a85.333333 85.333333 0 0 1-85.333333-85.333333v-170.666667z" fill="#045340" p-id="7769"></path></svg>