<?xml version="1.0" encoding="UTF-8"?>
<svg width="16px" height="16px" viewBox="0 0 16 16" version="1.1" xmlns="http://www.w3.org/2000/svg" xmlns:xlink="http://www.w3.org/1999/xlink">
    <title>轻骑兵_模块（资源管理）</title>
    <g id="适配" stroke="none" stroke-width="1" fill="none" fill-rule="evenodd">
        <g id="7.5树结构切图" transform="translate(-212.000000, -45.000000)">
            <g id="轻骑兵_模块（资源管理）" transform="translate(212.000000, 45.000000)">
                <rect id="矩形" opacity="0" x="0" y="0" width="16" height="16"></rect>
                <g id="编组" transform="translate(2.000000, 2.000000)"  fill-rule="nonzero">
                    <path class="svg-rect" d="M0.292,3.473 L5.621,5.916 C5.863,6.027 6.137,6.027 6.38,5.916 L11.709,3.473 C12.098,3.295 12.098,2.705 11.709,2.526 L6.379,0.083 C6.137,-0.028 5.863,-0.028 5.62,0.083 L0.292,2.527 C-0.097,2.705 -0.097,3.295 0.292,3.473 Z" id="路径"></path>
                    <path class="svg-rect" d="M11.332,5.053 L6,7.94 L0.668,5.053 C0.439,4.929 0.163,5.03 0.049,5.277 C-0.065,5.525 0.028,5.826 0.256,5.949 L5.794,8.947 C5.859,8.982 5.929,9 6,9 C6.071,9 6.141,8.982 6.206,8.947 L11.744,5.949 C11.972,5.826 12.065,5.525 11.951,5.277 C11.838,5.03 11.563,4.929 11.332,5.053 Z" id="路径"></path>
                    <path class="svg-rect" d="M11.332,8.053 L6,10.94 L0.668,8.053 C0.439,7.929 0.163,8.031 0.049,8.278 C-0.065,8.525 0.028,8.826 0.256,8.95 L5.794,11.948 C5.859,11.982 5.929,12 6,12 C6.071,12 6.141,11.982 6.206,11.947 L11.744,8.949 C11.972,8.826 12.065,8.525 11.951,8.277 C11.838,8.03 11.563,7.929 11.332,8.053 Z" id="路径"></path>
                </g>
            </g>
        </g>
    </g>
</svg>