<?xml version="1.0" encoding="UTF-8"?>
<svg width="14px" height="16px" viewBox="0 0 14 16" version="1.1" xmlns="http://www.w3.org/2000/svg" xmlns:xlink="http://www.w3.org/1999/xlink">
    <!-- Generator: Sketch 53.2 (72643) - https://sketchapp.com -->
    <desc>Created with Sketch.</desc>
    <g id="Page-1" stroke="none" stroke-width="1" fill-rule="evenodd">
        <g id="切图" transform="translate(-998.000000, -990.000000)" fill-rule="nonzero">
            <g id="user" transform="translate(998.000000, 990.000000)">
                <path d="M13.5899401,14.3449368 L13.5899401,12.8349434 C13.5899401,12.3253207 13.4887705,11.8368378 13.3037963,11.3913898 C13.1120272,10.9285768 12.8319234,10.5133286 12.484625,10.1660302 C12.1373265,9.81873171 11.7213233,9.53787295 11.2592654,9.34685879 C10.8130623,9.16112961 10.3245795,9.05996006 9.81495673,9.05996006 L3.77498336,9.05996006 C3.2653606,9.05996006 2.77687776,9.16112961 2.33142972,9.34610379 C1.86861676,9.53787295 1.45336859,9.81797671 1.10607012,10.1652752 C0.758771655,10.5125737 0.477912893,10.9285768 0.286898735,11.3906348 C0.101169554,11.8368378 -3.55271368e-15,12.3253207 -3.55271368e-15,12.8349434 L-3.55271368e-15,14.3449368 C-3.55271368e-15,14.7616949 0.338238509,15.0999334 0.754996671,15.0999334 C1.17175483,15.0999334 1.50999334,14.7616949 1.50999334,14.3449368 L1.50999334,12.8349434 C1.50999334,12.5269048 1.57114807,12.2347211 1.68137759,11.9689622 C1.79613708,11.6926334 1.96450134,11.4427295 2.17363542,11.2335955 C2.38276949,11.0244614 2.63267339,10.8560971 2.90900217,10.7413376 C3.174761,10.6311081 3.46694471,10.5699534 3.77498336,10.5699534 L9.81495673,10.5699534 C10.1229954,10.5699534 10.4151791,10.6311081 10.6809379,10.7413376 C10.9572667,10.8560971 11.2071706,11.0244614 11.4163047,11.2335955 C11.6254387,11.4427295 11.793803,11.6926334 11.9085625,11.9689622 C12.018792,12.2347211 12.0799467,12.5269048 12.0799467,12.8349434 L12.0799467,14.3449368 C12.0799467,14.7616949 12.4181852,15.0999334 12.8349434,15.0999334 C13.2517016,15.0999334 13.5899401,14.7616949 13.5899401,14.3449368 L13.5899401,14.3449368 Z M10.5699534,3.77498336 C10.5699534,3.2653606 10.4687838,2.77687776 10.2838097,2.33142972 C10.0920405,1.86861676 9.81193674,1.45336859 9.46463827,1.10607012 C9.1173398,0.758771655 8.70133664,0.477912893 8.23927867,0.286898735 C7.79307564,0.101169554 7.30459279,0 6.79497004,0 C6.28534729,0 5.79686444,0.101169554 5.35141641,0.286143738 C4.88860345,0.477912893 4.47335528,0.758016658 4.12530181,1.10531513 C3.77724835,1.4526136 3.49789958,1.86861676 3.30613042,2.33142972 C3.12115624,2.77687776 3.01998669,3.2653606 3.01998669,3.77498336 C3.01998669,4.28460611 3.12115624,4.77308896 3.30613042,5.21853699 C3.49789958,5.68134995 3.77800334,6.09659812 4.12530181,6.44389659 C4.47260028,6.79119506 4.88860345,7.07205382 5.35066141,7.26306798 C5.79686444,7.44879716 6.28534729,7.54996671 6.79497004,7.54996671 C7.30459279,7.54996671 7.79307564,7.44879716 8.23852368,7.26382297 C8.70133664,7.07205382 9.11658481,6.79195005 9.46388327,6.44465159 C9.81118174,6.09735312 10.0920405,5.68134995 10.2830547,5.21929199 C10.4687838,4.77308896 10.5699534,4.28460611 10.5699534,3.77498336 L10.5699534,3.77498336 Z M9.05996006,3.77498336 C9.05996006,4.083022 8.99880532,4.37520571 8.88857581,4.64096454 C8.77381632,4.91729332 8.60545206,5.16719722 8.39631798,5.3763313 C8.1871839,5.58546537 7.93728001,5.75382963 7.66095122,5.86858913 C7.3951924,5.97881864 7.10300868,6.03997337 6.79497004,6.03997337 C6.4869314,6.03997337 6.19474769,5.97881864 5.92898886,5.86858913 C5.65266008,5.75382963 5.40275618,5.58546537 5.1936221,5.3763313 C4.98448802,5.16719722 4.81612377,4.91729332 4.70136427,4.64096454 C4.59113476,4.37520571 4.52998003,4.083022 4.52998003,3.77498336 C4.52998003,3.46694471 4.59113476,3.174761 4.70136427,2.90900217 C4.81612377,2.63267339 4.98448802,2.38276949 5.1936221,2.17363542 C5.40275618,1.96450134 5.65266008,1.79613708 5.92898886,1.68137759 C6.19474769,1.57114807 6.4869314,1.50999334 6.79497004,1.50999334 C7.10300868,1.50999334 7.3951924,1.57114807 7.66095122,1.68137759 C7.93728001,1.79613708 8.1871839,1.96450134 8.39631798,2.17363542 C8.60545206,2.38276949 8.77381632,2.63267339 8.88857581,2.90900217 C8.99880532,3.174761 9.05996006,3.46694471 9.05996006,3.77498336 Z" id="形状"></path>
            </g>
        </g>
    </g>
</svg>
