<!-- Generated by IcoMoon.io -->
<svg version="1.1" xmlns="http://www.w3.org/2000/svg" width="18" height="18" viewBox="0 0 18 18">
<title>users</title>
<path d="M13.5 15.75v-1.5c0-0.506-0.1-0.991-0.284-1.434-0.19-0.46-0.469-0.872-0.814-1.217s-0.758-0.624-1.217-0.814c-0.443-0.184-0.928-0.285-1.435-0.285h-6c-0.506 0-0.991 0.1-1.434 0.284-0.46 0.19-0.872 0.469-1.217 0.814s-0.624 0.758-0.814 1.217c-0.185 0.443-0.285 0.928-0.285 1.435v1.5c0 0.414 0.336 0.75 0.75 0.75s0.75-0.336 0.75-0.75v-1.5c0-0.306 0.061-0.596 0.17-0.86 0.114-0.274 0.281-0.523 0.489-0.73s0.456-0.375 0.73-0.489c0.264-0.109 0.554-0.17 0.86-0.17h6c0.306 0 0.596 0.061 0.86 0.17 0.274 0.114 0.523 0.281 0.73 0.489s0.375 0.456 0.489 0.73c0.109 0.264 0.17 0.554 0.17 0.86v1.5c0 0.414 0.336 0.75 0.75 0.75s0.75-0.336 0.75-0.75zM10.5 5.25c0-0.506-0.1-0.991-0.284-1.434-0.19-0.46-0.469-0.872-0.814-1.217s-0.758-0.624-1.217-0.814c-0.443-0.185-0.928-0.285-1.435-0.285s-0.991 0.1-1.434 0.284c-0.46 0.19-0.872 0.469-1.218 0.814s-0.623 0.758-0.814 1.218c-0.184 0.442-0.284 0.928-0.284 1.434s0.1 0.991 0.284 1.434c0.19 0.46 0.469 0.872 0.814 1.217s0.758 0.624 1.217 0.814c0.443 0.184 0.928 0.285 1.435 0.285s0.991-0.1 1.434-0.284c0.46-0.19 0.872-0.469 1.217-0.814s0.624-0.758 0.814-1.217c0.184-0.443 0.285-0.928 0.285-1.435zM9 5.25c0 0.306-0.061 0.596-0.17 0.86-0.114 0.274-0.281 0.523-0.489 0.73s-0.456 0.375-0.73 0.489c-0.264 0.109-0.554 0.17-0.86 0.17s-0.596-0.061-0.86-0.17c-0.274-0.114-0.523-0.28-0.73-0.489s-0.375-0.456-0.489-0.73c-0.109-0.264-0.17-0.554-0.17-0.86s0.061-0.596 0.17-0.86c0.114-0.274 0.281-0.523 0.489-0.73s0.456-0.375 0.73-0.489c0.264-0.109 0.554-0.17 0.86-0.17s0.596 0.061 0.86 0.17c0.274 0.114 0.523 0.281 0.73 0.489s0.375 0.456 0.489 0.73c0.109 0.264 0.17 0.554 0.17 0.86zM18 15.75v-1.5c0-0.458-0.083-0.899-0.235-1.306-0.158-0.422-0.388-0.806-0.676-1.139-0.489-0.565-1.146-0.983-1.897-1.182-0.4-0.106-0.811 0.133-0.917 0.533s0.133 0.811 0.533 0.917c0.455 0.121 0.852 0.374 1.146 0.714 0.174 0.2 0.311 0.431 0.405 0.682 0.091 0.243 0.141 0.506 0.141 0.782v1.5c0 0.414 0.336 0.75 0.75 0.75s0.75-0.336 0.75-0.75zM11.814 3.074c0.296 0.076 0.563 0.207 0.791 0.378 0.238 0.179 0.437 0.402 0.586 0.655s0.251 0.535 0.293 0.829c0.040 0.283 0.027 0.579-0.049 0.875-0.065 0.255-0.171 0.487-0.307 0.692-0.142 0.211-0.318 0.397-0.521 0.548-0.235 0.176-0.506 0.307-0.797 0.383-0.4 0.105-0.64 0.515-0.535 0.916s0.515 0.64 0.916 0.535c0.478-0.125 0.924-0.341 1.315-0.633 0.336-0.251 0.631-0.559 0.869-0.915 0.23-0.344 0.406-0.732 0.514-1.153 0.126-0.491 0.148-0.986 0.080-1.46-0.071-0.492-0.238-0.962-0.487-1.381s-0.58-0.792-0.977-1.090c-0.383-0.287-0.828-0.505-1.319-0.631-0.401-0.103-0.81 0.139-0.913 0.541s0.139 0.81 0.541 0.913z"></path>
</svg>
