<svg xmlns="http://www.w3.org/2000/svg" viewBox="0 0 80 80" class="design-iconfont">
  <path d="M40,3.33333333 C60.2504408,3.33333333 76.6666667,19.7495592 76.6666667,40 C76.6666667,60.2504408 60.2504408,76.6666667 40,76.6666667 C19.7495592,76.6666667 3.33333333,60.2504408 3.33333333,40 C3.33333333,19.7495592 19.7495592,3.33333333 40,3.33333333 Z M40,6.66666667 C21.5905083,6.66666667 6.66666667,21.5905083 6.66666667,40 C6.66666667,58.4094917 21.5905083,73.3333333 40,73.3333333 C58.4094917,73.3333333 73.3333333,58.4094917 73.3333333,40 C73.3333333,21.5905083 58.4094917,6.66666667 40,6.66666667 Z M31,20.6314686 C31.2267507,20.6314686 31.4467695,20.7085315 31.6239645,20.8500159 L54.3606822,39.0045418 C54.7922666,39.3491478 54.8627765,39.9783745 54.5181705,40.4099589 C54.4717024,40.4681555 54.4188788,40.5209791 54.3606822,40.5674472 L31.6239645,58.7219731 C31.19238,59.0665792 30.5631533,58.9960693 30.2185473,58.5644848 C30.0770629,58.3872899 30,58.1672711 30,57.9405204 L30,21.6314686 C30,21.0791838 30.4477153,20.6314686 31,20.6314686 Z" fill="#FFF" fill-rule="nonzero"/>
</svg>
