<?xml version="1.0" encoding="UTF-8"?>
<svg class="svg-con" width="21px" height="20px" viewBox="0 0 21 20" version="1.1" xmlns="http://www.w3.org/2000/svg" xmlns:xlink="http://www.w3.org/1999/xlink">
    <!-- Generator: Sketch 59.1 (86144) - https://sketch.com -->
    <title></title>
    <desc>Created with Sketch.</desc>
    <g id="页面-1" stroke="none" stroke-width="1" fill="none" fill-rule="evenodd">
        <g id="列表页" transform="translate(-26.000000, -136.000000)">
            <g id="权限管理-icon" transform="translate(26.000000, 136.000000)">
                <rect id="矩形" class="svg-rect"  x="0" y="-1.70530257e-13" width="21" height="20" rx="4"></rect>
                <path d="M15.1002496,5.58957132 C13.2403399,5.44333661 11.8336573,4.57762711 11.1588526,4.15500879 C10.9977051,4.05410684 10.8096998,4 10.61498,4 C10.3799734,4 10.1500026,4.07896674 9.96703317,4.22373911 C8.83396545,5.11577085 6.93712615,5.4989058 5.90645418,5.56763611 C5.39783267,5.60127009 5,6.0019532 5,6.48014071 L5,10.2763938 C5,12.092629 8.10040901,15.9166667 10.5344063,15.9166667 C13.0808711,15.9166667 16,12.0136622 16,10.4167792 L16,6.49915123 C16.0016679,6.01950137 15.613907,5.62905469 15.1002496,5.58957132 Z M10.9691686,9.96052685 L10.9691686,12.3061316 C10.9691686,12.5357201 10.755984,12.7229006 10.4907623,12.7229006 C10.2272191,12.7229006 10.0123559,12.5371825 10.0123559,12.3061316 L10.0123559,9.95467747 C9.35433729,9.77334642 8.8742523,9.24105207 8.8742523,8.60931812 C8.8742523,7.82842476 9.60277288,7.19376611 10.4991553,7.19376611 C11.3955378,7.19376611 12.1257413,7.82842476 12.1257413,8.60931812 C12.1274156,9.24690146 11.6372589,9.7850452 10.9691686,9.96052685 Z" id="形状" fill="#FFFFFF" fill-rule="nonzero"></path>
            </g>
        </g>
    </g>
</svg>
