<svg xmlns="http://www.w3.org/2000/svg" viewBox="0 0 24 24" class="design-iconfont">
  <path d="M21.5,15 C22.0522847,15 22.5,15.4477153 22.5,16 L22.5,20 C22.5,20.5522847 22.0522847,21 21.5,21 L14.5,21 C13.9477153,21 13.5,20.5522847 13.5,20 L13.5,16 C13.5,15.4477153 13.9477153,15 14.5,15 L21.5,15 Z M20.75,4.5 C21.7164983,4.5 22.5,5.17157288 22.5,6 L22.5,11.25 C22.5,11.6642136 22.1642136,12 21.75,12 C21.3357864,12 21,11.6642136 21,11.25 L21,6 L3,6 L3,18 L9.75,18 C10.1642136,18 10.5,18.3357864 10.5,18.75 C10.5,19.1642136 10.1642136,19.5 9.75,19.5 L3.25,19.5 C2.28350169,19.5 1.5,18.8284271 1.5,18 L1.5,6 C1.5,5.17157288 2.28350169,4.5 3.25,4.5 L20.75,4.5 Z" fill="#FFF" fill-rule="nonzero"/>
</svg>
