<svg xmlns="http://www.w3.org/2000/svg" viewBox="0 0 32 32" class="design-iconfont">
  <path d="M16,1.33333333 C24.1001763,1.33333333 30.6666667,7.89982367 30.6666667,16 C30.6666667,24.1001763 24.1001763,30.6666667 16,30.6666667 C7.89982367,30.6666667 1.33333333,24.1001763 1.33333333,16 C1.33333333,7.89982367 7.89982367,1.33333333 16,1.33333333 Z M16,2.66666667 C8.63620334,2.66666667 2.66666667,8.63620334 2.66666667,16 C2.66666667,23.3637967 8.63620334,29.3333333 16,29.3333333 C23.3637967,29.3333333 29.3333333,23.3637967 29.3333333,16 C29.3333333,8.63620334 23.3637967,2.66666667 16,2.66666667 Z M13.6666667,9.33333333 C14.2189514,9.33333333 14.6666667,9.78104858 14.6666667,10.3333333 L14.6666667,21.6666667 C14.6666667,22.2189514 14.2189514,22.6666667 13.6666667,22.6666667 L13,22.6666667 C12.4477153,22.6666667 12,22.2189514 12,21.6666667 L12,10.3333333 C12,9.78104858 12.4477153,9.33333333 13,9.33333333 L13.6666667,9.33333333 Z M19,9.33333333 C19.5522847,9.33333333 20,9.78104858 20,10.3333333 L20,21.6666667 C20,22.2189514 19.5522847,22.6666667 19,22.6666667 L18.3333333,22.6666667 C17.7810486,22.6666667 17.3333333,22.2189514 17.3333333,21.6666667 L17.3333333,10.3333333 C17.3333333,9.78104858 17.7810486,9.33333333 18.3333333,9.33333333 L19,9.33333333 Z" fill="#FFF" fill-rule="nonzero"/>
</svg>
