<svg xmlns="http://www.w3.org/2000/svg" viewBox="0 0 24 24" class="design-iconfont">
  <g fill="#FFF" fill-rule="evenodd">
    <rect y="4.5" width="21" height="1.5" rx=".75"/>
    <rect x="3" y="18" width="21" height="1.5" rx=".75"/>
    <rect x="3" y="1.5" width="1.5" height="18" rx=".75"/>
    <rect x="19.5" y="4.5" width="1.5" height="18" rx=".75"/>
    <path d="M9 7.5A1.5 1.5 0 1 0 9 10.5A1.5 1.5 0 1 0 9 7.5Z"/>
    <path d="M14.8367669,9.38455092 C15.1765597,8.89030596 15.9596736,8.86835392 16.3323169,9.34262806 L20.8322912,15.0698777 C21.1211976,15.4375774 21.0275156,15.9485709 20.6230466,16.2112136 C20.2185776,16.4738562 19.6564858,16.3886906 19.3675793,16.0209909 L15.6485607,11.2876333 L11.8631809,16.7972466 C11.5871066,17.1988098 11.005797,17.2962936 10.5939493,17.0405501 L10.4635943,16.9421524 L7.57380696,14.3148938 L4.60280589,17.6929034 C4.32679984,18.0065472 3.84863826,18.086598 3.47318904,17.9022611 L3.33780566,17.8206814 C2.94967214,17.538402 2.88674327,17.0235285 3.19725008,16.6706793 L6.79722947,12.5797867 C7.13232033,12.199001 7.75710274,12.167543 8.13639984,12.5123592 L10.9361877,15.0577999 L14.8367669,9.38455092 Z" fill-rule="nonzero"/>
  </g>
</svg>
