<!-- Generated by IcoMoon.io -->
<svg version="1.1" xmlns="http://www.w3.org/2000/svg" width="18" height="18" viewBox="0 0 18 18">
<title>edit</title>
<path d="M8.25 2.25h-5.25c-0.304 0-0.595 0.061-0.861 0.171-0.275 0.114-0.523 0.281-0.73 0.488s-0.374 0.455-0.488 0.73c-0.11 0.266-0.171 0.557-0.171 0.861v10.5c0 0.304 0.061 0.595 0.171 0.861 0.114 0.276 0.281 0.523 0.488 0.73s0.455 0.374 0.73 0.488c0.266 0.109 0.557 0.17 0.86 0.17h10.5c0.304 0 0.595-0.061 0.861-0.171 0.276-0.114 0.523-0.281 0.73-0.488s0.374-0.454 0.488-0.73c0.109-0.266 0.17-0.557 0.17-0.86v-5.25c0-0.414-0.336-0.75-0.75-0.75s-0.75 0.336-0.75 0.75v5.25c0 0.103-0.020 0.199-0.056 0.287-0.037 0.091-0.094 0.174-0.163 0.244s-0.152 0.125-0.244 0.163c-0.087 0.036-0.184 0.056-0.287 0.056h-10.5c-0.103 0-0.199-0.020-0.287-0.056-0.091-0.037-0.174-0.094-0.244-0.163s-0.125-0.152-0.163-0.244c-0.036-0.087-0.056-0.184-0.056-0.287v-10.5c0-0.103 0.020-0.199 0.056-0.287 0.037-0.091 0.094-0.174 0.163-0.244s0.152-0.125 0.244-0.163c0.087-0.036 0.184-0.056 0.287-0.056h5.25c0.414 0 0.75-0.336 0.75-0.75s-0.336-0.75-0.75-0.75zM13.345 1.345l-7.125 7.125c-0.091 0.091-0.163 0.21-0.197 0.349l-0.75 3c-0.029 0.112-0.031 0.238 0 0.364 0.1 0.402 0.508 0.647 0.91 0.546l3-0.75c0.125-0.031 0.248-0.097 0.349-0.197l7.125-7.125c0.224-0.224 0.393-0.482 0.508-0.759 0.119-0.287 0.178-0.593 0.178-0.896s-0.059-0.61-0.178-0.896c-0.115-0.277-0.284-0.536-0.508-0.759s-0.482-0.393-0.759-0.508c-0.287-0.119-0.593-0.179-0.897-0.179s-0.61 0.059-0.896 0.178c-0.277 0.115-0.535 0.284-0.759 0.508zM14.405 2.405c0.082-0.082 0.174-0.142 0.272-0.182 0.102-0.043 0.212-0.064 0.323-0.064s0.22 0.022 0.323 0.064c0.098 0.041 0.19 0.101 0.272 0.182s0.142 0.174 0.182 0.272c0.043 0.102 0.064 0.212 0.064 0.323s-0.022 0.221-0.064 0.323c-0.040 0.098-0.101 0.19-0.182 0.272l-6.978 6.978-1.585 0.397 0.397-1.585z"></path>
</svg>
