<?xml version="1.0" encoding="UTF-8"?>
<svg class="svg-con" width="21px" height="20px" viewBox="0 0 21 20" version="1.1" xmlns="http://www.w3.org/2000/svg" xmlns:xlink="http://www.w3.org/1999/xlink">
    <!-- Generator: Sketch 59.1 (86144) - https://sketch.com -->
    <title></title>
    <desc>Created with Sketch.</desc>
    <g id="页面-1" stroke="none" stroke-width="1" fill="none" fill-rule="evenodd">
        <g id="列表页" transform="translate(-26.000000, -639.000000)">
            <g id="服务治理" transform="translate(26.000000, 639.000000)">
                <rect id="矩形" class="svg-rect"  x="0" y="0" width="21" height="20" rx="4"></rect>
                <g id="服务治理-icon" transform="translate(4.000000, 5.000000)" fill="#FFFFFF" fill-rule="nonzero">
                    <path d="M8.85533962,8.77778385 L8.85533962,10.8 L7.24528302,10.8 L7.24528302,7.61111719 C9.25784906,7.3 10.8679245,5.74445052 11.1899245,3.8 L12.8,3.8 C12.5584906,6.05556771 10.9484151,8 8.85533962,8.77778385 Z M4.02515094,8.77778385 C1.85156604,8 0.322,6.05556771 0,3.8 L1.6100566,3.8 C1.93207547,5.74445052 3.54213208,7.3 5.55471698,7.61111719 L5.55471698,10.8 L4.02515094,10.8 L4.02515094,8.77778385 Z M8.17510334,0 C9.45509284,0 10.4150943,0.916679688 10.4150943,2.33333984 C10.4150943,3.5 9.45509284,4.75 8.73509171,5.41667969 C8.25509096,5.91667969 7.45510221,6.41667969 6.41509434,7 C5.37508646,6.41667969 4.57509771,5.91667969 4.09509696,5.41667969 C3.29508946,4.66667969 2.41509434,3.5 2.41509434,2.33333984 C2.41509434,0.916679688 3.37509584,0 4.65508534,0 C5.37508646,0 5.93509359,0.333339844 6.41509434,0.916679688 C6.89509509,0.333339844 7.45510221,0 8.17510334,0 Z" id="形状"></path>
                </g>
            </g>
        </g>
    </g>
</svg>
