<?xml version="1.0" encoding="UTF-8"?>
<svg width="16px" height="15px" viewBox="0 0 16 15" version="1.1" xmlns="http://www.w3.org/2000/svg" xmlns:xlink="http://www.w3.org/1999/xlink">
    <!-- Generator: Sketch 53.2 (72643) - https://sketchapp.com -->
    <desc>Created with Sketch.</desc>
    <g id="Page-1" stroke="none" stroke-width="1" fill-rule="evenodd">
        <g id="切图" transform="translate(-997.000000, -1087.000000)" fill-rule="nonzero">
            <g id="airplay1-copy" transform="translate(997.228600, 1087.139298)">
                <path d="M2.83119612,9.90918642 L2.12339709,9.90918642 C2.02642862,9.90918642 1.93512255,9.89007585 1.85301786,9.8561015 C1.76666638,9.82071154 1.68880849,9.76762662 1.62298318,9.70180131 C1.55715787,9.635976 1.50478074,9.5581181 1.46868299,9.47176662 C1.43470863,9.38966193 1.41559806,9.29835586 1.41559806,9.20138739 L1.41559806,2.12339709 C1.41559806,2.02642862 1.43470863,1.93512255 1.46868299,1.85301786 C1.50407294,1.76666638 1.55715787,1.68880849 1.62298318,1.62298318 C1.68880849,1.55715787 1.76666638,1.50478074 1.85301786,1.46868299 C1.93512255,1.43470863 2.02642862,1.41559806 2.12339709,1.41559806 L13.4481816,1.41559806 C13.54515,1.41559806 13.6364561,1.43470863 13.7185608,1.46868299 C13.8049123,1.50407294 13.8827702,1.55715787 13.9485955,1.62298318 C14.0144208,1.68880849 14.0667979,1.76666638 14.1028957,1.85301786 C14.13687,1.93512255 14.1559806,2.02642862 14.1559806,2.12339709 L14.1559806,9.20138739 C14.1559806,9.29835586 14.13687,9.38966193 14.1028957,9.47176662 C14.0675057,9.5581181 14.0144208,9.635976 13.9485955,9.70180131 C13.8827702,9.76762662 13.8049123,9.82000374 13.7185608,9.8561015 C13.6364561,9.89007585 13.54515,9.90918642 13.4481816,9.90918642 L12.7403825,9.90918642 C12.3496775,9.90918642 12.0325835,10.2262804 12.0325835,10.6169855 C12.0325835,11.0076905 12.3496775,11.3247845 12.7403825,11.3247845 L13.4481816,11.3247845 C13.7348402,11.3247845 14.0094662,11.2674528 14.2607349,11.1634063 C14.5212049,11.0558209 14.7547786,10.8979817 14.9501311,10.7026291 C15.1454836,10.5072766 15.3033228,10.2737029 15.4109083,10.0132329 C15.5142469,9.76267202 15.5715787,9.488046 15.5715787,9.20138739 L15.5715787,2.12339709 C15.5715787,1.83673848 15.5142469,1.56211246 15.4102005,1.3108438 C15.302615,1.05037376 15.1447758,0.816800081 14.9494233,0.621447548 C14.7540708,0.426095016 14.5204971,0.268255832 14.2600271,0.16067038 C14.0094662,0.0573317214 13.7348402,-1.77635684e-15 13.4481816,-1.77635684e-15 L2.12339709,-1.77635684e-15 C1.83673848,-1.77635684e-15 1.56211246,0.0573317214 1.3108438,0.161378179 C1.05108156,0.268963631 0.81750788,0.426802815 0.622155348,0.622155348 C0.426802815,0.81750788 0.268963631,1.05108156 0.161378179,1.3108438 C0.0573317214,1.56211246 0,1.83673848 0,2.12339709 L0,9.20138739 C0,9.488046 0.0573317214,9.76267202 0.161378179,10.0139407 C0.268963631,10.2744107 0.426802815,10.5079844 0.622155348,10.7033369 C0.81750788,10.8986895 1.05108156,11.0565287 1.3115516,11.1641141 C1.56211246,11.2674528 1.83673848,11.3247845 2.12339709,11.3247845 L2.83119612,11.3247845 C3.22190119,11.3247845 3.53899515,11.0076905 3.53899515,10.6169855 C3.53899515,10.2262804 3.22190119,9.90918642 2.83119612,9.90918642 Z M8.32937899,8.74839601 C8.30460602,8.71796065 8.27346286,8.6868175 8.23878071,8.65779774 C7.93867392,8.40723688 7.49205273,8.44828922 7.24219968,8.74839601 L3.70320453,12.9951902 C3.60128147,13.1169316 3.53899515,13.2754786 3.53899515,13.4481816 C3.53899515,13.8388866 3.85608912,14.1559806 4.24679418,14.1559806 L11.3247845,14.1559806 C11.4840393,14.1566884 11.6454174,14.1028957 11.7777759,13.9917712 C12.0778827,13.7412104 12.118935,13.295297 11.8683741,12.9951902 L8.32937899,8.74839601 Z M7.78578933,10.3069695 L9.81363355,12.7403825 L5.75794511,12.7403825 L7.78578933,10.3069695 Z" id="形状"></path>
            </g>
        </g>
    </g>
</svg>
