<?xml version="1.0" encoding="UTF-8"?>
<svg class="svg-con" width="21px" height="20px" viewBox="0 0 21 20" version="1.1" xmlns="http://www.w3.org/2000/svg" xmlns:xlink="http://www.w3.org/1999/xlink">
    <!-- Generator: Sketch 59.1 (86144) - https://sketch.com -->
    <title></title>
    <desc>Created with Sketch.</desc>
    <g id="页面-1" stroke="none" stroke-width="1" fill="none" fill-rule="evenodd">
        <g id="列表页" transform="translate(-26.000000, -549.000000)">
            <g id="系统管理" transform="translate(26.000000, 549.000000)">
                <rect id="矩形" class="svg-rect"  x="0" y="0" width="21" height="20" rx="4"></rect>
                <path d="M8.69984802,4 C8.74290694,4 8.78573065,4.00631315 8.82686365,4.0187441 L8.83914096,4.02261518 L8.84175573,4.02351111 C8.84338347,4.02379848 8.84501121,4.02410276 8.84660432,4.0250832 L8.85921064,4.0298333 L8.86598134,4.03240275 L8.87157453,4.0345834 L8.88577396,4.0409056 C8.97415805,4.08177309 9.04551991,4.15098319 9.08795999,4.23699512 L9.09350123,4.24463585 L9.09350123,4.24869288 C9.34174882,4.74821404 9.86027043,5.0655917 10.4289056,5.06618335 C11.0000864,5.0652029 11.5201318,4.74473176 11.7665958,4.24172832 C11.8063836,4.1602927 11.8716326,4.09329364 11.9529374,4.0503889 L11.9620631,4.0456388 L11.9630155,4.0456388 L11.9721412,4.04119297 L11.9834315,4.03612169 L11.9925399,4.03236894 L11.9993279,4.02979949 L12.0100121,4.02533677 L12.0116399,4.0250494 L12.0152763,4.02405204 C12.1000929,3.99454532 12.1923226,3.99212411 12.2786411,4.0171382 L12.2815849,4.01781437 L12.2841997,4.01871029 C13.2522174,4.30381099 14.1382501,4.80656039 14.8711279,5.48657562 L14.8953709,5.48657562 L14.8953709,5.50995422 C14.9018645,5.51602286 14.9070421,5.52204078 14.9129297,5.52829536 L14.9171549,5.53343425 C14.9248087,5.54225828 14.9319257,5.55152182 14.9384887,5.56125868 L14.9404974,5.56283078 L14.9608787,5.59474604 L14.9628008,5.59890449 C14.9686018,5.60930062 14.9738487,5.61978126 14.9790436,5.63080285 L14.9812601,5.63553604 C14.9858143,5.64601669 14.9897105,5.656734 14.9939357,5.66841485 L14.9955634,5.67287757 C14.999425,5.68553887 15.0026632,5.69693235 15.0049143,5.70832583 C15.0059186,5.7102022 15.0059186,5.7117912 15.006213,5.71307592 C15.0091568,5.72512867 15.0113213,5.73741807 15.0127066,5.74970748 L15.0130183,5.75288548 C15.0194201,5.80394175 15.0156749,5.85572414 15.0019878,5.9053958 L15.0019878,5.90793144 L14.9997367,5.91300272 C14.9964881,5.92478388 14.992592,5.93638573 14.9880654,5.9477579 L14.9874594,5.94904262 L14.9861433,5.95061472 L14.9788089,5.96733143 L14.9788089,5.96733143 L14.9676841,5.98986643 C14.9623897,5.9999019 14.9566645,6.00971509 14.9505235,6.01927986 L14.9468871,6.02529778 L14.9452594,6.02749533 C14.7888873,6.26053141 14.7057719,6.53313632 14.7061548,6.8117182 C14.7061548,7.60351418 15.3695106,8.2482092 16.1851466,8.2482092 L16.218314,8.24797254 L16.218314,8.24797254 L16.2489921,8.24722875 L16.266828,8.24694138 C16.2823608,8.24694138 16.2972702,8.24792183 16.3121969,8.24949392 L16.3138246,8.24949392 C16.3214785,8.24995034 16.3290284,8.25101531 16.3365264,8.25267193 L16.3514531,8.25515686 L16.3578602,8.25644158 L16.3653582,8.25831795 L16.3724579,8.25989005 L16.3786398,8.26117478 L16.3899994,8.26433587 L16.4223983,8.2751377 L16.4379138,8.28139228 L16.4405459,8.28267701 C16.4459486,8.28479004 16.4512128,8.28712283 16.4563904,8.28960776 L16.4622433,8.29246458 L16.4690162,8.2956785 L16.4787978,8.30100123 L16.4937245,8.30928433 L16.4992138,8.31276661 L16.5108677,8.31998473 C16.5142098,8.32196253 16.5172748,8.3242277 16.5202878,8.32662811 L16.5267814,8.33107393 L16.5400631,8.34087841 L16.5433186,8.34343095 C16.5743842,8.36870283 16.6022809,8.39811626 16.624896,8.43099507 L16.6262121,8.43258407 C16.6281169,8.43545779 16.6297619,8.43861889 16.6320823,8.44147571 L16.637866,8.45029974 L16.645364,8.46297794 L16.6486022,8.46931704 L16.6504918,8.47281411 L16.6595807,8.49049809 L16.6602734,8.49179972 L16.6605851,8.49240828 L16.6673904,8.50823067 L16.6683948,8.50981967 L16.6683948,8.51042823 C16.676202,8.52967306 16.682585,8.5494398 16.6874947,8.56957627 C16.9135869,9.50971187 16.9136936,10.4881761 16.6878064,11.4283587 C16.6828602,11.448844 16.6763779,11.4689466 16.6684121,11.4885041 L16.6673904,11.4916652 L16.6598924,11.5072002 L16.6598924,11.508113 L16.6586803,11.5106487 C16.6563599,11.5151283 16.6538317,11.518881 16.651875,11.5233269 L16.6480134,11.5300548 C16.6469225,11.5326918 16.6455198,11.5352951 16.6438575,11.5376448 C16.6411393,11.5425952 16.6396194,11.5452467 16.6379699,11.5478212 L16.6331213,11.554735 L16.626316,11.565858 L16.6237532,11.5686134 C16.6211211,11.5724845 16.6185582,11.5756118 16.6165669,11.5790941 L16.6156491,11.5809704 L16.6117702,11.5854332 C16.599999,11.6007688 16.5872277,11.6153479 16.5735357,11.62908 L16.5589206,11.6424005 C16.5523794,11.6483401 16.5480547,11.6520525 16.5434052,11.6553492 L16.5375349,11.6597105 L16.5362362,11.6609952 C16.5333158,11.66334 16.5302942,11.6655622 16.5271797,11.6676555 C16.5236299,11.6705292 16.5199242,11.6731494 16.5161319,11.6755498 L16.5148158,11.6765472 C16.5134913,11.6777115 16.5119826,11.6786591 16.5103482,11.6793533 C16.5063828,11.682227 16.5022095,11.6853712 16.4970492,11.6879237 L16.4970492,11.6882618 L16.4941054,11.6898677 C16.4656774,11.7071505 16.4352322,11.7210489 16.4034196,11.7312663 L16.3997831,11.7328553 C16.3963416,11.7334447 16.3929786,11.7344087 16.3897569,11.735729 L16.3800771,11.738552 L16.3706743,11.7407496 L16.3680422,11.7414258 L16.358397,11.7436233 L16.358397,11.7436233 L16.349583,11.7452123 L16.3363013,11.748086 L16.3324397,11.7486608 L16.33,11.74 L16.3311237,11.7486608 L16.3145692,11.7508921 L16.3120237,11.7508921 L16.2925428,11.7528192 L16.2925428,11.7528192 L16.2912268,11.7528192 L16.2702393,11.7534447 L16.2482129,11.7531066 C16.2274655,11.7521509 16.2066961,11.7517225 16.1859259,11.7518219 C15.3699782,11.7518219 14.7069341,12.3965507 14.7069341,13.1886848 C14.7069341,13.467994 14.7892734,13.7384623 14.9454152,13.9719441 L14.9474239,13.9741416 C14.9477356,13.9754602 14.9490516,13.9773366 14.9502984,13.9792129 L14.9515972,13.9813767 C14.9577964,13.9909107 14.9634242,14.0006983 14.968446,14.0108408 L14.9719785,14.0175349 C14.9775544,14.0282353 14.9824203,14.038716 14.9865762,14.0491121 L14.9882213,14.0535748 C14.9927755,14.0652726 14.9963254,14.0769703 15.0001869,14.0886512 L15.0005159,14.0909163 C15.0043775,14.1034255 15.0073213,14.1162727 15.0093126,14.1291538 L15.0099187,14.1329065 C15.0144041,14.1580762 15.0162491,14.1836267 15.0154253,14.2091617 L15.0154253,14.2123397 C15.0151136,14.2250179 15.0141959,14.2366988 15.0128625,14.247788 L15.0125508,14.2525381 C15.0102304,14.2658248 15.0086027,14.2772183 15.0060572,14.2876144 L15.0047411,14.2933619 C15.0022649,14.3044342 14.9994077,14.3153374 14.996031,14.3262238 L14.9940915,14.3319712 L14.981745,14.3648331 L14.9788012,14.3711722 C14.9733119,14.3822614 14.9684633,14.3923702 14.9629567,14.4021577 L14.9600129,14.4074995 C14.9537779,14.4181478 14.9471884,14.4285946 14.9402549,14.4388231 L14.9390255,14.4382315 C14.9298997,14.4509097 14.9217784,14.4606972 14.9136743,14.4704848 L14.9120465,14.4723781 L14.886782,14.4986304 L14.886782,14.4986304 L14.8845308,14.5015379 L14.8809983,14.5043779 C14.146093,15.189368 13.2559823,15.6954053 12.2830221,15.9813546 C12.2424956,15.9935631 12.2003406,15.9998464 12.1579286,16 L12.1524393,15.9996788 L12.1319541,15.9993745 L12.1131658,15.9978193 L12.1093042,15.9971432 C12.0914083,15.995301 12.0736516,15.9923423 12.056143,15.9882853 L12.0555369,15.9882853 L12.0496493,15.9866963 L12.0292853,15.9810503 L12.0159863,15.9769088 L12.0091809,15.97439 L11.9994491,15.9705697 C11.9962696,15.969726 11.993227,15.9684514 11.99041,15.9667831 L11.9845397,15.9645179 L11.9722451,15.9591762 L11.9670848,15.9566405 C11.8787603,15.9148995 11.8077338,15.8449012 11.7658166,15.7582859 C11.5194392,15.2546231 10.9988569,14.9337125 10.4270874,14.9329349 C9.85855611,14.9337801 9.34036351,15.2512592 9.09235835,15.7506789 L9.09235835,15.7544317 L9.08688637,15.7623767 C9.04397382,15.8470424 8.97355578,15.9154576 8.88662247,15.9569448 L8.86421507,15.9673917 L8.85680366,15.9699273 L8.84088991,15.9331943 L8.85481228,15.9705528 L8.84445709,15.9746774 L8.84445709,15.9746774 L8.83545257,15.9774835 L8.83545257,15.9781597 L8.8188808,15.982876 C8.7800384,15.9940693 8.73974133,15.9997175 8.69924194,15.999645 L8.68239311,15.9993407 C8.64612378,15.9980993 8.61017632,15.9922345 8.57546448,15.9818955 L8.56479759,15.978464 C7.60506385,15.6947516 6.72614313,15.1968765 5.99759265,14.5242404 L5.98947127,14.5163292 C5.97973523,14.5073523 5.97054203,14.4978304 5.96193823,14.4878117 L5.9606395,14.4866115 C5.95176077,14.4764863 5.94342617,14.4659181 5.93566929,14.4549498 L5.93312378,14.4514844 L5.9228595,14.4365495 L5.9228595,14.4365495 L5.91075102,14.4160362 L5.89163374,14.3780861 C5.88740289,14.3679741 5.88351042,14.3577303 5.8799625,14.347371 L5.87734773,14.3398655 C5.87400347,14.3293052 5.87109201,14.3186188 5.86862027,14.3078319 L5.86728691,14.3015097 C5.86481975,14.289998 5.86276363,14.2784059 5.86112228,14.2667545 L5.86048157,14.2613114 C5.85909596,14.249442 5.85825239,14.2375184 5.85795338,14.2255757 C5.85757242,14.2098041 5.85795338,14.1974809 5.85855946,14.1851407 L5.85855946,14.1831798 C5.860724,14.1570966 5.86520895,14.1311485 5.87184112,14.1057414 L5.87246451,14.1028677 C5.87594289,14.0909953 5.87992915,14.0792704 5.88441281,14.0677237 L5.8851401,14.0655261 C5.88975476,14.0537116 5.89493223,14.0421139 5.90065557,14.0307709 L5.90358204,14.0247192 L5.92103695,13.994038 L5.92103695,13.994038 L5.92496776,13.9876989 L5.92590285,13.9861099 L5.92915833,13.9813429 C6.09054697,13.745765 6.17544917,13.4708339 6.17544917,13.1864027 C6.17544917,12.3943363 5.51207606,11.7495905 4.69676905,11.7495905 L4.65274432,11.7502075 L4.65274432,11.7502075 L4.61223049,11.7517881 L4.60102223,11.7522455 L4.60102223,11.7522455 L4.5687837,11.7520923 C4.56217945,11.7517153 4.55558569,11.7511798 4.5490084,11.7504864 C4.54800405,11.7504864 4.54708628,11.7504864 4.54639362,11.7498948 L4.52864434,11.7480353 L4.531,11.716 L4.52699928,11.7480353 L4.52305115,11.7470549 C4.51801212,11.7466392 4.51302196,11.7457792 4.50814175,11.7444854 L4.50204638,11.7432852 C4.49755219,11.742636 4.49310881,11.7416871 4.4887474,11.7404453 L4.47932729,11.737842 C4.47520754,11.7368638 4.47110849,11.7358042 4.46703267,11.734664 L4.45925761,11.732196 L4.45305835,11.730607 L4.45115355,11.7296097 L4.43854722,11.7252146 C4.43754287,11.7274121 4.43530906,11.7264317 4.43300598,11.7255357 L4.42039966,11.720194 L4.41035616,11.7160355 C4.40691062,11.7147671 4.40355537,11.7132762 4.40031266,11.7115728 L4.38245948,11.7024614 L4.37537708,11.698303 L4.3649353,11.692285 L4.35852824,11.6888028 C4.35496107,11.6865714 4.35142853,11.6842724 4.34779209,11.6821763 L4.33999972,11.6765134 L4.33224198,11.671104 L4.32252749,11.6638352 L4.31539315,11.6581215 L4.30599035,11.6505484 L4.30599035,11.6505484 L4.30018937,11.6455109 L4.29076926,11.6368897 L4.28488169,11.631548 L4.27523647,11.6217604 L4.27099395,11.6170103 L4.26126215,11.6065973 L4.288,11.581 L4.25996342,11.6046871 C4.2588588,11.6037632 4.25789134,11.6026935 4.2570889,11.6015091 L4.25292431,11.5968647 L4.24472501,11.5862953 C4.24184307,11.5828564 4.23913836,11.5792795 4.23662094,11.575578 L4.23182431,11.5689515 L4.22494971,11.559147 L4.22432632,11.557203 C4.22288863,11.5549387 4.2213637,11.5527283 4.21975479,11.5505765 L4.21490621,11.5426992 L4.20974593,11.5338075 L4.20559,11.5258625 L4.19970243,11.5141817 L4.19821532,11.5110507 L4.19094034,11.4955701 L4.19064596,11.4942853 L4.18832557,11.4888591 L4.18252458,11.4734086 L4.18120854,11.4699263 L4.17570193,11.4528023 L4.17469758,11.4496243 L4.17052433,11.4334976 C4.17028397,11.4319956 4.16984751,11.4305299 4.1692256,11.4291363 L4.16726885,11.4205996 C3.94413265,10.4855253 3.94424522,9.51288445 4.16759786,8.57785936 L4.17019532,8.56683777 L4.17507854,8.54973065 L4.17597899,8.54624837 L4.17848986,8.53803079 L4.18250726,8.5269437 C4.18441207,8.52119625 4.18659393,8.51544879 4.18898359,8.50988729 L4.19059401,8.50642191 C4.19249881,8.50129992 4.19474994,8.49692172 4.19708765,8.49215471 L4.19965048,8.48613679 L4.2061268,8.47345859 L4.21007494,8.46620666 L4.21485426,8.45731501 L4.22043013,8.44850789 L4.22489776,8.44127286 L4.23208405,8.43077531 L4.23694996,8.42416574 L4.24436137,8.41375271 L4.24893289,8.40800526 L4.25797204,8.39728795 L4.25983812,8.39498135 L4.2712537,8.38236148 L4.27774734,8.3757181 L4.28585141,8.3677731 L4.29073462,8.36312442 L4.29367841,8.36055497 L4.30077812,8.35423278 C4.30254439,8.35264378 4.30441456,8.35105478 4.3062501,8.34949958 L4.31499487,8.34223075 L4.31698625,8.34065865 L4.3241206,8.33523238 L4.33122032,8.32956945 L4.34228548,8.32196253 L4.34806915,8.3179055 L4.35880531,8.31089023 L4.36490067,8.30742486 C4.3691605,8.30492302 4.37302205,8.30235358 4.37726456,8.3004603 L4.38211315,8.29799227 C4.38668467,8.29542282 4.39132546,8.29300551 4.3960182,8.29067273 L4.399291,8.28908372 L4.41418308,8.28244035 L4.41833901,8.28054707 L4.43851259,8.27263587 L4.45274665,8.26756459 L4.45891128,8.26570512 L4.47252196,8.26185095 L4.47899828,8.25997457 L4.49156997,8.25710085 L4.5010074,8.25490329 L4.5107392,8.25333119 L4.52273945,8.25116745 L4.52983917,8.25015319 L4.54473125,8.24827682 L4.54961447,8.24731327 L4.56675768,8.24609617 L4.57202186,8.24572427 L4.59335564,8.24542 C4.59920858,8.24542 4.60440349,8.24542 4.60956377,8.24609617 L4.6138236,8.24609617 C4.63907088,8.24731327 4.6665866,8.24798944 4.69711538,8.24798944 C5.51273408,8.24798944 6.17603792,7.6035987 6.17603792,6.81141392 C6.17603792,6.52676293 6.09080671,6.2518657 5.92941807,6.01615257 L5.92626649,6.01079392 L5.92169497,6.00416744 L5.90353009,5.97279312 L5.90353009,5.97279312 L5.90162529,5.96841491 C5.88944485,5.94502015 5.87988294,5.92041192 5.87310521,5.89501658 L5.87241256,5.89185548 L5.86467214,5.85769195 L5.86467214,5.85769195 L5.86467214,5.85699887 L5.86397948,5.85351659 C5.86211476,5.84067772 5.86049827,5.82780564 5.8591309,5.81490724 L5.8591309,5.81303087 L5.85828838,5.7942168 L5.85828838,5.7942168 L5.8581785,5.77320441 C5.85842093,5.74750992 5.86158982,5.72191686 5.86752934,5.69696616 L5.86884538,5.69030587 C5.87133859,5.67953766 5.87426151,5.66886857 5.87760747,5.658323 L5.88020493,5.65110487 C5.88369794,5.64058486 5.88770257,5.63023334 5.89220518,5.62008554 L5.89513165,5.61345907 C5.90063825,5.60169369 5.90550416,5.59188922 5.91066444,5.58245664 L5.91360822,5.57740226 L5.92336384,5.56157352 L5.92336384,5.56157352 L5.93561734,5.54355991 C5.9437214,5.53247071 5.95215448,5.52205768 5.96057024,5.51188131 L5.96188628,5.5106642 C5.97107718,5.5003618 5.9806898,5.49042529 5.99070073,5.48087888 L5.9988048,5.47364385 C6.72993901,4.79897615 7.61232254,4.30025066 8.57570691,4.01717201 L8.58084987,4.01627608 L8.58117888,4.01627608 C8.61415332,4.00722081 8.6480858,4.0019004 8.68230653,4.00041987 L8.69984802,4 Z M10.3771989,7.4794975 C8.95652868,7.4794975 7.80060853,8.6251084 7.80060853,10.0333101 C7.80060853,11.441236 8.95652868,12.5868296 10.3771989,12.5868296 C11.7985618,12.5868296 12.9540837,11.441598 12.9540837,10.0333101 C12.9540837,8.6251084 11.7985618,7.4794975 10.3771989,7.4794975 Z M10.3771989,8.33441737 C11.3227944,8.33441737 12.092161,9.09677883 12.092161,10.0332929 C12.092161,10.9705654 11.3227944,11.7325821 10.3771989,11.7325821 C9.43198446,11.7325821 8.6626178,10.9702551 8.6626178,10.0333101 C8.6626178,9.09645128 9.43198446,8.33441737 10.3771989,8.33441737 Z" id="系统" fill="#FFFFFF" fill-rule="nonzero"></path>
            </g>
        </g>
    </g>
</svg>
