<?xml version="1.0" encoding="UTF-8"?>
<svg class="svg-con" width="21px" height="20px" viewBox="0 0 21 20" version="1.1" xmlns="http://www.w3.org/2000/svg" xmlns:xlink="http://www.w3.org/1999/xlink">
    <!-- Generator: Sketch 59.1 (86144) - https://sketch.com -->
    <title></title>
    <desc>Created with Sketch.</desc>
    <g id="页面-1" stroke="none" stroke-width="1" fill="none" fill-rule="evenodd">
        <g id="列表页" transform="translate(-26.000000, -594.000000)">
            <g id="调度管理" transform="translate(26.000000, 594.000000)">
                <rect id="矩形" class="svg-rect"  x="0" y="0" width="21" height="20" rx="4"></rect>
                <path d="M10.5,3 C11.3284271,3 12,3.67157288 12,4.5 C12,5.1528467 11.5829319,5.70828193 11.000703,5.91439849 L11.0007074,7.02754265 C13.2503421,7.2765864 15,9.18396594 15,11.5 C15,12.238965 14.8218807,12.936328 14.5062336,13.5514975 L15.691771,14.2361479 C15.9250285,14.0866705 16.2023928,14 16.5,14 C17.3284271,14 18,14.6715729 18,15.5 C18,16.3284271 17.3284271,17 16.5,17 C15.6715729,17 15,16.3284271 15,15.5 C15,15.3374393 15.0258592,15.1809184 15.0736885,15.0343263 L13.9525036,14.3863809 C13.1270325,15.3727019 11.8867729,16 10.5,16 C9.21650537,16 8.05851387,15.4626573 7.23871525,14.6006616 L5.98946153,15.3212632 C5.99642041,15.3798726 6,15.4395183 6,15.5 C6,16.3284271 5.32842712,17 4.5,17 C3.67157288,17 3,16.3284271 3,15.5 C3,14.6715729 3.67157288,14 4.5,14 C4.90609173,14 5.2744926,14.1613737 5.54457377,14.4234923 L6.62936127,13.7966165 C6.22958732,13.1243011 6,12.338962 6,11.5 C6,9.18362124 7.7501788,7.27601865 10.000297,7.02743156 L10.0002925,5.91475048 C9.41754351,5.70891488 9,5.15321869 9,4.5 C9,3.67157288 9.67157288,3 10.5,3 Z M10.5,9 C9.11928813,9 8,10.1192881 8,11.5 C8,11.7761424 8.22385763,12 8.5,12 C8.77614237,12 9,11.7761424 9,11.5 C9,10.6715729 9.67157288,10 10.5,10 C11.3284271,10 12,10.6715729 12,11.5 C12,12.2796961 11.4051119,12.9204487 10.64446,12.9931334 L10.5,13 L10.5,12.5 L9.5,13.5 L10.5,14.5 L10.5,14 L10.6643757,13.9946823 C11.9684641,13.9100387 13,12.8254834 13,11.5 C13,10.1192881 11.8807119,9 10.5,9 Z" id="形状" fill="#FFFFFF"></path>
            </g>
        </g>
    </g>
</svg>
