<?xml version="1.0" encoding="UTF-8"?>
<svg class="svg-con" width="21px" height="20px" viewBox="0 0 21 20" version="1.1" xmlns="http://www.w3.org/2000/svg" xmlns:xlink="http://www.w3.org/1999/xlink">
    <!-- Generator: Sketch 59.1 (86144) - https://sketch.com -->
    <title></title>
    <desc>Created with Sketch.</desc>
    <g id="页面-1" stroke="none" stroke-width="1" fill="none" fill-rule="evenodd">
        <g id="列表页" transform="translate(-26.000000, -725.000000)">
            <g id="待办管理" transform="translate(26.000000, 725.000000)">
                <rect id="矩形" class="svg-rect"  x="0" y="0" width="21" height="20" rx="4"></rect>
                <g id="编组-3" transform="translate(5.000000, 4.000000)" fill="#FFFFFF">
                    <path d="M9,8 C10.1045695,8 11,8.8954305 11,10 C11,11.1045695 10.1045695,12 9,12 C7.8954305,12 7,11.1045695 7,10 C7,8.8954305 7.8954305,8 9,8 Z M9,9 C8.44771525,9 8,9.44771525 8,10 C8,10.5522847 8.44771525,11 9,11 C9.55228475,11 10,10.5522847 10,10 C10,9.44771525 9.55228475,9 9,9 Z" id="形状结合"></path>
                    <path d="M9,-1.33226763e-14 C10.1045695,-1.35255824e-14 11,0.8954305 11,2 L11.0008825,7.76468368 C10.4700206,7.28917391 9.76878037,7 9,7 C7.34314575,7 6,8.34314575 6,10 C6,10.7687804 6.28917391,11.4700206 6.76468368,12.0008825 L2,12 C0.8954305,12 1.99975415e-13,11.1045695 1.99840144e-13,10 L1.99840144e-13,2 C1.99704874e-13,0.8954305 0.8954305,-1.31197702e-14 2,-1.33226763e-14 L9,-1.33226763e-14 Z M4.5,7 L2.5,7 C2.22385763,7 2,7.22385763 2,7.5 C2,7.77614237 2.22385763,8 2.5,8 L2.5,8 L4.5,8 C4.77614237,8 5,7.77614237 5,7.5 C5,7.22385763 4.77614237,7 4.5,7 L4.5,7 Z M8.5,5 L2.5,5 C2.22385763,5 2,5.22385763 2,5.5 C2,5.77614237 2.22385763,6 2.5,6 L2.5,6 L8.5,6 C8.77614237,6 9,5.77614237 9,5.5 C9,5.22385763 8.77614237,5 8.5,5 L8.5,5 Z M8.5,3 L2.5,3 C2.22385763,3 2,3.22385763 2,3.5 C2,3.77614237 2.22385763,4 2.5,4 L2.5,4 L8.5,4 C8.77614237,4 9,3.77614237 9,3.5 C9,3.22385763 8.77614237,3 8.5,3 L8.5,3 Z" id="形状结合"></path>
                </g>
            </g>
        </g>
    </g>
</svg>
