<?xml version="1.0" encoding="UTF-8"?>
<svg width="17px" height="17px" viewBox="0 0 17 17" version="1.1" xmlns="http://www.w3.org/2000/svg" xmlns:xlink="http://www.w3.org/1999/xlink">
    <!-- Generator: Sketch 53.2 (72643) - https://sketchapp.com -->
    <desc>Created with Sketch.</desc>
    <g id="Page-1" stroke="none" stroke-width="1" fill-rule="evenodd">
        <g id="切图" transform="translate(-998.000000, -1194.000000)" fill-rule="nonzero">
            <g id="codepen" transform="translate(998.000000, 1194.490727)">
                <path d="M3.16164073,8.17153383 L1.48573342,9.34452037 L1.48573342,6.99780443 L3.16164073,8.17153383 Z M14.8573342,9.34452037 L13.1814269,8.17153383 L14.8573342,6.99854729 L14.8573342,9.34452037 Z M11.8858674,9.07857409 L14.2719553,10.7492813 L8.91440054,14.2310976 L8.91440054,11.157858 L11.8858674,9.07857409 Z M5.75275982,8.17153383 L8.17153383,6.47854059 L10.5903078,8.17153383 L8.17153383,9.86452707 L5.75275982,8.17153383 Z M2.07111239,10.7485385 L4.45720027,9.07857409 L7.42866712,11.1586009 L7.42866712,14.2318405 L2.07111239,10.7485385 Z M8.58531059,0.125544474 C8.46719478,0.0460577361 8.32456437,0 8.17153383,0 C8.01850329,0 7.87587288,0.0460577361 7.75775707,0.125544474 L0.338004354,4.94823517 C0.132973141,5.08343691 0,5.31149699 0,5.57150034 L0,10.7715673 C0.000742866712,10.9089977 0.038629069,11.0434565 0.109944273,11.1608295 C0.140401809,11.2113444 0.177545144,11.258145 0.220631413,11.3004884 C0.255546149,11.3354032 0.294918085,11.3666036 0.338004354,11.3948325 L0.352118821,11.4037469 L7.75775707,16.2175232 C7.87587288,16.2970099 8.01850329,16.3430677 8.17153383,16.3430677 C8.32456437,16.3430677 8.46719478,16.2970099 8.58531059,16.2175232 L16.0050633,11.3948325 C16.2100945,11.2596308 16.3430677,11.0315707 16.3430677,10.7715673 L16.3430677,5.57150034 C16.3423248,5.43407 16.3044386,5.29886826 16.2331234,5.18223818 C16.2026659,5.13246611 16.1655225,5.08566551 16.1224362,5.04332211 C16.0875215,5.00840737 16.0481496,4.97720697 16.0050633,4.94897803 L15.9909488,4.94006363 L8.58531059,0.125544474 Z M8.91440054,5.18446678 L8.91440054,2.11197006 L14.2719553,5.59452921 L11.8858674,7.26449358 L8.91440054,5.18446678 Z M7.42866712,2.11197006 L7.42866712,5.18520965 L4.45720027,7.26523644 L2.07111239,5.59452921 L7.42866712,2.11197006 Z" id="形状"></path>
            </g>
        </g>
    </g>
</svg>
