<?xml version="1.0" encoding="UTF-8"?>
<svg width="16px" height="16px" viewBox="0 0 16 16" version="1.1" xmlns="http://www.w3.org/2000/svg" xmlns:xlink="http://www.w3.org/1999/xlink">
    <title>轻骑兵_文件</title>
    <g id="适配" stroke="none" stroke-width="1" fill="none" fill-rule="evenodd">
        <g id="7.5树结构切图" transform="translate(-409.000000, -45.000000)">
            <g id="轻骑兵_文件" transform="translate(409.000000, 45.000000)">
                <rect id="矩形" opacity="0" x="0" y="0" width="16" height="16"></rect>
                <path class="svg-rect" d="M10,2 L4,2 C3.448,2 3,2.448 3,3 L3,13 C3,13.552 3.448,14 4,14 L12,14 C12.552,14 13,13.552 13,13 L13,5 L10,2 Z M5.5,4 L7.5,4 C7.776,4 8,4.224 8,4.5 C8,4.776 7.776,5 7.5,5 L5.5,5 C5.224,5 5,4.776 5,4.5 C5,4.224 5.224,4 5.5,4 Z M10.5,11 L5.5,11 C5.224,11 5,10.776 5,10.5 C5,10.224 5.224,10 5.5,10 L10.5,10 C10.776,10 11,10.224 11,10.5 C11,10.776 10.776,11 10.5,11 Z M10.5,8 L5.5,8 C5.224,8 5,7.776 5,7.5 C5,7.224 5.224,7 5.5,7 L10.5,7 C10.776,7 11,7.224 11,7.5 C11,7.776 10.776,8 10.5,8 Z M10,5 L10,3 L12,5 L10,5 Z" id="形状"  fill-rule="nonzero"></path>
            </g>
        </g>
    </g>
</svg>