<?xml version="1.0" standalone="no"?><!DOCTYPE svg PUBLIC "-//W3C//DTD SVG 1.1//EN" "http://www.w3.org/Graphics/SVG/1.1/DTD/svg11.dtd"><svg t="1632982721090" class="icon" viewBox="0 0 1024 1024" version="1.1" xmlns="http://www.w3.org/2000/svg" p-id="4213" xmlns:xlink="http://www.w3.org/1999/xlink" width="16" height="16"><defs><style type="text/css"></style></defs><path d="M896 704V512H576V384h64a64 64 0 0 0 64-64V192a64 64 0 0 0-64-64H448a64 64 0 0 0-64 64v128a64 64 0 0 0 64 64h64v128H192v192a64 64 0 0 0-64 64v64a64 64 0 0 0 64 64h64a64 64 0 0 0 64-64v-64a64 64 0 0 0-64-64V576h256v128a64 64 0 0 0-64 64v64a64 64 0 0 0 64 64h64a64 64 0 0 0 64-64v-64a64 64 0 0 0-64-64V576h256v128a64 64 0 0 0-64 64v64a64 64 0 0 0 64 64h64a64 64 0 0 0 64-64v-64a64 64 0 0 0-64-64z" fill="#FCA315" p-id="4214"></path></svg>