<?xml version="1.0" encoding="UTF-8"?>
<svg width="16px" height="16px" viewBox="0 0 16 16" version="1.1" xmlns="http://www.w3.org/2000/svg" xmlns:xlink="http://www.w3.org/1999/xlink">
    <title>轻骑兵_菜单</title>
    <g id="适配" stroke="none" stroke-width="1" fill="none" fill-rule="evenodd">
        <g id="7.5树结构切图" transform="translate(-436.000000, -45.000000)">
            <g id="轻骑兵_菜单" transform="translate(436.000000, 45.000000)">
                <rect id="矩形" opacity="0" x="0" y="0" width="16" height="16"></rect>
                <path class="svg-rect" d="M3,5 L3,5 C2.448,5 2,4.552 2,4 L2,4 C2,3.448 2.448,3 3,3 L3,3 C3.552,3 4,3.448 4,4 L4,4 C4,4.552 3.552,5 3,5 Z" id="路径"  fill-rule="nonzero"></path>
                <path class="svg-rect" d="M13,5 L6,5 C5.448,5 5,4.552 5,4 L5,4 C5,3.448 5.448,3 6,3 L13,3 C13.552,3 14,3.448 14,4 L14,4 C14,4.552 13.552,5 13,5 Z" id="路径"  fill-rule="nonzero"></path>
                <path class="svg-rect" d="M3,9 L3,9 C2.448,9 2,8.552 2,8 L2,8 C2,7.448 2.448,7 3,7 L3,7 C3.552,7 4,7.448 4,8 L4,8 C4,8.552 3.552,9 3,9 Z" id="路径"  fill-rule="nonzero"></path>
                <path class="svg-rect" d="M13,9 L6,9 C5.448,9 5,8.552 5,8 L5,8 C5,7.448 5.448,7 6,7 L13,7 C13.552,7 14,7.448 14,8 L14,8 C14,8.552 13.552,9 13,9 Z" id="路径"  fill-rule="nonzero"></path>
                <path class="svg-rect" d="M3,13 L3,13 C2.448,13 2,12.552 2,12 L2,12 C2,11.448 2.448,11 3,11 L3,11 C3.552,11 4,11.448 4,12 L4,12 C4,12.552 3.552,13 3,13 Z" id="路径"  fill-rule="nonzero"></path>
                <path class="svg-rect" d="M13,13 L6,13 C5.448,13 5,12.552 5,12 L5,12 C5,11.448 5.448,11 6,11 L13,11 C13.552,11 14,11.448 14,12 L14,12 C14,12.552 13.552,13 13,13 Z" id="路径"  fill-rule="nonzero"></path>
            </g>
        </g>
    </g>
</svg>