<?xml version="1.0" encoding="UTF-8"?>
<svg width="16px" height="16px" viewBox="0 0 16 16" version="1.1" xmlns="http://www.w3.org/2000/svg" xmlns:xlink="http://www.w3.org/1999/xlink">
    <title></title>
    <g id="适配" stroke="none" stroke-width="1" fill="none" fill-rule="evenodd">
        <g id="7.5树结构切图" transform="translate(-180.000000, -45.000000)">
            <g id="轻骑兵_人员/用户" transform="translate(180.000000, 45.000000)">
                <rect id="矩形" opacity="0" x="0" y="0" width="16" height="16"></rect>
                <path class="svg-rect" d="M5,5 C5,3.343 6.343,2 8,2 C9.657,2 11,3.343 11,5 C11,6.657 9.657,8 8,8 C6.343,8 5,6.657 5,5 Z M10.795,9.17 L9,10.667 L8.5,10.25 L9,9.833 L8,9 L7,9.833 L7.5,10.25 L7,10.667 L5.205,9.17 C3.35,9.657 2,11.131 2,12.875 L2,13.125 C2,13.998 4.031,14 6.536,14 L9.464,14 C11.969,14 14,13.968 14,13.125 L14,12.875 C14,11.131 12.65,9.657 10.795,9.17 Z" id="形状"  fill-rule="nonzero"></path>
            </g>
        </g>
    </g>
</svg>
