<?xml version="1.0" encoding="UTF-8"?>
<svg width="16px" height="16px" viewBox="0 0 16 16" version="1.1" xmlns="http://www.w3.org/2000/svg" xmlns:xlink="http://www.w3.org/1999/xlink">
    <title></title>
    <g id="适配" stroke="none" stroke-width="1" fill="none" fill-rule="evenodd">
        <g id="7.5树结构切图" transform="translate(-84.000000, -45.000000)">
            <g id="轻骑兵_岗位" transform="translate(84.000000, 45.000000)">
                <rect id="矩形" opacity="0" x="0" y="0" width="16" height="16"></rect>
                <path class="svg-rect" d="M6.75,6.75 C6.75,5.231 7.981,4 9.5,4 C11.019,4 12.25,5.231 12.25,6.75 C12.25,8.269 11.019,9.5 9.5,9.5 C7.981,9.5 6.75,8.269 6.75,6.75 Z M12.063,10.573 L10.417,11.945 L9.959,11.563 L10.417,11.181 L9.5,10.417 L8.583,11.181 L9.041,11.563 L8.583,11.945 L6.937,10.573 C5.237,11.019 4,12.37 4,13.969 L4,14.198 C4,14.998 5.862,15 8.158,15 L10.842,15 C13.138,15 15,14.971 15,14.198 L15,13.969 C15,12.37 13.763,11.019 12.063,10.573 Z" id="形状"  fill-rule="nonzero"></path>
                <g id="编组" transform="translate(1.000000, 2.000000)"  fill-rule="nonzero">
                    <path class="svg-rect" d="M4.369,7.766 L2.938,6.573 C1.237,7.019 0,8.37 0,9.969 L0,10.198 C0,10.722 0.805,10.902 2,10.965 C2.003,9.552 2.971,8.337 4.369,7.766 Z" id="路径"></path>
                    <path class="svg-rect" d="M5.385,5.488 C4.994,5.013 4.75,4.413 4.75,3.75 C4.75,2.231 5.981,1 7.5,1 C7.539,1 7.576,1.01 7.615,1.012 C7.11,0.399 6.356,0 5.5,0 C3.981,0 2.75,1.231 2.75,2.75 C2.75,4.229 3.921,5.427 5.385,5.488 Z" id="路径"></path>
                </g>
            </g>
        </g>
    </g>
</svg>
