<?xml version="1.0" encoding="UTF-8"?>
<svg width="16px" height="16px" viewBox="0 0 16 16" version="1.1" xmlns="http://www.w3.org/2000/svg" xmlns:xlink="http://www.w3.org/1999/xlink">
    <title>轻骑兵_按钮</title>
    <g id="适配" stroke="none" stroke-width="1" fill="none" fill-rule="evenodd">
        <g id="7.5树结构切图" transform="translate(-463.000000, -45.000000)">
            <g id="轻骑兵_按钮" transform="translate(463.000000, 45.000000)">
                <rect id="矩形" opacity="0" x="0" y="0" width="16" height="16"></rect>
                <path class="svg-rect" d="M8,3 C10.757,3 13,5.243 13,8 C13,10.757 10.757,13 8,13 C5.243,13 3,10.757 3,8 C3,5.243 5.243,3 8,3 M8,2 C4.686,2 2,4.686 2,8 C2,11.314 4.686,14 8,14 C11.314,14 14,11.314 14,8 C14,4.686 11.314,2 8,2 L8,2 Z" id="形状"  fill-rule="nonzero"></path>
                <circle id="椭圆形"  fill-rule="nonzero" cx="8" cy="8" r="3"></circle>
            </g>
        </g>
    </g>
</svg>