<?xml version="1.0" encoding="UTF-8"?>
<svg width="16px" height="16px" viewBox="0 0 16 16" version="1.1" xmlns="http://www.w3.org/2000/svg" xmlns:xlink="http://www.w3.org/1999/xlink">
    <title></title>
    <g id="适配" stroke="none" stroke-width="1" fill="none" fill-rule="evenodd">
        <g id="7.5树结构切图" transform="translate(-52.000000, -45.000000)">
            <g id="树首页" transform="translate(52.000000, 45.000000)">
                <rect id="矩形" x="0" y="0" width="16" height="16"></rect>
                <path class="svg-rect" d="M13.833,7.116 L8.401,2.152 C8.18,1.95 7.821,1.95 7.6,2.152 L2.167,7.116 C1.81,7.442 2.063,8 2.568,8 L3,8 L3,13 C3,13.552 3.448,14 4,14 L7,14 L7,12 C7,11.448 7.448,11 8,11 C8.552,11 9,11.448 9,12 L9,14 L12,14 C12.552,14 13,13.552 13,13 L13,8 L13.432,8 C13.937,8 14.19,7.442 13.833,7.116 Z" id="路径" fill="#1989FA" fill-rule="nonzero"></path>
            </g>
        </g>
    </g>
</svg>
