<?xml version="1.0" standalone="no"?><!DOCTYPE svg PUBLIC "-//W3C//DTD SVG 1.1//EN" "http://www.w3.org/Graphics/SVG/1.1/DTD/svg11.dtd"><svg t="1641345803987" class="icon" viewBox="0 0 1024 1024" version="1.1" xmlns="http://www.w3.org/2000/svg" p-id="5325" xmlns:xlink="http://www.w3.org/1999/xlink" width="200" height="200"><defs><style type="text/css"></style></defs><path d="M362.666667 618.666667m-64 0a64 64 0 1 0 128 0 64 64 0 1 0-128 0Z" p-id="5326"></path><path d="M768 170.666667H256a42.666667 42.666667 0 0 0-42.666667 42.666666v597.333334a42.666667 42.666667 0 0 0 42.666667 42.666666h512a42.666667 42.666667 0 0 0 42.666667-42.666666V213.333333a42.666667 42.666667 0 0 0-42.666667-42.666666zM261.205333 331.776a18.176 18.176 0 0 1 26.666667-0.682667l46.805333 47.232 102.016-115.968a18.218667 18.218667 0 0 1 26.666667-1.024 20.778667 20.778667 0 0 1 0.938667 28.245334L349.269333 420.309333a18.56 18.56 0 0 1-13.226666 6.357334h-0.554667a18.432 18.432 0 0 1-13.056-5.504l-60.586667-61.141334a20.821333 20.821333 0 0 1-0.64-28.245333zM362.666667 725.333333a106.666667 106.666667 0 1 1 0-213.333333 106.666667 106.666667 0 0 1 0 213.333333z m384-42.666666h-213.333334a21.333333 21.333333 0 0 1 0-42.666667h213.333334a21.333333 21.333333 0 0 1 0 42.666667z m0-85.333334h-213.333334a21.333333 21.333333 0 0 1 0-42.666666h213.333334a21.333333 21.333333 0 0 1 0 42.666666z m0-170.666666h-213.333334a21.333333 21.333333 0 0 1 0-42.666667h213.333334a21.333333 21.333333 0 0 1 0 42.666667z m0-85.333334h-213.333334a21.333333 21.333333 0 0 1 0-42.666666h213.333334a21.333333 21.333333 0 0 1 0 42.666666z"  p-id="5327"></path></svg>