<?xml version="1.0" encoding="UTF-8"?>
<svg class="svg-con" width="14px" height="14px" viewBox="0 0 14 14" version="1.1" xmlns="http://www.w3.org/2000/svg" xmlns:xlink="http://www.w3.org/1999/xlink">
    <!-- Generator: Sketch 59.1 (86144) - https://sketch.com -->
    <title></title>
    <desc>Created with Sketch.</desc>
    <g id="页面-1" stroke="none" stroke-width="1" fill="none" fill-rule="evenodd">
        <g id="用户管理" transform="translate(-280.000000, -411.000000)">
            <g id="编组-9" transform="translate(277.000000, 408.000000)">
                <rect id="矩形" x="0" y="0" width="20" height="20"></rect>
                <g id="编组" class="svg-rect" transform="translate(3.000000, 3.000000)"  fill-rule="nonzero">
                    <path d="M13.3817044,9.99955352 L12.4981247,9.99955352 L12.4981247,8.02589575 C12.4981247,7.48052238 12.0329185,7.03672285 11.4631189,7.03672285 L7.48232723,7.03672285 L7.48232723,5.0005581 L8.89824019,5.0005581 C9.24168104,5.0005581 9.5226781,4.7192767 9.5226781,4.37548834 L9.5226781,0.625069762 C9.5226781,0.281281393 9.24168104,0 8.89824019,0 L5.15161274,0 C4.80817189,0 4.52717483,0.281281393 4.52717483,0.625069762 L4.52717483,4.37548834 C4.52717483,4.7192767 4.80817189,5.0005581 5.15161274,5.0005581 L6.51444848,5.0005581 L6.51444848,7.03672285 L2.55707323,7.03672285 C1.98571255,7.03672285 1.5220674,7.48052238 1.5220674,8.02589575 L1.5220674,9.99955352 L0.624437908,9.99955352 C0.280997059,9.99955352 0,10.2808349 0,10.6246233 L0,13.3749302 C0,13.7187186 0.280997059,14 0.624437908,14 L3.3719647,14 C3.71540555,14 3.99640261,13.7187186 3.99640261,13.3749302 L3.99640261,10.6246233 C3.99640261,10.2808349 3.71540555,9.99955352 3.3719647,9.99955352 L2.48838506,9.99955352 L2.48838506,8.03214644 C2.49462944,8.0227704 2.51804586,8.00558098 2.55551214,8.00558098 L6.51288738,8.00558098 L6.51288738,9.99955352 L5.63399103,9.99955352 C5.29055018,9.99955352 5.00955312,10.2808349 5.00955312,10.6246233 L5.00955312,13.3749302 C5.00955312,13.7187186 5.29055018,14 5.63399103,14 L8.38151782,14 C8.72495867,14 9.00595573,13.7187186 9.00595573,13.3749302 L9.00595573,10.6246233 C9.00595573,10.2808349 8.72495867,9.99955352 8.38151782,9.99955352 L7.47920504,9.99955352 L7.47920504,8.00558098 L11.4584356,8.00558098 C11.4959019,8.00558098 11.5193183,8.0227704 11.5255627,8.03214644 L11.5255627,9.99955352 L10.6279332,9.99955352 C10.2844923,9.99955352 10.0034953,10.2808349 10.0034953,10.6246233 L10.0034953,13.3749302 C10.0034953,13.7187186 10.2844923,14 10.6279332,14 L13.37546,14 C13.7189008,14 14,13.7187186 14,13.3749302 L14,10.6246233 C14.0061423,10.2808349 13.7251452,9.99955352 13.3817044,9.99955352 Z" id="路径"></path>
                </g>
            </g>
        </g>
    </g>
</svg>
