<?xml version="1.0" encoding="UTF-8"?>
<svg class="svg-con" width="16px" height="16px" viewBox="0 0 16 16" version="1.1" xmlns="http://www.w3.org/2000/svg" xmlns:xlink="http://www.w3.org/1999/xlink">
    <!-- Generator: Sketch 59.1 (86144) - https://sketch.com -->
    <title></title>
    <desc>Created with Sketch.</desc>
    <g id="页面-1" stroke="none" stroke-width="1" fill="none" fill-rule="evenodd">
        <g id="用户管理" transform="translate(-280.000000, -349.000000)">
            <g id="编组-12备份" transform="translate(277.000000, 345.000000)">
                <rect id="矩形备份-2" x="0" y="0" width="20" height="20"></rect>
                <g id="编组" class="svg-rect" transform="translate(3.000000, 4.000000)"  fill-rule="nonzero">
                    <path d="M0,12.5666667 C0,12.8059901 0.1790861,13 0.4,13 L5.6,13 C5.7060866,13 5.80782816,12.9543454 5.88284271,12.8730796 C5.95785726,12.7918138 6,12.6815938 6,12.5666667 L6,0.433333333 C6,0.318406188 5.95785726,0.208186159 5.88284271,0.126920395 C5.80782816,0.0456546308 5.7060866,0 5.6,0 L0.4,0 C0.1790861,0 0,0.194009942 0,0.433333333 L0,12.5666667 Z M3.6,2.38333333 C3.6,2.14400994 3.7790861,1.95 4,1.95 L4.4,1.95 C4.5060866,1.95 4.60782816,1.99565463 4.68284271,2.07692039 C4.75785726,2.15818616 4.8,2.26840619 4.8,2.38333333 L4.8,2.81666667 C4.8,3.05599006 4.6209139,3.25 4.4,3.25 L4,3.25 C3.8939134,3.25 3.79217184,3.20434537 3.71715729,3.12307961 C3.64214274,3.04181384 3.6,2.93159381 3.6,2.81666667 L3.6,2.38333333 Z M3.6,5.30833333 C3.6,5.06900994 3.7790861,4.875 4,4.875 L4.4,4.875 C4.5060866,4.875 4.60782816,4.92065463 4.68284271,5.00192039 C4.75785726,5.08318616 4.8,5.19340619 4.8,5.30833333 L4.8,5.77777778 C4.8,6.01710117 4.6209139,6.21111111 4.4,6.21111111 L4,6.21111111 C3.8939134,6.21111111 3.79217184,6.16545648 3.71715729,6.08419072 C3.64214274,6.00292495 3.6,5.89270492 3.6,5.77777778 L3.6,5.30833333 Z M3.6,8.23333333 C3.6,7.99400994 3.7790861,7.8 4,7.8 L4.4,7.8 C4.5060866,7.8 4.60782816,7.84565463 4.68284271,7.92692039 C4.75785726,8.00818616 4.8,8.11840619 4.8,8.23333333 L4.8,8.66666667 C4.8,8.90599006 4.6209139,9.1 4.4,9.1 L4,9.1 C3.8939134,9.1 3.79217184,9.05434537 3.71715729,8.97307961 C3.64214274,8.89181384 3.6,8.78159381 3.6,8.66666667 L3.6,8.23333333 Z M1.2,2.38333333 C1.2,2.14400994 1.3790861,1.95 1.6,1.95 L2,1.95 C2.2209139,1.95 2.4,2.14400994 2.4,2.38333333 L2.4,2.81666667 C2.4,3.05599006 2.2209139,3.25 2,3.25 L1.6,3.25 C1.3790861,3.25 1.2,3.05599006 1.2,2.81666667 L1.2,2.38333333 Z M1.2,5.30833333 C1.2,5.06900994 1.3790861,4.875 1.6,4.875 L2,4.875 C2.2209139,4.875 2.4,5.06900994 2.4,5.30833333 L2.4,5.77777778 C2.4,6.01710117 2.2209139,6.21111111 2,6.21111111 L1.6,6.21111111 C1.3790861,6.21111111 1.2,6.01710117 1.2,5.77777778 L1.2,5.30833333 Z M1.2,8.23333333 C1.2,7.99400994 1.3790861,7.8 1.6,7.8 L2,7.8 C2.2209139,7.8 2.4,7.99400994 2.4,8.23333333 L2.4,8.66666667 C2.4,8.90599006 2.2209139,9.1 2,9.1 L1.6,9.1 C1.3790861,9.1 1.2,8.90599006 1.2,8.66666667 L1.2,8.23333333 Z" id="形状"></path>
                    <path d="M7.44444444,6 C7.19898456,6 7,6.19898456 7,6.44444444 L7,12.5555556 C7,12.8010154 7.19898456,13 7.44444444,13 L8.22222222,13 C8.46768211,13 8.66666667,12.8010154 8.66666667,12.5555556 L8.66666667,10.2148148 C8.66666667,10.0969408 8.71349193,9.98389464 8.79684143,9.90054513 C8.88019093,9.81719563 8.99323712,9.77037037 9.11111111,9.77037037 L10.8888889,9.77037037 C11.1343488,9.77037037 11.3333333,9.96935493 11.3333333,10.2148148 L11.3333333,12.5555556 C11.3333333,12.8010154 11.5323179,13 11.7777778,13 L12.5555556,13 C12.6734296,13 12.7864757,12.9531747 12.8698252,12.8698252 C12.9531747,12.7864757 13,12.6734296 13,12.5555556 L13,6.44444444 C13,6.19898456 12.8010154,6 12.5555556,6 L7.44444444,6 Z" id="路径"></path>
                </g>
            </g>
        </g>
    </g>
</svg>
