<?xml version="1.0" encoding="UTF-8"?>
<svg class="svg-con" width="14px" height="11px" viewBox="0 0 14 11" version="1.1" xmlns="http://www.w3.org/2000/svg" xmlns:xlink="http://www.w3.org/1999/xlink">
    <!-- Generator: Sketch 59.1 (86144) - https://sketch.com -->
    <title></title>
    <desc>Created with Sketch.</desc>
    <g id="页面-1" stroke="none" stroke-width="1" fill="none" fill-rule="evenodd">
        <g id="用户管理" transform="translate(-279.000000, -314.000000)">
            <g id="编组-8备份" transform="translate(275.000000, 309.000000)">
                <rect id="矩形" x="0" y="0" width="22" height="20"></rect>
                <g id="编组" transform="translate(4.000000, 5.000000)" class="svg-rect"  fill-rule="nonzero">
                    <path d="M13.125,0 L0.875,0 C0.379166662,0 0,0.376315785 0,0.868421053 L0,10.1315789 C0,10.6236842 0.379166662,11 0.875,11 L13.125,11 C13.6208333,11 14,10.6236842 14,10.1315789 L14,0.868421053 C14,0.376315785 13.6208333,0 13.125,0 Z M5.83333334,7.81578948 L2.33333334,7.81578948 C2.15833334,7.81578948 2.04166666,7.70000001 2.04166666,7.52631579 C2.04166666,7.35263156 2.15833332,7.23684211 2.33333334,7.23684211 L5.83333334,7.23684211 C6.00833334,7.23684211 6.125,7.35263158 6.125,7.52631579 C6.125,7.7 6.00833334,7.81578948 5.83333334,7.81578948 L5.83333334,7.81578948 Z M5.83333334,5.78947368 L2.33333334,5.78947368 C2.15833334,5.78947368 2.04166666,5.67368421 2.04166666,5.5 C2.04166666,5.32631579 2.15833332,5.21052632 2.33333334,5.21052632 L5.83333334,5.21052632 C6.00833334,5.21052632 6.125,5.32631579 6.125,5.5 C6.125,5.67368421 6.00833334,5.78947368 5.83333334,5.78947368 L5.83333334,5.78947368 Z M5.83333334,3.76315789 L2.33333334,3.76315789 C2.15833334,3.76315789 2.04166666,3.64736842 2.04166666,3.47368421 C2.04166666,3.3 2.15833332,3.18421052 2.33333334,3.18421052 L5.83333334,3.18421052 C6.00833334,3.18421052 6.125,3.29999999 6.125,3.47368421 C6.125,3.64736844 6.00833334,3.76315789 5.83333334,3.76315789 L5.83333334,3.76315789 Z M12.25,8.10526316 C12.25,8.27894737 12.1333333,8.39473684 11.9583333,8.39473684 L7.875,8.39473684 C7.7,8.39473684 7.58333334,8.27894737 7.58333334,8.10526316 L7.58333334,7.81578947 C7.58333334,7.32368421 7.9625,6.94736843 8.45833334,6.94736843 C8.77916668,6.94736843 9.04166668,6.68684211 9.04166666,6.36842105 L9.04166666,6.10789474 C8.51666666,5.76052632 8.16666666,5.09473684 8.16666666,4.34210527 C8.16666666,3.2131579 8.95416666,2.31578947 9.91666666,2.31578947 C10.8791667,2.31578947 11.6666667,3.21315788 11.6666667,4.34210527 C11.6666667,5.09473685 11.3166667,5.76052632 10.7916667,6.10789474 L10.7916667,6.36842105 C10.7916667,6.68684211 11.0541667,6.94736843 11.375,6.94736843 C11.8708333,6.94736843 12.25,7.32368421 12.25,7.81578947 L12.25,8.10526316 L12.25,8.10526316 Z" id="形状"></path>
                </g>
            </g>
        </g>
    </g>
</svg>
