<?xml version="1.0" encoding="UTF-8"?>
<svg class="svg-con" width="12px" height="14px" viewBox="0 0 12 14" version="1.1" xmlns="http://www.w3.org/2000/svg" xmlns:xlink="http://www.w3.org/1999/xlink">
    <!-- Generator: Sketch 59.1 (86144) - https://sketch.com -->
    <title></title>
    <desc>Created with Sketch.</desc>
    <g id="页面-1" stroke="none" stroke-width="1" fill="none" fill-rule="evenodd">
        <g id="用户管理" transform="translate(-281.000000, -388.000000)">
            <g id="编组-10备份-6" transform="translate(277.000000, 384.000000)">
                <rect id="矩形" x="0" y="0" width="20" height="20"></rect>
                <g id="编组备份-6" transform="translate(4.000000, 4.000000)" class="svg-rect"  fill-rule="nonzero">
                    <path d="M9.03199624,8 L10.5287692,8.77717918 C11.3413076,9.19907874 12,10.3076088 12,11.2534673 L12,12.2876286 C12,13.2333452 11.2640378,14 10.3562205,14 L1.64377952,14 C0.735945156,14 0,13.2334871 0,12.2876286 L0,11.2534673 C0,10.3077507 0.658537263,9.19883762 1.47093379,8.77661483 L2.96521409,8 L4.09708244,12.0670043 C4.09708244,12.0670043 4.1287396,12.4189229 4.69457271,12.4189229 C5.21688021,12.4189229 5.25705771,12.1190633 5.26014829,12.072931 L5.26040584,8.75000001 C5.26040584,8.75000001 5.28608261,8 6.02386273,8 C6.71245751,8 6.75836383,8.65333334 6.76142425,8.74044445 L6.76164285,12.0670043 C6.76164285,12.0670043 6.95454282,12.4838662 7.41161099,12.4838662 C7.86867919,12.4838662 7.92383094,12.0670043 7.92383094,12.0670043 L9.03199624,8 Z M6.5,0 C8.43299663,0 10,1.41535788 10,3.16129032 C10,4.90722276 8.43299663,7 6.5,7 C4.56700337,7 3,4.90722276 3,3.16129032 C3,1.41535788 4.56700337,0 6.5,0 Z" id="形状结合"></path>
                </g>
            </g>
        </g>
    </g>
</svg>
