<!-- Generated by IcoMoon.io -->
<svg version="1.1" xmlns="http://www.w3.org/2000/svg" width="18" height="18" viewBox="0 0 18 18">
<title>airplay</title>
<path d="M3.75 12h-0.75c-0.103 0-0.199-0.020-0.287-0.056-0.091-0.037-0.174-0.094-0.244-0.163s-0.125-0.152-0.163-0.244c-0.036-0.087-0.056-0.184-0.056-0.287v-7.5c0-0.103 0.020-0.199 0.056-0.287 0.037-0.091 0.094-0.174 0.163-0.244s0.152-0.125 0.244-0.163c0.087-0.036 0.184-0.056 0.287-0.056h12c0.103 0 0.199 0.020 0.287 0.056 0.091 0.037 0.174 0.094 0.244 0.163s0.125 0.152 0.163 0.244c0.036 0.087 0.056 0.184 0.056 0.287v7.5c0 0.103-0.020 0.199-0.056 0.287-0.037 0.091-0.094 0.174-0.163 0.244s-0.152 0.125-0.244 0.163c-0.087 0.036-0.184 0.056-0.287 0.056h-0.75c-0.414 0-0.75 0.336-0.75 0.75s0.336 0.75 0.75 0.75h0.75c0.304 0 0.595-0.061 0.861-0.171 0.276-0.114 0.523-0.281 0.73-0.488s0.374-0.454 0.488-0.73c0.109-0.266 0.17-0.557 0.17-0.86v-7.5c0-0.304-0.061-0.595-0.171-0.861-0.114-0.276-0.281-0.523-0.488-0.73s-0.454-0.374-0.73-0.488c-0.265-0.109-0.557-0.17-0.86-0.17h-12c-0.304 0-0.595 0.061-0.861 0.171-0.275 0.114-0.523 0.281-0.73 0.488s-0.374 0.454-0.488 0.73c-0.11 0.266-0.171 0.557-0.171 0.861v7.5c0 0.304 0.061 0.595 0.171 0.861 0.114 0.276 0.281 0.523 0.488 0.73s0.455 0.374 0.73 0.488c0.266 0.109 0.557 0.17 0.86 0.17h0.75c0.414 0 0.75-0.336 0.75-0.75s-0.336-0.75-0.75-0.75zM9.576 10.77c-0.026-0.032-0.059-0.065-0.096-0.096-0.318-0.266-0.791-0.222-1.056 0.096l-3.75 4.5c-0.108 0.129-0.174 0.297-0.174 0.48 0 0.414 0.336 0.75 0.75 0.75h7.5c0.169 0.001 0.34-0.056 0.48-0.174 0.318-0.265 0.361-0.738 0.096-1.056zM9 12.421l2.149 2.578h-4.297z"></path>
</svg>
