<?xml version="1.0" standalone="no"?><!DOCTYPE svg PUBLIC "-//W3C//DTD SVG 1.1//EN" "http://www.w3.org/Graphics/SVG/1.1/DTD/svg11.dtd"><svg class="icon" width="200px" height="200.00px" viewBox="0 0 1024 1024" version="1.1" xmlns="http://www.w3.org/2000/svg"><path d="M298.666667 775.253333a42.666667 42.666667 0 0 0 42.666666 42.666667h341.333334a42.666667 42.666667 0 0 0 42.666666-42.666667v-128H298.666667z m213.333333-85.333333a42.666667 42.666667 0 1 1-42.666667 42.666667 42.666667 42.666667 0 0 1 42.666667-42.666667z" fill="#67B4FA" /><path d="M682.666667 177.92H341.333333a42.666667 42.666667 0 0 0-42.666666 42.666667v426.666666h426.666666v-426.666666a42.666667 42.666667 0 0 0-42.666666-42.666667z m-42.666667 170.666667l-64 170.666666-67.413333-42.666666-42.666667 42.666666 15.786667-62.293333L640 348.586667l-175.786667 93.013333L384 395.093333z" fill="#045340" /></svg>
