<?xml version="1.0" standalone="no"?><!DOCTYPE svg PUBLIC "-//W3C//DTD SVG 1.1//EN" "http://www.w3.org/Graphics/SVG/1.1/DTD/svg11.dtd"><svg class="icon" width="200px" height="200.00px" viewBox="0 0 1024 1024" version="1.1" xmlns="http://www.w3.org/2000/svg"><path d="M256 732.586667l170.666667-85.333334H256v85.333334z" fill="#67B4FA" /><path d="M768 220.586667H256a42.666667 42.666667 0 0 0-42.666667 42.666666v298.666667a42.666667 42.666667 0 0 0 42.666667 42.666667h512a42.666667 42.666667 0 0 0 42.666667-42.666667v-298.666667a42.666667 42.666667 0 0 0-42.666667-42.666666z m-405.333333 192a32 32 0 1 1 32-32 32.426667 32.426667 0 0 1-32 32z m298.666666 0a32 32 0 1 1 32-32 32.426667 32.426667 0 0 1-32 32z" fill="#045340" /><path d="M512 380.586667m-32 0a32 32 0 1 0 64 0 32 32 0 1 0-64 0Z" fill="#67B4FA" /></svg>
