<?xml version="1.0" standalone="no"?><!DOCTYPE svg PUBLIC "-//W3C//DTD SVG 1.1//EN" "http://www.w3.org/Graphics/SVG/1.1/DTD/svg11.dtd"><svg class="icon" width="200px" height="200.00px" viewBox="0 0 1024 1024" version="1.1" xmlns="http://www.w3.org/2000/svg"><path d="M779.946667 648.96l-45.653334-82.773333v-119.466667a232.533333 232.533333 0 0 0-175.786666-236.373333v-25.173334a33.28 33.28 0 0 0-32.853334-32.853333 32.853333 32.853333 0 0 0-32.426666 32.853333v24.32a231.253333 231.253333 0 0 0-180.48 237.226667v119.466667l-42.666667 85.333333a9.813333 9.813333 0 0 0 7.68 14.506667h494.933333a9.813333 9.813333 0 0 0 7.253334-15.36z m0 0" fill="#045340" /><path d="M525.226667 749.653333a42.666667 42.666667 0 0 0 42.666666-42.666666h-85.333333a42.666667 42.666667 0 0 0 42.666667 42.666666z" fill="#67B4FA" /></svg>
