<?xml version="1.0" standalone="no"?><!DOCTYPE svg PUBLIC "-//W3C//DTD SVG 1.1//EN" "http://www.w3.org/Graphics/SVG/1.1/DTD/svg11.dtd"><svg t="1659671089439" class="icon" viewBox="0 0 1024 1024" version="1.1" xmlns="http://www.w3.org/2000/svg" p-id="7480" xmlns:xlink="http://www.w3.org/1999/xlink" width="200" height="200"><defs><style type="text/css">@font-face { font-family: feedback-iconfont; src: url("//at.alicdn.com/t/font_1031158_u69w8yhxdu.woff2?t=1630033759944") format("woff2"), url("//at.alicdn.com/t/font_1031158_u69w8yhxdu.woff?t=1630033759944") format("woff"), url("//at.alicdn.com/t/font_1031158_u69w8yhxdu.ttf?t=1630033759944") format("truetype"); }
</style></defs><path d="M896 128H128a61.44 61.44 0 0 0-64 58.24v523.52A61.44 61.44 0 0 0 128 768h256l128 96 128-96h256a61.44 61.44 0 0 0 64-58.24V186.24A61.44 61.44 0 0 0 896 128zM256 320h224a32 32 0 0 1 0 64H256a32 32 0 0 1 0-64z m512 192H256a32 32 0 0 1 0-64h512a32 32 0 0 1 0 64z" fill="#FFFFFF" p-id="7481"></path></svg>
