<?xml version="1.0" standalone="no"?><!DOCTYPE svg PUBLIC "-//W3C//DTD SVG 1.1//EN" "http://www.w3.org/Graphics/SVG/1.1/DTD/svg11.dtd"><svg class="icon" width="200px" height="200.00px" viewBox="0 0 1024 1024" version="1.1" xmlns="http://www.w3.org/2000/svg"><path d="M423.253333 263.253333A198.826667 198.826667 0 0 0 213.333333 450.56 182.613333 182.613333 0 0 0 298.666667 597.333333l-22.186667 68.266667 73.386667-38.826667a331.946667 331.946667 0 0 0 73.386666 13.226667h19.626667a166.826667 166.826667 0 0 1-6.4-46.08 175.786667 175.786667 0 0 1 178.346667-174.506667 158.293333 158.293333 0 0 1 20.053333 0 209.92 209.92 0 0 0-211.626667-156.16z m-74.666666 136.533334a25.6 25.6 0 1 1 25.6-25.6 25.6 25.6 0 0 1-25.6 25.6z m128 0a25.6 25.6 0 1 1 25.6-25.6 25.6 25.6 0 0 1-25.6 25.6z" fill="#045340" /><path d="M810.666667 591.36a174.08 174.08 0 0 0-179.626667-161.28 170.666667 170.666667 0 0 0-179.626667 161.28 170.666667 170.666667 0 0 0 179.626667 161.28 258.56 258.56 0 0 0 63.573333-11.093333l58.026667 33.706666-16.213333-55.893333a170.666667 170.666667 0 0 0 74.24-128z m-253.013334-29.44a21.76 21.76 0 0 1-21.333333-21.333333 21.333333 21.333333 0 0 1 21.333333-21.333334 21.333333 21.333333 0 0 1 21.333334 21.333334 21.333333 21.333333 0 0 1-21.333334 21.333333z m128 0a21.76 21.76 0 0 1-21.333333-21.333333 21.333333 21.333333 0 0 1 21.333333-21.333334 21.333333 21.333333 0 0 1 21.333334 21.333334 21.333333 21.333333 0 0 1-21.333334 21.333333z" fill="#67B4FA" /></svg>
