<?xml version="1.0" standalone="no"?><!DOCTYPE svg PUBLIC "-//W3C//DTD SVG 1.1//EN" "http://www.w3.org/Graphics/SVG/1.1/DTD/svg11.dtd"><svg class="icon" width="200px" height="200.00px" viewBox="0 0 1024 1024" version="1.1" xmlns="http://www.w3.org/2000/svg"><path d="M795.733333 220.586667h-396.8a60.586667 60.586667 0 0 0-42.666666 16.213333 56.746667 56.746667 0 0 0-14.933334 39.68v157.44h341.333334v135.253333h72.96L853.333333 647.253333V276.48a56.746667 56.746667 0 0 0-57.6-55.893333z" fill="#67B4FA" /><path d="M708.693333 407.466667a60.586667 60.586667 0 0 0-42.666666-16.213334H270.933333A56.746667 56.746667 0 0 0 213.333333 447.146667v370.773333l97.28-78.08h356.693334a58.88 58.88 0 0 0 42.666666-16.64A55.893333 55.893333 0 0 0 725.333333 682.666667v-235.52a56.746667 56.746667 0 0 0-16.64-39.68z m-378.026666 175.786666a32 32 0 1 1 32-32 32.426667 32.426667 0 0 1-32 32z m128 0a32 32 0 1 1 32-32 32.426667 32.426667 0 0 1-32 32z m128 0a32 32 0 1 1 32-32 32.426667 32.426667 0 0 1-32 32z" fill="#045340" /></svg>
